<?xml version="1.0" encoding="UTF-8" standalone="no"?>
<!DOCTYPE svg PUBLIC "-//W3C//DTD SVG 1.1//EN"
 "http://www.w3.org/Graphics/SVG/1.1/DTD/svg11.dtd">
<!-- Generated by graphviz version 12.2.1 (20241206.2353)
 -->
<!-- Title: src/source/DRV_STATUS.cpp Pages: 1 -->
<!--zoomable 193 -->

<svg id="main" version="1.1" xmlns="http://www.w3.org/2000/svg" xmlns:xlink="http://www.w3.org/1999/xlink" xml:space="preserve" onload="init(evt)">

<style type="text/css"><![CDATA[
.node, .edge {opacity: 0.7;}
.node.selected, .edge.selected {opacity: 1;}
.edge:hover path { stroke: red; }
.edge:hover polygon { stroke: red; fill: red; }
]]></style>

<defs>
  <circle id="rim" cx="0" cy="0" r="7"/>
  <circle id="rim2" cx="0" cy="0" r="3.5"/>
  <g id="zoomPlus">
    <use xlink:href="#rim" fill="#404040"><set attributeName="fill" to="#808080" begin="zoomplus.mouseover" end="zoomplus.mouseout"/></use>
    <path d="M-4,0h8M0,-4v8" fill="none" stroke="white" stroke-width="1.5" pointer-events="none"/>
  </g>
  <g id="zoomMin">
    <use xlink:href="#rim" fill="#404040"><set attributeName="fill" to="#808080" begin="zoomminus.mouseover" end="zoomminus.mouseout"/></use>
    <path d="M-4,0h8" fill="none" stroke="white" stroke-width="1.5" pointer-events="none"/>
  </g>
  <g id="arrowUp" transform="translate(30 24)">
    <use xlink:href="#rim"/>
    <path pointer-events="none" fill="none" stroke="white" stroke-width="1.5" d="M0,-3.0v7 M-2.5,-0.5L0,-3.0L2.5,-0.5"/>
  </g>
  <g id="arrowRight" transform="rotate(90) translate(36 -43)">
    <use xlink:href="#rim"/>
    <path pointer-events="none" fill="none" stroke="white" stroke-width="1.5" d="M0,-3.0v7 M-2.5,-0.5L0,-3.0L2.5,-0.5"/>
  </g>
  <g id="arrowDown" transform="rotate(180) translate(-30 -48)">
    <use xlink:href="#rim"/>
    <path pointer-events="none" fill="none" stroke="white" stroke-width="1.5" d="M0,-3.0v7 M-2.5,-0.5L0,-3.0L2.5,-0.5"/>
  </g>
  <g id="arrowLeft" transform="rotate(270) translate(-36 17)">
    <use xlink:href="#rim"/>
    <path pointer-events="none" fill="none" stroke="white" stroke-width="1.5" d="M0,-3.0v7 M-2.5,-0.5L0,-3.0L2.5,-0.5"/>
  </g>
  <g id="resetDef">
    <use xlink:href="#rim2" fill="#404040"><set attributeName="fill" to="#808080" begin="reset.mouseover" end="reset.mouseout"/></use>
  </g>
</defs>
<script type="application/ecmascript">
var viewWidth = 3010;
var viewHeight = 193;
var sectionId = 'dynsection-0';
</script>
<script type="application/ecmascript" xlink:href="svg.min.js"/>
<svg id="graph" class="graph">
<g id="viewport">
<title>src/source/DRV_STATUS.cpp</title>
<!-- Node1 -->
<g id="Node000001" class="node">
<title>Node1</title>
<g id="a_Node000001"><a xlink:title=" ">
<polygon fill="#999999" stroke="#666666" points="1637.88,-185 1488.38,-185 1488.38,-165.75 1637.88,-165.75 1637.88,-185"/>
<text text-anchor="middle" x="1563.12" y="-171.5" font-family="Helvetica,sans-Serif" font-size="10.00">src/source/DRV_STATUS.cpp</text>
</a>
</g>
</g>
<!-- Node2 -->
<g id="Node000002" class="node">
<title>Node2</title>
<g id="a_Node000002"><a xlink:href="_t_m_c_stepper_8h.html" target="_top" xlink:title=" ">
<polygon fill="white" stroke="#666666" points="1552.12,-129.75 1464.12,-129.75 1464.12,-110.5 1552.12,-110.5 1552.12,-129.75"/>
<text text-anchor="middle" x="1508.12" y="-116.25" font-family="Helvetica,sans-Serif" font-size="10.00">../TMCStepper.h</text>
</a>
</g>
</g>
<!-- Node1&#45;&gt;Node2 -->
<g id="edge1_Node000001_Node000002" class="edge">
<title>Node1&#45;&gt;Node2</title>
<g id="a_edge1_Node000001_Node000002"><a xlink:title=" ">
<path fill="none" stroke="#63b8ff" d="M1554.04,-165.58C1546.29,-158.07 1534.91,-147.06 1525.43,-137.88"/>
<polygon fill="#63b8ff" stroke="#63b8ff" points="1528.11,-135.6 1518.49,-131.16 1523.24,-140.63 1528.11,-135.6"/>
</a>
</g>
</g>
<!-- Node24 -->
<g id="Node000024" class="node">
<title>Node24</title>
<g id="a_Node000024"><a xlink:href="_t_m_c___m_a_c_r_o_s_8h.html" target="_top" xlink:title=" ">
<polygon fill="white" stroke="#666666" points="1665.88,-129.75 1570.38,-129.75 1570.38,-110.5 1665.88,-110.5 1665.88,-129.75"/>
<text text-anchor="middle" x="1618.12" y="-116.25" font-family="Helvetica,sans-Serif" font-size="10.00">TMC_MACROS.h</text>
</a>
</g>
</g>
<!-- Node1&#45;&gt;Node24 -->
<g id="edge24_Node000001_Node000024" class="edge">
<title>Node1&#45;&gt;Node24</title>
<g id="a_edge24_Node000001_Node000024"><a xlink:title=" ">
<path fill="none" stroke="#63b8ff" d="M1572.21,-165.58C1579.96,-158.07 1591.34,-147.06 1600.82,-137.88"/>
<polygon fill="#63b8ff" stroke="#63b8ff" points="1603.01,-140.63 1607.76,-131.16 1598.14,-135.6 1603.01,-140.63"/>
</a>
</g>
</g>
<!-- Node3 -->
<g id="Node000003" class="node">
<title>Node3</title>
<g id="a_Node000003"><a xlink:href="_s_e_r_i_a_l___s_w_i_t_c_h_8h.html" target="_top" xlink:title=" ">
<polygon fill="white" stroke="#666666" points="138.25,-74.5 0,-74.5 0,-55.25 138.25,-55.25 138.25,-74.5"/>
<text text-anchor="middle" x="69.12" y="-61" font-family="Helvetica,sans-Serif" font-size="10.00">source/SERIAL_SWITCH.h</text>
</a>
</g>
</g>
<!-- Node2&#45;&gt;Node3 -->
<g id="edge2_Node000002_Node000003" class="edge">
<title>Node2&#45;&gt;Node3</title>
<g id="a_edge2_Node000002_Node000003"><a xlink:title=" ">
<path fill="none" stroke="#63b8ff" d="M1463.74,-118.89C1294.51,-117.75 673.37,-111.2 149.65,-74.53"/>
<polygon fill="#63b8ff" stroke="#63b8ff" points="150.19,-71.06 139.97,-73.85 149.7,-78.05 150.19,-71.06"/>
</a>
</g>
</g>
<!-- Node5 -->
<g id="Node000005" class="node">
<title>Node5</title>
<g id="a_Node000005"><a xlink:href="_s_w___s_p_i_8h.html" target="_top" xlink:title=" ">
<polygon fill="white" stroke="#666666" points="251.5,-74.5 156.75,-74.5 156.75,-55.25 251.5,-55.25 251.5,-74.5"/>
<text text-anchor="middle" x="204.12" y="-61" font-family="Helvetica,sans-Serif" font-size="10.00">source/SW_SPI.h</text>
</a>
</g>
</g>
<!-- Node2&#45;&gt;Node5 -->
<g id="edge4_Node000002_Node000005" class="edge">
<title>Node2&#45;&gt;Node5</title>
<g id="a_edge4_Node000002_Node000005"><a xlink:title=" ">
<path fill="none" stroke="#63b8ff" d="M1463.83,-119.37C1303.62,-119.87 739.18,-118.27 263.2,-74.56"/>
<polygon fill="#63b8ff" stroke="#63b8ff" points="263.76,-71.1 253.48,-73.66 263.11,-78.07 263.76,-71.1"/>
</a>
</g>
</g>
<!-- Node6 -->
<g id="Node000006" class="node">
<title>Node6</title>
<g id="a_Node000006"><a xlink:href="_t_m_c2130__bitfields_8h.html" target="_top" xlink:title=" ">
<polygon fill="white" stroke="#666666" points="408.25,-74.5 270,-74.5 270,-55.25 408.25,-55.25 408.25,-74.5"/>
<text text-anchor="middle" x="339.12" y="-61" font-family="Helvetica,sans-Serif" font-size="10.00">source/TMC2130_bitfields.h</text>
</a>
</g>
</g>
<!-- Node2&#45;&gt;Node6 -->
<g id="edge6_Node000002_Node000006" class="edge">
<title>Node2&#45;&gt;Node6</title>
<g id="a_edge6_Node000002_Node000006"><a xlink:title=" ">
<path fill="none" stroke="#63b8ff" d="M1463.63,-118.41C1316.45,-115.81 831.69,-105.38 419.67,-74.64"/>
<polygon fill="#63b8ff" stroke="#63b8ff" points="420.17,-71.16 409.93,-73.9 419.64,-78.14 420.17,-71.16"/>
</a>
</g>
</g>
<!-- Node7 -->
<g id="Node000007" class="node">
<title>Node7</title>
<g id="a_Node000007"><a xlink:href="_t_m_c2160__bitfields_8h.html" target="_top" xlink:title=" ">
<polygon fill="white" stroke="#666666" points="564.25,-74.5 426,-74.5 426,-55.25 564.25,-55.25 564.25,-74.5"/>
<text text-anchor="middle" x="495.12" y="-61" font-family="Helvetica,sans-Serif" font-size="10.00">source/TMC2160_bitfields.h</text>
</a>
</g>
</g>
<!-- Node2&#45;&gt;Node7 -->
<g id="edge7_Node000002_Node000007" class="edge">
<title>Node2&#45;&gt;Node7</title>
<g id="a_edge7_Node000002_Node000007"><a xlink:title=" ">
<path fill="none" stroke="#63b8ff" d="M1463.77,-117.99C1330.9,-114.39 924.23,-101.84 575.76,-74.66"/>
<polygon fill="#63b8ff" stroke="#63b8ff" points="576.18,-71.18 565.94,-73.88 575.63,-78.16 576.18,-71.18"/>
</a>
</g>
</g>
<!-- Node8 -->
<g id="Node000008" class="node">
<title>Node8</title>
<g id="a_Node000008"><a xlink:href="_t_m_c5130__bitfields_8h.html" target="_top" xlink:title=" ">
<polygon fill="white" stroke="#666666" points="720.25,-74.5 582,-74.5 582,-55.25 720.25,-55.25 720.25,-74.5"/>
<text text-anchor="middle" x="651.12" y="-61" font-family="Helvetica,sans-Serif" font-size="10.00">source/TMC5130_bitfields.h</text>
</a>
</g>
</g>
<!-- Node2&#45;&gt;Node8 -->
<g id="edge8_Node000002_Node000008" class="edge">
<title>Node2&#45;&gt;Node8</title>
<g id="a_edge8_Node000002_Node000008"><a xlink:title=" ">
<path fill="none" stroke="#63b8ff" d="M1463.71,-117.4C1346.18,-112.68 1017.05,-98.29 731.84,-74.68"/>
<polygon fill="#63b8ff" stroke="#63b8ff" points="732.19,-71.2 721.94,-73.86 731.61,-78.18 732.19,-71.2"/>
</a>
</g>
</g>
<!-- Node9 -->
<g id="Node000009" class="node">
<title>Node9</title>
<g id="a_Node000009"><a xlink:href="_t_m_c5160__bitfields_8h.html" target="_top" xlink:title=" ">
<polygon fill="white" stroke="#666666" points="876.25,-74.5 738,-74.5 738,-55.25 876.25,-55.25 876.25,-74.5"/>
<text text-anchor="middle" x="807.12" y="-61" font-family="Helvetica,sans-Serif" font-size="10.00">source/TMC5160_bitfields.h</text>
</a>
</g>
</g>
<!-- Node2&#45;&gt;Node9 -->
<g id="edge9_Node000002_Node000009" class="edge">
<title>Node2&#45;&gt;Node9</title>
<g id="a_edge9_Node000002_Node000009"><a xlink:title=" ">
<path fill="none" stroke="#63b8ff" d="M1463.89,-116.55C1363.5,-110.56 1110.5,-94.78 887.69,-74.7"/>
<polygon fill="#63b8ff" stroke="#63b8ff" points="888.22,-71.23 877.94,-73.82 887.58,-78.2 888.22,-71.23"/>
</a>
</g>
</g>
<!-- Node10 -->
<g id="Node000010" class="node">
<title>Node10</title>
<g id="a_Node000010"><a xlink:href="_t_m_c2208__bitfields_8h.html" target="_top" xlink:title=" ">
<polygon fill="white" stroke="#666666" points="1032.25,-74.5 894,-74.5 894,-55.25 1032.25,-55.25 1032.25,-74.5"/>
<text text-anchor="middle" x="963.12" y="-61" font-family="Helvetica,sans-Serif" font-size="10.00">source/TMC2208_bitfields.h</text>
</a>
</g>
</g>
<!-- Node2&#45;&gt;Node10 -->
<g id="edge10_Node000002_Node000010" class="edge">
<title>Node2&#45;&gt;Node10</title>
<g id="a_edge10_Node000002_Node000010"><a xlink:title=" ">
<path fill="none" stroke="#63b8ff" d="M1463.67,-115.1C1382.49,-107.7 1204.5,-91.25 1043.51,-74.73"/>
<polygon fill="#63b8ff" stroke="#63b8ff" points="1044.25,-71.29 1033.95,-73.75 1043.54,-78.25 1044.25,-71.29"/>
</a>
</g>
</g>
<!-- Node11 -->
<g id="Node000011" class="node">
<title>Node11</title>
<g id="a_Node000011"><a xlink:href="_t_m_c2209__bitfields_8h.html" target="_top" xlink:title=" ">
<polygon fill="white" stroke="#666666" points="1188.25,-74.5 1050,-74.5 1050,-55.25 1188.25,-55.25 1188.25,-74.5"/>
<text text-anchor="middle" x="1119.12" y="-61" font-family="Helvetica,sans-Serif" font-size="10.00">source/TMC2209_bitfields.h</text>
</a>
</g>
</g>
<!-- Node2&#45;&gt;Node11 -->
<g id="edge11_Node000002_Node000011" class="edge">
<title>Node2&#45;&gt;Node11</title>
<g id="a_edge11_Node000002_Node000011"><a xlink:title=" ">
<path fill="none" stroke="#63b8ff" d="M1463.88,-113.07C1398.93,-104.18 1276.83,-87.46 1196.74,-76.5"/>
<polygon fill="#63b8ff" stroke="#63b8ff" points="1197.61,-73.09 1187.23,-75.2 1196.67,-80.02 1197.61,-73.09"/>
</a>
</g>
</g>
<!-- Node12 -->
<g id="Node000012" class="node">
<title>Node12</title>
<g id="a_Node000012"><a xlink:href="_t_m_c2240__bitfields_8h.html" target="_top" xlink:title=" ">
<polygon fill="white" stroke="#666666" points="1344.25,-74.5 1206,-74.5 1206,-55.25 1344.25,-55.25 1344.25,-74.5"/>
<text text-anchor="middle" x="1275.12" y="-61" font-family="Helvetica,sans-Serif" font-size="10.00">source/TMC2240_bitfields.h</text>
</a>
</g>
</g>
<!-- Node2&#45;&gt;Node12 -->
<g id="edge12_Node000002_Node000012" class="edge">
<title>Node2&#45;&gt;Node12</title>
<g id="a_edge12_Node000002_Node000012"><a xlink:title=" ">
<path fill="none" stroke="#63b8ff" d="M1468.34,-110.03C1428.96,-101.03 1368.54,-87.23 1325.77,-77.45"/>
<polygon fill="#63b8ff" stroke="#63b8ff" points="1326.75,-74.08 1316.23,-75.27 1325.19,-80.91 1326.75,-74.08"/>
</a>
</g>
</g>
<!-- Node13 -->
<g id="Node000013" class="node">
<title>Node13</title>
<g id="a_Node000013"><a xlink:href="_t_m_c2660__bitfields_8h.html" target="_top" xlink:title=" ">
<polygon fill="white" stroke="#666666" points="1500.25,-74.5 1362,-74.5 1362,-55.25 1500.25,-55.25 1500.25,-74.5"/>
<text text-anchor="middle" x="1431.12" y="-61" font-family="Helvetica,sans-Serif" font-size="10.00">source/TMC2660_bitfields.h</text>
</a>
</g>
</g>
<!-- Node2&#45;&gt;Node13 -->
<g id="edge13_Node000002_Node000013" class="edge">
<title>Node2&#45;&gt;Node13</title>
<g id="a_edge13_Node000002_Node000013"><a xlink:title=" ">
<path fill="none" stroke="#63b8ff" d="M1495.06,-110.09C1483.67,-102.21 1466.9,-90.61 1453.39,-81.27"/>
<polygon fill="#63b8ff" stroke="#63b8ff" points="1455.71,-78.62 1445.5,-75.81 1451.73,-84.38 1455.71,-78.62"/>
</a>
</g>
</g>
<!-- Node14 -->
<g id="Node000014" class="node">
<title>Node14</title>
<g id="a_Node000014"><a xlink:href="_t_m_c_stepper_base_8h.html" target="_top" xlink:title=" ">
<polygon fill="white" stroke="#666666" points="1652.38,-74.5 1517.88,-74.5 1517.88,-55.25 1652.38,-55.25 1652.38,-74.5"/>
<text text-anchor="middle" x="1585.12" y="-61" font-family="Helvetica,sans-Serif" font-size="10.00">source/TMCStepperBase.h</text>
</a>
</g>
</g>
<!-- Node2&#45;&gt;Node14 -->
<g id="edge14_Node000002_Node000014" class="edge">
<title>Node2&#45;&gt;Node14</title>
<g id="a_edge14_Node000002_Node000014"><a xlink:title=" ">
<path fill="none" stroke="#63b8ff" d="M1521.19,-110.09C1532.58,-102.21 1549.35,-90.61 1562.86,-81.27"/>
<polygon fill="#63b8ff" stroke="#63b8ff" points="1564.52,-84.38 1570.75,-75.81 1560.54,-78.62 1564.52,-84.38"/>
</a>
</g>
</g>
<!-- Node15 -->
<g id="Node000015" class="node">
<title>Node15</title>
<g id="a_Node000015"><a xlink:href="_t_m_c2130_stepper_8h.html" target="_top" xlink:title=" ">
<polygon fill="white" stroke="#666666" points="1802.25,-74.5 1670,-74.5 1670,-55.25 1802.25,-55.25 1802.25,-74.5"/>
<text text-anchor="middle" x="1736.12" y="-61" font-family="Helvetica,sans-Serif" font-size="10.00">source/TMC2130Stepper.h</text>
</a>
</g>
</g>
<!-- Node2&#45;&gt;Node15 -->
<g id="edge15_Node000002_Node000015" class="edge">
<title>Node2&#45;&gt;Node15</title>
<g id="a_edge15_Node000002_Node000015"><a xlink:title=" ">
<path fill="none" stroke="#63b8ff" d="M1547.06,-110.03C1585.51,-101.05 1644.46,-87.28 1686.3,-77.51"/>
<polygon fill="#63b8ff" stroke="#63b8ff" points="1686.93,-80.96 1695.88,-75.28 1685.34,-74.14 1686.93,-80.96"/>
</a>
</g>
</g>
<!-- Node16 -->
<g id="Node000016" class="node">
<title>Node16</title>
<g id="a_Node000016"><a xlink:href="_t_m_c2160_stepper_8h.html" target="_top" xlink:title=" ">
<polygon fill="white" stroke="#666666" points="1952.25,-74.5 1820,-74.5 1820,-55.25 1952.25,-55.25 1952.25,-74.5"/>
<text text-anchor="middle" x="1886.12" y="-61" font-family="Helvetica,sans-Serif" font-size="10.00">source/TMC2160Stepper.h</text>
</a>
</g>
</g>
<!-- Node2&#45;&gt;Node16 -->
<g id="edge16_Node000002_Node000016" class="edge">
<title>Node2&#45;&gt;Node16</title>
<g id="a_edge16_Node000002_Node000016"><a xlink:title=" ">
<path fill="none" stroke="#63b8ff" d="M1552.36,-111.84C1555.32,-111.38 1558.27,-110.93 1561.12,-110.5 1645.65,-97.82 1742.76,-84.67 1808.65,-75.96"/>
<polygon fill="#63b8ff" stroke="#63b8ff" points="1808.81,-79.47 1818.26,-74.69 1807.89,-72.53 1808.81,-79.47"/>
</a>
</g>
</g>
<!-- Node17 -->
<g id="Node000017" class="node">
<title>Node17</title>
<g id="a_Node000017"><a xlink:href="_t_m_c5130_stepper_8h.html" target="_top" xlink:title=" ">
<polygon fill="white" stroke="#666666" points="2102.25,-74.5 1970,-74.5 1970,-55.25 2102.25,-55.25 2102.25,-74.5"/>
<text text-anchor="middle" x="2036.12" y="-61" font-family="Helvetica,sans-Serif" font-size="10.00">source/TMC5130Stepper.h</text>
</a>
</g>
</g>
<!-- Node2&#45;&gt;Node17 -->
<g id="edge17_Node000002_Node000017" class="edge">
<title>Node2&#45;&gt;Node17</title>
<g id="a_edge17_Node000002_Node000017"><a xlink:title=" ">
<path fill="none" stroke="#63b8ff" d="M1552.62,-111.65C1555.5,-111.24 1558.35,-110.85 1561.12,-110.5 1734.58,-88.61 1781.64,-92.52 1958.59,-74.73"/>
<polygon fill="#63b8ff" stroke="#63b8ff" points="1958.78,-78.23 1968.38,-73.74 1958.07,-71.26 1958.78,-78.23"/>
</a>
</g>
</g>
<!-- Node18 -->
<g id="Node000018" class="node">
<title>Node18</title>
<g id="a_Node000018"><a xlink:href="_t_m_c5160_stepper_8h.html" target="_top" xlink:title=" ">
<polygon fill="white" stroke="#666666" points="2252.25,-74.5 2120,-74.5 2120,-55.25 2252.25,-55.25 2252.25,-74.5"/>
<text text-anchor="middle" x="2186.12" y="-61" font-family="Helvetica,sans-Serif" font-size="10.00">source/TMC5160Stepper.h</text>
</a>
</g>
</g>
<!-- Node2&#45;&gt;Node18 -->
<g id="edge18_Node000002_Node000018" class="edge">
<title>Node2&#45;&gt;Node18</title>
<g id="a_edge18_Node000002_Node000018"><a xlink:title=" ">
<path fill="none" stroke="#63b8ff" d="M1552.62,-111.57C1555.49,-111.18 1558.35,-110.82 1561.12,-110.5 1800.84,-83.21 1865.21,-96.09 2108.54,-74.68"/>
<polygon fill="#63b8ff" stroke="#63b8ff" points="2108.73,-78.18 2118.38,-73.81 2108.11,-71.21 2108.73,-78.18"/>
</a>
</g>
</g>
<!-- Node19 -->
<g id="Node000019" class="node">
<title>Node19</title>
<g id="a_Node000019"><a xlink:href="_t_m_c2208_stepper_8h.html" target="_top" xlink:title=" ">
<polygon fill="white" stroke="#666666" points="2402.25,-74.5 2270,-74.5 2270,-55.25 2402.25,-55.25 2402.25,-74.5"/>
<text text-anchor="middle" x="2336.12" y="-61" font-family="Helvetica,sans-Serif" font-size="10.00">source/TMC2208Stepper.h</text>
</a>
</g>
</g>
<!-- Node2&#45;&gt;Node19 -->
<g id="edge19_Node000002_Node000019" class="edge">
<title>Node2&#45;&gt;Node19</title>
<g id="a_edge19_Node000002_Node000019"><a xlink:title=" ">
<path fill="none" stroke="#63b8ff" d="M1552.61,-111.52C1555.49,-111.14 1558.34,-110.8 1561.12,-110.5 1867.26,-77.82 1948.77,-99.78 2258.77,-74.64"/>
<polygon fill="#63b8ff" stroke="#63b8ff" points="2258.71,-78.15 2268.39,-73.85 2258.13,-71.18 2258.71,-78.15"/>
</a>
</g>
</g>
<!-- Node20 -->
<g id="Node000020" class="node">
<title>Node20</title>
<g id="a_Node000020"><a xlink:href="_t_m_c2209_stepper_8h.html" target="_top" xlink:title=" ">
<polygon fill="white" stroke="#666666" points="2552.25,-74.5 2420,-74.5 2420,-55.25 2552.25,-55.25 2552.25,-74.5"/>
<text text-anchor="middle" x="2486.12" y="-61" font-family="Helvetica,sans-Serif" font-size="10.00">source/TMC2209Stepper.h</text>
</a>
</g>
</g>
<!-- Node2&#45;&gt;Node20 -->
<g id="edge20_Node000002_Node000020" class="edge">
<title>Node2&#45;&gt;Node20</title>
<g id="a_edge20_Node000002_Node000020"><a xlink:title=" ">
<path fill="none" stroke="#63b8ff" d="M1552.61,-111.49C1555.48,-111.12 1558.34,-110.78 1561.12,-110.5 1933.61,-72.44 2032.25,-103.5 2408.68,-74.63"/>
<polygon fill="#63b8ff" stroke="#63b8ff" points="2408.69,-78.14 2418.39,-73.87 2408.15,-71.16 2408.69,-78.14"/>
</a>
</g>
</g>
<!-- Node21 -->
<g id="Node000021" class="node">
<title>Node21</title>
<g id="a_Node000021"><a xlink:href="_t_m_c2224_stepper_8h.html" target="_top" xlink:title=" ">
<polygon fill="white" stroke="#666666" points="2702.25,-74.5 2570,-74.5 2570,-55.25 2702.25,-55.25 2702.25,-74.5"/>
<text text-anchor="middle" x="2636.12" y="-61" font-family="Helvetica,sans-Serif" font-size="10.00">source/TMC2224Stepper.h</text>
</a>
</g>
</g>
<!-- Node2&#45;&gt;Node21 -->
<g id="edge21_Node000002_Node000021" class="edge">
<title>Node2&#45;&gt;Node21</title>
<g id="a_edge21_Node000002_Node000021"><a xlink:title=" ">
<path fill="none" stroke="#63b8ff" d="M1552.6,-111.47C1555.48,-111.1 1558.34,-110.78 1561.12,-110.5 2000.02,-67.06 2115.74,-107.25 2558.71,-74.61"/>
<polygon fill="#63b8ff" stroke="#63b8ff" points="2558.68,-78.12 2568.39,-73.89 2558.16,-71.14 2558.68,-78.12"/>
</a>
</g>
</g>
<!-- Node22 -->
<g id="Node000022" class="node">
<title>Node22</title>
<g id="a_Node000022"><a xlink:href="_t_m_c2240_stepper_8h.html" target="_top" xlink:title=" ">
<polygon fill="white" stroke="#666666" points="2852.25,-74.5 2720,-74.5 2720,-55.25 2852.25,-55.25 2852.25,-74.5"/>
<text text-anchor="middle" x="2786.12" y="-61" font-family="Helvetica,sans-Serif" font-size="10.00">source/TMC2240Stepper.h</text>
</a>
</g>
</g>
<!-- Node2&#45;&gt;Node22 -->
<g id="edge22_Node000002_Node000022" class="edge">
<title>Node2&#45;&gt;Node22</title>
<g id="a_edge22_Node000002_Node000022"><a xlink:title=" ">
<path fill="none" stroke="#63b8ff" d="M1552.6,-111.46C1555.48,-111.09 1558.34,-110.77 1561.12,-110.5 2066.39,-61.69 2199.18,-111.01 2708.56,-74.61"/>
<polygon fill="#63b8ff" stroke="#63b8ff" points="2708.67,-78.11 2718.39,-73.9 2708.16,-71.13 2708.67,-78.11"/>
</a>
</g>
</g>
<!-- Node23 -->
<g id="Node000023" class="node">
<title>Node23</title>
<g id="a_Node000023"><a xlink:href="_t_m_c2660_stepper_8h.html" target="_top" xlink:title=" ">
<polygon fill="white" stroke="#666666" points="3002.25,-74.5 2870,-74.5 2870,-55.25 3002.25,-55.25 3002.25,-74.5"/>
<text text-anchor="middle" x="2936.12" y="-61" font-family="Helvetica,sans-Serif" font-size="10.00">source/TMC2660Stepper.h</text>
</a>
</g>
</g>
<!-- Node2&#45;&gt;Node23 -->
<g id="edge23_Node000002_Node000023" class="edge">
<title>Node2&#45;&gt;Node23</title>
<g id="a_edge23_Node000002_Node000023"><a xlink:title=" ">
<path fill="none" stroke="#63b8ff" d="M1552.6,-111.44C1555.48,-111.08 1558.34,-110.76 1561.12,-110.5 2132.89,-56.3 2282.69,-114.8 2858.81,-74.59"/>
<polygon fill="#63b8ff" stroke="#63b8ff" points="2858.66,-78.11 2868.39,-73.91 2858.17,-71.13 2858.66,-78.11"/>
</a>
</g>
</g>
<!-- Node4 -->
<g id="Node000004" class="node">
<title>Node4</title>
<g id="a_Node000004"><a xlink:href="_t_m_c__platforms_8h.html" target="_top" xlink:title=" ">
<polygon fill="white" stroke="#666666" points="182,-19.25 90.25,-19.25 90.25,0 182,0 182,-19.25"/>
<text text-anchor="middle" x="136.12" y="-5.75" font-family="Helvetica,sans-Serif" font-size="10.00">TMC_platforms.h</text>
</a>
</g>
</g>
<!-- Node3&#45;&gt;Node4 -->
<g id="edge3_Node000003_Node000004" class="edge">
<title>Node3&#45;&gt;Node4</title>
<g id="a_edge3_Node000003_Node000004"><a xlink:title=" ">
<path fill="none" stroke="#63b8ff" d="M80.49,-54.84C90.17,-47.15 104.32,-35.9 115.93,-26.68"/>
<polygon fill="#63b8ff" stroke="#63b8ff" points="118.09,-29.43 123.74,-20.47 113.74,-23.95 118.09,-29.43"/>
</a>
</g>
</g>
<!-- Node5&#45;&gt;Node4 -->
<g id="edge5_Node000005_Node000004" class="edge">
<title>Node5&#45;&gt;Node4</title>
<g id="a_edge5_Node000005_Node000004"><a xlink:title=" ">
<path fill="none" stroke="#63b8ff" d="M192.59,-54.84C182.66,-47.07 168.11,-35.67 156.27,-26.4"/>
<polygon fill="#63b8ff" stroke="#63b8ff" points="158.71,-23.87 148.68,-20.46 154.4,-29.38 158.71,-23.87"/>
</a>
</g>
</g>
</g>
</svg>

<g id="navigator" transform="translate(0 0)" fill="#404254">
  <rect fill="#f2f5e9" fill-opacity="0.5" stroke="#606060" stroke-width=".5" x="0" y="0" width="60" height="60"/>
  <use id="zoomplus" xlink:href="#zoomPlus" x="17" y="9" onmousedown="handleZoom(evt,'in')"/>
  <use id="zoomminus" xlink:href="#zoomMin" x="42" y="9" onmousedown="handleZoom(evt,'out')"/>
  <use id="reset" xlink:href="#resetDef" x="30" y="36" onmousedown="handleReset()"/>
   <use id="arrowup" xlink:href="#arrowUp" x="0" y="0" onmousedown="handlePan(0,-1)"/>
  <use id="arrowright" xlink:href="#arrowRight" x="0" y="0" onmousedown="handlePan(1,0)"/>
  <use id="arrowdown" xlink:href="#arrowDown" x="0" y="0" onmousedown="handlePan(0,1)"/>
  <use id="arrowleft" xlink:href="#arrowLeft" x="0" y="0" onmousedown="handlePan(-1,0)"/>
</g>
<svg viewBox="0 0 15 15" width="100%" height="30px" preserveAspectRatio="xMaxYMin meet">
 <g id="arrow_out" transform="scale(0.3 0.3)">
  <a xlink:href="_d_r_v___s_t_a_t_u_s_8cpp__incl_org.svg" target="_base">
   <rect id="button" ry="5" rx="5" y="6" x="6" height="38" width="38"
        fill="#f2f5e9" fill-opacity="0.5" stroke="#606060" stroke-width="1.0"/>
   <path id="arrow"
     d="M 11.500037,31.436501 C 11.940474,20.09759 22.043105,11.32322 32.158766,21.979434 L 37.068811,17.246167 C 37.068811,17.246167 37.088388,32 37.088388,32 L 22.160133,31.978069 C 22.160133,31.978069 26.997745,27.140456 26.997745,27.140456 C 18.528582,18.264221 13.291696,25.230495 11.500037,31.436501 z"
     style="fill:#404040;"/>
  </a>
 </g>
</svg>

<style type='text/css'>
<![CDATA[
[data-mouse-over-selected='false'] { opacity: 0.7; }
[data-mouse-over-selected='true']  { opacity: 1.0; }
]]>
</style>
<script type="application/ecmascript"><![CDATA[
document.addEventListener('DOMContentLoaded', (event) => {
  highlightEdges();
  highlightAdjacentNodes();
});
]]></script>
</svg>
