<?xml version="1.0" encoding="UTF-8" standalone="no"?>
<!DOCTYPE svg PUBLIC "-//W3C//DTD SVG 1.1//EN"
 "http://www.w3.org/Graphics/SVG/1.1/DTD/svg11.dtd">
<!-- Generated by graphviz version 12.2.1 (20241206.2353)
 -->
<!-- Title: src/source/SW_SPI.h Pages: 1 -->
<svg width="4526pt" height="138pt"
 viewBox="0.00 0.00 4525.50 137.75" xmlns="http://www.w3.org/2000/svg" xmlns:xlink="http://www.w3.org/1999/xlink">
<g id="graph0" class="graph" transform="scale(1 1) rotate(0) translate(4 133.75)">
<title>src/source/SW_SPI.h</title>
<!-- Node1 -->
<g id="Node000001" class="node">
<title>Node1</title>
<g id="a_Node000001"><a xlink:title=" ">
<polygon fill="#999999" stroke="#666666" points="3433.5,-129.75 3322.25,-129.75 3322.25,-110.5 3433.5,-110.5 3433.5,-129.75"/>
<text text-anchor="middle" x="3377.88" y="-116.25" font-family="Helvetica,sans-Serif" font-size="10.00">src/source/SW_SPI.h</text>
</a>
</g>
</g>
<!-- Node2 -->
<g id="Node000002" class="node">
<title>Node2</title>
<g id="a_Node000002"><a xlink:href="_t_m_c_stepper_8h.html" target="_top" xlink:title=" ">
<polygon fill="white" stroke="#666666" points="2290.62,-74.5 2195.12,-74.5 2195.12,-55.25 2290.62,-55.25 2290.62,-74.5"/>
<text text-anchor="middle" x="2242.88" y="-61" font-family="Helvetica,sans-Serif" font-size="10.00">src/TMCStepper.h</text>
</a>
</g>
</g>
<!-- Node1&#45;&gt;Node2 -->
<g id="edge1_Node000001_Node000002" class="edge">
<title>Node1&#45;&gt;Node2</title>
<g id="a_edge1_Node000001_Node000002"><a xlink:title=" ">
<path fill="none" stroke="#63b8ff" d="M3310.62,-115.97C3102.29,-106.2 2470.88,-76.57 2291.11,-68.14"/>
<polygon fill="#63b8ff" stroke="#63b8ff" points="3310.31,-119.46 3320.47,-116.43 3310.64,-112.47 3310.31,-119.46"/>
</a>
</g>
</g>
<!-- Node27 -->
<g id="Node000027" class="node">
<title>Node27</title>
<g id="a_Node000027"><a xlink:href="_t_m_c2660_stepper_8cpp.html" target="_top" xlink:title=" ">
<polygon fill="white" stroke="#666666" points="4517.5,-19.25 4358.25,-19.25 4358.25,0 4517.5,0 4517.5,-19.25"/>
<text text-anchor="middle" x="4437.88" y="-5.75" font-family="Helvetica,sans-Serif" font-size="10.00">src/source/TMC2660Stepper.cpp</text>
</a>
</g>
</g>
<!-- Node1&#45;&gt;Node27 -->
<g id="edge31_Node000001_Node000027" class="edge">
<title>Node1&#45;&gt;Node27</title>
<g id="a_edge31_Node000001_Node000027"><a xlink:title=" ">
<path fill="none" stroke="#63b8ff" d="M3378.05,-98.97C3379.35,-84.36 3383.72,-65.45 3396.88,-55.25 3438.7,-22.81 4296.07,-22.8 4348.88,-19.25 4351.82,-19.05 4354.81,-18.84 4357.84,-18.61"/>
<polygon fill="#63b8ff" stroke="#63b8ff" points="3374.56,-98.71 3377.61,-108.86 3381.55,-99.02 3374.56,-98.71"/>
</a>
</g>
</g>
<!-- Node31 -->
<g id="Node000031" class="node">
<title>Node31</title>
<g id="a_Node000031"><a xlink:href="_s_w___s_p_i_8cpp.html" target="_top" xlink:title=" ">
<polygon fill="white" stroke="#666666" points="3527.75,-74.5 3406,-74.5 3406,-55.25 3527.75,-55.25 3527.75,-74.5"/>
<text text-anchor="middle" x="3466.88" y="-61" font-family="Helvetica,sans-Serif" font-size="10.00">src/source/SW_SPI.cpp</text>
</a>
</g>
</g>
<!-- Node1&#45;&gt;Node31 -->
<g id="edge30_Node000001_Node000031" class="edge">
<title>Node1&#45;&gt;Node31</title>
<g id="a_edge30_Node000001_Node000031"><a xlink:title=" ">
<path fill="none" stroke="#63b8ff" d="M3402.61,-104.32C3418.36,-94.9 3438.25,-83 3451.7,-74.95"/>
<polygon fill="#63b8ff" stroke="#63b8ff" points="3401.06,-101.18 3394.27,-109.31 3404.65,-107.18 3401.06,-101.18"/>
</a>
</g>
</g>
<!-- Node3 -->
<g id="Node000003" class="node">
<title>Node3</title>
<g id="a_Node000003"><a xlink:href="_c_h_o_p_c_o_n_f_8cpp.html" target="_top" xlink:title=" ">
<polygon fill="white" stroke="#666666" points="139.75,-19.25 0,-19.25 0,0 139.75,0 139.75,-19.25"/>
<text text-anchor="middle" x="69.88" y="-5.75" font-family="Helvetica,sans-Serif" font-size="10.00">src/source/CHOPCONF.cpp</text>
</a>
</g>
</g>
<!-- Node2&#45;&gt;Node3 -->
<g id="edge2_Node000002_Node000003" class="edge">
<title>Node2&#45;&gt;Node3</title>
<g id="a_edge2_Node000002_Node000003"><a xlink:title=" ">
<path fill="none" stroke="#63b8ff" d="M2183.59,-63.31C1886.81,-60.39 560.43,-46.05 148.88,-19.25 145.98,-19.06 143.04,-18.85 140.06,-18.61"/>
<polygon fill="#63b8ff" stroke="#63b8ff" points="2183.39,-66.81 2193.42,-63.41 2183.45,-59.81 2183.39,-66.81"/>
</a>
</g>
</g>
<!-- Node4 -->
<g id="Node000004" class="node">
<title>Node4</title>
<g id="a_Node000004"><a xlink:href="_c_o_o_l_c_o_n_f_8cpp.html" target="_top" xlink:title=" ">
<polygon fill="white" stroke="#666666" points="296,-19.25 157.75,-19.25 157.75,0 296,0 296,-19.25"/>
<text text-anchor="middle" x="226.88" y="-5.75" font-family="Helvetica,sans-Serif" font-size="10.00">src/source/COOLCONF.cpp</text>
</a>
</g>
</g>
<!-- Node2&#45;&gt;Node4 -->
<g id="edge3_Node000002_Node000004" class="edge">
<title>Node2&#45;&gt;Node4</title>
<g id="a_edge3_Node000002_Node000004"><a xlink:title=" ">
<path fill="none" stroke="#63b8ff" d="M2183.49,-63.21C1900.13,-59.91 683.7,-44.51 304.88,-19.25 302.02,-19.06 299.11,-18.84 296.17,-18.6"/>
<polygon fill="#63b8ff" stroke="#63b8ff" points="2183.18,-66.7 2193.22,-63.32 2183.26,-59.7 2183.18,-66.7"/>
</a>
</g>
</g>
<!-- Node5 -->
<g id="Node000005" class="node">
<title>Node5</title>
<g id="a_Node000005"><a xlink:href="_d_r_v_c_o_n_f_8cpp.html" target="_top" xlink:title=" ">
<polygon fill="white" stroke="#666666" points="446,-19.25 313.75,-19.25 313.75,0 446,0 446,-19.25"/>
<text text-anchor="middle" x="379.88" y="-5.75" font-family="Helvetica,sans-Serif" font-size="10.00">src/source/DRVCONF.cpp</text>
</a>
</g>
</g>
<!-- Node2&#45;&gt;Node5 -->
<g id="edge4_Node000002_Node000005" class="edge">
<title>Node2&#45;&gt;Node5</title>
<g id="a_edge4_Node000002_Node000005"><a xlink:title=" ">
<path fill="none" stroke="#63b8ff" d="M2183.58,-64.32C1958.12,-65.6 1132.69,-66.59 454.88,-19.25 452,-19.05 449.06,-18.82 446.1,-18.57"/>
<polygon fill="#63b8ff" stroke="#63b8ff" points="2183.3,-67.82 2193.28,-64.26 2183.26,-60.82 2183.3,-67.82"/>
</a>
</g>
</g>
<!-- Node6 -->
<g id="Node000006" class="node">
<title>Node6</title>
<g id="a_Node000006"><a xlink:href="_d_r_v_c_t_r_l_8cpp.html" target="_top" xlink:title=" ">
<polygon fill="white" stroke="#666666" points="595.62,-19.25 464.12,-19.25 464.12,0 595.62,0 595.62,-19.25"/>
<text text-anchor="middle" x="529.88" y="-5.75" font-family="Helvetica,sans-Serif" font-size="10.00">src/source/DRVCTRL.cpp</text>
</a>
</g>
</g>
<!-- Node2&#45;&gt;Node6 -->
<g id="edge5_Node000002_Node000006" class="edge">
<title>Node2&#45;&gt;Node6</title>
<g id="a_edge5_Node000002_Node000006"><a xlink:title=" ">
<path fill="none" stroke="#63b8ff" d="M2183.67,-64.13C1970.33,-64.63 1221.02,-62.99 604.88,-19.25 602,-19.05 599.06,-18.81 596.1,-18.56"/>
<polygon fill="#63b8ff" stroke="#63b8ff" points="2183.39,-67.63 2193.38,-64.1 2183.37,-60.63 2183.39,-67.63"/>
</a>
</g>
</g>
<!-- Node7 -->
<g id="Node000007" class="node">
<title>Node7</title>
<g id="a_Node000007"><a xlink:href="_d_r_v_s_t_a_t_u_s_8cpp.html" target="_top" xlink:title=" ">
<polygon fill="white" stroke="#666666" points="758,-19.25 613.75,-19.25 613.75,0 758,0 758,-19.25"/>
<text text-anchor="middle" x="685.88" y="-5.75" font-family="Helvetica,sans-Serif" font-size="10.00">src/source/DRVSTATUS.cpp</text>
</a>
</g>
</g>
<!-- Node2&#45;&gt;Node7 -->
<g id="edge6_Node000002_Node000007" class="edge">
<title>Node2&#45;&gt;Node7</title>
<g id="a_edge6_Node000002_Node000007"><a xlink:title=" ">
<path fill="none" stroke="#63b8ff" d="M2183.31,-63.69C1983.14,-62.74 1316.39,-56.76 766.88,-19.25 764.05,-19.06 761.18,-18.84 758.27,-18.61"/>
<polygon fill="#63b8ff" stroke="#63b8ff" points="2183.18,-67.19 2193.2,-63.74 2183.21,-60.19 2183.18,-67.19"/>
</a>
</g>
</g>
<!-- Node8 -->
<g id="Node000008" class="node">
<title>Node8</title>
<g id="a_Node000008"><a xlink:href="_d_r_v___c_o_n_f_8cpp.html" target="_top" xlink:title=" ">
<polygon fill="white" stroke="#666666" points="913.62,-19.25 776.12,-19.25 776.12,0 913.62,0 913.62,-19.25"/>
<text text-anchor="middle" x="844.88" y="-5.75" font-family="Helvetica,sans-Serif" font-size="10.00">src/source/DRV_CONF.cpp</text>
</a>
</g>
</g>
<!-- Node2&#45;&gt;Node8 -->
<g id="edge7_Node000002_Node000008" class="edge">
<title>Node2&#45;&gt;Node8</title>
<g id="a_edge7_Node000002_Node000008"><a xlink:title=" ">
<path fill="none" stroke="#63b8ff" d="M2183.44,-63.48C1997.25,-61.9 1408.74,-54.27 922.88,-19.25 919.89,-19.03 916.83,-18.79 913.75,-18.53"/>
<polygon fill="#63b8ff" stroke="#63b8ff" points="2183.32,-66.98 2193.34,-63.56 2183.37,-59.98 2183.32,-66.98"/>
</a>
</g>
</g>
<!-- Node9 -->
<g id="Node000009" class="node">
<title>Node9</title>
<g id="a_Node000009"><a xlink:href="_d_r_v___s_t_a_t_u_s_8cpp.html" target="_top" xlink:title=" ">
<polygon fill="white" stroke="#666666" points="1081.62,-19.25 932.12,-19.25 932.12,0 1081.62,0 1081.62,-19.25"/>
<text text-anchor="middle" x="1006.88" y="-5.75" font-family="Helvetica,sans-Serif" font-size="10.00">src/source/DRV_STATUS.cpp</text>
</a>
</g>
</g>
<!-- Node2&#45;&gt;Node9 -->
<g id="edge8_Node000002_Node000009" class="edge">
<title>Node2&#45;&gt;Node9</title>
<g id="a_edge8_Node000002_Node000009"><a xlink:title=" ">
<path fill="none" stroke="#63b8ff" d="M2183.3,-62.93C2012.73,-59.94 1507.91,-49.03 1089.88,-19.25 1087.27,-19.06 1084.63,-18.86 1081.96,-18.65"/>
<polygon fill="#63b8ff" stroke="#63b8ff" points="2183.19,-66.43 2193.25,-63.1 2183.31,-59.43 2183.19,-66.43"/>
</a>
</g>
</g>
<!-- Node10 -->
<g id="Node000010" class="node">
<title>Node10</title>
<g id="a_Node000010"><a xlink:href="_e_n_c_m_o_d_e_8cpp.html" target="_top" xlink:title=" ">
<polygon fill="white" stroke="#666666" points="1234.5,-19.25 1099.25,-19.25 1099.25,0 1234.5,0 1234.5,-19.25"/>
<text text-anchor="middle" x="1166.88" y="-5.75" font-family="Helvetica,sans-Serif" font-size="10.00">src/source/ENCMODE.cpp</text>
</a>
</g>
</g>
<!-- Node2&#45;&gt;Node10 -->
<g id="edge9_Node000002_Node000010" class="edge">
<title>Node2&#45;&gt;Node10</title>
<g id="a_edge9_Node000002_Node000010"><a xlink:title=" ">
<path fill="none" stroke="#63b8ff" d="M2183.62,-62.61C2028.89,-59.01 1599.95,-47.11 1243.88,-19.25 1240.92,-19.02 1237.91,-18.76 1234.87,-18.49"/>
<polygon fill="#63b8ff" stroke="#63b8ff" points="2183.13,-66.1 2193.21,-62.83 2183.29,-59.1 2183.13,-66.1"/>
</a>
</g>
</g>
<!-- Node11 -->
<g id="Node000011" class="node">
<title>Node11</title>
<g id="a_Node000011"><a xlink:href="_g_c_o_n_f_8cpp.html" target="_top" xlink:title=" ">
<polygon fill="white" stroke="#666666" points="1370.88,-19.25 1252.88,-19.25 1252.88,0 1370.88,0 1370.88,-19.25"/>
<text text-anchor="middle" x="1311.88" y="-5.75" font-family="Helvetica,sans-Serif" font-size="10.00">src/source/GCONF.cpp</text>
</a>
</g>
</g>
<!-- Node2&#45;&gt;Node11 -->
<g id="edge10_Node000002_Node000011" class="edge">
<title>Node2&#45;&gt;Node11</title>
<g id="a_edge10_Node000002_Node000011"><a xlink:title=" ">
<path fill="none" stroke="#63b8ff" d="M2183.81,-62.34C2043.92,-58.37 1681.47,-46.14 1379.88,-19.25 1377.03,-19 1374.12,-18.71 1371.19,-18.41"/>
<polygon fill="#63b8ff" stroke="#63b8ff" points="2183.47,-65.83 2193.56,-62.61 2183.66,-58.83 2183.47,-65.83"/>
</a>
</g>
</g>
<!-- Node12 -->
<g id="Node000012" class="node">
<title>Node12</title>
<g id="a_Node000012"><a xlink:href="_g_l_o_b_a_l___s_c_a_l_e_r_8cpp.html" target="_top" xlink:title=" ">
<polygon fill="white" stroke="#666666" points="1557,-19.25 1388.75,-19.25 1388.75,0 1557,0 1557,-19.25"/>
<text text-anchor="middle" x="1472.88" y="-5.75" font-family="Helvetica,sans-Serif" font-size="10.00">src/source/GLOBAL_SCALER.cpp</text>
</a>
</g>
</g>
<!-- Node2&#45;&gt;Node12 -->
<g id="edge11_Node000002_Node000012" class="edge">
<title>Node2&#45;&gt;Node12</title>
<g id="a_edge11_Node000002_Node000012"><a xlink:title=" ">
<path fill="none" stroke="#63b8ff" d="M2183.58,-60.5C2065.79,-53.68 1794,-37.34 1565.88,-19.25 1562.97,-19.02 1560.01,-18.78 1557.02,-18.53"/>
<polygon fill="#63b8ff" stroke="#63b8ff" points="2183.13,-63.98 2193.31,-61.06 2183.53,-56.99 2183.13,-63.98"/>
</a>
</g>
</g>
<!-- Node13 -->
<g id="Node000013" class="node">
<title>Node13</title>
<g id="a_Node000013"><a xlink:href="_i_h_o_l_d___i_r_u_n_8cpp.html" target="_top" xlink:title=" ">
<polygon fill="white" stroke="#666666" points="1720.38,-19.25 1575.38,-19.25 1575.38,0 1720.38,0 1720.38,-19.25"/>
<text text-anchor="middle" x="1647.88" y="-5.75" font-family="Helvetica,sans-Serif" font-size="10.00">src/source/IHOLD_IRUN.cpp</text>
</a>
</g>
</g>
<!-- Node2&#45;&gt;Node13 -->
<g id="edge12_Node000002_Node000013" class="edge">
<title>Node2&#45;&gt;Node13</title>
<g id="a_edge12_Node000002_Node000013"><a xlink:title=" ">
<path fill="none" stroke="#63b8ff" d="M2183.31,-59.04C2087.65,-51.21 1893.89,-35.01 1729.88,-19.25 1726.88,-18.96 1723.83,-18.66 1720.75,-18.36"/>
<polygon fill="#63b8ff" stroke="#63b8ff" points="2182.99,-62.53 2193.25,-59.86 2183.56,-55.55 2182.99,-62.53"/>
</a>
</g>
</g>
<!-- Node14 -->
<g id="Node000014" class="node">
<title>Node14</title>
<g id="a_Node000014"><a xlink:href="_i_o_i_n_8cpp.html" target="_top" xlink:title=" ">
<polygon fill="white" stroke="#666666" points="1843.12,-19.25 1738.62,-19.25 1738.62,0 1843.12,0 1843.12,-19.25"/>
<text text-anchor="middle" x="1790.88" y="-5.75" font-family="Helvetica,sans-Serif" font-size="10.00">src/source/IOIN.cpp</text>
</a>
</g>
</g>
<!-- Node2&#45;&gt;Node14 -->
<g id="edge13_Node000002_Node000014" class="edge">
<title>Node2&#45;&gt;Node14</title>
<g id="a_edge13_Node000002_Node000014"><a xlink:title=" ">
<path fill="none" stroke="#63b8ff" d="M2183.35,-57.58C2106.64,-49.36 1969.2,-34.24 1851.88,-19.25 1849.12,-18.9 1846.29,-18.53 1843.44,-18.15"/>
<polygon fill="#63b8ff" stroke="#63b8ff" points="2182.85,-61.05 2193.16,-58.63 2183.59,-54.09 2182.85,-61.05"/>
</a>
</g>
</g>
<!-- Node15 -->
<g id="Node000015" class="node">
<title>Node15</title>
<g id="a_Node000015"><a xlink:href="_p_w_m_c_o_n_f_8cpp.html" target="_top" xlink:title=" ">
<polygon fill="white" stroke="#666666" points="1996.5,-19.25 1861.25,-19.25 1861.25,0 1996.5,0 1996.5,-19.25"/>
<text text-anchor="middle" x="1928.88" y="-5.75" font-family="Helvetica,sans-Serif" font-size="10.00">src/source/PWMCONF.cpp</text>
</a>
</g>
</g>
<!-- Node2&#45;&gt;Node15 -->
<g id="edge14_Node000002_Node000015" class="edge">
<title>Node2&#45;&gt;Node15</title>
<g id="a_edge14_Node000002_Node000015"><a xlink:title=" ">
<path fill="none" stroke="#63b8ff" d="M2183.67,-53.83C2125.75,-44.01 2038.32,-29.19 1982.42,-19.71"/>
<polygon fill="#63b8ff" stroke="#63b8ff" points="2182.91,-57.26 2193.35,-55.48 2184.08,-50.35 2182.91,-57.26"/>
</a>
</g>
</g>
<!-- Node16 -->
<g id="Node000016" class="node">
<title>Node16</title>
<g id="a_Node000016"><a xlink:href="_r_a_m_p___s_t_a_t_8cpp.html" target="_top" xlink:title=" ">
<polygon fill="white" stroke="#666666" points="2155.5,-19.25 2014.25,-19.25 2014.25,0 2155.5,0 2155.5,-19.25"/>
<text text-anchor="middle" x="2084.88" y="-5.75" font-family="Helvetica,sans-Serif" font-size="10.00">src/source/RAMP_STAT.cpp</text>
</a>
</g>
</g>
<!-- Node2&#45;&gt;Node16 -->
<g id="edge15_Node000002_Node000016" class="edge">
<title>Node2&#45;&gt;Node16</title>
<g id="a_edge15_Node000002_Node000016"><a xlink:title=" ">
<path fill="none" stroke="#63b8ff" d="M2205.21,-51.18C2176.45,-41.49 2137.5,-28.36 2111.81,-19.7"/>
<polygon fill="#63b8ff" stroke="#63b8ff" points="2204.04,-54.48 2214.64,-54.36 2206.28,-47.85 2204.04,-54.48"/>
</a>
</g>
</g>
<!-- Node17 -->
<g id="Node000017" class="node">
<title>Node17</title>
<g id="a_Node000017"><a xlink:href="_s_g_c_s_c_o_n_f_8cpp.html" target="_top" xlink:title=" ">
<polygon fill="white" stroke="#666666" points="2312.38,-19.25 2173.38,-19.25 2173.38,0 2312.38,0 2312.38,-19.25"/>
<text text-anchor="middle" x="2242.88" y="-5.75" font-family="Helvetica,sans-Serif" font-size="10.00">src/source/SGCSCONF.cpp</text>
</a>
</g>
</g>
<!-- Node2&#45;&gt;Node17 -->
<g id="edge16_Node000002_Node000017" class="edge">
<title>Node2&#45;&gt;Node17</title>
<g id="a_edge16_Node000002_Node000017"><a xlink:title=" ">
<path fill="none" stroke="#63b8ff" d="M2242.88,-43.63C2242.88,-35.34 2242.88,-26.17 2242.88,-19.61"/>
<polygon fill="#63b8ff" stroke="#63b8ff" points="2239.38,-43.57 2242.88,-53.57 2246.38,-43.57 2239.38,-43.57"/>
</a>
</g>
</g>
<!-- Node18 -->
<g id="Node000018" class="node">
<title>Node18</title>
<g id="a_Node000018"><a xlink:href="_s_h_o_r_t___c_o_n_f_8cpp.html" target="_top" xlink:title=" ">
<polygon fill="white" stroke="#666666" points="2481.38,-19.25 2330.38,-19.25 2330.38,0 2481.38,0 2481.38,-19.25"/>
<text text-anchor="middle" x="2405.88" y="-5.75" font-family="Helvetica,sans-Serif" font-size="10.00">src/source/SHORT_CONF.cpp</text>
</a>
</g>
</g>
<!-- Node2&#45;&gt;Node18 -->
<g id="edge17_Node000002_Node000018" class="edge">
<title>Node2&#45;&gt;Node18</title>
<g id="a_edge17_Node000002_Node000018"><a xlink:title=" ">
<path fill="none" stroke="#63b8ff" d="M2281.34,-51.31C2311.05,-41.6 2351.46,-28.4 2378.09,-19.7"/>
<polygon fill="#63b8ff" stroke="#63b8ff" points="2280.38,-47.94 2271.96,-54.37 2282.56,-54.59 2280.38,-47.94"/>
</a>
</g>
</g>
<!-- Node19 -->
<g id="Node000019" class="node">
<title>Node19</title>
<g id="a_Node000019"><a xlink:href="_s_l_a_v_e_c_o_n_f_8cpp.html" target="_top" xlink:title=" ">
<polygon fill="white" stroke="#666666" points="2640.5,-19.25 2499.25,-19.25 2499.25,0 2640.5,0 2640.5,-19.25"/>
<text text-anchor="middle" x="2569.88" y="-5.75" font-family="Helvetica,sans-Serif" font-size="10.00">src/source/SLAVECONF.cpp</text>
</a>
</g>
</g>
<!-- Node2&#45;&gt;Node19 -->
<g id="edge18_Node000002_Node000019" class="edge">
<title>Node2&#45;&gt;Node19</title>
<g id="a_edge18_Node000002_Node000019"><a xlink:title=" ">
<path fill="none" stroke="#63b8ff" d="M2302.36,-54.19C2362.61,-44.38 2455.1,-29.31 2514.02,-19.72"/>
<polygon fill="#63b8ff" stroke="#63b8ff" points="2301.93,-50.71 2292.62,-55.77 2303.05,-57.62 2301.93,-50.71"/>
</a>
</g>
</g>
<!-- Node20 -->
<g id="Node000020" class="node">
<title>Node20</title>
<g id="a_Node000020"><a xlink:href="_s_m_a_r_t_e_n_8cpp.html" target="_top" xlink:title=" ">
<polygon fill="white" stroke="#666666" points="2791.38,-19.25 2658.38,-19.25 2658.38,0 2791.38,0 2791.38,-19.25"/>
<text text-anchor="middle" x="2724.88" y="-5.75" font-family="Helvetica,sans-Serif" font-size="10.00">src/source/SMARTEN.cpp</text>
</a>
</g>
</g>
<!-- Node2&#45;&gt;Node20 -->
<g id="edge19_Node000002_Node000020" class="edge">
<title>Node2&#45;&gt;Node20</title>
<g id="a_edge19_Node000002_Node000020"><a xlink:title=" ">
<path fill="none" stroke="#63b8ff" d="M2302.02,-57.49C2381.23,-48.91 2526.16,-33.15 2649.88,-19.25 2652.61,-18.94 2655.4,-18.63 2658.22,-18.31"/>
<polygon fill="#63b8ff" stroke="#63b8ff" points="2301.89,-53.98 2292.32,-58.54 2302.64,-60.94 2301.89,-53.98"/>
</a>
</g>
</g>
<!-- Node21 -->
<g id="Node000021" class="node">
<title>Node21</title>
<g id="a_Node000021"><a xlink:href="_s_w___m_o_d_e_8cpp.html" target="_top" xlink:title=" ">
<polygon fill="white" stroke="#666666" points="2944.5,-19.25 2809.25,-19.25 2809.25,0 2944.5,0 2944.5,-19.25"/>
<text text-anchor="middle" x="2876.88" y="-5.75" font-family="Helvetica,sans-Serif" font-size="10.00">src/source/SW_MODE.cpp</text>
</a>
</g>
</g>
<!-- Node2&#45;&gt;Node21 -->
<g id="edge20_Node000002_Node000021" class="edge">
<title>Node2&#45;&gt;Node21</title>
<g id="a_edge20_Node000002_Node000021"><a xlink:title=" ">
<path fill="none" stroke="#63b8ff" d="M2302.24,-59.74C2404.13,-52.5 2618.79,-36.64 2799.88,-19.25 2802.82,-18.97 2805.83,-18.67 2808.87,-18.36"/>
<polygon fill="#63b8ff" stroke="#63b8ff" points="2302.21,-56.23 2292.49,-60.43 2302.71,-63.21 2302.21,-56.23"/>
</a>
</g>
</g>
<!-- Node22 -->
<g id="Node000022" class="node">
<title>Node22</title>
<g id="a_Node000022"><a xlink:href="_t_m_c2130_stepper_8cpp.html" target="_top" xlink:title=" ">
<polygon fill="white" stroke="#666666" points="3121.5,-19.25 2962.25,-19.25 2962.25,0 3121.5,0 3121.5,-19.25"/>
<text text-anchor="middle" x="3041.88" y="-5.75" font-family="Helvetica,sans-Serif" font-size="10.00">src/source/TMC2130Stepper.cpp</text>
</a>
</g>
</g>
<!-- Node2&#45;&gt;Node22 -->
<g id="edge21_Node000002_Node000022" class="edge">
<title>Node2&#45;&gt;Node22</title>
<g id="a_edge21_Node000002_Node000022"><a xlink:title=" ">
<path fill="none" stroke="#63b8ff" d="M2302.05,-60.86C2424.04,-54.5 2712.33,-38.66 2953.88,-19.25 2956.48,-19.04 2959.12,-18.82 2961.79,-18.59"/>
<polygon fill="#63b8ff" stroke="#63b8ff" points="2302.08,-57.36 2292.28,-61.37 2302.45,-64.35 2302.08,-57.36"/>
</a>
</g>
</g>
<!-- Node23 -->
<g id="Node000023" class="node">
<title>Node23</title>
<g id="a_Node000023"><a xlink:href="_t_m_c2160_stepper_8cpp.html" target="_top" xlink:title=" ">
<polygon fill="white" stroke="#666666" points="3298.5,-19.25 3139.25,-19.25 3139.25,0 3298.5,0 3298.5,-19.25"/>
<text text-anchor="middle" x="3218.88" y="-5.75" font-family="Helvetica,sans-Serif" font-size="10.00">src/source/TMC2160Stepper.cpp</text>
</a>
</g>
</g>
<!-- Node2&#45;&gt;Node23 -->
<g id="edge22_Node000002_Node000023" class="edge">
<title>Node2&#45;&gt;Node23</title>
<g id="a_edge22_Node000002_Node000023"><a xlink:title=" ">
<path fill="none" stroke="#63b8ff" d="M2302.14,-61.87C2444.9,-56.83 2819.12,-42.35 3130.88,-19.25 3133.48,-19.06 3136.12,-18.85 3138.79,-18.64"/>
<polygon fill="#63b8ff" stroke="#63b8ff" points="2302.44,-58.36 2292.57,-62.21 2302.68,-65.35 2302.44,-58.36"/>
</a>
</g>
</g>
<!-- Node24 -->
<g id="Node000024" class="node">
<title>Node24</title>
<g id="a_Node000024"><a xlink:href="_t_m_c2208_stepper_8cpp.html" target="_top" xlink:title=" ">
<polygon fill="white" stroke="#666666" points="3475.5,-19.25 3316.25,-19.25 3316.25,0 3475.5,0 3475.5,-19.25"/>
<text text-anchor="middle" x="3395.88" y="-5.75" font-family="Helvetica,sans-Serif" font-size="10.00">src/source/TMC2208Stepper.cpp</text>
</a>
</g>
</g>
<!-- Node2&#45;&gt;Node24 -->
<g id="edge23_Node000002_Node000024" class="edge">
<title>Node2&#45;&gt;Node24</title>
<g id="a_edge23_Node000002_Node000024"><a xlink:title=" ">
<path fill="none" stroke="#63b8ff" d="M2302.06,-62.55C2463.5,-58.7 2925,-46.01 3307.88,-19.25 3310.48,-19.07 3313.12,-18.87 3315.79,-18.67"/>
<polygon fill="#63b8ff" stroke="#63b8ff" points="2302.39,-59.05 2292.47,-62.78 2302.55,-66.04 2302.39,-59.05"/>
</a>
</g>
</g>
<!-- Node25 -->
<g id="Node000025" class="node">
<title>Node25</title>
<g id="a_Node000025"><a xlink:href="_t_m_c2209_stepper_8cpp.html" target="_top" xlink:title=" ">
<polygon fill="white" stroke="#666666" points="3652.5,-19.25 3493.25,-19.25 3493.25,0 3652.5,0 3652.5,-19.25"/>
<text text-anchor="middle" x="3572.88" y="-5.75" font-family="Helvetica,sans-Serif" font-size="10.00">src/source/TMC2209Stepper.cpp</text>
</a>
</g>
</g>
<!-- Node2&#45;&gt;Node25 -->
<g id="edge24_Node000002_Node000025" class="edge">
<title>Node2&#45;&gt;Node25</title>
<g id="a_edge24_Node000002_Node000025"><a xlink:title=" ">
<path fill="none" stroke="#63b8ff" d="M2302.38,-63.04C2481.39,-60.25 3030.61,-49.64 3484.88,-19.25 3487.48,-19.08 3490.12,-18.89 3492.8,-18.69"/>
<polygon fill="#63b8ff" stroke="#63b8ff" points="2302.34,-59.54 2292.4,-63.19 2302.45,-66.54 2302.34,-59.54"/>
</a>
</g>
</g>
<!-- Node26 -->
<g id="Node000026" class="node">
<title>Node26</title>
<g id="a_Node000026"><a xlink:href="_t_m_c2240_stepper_8cpp.html" target="_top" xlink:title=" ">
<polygon fill="white" stroke="#666666" points="3829.5,-19.25 3670.25,-19.25 3670.25,0 3829.5,0 3829.5,-19.25"/>
<text text-anchor="middle" x="3749.88" y="-5.75" font-family="Helvetica,sans-Serif" font-size="10.00">src/source/TMC2240Stepper.cpp</text>
</a>
</g>
</g>
<!-- Node2&#45;&gt;Node26 -->
<g id="edge25_Node000002_Node000026" class="edge">
<title>Node2&#45;&gt;Node26</title>
<g id="a_edge25_Node000002_Node000026"><a xlink:title=" ">
<path fill="none" stroke="#63b8ff" d="M2302.41,-63.41C2497.56,-61.6 3135.51,-53.28 3661.88,-19.25 3664.48,-19.08 3667.13,-18.9 3669.8,-18.7"/>
<polygon fill="#63b8ff" stroke="#63b8ff" points="2302.49,-59.91 2292.53,-63.5 2302.56,-66.91 2302.49,-59.91"/>
</a>
</g>
</g>
<!-- Node2&#45;&gt;Node27 -->
<g id="edge26_Node000002_Node000027" class="edge">
<title>Node2&#45;&gt;Node27</title>
<g id="a_edge26_Node000002_Node000027"><a xlink:title=" ">
<path fill="none" stroke="#63b8ff" d="M2302.49,-63.22C2600.94,-59.85 3934.8,-43.67 4348.88,-19.25 4351.82,-19.08 4354.82,-18.88 4357.84,-18.67"/>
<polygon fill="#63b8ff" stroke="#63b8ff" points="2302.56,-59.72 2292.6,-63.33 2302.64,-66.72 2302.56,-59.72"/>
</a>
</g>
</g>
<!-- Node28 -->
<g id="Node000028" class="node">
<title>Node28</title>
<g id="a_Node000028"><a xlink:href="_t_m_c5130_stepper_8cpp.html" target="_top" xlink:title=" ">
<polygon fill="white" stroke="#666666" points="4006.5,-19.25 3847.25,-19.25 3847.25,0 4006.5,0 4006.5,-19.25"/>
<text text-anchor="middle" x="3926.88" y="-5.75" font-family="Helvetica,sans-Serif" font-size="10.00">src/source/TMC5130Stepper.cpp</text>
</a>
</g>
</g>
<!-- Node2&#45;&gt;Node28 -->
<g id="edge27_Node000002_Node000028" class="edge">
<title>Node2&#45;&gt;Node28</title>
<g id="a_edge27_Node000002_Node000028"><a xlink:title=" ">
<path fill="none" stroke="#63b8ff" d="M2302.27,-63.71C2512.36,-62.8 3239.85,-56.93 3838.88,-19.25 3841.48,-19.09 3844.13,-18.91 3846.8,-18.71"/>
<polygon fill="#63b8ff" stroke="#63b8ff" points="2302.41,-60.21 2292.43,-63.75 2302.44,-67.21 2302.41,-60.21"/>
</a>
</g>
</g>
<!-- Node29 -->
<g id="Node000029" class="node">
<title>Node29</title>
<g id="a_Node000029"><a xlink:href="_t_m_c5160_stepper_8cpp.html" target="_top" xlink:title=" ">
<polygon fill="white" stroke="#666666" points="4183.5,-19.25 4024.25,-19.25 4024.25,0 4183.5,0 4183.5,-19.25"/>
<text text-anchor="middle" x="4103.88" y="-5.75" font-family="Helvetica,sans-Serif" font-size="10.00">src/source/TMC5160Stepper.cpp</text>
</a>
</g>
</g>
<!-- Node2&#45;&gt;Node29 -->
<g id="edge28_Node000002_Node000029" class="edge">
<title>Node2&#45;&gt;Node29</title>
<g id="a_edge28_Node000002_Node000029"><a xlink:title=" ">
<path fill="none" stroke="#63b8ff" d="M2302.36,-63.94C2526.87,-63.86 3344.09,-60.57 4015.88,-19.25 4018.48,-19.09 4021.13,-18.91 4023.8,-18.72"/>
<polygon fill="#63b8ff" stroke="#63b8ff" points="2302.4,-60.44 2292.4,-63.94 2302.4,-67.44 2302.4,-60.44"/>
</a>
</g>
</g>
<!-- Node30 -->
<g id="Node000030" class="node">
<title>Node30</title>
<g id="a_Node000030"><a xlink:href="_t_m_c_stepper_8cpp.html" target="_top" xlink:title=" ">
<polygon fill="white" stroke="#666666" points="4340,-19.25 4201.75,-19.25 4201.75,0 4340,0 4340,-19.25"/>
<text text-anchor="middle" x="4270.88" y="-5.75" font-family="Helvetica,sans-Serif" font-size="10.00">src/source/TMCStepper.cpp</text>
</a>
</g>
</g>
<!-- Node2&#45;&gt;Node30 -->
<g id="edge29_Node000002_Node000030" class="edge">
<title>Node2&#45;&gt;Node30</title>
<g id="a_edge29_Node000002_Node000030"><a xlink:title=" ">
<path fill="none" stroke="#63b8ff" d="M2302.16,-63.22C2586.4,-59.95 3811.5,-44.65 4192.88,-19.25 4195.73,-19.06 4198.64,-18.84 4201.58,-18.6"/>
<polygon fill="#63b8ff" stroke="#63b8ff" points="2302.36,-59.71 2292.4,-63.33 2302.44,-66.71 2302.36,-59.71"/>
</a>
</g>
</g>
</g>
</svg>
