<?xml version="1.0" encoding="UTF-8" standalone="no"?>
<!DOCTYPE svg PUBLIC "-//W3C//DTD SVG 1.1//EN"
 "http://www.w3.org/Graphics/SVG/1.1/DTD/svg11.dtd">
<!-- Generated by graphviz version 12.2.1 (20241206.2353)
 -->
<!-- Title: src/source/TMC2208Stepper.cpp Pages: 1 -->
<svg width="3010pt" height="193pt"
 viewBox="0.00 0.00 3010.25 193.00" xmlns="http://www.w3.org/2000/svg" xmlns:xlink="http://www.w3.org/1999/xlink">
<g id="graph0" class="graph" transform="scale(1 1) rotate(0) translate(4 189)">
<title>src/source/TMC2208Stepper.cpp</title>
<!-- Node1 -->
<g id="Node000001" class="node">
<title>Node1</title>
<g id="a_Node000001"><a xlink:title=" ">
<polygon fill="#999999" stroke="#666666" points="1510.75,-185 1351.5,-185 1351.5,-165.75 1510.75,-165.75 1510.75,-185"/>
<text text-anchor="middle" x="1431.12" y="-171.5" font-family="Helvetica,sans-Serif" font-size="10.00">src/source/TMC2208Stepper.cpp</text>
</a>
</g>
</g>
<!-- Node2 -->
<g id="Node000002" class="node">
<title>Node2</title>
<g id="a_Node000002"><a xlink:href="_t_m_c_stepper_8h.html" target="_top" xlink:title=" ">
<polygon fill="white" stroke="#666666" points="1475.12,-129.75 1387.12,-129.75 1387.12,-110.5 1475.12,-110.5 1475.12,-129.75"/>
<text text-anchor="middle" x="1431.12" y="-116.25" font-family="Helvetica,sans-Serif" font-size="10.00">../TMCStepper.h</text>
</a>
</g>
</g>
<!-- Node1&#45;&gt;Node2 -->
<g id="edge1_Node000001_Node000002" class="edge">
<title>Node1&#45;&gt;Node2</title>
<g id="a_edge1_Node000001_Node000002"><a xlink:title=" ">
<path fill="none" stroke="#63b8ff" d="M1431.12,-165.58C1431.12,-159.07 1431.12,-149.92 1431.12,-141.62"/>
<polygon fill="#63b8ff" stroke="#63b8ff" points="1434.63,-141.62 1431.13,-131.62 1427.63,-141.62 1434.63,-141.62"/>
</a>
</g>
</g>
<!-- Node3 -->
<g id="Node000003" class="node">
<title>Node3</title>
<g id="a_Node000003"><a xlink:href="_s_e_r_i_a_l___s_w_i_t_c_h_8h.html" target="_top" xlink:title=" ">
<polygon fill="white" stroke="#666666" points="138.25,-74.5 0,-74.5 0,-55.25 138.25,-55.25 138.25,-74.5"/>
<text text-anchor="middle" x="69.12" y="-61" font-family="Helvetica,sans-Serif" font-size="10.00">source/SERIAL_SWITCH.h</text>
</a>
</g>
</g>
<!-- Node1&#45;&gt;Node3 -->
<g id="edge25_Node000001_Node000003" class="edge">
<title>Node1&#45;&gt;Node3</title>
<g id="a_edge25_Node000001_Node000003"><a xlink:title=" ">
<path fill="none" stroke="#63b8ff" d="M1351.11,-169.01C1150.83,-155.41 611.53,-117.62 149.71,-74.62"/>
<polygon fill="#63b8ff" stroke="#63b8ff" points="150.26,-71.15 139.98,-73.71 149.61,-78.12 150.26,-71.15"/>
</a>
</g>
</g>
<!-- Node24 -->
<g id="Node000024" class="node">
<title>Node24</title>
<g id="a_Node000024"><a xlink:href="_t_m_c___m_a_c_r_o_s_8h.html" target="_top" xlink:title=" ">
<polygon fill="white" stroke="#666666" points="1588.88,-129.75 1493.38,-129.75 1493.38,-110.5 1588.88,-110.5 1588.88,-129.75"/>
<text text-anchor="middle" x="1541.12" y="-116.25" font-family="Helvetica,sans-Serif" font-size="10.00">TMC_MACROS.h</text>
</a>
</g>
</g>
<!-- Node1&#45;&gt;Node24 -->
<g id="edge24_Node000001_Node000024" class="edge">
<title>Node1&#45;&gt;Node24</title>
<g id="a_edge24_Node000001_Node000024"><a xlink:title=" ">
<path fill="none" stroke="#63b8ff" d="M1449.79,-165.34C1466.85,-157.08 1492.37,-144.73 1512.1,-135.18"/>
<polygon fill="#63b8ff" stroke="#63b8ff" points="1513.54,-138.37 1521.01,-130.86 1510.49,-132.07 1513.54,-138.37"/>
</a>
</g>
</g>
<!-- Node2&#45;&gt;Node3 -->
<g id="edge2_Node000002_Node000003" class="edge">
<title>Node2&#45;&gt;Node3</title>
<g id="a_edge2_Node000002_Node000003"><a xlink:title=" ">
<path fill="none" stroke="#63b8ff" d="M1386.74,-118.77C1223.62,-117.21 641.65,-109.45 149.7,-74.54"/>
<polygon fill="#63b8ff" stroke="#63b8ff" points="150.19,-71.07 139.97,-73.85 149.7,-78.05 150.19,-71.07"/>
</a>
</g>
</g>
<!-- Node5 -->
<g id="Node000005" class="node">
<title>Node5</title>
<g id="a_Node000005"><a xlink:href="_s_w___s_p_i_8h.html" target="_top" xlink:title=" ">
<polygon fill="white" stroke="#666666" points="251.5,-74.5 156.75,-74.5 156.75,-55.25 251.5,-55.25 251.5,-74.5"/>
<text text-anchor="middle" x="204.12" y="-61" font-family="Helvetica,sans-Serif" font-size="10.00">source/SW_SPI.h</text>
</a>
</g>
</g>
<!-- Node2&#45;&gt;Node5 -->
<g id="edge4_Node000002_Node000005" class="edge">
<title>Node2&#45;&gt;Node5</title>
<g id="a_edge4_Node000002_Node000005"><a xlink:title=" ">
<path fill="none" stroke="#63b8ff" d="M1386.64,-119.22C1232.57,-119.17 707.32,-115.86 263.11,-74.56"/>
<polygon fill="#63b8ff" stroke="#63b8ff" points="263.76,-71.1 253.48,-73.65 263.11,-78.07 263.76,-71.1"/>
</a>
</g>
</g>
<!-- Node6 -->
<g id="Node000006" class="node">
<title>Node6</title>
<g id="a_Node000006"><a xlink:href="_t_m_c2130__bitfields_8h.html" target="_top" xlink:title=" ">
<polygon fill="white" stroke="#666666" points="408.25,-74.5 270,-74.5 270,-55.25 408.25,-55.25 408.25,-74.5"/>
<text text-anchor="middle" x="339.12" y="-61" font-family="Helvetica,sans-Serif" font-size="10.00">source/TMC2130_bitfields.h</text>
</a>
</g>
</g>
<!-- Node2&#45;&gt;Node6 -->
<g id="edge6_Node000002_Node000006" class="edge">
<title>Node2&#45;&gt;Node6</title>
<g id="a_edge6_Node000002_Node000006"><a xlink:title=" ">
<path fill="none" stroke="#63b8ff" d="M1387.08,-118.23C1247.25,-115.16 800.62,-103.65 419.68,-74.64"/>
<polygon fill="#63b8ff" stroke="#63b8ff" points="420.17,-71.17 409.93,-73.89 419.64,-78.15 420.17,-71.17"/>
</a>
</g>
</g>
<!-- Node7 -->
<g id="Node000007" class="node">
<title>Node7</title>
<g id="a_Node000007"><a xlink:href="_t_m_c2160__bitfields_8h.html" target="_top" xlink:title=" ">
<polygon fill="white" stroke="#666666" points="564.25,-74.5 426,-74.5 426,-55.25 564.25,-55.25 564.25,-74.5"/>
<text text-anchor="middle" x="495.12" y="-61" font-family="Helvetica,sans-Serif" font-size="10.00">source/TMC2160_bitfields.h</text>
</a>
</g>
</g>
<!-- Node2&#45;&gt;Node7 -->
<g id="edge7_Node000002_Node000007" class="edge">
<title>Node2&#45;&gt;Node7</title>
<g id="a_edge7_Node000002_Node000007"><a xlink:title=" ">
<path fill="none" stroke="#63b8ff" d="M1386.86,-117.73C1261.48,-113.59 892.99,-100.09 575.69,-74.66"/>
<polygon fill="#63b8ff" stroke="#63b8ff" points="576.19,-71.19 565.94,-73.87 575.62,-78.17 576.19,-71.19"/>
</a>
</g>
</g>
<!-- Node8 -->
<g id="Node000008" class="node">
<title>Node8</title>
<g id="a_Node000008"><a xlink:href="_t_m_c5130__bitfields_8h.html" target="_top" xlink:title=" ">
<polygon fill="white" stroke="#666666" points="720.25,-74.5 582,-74.5 582,-55.25 720.25,-55.25 720.25,-74.5"/>
<text text-anchor="middle" x="651.12" y="-61" font-family="Helvetica,sans-Serif" font-size="10.00">source/TMC5130_bitfields.h</text>
</a>
</g>
</g>
<!-- Node2&#45;&gt;Node8 -->
<g id="edge8_Node000002_Node000008" class="edge">
<title>Node2&#45;&gt;Node8</title>
<g id="a_edge8_Node000002_Node000008"><a xlink:title=" ">
<path fill="none" stroke="#63b8ff" d="M1386.72,-117.02C1277.35,-111.69 986.02,-96.55 731.75,-74.69"/>
<polygon fill="#63b8ff" stroke="#63b8ff" points="732.2,-71.21 721.94,-73.84 731.6,-78.19 732.2,-71.21"/>
</a>
</g>
</g>
<!-- Node9 -->
<g id="Node000009" class="node">
<title>Node9</title>
<g id="a_Node000009"><a xlink:href="_t_m_c5160__bitfields_8h.html" target="_top" xlink:title=" ">
<polygon fill="white" stroke="#666666" points="876.25,-74.5 738,-74.5 738,-55.25 876.25,-55.25 876.25,-74.5"/>
<text text-anchor="middle" x="807.12" y="-61" font-family="Helvetica,sans-Serif" font-size="10.00">source/TMC5160_bitfields.h</text>
</a>
</g>
</g>
<!-- Node2&#45;&gt;Node9 -->
<g id="edge9_Node000002_Node000009" class="edge">
<title>Node2&#45;&gt;Node9</title>
<g id="a_edge9_Node000002_Node000009"><a xlink:title=" ">
<path fill="none" stroke="#63b8ff" d="M1386.85,-115.94C1295.67,-109.28 1080.03,-93.06 887.89,-74.74"/>
<polygon fill="#63b8ff" stroke="#63b8ff" points="888.23,-71.26 877.94,-73.79 887.56,-78.23 888.23,-71.26"/>
</a>
</g>
</g>
<!-- Node10 -->
<g id="Node000010" class="node">
<title>Node10</title>
<g id="a_Node000010"><a xlink:href="_t_m_c2208__bitfields_8h.html" target="_top" xlink:title=" ">
<polygon fill="white" stroke="#666666" points="1032.25,-74.5 894,-74.5 894,-55.25 1032.25,-55.25 1032.25,-74.5"/>
<text text-anchor="middle" x="963.12" y="-61" font-family="Helvetica,sans-Serif" font-size="10.00">source/TMC2208_bitfields.h</text>
</a>
</g>
</g>
<!-- Node2&#45;&gt;Node10 -->
<g id="edge10_Node000002_Node000010" class="edge">
<title>Node2&#45;&gt;Node10</title>
<g id="a_edge10_Node000002_Node000010"><a xlink:title=" ">
<path fill="none" stroke="#63b8ff" d="M1386.67,-114.07C1307.91,-105.11 1142.83,-86.32 1043.62,-75.03"/>
<polygon fill="#63b8ff" stroke="#63b8ff" points="1044.29,-71.59 1033.95,-73.93 1043.5,-78.54 1044.29,-71.59"/>
</a>
</g>
</g>
<!-- Node11 -->
<g id="Node000011" class="node">
<title>Node11</title>
<g id="a_Node000011"><a xlink:href="_t_m_c2209__bitfields_8h.html" target="_top" xlink:title=" ">
<polygon fill="white" stroke="#666666" points="1188.25,-74.5 1050,-74.5 1050,-55.25 1188.25,-55.25 1188.25,-74.5"/>
<text text-anchor="middle" x="1119.12" y="-61" font-family="Helvetica,sans-Serif" font-size="10.00">source/TMC2209_bitfields.h</text>
</a>
</g>
</g>
<!-- Node2&#45;&gt;Node11 -->
<g id="edge11_Node000002_Node000011" class="edge">
<title>Node2&#45;&gt;Node11</title>
<g id="a_edge11_Node000002_Node000011"><a xlink:title=" ">
<path fill="none" stroke="#63b8ff" d="M1386.75,-111.55C1333.62,-102.48 1244.2,-87.22 1183.48,-76.86"/>
<polygon fill="#63b8ff" stroke="#63b8ff" points="1184.43,-73.47 1173.98,-75.24 1183.25,-80.37 1184.43,-73.47"/>
</a>
</g>
</g>
<!-- Node12 -->
<g id="Node000012" class="node">
<title>Node12</title>
<g id="a_Node000012"><a xlink:href="_t_m_c2240__bitfields_8h.html" target="_top" xlink:title=" ">
<polygon fill="white" stroke="#666666" points="1344.25,-74.5 1206,-74.5 1206,-55.25 1344.25,-55.25 1344.25,-74.5"/>
<text text-anchor="middle" x="1275.12" y="-61" font-family="Helvetica,sans-Serif" font-size="10.00">source/TMC2240_bitfields.h</text>
</a>
</g>
</g>
<!-- Node2&#45;&gt;Node12 -->
<g id="edge12_Node000002_Node000012" class="edge">
<title>Node2&#45;&gt;Node12</title>
<g id="a_edge12_Node000002_Node000012"><a xlink:title=" ">
<path fill="none" stroke="#63b8ff" d="M1404.66,-110.09C1379.34,-101.45 1340.89,-88.32 1312.46,-78.62"/>
<polygon fill="#63b8ff" stroke="#63b8ff" points="1313.75,-75.36 1303.15,-75.44 1311.48,-81.98 1313.75,-75.36"/>
</a>
</g>
</g>
<!-- Node13 -->
<g id="Node000013" class="node">
<title>Node13</title>
<g id="a_Node000013"><a xlink:href="_t_m_c2660__bitfields_8h.html" target="_top" xlink:title=" ">
<polygon fill="white" stroke="#666666" points="1500.25,-74.5 1362,-74.5 1362,-55.25 1500.25,-55.25 1500.25,-74.5"/>
<text text-anchor="middle" x="1431.12" y="-61" font-family="Helvetica,sans-Serif" font-size="10.00">source/TMC2660_bitfields.h</text>
</a>
</g>
</g>
<!-- Node2&#45;&gt;Node13 -->
<g id="edge13_Node000002_Node000013" class="edge">
<title>Node2&#45;&gt;Node13</title>
<g id="a_edge13_Node000002_Node000013"><a xlink:title=" ">
<path fill="none" stroke="#63b8ff" d="M1431.12,-110.33C1431.12,-103.82 1431.12,-94.67 1431.12,-86.37"/>
<polygon fill="#63b8ff" stroke="#63b8ff" points="1434.63,-86.37 1431.13,-76.37 1427.63,-86.37 1434.63,-86.37"/>
</a>
</g>
</g>
<!-- Node14 -->
<g id="Node000014" class="node">
<title>Node14</title>
<g id="a_Node000014"><a xlink:href="_t_m_c_stepper_base_8h.html" target="_top" xlink:title=" ">
<polygon fill="white" stroke="#666666" points="1652.38,-74.5 1517.88,-74.5 1517.88,-55.25 1652.38,-55.25 1652.38,-74.5"/>
<text text-anchor="middle" x="1585.12" y="-61" font-family="Helvetica,sans-Serif" font-size="10.00">source/TMCStepperBase.h</text>
</a>
</g>
</g>
<!-- Node2&#45;&gt;Node14 -->
<g id="edge14_Node000002_Node000014" class="edge">
<title>Node2&#45;&gt;Node14</title>
<g id="a_edge14_Node000002_Node000014"><a xlink:title=" ">
<path fill="none" stroke="#63b8ff" d="M1457.25,-110.09C1482.25,-101.45 1520.2,-88.32 1548.27,-78.62"/>
<polygon fill="#63b8ff" stroke="#63b8ff" points="1549.14,-82.02 1557.44,-75.45 1546.85,-75.41 1549.14,-82.02"/>
</a>
</g>
</g>
<!-- Node15 -->
<g id="Node000015" class="node">
<title>Node15</title>
<g id="a_Node000015"><a xlink:href="_t_m_c2130_stepper_8h.html" target="_top" xlink:title=" ">
<polygon fill="white" stroke="#666666" points="1802.25,-74.5 1670,-74.5 1670,-55.25 1802.25,-55.25 1802.25,-74.5"/>
<text text-anchor="middle" x="1736.12" y="-61" font-family="Helvetica,sans-Serif" font-size="10.00">source/TMC2130Stepper.h</text>
</a>
</g>
</g>
<!-- Node2&#45;&gt;Node15 -->
<g id="edge15_Node000002_Node000015" class="edge">
<title>Node2&#45;&gt;Node15</title>
<g id="a_edge15_Node000002_Node000015"><a xlink:title=" ">
<path fill="none" stroke="#63b8ff" d="M1475.47,-111.38C1527.47,-102.3 1614.03,-87.19 1673.01,-76.89"/>
<polygon fill="#63b8ff" stroke="#63b8ff" points="1673.32,-80.39 1682.56,-75.23 1672.11,-73.5 1673.32,-80.39"/>
</a>
</g>
</g>
<!-- Node16 -->
<g id="Node000016" class="node">
<title>Node16</title>
<g id="a_Node000016"><a xlink:href="_t_m_c2160_stepper_8h.html" target="_top" xlink:title=" ">
<polygon fill="white" stroke="#666666" points="1952.25,-74.5 1820,-74.5 1820,-55.25 1952.25,-55.25 1952.25,-74.5"/>
<text text-anchor="middle" x="1886.12" y="-61" font-family="Helvetica,sans-Serif" font-size="10.00">source/TMC2160Stepper.h</text>
</a>
</g>
</g>
<!-- Node2&#45;&gt;Node16 -->
<g id="edge16_Node000002_Node000016" class="edge">
<title>Node2&#45;&gt;Node16</title>
<g id="a_edge16_Node000002_Node000016"><a xlink:title=" ">
<path fill="none" stroke="#63b8ff" d="M1475.35,-111.75C1478.31,-111.31 1481.26,-110.89 1484.12,-110.5 1625.46,-91.23 1663.97,-90.86 1808.8,-74.75"/>
<polygon fill="#63b8ff" stroke="#63b8ff" points="1808.82,-78.27 1818.37,-73.68 1808.04,-71.31 1808.82,-78.27"/>
</a>
</g>
</g>
<!-- Node17 -->
<g id="Node000017" class="node">
<title>Node17</title>
<g id="a_Node000017"><a xlink:href="_t_m_c5130_stepper_8h.html" target="_top" xlink:title=" ">
<polygon fill="white" stroke="#666666" points="2102.25,-74.5 1970,-74.5 1970,-55.25 2102.25,-55.25 2102.25,-74.5"/>
<text text-anchor="middle" x="2036.12" y="-61" font-family="Helvetica,sans-Serif" font-size="10.00">source/TMC5130Stepper.h</text>
</a>
</g>
</g>
<!-- Node2&#45;&gt;Node17 -->
<g id="edge17_Node000002_Node000017" class="edge">
<title>Node2&#45;&gt;Node17</title>
<g id="a_edge17_Node000002_Node000017"><a xlink:title=" ">
<path fill="none" stroke="#63b8ff" d="M1475.62,-111.6C1478.49,-111.2 1481.35,-110.83 1484.12,-110.5 1691.63,-85.83 1747.58,-94.34 1958.73,-74.69"/>
<polygon fill="#63b8ff" stroke="#63b8ff" points="1958.75,-78.2 1968.38,-73.78 1958.1,-71.23 1958.75,-78.2"/>
</a>
</g>
</g>
<!-- Node18 -->
<g id="Node000018" class="node">
<title>Node18</title>
<g id="a_Node000018"><a xlink:href="_t_m_c5160_stepper_8h.html" target="_top" xlink:title=" ">
<polygon fill="white" stroke="#666666" points="2252.25,-74.5 2120,-74.5 2120,-55.25 2252.25,-55.25 2252.25,-74.5"/>
<text text-anchor="middle" x="2186.12" y="-61" font-family="Helvetica,sans-Serif" font-size="10.00">source/TMC5160Stepper.h</text>
</a>
</g>
</g>
<!-- Node2&#45;&gt;Node18 -->
<g id="edge18_Node000002_Node000018" class="edge">
<title>Node2&#45;&gt;Node18</title>
<g id="a_edge18_Node000002_Node000018"><a xlink:title=" ">
<path fill="none" stroke="#63b8ff" d="M1475.61,-111.54C1478.49,-111.16 1481.34,-110.81 1484.12,-110.5 1757.93,-80.44 1831.11,-97.98 2108.66,-74.66"/>
<polygon fill="#63b8ff" stroke="#63b8ff" points="2108.72,-78.16 2118.38,-73.83 2108.12,-71.19 2108.72,-78.16"/>
</a>
</g>
</g>
<!-- Node19 -->
<g id="Node000019" class="node">
<title>Node19</title>
<g id="a_Node000019"><a xlink:href="_t_m_c2208_stepper_8h.html" target="_top" xlink:title=" ">
<polygon fill="white" stroke="#666666" points="2402.25,-74.5 2270,-74.5 2270,-55.25 2402.25,-55.25 2402.25,-74.5"/>
<text text-anchor="middle" x="2336.12" y="-61" font-family="Helvetica,sans-Serif" font-size="10.00">source/TMC2208Stepper.h</text>
</a>
</g>
</g>
<!-- Node2&#45;&gt;Node19 -->
<g id="edge19_Node000002_Node000019" class="edge">
<title>Node2&#45;&gt;Node19</title>
<g id="a_edge19_Node000002_Node000019"><a xlink:title=" ">
<path fill="none" stroke="#63b8ff" d="M1475.61,-111.51C1478.49,-111.13 1481.34,-110.79 1484.12,-110.5 1824.27,-75.06 1914.61,-101.68 2258.6,-74.64"/>
<polygon fill="#63b8ff" stroke="#63b8ff" points="2258.7,-78.14 2268.39,-73.86 2258.14,-71.16 2258.7,-78.14"/>
</a>
</g>
</g>
<!-- Node20 -->
<g id="Node000020" class="node">
<title>Node20</title>
<g id="a_Node000020"><a xlink:href="_t_m_c2209_stepper_8h.html" target="_top" xlink:title=" ">
<polygon fill="white" stroke="#666666" points="2552.25,-74.5 2420,-74.5 2420,-55.25 2552.25,-55.25 2552.25,-74.5"/>
<text text-anchor="middle" x="2486.12" y="-61" font-family="Helvetica,sans-Serif" font-size="10.00">source/TMC2209Stepper.h</text>
</a>
</g>
</g>
<!-- Node2&#45;&gt;Node20 -->
<g id="edge20_Node000002_Node000020" class="edge">
<title>Node2&#45;&gt;Node20</title>
<g id="a_edge20_Node000002_Node000020"><a xlink:title=" ">
<path fill="none" stroke="#63b8ff" d="M1475.61,-111.48C1478.48,-111.11 1481.34,-110.78 1484.12,-110.5 1890.67,-69.68 1998.09,-105.42 2408.6,-74.63"/>
<polygon fill="#63b8ff" stroke="#63b8ff" points="2408.68,-78.13 2418.39,-73.88 2408.15,-71.15 2408.68,-78.13"/>
</a>
</g>
</g>
<!-- Node21 -->
<g id="Node000021" class="node">
<title>Node21</title>
<g id="a_Node000021"><a xlink:href="_t_m_c2224_stepper_8h.html" target="_top" xlink:title=" ">
<polygon fill="white" stroke="#666666" points="2702.25,-74.5 2570,-74.5 2570,-55.25 2702.25,-55.25 2702.25,-74.5"/>
<text text-anchor="middle" x="2636.12" y="-61" font-family="Helvetica,sans-Serif" font-size="10.00">source/TMC2224Stepper.h</text>
</a>
</g>
</g>
<!-- Node2&#45;&gt;Node21 -->
<g id="edge21_Node000002_Node000021" class="edge">
<title>Node2&#45;&gt;Node21</title>
<g id="a_edge21_Node000002_Node000021"><a xlink:title=" ">
<path fill="none" stroke="#63b8ff" d="M1475.6,-111.46C1478.48,-111.1 1481.34,-110.77 1484.12,-110.5 1957.07,-64.3 2081.56,-109.18 2558.57,-74.62"/>
<polygon fill="#63b8ff" stroke="#63b8ff" points="2558.67,-78.12 2568.39,-73.9 2558.16,-71.14 2558.67,-78.12"/>
</a>
</g>
</g>
<!-- Node22 -->
<g id="Node000022" class="node">
<title>Node22</title>
<g id="a_Node000022"><a xlink:href="_t_m_c2240_stepper_8h.html" target="_top" xlink:title=" ">
<polygon fill="white" stroke="#666666" points="2852.25,-74.5 2720,-74.5 2720,-55.25 2852.25,-55.25 2852.25,-74.5"/>
<text text-anchor="middle" x="2786.12" y="-61" font-family="Helvetica,sans-Serif" font-size="10.00">source/TMC2240Stepper.h</text>
</a>
</g>
</g>
<!-- Node2&#45;&gt;Node22 -->
<g id="edge22_Node000002_Node000022" class="edge">
<title>Node2&#45;&gt;Node22</title>
<g id="a_edge22_Node000002_Node000022"><a xlink:title=" ">
<path fill="none" stroke="#63b8ff" d="M1475.6,-111.45C1478.48,-111.09 1481.34,-110.77 1484.12,-110.5 2023.5,-58.93 2165.04,-112.95 2708.62,-74.61"/>
<polygon fill="#63b8ff" stroke="#63b8ff" points="2708.67,-78.11 2718.39,-73.91 2708.17,-71.13 2708.67,-78.11"/>
</a>
</g>
</g>
<!-- Node23 -->
<g id="Node000023" class="node">
<title>Node23</title>
<g id="a_Node000023"><a xlink:href="_t_m_c2660_stepper_8h.html" target="_top" xlink:title=" ">
<polygon fill="white" stroke="#666666" points="3002.25,-74.5 2870,-74.5 2870,-55.25 3002.25,-55.25 3002.25,-74.5"/>
<text text-anchor="middle" x="2936.12" y="-61" font-family="Helvetica,sans-Serif" font-size="10.00">source/TMC2660Stepper.h</text>
</a>
</g>
</g>
<!-- Node2&#45;&gt;Node23 -->
<g id="edge23_Node000002_Node000023" class="edge">
<title>Node2&#45;&gt;Node23</title>
<g id="a_edge23_Node000002_Node000023"><a xlink:title=" ">
<path fill="none" stroke="#63b8ff" d="M1475.6,-111.44C1478.48,-111.08 1481.34,-110.76 1484.12,-110.5 2089.93,-53.55 2248.5,-116.73 2858.61,-74.6"/>
<polygon fill="#63b8ff" stroke="#63b8ff" points="2858.66,-78.11 2868.39,-73.92 2858.17,-71.12 2858.66,-78.11"/>
</a>
</g>
</g>
<!-- Node4 -->
<g id="Node000004" class="node">
<title>Node4</title>
<g id="a_Node000004"><a xlink:href="_t_m_c__platforms_8h.html" target="_top" xlink:title=" ">
<polygon fill="white" stroke="#666666" points="182,-19.25 90.25,-19.25 90.25,0 182,0 182,-19.25"/>
<text text-anchor="middle" x="136.12" y="-5.75" font-family="Helvetica,sans-Serif" font-size="10.00">TMC_platforms.h</text>
</a>
</g>
</g>
<!-- Node3&#45;&gt;Node4 -->
<g id="edge3_Node000003_Node000004" class="edge">
<title>Node3&#45;&gt;Node4</title>
<g id="a_edge3_Node000003_Node000004"><a xlink:title=" ">
<path fill="none" stroke="#63b8ff" d="M80.49,-54.84C90.17,-47.15 104.32,-35.9 115.93,-26.68"/>
<polygon fill="#63b8ff" stroke="#63b8ff" points="118.09,-29.43 123.74,-20.47 113.74,-23.95 118.09,-29.43"/>
</a>
</g>
</g>
<!-- Node5&#45;&gt;Node4 -->
<g id="edge5_Node000005_Node000004" class="edge">
<title>Node5&#45;&gt;Node4</title>
<g id="a_edge5_Node000005_Node000004"><a xlink:title=" ">
<path fill="none" stroke="#63b8ff" d="M192.59,-54.84C182.66,-47.07 168.11,-35.67 156.27,-26.4"/>
<polygon fill="#63b8ff" stroke="#63b8ff" points="158.71,-23.87 148.68,-20.46 154.4,-29.38 158.71,-23.87"/>
</a>
</g>
</g>
</g>
</svg>
