<?xml version="1.0" encoding="UTF-8" standalone="no"?>
<!DOCTYPE svg PUBLIC "-//W3C//DTD SVG 1.1//EN"
 "http://www.w3.org/Graphics/SVG/1.1/DTD/svg11.dtd">
<!-- Generated by graphviz version 12.2.1 (20241206.2353)
 -->
<!-- Title: src/source/TMC_MACROS.h Pages: 1 -->
<!--zoomable 83 -->

<svg id="main" version="1.1" xmlns="http://www.w3.org/2000/svg" xmlns:xlink="http://www.w3.org/1999/xlink" xml:space="preserve" onload="init(evt)">

<style type="text/css"><![CDATA[
.node, .edge {opacity: 0.7;}
.node.selected, .edge.selected {opacity: 1;}
.edge:hover path { stroke: red; }
.edge:hover polygon { stroke: red; fill: red; }
]]></style>

<defs>
  <circle id="rim" cx="0" cy="0" r="7"/>
  <circle id="rim2" cx="0" cy="0" r="3.5"/>
  <g id="zoomPlus">
    <use xlink:href="#rim" fill="#404040"><set attributeName="fill" to="#808080" begin="zoomplus.mouseover" end="zoomplus.mouseout"/></use>
    <path d="M-4,0h8M0,-4v8" fill="none" stroke="white" stroke-width="1.5" pointer-events="none"/>
  </g>
  <g id="zoomMin">
    <use xlink:href="#rim" fill="#404040"><set attributeName="fill" to="#808080" begin="zoomminus.mouseover" end="zoomminus.mouseout"/></use>
    <path d="M-4,0h8" fill="none" stroke="white" stroke-width="1.5" pointer-events="none"/>
  </g>
  <g id="arrowUp" transform="translate(30 24)">
    <use xlink:href="#rim"/>
    <path pointer-events="none" fill="none" stroke="white" stroke-width="1.5" d="M0,-3.0v7 M-2.5,-0.5L0,-3.0L2.5,-0.5"/>
  </g>
  <g id="arrowRight" transform="rotate(90) translate(36 -43)">
    <use xlink:href="#rim"/>
    <path pointer-events="none" fill="none" stroke="white" stroke-width="1.5" d="M0,-3.0v7 M-2.5,-0.5L0,-3.0L2.5,-0.5"/>
  </g>
  <g id="arrowDown" transform="rotate(180) translate(-30 -48)">
    <use xlink:href="#rim"/>
    <path pointer-events="none" fill="none" stroke="white" stroke-width="1.5" d="M0,-3.0v7 M-2.5,-0.5L0,-3.0L2.5,-0.5"/>
  </g>
  <g id="arrowLeft" transform="rotate(270) translate(-36 17)">
    <use xlink:href="#rim"/>
    <path pointer-events="none" fill="none" stroke="white" stroke-width="1.5" d="M0,-3.0v7 M-2.5,-0.5L0,-3.0L2.5,-0.5"/>
  </g>
  <g id="resetDef">
    <use xlink:href="#rim2" fill="#404040"><set attributeName="fill" to="#808080" begin="reset.mouseover" end="reset.mouseout"/></use>
  </g>
</defs>
<script type="application/ecmascript">
var viewWidth = 4171;
var viewHeight = 83;
var sectionId = 'dynsection-0';
</script>
<script type="application/ecmascript" xlink:href="svg.min.js"/>
<svg id="graph" class="graph">
<g id="viewport">
<title>src/source/TMC_MACROS.h</title>
<!-- Node1 -->
<g id="Node000001" class="node">
<title>Node1</title>
<g id="a_Node000001"><a xlink:title=" ">
<polygon fill="#999999" stroke="#666666" points="2079,-74.5 1934.75,-74.5 1934.75,-55.25 2079,-55.25 2079,-74.5"/>
<text text-anchor="middle" x="2006.88" y="-61" font-family="Helvetica,sans-Serif" font-size="10.00">src/source/TMC_MACROS.h</text>
</a>
</g>
</g>
<!-- Node2 -->
<g id="Node000002" class="node">
<title>Node2</title>
<g id="a_Node000002"><a xlink:href="_c_h_o_p_c_o_n_f_8cpp.html" target="_top" xlink:title=" ">
<polygon fill="white" stroke="#666666" points="139.75,-19.25 0,-19.25 0,0 139.75,0 139.75,-19.25"/>
<text text-anchor="middle" x="69.88" y="-5.75" font-family="Helvetica,sans-Serif" font-size="10.00">src/source/CHOPCONF.cpp</text>
</a>
</g>
</g>
<!-- Node1&#45;&gt;Node2 -->
<g id="edge1_Node000001_Node000002" class="edge">
<title>Node1&#45;&gt;Node2</title>
<g id="a_edge1_Node000001_Node000002"><a xlink:title=" ">
<path fill="none" stroke="#63b8ff" d="M1923.3,-64.39C1661.33,-65.45 832.91,-64.72 148.88,-19.25 145.98,-19.06 143.04,-18.84 140.06,-18.6"/>
<polygon fill="#63b8ff" stroke="#63b8ff" points="1923.11,-67.89 1933.09,-64.35 1923.08,-60.89 1923.11,-67.89"/>
</a>
</g>
</g>
<!-- Node3 -->
<g id="Node000003" class="node">
<title>Node3</title>
<g id="a_Node000003"><a xlink:href="_c_o_o_l_c_o_n_f_8cpp.html" target="_top" xlink:title=" ">
<polygon fill="white" stroke="#666666" points="296,-19.25 157.75,-19.25 157.75,0 296,0 296,-19.25"/>
<text text-anchor="middle" x="226.88" y="-5.75" font-family="Helvetica,sans-Serif" font-size="10.00">src/source/COOLCONF.cpp</text>
</a>
</g>
</g>
<!-- Node1&#45;&gt;Node3 -->
<g id="edge2_Node000001_Node000003" class="edge">
<title>Node1&#45;&gt;Node3</title>
<g id="a_edge2_Node000001_Node000003"><a xlink:title=" ">
<path fill="none" stroke="#63b8ff" d="M1923.2,-64.16C1675.65,-64.49 925.38,-61.62 304.88,-19.25 302.02,-19.06 299.11,-18.83 296.17,-18.59"/>
<polygon fill="#63b8ff" stroke="#63b8ff" points="1923.1,-67.66 1933.1,-64.15 1923.09,-60.66 1923.1,-67.66"/>
</a>
</g>
</g>
<!-- Node4 -->
<g id="Node000004" class="node">
<title>Node4</title>
<g id="a_Node000004"><a xlink:href="_d_r_v_c_o_n_f_8cpp.html" target="_top" xlink:title=" ">
<polygon fill="white" stroke="#666666" points="446,-19.25 313.75,-19.25 313.75,0 446,0 446,-19.25"/>
<text text-anchor="middle" x="379.88" y="-5.75" font-family="Helvetica,sans-Serif" font-size="10.00">src/source/DRVCONF.cpp</text>
</a>
</g>
</g>
<!-- Node1&#45;&gt;Node4 -->
<g id="edge3_Node000001_Node000004" class="edge">
<title>Node1&#45;&gt;Node4</title>
<g id="a_edge3_Node000001_Node000004"><a xlink:title=" ">
<path fill="none" stroke="#63b8ff" d="M1923.01,-63.99C1689.88,-63.76 1014.41,-59.39 454.88,-19.25 452,-19.04 449.06,-18.81 446.1,-18.55"/>
<polygon fill="#63b8ff" stroke="#63b8ff" points="1922.92,-67.49 1932.92,-64 1922.92,-60.49 1922.92,-67.49"/>
</a>
</g>
</g>
<!-- Node5 -->
<g id="Node000005" class="node">
<title>Node5</title>
<g id="a_Node000005"><a xlink:href="_d_r_v_c_t_r_l_8cpp.html" target="_top" xlink:title=" ">
<polygon fill="white" stroke="#666666" points="595.62,-19.25 464.12,-19.25 464.12,0 595.62,0 595.62,-19.25"/>
<text text-anchor="middle" x="529.88" y="-5.75" font-family="Helvetica,sans-Serif" font-size="10.00">src/source/DRVCTRL.cpp</text>
</a>
</g>
</g>
<!-- Node1&#45;&gt;Node5 -->
<g id="edge4_Node000001_Node000005" class="edge">
<title>Node1&#45;&gt;Node5</title>
<g id="a_edge4_Node000001_Node000005"><a xlink:title=" ">
<path fill="none" stroke="#63b8ff" d="M1923.22,-63.62C1705.63,-62.44 1104.16,-55.84 604.88,-19.25 602,-19.04 599.06,-18.8 596.1,-18.54"/>
<polygon fill="#63b8ff" stroke="#63b8ff" points="1923,-67.12 1933.02,-63.67 1923.04,-60.12 1923,-67.12"/>
</a>
</g>
</g>
<!-- Node6 -->
<g id="Node000006" class="node">
<title>Node6</title>
<g id="a_Node000006"><a xlink:href="_d_r_v_s_t_a_t_u_s_8cpp.html" target="_top" xlink:title=" ">
<polygon fill="white" stroke="#666666" points="758,-19.25 613.75,-19.25 613.75,0 758,0 758,-19.25"/>
<text text-anchor="middle" x="685.88" y="-5.75" font-family="Helvetica,sans-Serif" font-size="10.00">src/source/DRVSTATUS.cpp</text>
</a>
</g>
</g>
<!-- Node1&#45;&gt;Node6 -->
<g id="edge5_Node000001_Node000006" class="edge">
<title>Node1&#45;&gt;Node6</title>
<g id="a_edge5_Node000001_Node000006"><a xlink:title=" ">
<path fill="none" stroke="#63b8ff" d="M1923.16,-62.89C1723.07,-60.08 1201.35,-50.16 766.88,-19.25 764.05,-19.05 761.18,-18.83 758.28,-18.59"/>
<polygon fill="#63b8ff" stroke="#63b8ff" points="1922.89,-66.38 1932.94,-63.02 1922.99,-59.38 1922.89,-66.38"/>
</a>
</g>
</g>
<!-- Node7 -->
<g id="Node000007" class="node">
<title>Node7</title>
<g id="a_Node000007"><a xlink:href="_d_r_v___c_o_n_f_8cpp.html" target="_top" xlink:title=" ">
<polygon fill="white" stroke="#666666" points="913.62,-19.25 776.12,-19.25 776.12,0 913.62,0 913.62,-19.25"/>
<text text-anchor="middle" x="844.88" y="-5.75" font-family="Helvetica,sans-Serif" font-size="10.00">src/source/DRV_CONF.cpp</text>
</a>
</g>
</g>
<!-- Node1&#45;&gt;Node7 -->
<g id="edge6_Node000001_Node000007" class="edge">
<title>Node1&#45;&gt;Node7</title>
<g id="a_edge6_Node000001_Node000007"><a xlink:title=" ">
<path fill="none" stroke="#63b8ff" d="M1923.11,-62.39C1740.95,-58.74 1295.22,-47.47 922.88,-19.25 919.89,-19.02 916.84,-18.77 913.75,-18.5"/>
<polygon fill="#63b8ff" stroke="#63b8ff" points="1922.88,-65.89 1932.95,-62.59 1923.02,-58.89 1922.88,-65.89"/>
</a>
</g>
</g>
<!-- Node8 -->
<g id="Node000008" class="node">
<title>Node8</title>
<g id="a_Node000008"><a xlink:href="_d_r_v___s_t_a_t_u_s_8cpp.html" target="_top" xlink:title=" ">
<polygon fill="white" stroke="#666666" points="1081.62,-19.25 932.12,-19.25 932.12,0 1081.62,0 1081.62,-19.25"/>
<text text-anchor="middle" x="1006.88" y="-5.75" font-family="Helvetica,sans-Serif" font-size="10.00">src/source/DRV_STATUS.cpp</text>
</a>
</g>
</g>
<!-- Node1&#45;&gt;Node8 -->
<g id="edge7_Node000001_Node000008" class="edge">
<title>Node1&#45;&gt;Node8</title>
<g id="a_edge7_Node000001_Node000008"><a xlink:title=" ">
<path fill="none" stroke="#63b8ff" d="M1923.01,-61.34C1761.56,-56.1 1396.4,-42.62 1089.88,-19.25 1087.27,-19.05 1084.63,-18.84 1081.96,-18.61"/>
<polygon fill="#63b8ff" stroke="#63b8ff" points="1922.66,-64.83 1932.76,-61.65 1922.88,-57.83 1922.66,-64.83"/>
</a>
</g>
</g>
<!-- Node9 -->
<g id="Node000009" class="node">
<title>Node9</title>
<g id="a_Node000009"><a xlink:href="_e_n_c_m_o_d_e_8cpp.html" target="_top" xlink:title=" ">
<polygon fill="white" stroke="#666666" points="1234.5,-19.25 1099.25,-19.25 1099.25,0 1234.5,0 1234.5,-19.25"/>
<text text-anchor="middle" x="1166.88" y="-5.75" font-family="Helvetica,sans-Serif" font-size="10.00">src/source/ENCMODE.cpp</text>
</a>
</g>
</g>
<!-- Node1&#45;&gt;Node9 -->
<g id="edge8_Node000001_Node000009" class="edge">
<title>Node1&#45;&gt;Node9</title>
<g id="a_edge8_Node000001_Node000009"><a xlink:title=" ">
<path fill="none" stroke="#63b8ff" d="M1922.96,-60.43C1782.35,-54.32 1490.3,-40.24 1243.88,-19.25 1240.93,-19 1237.92,-18.73 1234.88,-18.44"/>
<polygon fill="#63b8ff" stroke="#63b8ff" points="1922.8,-63.92 1932.95,-60.86 1923.11,-56.93 1922.8,-63.92"/>
</a>
</g>
</g>
<!-- Node10 -->
<g id="Node000010" class="node">
<title>Node10</title>
<g id="a_Node000010"><a xlink:href="_g_c_o_n_f_8cpp.html" target="_top" xlink:title=" ">
<polygon fill="white" stroke="#666666" points="1370.88,-19.25 1252.88,-19.25 1252.88,0 1370.88,0 1370.88,-19.25"/>
<text text-anchor="middle" x="1311.88" y="-5.75" font-family="Helvetica,sans-Serif" font-size="10.00">src/source/GCONF.cpp</text>
</a>
</g>
</g>
<!-- Node1&#45;&gt;Node10 -->
<g id="edge9_Node000001_Node000010" class="edge">
<title>Node1&#45;&gt;Node10</title>
<g id="a_edge9_Node000001_Node000010"><a xlink:title=" ">
<path fill="none" stroke="#63b8ff" d="M1923.05,-59.38C1802.68,-52.59 1573.98,-38.45 1379.88,-19.25 1377.03,-18.97 1374.13,-18.66 1371.19,-18.34"/>
<polygon fill="#63b8ff" stroke="#63b8ff" points="1922.66,-62.87 1932.84,-59.93 1923.06,-55.88 1922.66,-62.87"/>
</a>
</g>
</g>
<!-- Node11 -->
<g id="Node000011" class="node">
<title>Node11</title>
<g id="a_Node000011"><a xlink:href="_g_l_o_b_a_l___s_c_a_l_e_r_8cpp.html" target="_top" xlink:title=" ">
<polygon fill="white" stroke="#666666" points="1557,-19.25 1388.75,-19.25 1388.75,0 1557,0 1557,-19.25"/>
<text text-anchor="middle" x="1472.88" y="-5.75" font-family="Helvetica,sans-Serif" font-size="10.00">src/source/GLOBAL_SCALER.cpp</text>
</a>
</g>
</g>
<!-- Node1&#45;&gt;Node11 -->
<g id="edge10_Node000001_Node000011" class="edge">
<title>Node1&#45;&gt;Node11</title>
<g id="a_edge10_Node000001_Node000011"><a xlink:title=" ">
<path fill="none" stroke="#63b8ff" d="M1923.06,-55.52C1823.18,-45.56 1657.26,-29.01 1557.17,-19.03"/>
<polygon fill="#63b8ff" stroke="#63b8ff" points="1922.5,-58.98 1932.8,-56.49 1923.19,-52.01 1922.5,-58.98"/>
</a>
</g>
</g>
<!-- Node12 -->
<g id="Node000012" class="node">
<title>Node12</title>
<g id="a_Node000012"><a xlink:href="_i_h_o_l_d___i_r_u_n_8cpp.html" target="_top" xlink:title=" ">
<polygon fill="white" stroke="#666666" points="1720.38,-19.25 1575.38,-19.25 1575.38,0 1720.38,0 1720.38,-19.25"/>
<text text-anchor="middle" x="1647.88" y="-5.75" font-family="Helvetica,sans-Serif" font-size="10.00">src/source/IHOLD_IRUN.cpp</text>
</a>
</g>
</g>
<!-- Node1&#45;&gt;Node12 -->
<g id="edge11_Node000001_Node000012" class="edge">
<title>Node1&#45;&gt;Node12</title>
<g id="a_edge11_Node000001_Node000012"><a xlink:title=" ">
<path fill="none" stroke="#63b8ff" d="M1934.41,-53.13C1868.28,-43.32 1771.62,-28.98 1709.23,-19.73"/>
<polygon fill="#63b8ff" stroke="#63b8ff" points="1933.67,-56.55 1944.07,-54.56 1934.69,-49.63 1933.67,-56.55"/>
</a>
</g>
</g>
<!-- Node13 -->
<g id="Node000013" class="node">
<title>Node13</title>
<g id="a_Node000013"><a xlink:href="_i_o_i_n_8cpp.html" target="_top" xlink:title=" ">
<polygon fill="white" stroke="#666666" points="1843.12,-19.25 1738.62,-19.25 1738.62,0 1843.12,0 1843.12,-19.25"/>
<text text-anchor="middle" x="1790.88" y="-5.75" font-family="Helvetica,sans-Serif" font-size="10.00">src/source/IOIN.cpp</text>
</a>
</g>
</g>
<!-- Node1&#45;&gt;Node13 -->
<g id="edge12_Node000001_Node000013" class="edge">
<title>Node1&#45;&gt;Node13</title>
<g id="a_edge12_Node000001_Node000013"><a xlink:title=" ">
<path fill="none" stroke="#63b8ff" d="M1959.25,-52.13C1919.61,-42.36 1863.99,-28.65 1827.7,-19.7"/>
<polygon fill="#63b8ff" stroke="#63b8ff" points="1958.22,-55.48 1968.76,-54.48 1959.89,-48.69 1958.22,-55.48"/>
</a>
</g>
</g>
<!-- Node14 -->
<g id="Node000014" class="node">
<title>Node14</title>
<g id="a_Node000014"><a xlink:href="_p_w_m_c_o_n_f_8cpp.html" target="_top" xlink:title=" ">
<polygon fill="white" stroke="#666666" points="1996.5,-19.25 1861.25,-19.25 1861.25,0 1996.5,0 1996.5,-19.25"/>
<text text-anchor="middle" x="1928.88" y="-5.75" font-family="Helvetica,sans-Serif" font-size="10.00">src/source/PWMCONF.cpp</text>
</a>
</g>
</g>
<!-- Node1&#45;&gt;Node14 -->
<g id="edge13_Node000001_Node000014" class="edge">
<title>Node1&#45;&gt;Node14</title>
<g id="a_edge13_Node000001_Node000014"><a xlink:title=" ">
<path fill="none" stroke="#63b8ff" d="M1984.4,-48.53C1970.73,-39.2 1953.73,-27.6 1942.17,-19.7"/>
<polygon fill="#63b8ff" stroke="#63b8ff" points="1982.16,-51.24 1992.39,-53.99 1986.11,-45.46 1982.16,-51.24"/>
</a>
</g>
</g>
<!-- Node15 -->
<g id="Node000015" class="node">
<title>Node15</title>
<g id="a_Node000015"><a xlink:href="_r_a_m_p___s_t_a_t_8cpp.html" target="_top" xlink:title=" ">
<polygon fill="white" stroke="#666666" points="2155.5,-19.25 2014.25,-19.25 2014.25,0 2155.5,0 2155.5,-19.25"/>
<text text-anchor="middle" x="2084.88" y="-5.75" font-family="Helvetica,sans-Serif" font-size="10.00">src/source/RAMP_STAT.cpp</text>
</a>
</g>
</g>
<!-- Node1&#45;&gt;Node15 -->
<g id="edge14_Node000001_Node000015" class="edge">
<title>Node1&#45;&gt;Node15</title>
<g id="a_edge14_Node000001_Node000015"><a xlink:title=" ">
<path fill="none" stroke="#63b8ff" d="M2029.35,-48.53C2043.02,-39.2 2060.02,-27.6 2071.58,-19.7"/>
<polygon fill="#63b8ff" stroke="#63b8ff" points="2027.64,-45.46 2021.36,-53.99 2031.59,-51.24 2027.64,-45.46"/>
</a>
</g>
</g>
<!-- Node16 -->
<g id="Node000016" class="node">
<title>Node16</title>
<g id="a_Node000016"><a xlink:href="_s_g_c_s_c_o_n_f_8cpp.html" target="_top" xlink:title=" ">
<polygon fill="white" stroke="#666666" points="2312.38,-19.25 2173.38,-19.25 2173.38,0 2312.38,0 2312.38,-19.25"/>
<text text-anchor="middle" x="2242.88" y="-5.75" font-family="Helvetica,sans-Serif" font-size="10.00">src/source/SGCSCONF.cpp</text>
</a>
</g>
</g>
<!-- Node1&#45;&gt;Node16 -->
<g id="edge15_Node000001_Node000016" class="edge">
<title>Node1&#45;&gt;Node16</title>
<g id="a_edge15_Node000001_Node000016"><a xlink:title=" ">
<path fill="none" stroke="#63b8ff" d="M2058.35,-52.26C2101.73,-42.47 2162.92,-28.67 2202.74,-19.68"/>
<polygon fill="#63b8ff" stroke="#63b8ff" points="2057.64,-48.83 2048.65,-54.45 2059.18,-55.66 2057.64,-48.83"/>
</a>
</g>
</g>
<!-- Node17 -->
<g id="Node000017" class="node">
<title>Node17</title>
<g id="a_Node000017"><a xlink:href="_s_h_o_r_t___c_o_n_f_8cpp.html" target="_top" xlink:title=" ">
<polygon fill="white" stroke="#666666" points="2481.38,-19.25 2330.38,-19.25 2330.38,0 2481.38,0 2481.38,-19.25"/>
<text text-anchor="middle" x="2405.88" y="-5.75" font-family="Helvetica,sans-Serif" font-size="10.00">src/source/SHORT_CONF.cpp</text>
</a>
</g>
</g>
<!-- Node1&#45;&gt;Node17 -->
<g id="edge16_Node000001_Node000017" class="edge">
<title>Node1&#45;&gt;Node17</title>
<g id="a_edge16_Node000001_Node000017"><a xlink:title=" ">
<path fill="none" stroke="#63b8ff" d="M2086.05,-53.31C2159.58,-43.5 2267.91,-29.04 2337.69,-19.73"/>
<polygon fill="#63b8ff" stroke="#63b8ff" points="2085.96,-49.79 2076.51,-54.58 2086.89,-56.73 2085.96,-49.79"/>
</a>
</g>
</g>
<!-- Node18 -->
<g id="Node000018" class="node">
<title>Node18</title>
<g id="a_Node000018"><a xlink:href="_s_l_a_v_e_c_o_n_f_8cpp.html" target="_top" xlink:title=" ">
<polygon fill="white" stroke="#666666" points="2640.5,-19.25 2499.25,-19.25 2499.25,0 2640.5,0 2640.5,-19.25"/>
<text text-anchor="middle" x="2569.88" y="-5.75" font-family="Helvetica,sans-Serif" font-size="10.00">src/source/SLAVECONF.cpp</text>
</a>
</g>
</g>
<!-- Node1&#45;&gt;Node18 -->
<g id="edge17_Node000001_Node000018" class="edge">
<title>Node1&#45;&gt;Node18</title>
<g id="a_edge17_Node000001_Node000018"><a xlink:title=" ">
<path fill="none" stroke="#63b8ff" d="M2090.92,-56.56C2187.49,-48.05 2350.69,-33.36 2490.88,-19.25 2493.48,-18.99 2496.14,-18.72 2498.82,-18.44"/>
<polygon fill="#63b8ff" stroke="#63b8ff" points="2090.64,-53.07 2080.99,-57.43 2091.26,-60.04 2090.64,-53.07"/>
</a>
</g>
</g>
<!-- Node19 -->
<g id="Node000019" class="node">
<title>Node19</title>
<g id="a_Node000019"><a xlink:href="_s_m_a_r_t_e_n_8cpp.html" target="_top" xlink:title=" ">
<polygon fill="white" stroke="#666666" points="2791.38,-19.25 2658.38,-19.25 2658.38,0 2791.38,0 2791.38,-19.25"/>
<text text-anchor="middle" x="2724.88" y="-5.75" font-family="Helvetica,sans-Serif" font-size="10.00">src/source/SMARTEN.cpp</text>
</a>
</g>
</g>
<!-- Node1&#45;&gt;Node19 -->
<g id="edge18_Node000001_Node000019" class="edge">
<title>Node1&#45;&gt;Node19</title>
<g id="a_edge18_Node000001_Node000019"><a xlink:title=" ">
<path fill="none" stroke="#63b8ff" d="M2090.44,-59.28C2213.2,-52.27 2449.43,-37.72 2649.88,-19.25 2652.62,-19 2655.41,-18.73 2658.23,-18.45"/>
<polygon fill="#63b8ff" stroke="#63b8ff" points="2090.58,-55.77 2080.79,-59.83 2090.98,-62.76 2090.58,-55.77"/>
</a>
</g>
</g>
<!-- Node20 -->
<g id="Node000020" class="node">
<title>Node20</title>
<g id="a_Node000020"><a xlink:href="_s_w___m_o_d_e_8cpp.html" target="_top" xlink:title=" ">
<polygon fill="white" stroke="#666666" points="2944.5,-19.25 2809.25,-19.25 2809.25,0 2944.5,0 2944.5,-19.25"/>
<text text-anchor="middle" x="2876.88" y="-5.75" font-family="Helvetica,sans-Serif" font-size="10.00">src/source/SW_MODE.cpp</text>
</a>
</g>
</g>
<!-- Node1&#45;&gt;Node20 -->
<g id="edge19_Node000001_Node000020" class="edge">
<title>Node1&#45;&gt;Node20</title>
<g id="a_edge19_Node000001_Node000020"><a xlink:title=" ">
<path fill="none" stroke="#63b8ff" d="M2090.92,-60.72C2235.95,-54.93 2542.53,-41.15 2800.88,-19.25 2803.52,-19.03 2806.22,-18.78 2808.94,-18.53"/>
<polygon fill="#63b8ff" stroke="#63b8ff" points="2090.86,-57.22 2081.01,-61.12 2091.14,-64.22 2090.86,-57.22"/>
</a>
</g>
</g>
<!-- Node21 -->
<g id="Node000021" class="node">
<title>Node21</title>
<g id="a_Node000021"><a xlink:href="_t_m_c2130_stepper_8cpp.html" target="_top" xlink:title=" ">
<polygon fill="white" stroke="#666666" points="3121.5,-19.25 2962.25,-19.25 2962.25,0 3121.5,0 3121.5,-19.25"/>
<text text-anchor="middle" x="3041.88" y="-5.75" font-family="Helvetica,sans-Serif" font-size="10.00">src/source/TMC2130Stepper.cpp</text>
</a>
</g>
</g>
<!-- Node1&#45;&gt;Node21 -->
<g id="edge20_Node000001_Node000021" class="edge">
<title>Node1&#45;&gt;Node21</title>
<g id="a_edge20_Node000001_Node000021"><a xlink:title=" ">
<path fill="none" stroke="#63b8ff" d="M2090.46,-61.36C2255.61,-56.07 2635.33,-42.35 2953.88,-19.25 2956.48,-19.06 2959.12,-18.86 2961.79,-18.65"/>
<polygon fill="#63b8ff" stroke="#63b8ff" points="2090.82,-57.84 2080.93,-61.66 2091.04,-64.84 2090.82,-57.84"/>
</a>
</g>
</g>
<!-- Node22 -->
<g id="Node000022" class="node">
<title>Node22</title>
<g id="a_Node000022"><a xlink:href="_t_m_c2160_stepper_8cpp.html" target="_top" xlink:title=" ">
<polygon fill="white" stroke="#666666" points="3298.5,-19.25 3139.25,-19.25 3139.25,0 3298.5,0 3298.5,-19.25"/>
<text text-anchor="middle" x="3218.88" y="-5.75" font-family="Helvetica,sans-Serif" font-size="10.00">src/source/TMC2160Stepper.cpp</text>
</a>
</g>
</g>
<!-- Node1&#45;&gt;Node22 -->
<g id="edge21_Node000001_Node000022" class="edge">
<title>Node1&#45;&gt;Node22</title>
<g id="a_edge21_Node000001_Node000022"><a xlink:title=" ">
<path fill="none" stroke="#63b8ff" d="M2090.65,-62.21C2277.5,-58.13 2742.52,-45.97 3130.88,-19.25 3133.48,-19.07 3136.12,-18.88 3138.8,-18.67"/>
<polygon fill="#63b8ff" stroke="#63b8ff" points="2090.71,-58.71 2080.79,-62.42 2090.86,-65.71 2090.71,-58.71"/>
</a>
</g>
</g>
<!-- Node23 -->
<g id="Node000023" class="node">
<title>Node23</title>
<g id="a_Node000023"><a xlink:href="_t_m_c2208_stepper_8cpp.html" target="_top" xlink:title=" ">
<polygon fill="white" stroke="#666666" points="3475.5,-19.25 3316.25,-19.25 3316.25,0 3475.5,0 3475.5,-19.25"/>
<text text-anchor="middle" x="3395.88" y="-5.75" font-family="Helvetica,sans-Serif" font-size="10.00">src/source/TMC2208Stepper.cpp</text>
</a>
</g>
</g>
<!-- Node1&#45;&gt;Node23 -->
<g id="edge22_Node000001_Node000023" class="edge">
<title>Node1&#45;&gt;Node23</title>
<g id="a_edge22_Node000001_Node000023"><a xlink:title=" ">
<path fill="none" stroke="#63b8ff" d="M2090.6,-62.84C2297.4,-59.89 2848.9,-49.58 3307.88,-19.25 3310.48,-19.08 3313.13,-18.89 3315.8,-18.69"/>
<polygon fill="#63b8ff" stroke="#63b8ff" points="2090.7,-59.34 2080.75,-62.98 2090.8,-66.34 2090.7,-59.34"/>
</a>
</g>
</g>
<!-- Node24 -->
<g id="Node000024" class="node">
<title>Node24</title>
<g id="a_Node000024"><a xlink:href="_t_m_c2240_stepper_8cpp.html" target="_top" xlink:title=" ">
<polygon fill="white" stroke="#666666" points="3652.5,-19.25 3493.25,-19.25 3493.25,0 3652.5,0 3652.5,-19.25"/>
<text text-anchor="middle" x="3572.88" y="-5.75" font-family="Helvetica,sans-Serif" font-size="10.00">src/source/TMC2240Stepper.cpp</text>
</a>
</g>
</g>
<!-- Node1&#45;&gt;Node24 -->
<g id="edge23_Node000001_Node000024" class="edge">
<title>Node1&#45;&gt;Node24</title>
<g id="a_edge23_Node000001_Node000024"><a xlink:title=" ">
<path fill="none" stroke="#63b8ff" d="M2090.62,-63.33C2316.11,-61.42 2954.81,-53.19 3484.88,-19.25 3487.48,-19.08 3490.13,-18.9 3492.8,-18.7"/>
<polygon fill="#63b8ff" stroke="#63b8ff" points="2090.72,-59.82 2080.75,-63.41 2090.78,-66.82 2090.72,-59.82"/>
</a>
</g>
</g>
<!-- Node25 -->
<g id="Node000025" class="node">
<title>Node25</title>
<g id="a_Node000025"><a xlink:href="_t_m_c5130_stepper_8cpp.html" target="_top" xlink:title=" ">
<polygon fill="white" stroke="#666666" points="3829.5,-19.25 3670.25,-19.25 3670.25,0 3829.5,0 3829.5,-19.25"/>
<text text-anchor="middle" x="3749.88" y="-5.75" font-family="Helvetica,sans-Serif" font-size="10.00">src/source/TMC5130Stepper.cpp</text>
</a>
</g>
</g>
<!-- Node1&#45;&gt;Node25 -->
<g id="edge24_Node000001_Node000025" class="edge">
<title>Node1&#45;&gt;Node25</title>
<g id="a_edge24_Node000001_Node000025"><a xlink:title=" ">
<path fill="none" stroke="#63b8ff" d="M2090.34,-63.71C2333.13,-62.78 3060.03,-56.81 3661.88,-19.25 3664.48,-19.09 3667.13,-18.91 3669.8,-18.72"/>
<polygon fill="#63b8ff" stroke="#63b8ff" points="2090.64,-60.21 2080.66,-63.74 2090.67,-67.21 2090.64,-60.21"/>
</a>
</g>
</g>
<!-- Node26 -->
<g id="Node000026" class="node">
<title>Node26</title>
<g id="a_Node000026"><a xlink:href="_t_m_c5160_stepper_8cpp.html" target="_top" xlink:title=" ">
<polygon fill="white" stroke="#666666" points="4006.5,-19.25 3847.25,-19.25 3847.25,0 4006.5,0 4006.5,-19.25"/>
<text text-anchor="middle" x="3926.88" y="-5.75" font-family="Helvetica,sans-Serif" font-size="10.00">src/source/TMC5160Stepper.cpp</text>
</a>
</g>
</g>
<!-- Node1&#45;&gt;Node26 -->
<g id="edge25_Node000001_Node000026" class="edge">
<title>Node1&#45;&gt;Node26</title>
<g id="a_edge25_Node000001_Node000026"><a xlink:title=" ">
<path fill="none" stroke="#63b8ff" d="M2090.61,-64.02C2350.34,-64 3165.34,-60.4 3838.88,-19.25 3841.48,-19.09 3844.13,-18.91 3846.8,-18.72"/>
<polygon fill="#63b8ff" stroke="#63b8ff" points="2090.91,-60.52 2080.91,-64.02 2090.91,-67.52 2090.91,-60.52"/>
</a>
</g>
</g>
<!-- Node27 -->
<g id="Node000027" class="node">
<title>Node27</title>
<g id="a_Node000027"><a xlink:href="_t_m_c_stepper_8cpp.html" target="_top" xlink:title=" ">
<polygon fill="white" stroke="#666666" points="4163,-19.25 4024.75,-19.25 4024.75,0 4163,0 4163,-19.25"/>
<text text-anchor="middle" x="4093.88" y="-5.75" font-family="Helvetica,sans-Serif" font-size="10.00">src/source/TMCStepper.cpp</text>
</a>
</g>
</g>
<!-- Node1&#45;&gt;Node27 -->
<g id="edge26_Node000001_Node000027" class="edge">
<title>Node1&#45;&gt;Node27</title>
<g id="a_edge26_Node000001_Node000027"><a xlink:title=" ">
<path fill="none" stroke="#63b8ff" d="M2090.7,-63C2420.91,-59.39 3632.39,-44.66 4015.88,-19.25 4018.73,-19.06 4021.64,-18.84 4024.58,-18.61"/>
<polygon fill="#63b8ff" stroke="#63b8ff" points="2090.81,-59.5 2080.85,-63.1 2090.88,-66.5 2090.81,-59.5"/>
</a>
</g>
</g>
</g>
</svg>

<g id="navigator" transform="translate(0 0)" fill="#404254">
  <rect fill="#f2f5e9" fill-opacity="0.5" stroke="#606060" stroke-width=".5" x="0" y="0" width="60" height="60"/>
  <use id="zoomplus" xlink:href="#zoomPlus" x="17" y="9" onmousedown="handleZoom(evt,'in')"/>
  <use id="zoomminus" xlink:href="#zoomMin" x="42" y="9" onmousedown="handleZoom(evt,'out')"/>
  <use id="reset" xlink:href="#resetDef" x="30" y="36" onmousedown="handleReset()"/>
   <use id="arrowup" xlink:href="#arrowUp" x="0" y="0" onmousedown="handlePan(0,-1)"/>
  <use id="arrowright" xlink:href="#arrowRight" x="0" y="0" onmousedown="handlePan(1,0)"/>
  <use id="arrowdown" xlink:href="#arrowDown" x="0" y="0" onmousedown="handlePan(0,1)"/>
  <use id="arrowleft" xlink:href="#arrowLeft" x="0" y="0" onmousedown="handlePan(-1,0)"/>
</g>
<svg viewBox="0 0 15 15" width="100%" height="30px" preserveAspectRatio="xMaxYMin meet">
 <g id="arrow_out" transform="scale(0.3 0.3)">
  <a xlink:href="_t_m_c___m_a_c_r_o_s_8h__dep__incl_org.svg" target="_base">
   <rect id="button" ry="5" rx="5" y="6" x="6" height="38" width="38"
        fill="#f2f5e9" fill-opacity="0.5" stroke="#606060" stroke-width="1.0"/>
   <path id="arrow"
     d="M 11.500037,31.436501 C 11.940474,20.09759 22.043105,11.32322 32.158766,21.979434 L 37.068811,17.246167 C 37.068811,17.246167 37.088388,32 37.088388,32 L 22.160133,31.978069 C 22.160133,31.978069 26.997745,27.140456 26.997745,27.140456 C 18.528582,18.264221 13.291696,25.230495 11.500037,31.436501 z"
     style="fill:#404040;"/>
  </a>
 </g>
</svg>

<style type='text/css'>
<![CDATA[
[data-mouse-over-selected='false'] { opacity: 0.7; }
[data-mouse-over-selected='true']  { opacity: 1.0; }
]]>
</style>
<script type="application/ecmascript"><![CDATA[
document.addEventListener('DOMContentLoaded', (event) => {
  highlightEdges();
  highlightAdjacentNodes();
});
]]></script>
</svg>
