<?xml version="1.0" encoding="UTF-8" standalone="no"?>
<!DOCTYPE svg PUBLIC "-//W3C//DTD SVG 1.1//EN"
 "http://www.w3.org/Graphics/SVG/1.1/DTD/svg11.dtd">
<!-- Generated by graphviz version 12.2.1 (20241206.2353)
 -->
<!-- Title: src/source/TMC_platforms.h Pages: 1 -->
<!--zoomable 193 -->

<svg id="main" version="1.1" xmlns="http://www.w3.org/2000/svg" xmlns:xlink="http://www.w3.org/1999/xlink" xml:space="preserve" onload="init(evt)">

<style type="text/css"><![CDATA[
.node, .edge {opacity: 0.7;}
.node.selected, .edge.selected {opacity: 1;}
.edge:hover path { stroke: red; }
.edge:hover polygon { stroke: red; fill: red; }
]]></style>

<defs>
  <circle id="rim" cx="0" cy="0" r="7"/>
  <circle id="rim2" cx="0" cy="0" r="3.5"/>
  <g id="zoomPlus">
    <use xlink:href="#rim" fill="#404040"><set attributeName="fill" to="#808080" begin="zoomplus.mouseover" end="zoomplus.mouseout"/></use>
    <path d="M-4,0h8M0,-4v8" fill="none" stroke="white" stroke-width="1.5" pointer-events="none"/>
  </g>
  <g id="zoomMin">
    <use xlink:href="#rim" fill="#404040"><set attributeName="fill" to="#808080" begin="zoomminus.mouseover" end="zoomminus.mouseout"/></use>
    <path d="M-4,0h8" fill="none" stroke="white" stroke-width="1.5" pointer-events="none"/>
  </g>
  <g id="arrowUp" transform="translate(30 24)">
    <use xlink:href="#rim"/>
    <path pointer-events="none" fill="none" stroke="white" stroke-width="1.5" d="M0,-3.0v7 M-2.5,-0.5L0,-3.0L2.5,-0.5"/>
  </g>
  <g id="arrowRight" transform="rotate(90) translate(36 -43)">
    <use xlink:href="#rim"/>
    <path pointer-events="none" fill="none" stroke="white" stroke-width="1.5" d="M0,-3.0v7 M-2.5,-0.5L0,-3.0L2.5,-0.5"/>
  </g>
  <g id="arrowDown" transform="rotate(180) translate(-30 -48)">
    <use xlink:href="#rim"/>
    <path pointer-events="none" fill="none" stroke="white" stroke-width="1.5" d="M0,-3.0v7 M-2.5,-0.5L0,-3.0L2.5,-0.5"/>
  </g>
  <g id="arrowLeft" transform="rotate(270) translate(-36 17)">
    <use xlink:href="#rim"/>
    <path pointer-events="none" fill="none" stroke="white" stroke-width="1.5" d="M0,-3.0v7 M-2.5,-0.5L0,-3.0L2.5,-0.5"/>
  </g>
  <g id="resetDef">
    <use xlink:href="#rim2" fill="#404040"><set attributeName="fill" to="#808080" begin="reset.mouseover" end="reset.mouseout"/></use>
  </g>
</defs>
<script type="application/ecmascript">
var viewWidth = 4526;
var viewHeight = 193;
var sectionId = 'dynsection-0';
</script>
<script type="application/ecmascript" xlink:href="svg.min.js"/>
<svg id="graph" class="graph">
<g id="viewport">
<title>src/source/TMC_platforms.h</title>
<!-- Node1 -->
<g id="Node000001" class="node">
<title>Node1</title>
<g id="a_Node000001"><a xlink:title=" ">
<polygon fill="#999999" stroke="#666666" points="2246.88,-185 2106.38,-185 2106.38,-165.75 2246.88,-165.75 2246.88,-185"/>
<text text-anchor="middle" x="2176.62" y="-171.5" font-family="Helvetica,sans-Serif" font-size="10.00">src/source/TMC_platforms.h</text>
</a>
</g>
</g>
<!-- Node2 -->
<g id="Node000002" class="node">
<title>Node2</title>
<g id="a_Node000002"><a xlink:href="_s_e_r_i_a_l___s_w_i_t_c_h_8h.html" target="_top" xlink:title=" ">
<polygon fill="white" stroke="#666666" points="2179,-129.75 2024.25,-129.75 2024.25,-110.5 2179,-110.5 2179,-129.75"/>
<text text-anchor="middle" x="2101.62" y="-116.25" font-family="Helvetica,sans-Serif" font-size="10.00">src/source/SERIAL_SWITCH.h</text>
</a>
</g>
</g>
<!-- Node1&#45;&gt;Node2 -->
<g id="edge1_Node000001_Node000002" class="edge">
<title>Node1&#45;&gt;Node2</title>
<g id="a_edge1_Node000001_Node000002"><a xlink:title=" ">
<path fill="none" stroke="#63b8ff" d="M2154.63,-158.76C2141.55,-149.47 2125.42,-138.02 2114.41,-130.2"/>
<polygon fill="#63b8ff" stroke="#63b8ff" points="2152.49,-161.53 2162.67,-164.47 2156.54,-155.82 2152.49,-161.53"/>
</a>
</g>
</g>
<!-- Node33 -->
<g id="Node000033" class="node">
<title>Node33</title>
<g id="a_Node000033"><a xlink:href="_s_w___s_p_i_8h.html" target="_top" xlink:title=" ">
<polygon fill="white" stroke="#666666" points="2339.25,-129.75 2228,-129.75 2228,-110.5 2339.25,-110.5 2339.25,-129.75"/>
<text text-anchor="middle" x="2283.62" y="-116.25" font-family="Helvetica,sans-Serif" font-size="10.00">src/source/SW_SPI.h</text>
</a>
</g>
</g>
<!-- Node1&#45;&gt;Node33 -->
<g id="edge33_Node000001_Node000033" class="edge">
<title>Node1&#45;&gt;Node33</title>
<g id="a_edge33_Node000001_Node000033"><a xlink:title=" ">
<path fill="none" stroke="#63b8ff" d="M2205.02,-160.24C2224.16,-150.72 2248.83,-138.44 2265.38,-130.2"/>
<polygon fill="#63b8ff" stroke="#63b8ff" points="2203.52,-157.08 2196.13,-164.67 2206.64,-163.35 2203.52,-157.08"/>
</a>
</g>
</g>
<!-- Node3 -->
<g id="Node000003" class="node">
<title>Node3</title>
<g id="a_Node000003"><a xlink:href="_t_m_c_stepper_8h.html" target="_top" xlink:title=" ">
<polygon fill="white" stroke="#666666" points="2235.38,-74.5 2139.88,-74.5 2139.88,-55.25 2235.38,-55.25 2235.38,-74.5"/>
<text text-anchor="middle" x="2187.62" y="-61" font-family="Helvetica,sans-Serif" font-size="10.00">src/TMCStepper.h</text>
</a>
</g>
</g>
<!-- Node2&#45;&gt;Node3 -->
<g id="edge2_Node000002_Node000003" class="edge">
<title>Node2&#45;&gt;Node3</title>
<g id="a_edge2_Node000002_Node000003"><a xlink:title=" ">
<path fill="none" stroke="#63b8ff" d="M2125.97,-104.05C2141.11,-94.67 2160.09,-82.92 2172.96,-74.95"/>
<polygon fill="#63b8ff" stroke="#63b8ff" points="2124.16,-101.05 2117.5,-109.3 2127.85,-107.01 2124.16,-101.05"/>
</a>
</g>
</g>
<!-- Node25 -->
<g id="Node000025" class="node">
<title>Node25</title>
<g id="a_Node000025"><a xlink:href="_t_m_c2208_stepper_8cpp.html" target="_top" xlink:title=" ">
<polygon fill="white" stroke="#666666" points="159.25,-19.25 0,-19.25 0,0 159.25,0 159.25,-19.25"/>
<text text-anchor="middle" x="79.62" y="-5.75" font-family="Helvetica,sans-Serif" font-size="10.00">src/source/TMC2208Stepper.cpp</text>
</a>
</g>
</g>
<!-- Node2&#45;&gt;Node25 -->
<g id="edge32_Node000002_Node000025" class="edge">
<title>Node2&#45;&gt;Node25</title>
<g id="a_edge32_Node000002_Node000025"><a xlink:title=" ">
<path fill="none" stroke="#63b8ff" d="M2012.73,-115.96C1738.11,-105.86 878.92,-71.99 168.62,-19.25 165.68,-19.03 162.69,-18.8 159.66,-18.55"/>
<polygon fill="#63b8ff" stroke="#63b8ff" points="2012.57,-119.45 2022.69,-116.32 2012.83,-112.46 2012.57,-119.45"/>
</a>
</g>
</g>
<!-- Node32 -->
<g id="Node000032" class="node">
<title>Node32</title>
<g id="a_Node000032"><a xlink:href="_s_e_r_i_a_l___s_w_i_t_c_h_8cpp.html" target="_top" xlink:title=" ">
<polygon fill="white" stroke="#666666" points="2122.25,-74.5 1957,-74.5 1957,-55.25 2122.25,-55.25 2122.25,-74.5"/>
<text text-anchor="middle" x="2039.62" y="-61" font-family="Helvetica,sans-Serif" font-size="10.00">src/source/SERIAL_SWITCH.cpp</text>
</a>
</g>
</g>
<!-- Node2&#45;&gt;Node32 -->
<g id="edge31_Node000002_Node000032" class="edge">
<title>Node2&#45;&gt;Node32</title>
<g id="a_edge31_Node000002_Node000032"><a xlink:title=" ">
<path fill="none" stroke="#63b8ff" d="M2082.43,-102.64C2071.72,-93.44 2058.81,-82.35 2049.99,-74.77"/>
<polygon fill="#63b8ff" stroke="#63b8ff" points="2080.09,-105.25 2089.96,-109.11 2084.65,-99.94 2080.09,-105.25"/>
</a>
</g>
</g>
<!-- Node4 -->
<g id="Node000004" class="node">
<title>Node4</title>
<g id="a_Node000004"><a xlink:href="_c_h_o_p_c_o_n_f_8cpp.html" target="_top" xlink:title=" ">
<polygon fill="white" stroke="#666666" points="4184.5,-19.25 4044.75,-19.25 4044.75,0 4184.5,0 4184.5,-19.25"/>
<text text-anchor="middle" x="4114.62" y="-5.75" font-family="Helvetica,sans-Serif" font-size="10.00">src/source/CHOPCONF.cpp</text>
</a>
</g>
</g>
<!-- Node3&#45;&gt;Node4 -->
<g id="edge3_Node000003_Node000004" class="edge">
<title>Node3&#45;&gt;Node4</title>
<g id="a_edge3_Node000003_Node000004"><a xlink:title=" ">
<path fill="none" stroke="#63b8ff" d="M2247.19,-55.17C3039.85,11.66 3244.9,-70.26 4035.62,-19.25 4038.52,-19.06 4041.46,-18.85 4044.44,-18.61"/>
<polygon fill="#63b8ff" stroke="#63b8ff" points="2246.95,-51.68 2237.28,-56.01 2247.54,-58.65 2246.95,-51.68"/>
</a>
</g>
</g>
<!-- Node5 -->
<g id="Node000005" class="node">
<title>Node5</title>
<g id="a_Node000005"><a xlink:href="_c_o_o_l_c_o_n_f_8cpp.html" target="_top" xlink:title=" ">
<polygon fill="white" stroke="#666666" points="4340.75,-19.25 4202.5,-19.25 4202.5,0 4340.75,0 4340.75,-19.25"/>
<text text-anchor="middle" x="4271.62" y="-5.75" font-family="Helvetica,sans-Serif" font-size="10.00">src/source/COOLCONF.cpp</text>
</a>
</g>
</g>
<!-- Node3&#45;&gt;Node5 -->
<g id="edge4_Node000003_Node000005" class="edge">
<title>Node3&#45;&gt;Node5</title>
<g id="a_edge4_Node000003_Node000005"><a xlink:title=" ">
<path fill="none" stroke="#63b8ff" d="M2247.23,-55.17C3109.87,16.91 3332.84,-74.67 4193.62,-19.25 4196.48,-19.07 4199.39,-18.85 4202.33,-18.62"/>
<polygon fill="#63b8ff" stroke="#63b8ff" points="2246.95,-51.68 2237.28,-56.01 2247.54,-58.66 2246.95,-51.68"/>
</a>
</g>
</g>
<!-- Node6 -->
<g id="Node000006" class="node">
<title>Node6</title>
<g id="a_Node000006"><a xlink:href="_d_r_v_c_o_n_f_8cpp.html" target="_top" xlink:title=" ">
<polygon fill="white" stroke="#666666" points="309.75,-19.25 177.5,-19.25 177.5,0 309.75,0 309.75,-19.25"/>
<text text-anchor="middle" x="243.62" y="-5.75" font-family="Helvetica,sans-Serif" font-size="10.00">src/source/DRVCONF.cpp</text>
</a>
</g>
</g>
<!-- Node3&#45;&gt;Node6 -->
<g id="edge5_Node000003_Node000006" class="edge">
<title>Node3&#45;&gt;Node6</title>
<g id="a_edge5_Node000003_Node000006"><a xlink:title=" ">
<path fill="none" stroke="#63b8ff" d="M2128.17,-55.07C1326.77,13.43 1119.01,-73.1 318.62,-19.25 315.75,-19.06 312.81,-18.83 309.85,-18.58"/>
<polygon fill="#63b8ff" stroke="#63b8ff" points="2127.64,-58.53 2137.9,-55.9 2128.24,-51.56 2127.64,-58.53"/>
</a>
</g>
</g>
<!-- Node7 -->
<g id="Node000007" class="node">
<title>Node7</title>
<g id="a_Node000007"><a xlink:href="_d_r_v_c_t_r_l_8cpp.html" target="_top" xlink:title=" ">
<polygon fill="white" stroke="#666666" points="459.38,-19.25 327.88,-19.25 327.88,0 459.38,0 459.38,-19.25"/>
<text text-anchor="middle" x="393.62" y="-5.75" font-family="Helvetica,sans-Serif" font-size="10.00">src/source/DRVCTRL.cpp</text>
</a>
</g>
</g>
<!-- Node3&#45;&gt;Node7 -->
<g id="edge6_Node000003_Node000007" class="edge">
<title>Node3&#45;&gt;Node7</title>
<g id="a_edge6_Node000003_Node000007"><a xlink:title=" ">
<path fill="none" stroke="#63b8ff" d="M2128.01,-55.05C1393.2,8.35 1202.42,-69.28 468.62,-19.25 465.75,-19.05 462.81,-18.83 459.85,-18.58"/>
<polygon fill="#63b8ff" stroke="#63b8ff" points="2127.64,-58.53 2137.9,-55.91 2128.24,-51.55 2127.64,-58.53"/>
</a>
</g>
</g>
<!-- Node8 -->
<g id="Node000008" class="node">
<title>Node8</title>
<g id="a_Node000008"><a xlink:href="_d_r_v_s_t_a_t_u_s_8cpp.html" target="_top" xlink:title=" ">
<polygon fill="white" stroke="#666666" points="621.75,-19.25 477.5,-19.25 477.5,0 621.75,0 621.75,-19.25"/>
<text text-anchor="middle" x="549.62" y="-5.75" font-family="Helvetica,sans-Serif" font-size="10.00">src/source/DRVSTATUS.cpp</text>
</a>
</g>
</g>
<!-- Node3&#45;&gt;Node8 -->
<g id="edge7_Node000003_Node000008" class="edge">
<title>Node3&#45;&gt;Node8</title>
<g id="a_edge7_Node000003_Node000008"><a xlink:title=" ">
<path fill="none" stroke="#63b8ff" d="M2128.13,-55.05C1465,2.92 1292.78,-62.37 630.62,-19.25 627.8,-19.07 624.93,-18.86 622.02,-18.63"/>
<polygon fill="#63b8ff" stroke="#63b8ff" points="2127.63,-58.52 2137.9,-55.91 2128.25,-51.55 2127.63,-58.52"/>
</a>
</g>
</g>
<!-- Node9 -->
<g id="Node000009" class="node">
<title>Node9</title>
<g id="a_Node000009"><a xlink:href="_d_r_v___c_o_n_f_8cpp.html" target="_top" xlink:title=" ">
<polygon fill="white" stroke="#666666" points="777.38,-19.25 639.88,-19.25 639.88,0 777.38,0 777.38,-19.25"/>
<text text-anchor="middle" x="708.62" y="-5.75" font-family="Helvetica,sans-Serif" font-size="10.00">src/source/DRV_CONF.cpp</text>
</a>
</g>
</g>
<!-- Node3&#45;&gt;Node9 -->
<g id="edge8_Node000003_Node000009" class="edge">
<title>Node3&#45;&gt;Node9</title>
<g id="a_edge8_Node000003_Node000009"><a xlink:title=" ">
<path fill="none" stroke="#63b8ff" d="M2127.97,-55.03C1534.08,-2.37 1379.43,-59.89 786.62,-19.25 783.63,-19.05 780.58,-18.81 777.5,-18.56"/>
<polygon fill="#63b8ff" stroke="#63b8ff" points="2127.63,-58.51 2137.9,-55.92 2128.25,-51.54 2127.63,-58.51"/>
</a>
</g>
</g>
<!-- Node10 -->
<g id="Node000010" class="node">
<title>Node10</title>
<g id="a_Node000010"><a xlink:href="_d_r_v___s_t_a_t_u_s_8cpp.html" target="_top" xlink:title=" ">
<polygon fill="white" stroke="#666666" points="945.38,-19.25 795.88,-19.25 795.88,0 945.38,0 945.38,-19.25"/>
<text text-anchor="middle" x="870.62" y="-5.75" font-family="Helvetica,sans-Serif" font-size="10.00">src/source/DRV_STATUS.cpp</text>
</a>
</g>
</g>
<!-- Node3&#45;&gt;Node10 -->
<g id="edge9_Node000003_Node000010" class="edge">
<title>Node3&#45;&gt;Node10</title>
<g id="a_edge9_Node000003_Node000010"><a xlink:title=" ">
<path fill="none" stroke="#63b8ff" d="M2128.22,-55.04C1608.11,-7.96 1472.55,-54.09 953.62,-19.25 951.02,-19.08 948.38,-18.88 945.71,-18.68"/>
<polygon fill="#63b8ff" stroke="#63b8ff" points="2127.62,-58.5 2137.9,-55.93 2128.26,-51.53 2127.62,-58.5"/>
</a>
</g>
</g>
<!-- Node11 -->
<g id="Node000011" class="node">
<title>Node11</title>
<g id="a_Node000011"><a xlink:href="_e_n_c_m_o_d_e_8cpp.html" target="_top" xlink:title=" ">
<polygon fill="white" stroke="#666666" points="1098.25,-19.25 963,-19.25 963,0 1098.25,0 1098.25,-19.25"/>
<text text-anchor="middle" x="1030.62" y="-5.75" font-family="Helvetica,sans-Serif" font-size="10.00">src/source/ENCMODE.cpp</text>
</a>
</g>
</g>
<!-- Node3&#45;&gt;Node11 -->
<g id="edge10_Node000003_Node000011" class="edge">
<title>Node3&#45;&gt;Node11</title>
<g id="a_edge10_Node000003_Node000011"><a xlink:title=" ">
<path fill="none" stroke="#63b8ff" d="M2127.99,-55.01C1676.29,-13.18 1558.02,-52.34 1107.62,-19.25 1104.67,-19.03 1101.66,-18.79 1098.62,-18.53"/>
<polygon fill="#63b8ff" stroke="#63b8ff" points="2127.62,-58.49 2137.9,-55.94 2128.27,-51.52 2127.62,-58.49"/>
</a>
</g>
</g>
<!-- Node12 -->
<g id="Node000012" class="node">
<title>Node12</title>
<g id="a_Node000012"><a xlink:href="_g_c_o_n_f_8cpp.html" target="_top" xlink:title=" ">
<polygon fill="white" stroke="#666666" points="1234.62,-19.25 1116.62,-19.25 1116.62,0 1234.62,0 1234.62,-19.25"/>
<text text-anchor="middle" x="1175.62" y="-5.75" font-family="Helvetica,sans-Serif" font-size="10.00">src/source/GCONF.cpp</text>
</a>
</g>
</g>
<!-- Node3&#45;&gt;Node12 -->
<g id="edge11_Node000003_Node000012" class="edge">
<title>Node3&#45;&gt;Node12</title>
<g id="a_edge11_Node000003_Node000012"><a xlink:title=" ">
<path fill="none" stroke="#63b8ff" d="M2128.03,-55C1736.52,-17.79 1633.5,-51.82 1243.62,-19.25 1240.78,-19.01 1237.87,-18.74 1234.93,-18.45"/>
<polygon fill="#63b8ff" stroke="#63b8ff" points="2127.61,-58.48 2137.9,-55.95 2128.28,-51.51 2127.61,-58.48"/>
</a>
</g>
</g>
<!-- Node13 -->
<g id="Node000013" class="node">
<title>Node13</title>
<g id="a_Node000013"><a xlink:href="_g_l_o_b_a_l___s_c_a_l_e_r_8cpp.html" target="_top" xlink:title=" ">
<polygon fill="white" stroke="#666666" points="1420.75,-19.25 1252.5,-19.25 1252.5,0 1420.75,0 1420.75,-19.25"/>
<text text-anchor="middle" x="1336.62" y="-5.75" font-family="Helvetica,sans-Serif" font-size="10.00">src/source/GLOBAL_SCALER.cpp</text>
</a>
</g>
</g>
<!-- Node3&#45;&gt;Node13 -->
<g id="edge12_Node000003_Node000013" class="edge">
<title>Node3&#45;&gt;Node13</title>
<g id="a_edge12_Node000003_Node000013"><a xlink:title=" ">
<path fill="none" stroke="#63b8ff" d="M2128.3,-55C1818.94,-23.85 1737.58,-41.42 1429.62,-19.25 1426.71,-19.04 1423.75,-18.82 1420.76,-18.58"/>
<polygon fill="#63b8ff" stroke="#63b8ff" points="2127.59,-58.45 2137.9,-55.98 2128.3,-51.48 2127.59,-58.45"/>
</a>
</g>
</g>
<!-- Node14 -->
<g id="Node000014" class="node">
<title>Node14</title>
<g id="a_Node000014"><a xlink:href="_i_h_o_l_d___i_r_u_n_8cpp.html" target="_top" xlink:title=" ">
<polygon fill="white" stroke="#666666" points="1584.12,-19.25 1439.12,-19.25 1439.12,0 1584.12,0 1584.12,-19.25"/>
<text text-anchor="middle" x="1511.62" y="-5.75" font-family="Helvetica,sans-Serif" font-size="10.00">src/source/IHOLD_IRUN.cpp</text>
</a>
</g>
</g>
<!-- Node3&#45;&gt;Node14 -->
<g id="edge13_Node000003_Node000014" class="edge">
<title>Node3&#45;&gt;Node14</title>
<g id="a_edge13_Node000003_Node000014"><a xlink:title=" ">
<path fill="none" stroke="#63b8ff" d="M2128,-54.93C1891.47,-29.32 1828.66,-39.47 1593.62,-19.25 1590.63,-18.99 1587.57,-18.72 1584.49,-18.43"/>
<polygon fill="#63b8ff" stroke="#63b8ff" points="2127.57,-58.4 2137.89,-56.01 2128.33,-51.45 2127.57,-58.4"/>
</a>
</g>
</g>
<!-- Node15 -->
<g id="Node000015" class="node">
<title>Node15</title>
<g id="a_Node000015"><a xlink:href="_i_o_i_n_8cpp.html" target="_top" xlink:title=" ">
<polygon fill="white" stroke="#666666" points="1706.88,-19.25 1602.38,-19.25 1602.38,0 1706.88,0 1706.88,-19.25"/>
<text text-anchor="middle" x="1654.62" y="-5.75" font-family="Helvetica,sans-Serif" font-size="10.00">src/source/IOIN.cpp</text>
</a>
</g>
</g>
<!-- Node3&#45;&gt;Node15 -->
<g id="edge14_Node000003_Node000015" class="edge">
<title>Node3&#45;&gt;Node15</title>
<g id="a_edge14_Node000003_Node000015"><a xlink:title=" ">
<path fill="none" stroke="#63b8ff" d="M2128.03,-54.88C1945.42,-33.39 1896.32,-39.83 1715.62,-19.25 1712.86,-18.94 1710.03,-18.6 1707.17,-18.24"/>
<polygon fill="#63b8ff" stroke="#63b8ff" points="2127.54,-58.35 2137.89,-56.06 2128.37,-51.4 2127.54,-58.35"/>
</a>
</g>
</g>
<!-- Node16 -->
<g id="Node000016" class="node">
<title>Node16</title>
<g id="a_Node000016"><a xlink:href="_p_w_m_c_o_n_f_8cpp.html" target="_top" xlink:title=" ">
<polygon fill="white" stroke="#666666" points="1860.25,-19.25 1725,-19.25 1725,0 1860.25,0 1860.25,-19.25"/>
<text text-anchor="middle" x="1792.62" y="-5.75" font-family="Helvetica,sans-Serif" font-size="10.00">src/source/PWMCONF.cpp</text>
</a>
</g>
</g>
<!-- Node3&#45;&gt;Node16 -->
<g id="edge15_Node000003_Node000016" class="edge">
<title>Node3&#45;&gt;Node16</title>
<g id="a_edge15_Node000003_Node000016"><a xlink:title=" ">
<path fill="none" stroke="#63b8ff" d="M2128.3,-54.8C2029.73,-40.81 1926.48,-27.47 1860.54,-19.12"/>
<polygon fill="#63b8ff" stroke="#63b8ff" points="2127.78,-58.26 2138.18,-56.21 2128.77,-51.33 2127.78,-58.26"/>
</a>
</g>
</g>
<!-- Node17 -->
<g id="Node000017" class="node">
<title>Node17</title>
<g id="a_Node000017"><a xlink:href="_r_a_m_p___s_t_a_t_8cpp.html" target="_top" xlink:title=" ">
<polygon fill="white" stroke="#666666" points="2019.25,-19.25 1878,-19.25 1878,0 2019.25,0 2019.25,-19.25"/>
<text text-anchor="middle" x="1948.62" y="-5.75" font-family="Helvetica,sans-Serif" font-size="10.00">src/source/RAMP_STAT.cpp</text>
</a>
</g>
</g>
<!-- Node3&#45;&gt;Node17 -->
<g id="edge16_Node000003_Node000017" class="edge">
<title>Node3&#45;&gt;Node17</title>
<g id="a_edge16_Node000003_Node000017"><a xlink:title=" ">
<path fill="none" stroke="#63b8ff" d="M2135.78,-52.32C2091.83,-42.53 2029.68,-28.69 1989.27,-19.68"/>
<polygon fill="#63b8ff" stroke="#63b8ff" points="2134.81,-55.69 2145.33,-54.45 2136.33,-48.86 2134.81,-55.69"/>
</a>
</g>
</g>
<!-- Node18 -->
<g id="Node000018" class="node">
<title>Node18</title>
<g id="a_Node000018"><a xlink:href="_s_g_c_s_c_o_n_f_8cpp.html" target="_top" xlink:title=" ">
<polygon fill="white" stroke="#666666" points="2176.12,-19.25 2037.12,-19.25 2037.12,0 2176.12,0 2176.12,-19.25"/>
<text text-anchor="middle" x="2106.62" y="-5.75" font-family="Helvetica,sans-Serif" font-size="10.00">src/source/SGCSCONF.cpp</text>
</a>
</g>
</g>
<!-- Node3&#45;&gt;Node18 -->
<g id="edge17_Node000003_Node000018" class="edge">
<title>Node3&#45;&gt;Node18</title>
<g id="a_edge17_Node000003_Node000018"><a xlink:title=" ">
<path fill="none" stroke="#63b8ff" d="M2164.29,-48.53C2150.09,-39.2 2132.44,-27.6 2120.43,-19.7"/>
<polygon fill="#63b8ff" stroke="#63b8ff" points="2162.34,-51.44 2172.62,-54.01 2166.19,-45.59 2162.34,-51.44"/>
</a>
</g>
</g>
<!-- Node19 -->
<g id="Node000019" class="node">
<title>Node19</title>
<g id="a_Node000019"><a xlink:href="_s_h_o_r_t___c_o_n_f_8cpp.html" target="_top" xlink:title=" ">
<polygon fill="white" stroke="#666666" points="2345.12,-19.25 2194.12,-19.25 2194.12,0 2345.12,0 2345.12,-19.25"/>
<text text-anchor="middle" x="2269.62" y="-5.75" font-family="Helvetica,sans-Serif" font-size="10.00">src/source/SHORT_CONF.cpp</text>
</a>
</g>
</g>
<!-- Node3&#45;&gt;Node19 -->
<g id="edge18_Node000003_Node000019" class="edge">
<title>Node3&#45;&gt;Node19</title>
<g id="a_edge18_Node000003_Node000019"><a xlink:title=" ">
<path fill="none" stroke="#63b8ff" d="M2210.83,-48.8C2225.28,-39.42 2243.37,-27.67 2255.65,-19.7"/>
<polygon fill="#63b8ff" stroke="#63b8ff" points="2209.29,-45.64 2202.8,-54.02 2213.1,-51.51 2209.29,-45.64"/>
</a>
</g>
</g>
<!-- Node20 -->
<g id="Node000020" class="node">
<title>Node20</title>
<g id="a_Node000020"><a xlink:href="_s_l_a_v_e_c_o_n_f_8cpp.html" target="_top" xlink:title=" ">
<polygon fill="white" stroke="#666666" points="2504.25,-19.25 2363,-19.25 2363,0 2504.25,0 2504.25,-19.25"/>
<text text-anchor="middle" x="2433.62" y="-5.75" font-family="Helvetica,sans-Serif" font-size="10.00">src/source/SLAVECONF.cpp</text>
</a>
</g>
</g>
<!-- Node3&#45;&gt;Node20 -->
<g id="edge19_Node000003_Node000020" class="edge">
<title>Node3&#45;&gt;Node20</title>
<g id="a_edge19_Node000003_Node000020"><a xlink:title=" ">
<path fill="none" stroke="#63b8ff" d="M2240.71,-52.38C2285.95,-42.59 2350.1,-28.7 2391.79,-19.68"/>
<polygon fill="#63b8ff" stroke="#63b8ff" points="2240.15,-48.92 2231.11,-54.46 2241.63,-55.77 2240.15,-48.92"/>
</a>
</g>
</g>
<!-- Node21 -->
<g id="Node000021" class="node">
<title>Node21</title>
<g id="a_Node000021"><a xlink:href="_s_m_a_r_t_e_n_8cpp.html" target="_top" xlink:title=" ">
<polygon fill="white" stroke="#666666" points="2655.12,-19.25 2522.12,-19.25 2522.12,0 2655.12,0 2655.12,-19.25"/>
<text text-anchor="middle" x="2588.62" y="-5.75" font-family="Helvetica,sans-Serif" font-size="10.00">src/source/SMARTEN.cpp</text>
</a>
</g>
</g>
<!-- Node3&#45;&gt;Node21 -->
<g id="edge20_Node000003_Node000021" class="edge">
<title>Node3&#45;&gt;Node21</title>
<g id="a_edge20_Node000003_Node000021"><a xlink:title=" ">
<path fill="none" stroke="#63b8ff" d="M2246.91,-54.95C2348.58,-40.75 2454.73,-27.24 2521.66,-18.89"/>
<polygon fill="#63b8ff" stroke="#63b8ff" points="2246.73,-51.44 2237.32,-56.3 2247.7,-58.38 2246.73,-51.44"/>
</a>
</g>
</g>
<!-- Node22 -->
<g id="Node000022" class="node">
<title>Node22</title>
<g id="a_Node000022"><a xlink:href="_s_w___m_o_d_e_8cpp.html" target="_top" xlink:title=" ">
<polygon fill="white" stroke="#666666" points="2808.25,-19.25 2673,-19.25 2673,0 2808.25,0 2808.25,-19.25"/>
<text text-anchor="middle" x="2740.62" y="-5.75" font-family="Helvetica,sans-Serif" font-size="10.00">src/source/SW_MODE.cpp</text>
</a>
</g>
</g>
<!-- Node3&#45;&gt;Node22 -->
<g id="edge21_Node000003_Node000022" class="edge">
<title>Node3&#45;&gt;Node22</title>
<g id="a_edge21_Node000003_Node000022"><a xlink:title=" ">
<path fill="none" stroke="#63b8ff" d="M2247.05,-55.04C2432.59,-33.39 2481.84,-37.45 2664.62,-19.25 2667.27,-18.99 2669.96,-18.71 2672.68,-18.43"/>
<polygon fill="#63b8ff" stroke="#63b8ff" points="2246.82,-51.54 2237.3,-56.18 2247.64,-58.49 2246.82,-51.54"/>
</a>
</g>
</g>
<!-- Node23 -->
<g id="Node000023" class="node">
<title>Node23</title>
<g id="a_Node000023"><a xlink:href="_t_m_c2130_stepper_8cpp.html" target="_top" xlink:title=" ">
<polygon fill="white" stroke="#666666" points="2985.25,-19.25 2826,-19.25 2826,0 2985.25,0 2985.25,-19.25"/>
<text text-anchor="middle" x="2905.62" y="-5.75" font-family="Helvetica,sans-Serif" font-size="10.00">src/source/TMC2130Stepper.cpp</text>
</a>
</g>
</g>
<!-- Node3&#45;&gt;Node23 -->
<g id="edge22_Node000003_Node000023" class="edge">
<title>Node3&#45;&gt;Node23</title>
<g id="a_edge22_Node000003_Node000023"><a xlink:title=" ">
<path fill="none" stroke="#63b8ff" d="M2247.2,-55.07C2500.29,-28.47 2567,-39.4 2817.62,-19.25 2820.23,-19.04 2822.87,-18.82 2825.54,-18.59"/>
<polygon fill="#63b8ff" stroke="#63b8ff" points="2246.87,-51.59 2237.29,-56.12 2247.61,-58.55 2246.87,-51.59"/>
</a>
</g>
</g>
<!-- Node24 -->
<g id="Node000024" class="node">
<title>Node24</title>
<g id="a_Node000024"><a xlink:href="_t_m_c2160_stepper_8cpp.html" target="_top" xlink:title=" ">
<polygon fill="white" stroke="#666666" points="3162.25,-19.25 3003,-19.25 3003,0 3162.25,0 3162.25,-19.25"/>
<text text-anchor="middle" x="3082.62" y="-5.75" font-family="Helvetica,sans-Serif" font-size="10.00">src/source/TMC2160Stepper.cpp</text>
</a>
</g>
</g>
<!-- Node3&#45;&gt;Node24 -->
<g id="edge23_Node000003_Node000024" class="edge">
<title>Node3&#45;&gt;Node24</title>
<g id="a_edge23_Node000003_Node000024"><a xlink:title=" ">
<path fill="none" stroke="#63b8ff" d="M2247.17,-55.11C2578.65,-22.72 2665.53,-43.26 2994.62,-19.25 2997.23,-19.06 2999.87,-18.86 3002.54,-18.64"/>
<polygon fill="#63b8ff" stroke="#63b8ff" points="2246.9,-51.62 2237.29,-56.09 2247.59,-58.59 2246.9,-51.62"/>
</a>
</g>
</g>
<!-- Node3&#45;&gt;Node25 -->
<g id="edge24_Node000003_Node000025" class="edge">
<title>Node3&#45;&gt;Node25</title>
<g id="a_edge24_Node000003_Node000025"><a xlink:title=" ">
<path fill="none" stroke="#63b8ff" d="M2128.2,-55.07C1260.31,18.58 1036.05,-69.16 168.62,-19.25 165.68,-19.08 162.68,-18.89 159.66,-18.68"/>
<polygon fill="#63b8ff" stroke="#63b8ff" points="2127.64,-58.54 2137.9,-55.9 2128.24,-51.56 2127.64,-58.54"/>
</a>
</g>
</g>
<!-- Node26 -->
<g id="Node000026" class="node">
<title>Node26</title>
<g id="a_Node000026"><a xlink:href="_t_m_c2209_stepper_8cpp.html" target="_top" xlink:title=" ">
<polygon fill="white" stroke="#666666" points="3339.25,-19.25 3180,-19.25 3180,0 3339.25,0 3339.25,-19.25"/>
<text text-anchor="middle" x="3259.62" y="-5.75" font-family="Helvetica,sans-Serif" font-size="10.00">src/source/TMC2209Stepper.cpp</text>
</a>
</g>
</g>
<!-- Node3&#45;&gt;Node26 -->
<g id="edge25_Node000003_Node000026" class="edge">
<title>Node3&#45;&gt;Node26</title>
<g id="a_edge25_Node000003_Node000026"><a xlink:title=" ">
<path fill="none" stroke="#63b8ff" d="M2247.07,-55.14C2657.02,-16.9 2763.99,-47.12 3171.62,-19.25 3174.23,-19.07 3176.87,-18.88 3179.55,-18.68"/>
<polygon fill="#63b8ff" stroke="#63b8ff" points="2246.92,-51.64 2237.29,-56.06 2247.57,-58.61 2246.92,-51.64"/>
</a>
</g>
</g>
<!-- Node27 -->
<g id="Node000027" class="node">
<title>Node27</title>
<g id="a_Node000027"><a xlink:href="_t_m_c2240_stepper_8cpp.html" target="_top" xlink:title=" ">
<polygon fill="white" stroke="#666666" points="3516.25,-19.25 3357,-19.25 3357,0 3516.25,0 3516.25,-19.25"/>
<text text-anchor="middle" x="3436.62" y="-5.75" font-family="Helvetica,sans-Serif" font-size="10.00">src/source/TMC2240Stepper.cpp</text>
</a>
</g>
</g>
<!-- Node3&#45;&gt;Node27 -->
<g id="edge26_Node000003_Node000027" class="edge">
<title>Node3&#45;&gt;Node27</title>
<g id="a_edge26_Node000003_Node000027"><a xlink:title=" ">
<path fill="none" stroke="#63b8ff" d="M2247.02,-55.16C2735.42,-11.06 2862.45,-50.97 3348.62,-19.25 3351.23,-19.08 3353.88,-18.89 3356.55,-18.7"/>
<polygon fill="#63b8ff" stroke="#63b8ff" points="2246.93,-51.65 2237.29,-56.04 2247.56,-58.62 2246.93,-51.65"/>
</a>
</g>
</g>
<!-- Node28 -->
<g id="Node000028" class="node">
<title>Node28</title>
<g id="a_Node000028"><a xlink:href="_t_m_c2660_stepper_8cpp.html" target="_top" xlink:title=" ">
<polygon fill="white" stroke="#666666" points="4518.25,-19.25 4359,-19.25 4359,0 4518.25,0 4518.25,-19.25"/>
<text text-anchor="middle" x="4438.62" y="-5.75" font-family="Helvetica,sans-Serif" font-size="10.00">src/source/TMC2660Stepper.cpp</text>
</a>
</g>
</g>
<!-- Node3&#45;&gt;Node28 -->
<g id="edge27_Node000003_Node000028" class="edge">
<title>Node3&#45;&gt;Node28</title>
<g id="a_edge27_Node000003_Node000028"><a xlink:title=" ">
<path fill="none" stroke="#63b8ff" d="M2247.12,-55.18C3178.98,22.15 3419.21,-72.21 4349.62,-19.25 4352.57,-19.08 4355.57,-18.89 4358.59,-18.68"/>
<polygon fill="#63b8ff" stroke="#63b8ff" points="2246.96,-51.68 2237.28,-56 2247.54,-58.66 2246.96,-51.68"/>
</a>
</g>
</g>
<!-- Node29 -->
<g id="Node000029" class="node">
<title>Node29</title>
<g id="a_Node000029"><a xlink:href="_t_m_c5130_stepper_8cpp.html" target="_top" xlink:title=" ">
<polygon fill="white" stroke="#666666" points="3693.25,-19.25 3534,-19.25 3534,0 3693.25,0 3693.25,-19.25"/>
<text text-anchor="middle" x="3613.62" y="-5.75" font-family="Helvetica,sans-Serif" font-size="10.00">src/source/TMC5130Stepper.cpp</text>
</a>
</g>
</g>
<!-- Node3&#45;&gt;Node29 -->
<g id="edge28_Node000003_Node000029" class="edge">
<title>Node3&#45;&gt;Node29</title>
<g id="a_edge28_Node000003_Node000029"><a xlink:title=" ">
<path fill="none" stroke="#63b8ff" d="M2247.11,-55.16C2813.86,-5.21 2960.94,-54.81 3525.62,-19.25 3528.23,-19.09 3530.88,-18.91 3533.55,-18.71"/>
<polygon fill="#63b8ff" stroke="#63b8ff" points="2246.94,-51.66 2237.28,-56.03 2247.56,-58.63 2246.94,-51.66"/>
</a>
</g>
</g>
<!-- Node30 -->
<g id="Node000030" class="node">
<title>Node30</title>
<g id="a_Node000030"><a xlink:href="_t_m_c5160_stepper_8cpp.html" target="_top" xlink:title=" ">
<polygon fill="white" stroke="#666666" points="3870.25,-19.25 3711,-19.25 3711,0 3870.25,0 3870.25,-19.25"/>
<text text-anchor="middle" x="3790.62" y="-5.75" font-family="Helvetica,sans-Serif" font-size="10.00">src/source/TMC5160Stepper.cpp</text>
</a>
</g>
</g>
<!-- Node3&#45;&gt;Node30 -->
<g id="edge29_Node000003_Node000030" class="edge">
<title>Node3&#45;&gt;Node30</title>
<g id="a_edge29_Node000003_Node000030"><a xlink:title=" ">
<path fill="none" stroke="#63b8ff" d="M2247.23,-55.16C2892.3,0.65 3059.43,-58.66 3702.62,-19.25 3705.23,-19.09 3707.88,-18.91 3710.55,-18.72"/>
<polygon fill="#63b8ff" stroke="#63b8ff" points="2246.94,-51.67 2237.28,-56.02 2247.55,-58.64 2246.94,-51.67"/>
</a>
</g>
</g>
<!-- Node31 -->
<g id="Node000031" class="node">
<title>Node31</title>
<g id="a_Node000031"><a xlink:href="_t_m_c_stepper_8cpp.html" target="_top" xlink:title=" ">
<polygon fill="white" stroke="#666666" points="4026.75,-19.25 3888.5,-19.25 3888.5,0 4026.75,0 4026.75,-19.25"/>
<text text-anchor="middle" x="3957.62" y="-5.75" font-family="Helvetica,sans-Serif" font-size="10.00">src/source/TMCStepper.cpp</text>
</a>
</g>
</g>
<!-- Node3&#45;&gt;Node31 -->
<g id="edge30_Node000003_Node000031" class="edge">
<title>Node3&#45;&gt;Node31</title>
<g id="a_edge30_Node000003_Node000031"><a xlink:title=" ">
<path fill="none" stroke="#63b8ff" d="M2247.01,-55.18C2970.69,6.49 3158.09,-66.99 3879.62,-19.25 3882.48,-19.06 3885.39,-18.85 3888.33,-18.61"/>
<polygon fill="#63b8ff" stroke="#63b8ff" points="2246.95,-51.67 2237.28,-56.02 2247.55,-58.65 2246.95,-51.67"/>
</a>
</g>
</g>
<!-- Node33&#45;&gt;Node3 -->
<g id="edge34_Node000033_Node000003" class="edge">
<title>Node33&#45;&gt;Node3</title>
<g id="a_edge34_Node000033_Node000003"><a xlink:title=" ">
<path fill="none" stroke="#63b8ff" d="M2257.42,-104.59C2240.36,-95.13 2218.63,-83.08 2203.99,-74.95"/>
<polygon fill="#63b8ff" stroke="#63b8ff" points="2255.57,-107.57 2266.02,-109.36 2258.97,-101.45 2255.57,-107.57"/>
</a>
</g>
</g>
<!-- Node33&#45;&gt;Node28 -->
<g id="edge36_Node000033_Node000028" class="edge">
<title>Node33&#45;&gt;Node28</title>
<g id="a_edge36_Node000033_Node000028"><a xlink:title=" ">
<path fill="none" stroke="#63b8ff" d="M2351,-117.05C2609.79,-108.84 3564.79,-76.22 4349.62,-19.25 4352.57,-19.04 4355.56,-18.81 4358.59,-18.57"/>
<polygon fill="#63b8ff" stroke="#63b8ff" points="2350.96,-113.55 2341.08,-117.37 2351.18,-120.55 2350.96,-113.55"/>
</a>
</g>
</g>
<!-- Node34 -->
<g id="Node000034" class="node">
<title>Node34</title>
<g id="a_Node000034"><a xlink:href="_s_w___s_p_i_8cpp.html" target="_top" xlink:title=" ">
<polygon fill="white" stroke="#666666" points="2375.5,-74.5 2253.75,-74.5 2253.75,-55.25 2375.5,-55.25 2375.5,-74.5"/>
<text text-anchor="middle" x="2314.62" y="-61" font-family="Helvetica,sans-Serif" font-size="10.00">src/source/SW_SPI.cpp</text>
</a>
</g>
</g>
<!-- Node33&#45;&gt;Node34 -->
<g id="edge35_Node000033_Node000034" class="edge">
<title>Node33&#45;&gt;Node34</title>
<g id="a_edge35_Node000033_Node000034"><a xlink:title=" ">
<path fill="none" stroke="#63b8ff" d="M2294.4,-100.62C2299.48,-91.89 2305.3,-81.89 2309.39,-74.86"/>
<polygon fill="#63b8ff" stroke="#63b8ff" points="2291.51,-98.62 2289.51,-109.02 2297.56,-102.14 2291.51,-98.62"/>
</a>
</g>
</g>
</g>
</svg>

<g id="navigator" transform="translate(0 0)" fill="#404254">
  <rect fill="#f2f5e9" fill-opacity="0.5" stroke="#606060" stroke-width=".5" x="0" y="0" width="60" height="60"/>
  <use id="zoomplus" xlink:href="#zoomPlus" x="17" y="9" onmousedown="handleZoom(evt,'in')"/>
  <use id="zoomminus" xlink:href="#zoomMin" x="42" y="9" onmousedown="handleZoom(evt,'out')"/>
  <use id="reset" xlink:href="#resetDef" x="30" y="36" onmousedown="handleReset()"/>
   <use id="arrowup" xlink:href="#arrowUp" x="0" y="0" onmousedown="handlePan(0,-1)"/>
  <use id="arrowright" xlink:href="#arrowRight" x="0" y="0" onmousedown="handlePan(1,0)"/>
  <use id="arrowdown" xlink:href="#arrowDown" x="0" y="0" onmousedown="handlePan(0,1)"/>
  <use id="arrowleft" xlink:href="#arrowLeft" x="0" y="0" onmousedown="handlePan(-1,0)"/>
</g>
<svg viewBox="0 0 15 15" width="100%" height="30px" preserveAspectRatio="xMaxYMin meet">
 <g id="arrow_out" transform="scale(0.3 0.3)">
  <a xlink:href="_t_m_c__platforms_8h__dep__incl_org.svg" target="_base">
   <rect id="button" ry="5" rx="5" y="6" x="6" height="38" width="38"
        fill="#f2f5e9" fill-opacity="0.5" stroke="#606060" stroke-width="1.0"/>
   <path id="arrow"
     d="M 11.500037,31.436501 C 11.940474,20.09759 22.043105,11.32322 32.158766,21.979434 L 37.068811,17.246167 C 37.068811,17.246167 37.088388,32 37.088388,32 L 22.160133,31.978069 C 22.160133,31.978069 26.997745,27.140456 26.997745,27.140456 C 18.528582,18.264221 13.291696,25.230495 11.500037,31.436501 z"
     style="fill:#404040;"/>
  </a>
 </g>
</svg>

<style type='text/css'>
<![CDATA[
[data-mouse-over-selected='false'] { opacity: 0.7; }
[data-mouse-over-selected='true']  { opacity: 1.0; }
]]>
</style>
<script type="application/ecmascript"><![CDATA[
document.addEventListener('DOMContentLoaded', (event) => {
  highlightEdges();
  highlightAdjacentNodes();
});
]]></script>
</svg>
