<?xml version="1.0" encoding="UTF-8" standalone="no"?>
<!DOCTYPE svg PUBLIC "-//W3C//DTD SVG 1.1//EN"
 "http://www.w3.org/Graphics/SVG/1.1/DTD/svg11.dtd">
<!-- Generated by graphviz version 12.2.1 (20241206.2353)
 -->
<!-- Title: src/source/TMC2160_bitfields.h Pages: 1 -->
<!--zoomable 149 -->

<svg id="main" version="1.1" xmlns="http://www.w3.org/2000/svg" xmlns:xlink="http://www.w3.org/1999/xlink" xml:space="preserve" onload="init(evt)">

<style type="text/css"><![CDATA[
.node, .edge {opacity: 0.7;}
.node.selected, .edge.selected {opacity: 1;}
.edge:hover path { stroke: red; }
.edge:hover polygon { stroke: red; fill: red; }
]]></style>

<defs>
  <circle id="rim" cx="0" cy="0" r="7"/>
  <circle id="rim2" cx="0" cy="0" r="3.5"/>
  <g id="zoomPlus">
    <use xlink:href="#rim" fill="#404040"><set attributeName="fill" to="#808080" begin="zoomplus.mouseover" end="zoomplus.mouseout"/></use>
    <path d="M-4,0h8M0,-4v8" fill="none" stroke="white" stroke-width="1.5" pointer-events="none"/>
  </g>
  <g id="zoomMin">
    <use xlink:href="#rim" fill="#404040"><set attributeName="fill" to="#808080" begin="zoomminus.mouseover" end="zoomminus.mouseout"/></use>
    <path d="M-4,0h8" fill="none" stroke="white" stroke-width="1.5" pointer-events="none"/>
  </g>
  <g id="arrowUp" transform="translate(30 24)">
    <use xlink:href="#rim"/>
    <path pointer-events="none" fill="none" stroke="white" stroke-width="1.5" d="M0,-3.0v7 M-2.5,-0.5L0,-3.0L2.5,-0.5"/>
  </g>
  <g id="arrowRight" transform="rotate(90) translate(36 -43)">
    <use xlink:href="#rim"/>
    <path pointer-events="none" fill="none" stroke="white" stroke-width="1.5" d="M0,-3.0v7 M-2.5,-0.5L0,-3.0L2.5,-0.5"/>
  </g>
  <g id="arrowDown" transform="rotate(180) translate(-30 -48)">
    <use xlink:href="#rim"/>
    <path pointer-events="none" fill="none" stroke="white" stroke-width="1.5" d="M0,-3.0v7 M-2.5,-0.5L0,-3.0L2.5,-0.5"/>
  </g>
  <g id="arrowLeft" transform="rotate(270) translate(-36 17)">
    <use xlink:href="#rim"/>
    <path pointer-events="none" fill="none" stroke="white" stroke-width="1.5" d="M0,-3.0v7 M-2.5,-0.5L0,-3.0L2.5,-0.5"/>
  </g>
  <g id="resetDef">
    <use xlink:href="#rim2" fill="#404040"><set attributeName="fill" to="#808080" begin="reset.mouseover" end="reset.mouseout"/></use>
  </g>
</defs>
<script type="application/ecmascript">
var viewWidth = 4525;
var viewHeight = 149;
var sectionId = 'dynsection-0';
</script>
<script type="application/ecmascript" xlink:href="svg.min.js"/>
<svg id="graph" class="graph">
<g id="viewport">
<title>src/source/TMC2160_bitfields.h</title>
<!-- Node1 -->
<g id="Node000001" class="node">
<title>Node1</title>
<g id="a_Node000001"><a xlink:title=" ">
<polygon fill="#999999" stroke="#666666" points="2217.62,-141 2110.12,-141 2110.12,-110.5 2217.62,-110.5 2217.62,-141"/>
<text text-anchor="start" x="2118.12" y="-127.5" font-family="Helvetica,sans-Serif" font-size="10.00">src/source/TMC2160</text>
<text text-anchor="middle" x="2163.88" y="-116.25" font-family="Helvetica,sans-Serif" font-size="10.00">_bitfields.h</text>
</a>
</g>
</g>
<!-- Node2 -->
<g id="Node000002" class="node">
<title>Node2</title>
<g id="a_Node000002"><a xlink:href="_t_m_c_stepper_8h.html" target="_top" xlink:title=" ">
<polygon fill="white" stroke="#666666" points="2211.62,-74.5 2116.12,-74.5 2116.12,-55.25 2211.62,-55.25 2211.62,-74.5"/>
<text text-anchor="middle" x="2163.88" y="-61" font-family="Helvetica,sans-Serif" font-size="10.00">src/TMCStepper.h</text>
</a>
</g>
</g>
<!-- Node1&#45;&gt;Node2 -->
<g id="edge1_Node000001_Node000002" class="edge">
<title>Node1&#45;&gt;Node2</title>
<g id="a_edge1_Node000001_Node000002"><a xlink:title=" ">
<path fill="none" stroke="#63b8ff" d="M2163.88,-98.73C2163.88,-90.23 2163.88,-81.34 2163.88,-74.95"/>
<polygon fill="#63b8ff" stroke="#63b8ff" points="2160.38,-98.68 2163.88,-108.68 2167.38,-98.68 2160.38,-98.68"/>
</a>
</g>
</g>
<!-- Node3 -->
<g id="Node000003" class="node">
<title>Node3</title>
<g id="a_Node000003"><a xlink:href="_c_h_o_p_c_o_n_f_8cpp.html" target="_top" xlink:title=" ">
<polygon fill="white" stroke="#666666" points="139.75,-19.25 0,-19.25 0,0 139.75,0 139.75,-19.25"/>
<text text-anchor="middle" x="69.88" y="-5.75" font-family="Helvetica,sans-Serif" font-size="10.00">src/source/CHOPCONF.cpp</text>
</a>
</g>
</g>
<!-- Node2&#45;&gt;Node3 -->
<g id="edge2_Node000002_Node000003" class="edge">
<title>Node2&#45;&gt;Node3</title>
<g id="a_edge2_Node000002_Node000003"><a xlink:title=" ">
<path fill="none" stroke="#63b8ff" d="M2104.52,-63.26C1814.44,-60.12 543.85,-45.14 148.88,-19.25 145.98,-19.06 143.04,-18.84 140.06,-18.61"/>
<polygon fill="#63b8ff" stroke="#63b8ff" points="2104.47,-66.75 2114.5,-63.36 2104.54,-59.76 2104.47,-66.75"/>
</a>
</g>
</g>
<!-- Node4 -->
<g id="Node000004" class="node">
<title>Node4</title>
<g id="a_Node000004"><a xlink:href="_c_o_o_l_c_o_n_f_8cpp.html" target="_top" xlink:title=" ">
<polygon fill="white" stroke="#666666" points="296,-19.25 157.75,-19.25 157.75,0 296,0 296,-19.25"/>
<text text-anchor="middle" x="226.88" y="-5.75" font-family="Helvetica,sans-Serif" font-size="10.00">src/source/COOLCONF.cpp</text>
</a>
</g>
</g>
<!-- Node2&#45;&gt;Node4 -->
<g id="edge3_Node000002_Node000004" class="edge">
<title>Node2&#45;&gt;Node4</title>
<g id="a_edge3_Node000002_Node000004"><a xlink:title=" ">
<path fill="none" stroke="#63b8ff" d="M2104.19,-64.31C1872.66,-65.6 1011.7,-66.72 304.88,-19.25 302.02,-19.06 299.11,-18.84 296.17,-18.6"/>
<polygon fill="#63b8ff" stroke="#63b8ff" points="2104.2,-67.81 2114.18,-64.25 2104.16,-60.81 2104.2,-67.81"/>
</a>
</g>
</g>
<!-- Node5 -->
<g id="Node000005" class="node">
<title>Node5</title>
<g id="a_Node000005"><a xlink:href="_d_r_v_c_o_n_f_8cpp.html" target="_top" xlink:title=" ">
<polygon fill="white" stroke="#666666" points="446,-19.25 313.75,-19.25 313.75,0 446,0 446,-19.25"/>
<text text-anchor="middle" x="379.88" y="-5.75" font-family="Helvetica,sans-Serif" font-size="10.00">src/source/DRVCONF.cpp</text>
</a>
</g>
</g>
<!-- Node2&#45;&gt;Node5 -->
<g id="edge4_Node000002_Node000005" class="edge">
<title>Node2&#45;&gt;Node5</title>
<g id="a_edge4_Node000002_Node000005"><a xlink:title=" ">
<path fill="none" stroke="#63b8ff" d="M2104.68,-64.22C1885.6,-65.1 1100.23,-64.69 454.88,-19.25 452,-19.05 449.06,-18.82 446.1,-18.56"/>
<polygon fill="#63b8ff" stroke="#63b8ff" points="2104.39,-67.72 2114.37,-64.18 2104.36,-60.72 2104.39,-67.72"/>
</a>
</g>
</g>
<!-- Node6 -->
<g id="Node000006" class="node">
<title>Node6</title>
<g id="a_Node000006"><a xlink:href="_d_r_v_c_t_r_l_8cpp.html" target="_top" xlink:title=" ">
<polygon fill="white" stroke="#666666" points="595.62,-19.25 464.12,-19.25 464.12,0 595.62,0 595.62,-19.25"/>
<text text-anchor="middle" x="529.88" y="-5.75" font-family="Helvetica,sans-Serif" font-size="10.00">src/source/DRVCTRL.cpp</text>
</a>
</g>
</g>
<!-- Node2&#45;&gt;Node6 -->
<g id="edge5_Node000002_Node000006" class="edge">
<title>Node2&#45;&gt;Node6</title>
<g id="a_edge5_Node000002_Node000006"><a xlink:title=" ">
<path fill="none" stroke="#63b8ff" d="M2104.43,-64.01C1897.32,-64.09 1188.35,-61.07 604.88,-19.25 602,-19.04 599.06,-18.81 596.1,-18.55"/>
<polygon fill="#63b8ff" stroke="#63b8ff" points="2104.12,-67.51 2114.12,-64 2104.12,-60.51 2104.12,-67.51"/>
</a>
</g>
</g>
<!-- Node7 -->
<g id="Node000007" class="node">
<title>Node7</title>
<g id="a_Node000007"><a xlink:href="_d_r_v_s_t_a_t_u_s_8cpp.html" target="_top" xlink:title=" ">
<polygon fill="white" stroke="#666666" points="758,-19.25 613.75,-19.25 613.75,0 758,0 758,-19.25"/>
<text text-anchor="middle" x="685.88" y="-5.75" font-family="Helvetica,sans-Serif" font-size="10.00">src/source/DRVSTATUS.cpp</text>
</a>
</g>
</g>
<!-- Node2&#45;&gt;Node7 -->
<g id="edge6_Node000002_Node000007" class="edge">
<title>Node2&#45;&gt;Node7</title>
<g id="a_edge6_Node000002_Node000007"><a xlink:title=" ">
<path fill="none" stroke="#63b8ff" d="M2104.59,-63.55C1911.65,-62.17 1284.34,-55.02 766.88,-19.25 764.05,-19.05 761.18,-18.84 758.28,-18.6"/>
<polygon fill="#63b8ff" stroke="#63b8ff" points="2104.32,-67.05 2114.35,-63.62 2104.37,-60.05 2104.32,-67.05"/>
</a>
</g>
</g>
<!-- Node8 -->
<g id="Node000008" class="node">
<title>Node8</title>
<g id="a_Node000008"><a xlink:href="_d_r_v___c_o_n_f_8cpp.html" target="_top" xlink:title=" ">
<polygon fill="white" stroke="#666666" points="913.62,-19.25 776.12,-19.25 776.12,0 913.62,0 913.62,-19.25"/>
<text text-anchor="middle" x="844.88" y="-5.75" font-family="Helvetica,sans-Serif" font-size="10.00">src/source/DRV_CONF.cpp</text>
</a>
</g>
</g>
<!-- Node2&#45;&gt;Node8 -->
<g id="edge7_Node000002_Node000008" class="edge">
<title>Node2&#45;&gt;Node8</title>
<g id="a_edge7_Node000002_Node000008"><a xlink:title=" ">
<path fill="none" stroke="#63b8ff" d="M2104.4,-63.3C1925.48,-61.24 1376.58,-52.45 922.88,-19.25 919.89,-19.03 916.83,-18.79 913.75,-18.52"/>
<polygon fill="#63b8ff" stroke="#63b8ff" points="2104.34,-66.8 2114.38,-63.41 2104.42,-59.8 2104.34,-66.8"/>
</a>
</g>
</g>
<!-- Node9 -->
<g id="Node000009" class="node">
<title>Node9</title>
<g id="a_Node000009"><a xlink:href="_d_r_v___s_t_a_t_u_s_8cpp.html" target="_top" xlink:title=" ">
<polygon fill="white" stroke="#666666" points="1081.62,-19.25 932.12,-19.25 932.12,0 1081.62,0 1081.62,-19.25"/>
<text text-anchor="middle" x="1006.88" y="-5.75" font-family="Helvetica,sans-Serif" font-size="10.00">src/source/DRV_STATUS.cpp</text>
</a>
</g>
</g>
<!-- Node2&#45;&gt;Node9 -->
<g id="edge8_Node000002_Node000009" class="edge">
<title>Node2&#45;&gt;Node9</title>
<g id="a_edge8_Node000002_Node000009"><a xlink:title=" ">
<path fill="none" stroke="#63b8ff" d="M2104.47,-62.7C1941.91,-59.2 1476.13,-47.32 1089.88,-19.25 1087.27,-19.06 1084.63,-18.86 1081.96,-18.64"/>
<polygon fill="#63b8ff" stroke="#63b8ff" points="2104.06,-66.19 2114.13,-62.9 2104.21,-59.19 2104.06,-66.19"/>
</a>
</g>
</g>
<!-- Node10 -->
<g id="Node000010" class="node">
<title>Node10</title>
<g id="a_Node000010"><a xlink:href="_e_n_c_m_o_d_e_8cpp.html" target="_top" xlink:title=" ">
<polygon fill="white" stroke="#666666" points="1234.5,-19.25 1099.25,-19.25 1099.25,0 1234.5,0 1234.5,-19.25"/>
<text text-anchor="middle" x="1166.88" y="-5.75" font-family="Helvetica,sans-Serif" font-size="10.00">src/source/ENCMODE.cpp</text>
</a>
</g>
</g>
<!-- Node2&#45;&gt;Node10 -->
<g id="edge9_Node000002_Node000010" class="edge">
<title>Node2&#45;&gt;Node10</title>
<g id="a_edge9_Node000002_Node000010"><a xlink:title=" ">
<path fill="none" stroke="#63b8ff" d="M2104.57,-62.3C1958.23,-58.11 1568.23,-45.26 1243.88,-19.25 1240.93,-19.01 1237.91,-18.75 1234.87,-18.48"/>
<polygon fill="#63b8ff" stroke="#63b8ff" points="2104.31,-65.79 2114.41,-62.57 2104.51,-58.79 2104.31,-65.79"/>
</a>
</g>
</g>
<!-- Node11 -->
<g id="Node000011" class="node">
<title>Node11</title>
<g id="a_Node000011"><a xlink:href="_g_c_o_n_f_8cpp.html" target="_top" xlink:title=" ">
<polygon fill="white" stroke="#666666" points="1370.88,-19.25 1252.88,-19.25 1252.88,0 1370.88,0 1370.88,-19.25"/>
<text text-anchor="middle" x="1311.88" y="-5.75" font-family="Helvetica,sans-Serif" font-size="10.00">src/source/GCONF.cpp</text>
</a>
</g>
</g>
<!-- Node2&#45;&gt;Node11 -->
<g id="edge10_Node000002_Node000011" class="edge">
<title>Node2&#45;&gt;Node11</title>
<g id="a_edge10_Node000002_Node000011"><a xlink:title=" ">
<path fill="none" stroke="#63b8ff" d="M2104.75,-61.91C1973.91,-57.25 1650.03,-44.04 1379.88,-19.25 1377.03,-18.99 1374.12,-18.7 1371.19,-18.39"/>
<polygon fill="#63b8ff" stroke="#63b8ff" points="2104.43,-65.4 2114.55,-62.26 2104.68,-58.41 2104.43,-65.4"/>
</a>
</g>
</g>
<!-- Node12 -->
<g id="Node000012" class="node">
<title>Node12</title>
<g id="a_Node000012"><a xlink:href="_g_l_o_b_a_l___s_c_a_l_e_r_8cpp.html" target="_top" xlink:title=" ">
<polygon fill="white" stroke="#666666" points="1557,-19.25 1388.75,-19.25 1388.75,0 1557,0 1557,-19.25"/>
<text text-anchor="middle" x="1472.88" y="-5.75" font-family="Helvetica,sans-Serif" font-size="10.00">src/source/GLOBAL_SCALER.cpp</text>
</a>
</g>
</g>
<!-- Node2&#45;&gt;Node12 -->
<g id="edge11_Node000002_Node000012" class="edge">
<title>Node2&#45;&gt;Node12</title>
<g id="a_edge11_Node000002_Node000012"><a xlink:title=" ">
<path fill="none" stroke="#63b8ff" d="M2104.56,-59.8C1997.1,-52.35 1763.07,-35.75 1565.88,-19.25 1562.97,-19.01 1560.01,-18.75 1557.02,-18.5"/>
<polygon fill="#63b8ff" stroke="#63b8ff" points="2104.07,-63.28 2114.28,-60.48 2104.55,-56.29 2104.07,-63.28"/>
</a>
</g>
</g>
<!-- Node13 -->
<g id="Node000013" class="node">
<title>Node13</title>
<g id="a_Node000013"><a xlink:href="_i_h_o_l_d___i_r_u_n_8cpp.html" target="_top" xlink:title=" ">
<polygon fill="white" stroke="#666666" points="1720.38,-19.25 1575.38,-19.25 1575.38,0 1720.38,0 1720.38,-19.25"/>
<text text-anchor="middle" x="1647.88" y="-5.75" font-family="Helvetica,sans-Serif" font-size="10.00">src/source/IHOLD_IRUN.cpp</text>
</a>
</g>
</g>
<!-- Node2&#45;&gt;Node13 -->
<g id="edge12_Node000002_Node000013" class="edge">
<title>Node2&#45;&gt;Node13</title>
<g id="a_edge12_Node000002_Node000013"><a xlink:title=" ">
<path fill="none" stroke="#63b8ff" d="M2104.4,-57.8C2020.79,-49.26 1863.71,-33.17 1729.88,-19.25 1726.89,-18.94 1723.83,-18.62 1720.75,-18.3"/>
<polygon fill="#63b8ff" stroke="#63b8ff" points="2103.89,-61.27 2114.2,-58.81 2104.61,-54.31 2103.89,-61.27"/>
</a>
</g>
</g>
<!-- Node14 -->
<g id="Node000014" class="node">
<title>Node14</title>
<g id="a_Node000014"><a xlink:href="_i_o_i_n_8cpp.html" target="_top" xlink:title=" ">
<polygon fill="white" stroke="#666666" points="1843.12,-19.25 1738.62,-19.25 1738.62,0 1843.12,0 1843.12,-19.25"/>
<text text-anchor="middle" x="1790.88" y="-5.75" font-family="Helvetica,sans-Serif" font-size="10.00">src/source/IOIN.cpp</text>
</a>
</g>
</g>
<!-- Node2&#45;&gt;Node14 -->
<g id="edge13_Node000002_Node000014" class="edge">
<title>Node2&#45;&gt;Node14</title>
<g id="a_edge13_Node000002_Node000014"><a xlink:title=" ">
<path fill="none" stroke="#63b8ff" d="M2104.76,-55.44C2032.8,-45.16 1912.38,-27.97 1843.49,-18.14"/>
<polygon fill="#63b8ff" stroke="#63b8ff" points="2103.98,-58.86 2114.38,-56.81 2104.97,-51.93 2103.98,-58.86"/>
</a>
</g>
</g>
<!-- Node15 -->
<g id="Node000015" class="node">
<title>Node15</title>
<g id="a_Node000015"><a xlink:href="_p_w_m_c_o_n_f_8cpp.html" target="_top" xlink:title=" ">
<polygon fill="white" stroke="#666666" points="1996.5,-19.25 1861.25,-19.25 1861.25,0 1996.5,0 1996.5,-19.25"/>
<text text-anchor="middle" x="1928.88" y="-5.75" font-family="Helvetica,sans-Serif" font-size="10.00">src/source/PWMCONF.cpp</text>
</a>
</g>
</g>
<!-- Node2&#45;&gt;Node15 -->
<g id="edge14_Node000002_Node000015" class="edge">
<title>Node2&#45;&gt;Node15</title>
<g id="a_edge14_Node000002_Node000015"><a xlink:title=" ">
<path fill="none" stroke="#63b8ff" d="M2112.62,-52.26C2069.42,-42.47 2008.49,-28.67 1968.84,-19.68"/>
<polygon fill="#63b8ff" stroke="#63b8ff" points="2111.74,-55.65 2122.27,-54.45 2113.29,-48.82 2111.74,-55.65"/>
</a>
</g>
</g>
<!-- Node16 -->
<g id="Node000016" class="node">
<title>Node16</title>
<g id="a_Node000016"><a xlink:href="_r_a_m_p___s_t_a_t_8cpp.html" target="_top" xlink:title=" ">
<polygon fill="white" stroke="#666666" points="2155.5,-19.25 2014.25,-19.25 2014.25,0 2155.5,0 2155.5,-19.25"/>
<text text-anchor="middle" x="2084.88" y="-5.75" font-family="Helvetica,sans-Serif" font-size="10.00">src/source/RAMP_STAT.cpp</text>
</a>
</g>
</g>
<!-- Node2&#45;&gt;Node16 -->
<g id="edge15_Node000002_Node000016" class="edge">
<title>Node2&#45;&gt;Node16</title>
<g id="a_edge15_Node000002_Node000016"><a xlink:title=" ">
<path fill="none" stroke="#63b8ff" d="M2141.11,-48.53C2127.27,-39.2 2110.05,-27.6 2098.34,-19.7"/>
<polygon fill="#63b8ff" stroke="#63b8ff" points="2138.97,-51.31 2149.22,-54 2142.88,-45.5 2138.97,-51.31"/>
</a>
</g>
</g>
<!-- Node17 -->
<g id="Node000017" class="node">
<title>Node17</title>
<g id="a_Node000017"><a xlink:href="_s_g_c_s_c_o_n_f_8cpp.html" target="_top" xlink:title=" ">
<polygon fill="white" stroke="#666666" points="2312.38,-19.25 2173.38,-19.25 2173.38,0 2312.38,0 2312.38,-19.25"/>
<text text-anchor="middle" x="2242.88" y="-5.75" font-family="Helvetica,sans-Serif" font-size="10.00">src/source/SGCSCONF.cpp</text>
</a>
</g>
</g>
<!-- Node2&#45;&gt;Node17 -->
<g id="edge16_Node000002_Node000017" class="edge">
<title>Node2&#45;&gt;Node17</title>
<g id="a_edge16_Node000002_Node000017"><a xlink:title=" ">
<path fill="none" stroke="#63b8ff" d="M2186.64,-48.53C2200.48,-39.2 2217.7,-27.6 2229.41,-19.7"/>
<polygon fill="#63b8ff" stroke="#63b8ff" points="2184.87,-45.5 2178.53,-54 2188.78,-51.31 2184.87,-45.5"/>
</a>
</g>
</g>
<!-- Node18 -->
<g id="Node000018" class="node">
<title>Node18</title>
<g id="a_Node000018"><a xlink:href="_s_h_o_r_t___c_o_n_f_8cpp.html" target="_top" xlink:title=" ">
<polygon fill="white" stroke="#666666" points="2481.38,-19.25 2330.38,-19.25 2330.38,0 2481.38,0 2481.38,-19.25"/>
<text text-anchor="middle" x="2405.88" y="-5.75" font-family="Helvetica,sans-Serif" font-size="10.00">src/source/SHORT_CONF.cpp</text>
</a>
</g>
</g>
<!-- Node2&#45;&gt;Node18 -->
<g id="edge17_Node000002_Node000018" class="edge">
<title>Node2&#45;&gt;Node18</title>
<g id="a_edge17_Node000002_Node000018"><a xlink:title=" ">
<path fill="none" stroke="#63b8ff" d="M2216.38,-52.32C2260.87,-42.53 2323.8,-28.69 2364.72,-19.68"/>
<polygon fill="#63b8ff" stroke="#63b8ff" points="2215.69,-48.89 2206.68,-54.46 2217.2,-55.73 2215.69,-48.89"/>
</a>
</g>
</g>
<!-- Node19 -->
<g id="Node000019" class="node">
<title>Node19</title>
<g id="a_Node000019"><a xlink:href="_s_l_a_v_e_c_o_n_f_8cpp.html" target="_top" xlink:title=" ">
<polygon fill="white" stroke="#666666" points="2640.5,-19.25 2499.25,-19.25 2499.25,0 2640.5,0 2640.5,-19.25"/>
<text text-anchor="middle" x="2569.88" y="-5.75" font-family="Helvetica,sans-Serif" font-size="10.00">src/source/SLAVECONF.cpp</text>
</a>
</g>
</g>
<!-- Node2&#45;&gt;Node19 -->
<g id="edge18_Node000002_Node000019" class="edge">
<title>Node2&#45;&gt;Node19</title>
<g id="a_edge18_Node000002_Node000019"><a xlink:title=" ">
<path fill="none" stroke="#63b8ff" d="M2223.41,-56.07C2297.11,-46.4 2422.39,-29.97 2500.4,-19.74"/>
<polygon fill="#63b8ff" stroke="#63b8ff" points="2223,-52.59 2213.54,-57.36 2223.91,-59.53 2223,-52.59"/>
</a>
</g>
</g>
<!-- Node20 -->
<g id="Node000020" class="node">
<title>Node20</title>
<g id="a_Node000020"><a xlink:href="_s_m_a_r_t_e_n_8cpp.html" target="_top" xlink:title=" ">
<polygon fill="white" stroke="#666666" points="2791.38,-19.25 2658.38,-19.25 2658.38,0 2791.38,0 2791.38,-19.25"/>
<text text-anchor="middle" x="2724.88" y="-5.75" font-family="Helvetica,sans-Serif" font-size="10.00">src/source/SMARTEN.cpp</text>
</a>
</g>
</g>
<!-- Node2&#45;&gt;Node20 -->
<g id="edge19_Node000002_Node000020" class="edge">
<title>Node2&#45;&gt;Node20</title>
<g id="a_edge19_Node000002_Node000020"><a xlink:title=" ">
<path fill="none" stroke="#63b8ff" d="M2223.1,-58.88C2314.67,-51.05 2496.11,-35.15 2649.88,-19.25 2652.61,-18.97 2655.41,-18.67 2658.23,-18.37"/>
<polygon fill="#63b8ff" stroke="#63b8ff" points="2223.03,-55.37 2213.36,-59.71 2223.62,-62.35 2223.03,-55.37"/>
</a>
</g>
</g>
<!-- Node21 -->
<g id="Node000021" class="node">
<title>Node21</title>
<g id="a_Node000021"><a xlink:href="_s_w___m_o_d_e_8cpp.html" target="_top" xlink:title=" ">
<polygon fill="white" stroke="#666666" points="2944.5,-19.25 2809.25,-19.25 2809.25,0 2944.5,0 2944.5,-19.25"/>
<text text-anchor="middle" x="2876.88" y="-5.75" font-family="Helvetica,sans-Serif" font-size="10.00">src/source/SW_MODE.cpp</text>
</a>
</g>
</g>
<!-- Node2&#45;&gt;Node21 -->
<g id="edge20_Node000002_Node000021" class="edge">
<title>Node2&#45;&gt;Node21</title>
<g id="a_edge20_Node000002_Node000021"><a xlink:title=" ">
<path fill="none" stroke="#63b8ff" d="M2223.31,-60.57C2336.06,-54.1 2588.69,-38.71 2800.88,-19.25 2803.52,-19.01 2806.22,-18.75 2808.94,-18.48"/>
<polygon fill="#63b8ff" stroke="#63b8ff" points="2223.17,-57.07 2213.39,-61.13 2223.57,-64.06 2223.17,-57.07"/>
</a>
</g>
</g>
<!-- Node22 -->
<g id="Node000022" class="node">
<title>Node22</title>
<g id="a_Node000022"><a xlink:href="_t_m_c2130_stepper_8cpp.html" target="_top" xlink:title=" ">
<polygon fill="white" stroke="#666666" points="3121.5,-19.25 2962.25,-19.25 2962.25,0 3121.5,0 3121.5,-19.25"/>
<text text-anchor="middle" x="3041.88" y="-5.75" font-family="Helvetica,sans-Serif" font-size="10.00">src/source/TMC2130Stepper.cpp</text>
</a>
</g>
</g>
<!-- Node2&#45;&gt;Node22 -->
<g id="edge21_Node000002_Node000022" class="edge">
<title>Node2&#45;&gt;Node22</title>
<g id="a_edge21_Node000002_Node000022"><a xlink:title=" ">
<path fill="none" stroke="#63b8ff" d="M2223.4,-61.35C2355.15,-55.59 2681.33,-40.3 2953.88,-19.25 2956.48,-19.05 2959.12,-18.84 2961.79,-18.62"/>
<polygon fill="#63b8ff" stroke="#63b8ff" points="2223.36,-57.85 2213.53,-61.78 2223.67,-64.84 2223.36,-57.85"/>
</a>
</g>
</g>
<!-- Node23 -->
<g id="Node000023" class="node">
<title>Node23</title>
<g id="a_Node000023"><a xlink:href="_t_m_c2160_stepper_8cpp.html" target="_top" xlink:title=" ">
<polygon fill="white" stroke="#666666" points="3298.5,-19.25 3139.25,-19.25 3139.25,0 3298.5,0 3298.5,-19.25"/>
<text text-anchor="middle" x="3218.88" y="-5.75" font-family="Helvetica,sans-Serif" font-size="10.00">src/source/TMC2160Stepper.cpp</text>
</a>
</g>
</g>
<!-- Node2&#45;&gt;Node23 -->
<g id="edge22_Node000002_Node000023" class="edge">
<title>Node2&#45;&gt;Node23</title>
<g id="a_edge22_Node000002_Node000023"><a xlink:title=" ">
<path fill="none" stroke="#63b8ff" d="M2223.27,-62.2C2374.72,-57.7 2787.59,-43.98 3130.88,-19.25 3133.48,-19.06 3136.12,-18.86 3138.79,-18.65"/>
<polygon fill="#63b8ff" stroke="#63b8ff" points="2223.38,-58.7 2213.48,-62.49 2223.58,-65.69 2223.38,-58.7"/>
</a>
</g>
</g>
<!-- Node24 -->
<g id="Node000024" class="node">
<title>Node24</title>
<g id="a_Node000024"><a xlink:href="_t_m_c2208_stepper_8cpp.html" target="_top" xlink:title=" ">
<polygon fill="white" stroke="#666666" points="3475.5,-19.25 3316.25,-19.25 3316.25,0 3475.5,0 3475.5,-19.25"/>
<text text-anchor="middle" x="3395.88" y="-5.75" font-family="Helvetica,sans-Serif" font-size="10.00">src/source/TMC2208Stepper.cpp</text>
</a>
</g>
</g>
<!-- Node2&#45;&gt;Node24 -->
<g id="edge23_Node000002_Node000024" class="edge">
<title>Node2&#45;&gt;Node24</title>
<g id="a_edge23_Node000002_Node000024"><a xlink:title=" ">
<path fill="none" stroke="#63b8ff" d="M2223.27,-62.79C2392.77,-59.42 2893.26,-47.63 3307.88,-19.25 3310.48,-19.07 3313.12,-18.88 3315.8,-18.67"/>
<polygon fill="#63b8ff" stroke="#63b8ff" points="2223.32,-59.29 2213.4,-62.98 2223.46,-66.28 2223.32,-59.29"/>
</a>
</g>
</g>
<!-- Node25 -->
<g id="Node000025" class="node">
<title>Node25</title>
<g id="a_Node000025"><a xlink:href="_t_m_c2209_stepper_8cpp.html" target="_top" xlink:title=" ">
<polygon fill="white" stroke="#666666" points="3652.5,-19.25 3493.25,-19.25 3493.25,0 3652.5,0 3652.5,-19.25"/>
<text text-anchor="middle" x="3572.88" y="-5.75" font-family="Helvetica,sans-Serif" font-size="10.00">src/source/TMC2209Stepper.cpp</text>
</a>
</g>
</g>
<!-- Node2&#45;&gt;Node25 -->
<g id="edge24_Node000002_Node000025" class="edge">
<title>Node2&#45;&gt;Node25</title>
<g id="a_edge24_Node000002_Node000025"><a xlink:title=" ">
<path fill="none" stroke="#63b8ff" d="M2223.34,-63.22C2409.62,-60.88 2998.43,-51.27 3484.88,-19.25 3487.48,-19.08 3490.13,-18.89 3492.8,-18.69"/>
<polygon fill="#63b8ff" stroke="#63b8ff" points="2223.38,-59.72 2213.43,-63.34 2223.47,-66.72 2223.38,-59.72"/>
</a>
</g>
</g>
<!-- Node26 -->
<g id="Node000026" class="node">
<title>Node26</title>
<g id="a_Node000026"><a xlink:href="_t_m_c2240_stepper_8cpp.html" target="_top" xlink:title=" ">
<polygon fill="white" stroke="#666666" points="3829.5,-19.25 3670.25,-19.25 3670.25,0 3829.5,0 3829.5,-19.25"/>
<text text-anchor="middle" x="3749.88" y="-5.75" font-family="Helvetica,sans-Serif" font-size="10.00">src/source/TMC2240Stepper.cpp</text>
</a>
</g>
</g>
<!-- Node2&#45;&gt;Node26 -->
<g id="edge25_Node000002_Node000026" class="edge">
<title>Node2&#45;&gt;Node26</title>
<g id="a_edge25_Node000002_Node000026"><a xlink:title=" ">
<path fill="none" stroke="#63b8ff" d="M2223.32,-63.55C2425.22,-62.15 3103.1,-54.91 3661.88,-19.25 3664.48,-19.08 3667.13,-18.9 3669.8,-18.71"/>
<polygon fill="#63b8ff" stroke="#63b8ff" points="2223.6,-60.05 2213.62,-63.62 2223.64,-67.05 2223.6,-60.05"/>
</a>
</g>
</g>
<!-- Node27 -->
<g id="Node000027" class="node">
<title>Node27</title>
<g id="a_Node000027"><a xlink:href="_t_m_c2660_stepper_8cpp.html" target="_top" xlink:title=" ">
<polygon fill="white" stroke="#666666" points="4006.5,-19.25 3847.25,-19.25 3847.25,0 4006.5,0 4006.5,-19.25"/>
<text text-anchor="middle" x="3926.88" y="-5.75" font-family="Helvetica,sans-Serif" font-size="10.00">src/source/TMC2660Stepper.cpp</text>
</a>
</g>
</g>
<!-- Node2&#45;&gt;Node27 -->
<g id="edge26_Node000002_Node000027" class="edge">
<title>Node2&#45;&gt;Node27</title>
<g id="a_edge26_Node000002_Node000027"><a xlink:title=" ">
<path fill="none" stroke="#63b8ff" d="M2223.29,-63.82C2439.87,-63.29 3207.39,-58.56 3838.88,-19.25 3841.48,-19.09 3844.13,-18.91 3846.8,-18.72"/>
<polygon fill="#63b8ff" stroke="#63b8ff" points="2223.4,-60.32 2213.41,-63.84 2223.42,-67.32 2223.4,-60.32"/>
</a>
</g>
</g>
<!-- Node28 -->
<g id="Node000028" class="node">
<title>Node28</title>
<g id="a_Node000028"><a xlink:href="_t_m_c5130_stepper_8cpp.html" target="_top" xlink:title=" ">
<polygon fill="white" stroke="#666666" points="4183.5,-19.25 4024.25,-19.25 4024.25,0 4183.5,0 4183.5,-19.25"/>
<text text-anchor="middle" x="4103.88" y="-5.75" font-family="Helvetica,sans-Serif" font-size="10.00">src/source/TMC5130Stepper.cpp</text>
</a>
</g>
</g>
<!-- Node2&#45;&gt;Node28 -->
<g id="edge27_Node000002_Node000028" class="edge">
<title>Node2&#45;&gt;Node28</title>
<g id="a_edge27_Node000002_Node000028"><a xlink:title=" ">
<path fill="none" stroke="#63b8ff" d="M2223.32,-64.03C2453.91,-64.31 3311.43,-62.2 4015.88,-19.25 4018.48,-19.09 4021.13,-18.92 4023.8,-18.73"/>
<polygon fill="#63b8ff" stroke="#63b8ff" points="2223.38,-60.53 2213.38,-64.02 2223.37,-67.53 2223.38,-60.53"/>
</a>
</g>
</g>
<!-- Node29 -->
<g id="Node000029" class="node">
<title>Node29</title>
<g id="a_Node000029"><a xlink:href="_t_m_c5160_stepper_8cpp.html" target="_top" xlink:title=" ">
<polygon fill="white" stroke="#666666" points="4360.5,-19.25 4201.25,-19.25 4201.25,0 4360.5,0 4360.5,-19.25"/>
<text text-anchor="middle" x="4280.88" y="-5.75" font-family="Helvetica,sans-Serif" font-size="10.00">src/source/TMC5160Stepper.cpp</text>
</a>
</g>
</g>
<!-- Node2&#45;&gt;Node29 -->
<g id="edge28_Node000002_Node000029" class="edge">
<title>Node2&#45;&gt;Node29</title>
<g id="a_edge28_Node000002_Node000029"><a xlink:title=" ">
<path fill="none" stroke="#63b8ff" d="M2223.27,-64.21C2467.11,-65.24 3415.14,-65.85 4192.88,-19.25 4195.48,-19.09 4198.13,-18.92 4200.8,-18.73"/>
<polygon fill="#63b8ff" stroke="#63b8ff" points="2223.39,-60.71 2213.37,-64.17 2223.36,-67.71 2223.39,-60.71"/>
</a>
</g>
</g>
<!-- Node30 -->
<g id="Node000030" class="node">
<title>Node30</title>
<g id="a_Node000030"><a xlink:href="_t_m_c_stepper_8cpp.html" target="_top" xlink:title=" ">
<polygon fill="white" stroke="#666666" points="4517,-19.25 4378.75,-19.25 4378.75,0 4517,0 4517,-19.25"/>
<text text-anchor="middle" x="4447.88" y="-5.75" font-family="Helvetica,sans-Serif" font-size="10.00">src/source/TMCStepper.cpp</text>
</a>
</g>
</g>
<!-- Node2&#45;&gt;Node30 -->
<g id="edge29_Node000002_Node000030" class="edge">
<title>Node2&#45;&gt;Node30</title>
<g id="a_edge29_Node000002_Node000030"><a xlink:title=" ">
<path fill="none" stroke="#63b8ff" d="M2223.35,-63.4C2529.99,-60.82 3934.92,-47.64 4369.88,-19.25 4372.73,-19.06 4375.64,-18.85 4378.58,-18.61"/>
<polygon fill="#63b8ff" stroke="#63b8ff" points="2223.55,-59.89 2213.58,-63.48 2223.61,-66.89 2223.55,-59.89"/>
</a>
</g>
</g>
</g>
</svg>

<g id="navigator" transform="translate(0 0)" fill="#404254">
  <rect fill="#f2f5e9" fill-opacity="0.5" stroke="#606060" stroke-width=".5" x="0" y="0" width="60" height="60"/>
  <use id="zoomplus" xlink:href="#zoomPlus" x="17" y="9" onmousedown="handleZoom(evt,'in')"/>
  <use id="zoomminus" xlink:href="#zoomMin" x="42" y="9" onmousedown="handleZoom(evt,'out')"/>
  <use id="reset" xlink:href="#resetDef" x="30" y="36" onmousedown="handleReset()"/>
   <use id="arrowup" xlink:href="#arrowUp" x="0" y="0" onmousedown="handlePan(0,-1)"/>
  <use id="arrowright" xlink:href="#arrowRight" x="0" y="0" onmousedown="handlePan(1,0)"/>
  <use id="arrowdown" xlink:href="#arrowDown" x="0" y="0" onmousedown="handlePan(0,1)"/>
  <use id="arrowleft" xlink:href="#arrowLeft" x="0" y="0" onmousedown="handlePan(-1,0)"/>
</g>
<svg viewBox="0 0 15 15" width="100%" height="30px" preserveAspectRatio="xMaxYMin meet">
 <g id="arrow_out" transform="scale(0.3 0.3)">
  <a xlink:href="_t_m_c2160__bitfields_8h__dep__incl_org.svg" target="_base">
   <rect id="button" ry="5" rx="5" y="6" x="6" height="38" width="38"
        fill="#f2f5e9" fill-opacity="0.5" stroke="#606060" stroke-width="1.0"/>
   <path id="arrow"
     d="M 11.500037,31.436501 C 11.940474,20.09759 22.043105,11.32322 32.158766,21.979434 L 37.068811,17.246167 C 37.068811,17.246167 37.088388,32 37.088388,32 L 22.160133,31.978069 C 22.160133,31.978069 26.997745,27.140456 26.997745,27.140456 C 18.528582,18.264221 13.291696,25.230495 11.500037,31.436501 z"
     style="fill:#404040;"/>
  </a>
 </g>
</svg>

<style type='text/css'>
<![CDATA[
[data-mouse-over-selected='false'] { opacity: 0.7; }
[data-mouse-over-selected='true']  { opacity: 1.0; }
]]>
</style>
<script type="application/ecmascript"><![CDATA[
document.addEventListener('DOMContentLoaded', (event) => {
  highlightEdges();
  highlightAdjacentNodes();
});
]]></script>
</svg>
