<?xml version="1.0" encoding="UTF-8" standalone="no"?>
<!DOCTYPE svg PUBLIC "-//W3C//DTD SVG 1.1//EN"
 "http://www.w3.org/Graphics/SVG/1.1/DTD/svg11.dtd">
<!-- Generated by graphviz version 12.2.1 (20241206.2353)
 -->
<!-- Title: src/TMCStepper.h Pages: 1 -->
<svg width="3010pt" height="138pt"
 viewBox="0.00 0.00 3010.25 137.75" xmlns="http://www.w3.org/2000/svg" xmlns:xlink="http://www.w3.org/1999/xlink">
<g id="graph0" class="graph" transform="scale(1 1) rotate(0) translate(4 133.75)">
<title>src/TMCStepper.h</title>
<!-- Node1 -->
<g id="Node000001" class="node">
<title>Node1</title>
<g id="a_Node000001"><a xlink:title=" ">
<polygon fill="#999999" stroke="#666666" points="1555.88,-129.75 1460.38,-129.75 1460.38,-110.5 1555.88,-110.5 1555.88,-129.75"/>
<text text-anchor="middle" x="1508.12" y="-116.25" font-family="Helvetica,sans-Serif" font-size="10.00">src/TMCStepper.h</text>
</a>
</g>
</g>
<!-- Node2 -->
<g id="Node000002" class="node">
<title>Node2</title>
<g id="a_Node000002"><a xlink:href="_s_e_r_i_a_l___s_w_i_t_c_h_8h.html" target="_top" xlink:title=" ">
<polygon fill="white" stroke="#666666" points="138.25,-74.5 0,-74.5 0,-55.25 138.25,-55.25 138.25,-74.5"/>
<text text-anchor="middle" x="69.12" y="-61" font-family="Helvetica,sans-Serif" font-size="10.00">source/SERIAL_SWITCH.h</text>
</a>
</g>
</g>
<!-- Node1&#45;&gt;Node2 -->
<g id="edge1_Node000001_Node000002" class="edge">
<title>Node1&#45;&gt;Node2</title>
<g id="a_edge1_Node000001_Node000002"><a xlink:title=" ">
<path fill="none" stroke="#63b8ff" d="M1460.18,-118.87C1285.94,-117.66 669.76,-110.95 149.57,-74.53"/>
<polygon fill="#63b8ff" stroke="#63b8ff" points="150.19,-71.06 139.97,-73.85 149.7,-78.05 150.19,-71.06"/>
</a>
</g>
</g>
<!-- Node4 -->
<g id="Node000004" class="node">
<title>Node4</title>
<g id="a_Node000004"><a xlink:href="_s_w___s_p_i_8h.html" target="_top" xlink:title=" ">
<polygon fill="white" stroke="#666666" points="251.5,-74.5 156.75,-74.5 156.75,-55.25 251.5,-55.25 251.5,-74.5"/>
<text text-anchor="middle" x="204.12" y="-61" font-family="Helvetica,sans-Serif" font-size="10.00">source/SW_SPI.h</text>
</a>
</g>
</g>
<!-- Node1&#45;&gt;Node4 -->
<g id="edge3_Node000001_Node000004" class="edge">
<title>Node1&#45;&gt;Node4</title>
<g id="a_edge3_Node000001_Node000004"><a xlink:title=" ">
<path fill="none" stroke="#63b8ff" d="M1460.14,-119.38C1295.12,-119.84 735.59,-117.95 263.11,-74.55"/>
<polygon fill="#63b8ff" stroke="#63b8ff" points="263.76,-71.1 253.48,-73.66 263.11,-78.07 263.76,-71.1"/>
</a>
</g>
</g>
<!-- Node5 -->
<g id="Node000005" class="node">
<title>Node5</title>
<g id="a_Node000005"><a xlink:href="_t_m_c2130__bitfields_8h.html" target="_top" xlink:title=" ">
<polygon fill="white" stroke="#666666" points="408.25,-74.5 270,-74.5 270,-55.25 408.25,-55.25 408.25,-74.5"/>
<text text-anchor="middle" x="339.12" y="-61" font-family="Helvetica,sans-Serif" font-size="10.00">source/TMC2130_bitfields.h</text>
</a>
</g>
</g>
<!-- Node1&#45;&gt;Node5 -->
<g id="edge5_Node000001_Node000005" class="edge">
<title>Node1&#45;&gt;Node5</title>
<g id="a_edge5_Node000001_Node000005"><a xlink:title=" ">
<path fill="none" stroke="#63b8ff" d="M1459.93,-118.34C1308.5,-115.64 828.54,-105.14 419.89,-74.65"/>
<polygon fill="#63b8ff" stroke="#63b8ff" points="420.17,-71.16 409.93,-73.9 419.64,-78.14 420.17,-71.16"/>
</a>
</g>
</g>
<!-- Node6 -->
<g id="Node000006" class="node">
<title>Node6</title>
<g id="a_Node000006"><a xlink:href="_t_m_c2160__bitfields_8h.html" target="_top" xlink:title=" ">
<polygon fill="white" stroke="#666666" points="564.25,-74.5 426,-74.5 426,-55.25 564.25,-55.25 564.25,-74.5"/>
<text text-anchor="middle" x="495.12" y="-61" font-family="Helvetica,sans-Serif" font-size="10.00">source/TMC2160_bitfields.h</text>
</a>
</g>
</g>
<!-- Node1&#45;&gt;Node6 -->
<g id="edge6_Node000001_Node000006" class="edge">
<title>Node1&#45;&gt;Node6</title>
<g id="a_edge6_Node000001_Node000006"><a xlink:title=" ">
<path fill="none" stroke="#63b8ff" d="M1459.89,-117.89C1323.11,-114.15 920.89,-101.58 575.65,-74.65"/>
<polygon fill="#63b8ff" stroke="#63b8ff" points="576.18,-71.18 565.94,-73.88 575.63,-78.16 576.18,-71.18"/>
</a>
</g>
</g>
<!-- Node7 -->
<g id="Node000007" class="node">
<title>Node7</title>
<g id="a_Node000007"><a xlink:href="_t_m_c5130__bitfields_8h.html" target="_top" xlink:title=" ">
<polygon fill="white" stroke="#666666" points="720.25,-74.5 582,-74.5 582,-55.25 720.25,-55.25 720.25,-74.5"/>
<text text-anchor="middle" x="651.12" y="-61" font-family="Helvetica,sans-Serif" font-size="10.00">source/TMC5130_bitfields.h</text>
</a>
</g>
</g>
<!-- Node1&#45;&gt;Node7 -->
<g id="edge7_Node000001_Node000007" class="edge">
<title>Node1&#45;&gt;Node7</title>
<g id="a_edge7_Node000001_Node000007"><a xlink:title=" ">
<path fill="none" stroke="#63b8ff" d="M1460.19,-117.26C1339.72,-112.39 1014.25,-98.07 731.73,-74.67"/>
<polygon fill="#63b8ff" stroke="#63b8ff" points="732.19,-71.2 721.94,-73.86 731.61,-78.18 732.19,-71.2"/>
</a>
</g>
</g>
<!-- Node8 -->
<g id="Node000008" class="node">
<title>Node8</title>
<g id="a_Node000008"><a xlink:href="_t_m_c5160__bitfields_8h.html" target="_top" xlink:title=" ">
<polygon fill="white" stroke="#666666" points="876.25,-74.5 738,-74.5 738,-55.25 876.25,-55.25 876.25,-74.5"/>
<text text-anchor="middle" x="807.12" y="-61" font-family="Helvetica,sans-Serif" font-size="10.00">source/TMC5160_bitfields.h</text>
</a>
</g>
</g>
<!-- Node1&#45;&gt;Node8 -->
<g id="edge8_Node000001_Node000008" class="edge">
<title>Node1&#45;&gt;Node8</title>
<g id="a_edge8_Node000001_Node000008"><a xlink:title=" ">
<path fill="none" stroke="#63b8ff" d="M1460,-116.31C1357.13,-110.17 1107.93,-94.54 887.88,-74.72"/>
<polygon fill="#63b8ff" stroke="#63b8ff" points="888.22,-71.23 877.94,-73.82 887.58,-78.2 888.22,-71.23"/>
</a>
</g>
</g>
<!-- Node9 -->
<g id="Node000009" class="node">
<title>Node9</title>
<g id="a_Node000009"><a xlink:href="_t_m_c2208__bitfields_8h.html" target="_top" xlink:title=" ">
<polygon fill="white" stroke="#666666" points="1032.25,-74.5 894,-74.5 894,-55.25 1032.25,-55.25 1032.25,-74.5"/>
<text text-anchor="middle" x="963.12" y="-61" font-family="Helvetica,sans-Serif" font-size="10.00">source/TMC2208_bitfields.h</text>
</a>
</g>
</g>
<!-- Node1&#45;&gt;Node9 -->
<g id="edge9_Node000001_Node000009" class="edge">
<title>Node1&#45;&gt;Node9</title>
<g id="a_edge9_Node000001_Node000009"><a xlink:title=" ">
<path fill="none" stroke="#63b8ff" d="M1460.03,-114.77C1377.32,-107.22 1202.49,-91.04 1043.84,-74.77"/>
<polygon fill="#63b8ff" stroke="#63b8ff" points="1044.25,-71.29 1033.95,-73.75 1043.54,-78.25 1044.25,-71.29"/>
</a>
</g>
</g>
<!-- Node10 -->
<g id="Node000010" class="node">
<title>Node10</title>
<g id="a_Node000010"><a xlink:href="_t_m_c2209__bitfields_8h.html" target="_top" xlink:title=" ">
<polygon fill="white" stroke="#666666" points="1188.25,-74.5 1050,-74.5 1050,-55.25 1188.25,-55.25 1188.25,-74.5"/>
<text text-anchor="middle" x="1119.12" y="-61" font-family="Helvetica,sans-Serif" font-size="10.00">source/TMC2209_bitfields.h</text>
</a>
</g>
</g>
<!-- Node1&#45;&gt;Node10 -->
<g id="edge10_Node000001_Node000010" class="edge">
<title>Node1&#45;&gt;Node10</title>
<g id="a_edge10_Node000001_Node000010"><a xlink:title=" ">
<path fill="none" stroke="#63b8ff" d="M1460.04,-112.54C1394.26,-103.54 1275.45,-87.27 1196.92,-76.52"/>
<polygon fill="#63b8ff" stroke="#63b8ff" points="1197.52,-73.07 1187.14,-75.19 1196.57,-80.01 1197.52,-73.07"/>
</a>
</g>
</g>
<!-- Node11 -->
<g id="Node000011" class="node">
<title>Node11</title>
<g id="a_Node000011"><a xlink:href="_t_m_c2240__bitfields_8h.html" target="_top" xlink:title=" ">
<polygon fill="white" stroke="#666666" points="1344.25,-74.5 1206,-74.5 1206,-55.25 1344.25,-55.25 1344.25,-74.5"/>
<text text-anchor="middle" x="1275.12" y="-61" font-family="Helvetica,sans-Serif" font-size="10.00">source/TMC2240_bitfields.h</text>
</a>
</g>
</g>
<!-- Node1&#45;&gt;Node11 -->
<g id="edge11_Node000001_Node000011" class="edge">
<title>Node1&#45;&gt;Node11</title>
<g id="a_edge11_Node000001_Node000011"><a xlink:title=" ">
<path fill="none" stroke="#63b8ff" d="M1468.34,-110.03C1428.96,-101.03 1368.54,-87.23 1325.77,-77.45"/>
<polygon fill="#63b8ff" stroke="#63b8ff" points="1326.75,-74.08 1316.23,-75.27 1325.19,-80.91 1326.75,-74.08"/>
</a>
</g>
</g>
<!-- Node12 -->
<g id="Node000012" class="node">
<title>Node12</title>
<g id="a_Node000012"><a xlink:href="_t_m_c2660__bitfields_8h.html" target="_top" xlink:title=" ">
<polygon fill="white" stroke="#666666" points="1500.25,-74.5 1362,-74.5 1362,-55.25 1500.25,-55.25 1500.25,-74.5"/>
<text text-anchor="middle" x="1431.12" y="-61" font-family="Helvetica,sans-Serif" font-size="10.00">source/TMC2660_bitfields.h</text>
</a>
</g>
</g>
<!-- Node1&#45;&gt;Node12 -->
<g id="edge12_Node000001_Node000012" class="edge">
<title>Node1&#45;&gt;Node12</title>
<g id="a_edge12_Node000001_Node000012"><a xlink:title=" ">
<path fill="none" stroke="#63b8ff" d="M1495.06,-110.09C1483.67,-102.21 1466.9,-90.61 1453.39,-81.27"/>
<polygon fill="#63b8ff" stroke="#63b8ff" points="1455.71,-78.62 1445.5,-75.81 1451.73,-84.38 1455.71,-78.62"/>
</a>
</g>
</g>
<!-- Node13 -->
<g id="Node000013" class="node">
<title>Node13</title>
<g id="a_Node000013"><a xlink:href="_t_m_c_stepper_base_8h.html" target="_top" xlink:title=" ">
<polygon fill="white" stroke="#666666" points="1652.38,-74.5 1517.88,-74.5 1517.88,-55.25 1652.38,-55.25 1652.38,-74.5"/>
<text text-anchor="middle" x="1585.12" y="-61" font-family="Helvetica,sans-Serif" font-size="10.00">source/TMCStepperBase.h</text>
</a>
</g>
</g>
<!-- Node1&#45;&gt;Node13 -->
<g id="edge13_Node000001_Node000013" class="edge">
<title>Node1&#45;&gt;Node13</title>
<g id="a_edge13_Node000001_Node000013"><a xlink:title=" ">
<path fill="none" stroke="#63b8ff" d="M1521.19,-110.09C1532.58,-102.21 1549.35,-90.61 1562.86,-81.27"/>
<polygon fill="#63b8ff" stroke="#63b8ff" points="1564.52,-84.38 1570.75,-75.81 1560.54,-78.62 1564.52,-84.38"/>
</a>
</g>
</g>
<!-- Node14 -->
<g id="Node000014" class="node">
<title>Node14</title>
<g id="a_Node000014"><a xlink:href="_t_m_c2130_stepper_8h.html" target="_top" xlink:title=" ">
<polygon fill="white" stroke="#666666" points="1802.25,-74.5 1670,-74.5 1670,-55.25 1802.25,-55.25 1802.25,-74.5"/>
<text text-anchor="middle" x="1736.12" y="-61" font-family="Helvetica,sans-Serif" font-size="10.00">source/TMC2130Stepper.h</text>
</a>
</g>
</g>
<!-- Node1&#45;&gt;Node14 -->
<g id="edge14_Node000001_Node000014" class="edge">
<title>Node1&#45;&gt;Node14</title>
<g id="a_edge14_Node000001_Node000014"><a xlink:title=" ">
<path fill="none" stroke="#63b8ff" d="M1547.06,-110.03C1585.51,-101.05 1644.46,-87.28 1686.3,-77.51"/>
<polygon fill="#63b8ff" stroke="#63b8ff" points="1686.93,-80.96 1695.88,-75.28 1685.34,-74.14 1686.93,-80.96"/>
</a>
</g>
</g>
<!-- Node15 -->
<g id="Node000015" class="node">
<title>Node15</title>
<g id="a_Node000015"><a xlink:href="_t_m_c2160_stepper_8h.html" target="_top" xlink:title=" ">
<polygon fill="white" stroke="#666666" points="1952.25,-74.5 1820,-74.5 1820,-55.25 1952.25,-55.25 1952.25,-74.5"/>
<text text-anchor="middle" x="1886.12" y="-61" font-family="Helvetica,sans-Serif" font-size="10.00">source/TMC2160Stepper.h</text>
</a>
</g>
</g>
<!-- Node1&#45;&gt;Node15 -->
<g id="edge15_Node000001_Node000015" class="edge">
<title>Node1&#45;&gt;Node15</title>
<g id="a_edge15_Node000001_Node000015"><a xlink:title=" ">
<path fill="none" stroke="#63b8ff" d="M1556,-112.38C1620.06,-103.36 1734.37,-87.25 1810.22,-76.57"/>
<polygon fill="#63b8ff" stroke="#63b8ff" points="1810.68,-80.04 1820.09,-75.18 1809.7,-73.11 1810.68,-80.04"/>
</a>
</g>
</g>
<!-- Node16 -->
<g id="Node000016" class="node">
<title>Node16</title>
<g id="a_Node000016"><a xlink:href="_t_m_c5130_stepper_8h.html" target="_top" xlink:title=" ">
<polygon fill="white" stroke="#666666" points="2102.25,-74.5 1970,-74.5 1970,-55.25 2102.25,-55.25 2102.25,-74.5"/>
<text text-anchor="middle" x="2036.12" y="-61" font-family="Helvetica,sans-Serif" font-size="10.00">source/TMC5130Stepper.h</text>
</a>
</g>
</g>
<!-- Node1&#45;&gt;Node16 -->
<g id="edge16_Node000001_Node000016" class="edge">
<title>Node1&#45;&gt;Node16</title>
<g id="a_edge16_Node000001_Node000016"><a xlink:title=" ">
<path fill="none" stroke="#63b8ff" d="M1556.09,-114.66C1636.86,-107.08 1805.45,-91.02 1958.86,-74.73"/>
<polygon fill="#63b8ff" stroke="#63b8ff" points="1958.8,-78.25 1968.37,-73.71 1958.06,-71.29 1958.8,-78.25"/>
</a>
</g>
</g>
<!-- Node17 -->
<g id="Node000017" class="node">
<title>Node17</title>
<g id="a_Node000017"><a xlink:href="_t_m_c5160_stepper_8h.html" target="_top" xlink:title=" ">
<polygon fill="white" stroke="#666666" points="2252.25,-74.5 2120,-74.5 2120,-55.25 2252.25,-55.25 2252.25,-74.5"/>
<text text-anchor="middle" x="2186.12" y="-61" font-family="Helvetica,sans-Serif" font-size="10.00">source/TMC5160Stepper.h</text>
</a>
</g>
</g>
<!-- Node1&#45;&gt;Node17 -->
<g id="edge17_Node000001_Node000017" class="edge">
<title>Node1&#45;&gt;Node17</title>
<g id="a_edge17_Node000001_Node000017"><a xlink:title=" ">
<path fill="none" stroke="#63b8ff" d="M1556.25,-116.23C1656.72,-110.04 1896.36,-94.53 2108.53,-74.71"/>
<polygon fill="#63b8ff" stroke="#63b8ff" points="2108.75,-78.2 2118.38,-73.78 2108.1,-71.23 2108.75,-78.2"/>
</a>
</g>
</g>
<!-- Node18 -->
<g id="Node000018" class="node">
<title>Node18</title>
<g id="a_Node000018"><a xlink:href="_t_m_c2208_stepper_8h.html" target="_top" xlink:title=" ">
<polygon fill="white" stroke="#666666" points="2402.25,-74.5 2270,-74.5 2270,-55.25 2402.25,-55.25 2402.25,-74.5"/>
<text text-anchor="middle" x="2336.12" y="-61" font-family="Helvetica,sans-Serif" font-size="10.00">source/TMC2208Stepper.h</text>
</a>
</g>
</g>
<!-- Node1&#45;&gt;Node18 -->
<g id="edge18_Node000001_Node000018" class="edge">
<title>Node1&#45;&gt;Node18</title>
<g id="a_edge18_Node000001_Node000018"><a xlink:title=" ">
<path fill="none" stroke="#63b8ff" d="M1556.2,-117.2C1673.99,-112.28 1986.6,-98.04 2258.6,-74.67"/>
<polygon fill="#63b8ff" stroke="#63b8ff" points="2258.72,-78.17 2268.38,-73.82 2258.12,-71.2 2258.72,-78.17"/>
</a>
</g>
</g>
<!-- Node19 -->
<g id="Node000019" class="node">
<title>Node19</title>
<g id="a_Node000019"><a xlink:href="_t_m_c2209_stepper_8h.html" target="_top" xlink:title=" ">
<polygon fill="white" stroke="#666666" points="2552.25,-74.5 2420,-74.5 2420,-55.25 2552.25,-55.25 2552.25,-74.5"/>
<text text-anchor="middle" x="2486.12" y="-61" font-family="Helvetica,sans-Serif" font-size="10.00">source/TMC2209Stepper.h</text>
</a>
</g>
</g>
<!-- Node1&#45;&gt;Node19 -->
<g id="edge19_Node000001_Node000019" class="edge">
<title>Node1&#45;&gt;Node19</title>
<g id="a_edge19_Node000001_Node000019"><a xlink:title=" ">
<path fill="none" stroke="#63b8ff" d="M1556.17,-117.85C1689.58,-114.08 2076.14,-101.57 2408.59,-74.65"/>
<polygon fill="#63b8ff" stroke="#63b8ff" points="2408.7,-78.15 2418.39,-73.85 2408.13,-71.18 2408.7,-78.15"/>
</a>
</g>
</g>
<!-- Node20 -->
<g id="Node000020" class="node">
<title>Node20</title>
<g id="a_Node000020"><a xlink:href="_t_m_c2224_stepper_8h.html" target="_top" xlink:title=" ">
<polygon fill="white" stroke="#666666" points="2702.25,-74.5 2570,-74.5 2570,-55.25 2702.25,-55.25 2702.25,-74.5"/>
<text text-anchor="middle" x="2636.12" y="-61" font-family="Helvetica,sans-Serif" font-size="10.00">source/TMC2224Stepper.h</text>
</a>
</g>
</g>
<!-- Node1&#45;&gt;Node20 -->
<g id="edge20_Node000001_Node000020" class="edge">
<title>Node1&#45;&gt;Node20</title>
<g id="a_edge20_Node000001_Node000020"><a xlink:title=" ">
<path fill="none" stroke="#63b8ff" d="M1556.22,-118.32C1704.08,-115.59 2165.28,-105.11 2558.57,-74.64"/>
<polygon fill="#63b8ff" stroke="#63b8ff" points="2558.69,-78.14 2568.39,-73.87 2558.15,-71.16 2558.69,-78.14"/>
</a>
</g>
</g>
<!-- Node21 -->
<g id="Node000021" class="node">
<title>Node21</title>
<g id="a_Node000021"><a xlink:href="_t_m_c2240_stepper_8h.html" target="_top" xlink:title=" ">
<polygon fill="white" stroke="#666666" points="2852.25,-74.5 2720,-74.5 2720,-55.25 2852.25,-55.25 2852.25,-74.5"/>
<text text-anchor="middle" x="2786.12" y="-61" font-family="Helvetica,sans-Serif" font-size="10.00">source/TMC2240Stepper.h</text>
</a>
</g>
</g>
<!-- Node1&#45;&gt;Node21 -->
<g id="edge21_Node000001_Node000021" class="edge">
<title>Node1&#45;&gt;Node21</title>
<g id="a_edge21_Node000001_Node000021"><a xlink:title=" ">
<path fill="none" stroke="#63b8ff" d="M1556.33,-118.68C1717.74,-116.89 2254.06,-108.66 2708.5,-74.63"/>
<polygon fill="#63b8ff" stroke="#63b8ff" points="2708.68,-78.13 2718.39,-73.89 2708.15,-71.15 2708.68,-78.13"/>
</a>
</g>
</g>
<!-- Node22 -->
<g id="Node000022" class="node">
<title>Node22</title>
<g id="a_Node000022"><a xlink:href="_t_m_c2660_stepper_8h.html" target="_top" xlink:title=" ">
<polygon fill="white" stroke="#666666" points="3002.25,-74.5 2870,-74.5 2870,-55.25 3002.25,-55.25 3002.25,-74.5"/>
<text text-anchor="middle" x="2936.12" y="-61" font-family="Helvetica,sans-Serif" font-size="10.00">source/TMC2660Stepper.h</text>
</a>
</g>
</g>
<!-- Node1&#45;&gt;Node22 -->
<g id="edge22_Node000001_Node000022" class="edge">
<title>Node1&#45;&gt;Node22</title>
<g id="a_edge22_Node000001_Node000022"><a xlink:title=" ">
<path fill="none" stroke="#63b8ff" d="M1556.13,-118.96C1729.86,-118.05 2342.28,-112.24 2858.49,-74.63"/>
<polygon fill="#63b8ff" stroke="#63b8ff" points="2858.67,-78.12 2868.39,-73.9 2858.16,-71.14 2858.67,-78.12"/>
</a>
</g>
</g>
<!-- Node3 -->
<g id="Node000003" class="node">
<title>Node3</title>
<g id="a_Node000003"><a xlink:href="_t_m_c__platforms_8h.html" target="_top" xlink:title=" ">
<polygon fill="white" stroke="#666666" points="182,-19.25 90.25,-19.25 90.25,0 182,0 182,-19.25"/>
<text text-anchor="middle" x="136.12" y="-5.75" font-family="Helvetica,sans-Serif" font-size="10.00">TMC_platforms.h</text>
</a>
</g>
</g>
<!-- Node2&#45;&gt;Node3 -->
<g id="edge2_Node000002_Node000003" class="edge">
<title>Node2&#45;&gt;Node3</title>
<g id="a_edge2_Node000002_Node000003"><a xlink:title=" ">
<path fill="none" stroke="#63b8ff" d="M80.49,-54.84C90.17,-47.15 104.32,-35.9 115.93,-26.68"/>
<polygon fill="#63b8ff" stroke="#63b8ff" points="118.09,-29.43 123.74,-20.47 113.74,-23.95 118.09,-29.43"/>
</a>
</g>
</g>
<!-- Node4&#45;&gt;Node3 -->
<g id="edge4_Node000004_Node000003" class="edge">
<title>Node4&#45;&gt;Node3</title>
<g id="a_edge4_Node000004_Node000003"><a xlink:title=" ">
<path fill="none" stroke="#63b8ff" d="M192.59,-54.84C182.66,-47.07 168.11,-35.67 156.27,-26.4"/>
<polygon fill="#63b8ff" stroke="#63b8ff" points="158.71,-23.87 148.68,-20.46 154.4,-29.38 158.71,-23.87"/>
</a>
</g>
</g>
</g>
</svg>
