<?xml version="1.0" encoding="UTF-8" standalone="no"?>
<!DOCTYPE svg PUBLIC "-//W3C//DTD SVG 1.1//EN"
 "http://www.w3.org/Graphics/SVG/1.1/DTD/svg11.dtd">
<!-- Generated by graphviz version 12.2.1 (20241206.2353)
 -->
<!-- Title: src/source/TMC2660Stepper.cpp Pages: 1 -->
<!--zoomable 193 -->

<svg id="main" version="1.1" xmlns="http://www.w3.org/2000/svg" xmlns:xlink="http://www.w3.org/1999/xlink" xml:space="preserve" onload="init(evt)">

<style type="text/css"><![CDATA[
.node, .edge {opacity: 0.7;}
.node.selected, .edge.selected {opacity: 1;}
.edge:hover path { stroke: red; }
.edge:hover polygon { stroke: red; fill: red; }
]]></style>

<defs>
  <circle id="rim" cx="0" cy="0" r="7"/>
  <circle id="rim2" cx="0" cy="0" r="3.5"/>
  <g id="zoomPlus">
    <use xlink:href="#rim" fill="#404040"><set attributeName="fill" to="#808080" begin="zoomplus.mouseover" end="zoomplus.mouseout"/></use>
    <path d="M-4,0h8M0,-4v8" fill="none" stroke="white" stroke-width="1.5" pointer-events="none"/>
  </g>
  <g id="zoomMin">
    <use xlink:href="#rim" fill="#404040"><set attributeName="fill" to="#808080" begin="zoomminus.mouseover" end="zoomminus.mouseout"/></use>
    <path d="M-4,0h8" fill="none" stroke="white" stroke-width="1.5" pointer-events="none"/>
  </g>
  <g id="arrowUp" transform="translate(30 24)">
    <use xlink:href="#rim"/>
    <path pointer-events="none" fill="none" stroke="white" stroke-width="1.5" d="M0,-3.0v7 M-2.5,-0.5L0,-3.0L2.5,-0.5"/>
  </g>
  <g id="arrowRight" transform="rotate(90) translate(36 -43)">
    <use xlink:href="#rim"/>
    <path pointer-events="none" fill="none" stroke="white" stroke-width="1.5" d="M0,-3.0v7 M-2.5,-0.5L0,-3.0L2.5,-0.5"/>
  </g>
  <g id="arrowDown" transform="rotate(180) translate(-30 -48)">
    <use xlink:href="#rim"/>
    <path pointer-events="none" fill="none" stroke="white" stroke-width="1.5" d="M0,-3.0v7 M-2.5,-0.5L0,-3.0L2.5,-0.5"/>
  </g>
  <g id="arrowLeft" transform="rotate(270) translate(-36 17)">
    <use xlink:href="#rim"/>
    <path pointer-events="none" fill="none" stroke="white" stroke-width="1.5" d="M0,-3.0v7 M-2.5,-0.5L0,-3.0L2.5,-0.5"/>
  </g>
  <g id="resetDef">
    <use xlink:href="#rim2" fill="#404040"><set attributeName="fill" to="#808080" begin="reset.mouseover" end="reset.mouseout"/></use>
  </g>
</defs>
<script type="application/ecmascript">
var viewWidth = 3010;
var viewHeight = 193;
var sectionId = 'dynsection-0';
</script>
<script type="application/ecmascript" xlink:href="svg.min.js"/>
<svg id="graph" class="graph">
<g id="viewport">
<title>src/source/TMC2660Stepper.cpp</title>
<!-- Node1 -->
<g id="Node000001" class="node">
<title>Node1</title>
<g id="a_Node000001"><a xlink:title=" ">
<polygon fill="#999999" stroke="#666666" points="819,-185 659.75,-185 659.75,-165.75 819,-165.75 819,-185"/>
<text text-anchor="middle" x="739.38" y="-171.5" font-family="Helvetica,sans-Serif" font-size="10.00">src/source/TMC2660Stepper.cpp</text>
</a>
</g>
</g>
<!-- Node2 -->
<g id="Node000002" class="node">
<title>Node2</title>
<g id="a_Node000002"><a xlink:href="_t_m_c_stepper_8h.html" target="_top" xlink:title=" ">
<polygon fill="white" stroke="#666666" points="1474.38,-129.75 1386.38,-129.75 1386.38,-110.5 1474.38,-110.5 1474.38,-129.75"/>
<text text-anchor="middle" x="1430.38" y="-116.25" font-family="Helvetica,sans-Serif" font-size="10.00">../TMCStepper.h</text>
</a>
</g>
</g>
<!-- Node1&#45;&gt;Node2 -->
<g id="edge1_Node000001_Node000002" class="edge">
<title>Node1&#45;&gt;Node2</title>
<g id="a_edge1_Node000001_Node000002"><a xlink:title=" ">
<path fill="none" stroke="#63b8ff" d="M819.32,-168.21C960.94,-157.3 1252.46,-134.84 1374.6,-125.42"/>
<polygon fill="#63b8ff" stroke="#63b8ff" points="1374.67,-128.93 1384.38,-124.67 1374.14,-121.95 1374.67,-128.93"/>
</a>
</g>
</g>
<!-- Node5 -->
<g id="Node000005" class="node">
<title>Node5</title>
<g id="a_Node000005"><a xlink:href="_s_w___s_p_i_8h.html" target="_top" xlink:title=" ">
<polygon fill="white" stroke="#666666" points="94.75,-74.5 0,-74.5 0,-55.25 94.75,-55.25 94.75,-74.5"/>
<text text-anchor="middle" x="47.38" y="-61" font-family="Helvetica,sans-Serif" font-size="10.00">source/SW_SPI.h</text>
</a>
</g>
</g>
<!-- Node1&#45;&gt;Node5 -->
<g id="edge24_Node000001_Node000005" class="edge">
<title>Node1&#45;&gt;Node5</title>
<g id="a_edge24_Node000001_Node000005"><a xlink:title=" ">
<path fill="none" stroke="#63b8ff" d="M681.27,-165.26C551.16,-144.86 237.55,-95.69 106.49,-75.14"/>
<polygon fill="#63b8ff" stroke="#63b8ff" points="107.05,-71.69 96.63,-73.6 105.97,-78.6 107.05,-71.69"/>
</a>
</g>
</g>
<!-- Node3 -->
<g id="Node000003" class="node">
<title>Node3</title>
<g id="a_Node000003"><a xlink:href="_s_e_r_i_a_l___s_w_i_t_c_h_8h.html" target="_top" xlink:title=" ">
<polygon fill="white" stroke="#666666" points="251.5,-74.5 113.25,-74.5 113.25,-55.25 251.5,-55.25 251.5,-74.5"/>
<text text-anchor="middle" x="182.38" y="-61" font-family="Helvetica,sans-Serif" font-size="10.00">source/SERIAL_SWITCH.h</text>
</a>
</g>
</g>
<!-- Node2&#45;&gt;Node3 -->
<g id="edge2_Node000002_Node000003" class="edge">
<title>Node2&#45;&gt;Node3</title>
<g id="a_edge2_Node000002_Node000003"><a xlink:title=" ">
<path fill="none" stroke="#63b8ff" d="M1385.95,-118.58C1232.09,-116.46 707.56,-107.2 263.15,-74.65"/>
<polygon fill="#63b8ff" stroke="#63b8ff" points="263.41,-71.16 253.18,-73.91 262.9,-78.14 263.41,-71.16"/>
</a>
</g>
</g>
<!-- Node2&#45;&gt;Node5 -->
<g id="edge4_Node000002_Node000005" class="edge">
<title>Node2&#45;&gt;Node5</title>
<g id="a_edge4_Node000002_Node000005"><a xlink:title=" ">
<path fill="none" stroke="#63b8ff" d="M1385.9,-119.5C1219.11,-120.53 614.77,-120.72 106.46,-74.56"/>
<polygon fill="#63b8ff" stroke="#63b8ff" points="107,-71.09 96.73,-73.67 106.37,-78.06 107,-71.09"/>
</a>
</g>
</g>
<!-- Node6 -->
<g id="Node000006" class="node">
<title>Node6</title>
<g id="a_Node000006"><a xlink:href="_t_m_c2130__bitfields_8h.html" target="_top" xlink:title=" ">
<polygon fill="white" stroke="#666666" points="407.5,-74.5 269.25,-74.5 269.25,-55.25 407.5,-55.25 407.5,-74.5"/>
<text text-anchor="middle" x="338.38" y="-61" font-family="Helvetica,sans-Serif" font-size="10.00">source/TMC2130_bitfields.h</text>
</a>
</g>
</g>
<!-- Node2&#45;&gt;Node6 -->
<g id="edge6_Node000002_Node000006" class="edge">
<title>Node2&#45;&gt;Node6</title>
<g id="a_edge6_Node000002_Node000006"><a xlink:title=" ">
<path fill="none" stroke="#63b8ff" d="M1386.33,-118.23C1246.5,-115.16 799.87,-103.65 418.93,-74.64"/>
<polygon fill="#63b8ff" stroke="#63b8ff" points="419.42,-71.17 409.18,-73.89 418.89,-78.15 419.42,-71.17"/>
</a>
</g>
</g>
<!-- Node7 -->
<g id="Node000007" class="node">
<title>Node7</title>
<g id="a_Node000007"><a xlink:href="_t_m_c2160__bitfields_8h.html" target="_top" xlink:title=" ">
<polygon fill="white" stroke="#666666" points="563.5,-74.5 425.25,-74.5 425.25,-55.25 563.5,-55.25 563.5,-74.5"/>
<text text-anchor="middle" x="494.38" y="-61" font-family="Helvetica,sans-Serif" font-size="10.00">source/TMC2160_bitfields.h</text>
</a>
</g>
</g>
<!-- Node2&#45;&gt;Node7 -->
<g id="edge7_Node000002_Node000007" class="edge">
<title>Node2&#45;&gt;Node7</title>
<g id="a_edge7_Node000002_Node000007"><a xlink:title=" ">
<path fill="none" stroke="#63b8ff" d="M1386.11,-117.73C1260.73,-113.59 892.24,-100.09 574.94,-74.66"/>
<polygon fill="#63b8ff" stroke="#63b8ff" points="575.44,-71.19 565.19,-73.87 574.87,-78.17 575.44,-71.19"/>
</a>
</g>
</g>
<!-- Node8 -->
<g id="Node000008" class="node">
<title>Node8</title>
<g id="a_Node000008"><a xlink:href="_t_m_c5130__bitfields_8h.html" target="_top" xlink:title=" ">
<polygon fill="white" stroke="#666666" points="719.5,-74.5 581.25,-74.5 581.25,-55.25 719.5,-55.25 719.5,-74.5"/>
<text text-anchor="middle" x="650.38" y="-61" font-family="Helvetica,sans-Serif" font-size="10.00">source/TMC5130_bitfields.h</text>
</a>
</g>
</g>
<!-- Node2&#45;&gt;Node8 -->
<g id="edge8_Node000002_Node000008" class="edge">
<title>Node2&#45;&gt;Node8</title>
<g id="a_edge8_Node000002_Node000008"><a xlink:title=" ">
<path fill="none" stroke="#63b8ff" d="M1385.97,-117.02C1276.6,-111.69 985.27,-96.55 731,-74.69"/>
<polygon fill="#63b8ff" stroke="#63b8ff" points="731.45,-71.21 721.19,-73.84 730.85,-78.19 731.45,-71.21"/>
</a>
</g>
</g>
<!-- Node9 -->
<g id="Node000009" class="node">
<title>Node9</title>
<g id="a_Node000009"><a xlink:href="_t_m_c5160__bitfields_8h.html" target="_top" xlink:title=" ">
<polygon fill="white" stroke="#666666" points="875.5,-74.5 737.25,-74.5 737.25,-55.25 875.5,-55.25 875.5,-74.5"/>
<text text-anchor="middle" x="806.38" y="-61" font-family="Helvetica,sans-Serif" font-size="10.00">source/TMC5160_bitfields.h</text>
</a>
</g>
</g>
<!-- Node2&#45;&gt;Node9 -->
<g id="edge9_Node000002_Node000009" class="edge">
<title>Node2&#45;&gt;Node9</title>
<g id="a_edge9_Node000002_Node000009"><a xlink:title=" ">
<path fill="none" stroke="#63b8ff" d="M1386.1,-115.94C1294.92,-109.28 1079.28,-93.06 887.14,-74.74"/>
<polygon fill="#63b8ff" stroke="#63b8ff" points="887.48,-71.26 877.19,-73.79 886.81,-78.23 887.48,-71.26"/>
</a>
</g>
</g>
<!-- Node10 -->
<g id="Node000010" class="node">
<title>Node10</title>
<g id="a_Node000010"><a xlink:href="_t_m_c2208__bitfields_8h.html" target="_top" xlink:title=" ">
<polygon fill="white" stroke="#666666" points="1031.5,-74.5 893.25,-74.5 893.25,-55.25 1031.5,-55.25 1031.5,-74.5"/>
<text text-anchor="middle" x="962.38" y="-61" font-family="Helvetica,sans-Serif" font-size="10.00">source/TMC2208_bitfields.h</text>
</a>
</g>
</g>
<!-- Node2&#45;&gt;Node10 -->
<g id="edge10_Node000002_Node000010" class="edge">
<title>Node2&#45;&gt;Node10</title>
<g id="a_edge10_Node000002_Node000010"><a xlink:title=" ">
<path fill="none" stroke="#63b8ff" d="M1385.92,-114.07C1307.16,-105.11 1142.08,-86.32 1042.87,-75.03"/>
<polygon fill="#63b8ff" stroke="#63b8ff" points="1043.54,-71.59 1033.2,-73.93 1042.75,-78.54 1043.54,-71.59"/>
</a>
</g>
</g>
<!-- Node11 -->
<g id="Node000011" class="node">
<title>Node11</title>
<g id="a_Node000011"><a xlink:href="_t_m_c2209__bitfields_8h.html" target="_top" xlink:title=" ">
<polygon fill="white" stroke="#666666" points="1187.5,-74.5 1049.25,-74.5 1049.25,-55.25 1187.5,-55.25 1187.5,-74.5"/>
<text text-anchor="middle" x="1118.38" y="-61" font-family="Helvetica,sans-Serif" font-size="10.00">source/TMC2209_bitfields.h</text>
</a>
</g>
</g>
<!-- Node2&#45;&gt;Node11 -->
<g id="edge11_Node000002_Node000011" class="edge">
<title>Node2&#45;&gt;Node11</title>
<g id="a_edge11_Node000002_Node000011"><a xlink:title=" ">
<path fill="none" stroke="#63b8ff" d="M1386,-111.55C1332.87,-102.48 1243.45,-87.22 1182.73,-76.86"/>
<polygon fill="#63b8ff" stroke="#63b8ff" points="1183.68,-73.47 1173.23,-75.24 1182.5,-80.37 1183.68,-73.47"/>
</a>
</g>
</g>
<!-- Node12 -->
<g id="Node000012" class="node">
<title>Node12</title>
<g id="a_Node000012"><a xlink:href="_t_m_c2240__bitfields_8h.html" target="_top" xlink:title=" ">
<polygon fill="white" stroke="#666666" points="1343.5,-74.5 1205.25,-74.5 1205.25,-55.25 1343.5,-55.25 1343.5,-74.5"/>
<text text-anchor="middle" x="1274.38" y="-61" font-family="Helvetica,sans-Serif" font-size="10.00">source/TMC2240_bitfields.h</text>
</a>
</g>
</g>
<!-- Node2&#45;&gt;Node12 -->
<g id="edge12_Node000002_Node000012" class="edge">
<title>Node2&#45;&gt;Node12</title>
<g id="a_edge12_Node000002_Node000012"><a xlink:title=" ">
<path fill="none" stroke="#63b8ff" d="M1403.91,-110.09C1378.59,-101.45 1340.14,-88.32 1311.71,-78.62"/>
<polygon fill="#63b8ff" stroke="#63b8ff" points="1313,-75.36 1302.4,-75.44 1310.73,-81.98 1313,-75.36"/>
</a>
</g>
</g>
<!-- Node13 -->
<g id="Node000013" class="node">
<title>Node13</title>
<g id="a_Node000013"><a xlink:href="_t_m_c2660__bitfields_8h.html" target="_top" xlink:title=" ">
<polygon fill="white" stroke="#666666" points="1499.5,-74.5 1361.25,-74.5 1361.25,-55.25 1499.5,-55.25 1499.5,-74.5"/>
<text text-anchor="middle" x="1430.38" y="-61" font-family="Helvetica,sans-Serif" font-size="10.00">source/TMC2660_bitfields.h</text>
</a>
</g>
</g>
<!-- Node2&#45;&gt;Node13 -->
<g id="edge13_Node000002_Node000013" class="edge">
<title>Node2&#45;&gt;Node13</title>
<g id="a_edge13_Node000002_Node000013"><a xlink:title=" ">
<path fill="none" stroke="#63b8ff" d="M1430.38,-110.33C1430.38,-103.82 1430.38,-94.67 1430.38,-86.37"/>
<polygon fill="#63b8ff" stroke="#63b8ff" points="1433.88,-86.37 1430.38,-76.37 1426.88,-86.37 1433.88,-86.37"/>
</a>
</g>
</g>
<!-- Node14 -->
<g id="Node000014" class="node">
<title>Node14</title>
<g id="a_Node000014"><a xlink:href="_t_m_c_stepper_base_8h.html" target="_top" xlink:title=" ">
<polygon fill="white" stroke="#666666" points="1651.62,-74.5 1517.12,-74.5 1517.12,-55.25 1651.62,-55.25 1651.62,-74.5"/>
<text text-anchor="middle" x="1584.38" y="-61" font-family="Helvetica,sans-Serif" font-size="10.00">source/TMCStepperBase.h</text>
</a>
</g>
</g>
<!-- Node2&#45;&gt;Node14 -->
<g id="edge14_Node000002_Node000014" class="edge">
<title>Node2&#45;&gt;Node14</title>
<g id="a_edge14_Node000002_Node000014"><a xlink:title=" ">
<path fill="none" stroke="#63b8ff" d="M1456.5,-110.09C1481.5,-101.45 1519.45,-88.32 1547.52,-78.62"/>
<polygon fill="#63b8ff" stroke="#63b8ff" points="1548.39,-82.02 1556.69,-75.45 1546.1,-75.41 1548.39,-82.02"/>
</a>
</g>
</g>
<!-- Node15 -->
<g id="Node000015" class="node">
<title>Node15</title>
<g id="a_Node000015"><a xlink:href="_t_m_c2130_stepper_8h.html" target="_top" xlink:title=" ">
<polygon fill="white" stroke="#666666" points="1801.5,-74.5 1669.25,-74.5 1669.25,-55.25 1801.5,-55.25 1801.5,-74.5"/>
<text text-anchor="middle" x="1735.38" y="-61" font-family="Helvetica,sans-Serif" font-size="10.00">source/TMC2130Stepper.h</text>
</a>
</g>
</g>
<!-- Node2&#45;&gt;Node15 -->
<g id="edge15_Node000002_Node000015" class="edge">
<title>Node2&#45;&gt;Node15</title>
<g id="a_edge15_Node000002_Node000015"><a xlink:title=" ">
<path fill="none" stroke="#63b8ff" d="M1474.72,-111.38C1526.72,-102.3 1613.28,-87.19 1672.26,-76.89"/>
<polygon fill="#63b8ff" stroke="#63b8ff" points="1672.57,-80.39 1681.81,-75.23 1671.36,-73.5 1672.57,-80.39"/>
</a>
</g>
</g>
<!-- Node16 -->
<g id="Node000016" class="node">
<title>Node16</title>
<g id="a_Node000016"><a xlink:href="_t_m_c2160_stepper_8h.html" target="_top" xlink:title=" ">
<polygon fill="white" stroke="#666666" points="1951.5,-74.5 1819.25,-74.5 1819.25,-55.25 1951.5,-55.25 1951.5,-74.5"/>
<text text-anchor="middle" x="1885.38" y="-61" font-family="Helvetica,sans-Serif" font-size="10.00">source/TMC2160Stepper.h</text>
</a>
</g>
</g>
<!-- Node2&#45;&gt;Node16 -->
<g id="edge16_Node000002_Node000016" class="edge">
<title>Node2&#45;&gt;Node16</title>
<g id="a_edge16_Node000002_Node000016"><a xlink:title=" ">
<path fill="none" stroke="#63b8ff" d="M1474.83,-113.92C1551.97,-104.89 1711.54,-86.22 1807.44,-75"/>
<polygon fill="#63b8ff" stroke="#63b8ff" points="1807.78,-78.48 1817.31,-73.84 1806.97,-71.53 1807.78,-78.48"/>
</a>
</g>
</g>
<!-- Node17 -->
<g id="Node000017" class="node">
<title>Node17</title>
<g id="a_Node000017"><a xlink:href="_t_m_c5130_stepper_8h.html" target="_top" xlink:title=" ">
<polygon fill="white" stroke="#666666" points="2101.5,-74.5 1969.25,-74.5 1969.25,-55.25 2101.5,-55.25 2101.5,-74.5"/>
<text text-anchor="middle" x="2035.38" y="-61" font-family="Helvetica,sans-Serif" font-size="10.00">source/TMC5130Stepper.h</text>
</a>
</g>
</g>
<!-- Node2&#45;&gt;Node17 -->
<g id="edge17_Node000002_Node000017" class="edge">
<title>Node2&#45;&gt;Node17</title>
<g id="a_edge17_Node000002_Node000017"><a xlink:title=" ">
<path fill="none" stroke="#63b8ff" d="M1474.74,-115.85C1564,-109.16 1771.96,-93.07 1957.77,-74.73"/>
<polygon fill="#63b8ff" stroke="#63b8ff" points="1958.02,-78.22 1967.63,-73.75 1957.33,-71.26 1958.02,-78.22"/>
</a>
</g>
</g>
<!-- Node18 -->
<g id="Node000018" class="node">
<title>Node18</title>
<g id="a_Node000018"><a xlink:href="_t_m_c5160_stepper_8h.html" target="_top" xlink:title=" ">
<polygon fill="white" stroke="#666666" points="2251.5,-74.5 2119.25,-74.5 2119.25,-55.25 2251.5,-55.25 2251.5,-74.5"/>
<text text-anchor="middle" x="2185.38" y="-61" font-family="Helvetica,sans-Serif" font-size="10.00">source/TMC5160Stepper.h</text>
</a>
</g>
</g>
<!-- Node2&#45;&gt;Node18 -->
<g id="edge18_Node000002_Node000018" class="edge">
<title>Node2&#45;&gt;Node18</title>
<g id="a_edge18_Node000002_Node000018"><a xlink:title=" ">
<path fill="none" stroke="#63b8ff" d="M1474.59,-116.98C1581.4,-111.62 1862.21,-96.58 2107.84,-74.68"/>
<polygon fill="#63b8ff" stroke="#63b8ff" points="2107.99,-78.19 2117.63,-73.81 2107.36,-71.21 2107.99,-78.19"/>
</a>
</g>
</g>
<!-- Node19 -->
<g id="Node000019" class="node">
<title>Node19</title>
<g id="a_Node000019"><a xlink:href="_t_m_c2208_stepper_8h.html" target="_top" xlink:title=" ">
<polygon fill="white" stroke="#666666" points="2401.5,-74.5 2269.25,-74.5 2269.25,-55.25 2401.5,-55.25 2401.5,-74.5"/>
<text text-anchor="middle" x="2335.38" y="-61" font-family="Helvetica,sans-Serif" font-size="10.00">source/TMC2208Stepper.h</text>
</a>
</g>
</g>
<!-- Node2&#45;&gt;Node19 -->
<g id="edge19_Node000002_Node000019" class="edge">
<title>Node2&#45;&gt;Node19</title>
<g id="a_edge19_Node000002_Node000019"><a xlink:title=" ">
<path fill="none" stroke="#63b8ff" d="M1474.53,-117.7C1597.04,-113.53 1951.76,-100.11 2257.82,-74.66"/>
<polygon fill="#63b8ff" stroke="#63b8ff" points="2257.96,-78.16 2267.64,-73.84 2257.38,-71.19 2257.96,-78.16"/>
</a>
</g>
</g>
<!-- Node20 -->
<g id="Node000020" class="node">
<title>Node20</title>
<g id="a_Node000020"><a xlink:href="_t_m_c2209_stepper_8h.html" target="_top" xlink:title=" ">
<polygon fill="white" stroke="#666666" points="2551.5,-74.5 2419.25,-74.5 2419.25,-55.25 2551.5,-55.25 2551.5,-74.5"/>
<text text-anchor="middle" x="2485.38" y="-61" font-family="Helvetica,sans-Serif" font-size="10.00">source/TMC2209Stepper.h</text>
</a>
</g>
</g>
<!-- Node2&#45;&gt;Node20 -->
<g id="edge20_Node000002_Node000020" class="edge">
<title>Node2&#45;&gt;Node20</title>
<g id="a_edge20_Node000002_Node000020"><a xlink:title=" ">
<path fill="none" stroke="#63b8ff" d="M1474.4,-118.2C1611.11,-115.11 2040.68,-103.66 2407.76,-74.65"/>
<polygon fill="#63b8ff" stroke="#63b8ff" points="2407.95,-78.15 2417.64,-73.86 2407.39,-71.17 2407.95,-78.15"/>
</a>
</g>
</g>
<!-- Node21 -->
<g id="Node000021" class="node">
<title>Node21</title>
<g id="a_Node000021"><a xlink:href="_t_m_c2224_stepper_8h.html" target="_top" xlink:title=" ">
<polygon fill="white" stroke="#666666" points="2701.5,-74.5 2569.25,-74.5 2569.25,-55.25 2701.5,-55.25 2701.5,-74.5"/>
<text text-anchor="middle" x="2635.38" y="-61" font-family="Helvetica,sans-Serif" font-size="10.00">source/TMC2224Stepper.h</text>
</a>
</g>
</g>
<!-- Node2&#45;&gt;Node21 -->
<g id="edge21_Node000002_Node000021" class="edge">
<title>Node2&#45;&gt;Node21</title>
<g id="a_edge21_Node000002_Node000021"><a xlink:title=" ">
<path fill="none" stroke="#63b8ff" d="M1474.86,-118.57C1625.42,-116.43 2129.8,-107.19 2557.78,-74.64"/>
<polygon fill="#63b8ff" stroke="#63b8ff" points="2557.94,-78.13 2567.64,-73.88 2557.4,-71.15 2557.94,-78.13"/>
</a>
</g>
</g>
<!-- Node22 -->
<g id="Node000022" class="node">
<title>Node22</title>
<g id="a_Node000022"><a xlink:href="_t_m_c2240_stepper_8h.html" target="_top" xlink:title=" ">
<polygon fill="white" stroke="#666666" points="2851.5,-74.5 2719.25,-74.5 2719.25,-55.25 2851.5,-55.25 2851.5,-74.5"/>
<text text-anchor="middle" x="2785.38" y="-61" font-family="Helvetica,sans-Serif" font-size="10.00">source/TMC2240Stepper.h</text>
</a>
</g>
</g>
<!-- Node2&#45;&gt;Node22 -->
<g id="edge22_Node000002_Node000022" class="edge">
<title>Node2&#45;&gt;Node22</title>
<g id="a_edge22_Node000002_Node000022"><a xlink:title=" ">
<path fill="none" stroke="#63b8ff" d="M1474.66,-118.86C1637.42,-117.61 2218.11,-110.77 2707.96,-74.61"/>
<polygon fill="#63b8ff" stroke="#63b8ff" points="2707.93,-78.13 2717.64,-73.89 2707.41,-71.14 2707.93,-78.13"/>
</a>
</g>
</g>
<!-- Node23 -->
<g id="Node000023" class="node">
<title>Node23</title>
<g id="a_Node000023"><a xlink:href="_t_m_c2660_stepper_8h.html" target="_top" xlink:title=" ">
<polygon fill="white" stroke="#666666" points="3001.5,-74.5 2869.25,-74.5 2869.25,-55.25 3001.5,-55.25 3001.5,-74.5"/>
<text text-anchor="middle" x="2935.38" y="-61" font-family="Helvetica,sans-Serif" font-size="10.00">source/TMC2660Stepper.h</text>
</a>
</g>
</g>
<!-- Node2&#45;&gt;Node23 -->
<g id="edge23_Node000002_Node000023" class="edge">
<title>Node2&#45;&gt;Node23</title>
<g id="a_edge23_Node000002_Node000023"><a xlink:title=" ">
<path fill="none" stroke="#63b8ff" d="M1474.63,-119.09C1649.05,-118.65 2306,-114.35 2857.77,-74.62"/>
<polygon fill="#63b8ff" stroke="#63b8ff" points="2857.92,-78.12 2867.64,-73.9 2857.41,-71.14 2857.92,-78.12"/>
</a>
</g>
</g>
<!-- Node4 -->
<g id="Node000004" class="node">
<title>Node4</title>
<g id="a_Node000004"><a xlink:href="_t_m_c__platforms_8h.html" target="_top" xlink:title=" ">
<polygon fill="white" stroke="#666666" points="160.25,-19.25 68.5,-19.25 68.5,0 160.25,0 160.25,-19.25"/>
<text text-anchor="middle" x="114.38" y="-5.75" font-family="Helvetica,sans-Serif" font-size="10.00">TMC_platforms.h</text>
</a>
</g>
</g>
<!-- Node3&#45;&gt;Node4 -->
<g id="edge3_Node000003_Node000004" class="edge">
<title>Node3&#45;&gt;Node4</title>
<g id="a_edge3_Node000003_Node000004"><a xlink:title=" ">
<path fill="none" stroke="#63b8ff" d="M170.84,-54.84C160.91,-47.07 146.36,-35.67 134.52,-26.4"/>
<polygon fill="#63b8ff" stroke="#63b8ff" points="136.96,-23.87 126.93,-20.46 132.65,-29.38 136.96,-23.87"/>
</a>
</g>
</g>
<!-- Node5&#45;&gt;Node4 -->
<g id="edge5_Node000005_Node000004" class="edge">
<title>Node5&#45;&gt;Node4</title>
<g id="a_edge5_Node000005_Node000004"><a xlink:title=" ">
<path fill="none" stroke="#63b8ff" d="M58.74,-54.84C68.42,-47.15 82.57,-35.9 94.18,-26.68"/>
<polygon fill="#63b8ff" stroke="#63b8ff" points="96.34,-29.43 101.99,-20.47 91.99,-23.95 96.34,-29.43"/>
</a>
</g>
</g>
</g>
</svg>

<g id="navigator" transform="translate(0 0)" fill="#404254">
  <rect fill="#f2f5e9" fill-opacity="0.5" stroke="#606060" stroke-width=".5" x="0" y="0" width="60" height="60"/>
  <use id="zoomplus" xlink:href="#zoomPlus" x="17" y="9" onmousedown="handleZoom(evt,'in')"/>
  <use id="zoomminus" xlink:href="#zoomMin" x="42" y="9" onmousedown="handleZoom(evt,'out')"/>
  <use id="reset" xlink:href="#resetDef" x="30" y="36" onmousedown="handleReset()"/>
   <use id="arrowup" xlink:href="#arrowUp" x="0" y="0" onmousedown="handlePan(0,-1)"/>
  <use id="arrowright" xlink:href="#arrowRight" x="0" y="0" onmousedown="handlePan(1,0)"/>
  <use id="arrowdown" xlink:href="#arrowDown" x="0" y="0" onmousedown="handlePan(0,1)"/>
  <use id="arrowleft" xlink:href="#arrowLeft" x="0" y="0" onmousedown="handlePan(-1,0)"/>
</g>
<svg viewBox="0 0 15 15" width="100%" height="30px" preserveAspectRatio="xMaxYMin meet">
 <g id="arrow_out" transform="scale(0.3 0.3)">
  <a xlink:href="_t_m_c2660_stepper_8cpp__incl_org.svg" target="_base">
   <rect id="button" ry="5" rx="5" y="6" x="6" height="38" width="38"
        fill="#f2f5e9" fill-opacity="0.5" stroke="#606060" stroke-width="1.0"/>
   <path id="arrow"
     d="M 11.500037,31.436501 C 11.940474,20.09759 22.043105,11.32322 32.158766,21.979434 L 37.068811,17.246167 C 37.068811,17.246167 37.088388,32 37.088388,32 L 22.160133,31.978069 C 22.160133,31.978069 26.997745,27.140456 26.997745,27.140456 C 18.528582,18.264221 13.291696,25.230495 11.500037,31.436501 z"
     style="fill:#404040;"/>
  </a>
 </g>
</svg>

<style type='text/css'>
<![CDATA[
[data-mouse-over-selected='false'] { opacity: 0.7; }
[data-mouse-over-selected='true']  { opacity: 1.0; }
]]>
</style>
<script type="application/ecmascript"><![CDATA[
document.addEventListener('DOMContentLoaded', (event) => {
  highlightEdges();
  highlightAdjacentNodes();
});
]]></script>
</svg>
