<?xml version="1.0" encoding="UTF-8" standalone="no"?>
<!DOCTYPE svg PUBLIC "-//W3C//DTD SVG 1.1//EN"
 "http://www.w3.org/Graphics/SVG/1.1/DTD/svg11.dtd">
<!-- Generated by graphviz version 12.2.1 (20241206.2353)
 -->
<!-- Title: src/source/bcm2835_stream.h Pages: 1 -->
<svg width="607pt" height="94pt"
 viewBox="0.00 0.00 606.62 93.75" xmlns="http://www.w3.org/2000/svg" xmlns:xlink="http://www.w3.org/1999/xlink">
<g id="graph0" class="graph" transform="scale(1 1) rotate(0) translate(4 89.75)">
<title>src/source/bcm2835_stream.h</title>
<!-- Node1 -->
<g id="Node000001" class="node">
<title>Node1</title>
<g id="a_Node000001"><a xlink:title=" ">
<polygon fill="#999999" stroke="#666666" points="337.88,-85.75 233.38,-85.75 233.38,-55.25 337.88,-55.25 337.88,-85.75"/>
<text text-anchor="start" x="241.38" y="-72.25" font-family="Helvetica,sans-Serif" font-size="10.00">src/source/bcm2835</text>
<text text-anchor="middle" x="285.62" y="-61" font-family="Helvetica,sans-Serif" font-size="10.00">_stream.h</text>
</a>
</g>
</g>
<!-- Node2 -->
<g id="Node000002" class="node">
<title>Node2</title>
<g id="a_Node000002"><a xlink:title=" ">
<polygon fill="#e0e0e0" stroke="#999999" points="45.25,-19.25 0,-19.25 0,0 45.25,0 45.25,-19.25"/>
<text text-anchor="middle" x="22.62" y="-5.75" font-family="Helvetica,sans-Serif" font-size="10.00">stdio.h</text>
</a>
</g>
</g>
<!-- Node1&#45;&gt;Node2 -->
<g id="edge1_Node000001_Node000002" class="edge">
<title>Node1&#45;&gt;Node2</title>
<g id="a_edge1_Node000001_Node000002"><a xlink:title=" ">
<path fill="none" stroke="#63b8ff" d="M232.9,-58.99C188.24,-49.88 122.25,-35.95 56.57,-19.88"/>
<polygon fill="#63b8ff" stroke="#63b8ff" points="57.63,-16.54 47.08,-17.54 55.95,-23.33 57.63,-16.54"/>
</a>
</g>
</g>
<!-- Node3 -->
<g id="Node000003" class="node">
<title>Node3</title>
<g id="a_Node000003"><a xlink:title=" ">
<polygon fill="#e0e0e0" stroke="#999999" points="110.38,-19.25 62.88,-19.25 62.88,0 110.38,0 110.38,-19.25"/>
<text text-anchor="middle" x="86.62" y="-5.75" font-family="Helvetica,sans-Serif" font-size="10.00">stdlib.h</text>
</a>
</g>
</g>
<!-- Node1&#45;&gt;Node3 -->
<g id="edge2_Node000001_Node000003" class="edge">
<title>Node1&#45;&gt;Node3</title>
<g id="a_edge2_Node000001_Node000003"><a xlink:title=" ">
<path fill="none" stroke="#63b8ff" d="M235.92,-54.8C200.34,-44.27 153.32,-30.36 121.63,-20.98"/>
<polygon fill="#63b8ff" stroke="#63b8ff" points="122.73,-17.66 112.15,-18.18 120.75,-24.37 122.73,-17.66"/>
</a>
</g>
</g>
<!-- Node4 -->
<g id="Node000004" class="node">
<title>Node4</title>
<g id="a_Node000004"><a xlink:title=" ">
<polygon fill="#e0e0e0" stroke="#999999" points="176.75,-19.25 128.5,-19.25 128.5,0 176.75,0 176.75,-19.25"/>
<text text-anchor="middle" x="152.62" y="-5.75" font-family="Helvetica,sans-Serif" font-size="10.00">stdint.h</text>
</a>
</g>
</g>
<!-- Node1&#45;&gt;Node4 -->
<g id="edge3_Node000001_Node000004" class="edge">
<title>Node1&#45;&gt;Node4</title>
<g id="a_edge3_Node000001_Node000004"><a xlink:title=" ">
<path fill="none" stroke="#63b8ff" d="M252.41,-54.8C231.28,-45.44 204.1,-33.41 183.45,-24.27"/>
<polygon fill="#63b8ff" stroke="#63b8ff" points="184.97,-21.11 174.41,-20.27 182.13,-27.51 184.97,-21.11"/>
</a>
</g>
</g>
<!-- Node5 -->
<g id="Node000005" class="node">
<title>Node5</title>
<g id="a_Node000005"><a xlink:title=" ">
<polygon fill="#e0e0e0" stroke="#999999" points="242.75,-19.25 194.5,-19.25 194.5,0 242.75,0 242.75,-19.25"/>
<text text-anchor="middle" x="218.62" y="-5.75" font-family="Helvetica,sans-Serif" font-size="10.00">string.h</text>
</a>
</g>
</g>
<!-- Node1&#45;&gt;Node5 -->
<g id="edge4_Node000001_Node000005" class="edge">
<title>Node1&#45;&gt;Node5</title>
<g id="a_edge4_Node000001_Node000005"><a xlink:title=" ">
<path fill="none" stroke="#63b8ff" d="M269.06,-54.95C259.45,-46.5 247.31,-35.83 237.35,-27.08"/>
<polygon fill="#63b8ff" stroke="#63b8ff" points="239.91,-24.67 230.09,-20.7 235.29,-29.93 239.91,-24.67"/>
</a>
</g>
</g>
<!-- Node6 -->
<g id="Node000006" class="node">
<title>Node6</title>
<g id="a_Node000006"><a xlink:title=" ">
<polygon fill="#e0e0e0" stroke="#999999" points="310.88,-19.25 260.38,-19.25 260.38,0 310.88,0 310.88,-19.25"/>
<text text-anchor="middle" x="285.62" y="-5.75" font-family="Helvetica,sans-Serif" font-size="10.00">unistd.h</text>
</a>
</g>
</g>
<!-- Node1&#45;&gt;Node6 -->
<g id="edge5_Node000001_Node000006" class="edge">
<title>Node1&#45;&gt;Node6</title>
<g id="a_edge5_Node000001_Node000006"><a xlink:title=" ">
<path fill="none" stroke="#63b8ff" d="M285.62,-54.95C285.62,-47.71 285.62,-38.84 285.62,-30.94"/>
<polygon fill="#63b8ff" stroke="#63b8ff" points="289.13,-31.21 285.63,-21.21 282.13,-31.21 289.13,-31.21"/>
</a>
</g>
</g>
<!-- Node7 -->
<g id="Node000007" class="node">
<title>Node7</title>
<g id="a_Node000007"><a xlink:title=" ">
<polygon fill="#e0e0e0" stroke="#999999" points="372.12,-19.25 329.12,-19.25 329.12,0 372.12,0 372.12,-19.25"/>
<text text-anchor="middle" x="350.62" y="-5.75" font-family="Helvetica,sans-Serif" font-size="10.00">fcntl.h</text>
</a>
</g>
</g>
<!-- Node1&#45;&gt;Node7 -->
<g id="edge6_Node000001_Node000007" class="edge">
<title>Node1&#45;&gt;Node7</title>
<g id="a_edge6_Node000001_Node000007"><a xlink:title=" ">
<path fill="none" stroke="#63b8ff" d="M301.69,-54.95C310.92,-46.59 322.55,-36.05 332.16,-27.35"/>
<polygon fill="#63b8ff" stroke="#63b8ff" points="334.42,-30.02 339.48,-20.72 329.72,-24.84 334.42,-30.02"/>
</a>
</g>
</g>
<!-- Node8 -->
<g id="Node000008" class="node">
<title>Node8</title>
<g id="a_Node000008"><a xlink:title=" ">
<polygon fill="#e0e0e0" stroke="#999999" points="436.62,-19.25 390.62,-19.25 390.62,0 436.62,0 436.62,-19.25"/>
<text text-anchor="middle" x="413.62" y="-5.75" font-family="Helvetica,sans-Serif" font-size="10.00">errno.h</text>
</a>
</g>
</g>
<!-- Node1&#45;&gt;Node8 -->
<g id="edge7_Node000001_Node000008" class="edge">
<title>Node1&#45;&gt;Node8</title>
<g id="a_edge7_Node000001_Node000008"><a xlink:title=" ">
<path fill="none" stroke="#63b8ff" d="M317.59,-54.8C337.84,-45.48 363.84,-33.52 383.68,-24.4"/>
<polygon fill="#63b8ff" stroke="#63b8ff" points="385,-27.65 392.62,-20.29 382.07,-21.29 385,-27.65"/>
</a>
</g>
</g>
<!-- Node9 -->
<g id="Node000009" class="node">
<title>Node9</title>
<g id="a_Node000009"><a xlink:title=" ">
<polygon fill="#e0e0e0" stroke="#999999" points="516.5,-19.25 454.75,-19.25 454.75,0 516.5,0 516.5,-19.25"/>
<text text-anchor="middle" x="485.62" y="-5.75" font-family="Helvetica,sans-Serif" font-size="10.00">sys/time.h</text>
</a>
</g>
</g>
<!-- Node1&#45;&gt;Node9 -->
<g id="edge8_Node000001_Node000009" class="edge">
<title>Node1&#45;&gt;Node9</title>
<g id="a_edge8_Node000001_Node000009"><a xlink:title=" ">
<path fill="none" stroke="#63b8ff" d="M335.58,-54.8C368.86,-45 412.11,-32.27 443.62,-22.99"/>
<polygon fill="#63b8ff" stroke="#63b8ff" points="444.6,-26.35 453.21,-20.17 442.63,-19.63 444.6,-26.35"/>
</a>
</g>
</g>
<!-- Node10 -->
<g id="Node000010" class="node">
<title>Node10</title>
<g id="a_Node000010"><a xlink:title=" ">
<polygon fill="#e0e0e0" stroke="#999999" points="598.62,-19.25 534.62,-19.25 534.62,0 598.62,0 598.62,-19.25"/>
<text text-anchor="middle" x="566.62" y="-5.75" font-family="Helvetica,sans-Serif" font-size="10.00">bcm2835.h</text>
</a>
</g>
</g>
<!-- Node1&#45;&gt;Node10 -->
<g id="edge9_Node000001_Node000010" class="edge">
<title>Node1&#45;&gt;Node10</title>
<g id="a_edge9_Node000001_Node000010"><a xlink:title=" ">
<path fill="none" stroke="#63b8ff" d="M338.06,-58.54C384.22,-48.88 453.56,-34.37 523.22,-19.75"/>
<polygon fill="#63b8ff" stroke="#63b8ff" points="523.85,-23.2 532.92,-17.72 522.41,-16.35 523.85,-23.2"/>
</a>
</g>
</g>
</g>
</svg>
