<?xml version="1.0" encoding="UTF-8" standalone="no"?>
<!DOCTYPE svg PUBLIC "-//W3C//DTD SVG 1.1//EN"
 "http://www.w3.org/Graphics/SVG/1.1/DTD/svg11.dtd">
<!-- Generated by graphviz version 12.2.1 (20241206.2353)
 -->
<!-- Title: TMC2208Stepper::push Pages: 1 -->
<!--zoomable 345 -->

<svg id="main" version="1.1" xmlns="http://www.w3.org/2000/svg" xmlns:xlink="http://www.w3.org/1999/xlink" xml:space="preserve" onload="init(evt)">

<style type="text/css"><![CDATA[
.node, .edge {opacity: 0.7;}
.node.selected, .edge.selected {opacity: 1;}
.edge:hover path { stroke: red; }
.edge:hover polygon { stroke: red; fill: red; }
]]></style>

<defs>
  <circle id="rim" cx="0" cy="0" r="7"/>
  <circle id="rim2" cx="0" cy="0" r="3.5"/>
  <g id="zoomPlus">
    <use xlink:href="#rim" fill="#404040"><set attributeName="fill" to="#808080" begin="zoomplus.mouseover" end="zoomplus.mouseout"/></use>
    <path d="M-4,0h8M0,-4v8" fill="none" stroke="white" stroke-width="1.5" pointer-events="none"/>
  </g>
  <g id="zoomMin">
    <use xlink:href="#rim" fill="#404040"><set attributeName="fill" to="#808080" begin="zoomminus.mouseover" end="zoomminus.mouseout"/></use>
    <path d="M-4,0h8" fill="none" stroke="white" stroke-width="1.5" pointer-events="none"/>
  </g>
  <g id="arrowUp" transform="translate(30 24)">
    <use xlink:href="#rim"/>
    <path pointer-events="none" fill="none" stroke="white" stroke-width="1.5" d="M0,-3.0v7 M-2.5,-0.5L0,-3.0L2.5,-0.5"/>
  </g>
  <g id="arrowRight" transform="rotate(90) translate(36 -43)">
    <use xlink:href="#rim"/>
    <path pointer-events="none" fill="none" stroke="white" stroke-width="1.5" d="M0,-3.0v7 M-2.5,-0.5L0,-3.0L2.5,-0.5"/>
  </g>
  <g id="arrowDown" transform="rotate(180) translate(-30 -48)">
    <use xlink:href="#rim"/>
    <path pointer-events="none" fill="none" stroke="white" stroke-width="1.5" d="M0,-3.0v7 M-2.5,-0.5L0,-3.0L2.5,-0.5"/>
  </g>
  <g id="arrowLeft" transform="rotate(270) translate(-36 17)">
    <use xlink:href="#rim"/>
    <path pointer-events="none" fill="none" stroke="white" stroke-width="1.5" d="M0,-3.0v7 M-2.5,-0.5L0,-3.0L2.5,-0.5"/>
  </g>
  <g id="resetDef">
    <use xlink:href="#rim2" fill="#404040"><set attributeName="fill" to="#808080" begin="reset.mouseover" end="reset.mouseout"/></use>
  </g>
</defs>
<script type="application/ecmascript">
var viewWidth = 896;
var viewHeight = 345;
var sectionId = 'dynsection-112';
</script>
<script type="application/ecmascript" xlink:href="svg.min.js"/>
<svg id="graph" class="graph">
<g id="viewport">
<title>TMC2208Stepper::push</title>
<!-- Node1 -->
<g id="Node000001" class="node">
<title>Node1</title>
<g id="a_Node000001"><a xlink:title=" ">
<polygon fill="#999999" stroke="#666666" points="119.5,-148.25 0,-148.25 0,-129 119.5,-129 119.5,-148.25"/>
<text text-anchor="middle" x="59.75" y="-134.75" font-family="Helvetica,sans-Serif" font-size="10.00">TMC2208Stepper::push</text>
</a>
</g>
</g>
<!-- Node2 -->
<g id="Node000002" class="node">
<title>Node2</title>
<g id="a_Node000002"><a xlink:href="class_t_m_c2208_stepper.html#aa11281f54c293f3ff2539b1a583682a9" target="_top" xlink:title=" ">
<polygon fill="white" stroke="#666666" points="312.5,-278.25 156.25,-278.25 156.25,-259 312.5,-259 312.5,-278.25"/>
<text text-anchor="middle" x="234.38" y="-264.75" font-family="Helvetica,sans-Serif" font-size="10.00">TMC2208Stepper::CHOPCONF</text>
</a>
</g>
</g>
<!-- Node1&#45;&gt;Node2 -->
<g id="edge1_Node000001_Node000002" class="edge">
<title>Node1&#45;&gt;Node2</title>
<g id="a_edge1_Node000001_Node000002"><a xlink:title=" ">
<path fill="none" stroke="#63b8ff" d="M66.13,-148.55C78.65,-170.66 112.02,-224.09 155.5,-250.62 157.54,-251.87 159.65,-253.02 161.82,-254.1"/>
<polygon fill="#63b8ff" stroke="#63b8ff" points="160.37,-257.29 170.94,-257.99 163.11,-250.85 160.37,-257.29"/>
</a>
</g>
</g>
<!-- Node11 -->
<g id="Node000011" class="node">
<title>Node11</title>
<g id="a_Node000011"><a xlink:href="class_t_m_c2208_stepper.html#a549db4f962d4ae698dda33ef9a708e33" target="_top" xlink:title=" ">
<polygon fill="white" stroke="#666666" points="301.62,-241.25 167.12,-241.25 167.12,-222 301.62,-222 301.62,-241.25"/>
<text text-anchor="middle" x="234.38" y="-227.75" font-family="Helvetica,sans-Serif" font-size="10.00">TMC2208Stepper::GCONF</text>
</a>
</g>
</g>
<!-- Node1&#45;&gt;Node11 -->
<g id="edge10_Node000001_Node000011" class="edge">
<title>Node1&#45;&gt;Node11</title>
<g id="a_edge10_Node000001_Node000011"><a xlink:title=" ">
<path fill="none" stroke="#63b8ff" d="M70.24,-148.59C86.25,-164.78 120.34,-196.71 155.5,-213.62 158.75,-215.19 162.15,-216.62 165.62,-217.93"/>
<polygon fill="#63b8ff" stroke="#63b8ff" points="164.19,-221.14 174.79,-221.03 166.43,-214.51 164.19,-221.14"/>
</a>
</g>
</g>
<!-- Node12 -->
<g id="Node000012" class="node">
<title>Node12</title>
<g id="a_Node000012"><a xlink:href="class_t_m_c_stepper.html#a597bc308bad0d1198b98c48a6ef34fc3" target="_top" xlink:title=" ">
<polygon fill="white" stroke="#666666" points="303.88,-204.25 164.88,-204.25 164.88,-185 303.88,-185 303.88,-204.25"/>
<text text-anchor="middle" x="234.38" y="-190.75" font-family="Helvetica,sans-Serif" font-size="10.00">TMCStepper::IHOLD_IRUN</text>
</a>
</g>
</g>
<!-- Node1&#45;&gt;Node12 -->
<g id="edge12_Node000001_Node000012" class="edge">
<title>Node1&#45;&gt;Node12</title>
<g id="a_edge12_Node000001_Node000012"><a xlink:title=" ">
<path fill="none" stroke="#63b8ff" d="M82.99,-148.68C101.97,-156.98 130.14,-168.66 155.5,-176.62 161.29,-178.44 167.38,-180.17 173.49,-181.77"/>
<polygon fill="#63b8ff" stroke="#63b8ff" points="172.44,-185.12 182.99,-184.17 174.15,-178.33 172.44,-185.12"/>
</a>
</g>
</g>
<!-- Node13 -->
<g id="Node000013" class="node">
<title>Node13</title>
<g id="a_Node000013"><a xlink:href="class_t_m_c2208_stepper.html#a7c2e849de2f2933ba9bf8ede8dc53f53" target="_top" xlink:title=" ">
<polygon fill="white" stroke="#666666" points="310.25,-167.25 158.5,-167.25 158.5,-148 310.25,-148 310.25,-167.25"/>
<text text-anchor="middle" x="234.38" y="-153.75" font-family="Helvetica,sans-Serif" font-size="10.00">TMC2208Stepper::PWMCONF</text>
</a>
</g>
</g>
<!-- Node1&#45;&gt;Node13 -->
<g id="edge13_Node000001_Node000013" class="edge">
<title>Node1&#45;&gt;Node13</title>
<g id="a_edge13_Node000001_Node000013"><a xlink:title=" ">
<path fill="none" stroke="#63b8ff" d="M119.67,-145.11C128.49,-146.08 137.74,-147.1 146.98,-148.12"/>
<polygon fill="#63b8ff" stroke="#63b8ff" points="146.41,-151.57 156.73,-149.19 147.17,-144.62 146.41,-151.57"/>
</a>
</g>
</g>
<!-- Node14 -->
<g id="Node000014" class="node">
<title>Node14</title>
<g id="a_Node000014"><a xlink:href="class_t_m_c2208_stepper.html#a7a0682fc7f4d103bf3ceee4cabb411bb" target="_top" xlink:title=" ">
<polygon fill="white" stroke="#666666" points="313.25,-130.25 155.5,-130.25 155.5,-111 313.25,-111 313.25,-130.25"/>
<text text-anchor="middle" x="234.38" y="-116.75" font-family="Helvetica,sans-Serif" font-size="10.00">TMC2208Stepper::SLAVECONF</text>
</a>
</g>
</g>
<!-- Node1&#45;&gt;Node14 -->
<g id="edge15_Node000001_Node000014" class="edge">
<title>Node1&#45;&gt;Node14</title>
<g id="a_edge15_Node000001_Node000014"><a xlink:title=" ">
<path fill="none" stroke="#63b8ff" d="M119.67,-132.48C127.53,-131.66 135.73,-130.81 143.96,-129.95"/>
<polygon fill="#63b8ff" stroke="#63b8ff" points="144.09,-133.45 153.67,-128.94 143.36,-126.49 144.09,-133.45"/>
</a>
</g>
</g>
<!-- Node15 -->
<g id="Node000015" class="node">
<title>Node15</title>
<g id="a_Node000015"><a xlink:href="class_t_m_c_stepper.html#a66812c883dfbb6dedc046a011b2564be" target="_top" xlink:title=" ">
<polygon fill="white" stroke="#666666" points="311.38,-93.25 157.38,-93.25 157.38,-74 311.38,-74 311.38,-93.25"/>
<text text-anchor="middle" x="234.38" y="-79.75" font-family="Helvetica,sans-Serif" font-size="10.00">TMCStepper::TPOWERDOWN</text>
</a>
</g>
</g>
<!-- Node1&#45;&gt;Node15 -->
<g id="edge16_Node000001_Node000015" class="edge">
<title>Node1&#45;&gt;Node15</title>
<g id="a_edge16_Node000001_Node000015"><a xlink:title=" ">
<path fill="none" stroke="#63b8ff" d="M83.78,-128.55C102.76,-120.5 130.53,-109.34 155.5,-101.62 161.38,-99.81 167.57,-98.08 173.77,-96.46"/>
<polygon fill="#63b8ff" stroke="#63b8ff" points="174.57,-99.87 183.43,-94.05 172.88,-93.08 174.57,-99.87"/>
</a>
</g>
</g>
<!-- Node16 -->
<g id="Node000016" class="node">
<title>Node16</title>
<g id="a_Node000016"><a xlink:href="class_t_m_c_stepper.html#ac59a9305aafc64a63698a34cac404788" target="_top" xlink:title=" ">
<polygon fill="white" stroke="#666666" points="302.38,-56.25 166.38,-56.25 166.38,-37 302.38,-37 302.38,-56.25"/>
<text text-anchor="middle" x="234.38" y="-42.75" font-family="Helvetica,sans-Serif" font-size="10.00">TMCStepper::TPWMTHRS</text>
</a>
</g>
</g>
<!-- Node1&#45;&gt;Node16 -->
<g id="edge17_Node000001_Node000016" class="edge">
<title>Node1&#45;&gt;Node16</title>
<g id="a_edge17_Node000001_Node000016"><a xlink:title=" ">
<path fill="none" stroke="#63b8ff" d="M70.53,-128.54C86.69,-112.49 120.65,-81.25 155.5,-64.62 158.82,-63.04 162.29,-61.59 165.83,-60.27"/>
<polygon fill="#63b8ff" stroke="#63b8ff" points="166.84,-63.62 175.22,-57.14 164.62,-56.98 166.84,-63.62"/>
</a>
</g>
</g>
<!-- Node17 -->
<g id="Node000017" class="node">
<title>Node17</title>
<g id="a_Node000017"><a xlink:href="class_t_m_c2208_stepper.html#a28b7ebef9a1f4b04d4b3b1e5e83ff76f" target="_top" xlink:title=" ">
<polygon fill="white" stroke="#666666" points="306.12,-19.25 162.62,-19.25 162.62,0 306.12,0 306.12,-19.25"/>
<text text-anchor="middle" x="234.38" y="-5.75" font-family="Helvetica,sans-Serif" font-size="10.00">TMC2208Stepper::VACTUAL</text>
</a>
</g>
</g>
<!-- Node1&#45;&gt;Node17 -->
<g id="edge18_Node000001_Node000017" class="edge">
<title>Node1&#45;&gt;Node17</title>
<g id="a_edge18_Node000001_Node000017"><a xlink:title=" ">
<path fill="none" stroke="#63b8ff" d="M66.15,-128.79C78.72,-106.88 112.19,-53.92 155.5,-27.62 157.54,-26.39 159.65,-25.23 161.83,-24.16"/>
<polygon fill="#63b8ff" stroke="#63b8ff" points="163.12,-27.42 170.95,-20.28 160.38,-20.97 163.12,-27.42"/>
</a>
</g>
</g>
<!-- Node3 -->
<g id="Node000003" class="node">
<title>Node3</title>
<g id="a_Node000003"><a xlink:href="class_t_m_c2208_stepper.html#a2fae2050849c3ab7968012def8ea1cc5" target="_top" xlink:title=" ">
<polygon fill="white" stroke="#666666" points="466.5,-241.25 349.25,-241.25 349.25,-222 466.5,-222 466.5,-241.25"/>
<text text-anchor="middle" x="407.88" y="-227.75" font-family="Helvetica,sans-Serif" font-size="10.00">TMC2208Stepper::read</text>
</a>
</g>
</g>
<!-- Node2&#45;&gt;Node3 -->
<g id="edge2_Node000002_Node000003" class="edge">
<title>Node2&#45;&gt;Node3</title>
<g id="a_edge2_Node000002_Node000003"><a xlink:title=" ">
<path fill="none" stroke="#63b8ff" d="M282.24,-258.51C302.84,-254.07 327.25,-248.8 348.98,-244.11"/>
<polygon fill="#63b8ff" stroke="#63b8ff" points="349.55,-247.57 358.59,-242.04 348.08,-240.73 349.55,-247.57"/>
</a>
</g>
</g>
<!-- Node4 -->
<g id="Node000004" class="node">
<title>Node4</title>
<g id="a_Node000004"><a xlink:href="class_t_m_c2208_stepper.html#a321ad81155b7a20c0858920d32d0b074" target="_top" xlink:title=" ">
<polygon fill="white" stroke="#666666" points="688,-300.25 520.5,-300.25 520.5,-281 688,-281 688,-300.25"/>
<text text-anchor="middle" x="604.25" y="-286.75" font-family="Helvetica,sans-Serif" font-size="10.00">TMC2208Stepper::_sendDatagram</text>
</a>
</g>
</g>
<!-- Node3&#45;&gt;Node4 -->
<g id="edge3_Node000003_Node000004" class="edge">
<title>Node3&#45;&gt;Node4</title>
<g id="a_edge3_Node000003_Node000004"><a xlink:title=" ">
<path fill="none" stroke="#63b8ff" d="M428.09,-241.65C446.67,-250.94 475.84,-264.53 502.5,-272.62 509.14,-274.64 516.1,-276.46 523.12,-278.1"/>
<polygon fill="#63b8ff" stroke="#63b8ff" points="522.18,-281.47 532.7,-280.2 523.68,-274.64 522.18,-281.47"/>
</a>
</g>
</g>
<!-- Node8 -->
<g id="Node000008" class="node">
<title>Node8</title>
<g id="a_Node000008"><a xlink:href="class_t_m_c2208_stepper.html#a409c19fa6b052a370a317d061bf9af4e" target="_top" xlink:title=" ">
<polygon fill="white" stroke="#666666" points="673.75,-263.25 534.75,-263.25 534.75,-244 673.75,-244 673.75,-263.25"/>
<text text-anchor="middle" x="604.25" y="-249.75" font-family="Helvetica,sans-Serif" font-size="10.00">TMC2208Stepper::calcCRC</text>
</a>
</g>
</g>
<!-- Node3&#45;&gt;Node8 -->
<g id="edge7_Node000003_Node000008" class="edge">
<title>Node3&#45;&gt;Node8</title>
<g id="a_edge7_Node000003_Node000008"><a xlink:title=" ">
<path fill="none" stroke="#63b8ff" d="M466.93,-238.2C484.62,-240.2 504.37,-242.43 523.24,-244.57"/>
<polygon fill="#63b8ff" stroke="#63b8ff" points="522.7,-248.03 533.03,-245.68 523.49,-241.07 522.7,-248.03"/>
</a>
</g>
</g>
<!-- Node9 -->
<g id="Node000009" class="node">
<title>Node9</title>
<g id="a_Node000009"><a xlink:href="class_t_m_c2208_stepper.html#ab3d186b27f45ec47c1cf0bf15ed4cd2e" target="_top" xlink:title=" ">
<polygon fill="white" stroke="#666666" points="674.5,-225.88 534,-225.88 534,-195.38 674.5,-195.38 674.5,-225.88"/>
<text text-anchor="start" x="542" y="-212.38" font-family="Helvetica,sans-Serif" font-size="10.00">TMC2208Stepper::postRead</text>
<text text-anchor="middle" x="604.25" y="-201.12" font-family="Helvetica,sans-Serif" font-size="10.00">Communication</text>
</a>
</g>
</g>
<!-- Node3&#45;&gt;Node9 -->
<g id="edge8_Node000003_Node000009" class="edge">
<title>Node3&#45;&gt;Node9</title>
<g id="a_edge8_Node000003_Node000009"><a xlink:title=" ">
<path fill="none" stroke="#63b8ff" d="M466.93,-225.35C484.43,-223.46 503.96,-221.35 522.65,-219.33"/>
<polygon fill="#63b8ff" stroke="#63b8ff" points="522.77,-222.84 532.33,-218.29 522.01,-215.88 522.77,-222.84"/>
</a>
</g>
</g>
<!-- Node10 -->
<g id="Node000010" class="node">
<title>Node10</title>
<g id="a_Node000010"><a xlink:href="class_t_m_c2208_stepper.html#a8c4f3ce4a964c9a03a1e14f47bf5bec3" target="_top" xlink:title=" ">
<polygon fill="white" stroke="#666666" points="706,-177.25 502.5,-177.25 502.5,-158 706,-158 706,-177.25"/>
<text text-anchor="middle" x="604.25" y="-163.75" font-family="Helvetica,sans-Serif" font-size="10.00">TMC2208Stepper::preReadCommunication</text>
</a>
</g>
</g>
<!-- Node3&#45;&gt;Node10 -->
<g id="edge9_Node000003_Node000010" class="edge">
<title>Node3&#45;&gt;Node10</title>
<g id="a_edge9_Node000003_Node000010"><a xlink:title=" ">
<path fill="none" stroke="#63b8ff" d="M426.25,-221.57C444.62,-211.34 474.74,-195.74 502.5,-186.62 509.8,-184.23 517.5,-182.1 525.26,-180.22"/>
<polygon fill="#63b8ff" stroke="#63b8ff" points="525.79,-183.69 534.76,-178.05 524.23,-176.86 525.79,-183.69"/>
</a>
</g>
</g>
<!-- Node5 -->
<g id="Node000005" class="node">
<title>Node5</title>
<g id="a_Node000005"><a xlink:href="class_t_m_c2208_stepper.html#aef33fe13c1d9c19e9ec9abc159147a5d" target="_top" xlink:title=" ">
<polygon fill="white" stroke="#666666" points="883.25,-337.25 746.5,-337.25 746.5,-318 883.25,-318 883.25,-337.25"/>
<text text-anchor="middle" x="814.88" y="-323.75" font-family="Helvetica,sans-Serif" font-size="10.00">TMC2208Stepper::available</text>
</a>
</g>
</g>
<!-- Node4&#45;&gt;Node5 -->
<g id="edge4_Node000004_Node000005" class="edge">
<title>Node4&#45;&gt;Node5</title>
<g id="a_edge4_Node000004_Node000005"><a xlink:title=" ">
<path fill="none" stroke="#63b8ff" d="M662.26,-300.74C688.02,-305.3 718.66,-310.74 745.63,-315.52"/>
<polygon fill="#63b8ff" stroke="#63b8ff" points="744.99,-318.96 755.45,-317.26 746.21,-312.07 744.99,-318.96"/>
</a>
</g>
</g>
<!-- Node6 -->
<g id="Node000006" class="node">
<title>Node6</title>
<g id="a_Node000006"><a xlink:href="class_t_m_c2208_stepper.html#a8214f87693050e222fc24be979f468e2" target="_top" xlink:title=" ">
<polygon fill="white" stroke="#666666" points="887.75,-300.25 742,-300.25 742,-281 887.75,-281 887.75,-300.25"/>
<text text-anchor="middle" x="814.88" y="-286.75" font-family="Helvetica,sans-Serif" font-size="10.00">TMC2208Stepper::serial_read</text>
</a>
</g>
</g>
<!-- Node4&#45;&gt;Node6 -->
<g id="edge5_Node000004_Node000006" class="edge">
<title>Node4&#45;&gt;Node6</title>
<g id="a_edge5_Node000004_Node000006"><a xlink:title=" ">
<path fill="none" stroke="#63b8ff" d="M688.3,-290.62C702.06,-290.62 716.34,-290.62 730.12,-290.62"/>
<polygon fill="#63b8ff" stroke="#63b8ff" points="730.04,-294.13 740.04,-290.63 730.04,-287.13 730.04,-294.13"/>
</a>
</g>
</g>
<!-- Node7 -->
<g id="Node000007" class="node">
<title>Node7</title>
<g id="a_Node000007"><a xlink:href="class_t_m_c2208_stepper.html#adb6243277ef84d2027b2b8bae6be5bd0" target="_top" xlink:title=" ">
<polygon fill="white" stroke="#666666" points="875.75,-262.88 754,-262.88 754,-232.38 875.75,-232.38 875.75,-262.88"/>
<text text-anchor="start" x="762" y="-249.38" font-family="Helvetica,sans-Serif" font-size="10.00">TMC2208Stepper::serial</text>
<text text-anchor="middle" x="814.88" y="-238.12" font-family="Helvetica,sans-Serif" font-size="10.00">_write</text>
</a>
</g>
</g>
<!-- Node4&#45;&gt;Node7 -->
<g id="edge6_Node000004_Node000007" class="edge">
<title>Node4&#45;&gt;Node7</title>
<g id="a_edge6_Node000004_Node000007"><a xlink:title=" ">
<path fill="none" stroke="#63b8ff" d="M664.75,-280.51C678.33,-278.06 692.68,-275.36 706,-272.62 717.82,-270.2 730.34,-267.46 742.49,-264.71"/>
<polygon fill="#63b8ff" stroke="#63b8ff" points="743.07,-268.16 752.04,-262.52 741.51,-261.34 743.07,-268.16"/>
</a>
</g>
</g>
<!-- Node11&#45;&gt;Node3 -->
<g id="edge11_Node000011_Node000003" class="edge">
<title>Node11&#45;&gt;Node3</title>
<g id="a_edge11_Node000011_Node000003"><a xlink:title=" ">
<path fill="none" stroke="#63b8ff" d="M301.68,-231.62C313.47,-231.62 325.77,-231.62 337.64,-231.62"/>
<polygon fill="#63b8ff" stroke="#63b8ff" points="337.33,-235.13 347.33,-231.63 337.33,-228.13 337.33,-235.13"/>
</a>
</g>
</g>
<!-- Node13&#45;&gt;Node3 -->
<g id="edge14_Node000013_Node000003" class="edge">
<title>Node13&#45;&gt;Node3</title>
<g id="a_edge14_Node000013_Node000003"><a xlink:title=" ">
<path fill="none" stroke="#63b8ff" d="M288.84,-167.65C297.15,-169.87 305.53,-172.51 313.25,-175.62 338.89,-185.96 365.73,-202.71 384.07,-215.21"/>
<polygon fill="#63b8ff" stroke="#63b8ff" points="381.87,-217.94 392.07,-220.78 385.86,-212.2 381.87,-217.94"/>
</a>
</g>
</g>
</g>
</svg>

<g id="navigator" transform="translate(0 0)" fill="#404254">
  <rect fill="#f2f5e9" fill-opacity="0.5" stroke="#606060" stroke-width=".5" x="0" y="0" width="60" height="60"/>
  <use id="zoomplus" xlink:href="#zoomPlus" x="17" y="9" onmousedown="handleZoom(evt,'in')"/>
  <use id="zoomminus" xlink:href="#zoomMin" x="42" y="9" onmousedown="handleZoom(evt,'out')"/>
  <use id="reset" xlink:href="#resetDef" x="30" y="36" onmousedown="handleReset()"/>
   <use id="arrowup" xlink:href="#arrowUp" x="0" y="0" onmousedown="handlePan(0,-1)"/>
  <use id="arrowright" xlink:href="#arrowRight" x="0" y="0" onmousedown="handlePan(1,0)"/>
  <use id="arrowdown" xlink:href="#arrowDown" x="0" y="0" onmousedown="handlePan(0,1)"/>
  <use id="arrowleft" xlink:href="#arrowLeft" x="0" y="0" onmousedown="handlePan(-1,0)"/>
</g>
<svg viewBox="0 0 15 15" width="100%" height="30px" preserveAspectRatio="xMaxYMin meet">
 <g id="arrow_out" transform="scale(0.3 0.3)">
  <a xlink:href="class_t_m_c2208_stepper_a8eb0d71fbfeeb24c9092328c44fab7e5_cgraph_org.svg" target="_base">
   <rect id="button" ry="5" rx="5" y="6" x="6" height="38" width="38"
        fill="#f2f5e9" fill-opacity="0.5" stroke="#606060" stroke-width="1.0"/>
   <path id="arrow"
     d="M 11.500037,31.436501 C 11.940474,20.09759 22.043105,11.32322 32.158766,21.979434 L 37.068811,17.246167 C 37.068811,17.246167 37.088388,32 37.088388,32 L 22.160133,31.978069 C 22.160133,31.978069 26.997745,27.140456 26.997745,27.140456 C 18.528582,18.264221 13.291696,25.230495 11.500037,31.436501 z"
     style="fill:#404040;"/>
  </a>
 </g>
</svg>

<style type='text/css'>
<![CDATA[
[data-mouse-over-selected='false'] { opacity: 0.7; }
[data-mouse-over-selected='true']  { opacity: 1.0; }
]]>
</style>
<script type="application/ecmascript"><![CDATA[
document.addEventListener('DOMContentLoaded', (event) => {
  highlightEdges();
  highlightAdjacentNodes();
});
]]></script>
</svg>
