<?xml version="1.0" encoding="UTF-8" standalone="no"?>
<!DOCTYPE svg PUBLIC "-//W3C//DTD SVG 1.1//EN"
 "http://www.w3.org/Graphics/SVG/1.1/DTD/svg11.dtd">
<!-- Generated by graphviz version 12.2.1 (20241206.2353)
 -->
<!-- Title: TMC2240Stepper::ihold Pages: 1 -->
<svg width="433pt" height="51pt"
 viewBox="0.00 0.00 432.50 50.88" xmlns="http://www.w3.org/2000/svg" xmlns:xlink="http://www.w3.org/1999/xlink">
<g id="graph0" class="graph" transform="scale(1 1) rotate(0) translate(4 46.88)">
<title>TMC2240Stepper::ihold</title>
<!-- Node1 -->
<g id="Node000001" class="node">
<title>Node1</title>
<g id="a_Node000001"><a xlink:title=" ">
<polygon fill="#999999" stroke="#666666" points="424.5,-24.88 305.75,-24.88 305.75,-5.63 424.5,-5.63 424.5,-24.88"/>
<text text-anchor="middle" x="365.12" y="-11.38" font-family="Helvetica,sans-Serif" font-size="10.00">TMC2240Stepper::ihold</text>
</a>
</g>
</g>
<!-- Node1&#45;&gt;Node1 -->
<g id="edge3_Node000001_Node000001" class="edge">
<title>Node1&#45;&gt;Node1</title>
<g id="a_edge3_Node000001_Node000001"><a xlink:title=" ">
<path fill="none" stroke="#63b8ff" d="M392.87,-35.94C389.68,-39.99 380.43,-42.88 365.12,-42.88 337.92,-42.88 329.85,-33.77 340.9,-25.16"/>
<polygon fill="#63b8ff" stroke="#63b8ff" points="396.25,-35.02 389.82,-26.6 389.6,-37.19 396.25,-35.02"/>
</a>
</g>
</g>
<!-- Node2 -->
<g id="Node000002" class="node">
<title>Node2</title>
<g id="a_Node000002"><a xlink:href="class_t_m_c2240_stepper.html#a1c9ab690ef294eee252ccb1c8cf4badc" target="_top" xlink:title=" ">
<polygon fill="white" stroke="#666666" points="269.75,-24.88 151,-24.88 151,-5.63 269.75,-5.63 269.75,-24.88"/>
<text text-anchor="middle" x="210.38" y="-11.38" font-family="Helvetica,sans-Serif" font-size="10.00">TMC2240Stepper::ihold</text>
</a>
</g>
</g>
<!-- Node1&#45;&gt;Node2 -->
<g id="edge1_Node000001_Node000002" class="edge">
<title>Node1&#45;&gt;Node2</title>
<g id="a_edge1_Node000001_Node000002"><a xlink:title=" ">
<path fill="none" stroke="#63b8ff" d="M294.21,-15.25C286.14,-15.25 277.98,-15.25 270.09,-15.25"/>
<polygon fill="#63b8ff" stroke="#63b8ff" points="293.99,-18.75 303.99,-15.25 293.99,-11.75 293.99,-18.75"/>
</a>
</g>
</g>
<!-- Node3 -->
<g id="Node000003" class="node">
<title>Node3</title>
<g id="a_Node000003"><a xlink:href="class_t_m_c2240_stepper.html#a5f704f4ebe14d5a2ad74c08fcaf4d549" target="_top" xlink:title=" ">
<polygon fill="white" stroke="#666666" points="115,-30.5 0,-30.5 0,0 115,0 115,-30.5"/>
<text text-anchor="start" x="8" y="-17" font-family="Helvetica,sans-Serif" font-size="10.00">TMC2240Stepper::rms</text>
<text text-anchor="middle" x="57.5" y="-5.75" font-family="Helvetica,sans-Serif" font-size="10.00">_current</text>
</a>
</g>
</g>
<!-- Node2&#45;&gt;Node3 -->
<g id="edge2_Node000002_Node000003" class="edge">
<title>Node2&#45;&gt;Node3</title>
<g id="a_edge2_Node000002_Node000003"><a xlink:title=" ">
<path fill="none" stroke="#63b8ff" d="M139.35,-15.25C131.32,-15.25 123.2,-15.25 115.37,-15.25"/>
<polygon fill="#63b8ff" stroke="#63b8ff" points="139.1,-18.75 149.1,-15.25 139.1,-11.75 139.1,-18.75"/>
</a>
</g>
</g>
</g>
</svg>
