<?xml version="1.0" encoding="UTF-8" standalone="no"?>
<!DOCTYPE svg PUBLIC "-//W3C//DTD SVG 1.1//EN"
 "http://www.w3.org/Graphics/SVG/1.1/DTD/svg11.dtd">
<!-- Generated by graphviz version 12.2.1 (20241206.2353)
 -->
<!-- Title: TMC2208Stepper::read Pages: 1 -->
<svg width="547pt" height="187pt"
 viewBox="0.00 0.00 546.50 187.25" xmlns="http://www.w3.org/2000/svg" xmlns:xlink="http://www.w3.org/1999/xlink">
<g id="graph0" class="graph" transform="scale(1 1) rotate(0) translate(4 183.25)">
<title>TMC2208Stepper::read</title>
<!-- Node1 -->
<g id="Node000001" class="node">
<title>Node1</title>
<g id="a_Node000001"><a xlink:title=" ">
<polygon fill="#999999" stroke="#666666" points="117.25,-83.25 0,-83.25 0,-64 117.25,-64 117.25,-83.25"/>
<text text-anchor="middle" x="58.62" y="-69.75" font-family="Helvetica,sans-Serif" font-size="10.00">TMC2208Stepper::read</text>
</a>
</g>
</g>
<!-- Node2 -->
<g id="Node000002" class="node">
<title>Node2</title>
<g id="a_Node000002"><a xlink:href="class_t_m_c2208_stepper.html#a321ad81155b7a20c0858920d32d0b074" target="_top" xlink:title=" ">
<polygon fill="white" stroke="#666666" points="338.75,-142.25 171.25,-142.25 171.25,-123 338.75,-123 338.75,-142.25"/>
<text text-anchor="middle" x="255" y="-128.75" font-family="Helvetica,sans-Serif" font-size="10.00">TMC2208Stepper::_sendDatagram</text>
</a>
</g>
</g>
<!-- Node1&#45;&gt;Node2 -->
<g id="edge1_Node000001_Node000002" class="edge">
<title>Node1&#45;&gt;Node2</title>
<g id="a_edge1_Node000001_Node000002"><a xlink:title=" ">
<path fill="none" stroke="#63b8ff" d="M78.84,-83.65C97.42,-92.94 126.59,-106.53 153.25,-114.62 159.89,-116.64 166.85,-118.46 173.87,-120.1"/>
<polygon fill="#63b8ff" stroke="#63b8ff" points="172.93,-123.47 183.45,-122.2 174.43,-116.64 172.93,-123.47"/>
</a>
</g>
</g>
<!-- Node6 -->
<g id="Node000006" class="node">
<title>Node6</title>
<g id="a_Node000006"><a xlink:href="class_t_m_c2208_stepper.html#a409c19fa6b052a370a317d061bf9af4e" target="_top" xlink:title=" ">
<polygon fill="white" stroke="#666666" points="324.5,-105.25 185.5,-105.25 185.5,-86 324.5,-86 324.5,-105.25"/>
<text text-anchor="middle" x="255" y="-91.75" font-family="Helvetica,sans-Serif" font-size="10.00">TMC2208Stepper::calcCRC</text>
</a>
</g>
</g>
<!-- Node1&#45;&gt;Node6 -->
<g id="edge5_Node000001_Node000006" class="edge">
<title>Node1&#45;&gt;Node6</title>
<g id="a_edge5_Node000001_Node000006"><a xlink:title=" ">
<path fill="none" stroke="#63b8ff" d="M117.68,-80.2C135.37,-82.2 155.12,-84.43 173.99,-86.57"/>
<polygon fill="#63b8ff" stroke="#63b8ff" points="173.45,-90.03 183.78,-87.68 174.24,-83.07 173.45,-90.03"/>
</a>
</g>
</g>
<!-- Node7 -->
<g id="Node000007" class="node">
<title>Node7</title>
<g id="a_Node000007"><a xlink:href="class_t_m_c2208_stepper.html#ab3d186b27f45ec47c1cf0bf15ed4cd2e" target="_top" xlink:title=" ">
<polygon fill="white" stroke="#666666" points="325.25,-67.88 184.75,-67.88 184.75,-37.38 325.25,-37.38 325.25,-67.88"/>
<text text-anchor="start" x="192.75" y="-54.38" font-family="Helvetica,sans-Serif" font-size="10.00">TMC2208Stepper::postRead</text>
<text text-anchor="middle" x="255" y="-43.12" font-family="Helvetica,sans-Serif" font-size="10.00">Communication</text>
</a>
</g>
</g>
<!-- Node1&#45;&gt;Node7 -->
<g id="edge6_Node000001_Node000007" class="edge">
<title>Node1&#45;&gt;Node7</title>
<g id="a_edge6_Node000001_Node000007"><a xlink:title=" ">
<path fill="none" stroke="#63b8ff" d="M117.68,-67.35C135.18,-65.46 154.71,-63.35 173.4,-61.33"/>
<polygon fill="#63b8ff" stroke="#63b8ff" points="173.52,-64.84 183.08,-60.29 172.76,-57.88 173.52,-64.84"/>
</a>
</g>
</g>
<!-- Node8 -->
<g id="Node000008" class="node">
<title>Node8</title>
<g id="a_Node000008"><a xlink:href="class_t_m_c2208_stepper.html#a8c4f3ce4a964c9a03a1e14f47bf5bec3" target="_top" xlink:title=" ">
<polygon fill="white" stroke="#666666" points="356.75,-19.25 153.25,-19.25 153.25,0 356.75,0 356.75,-19.25"/>
<text text-anchor="middle" x="255" y="-5.75" font-family="Helvetica,sans-Serif" font-size="10.00">TMC2208Stepper::preReadCommunication</text>
</a>
</g>
</g>
<!-- Node1&#45;&gt;Node8 -->
<g id="edge7_Node000001_Node000008" class="edge">
<title>Node1&#45;&gt;Node8</title>
<g id="a_edge7_Node000001_Node000008"><a xlink:title=" ">
<path fill="none" stroke="#63b8ff" d="M77,-63.57C95.37,-53.34 125.49,-37.74 153.25,-28.62 160.55,-26.23 168.25,-24.1 176.01,-22.22"/>
<polygon fill="#63b8ff" stroke="#63b8ff" points="176.54,-25.69 185.51,-20.05 174.98,-18.86 176.54,-25.69"/>
</a>
</g>
</g>
<!-- Node3 -->
<g id="Node000003" class="node">
<title>Node3</title>
<g id="a_Node000003"><a xlink:href="class_t_m_c2208_stepper.html#aef33fe13c1d9c19e9ec9abc159147a5d" target="_top" xlink:title=" ">
<polygon fill="white" stroke="#666666" points="534,-179.25 397.25,-179.25 397.25,-160 534,-160 534,-179.25"/>
<text text-anchor="middle" x="465.62" y="-165.75" font-family="Helvetica,sans-Serif" font-size="10.00">TMC2208Stepper::available</text>
</a>
</g>
</g>
<!-- Node2&#45;&gt;Node3 -->
<g id="edge2_Node000002_Node000003" class="edge">
<title>Node2&#45;&gt;Node3</title>
<g id="a_edge2_Node000002_Node000003"><a xlink:title=" ">
<path fill="none" stroke="#63b8ff" d="M313.01,-142.74C338.77,-147.3 369.41,-152.74 396.38,-157.52"/>
<polygon fill="#63b8ff" stroke="#63b8ff" points="395.74,-160.96 406.2,-159.26 396.96,-154.07 395.74,-160.96"/>
</a>
</g>
</g>
<!-- Node4 -->
<g id="Node000004" class="node">
<title>Node4</title>
<g id="a_Node000004"><a xlink:href="class_t_m_c2208_stepper.html#a8214f87693050e222fc24be979f468e2" target="_top" xlink:title=" ">
<polygon fill="white" stroke="#666666" points="538.5,-142.25 392.75,-142.25 392.75,-123 538.5,-123 538.5,-142.25"/>
<text text-anchor="middle" x="465.62" y="-128.75" font-family="Helvetica,sans-Serif" font-size="10.00">TMC2208Stepper::serial_read</text>
</a>
</g>
</g>
<!-- Node2&#45;&gt;Node4 -->
<g id="edge3_Node000002_Node000004" class="edge">
<title>Node2&#45;&gt;Node4</title>
<g id="a_edge3_Node000002_Node000004"><a xlink:title=" ">
<path fill="none" stroke="#63b8ff" d="M339.05,-132.62C352.81,-132.62 367.09,-132.62 380.87,-132.62"/>
<polygon fill="#63b8ff" stroke="#63b8ff" points="380.79,-136.13 390.79,-132.63 380.79,-129.13 380.79,-136.13"/>
</a>
</g>
</g>
<!-- Node5 -->
<g id="Node000005" class="node">
<title>Node5</title>
<g id="a_Node000005"><a xlink:href="class_t_m_c2208_stepper.html#adb6243277ef84d2027b2b8bae6be5bd0" target="_top" xlink:title=" ">
<polygon fill="white" stroke="#666666" points="526.5,-104.88 404.75,-104.88 404.75,-74.38 526.5,-74.38 526.5,-104.88"/>
<text text-anchor="start" x="412.75" y="-91.38" font-family="Helvetica,sans-Serif" font-size="10.00">TMC2208Stepper::serial</text>
<text text-anchor="middle" x="465.62" y="-80.12" font-family="Helvetica,sans-Serif" font-size="10.00">_write</text>
</a>
</g>
</g>
<!-- Node2&#45;&gt;Node5 -->
<g id="edge4_Node000002_Node000005" class="edge">
<title>Node2&#45;&gt;Node5</title>
<g id="a_edge4_Node000002_Node000005"><a xlink:title=" ">
<path fill="none" stroke="#63b8ff" d="M315.5,-122.51C329.08,-120.06 343.43,-117.36 356.75,-114.62 368.57,-112.2 381.09,-109.46 393.24,-106.71"/>
<polygon fill="#63b8ff" stroke="#63b8ff" points="393.82,-110.16 402.79,-104.52 392.26,-103.34 393.82,-110.16"/>
</a>
</g>
</g>
</g>
</svg>
