<?xml version="1.0" encoding="UTF-8" standalone="no"?>
<!DOCTYPE svg PUBLIC "-//W3C//DTD SVG 1.1//EN"
 "http://www.w3.org/Graphics/SVG/1.1/DTD/svg11.dtd">
<!-- Generated by graphviz version 12.2.1 (20241206.2353)
 -->
<!-- Title: TMC2130Stepper::XDIRECT Pages: 1 -->
<svg width="313pt" height="261pt"
 viewBox="0.00 0.00 313.00 261.25" xmlns="http://www.w3.org/2000/svg" xmlns:xlink="http://www.w3.org/1999/xlink">

<svg id="main" version="1.1" xmlns="http://www.w3.org/2000/svg" xmlns:xlink="http://www.w3.org/1999/xlink" xml:space="preserve">

<style type="text/css"><![CDATA[
.node, .edge {opacity: 0.7;}
.node.selected, .edge.selected {opacity: 1;}
.edge:hover path { stroke: red; }
.edge:hover polygon { stroke: red; fill: red; }
]]></style>
<script type="application/ecmascript" xlink:href="svg.min.js"/>
<svg id="graph" class="graph">
<g id="graph0" class="graph" transform="scale(1 1) rotate(0) translate(4 257.25)">
<title>TMC2130Stepper::XDIRECT</title>
<!-- Node1 -->
<g id="Node000001" class="node">
<title>Node1</title>
<g id="a_Node000001"><a xlink:title=" ">
<polygon fill="#999999" stroke="#666666" points="305,-130.25 161.5,-130.25 161.5,-111 305,-111 305,-130.25"/>
<text text-anchor="middle" x="233.25" y="-116.75" font-family="Helvetica,sans-Serif" font-size="10.00">TMC2130Stepper::XDIRECT</text>
</a>
</g>
</g>
<!-- Node2 -->
<g id="Node000002" class="node">
<title>Node2</title>
<g id="a_Node000002"><a xlink:href="class_t_m_c2130_stepper.html#ac05adb95ef728ef435bf8798adeda888" target="_top" xlink:title=" ">
<polygon fill="white" stroke="#666666" points="125.5,-253.25 0,-253.25 0,-234 125.5,-234 125.5,-253.25"/>
<text text-anchor="middle" x="62.75" y="-239.75" font-family="Helvetica,sans-Serif" font-size="10.00">TMC2130Stepper::coil_A</text>
</a>
</g>
</g>
<!-- Node1&#45;&gt;Node2 -->
<g id="edge1_Node000001_Node000002" class="edge">
<title>Node1&#45;&gt;Node2</title>
<g id="a_edge1_Node000001_Node000002"><a xlink:title=" ">
<path fill="none" stroke="#63b8ff" d="M217.89,-139.66C199.15,-163.21 164.15,-202.96 125.5,-225.62 120.2,-228.73 114.33,-231.33 108.38,-233.51"/>
<polygon fill="#63b8ff" stroke="#63b8ff" points="220.59,-141.9 223.96,-131.85 215.06,-137.6 220.59,-141.9"/>
</a>
</g>
</g>
<!-- Node3 -->
<g id="Node000003" class="node">
<title>Node3</title>
<g id="a_Node000003"><a xlink:href="class_t_m_c2130_stepper.html#a43481d6754741d995b69a82e83076573" target="_top" xlink:title=" ">
<polygon fill="white" stroke="#666666" points="125.5,-216.25 0,-216.25 0,-197 125.5,-197 125.5,-216.25"/>
<text text-anchor="middle" x="62.75" y="-202.75" font-family="Helvetica,sans-Serif" font-size="10.00">TMC2130Stepper::coil_B</text>
</a>
</g>
</g>
<!-- Node1&#45;&gt;Node3 -->
<g id="edge2_Node000001_Node000003" class="edge">
<title>Node1&#45;&gt;Node3</title>
<g id="a_edge2_Node000001_Node000003"><a xlink:title=" ">
<path fill="none" stroke="#63b8ff" d="M209.43,-137.43C188.47,-152.25 156.1,-173.61 125.5,-187.62 118.16,-190.99 110.06,-193.96 102.21,-196.5"/>
<polygon fill="#63b8ff" stroke="#63b8ff" points="211.44,-140.29 217.52,-131.62 207.36,-134.61 211.44,-140.29"/>
</a>
</g>
</g>
<!-- Node4 -->
<g id="Node000004" class="node">
<title>Node4</title>
<g id="a_Node000004"><a xlink:href="class_t_m_c2130_stepper.html#a4523787d983961ba681e8c77075c30ac" target="_top" xlink:title=" ">
<polygon fill="white" stroke="#666666" points="121.75,-178.88 3.75,-178.88 3.75,-148.38 121.75,-148.38 121.75,-178.88"/>
<text text-anchor="start" x="11.75" y="-165.38" font-family="Helvetica,sans-Serif" font-size="10.00">TMC2130Stepper::INIT</text>
<text text-anchor="middle" x="62.75" y="-154.12" font-family="Helvetica,sans-Serif" font-size="10.00">_REGISTER</text>
</a>
</g>
</g>
<!-- Node1&#45;&gt;Node4 -->
<g id="edge3_Node000001_Node000004" class="edge">
<title>Node1&#45;&gt;Node4</title>
<g id="a_edge3_Node000001_Node000004"><a xlink:title=" ">
<path fill="none" stroke="#63b8ff" d="M181.75,-133.51C163,-138.3 141.58,-143.76 122.17,-148.72"/>
<polygon fill="#63b8ff" stroke="#63b8ff" points="182.45,-136.94 191.28,-131.08 180.72,-130.16 182.45,-136.94"/>
</a>
</g>
</g>
<!-- Node5 -->
<g id="Node000005" class="node">
<title>Node5</title>
<g id="a_Node000005"><a xlink:href="class_t_m_c2130_stepper.html#ac62d32ad08be0a34b411bdd5a8489246" target="_top" xlink:title=" ">
<polygon fill="white" stroke="#666666" points="122.5,-130.25 3,-130.25 3,-111 122.5,-111 122.5,-130.25"/>
<text text-anchor="middle" x="62.75" y="-116.75" font-family="Helvetica,sans-Serif" font-size="10.00">TMC2130Stepper::push</text>
</a>
</g>
</g>
<!-- Node1&#45;&gt;Node5 -->
<g id="edge4_Node000001_Node000005" class="edge">
<title>Node1&#45;&gt;Node5</title>
<g id="a_edge4_Node000001_Node000005"><a xlink:title=" ">
<path fill="none" stroke="#63b8ff" d="M149.83,-120.62C140.75,-120.62 131.64,-120.62 122.93,-120.62"/>
<polygon fill="#63b8ff" stroke="#63b8ff" points="149.77,-124.13 159.77,-120.63 149.77,-117.13 149.77,-124.13"/>
</a>
</g>
</g>
<!-- Node6 -->
<g id="Node000006" class="node">
<title>Node6</title>
<g id="a_Node000006"><a xlink:href="class_t_m_c2160_stepper.html#ae8035a0cb8151d5227d8528e540e637d" target="_top" xlink:title=" ">
<polygon fill="white" stroke="#666666" points="122.5,-93.25 3,-93.25 3,-74 122.5,-74 122.5,-93.25"/>
<text text-anchor="middle" x="62.75" y="-79.75" font-family="Helvetica,sans-Serif" font-size="10.00">TMC2160Stepper::push</text>
</a>
</g>
</g>
<!-- Node1&#45;&gt;Node6 -->
<g id="edge5_Node000001_Node000006" class="edge">
<title>Node1&#45;&gt;Node6</title>
<g id="a_edge5_Node000001_Node000006"><a xlink:title=" ">
<path fill="none" stroke="#63b8ff" d="M175.02,-108.06C153.74,-103.38 129.88,-98.15 109.74,-93.72"/>
<polygon fill="#63b8ff" stroke="#63b8ff" points="174.21,-111.46 184.73,-110.19 175.71,-104.63 174.21,-111.46"/>
</a>
</g>
</g>
<!-- Node7 -->
<g id="Node000007" class="node">
<title>Node7</title>
<g id="a_Node000007"><a xlink:href="class_t_m_c5130_stepper.html#a55e61f5181d74f26c9d35c54e4436d7a" target="_top" xlink:title=" ">
<polygon fill="white" stroke="#666666" points="122.5,-56.25 3,-56.25 3,-37 122.5,-37 122.5,-56.25"/>
<text text-anchor="middle" x="62.75" y="-42.75" font-family="Helvetica,sans-Serif" font-size="10.00">TMC5130Stepper::push</text>
</a>
</g>
</g>
<!-- Node1&#45;&gt;Node7 -->
<g id="edge6_Node000001_Node000007" class="edge">
<title>Node1&#45;&gt;Node7</title>
<g id="a_edge6_Node000001_Node000007"><a xlink:title=" ">
<path fill="none" stroke="#63b8ff" d="M205.88,-104.89C184.69,-92.73 153.89,-76.08 125.5,-64.62 118.25,-61.7 110.35,-59.03 102.69,-56.69"/>
<polygon fill="#63b8ff" stroke="#63b8ff" points="204.02,-107.86 214.43,-109.87 207.55,-101.81 204.02,-107.86"/>
</a>
</g>
</g>
<!-- Node8 -->
<g id="Node000008" class="node">
<title>Node8</title>
<g id="a_Node000008"><a xlink:href="class_t_m_c5160_stepper.html#a5a12974304588f9d01898d91ba854b87" target="_top" xlink:title=" ">
<polygon fill="white" stroke="#666666" points="122.5,-19.25 3,-19.25 3,0 122.5,0 122.5,-19.25"/>
<text text-anchor="middle" x="62.75" y="-5.75" font-family="Helvetica,sans-Serif" font-size="10.00">TMC5160Stepper::push</text>
</a>
</g>
</g>
<!-- Node1&#45;&gt;Node8 -->
<g id="edge7_Node000001_Node000008" class="edge">
<title>Node1&#45;&gt;Node8</title>
<g id="a_edge7_Node000001_Node000008"><a xlink:title=" ">
<path fill="none" stroke="#63b8ff" d="M215.97,-102.28C196.44,-81.34 161.76,-47.44 125.5,-27.62 119.82,-24.52 113.54,-21.9 107.23,-19.7"/>
<polygon fill="#63b8ff" stroke="#63b8ff" points="213.25,-104.49 222.58,-109.52 218.42,-99.77 213.25,-104.49"/>
</a>
</g>
</g>
</g>
</svg>
</svg>

<style type='text/css'>
<![CDATA[
[data-mouse-over-selected='false'] { opacity: 0.7; }
[data-mouse-over-selected='true']  { opacity: 1.0; }
]]>
</style>
<script type="application/ecmascript"><![CDATA[
document.addEventListener('DOMContentLoaded', (event) => {
  highlightEdges();
  highlightAdjacentNodes();
});
]]></script>
</svg>
