<?xml version="1.0" encoding="UTF-8" standalone="no"?>
<!DOCTYPE svg PUBLIC "-//W3C//DTD SVG 1.1//EN"
 "http://www.w3.org/Graphics/SVG/1.1/DTD/svg11.dtd">
<!-- Generated by graphviz version 12.2.1 (20241206.2353)
 -->
<!-- Title: TMC2240Stepper::mres Pages: 1 -->
<svg width="467pt" height="64pt"
 viewBox="0.00 0.00 467.00 64.25" xmlns="http://www.w3.org/2000/svg" xmlns:xlink="http://www.w3.org/1999/xlink">

<svg id="main" version="1.1" xmlns="http://www.w3.org/2000/svg" xmlns:xlink="http://www.w3.org/1999/xlink" xml:space="preserve">

<style type="text/css"><![CDATA[
.node, .edge {opacity: 0.7;}
.node.selected, .edge.selected {opacity: 1;}
.edge:hover path { stroke: red; }
.edge:hover polygon { stroke: red; fill: red; }
]]></style>
<script type="application/ecmascript" xlink:href="svg.min.js"/>
<svg id="graph" class="graph">
<g id="graph0" class="graph" transform="scale(1 1) rotate(0) translate(4 60.25)">
<title>TMC2240Stepper::mres</title>
<!-- Node1 -->
<g id="Node000001" class="node">
<title>Node1</title>
<g id="a_Node000001"><a xlink:title=" ">
<polygon fill="#999999" stroke="#666666" points="459,-37.25 338.75,-37.25 338.75,-18 459,-18 459,-37.25"/>
<text text-anchor="middle" x="398.88" y="-23.75" font-family="Helvetica,sans-Serif" font-size="10.00">TMC2240Stepper::mres</text>
</a>
</g>
</g>
<!-- Node1&#45;&gt;Node1 -->
<g id="edge4_Node000001_Node000001" class="edge">
<title>Node1&#45;&gt;Node1</title>
<g id="a_edge4_Node000001_Node000001"><a xlink:title=" ">
<path fill="none" stroke="#63b8ff" d="M426.89,-48.32C423.66,-52.37 414.32,-55.25 398.88,-55.25 371.41,-55.25 363.26,-46.15 374.41,-37.54"/>
<polygon fill="#63b8ff" stroke="#63b8ff" points="430.27,-47.38 423.81,-38.98 423.62,-49.57 430.27,-47.38"/>
</a>
</g>
</g>
<!-- Node2 -->
<g id="Node000002" class="node">
<title>Node2</title>
<g id="a_Node000002"><a xlink:href="class_t_m_c2240_stepper.html#a6fd38a237e8df2633631b809e924f32e" target="_top" xlink:title=" ">
<polygon fill="white" stroke="#666666" points="302.75,-37.25 182.5,-37.25 182.5,-18 302.75,-18 302.75,-37.25"/>
<text text-anchor="middle" x="242.62" y="-23.75" font-family="Helvetica,sans-Serif" font-size="10.00">TMC2240Stepper::mres</text>
</a>
</g>
</g>
<!-- Node1&#45;&gt;Node2 -->
<g id="edge1_Node000001_Node000002" class="edge">
<title>Node1&#45;&gt;Node2</title>
<g id="a_edge1_Node000001_Node000002"><a xlink:title=" ">
<path fill="none" stroke="#63b8ff" d="M327.35,-27.62C319.27,-27.62 311.09,-27.62 303.17,-27.62"/>
<polygon fill="#63b8ff" stroke="#63b8ff" points="327.17,-31.13 337.17,-27.63 327.17,-24.13 327.17,-31.13"/>
</a>
</g>
</g>
<!-- Node3 -->
<g id="Node000003" class="node">
<title>Node3</title>
<g id="a_Node000003"><a xlink:href="class_t_m_c2240_stepper.html#ac0b0402028f946184fbb73afbc9892fe" target="_top" xlink:title=" ">
<polygon fill="white" stroke="#666666" points="146.5,-56.25 0,-56.25 0,-37 146.5,-37 146.5,-56.25"/>
<text text-anchor="middle" x="73.25" y="-42.75" font-family="Helvetica,sans-Serif" font-size="10.00">TMC2240Stepper::microsteps</text>
</a>
</g>
</g>
<!-- Node2&#45;&gt;Node3 -->
<g id="edge2_Node000002_Node000003" class="edge">
<title>Node2&#45;&gt;Node3</title>
<g id="a_edge2_Node000002_Node000003"><a xlink:title=" ">
<path fill="none" stroke="#63b8ff" d="M170.96,-35.65C162.94,-36.56 154.77,-37.48 146.73,-38.4"/>
<polygon fill="#63b8ff" stroke="#63b8ff" points="171.1,-39.15 180.64,-34.55 170.31,-32.2 171.1,-39.15"/>
</a>
</g>
</g>
<!-- Node4 -->
<g id="Node000004" class="node">
<title>Node4</title>
<g id="a_Node000004"><a xlink:href="class_t_m_c2240_stepper.html#a214f6e7fb04ebcacc79fc58f761e8bc0" target="_top" xlink:title=" ">
<polygon fill="white" stroke="#666666" points="146.5,-19.25 0,-19.25 0,0 146.5,0 146.5,-19.25"/>
<text text-anchor="middle" x="73.25" y="-5.75" font-family="Helvetica,sans-Serif" font-size="10.00">TMC2240Stepper::microsteps</text>
</a>
</g>
</g>
<!-- Node2&#45;&gt;Node4 -->
<g id="edge3_Node000002_Node000004" class="edge">
<title>Node2&#45;&gt;Node4</title>
<g id="a_edge3_Node000002_Node000004"><a xlink:title=" ">
<path fill="none" stroke="#63b8ff" d="M170.96,-20.03C162.94,-19.16 154.77,-18.28 146.73,-17.42"/>
<polygon fill="#63b8ff" stroke="#63b8ff" points="170.32,-23.48 180.64,-21.07 171.07,-16.52 170.32,-23.48"/>
</a>
</g>
</g>
</g>
</svg>
</svg>

<style type='text/css'>
<![CDATA[
[data-mouse-over-selected='false'] { opacity: 0.7; }
[data-mouse-over-selected='true']  { opacity: 1.0; }
]]>
</style>
<script type="application/ecmascript"><![CDATA[
document.addEventListener('DOMContentLoaded', (event) => {
  highlightEdges();
  highlightAdjacentNodes();
});
]]></script>
</svg>
