<?xml version="1.0" encoding="UTF-8" standalone="no"?>
<!DOCTYPE svg PUBLIC "-//W3C//DTD SVG 1.1//EN"
 "http://www.w3.org/Graphics/SVG/1.1/DTD/svg11.dtd">
<!-- Generated by graphviz version 12.2.1 (20241206.2353)
 -->
<!-- Title: TMC2130Stepper::write Pages: 1 -->
<svg width="506pt" height="1567pt"
 viewBox="0.00 0.00 506.00 1567.25" xmlns="http://www.w3.org/2000/svg" xmlns:xlink="http://www.w3.org/1999/xlink">
<g id="graph0" class="graph" transform="scale(1 1) rotate(0) translate(4 1563.25)">
<title>TMC2130Stepper::write</title>
<!-- Node1 -->
<g id="Node000001" class="node">
<title>Node1</title>
<g id="a_Node000001"><a xlink:title=" ">
<polygon fill="#999999" stroke="#666666" points="498,-771.25 378.5,-771.25 378.5,-752 498,-752 498,-771.25"/>
<text text-anchor="middle" x="438.25" y="-757.75" font-family="Helvetica,sans-Serif" font-size="10.00">TMC2130Stepper::write</text>
</a>
</g>
</g>
<!-- Node2 -->
<g id="Node000002" class="node">
<title>Node2</title>
<g id="a_Node000002"><a xlink:href="class_t_m_c5130_stepper.html#a23e1bc4da8813b82c55bd9f867ad2cd7" target="_top" xlink:title=" ">
<polygon fill="white" stroke="#666666" points="313.25,-1559.25 204.25,-1559.25 204.25,-1540 313.25,-1540 313.25,-1559.25"/>
<text text-anchor="middle" x="258.75" y="-1545.75" font-family="Helvetica,sans-Serif" font-size="10.00">TMC5130Stepper::a1</text>
</a>
</g>
</g>
<!-- Node1&#45;&gt;Node2 -->
<g id="edge1_Node000001_Node000002" class="edge">
<title>Node1&#45;&gt;Node2</title>
<g id="a_edge1_Node000001_Node000002"><a xlink:title=" ">
<path fill="none" stroke="#63b8ff" d="M436.08,-782.99C429.4,-901.47 394.56,-1474.56 342.5,-1531.62 334.87,-1539.99 324.34,-1544.95 313.35,-1547.8"/>
<polygon fill="#63b8ff" stroke="#63b8ff" points="439.57,-783.32 436.63,-773.14 432.58,-782.93 439.57,-783.32"/>
</a>
</g>
</g>
<!-- Node3 -->
<g id="Node000003" class="node">
<title>Node3</title>
<g id="a_Node000003"><a xlink:href="class_t_m_c5130_stepper.html#a967f67e12de5fc725f34d1f07e751146" target="_top" xlink:title=" ">
<polygon fill="white" stroke="#666666" points="322.25,-1522.25 195.25,-1522.25 195.25,-1503 322.25,-1503 322.25,-1522.25"/>
<text text-anchor="middle" x="258.75" y="-1508.75" font-family="Helvetica,sans-Serif" font-size="10.00">TMC5130Stepper::AMAX</text>
</a>
</g>
</g>
<!-- Node1&#45;&gt;Node3 -->
<g id="edge2_Node000001_Node000003" class="edge">
<title>Node1&#45;&gt;Node3</title>
<g id="a_edge2_Node000001_Node000003"><a xlink:title=" ">
<path fill="none" stroke="#63b8ff" d="M437.66,-782.86C439.3,-891.8 441.2,-1387.09 342.5,-1494.62 337.03,-1500.58 330.09,-1504.81 322.57,-1507.78"/>
<polygon fill="#63b8ff" stroke="#63b8ff" points="441.16,-782.99 437.49,-773.05 434.16,-783.11 441.16,-782.99"/>
</a>
</g>
</g>
<!-- Node4 -->
<g id="Node000004" class="node">
<title>Node4</title>
<g id="a_Node000004"><a xlink:href="class_t_m_c2130_stepper.html#a8f881532eca7813597a1292ed060d18c" target="_top" xlink:title=" ">
<polygon fill="white" stroke="#666666" points="336.88,-1485.25 180.62,-1485.25 180.62,-1466 336.88,-1466 336.88,-1485.25"/>
<text text-anchor="middle" x="258.75" y="-1471.75" font-family="Helvetica,sans-Serif" font-size="10.00">TMC2130Stepper::CHOPCONF</text>
</a>
</g>
</g>
<!-- Node1&#45;&gt;Node4 -->
<g id="edge3_Node000001_Node000004" class="edge">
<title>Node1&#45;&gt;Node4</title>
<g id="a_edge3_Node000001_Node000004"><a xlink:title=" ">
<path fill="none" stroke="#63b8ff" d="M437.5,-782.76C438.28,-888.18 436.35,-1356.06 342.5,-1457.62 339.61,-1460.76 336.31,-1463.41 332.73,-1465.65"/>
<polygon fill="#63b8ff" stroke="#63b8ff" points="441,-782.76 437.4,-772.79 434,-782.83 441,-782.76"/>
</a>
</g>
</g>
<!-- Node5 -->
<g id="Node000005" class="node">
<title>Node5</title>
<g id="a_Node000005"><a xlink:href="class_t_m_c2130_stepper.html#a11e7ca8148bc856a18af9fa0394a647d" target="_top" xlink:title=" ">
<polygon fill="white" stroke="#666666" points="321.5,-1448.25 196,-1448.25 196,-1429 321.5,-1429 321.5,-1448.25"/>
<text text-anchor="middle" x="258.75" y="-1434.75" font-family="Helvetica,sans-Serif" font-size="10.00">TMC2130Stepper::coil_A</text>
</a>
</g>
</g>
<!-- Node1&#45;&gt;Node5 -->
<g id="edge4_Node000001_Node000005" class="edge">
<title>Node1&#45;&gt;Node5</title>
<g id="a_edge4_Node000001_Node000005"><a xlink:title=" ">
<path fill="none" stroke="#63b8ff" d="M437.32,-782.93C437.2,-885.24 431.44,-1325.1 342.5,-1420.62 336.79,-1426.76 329.52,-1431.05 321.67,-1434.02"/>
<polygon fill="#63b8ff" stroke="#63b8ff" points="440.82,-783.22 437.31,-773.22 433.82,-783.23 440.82,-783.22"/>
</a>
</g>
</g>
<!-- Node6 -->
<g id="Node000006" class="node">
<title>Node6</title>
<g id="a_Node000006"><a xlink:href="class_t_m_c2130_stepper.html#a40464704d8da6ad1998cb0c1ea564cce" target="_top" xlink:title=" ">
<polygon fill="white" stroke="#666666" points="321.5,-1411.25 196,-1411.25 196,-1392 321.5,-1392 321.5,-1411.25"/>
<text text-anchor="middle" x="258.75" y="-1397.75" font-family="Helvetica,sans-Serif" font-size="10.00">TMC2130Stepper::coil_B</text>
</a>
</g>
</g>
<!-- Node1&#45;&gt;Node6 -->
<g id="edge5_Node000001_Node000006" class="edge">
<title>Node1&#45;&gt;Node6</title>
<g id="a_edge5_Node000001_Node000006"><a xlink:title=" ">
<path fill="none" stroke="#63b8ff" d="M437.12,-782.97C436.05,-881.81 426.58,-1294.08 342.5,-1383.62 336.76,-1389.73 329.48,-1394.02 321.62,-1396.98"/>
<polygon fill="#63b8ff" stroke="#63b8ff" points="440.62,-783.15 437.2,-773.12 433.62,-783.09 440.62,-783.15"/>
</a>
</g>
</g>
<!-- Node7 -->
<g id="Node000007" class="node">
<title>Node7</title>
<g id="a_Node000007"><a xlink:href="class_t_m_c2130_stepper.html#afc1072e86397d2646fd4fb7b30e41ab8" target="_top" xlink:title=" ">
<polygon fill="white" stroke="#666666" points="336.12,-1374.25 181.38,-1374.25 181.38,-1355 336.12,-1355 336.12,-1374.25"/>
<text text-anchor="middle" x="258.75" y="-1360.75" font-family="Helvetica,sans-Serif" font-size="10.00">TMC2130Stepper::COOLCONF</text>
</a>
</g>
</g>
<!-- Node1&#45;&gt;Node7 -->
<g id="edge6_Node000001_Node000007" class="edge">
<title>Node1&#45;&gt;Node7</title>
<g id="a_edge6_Node000001_Node000007"><a xlink:title=" ">
<path fill="none" stroke="#63b8ff" d="M436.89,-782.88C434.86,-877.94 421.76,-1263 342.5,-1346.62 339.57,-1349.72 336.24,-1352.34 332.64,-1354.57"/>
<polygon fill="#63b8ff" stroke="#63b8ff" points="440.39,-783.04 437.08,-772.97 433.39,-782.9 440.39,-783.04"/>
</a>
</g>
</g>
<!-- Node9 -->
<g id="Node000009" class="node">
<title>Node9</title>
<g id="a_Node000009"><a xlink:href="class_t_m_c5130_stepper.html#a0d876a34053353ea2043d1f3629b53e1" target="_top" xlink:title=" ">
<polygon fill="white" stroke="#666666" points="313.25,-1337.25 204.25,-1337.25 204.25,-1318 313.25,-1318 313.25,-1337.25"/>
<text text-anchor="middle" x="258.75" y="-1323.75" font-family="Helvetica,sans-Serif" font-size="10.00">TMC5130Stepper::d1</text>
</a>
</g>
</g>
<!-- Node1&#45;&gt;Node9 -->
<g id="edge8_Node000001_Node000009" class="edge">
<title>Node1&#45;&gt;Node9</title>
<g id="a_edge8_Node000001_Node000009"><a xlink:title=" ">
<path fill="none" stroke="#63b8ff" d="M436.64,-782.99C433.56,-874.46 416.9,-1231.96 342.5,-1309.62 334.77,-1317.69 324.34,-1322.56 313.49,-1325.41"/>
<polygon fill="#63b8ff" stroke="#63b8ff" points="440.13,-783.31 436.94,-773.21 433.13,-783.09 440.13,-783.31"/>
</a>
</g>
</g>
<!-- Node10 -->
<g id="Node000010" class="node">
<title>Node10</title>
<g id="a_Node000010"><a xlink:href="class_t_m_c2130_stepper.html#a55ea165bcc2fc0da6395340f17e47611" target="_top" xlink:title=" ">
<polygon fill="white" stroke="#666666" points="321.12,-1300.25 196.38,-1300.25 196.38,-1281 321.12,-1281 321.12,-1300.25"/>
<text text-anchor="middle" x="258.75" y="-1286.75" font-family="Helvetica,sans-Serif" font-size="10.00">TMC2130Stepper::dc_sg</text>
</a>
</g>
</g>
<!-- Node1&#45;&gt;Node10 -->
<g id="edge9_Node000001_Node000010" class="edge">
<title>Node1&#45;&gt;Node10</title>
<g id="a_edge9_Node000001_Node000010"><a xlink:title=" ">
<path fill="none" stroke="#63b8ff" d="M436.35,-782.91C432.2,-870.37 412.1,-1200.84 342.5,-1272.62 336.67,-1278.64 329.33,-1282.87 321.44,-1285.81"/>
<polygon fill="#63b8ff" stroke="#63b8ff" points="439.84,-783.09 436.8,-772.94 432.85,-782.78 439.84,-783.09"/>
</a>
</g>
</g>
<!-- Node11 -->
<g id="Node000011" class="node">
<title>Node11</title>
<g id="a_Node000011"><a xlink:href="class_t_m_c2130_stepper.html#a5b90d46cecffc6511b6bb95943b30bdb" target="_top" xlink:title=" ">
<polygon fill="white" stroke="#666666" points="325.25,-1263.25 192.25,-1263.25 192.25,-1244 325.25,-1244 325.25,-1263.25"/>
<text text-anchor="middle" x="258.75" y="-1249.75" font-family="Helvetica,sans-Serif" font-size="10.00">TMC2130Stepper::dc_time</text>
</a>
</g>
</g>
<!-- Node1&#45;&gt;Node11 -->
<g id="edge10_Node000001_Node000011" class="edge">
<title>Node1&#45;&gt;Node11</title>
<g id="a_edge10_Node000001_Node000011"><a xlink:title=" ">
<path fill="none" stroke="#63b8ff" d="M436.01,-782.95C430.72,-866.45 407.28,-1169.74 342.5,-1235.62 337.66,-1240.55 331.8,-1244.28 325.47,-1247.07"/>
<polygon fill="#63b8ff" stroke="#63b8ff" points="439.5,-783.22 436.62,-773.02 432.51,-782.79 439.5,-783.22"/>
</a>
</g>
</g>
<!-- Node12 -->
<g id="Node000012" class="node">
<title>Node12</title>
<g id="a_Node000012"><a xlink:href="class_t_m_c2130_stepper.html#ae9a34eefa766c1c5f8bda09acb1e61c1" target="_top" xlink:title=" ">
<polygon fill="white" stroke="#666666" points="328.62,-1226.25 188.88,-1226.25 188.88,-1207 328.62,-1207 328.62,-1226.25"/>
<text text-anchor="middle" x="258.75" y="-1212.75" font-family="Helvetica,sans-Serif" font-size="10.00">TMC2130Stepper::DCCTRL</text>
</a>
</g>
</g>
<!-- Node1&#45;&gt;Node12 -->
<g id="edge11_Node000001_Node000012" class="edge">
<title>Node1&#45;&gt;Node12</title>
<g id="a_edge11_Node000001_Node000012"><a xlink:title=" ">
<path fill="none" stroke="#63b8ff" d="M435.63,-782.8C429.17,-861.9 402.54,-1138.55 342.5,-1198.62 338.55,-1202.58 333.95,-1205.75 328.98,-1208.29"/>
<polygon fill="#63b8ff" stroke="#63b8ff" points="439.11,-783.25 436.41,-773.01 432.13,-782.7 439.11,-783.25"/>
</a>
</g>
</g>
<!-- Node14 -->
<g id="Node000014" class="node">
<title>Node14</title>
<g id="a_Node000014"><a xlink:href="class_t_m_c5130_stepper.html#a6fc018f81c10dd3307d55b31d070b816" target="_top" xlink:title=" ">
<polygon fill="white" stroke="#666666" points="322.62,-1189.25 194.88,-1189.25 194.88,-1170 322.62,-1170 322.62,-1189.25"/>
<text text-anchor="middle" x="258.75" y="-1175.75" font-family="Helvetica,sans-Serif" font-size="10.00">TMC5130Stepper::DMAX</text>
</a>
</g>
</g>
<!-- Node1&#45;&gt;Node14 -->
<g id="edge13_Node000001_Node000014" class="edge">
<title>Node1&#45;&gt;Node14</title>
<g id="a_edge13_Node000001_Node000014"><a xlink:title=" ">
<path fill="none" stroke="#63b8ff" d="M435.22,-782.44C427.53,-856.72 397.86,-1107.27 342.5,-1161.62 336.94,-1167.08 330.13,-1171.05 322.84,-1173.92"/>
<polygon fill="#63b8ff" stroke="#63b8ff" points="438.66,-783.19 436.18,-772.89 431.69,-782.49 438.66,-783.19"/>
</a>
</g>
</g>
<!-- Node15 -->
<g id="Node000015" class="node">
<title>Node15</title>
<g id="a_Node000015"><a xlink:href="class_t_m_c2160_stepper.html#a6aec416cc563c9a195929bfd36e1707a" target="_top" xlink:title=" ">
<polygon fill="white" stroke="#666666" points="335.75,-1152.25 181.75,-1152.25 181.75,-1133 335.75,-1133 335.75,-1152.25"/>
<text text-anchor="middle" x="258.75" y="-1138.75" font-family="Helvetica,sans-Serif" font-size="10.00">TMC2160Stepper::DRV_CONF</text>
</a>
</g>
</g>
<!-- Node1&#45;&gt;Node15 -->
<g id="edge14_Node000001_Node000015" class="edge">
<title>Node1&#45;&gt;Node15</title>
<g id="a_edge14_Node000001_Node000015"><a xlink:title=" ">
<path fill="none" stroke="#63b8ff" d="M434.61,-782.66C425.42,-852.49 392.65,-1074.97 342.5,-1123.62 338.8,-1127.22 334.56,-1130.18 330,-1132.62"/>
<polygon fill="#63b8ff" stroke="#63b8ff" points="438.05,-783.34 435.86,-772.97 431.11,-782.44 438.05,-783.34"/>
</a>
</g>
</g>
<!-- Node17 -->
<g id="Node000017" class="node">
<title>Node17</title>
<g id="a_Node000017"><a xlink:href="class_t_m_c5130_stepper.html#a4e170413a630ba0037569cb2cb96351c" target="_top" xlink:title=" ">
<polygon fill="white" stroke="#666666" points="318.88,-1114.88 198.62,-1114.88 198.62,-1084.38 318.88,-1084.38 318.88,-1114.88"/>
<text text-anchor="start" x="206.62" y="-1101.38" font-family="Helvetica,sans-Serif" font-size="10.00">TMC5130Stepper::ENC</text>
<text text-anchor="middle" x="258.75" y="-1090.12" font-family="Helvetica,sans-Serif" font-size="10.00">_CONST</text>
</a>
</g>
</g>
<!-- Node1&#45;&gt;Node17 -->
<g id="edge16_Node000001_Node000017" class="edge">
<title>Node1&#45;&gt;Node17</title>
<g id="a_edge16_Node000001_Node000017"><a xlink:title=" ">
<path fill="none" stroke="#63b8ff" d="M437.29,-782.98C436.21,-839.03 425.39,-991.78 342.5,-1074.62 336.02,-1081.1 327.94,-1085.9 319.37,-1089.47"/>
<polygon fill="#63b8ff" stroke="#63b8ff" points="440.79,-783.26 437.38,-773.23 433.79,-783.19 440.79,-783.26"/>
</a>
</g>
</g>
<!-- Node18 -->
<g id="Node000018" class="node">
<title>Node18</title>
<g id="a_Node000018"><a xlink:href="class_t_m_c5160_stepper.html#a42b5bd196fdbb78044b669342384ec28" target="_top" xlink:title=" ">
<polygon fill="white" stroke="#666666" points="318.88,-1065.88 198.62,-1065.88 198.62,-1035.38 318.88,-1035.38 318.88,-1065.88"/>
<text text-anchor="start" x="206.62" y="-1052.38" font-family="Helvetica,sans-Serif" font-size="10.00">TMC5160Stepper::ENC</text>
<text text-anchor="middle" x="258.75" y="-1041.12" font-family="Helvetica,sans-Serif" font-size="10.00">_DEVIATION</text>
</a>
</g>
</g>
<!-- Node1&#45;&gt;Node18 -->
<g id="edge17_Node000001_Node000018" class="edge">
<title>Node1&#45;&gt;Node18</title>
<g id="a_edge17_Node000001_Node000018"><a xlink:title=" ">
<path fill="none" stroke="#63b8ff" d="M435.9,-782.92C431.56,-832.77 413.78,-957.9 342.5,-1025.62 335.86,-1031.93 327.69,-1036.65 319.09,-1040.18"/>
<polygon fill="#63b8ff" stroke="#63b8ff" points="439.36,-783.45 436.63,-773.21 432.39,-782.92 439.36,-783.45"/>
</a>
</g>
</g>
<!-- Node20 -->
<g id="Node000020" class="node">
<title>Node20</title>
<g id="a_Node000020"><a xlink:href="class_t_m_c5160_stepper.html#a5b60cb0c1913fc270311011223782363" target="_top" xlink:title=" ">
<polygon fill="white" stroke="#666666" points="318.88,-1016.88 198.62,-1016.88 198.62,-986.38 318.88,-986.38 318.88,-1016.88"/>
<text text-anchor="start" x="206.62" y="-1003.38" font-family="Helvetica,sans-Serif" font-size="10.00">TMC5160Stepper::ENC</text>
<text text-anchor="middle" x="258.75" y="-992.12" font-family="Helvetica,sans-Serif" font-size="10.00">_STATUS</text>
</a>
</g>
</g>
<!-- Node1&#45;&gt;Node20 -->
<g id="edge19_Node000001_Node000020" class="edge">
<title>Node1&#45;&gt;Node20</title>
<g id="a_edge19_Node000001_Node000020"><a xlink:title=" ">
<path fill="none" stroke="#63b8ff" d="M434.04,-782.83C426.37,-826.03 402.9,-924.67 342.5,-977.62 335.75,-983.54 327.62,-988 319.13,-991.37"/>
<polygon fill="#63b8ff" stroke="#63b8ff" points="437.48,-783.46 435.66,-773.02 430.58,-782.32 437.48,-783.46"/>
</a>
</g>
</g>
<!-- Node21 -->
<g id="Node000021" class="node">
<title>Node21</title>
<g id="a_Node000021"><a xlink:href="class_t_m_c2130_stepper.html#af193f7a3cecbeff29d0db36a2c8b3094" target="_top" xlink:title=" ">
<polygon fill="white" stroke="#666666" points="338.75,-968.25 178.75,-968.25 178.75,-949 338.75,-949 338.75,-968.25"/>
<text text-anchor="middle" x="258.75" y="-954.75" font-family="Helvetica,sans-Serif" font-size="10.00">TMC2130Stepper::ENCM_CTRL</text>
</a>
</g>
</g>
<!-- Node1&#45;&gt;Node21 -->
<g id="edge20_Node000001_Node000021" class="edge">
<title>Node1&#45;&gt;Node21</title>
<g id="a_edge20_Node000001_Node000021"><a xlink:title=" ">
<path fill="none" stroke="#63b8ff" d="M432.42,-782.36C422.49,-820.12 396.08,-899.97 342.5,-940.62 338.28,-943.82 333.62,-946.48 328.71,-948.68"/>
<polygon fill="#63b8ff" stroke="#63b8ff" points="435.69,-783.7 434.71,-773.15 428.9,-782.01 435.69,-783.7"/>
</a>
</g>
</g>
<!-- Node22 -->
<g id="Node000022" class="node">
<title>Node22</title>
<g id="a_Node000022"><a xlink:href="class_t_m_c5130_stepper.html#aef59e4f446323c23418fe05051993e6f" target="_top" xlink:title=" ">
<polygon fill="white" stroke="#666666" points="333.88,-931.25 183.62,-931.25 183.62,-912 333.88,-912 333.88,-931.25"/>
<text text-anchor="middle" x="258.75" y="-917.75" font-family="Helvetica,sans-Serif" font-size="10.00">TMC5130Stepper::ENCMODE</text>
</a>
</g>
</g>
<!-- Node1&#45;&gt;Node22 -->
<g id="edge21_Node000001_Node000022" class="edge">
<title>Node1&#45;&gt;Node22</title>
<g id="a_edge21_Node000001_Node000022"><a xlink:title=" ">
<path fill="none" stroke="#63b8ff" d="M429.58,-781.95C416.65,-813.28 387.45,-872.99 342.5,-903.62 337.88,-906.77 332.81,-909.38 327.53,-911.54"/>
<polygon fill="#63b8ff" stroke="#63b8ff" points="432.75,-783.44 433.18,-772.85 426.24,-780.86 432.75,-783.44"/>
</a>
</g>
</g>
<!-- Node23 -->
<g id="Node000023" class="node">
<title>Node23</title>
<g id="a_Node000023"><a xlink:href="class_t_m_c2130_stepper.html#ad7e2c224a86768c38c5167b2bee7de05" target="_top" xlink:title=" ">
<polygon fill="white" stroke="#666666" points="326,-894.25 191.5,-894.25 191.5,-875 326,-875 326,-894.25"/>
<text text-anchor="middle" x="258.75" y="-880.75" font-family="Helvetica,sans-Serif" font-size="10.00">TMC2130Stepper::GCONF</text>
</a>
</g>
</g>
<!-- Node1&#45;&gt;Node23 -->
<g id="edge22_Node000001_Node000023" class="edge">
<title>Node1&#45;&gt;Node23</title>
<g id="a_edge22_Node000001_Node000023"><a xlink:title=" ">
<path fill="none" stroke="#63b8ff" d="M425.19,-780.83C409.24,-804.55 378.87,-844.37 342.5,-865.62 336.26,-869.27 329.38,-872.21 322.33,-874.59"/>
<polygon fill="#63b8ff" stroke="#63b8ff" points="427.94,-783.02 430.47,-772.73 422.07,-779.2 427.94,-783.02"/>
</a>
</g>
</g>
<!-- Node24 -->
<g id="Node000024" class="node">
<title>Node24</title>
<g id="a_Node000024"><a xlink:href="class_t_m_c2160_stepper.html#a182c03c51d92c565b15b6e7e459e55ae" target="_top" xlink:title=" ">
<polygon fill="white" stroke="#666666" points="327.5,-856.88 190,-856.88 190,-826.38 327.5,-826.38 327.5,-856.88"/>
<text text-anchor="start" x="198" y="-843.38" font-family="Helvetica,sans-Serif" font-size="10.00">TMC2160Stepper::GLOBAL</text>
<text text-anchor="middle" x="258.75" y="-832.12" font-family="Helvetica,sans-Serif" font-size="10.00">_SCALER</text>
</a>
</g>
</g>
<!-- Node1&#45;&gt;Node24 -->
<g id="edge23_Node000001_Node000024" class="edge">
<title>Node1&#45;&gt;Node24</title>
<g id="a_edge23_Node000001_Node000024"><a xlink:title=" ">
<path fill="none" stroke="#63b8ff" d="M413.65,-777.85C395,-790.1 367.95,-806.62 342.5,-817.62 335.5,-820.65 328,-823.43 320.49,-825.93"/>
<polygon fill="#63b8ff" stroke="#63b8ff" points="415.46,-780.85 421.83,-772.38 411.57,-775.03 415.46,-780.85"/>
</a>
</g>
</g>
<!-- Node26 -->
<g id="Node000026" class="node">
<title>Node26</title>
<g id="a_Node000026"><a xlink:href="class_t_m_c2130_stepper.html#a2b9ce2adcc443caffeefa9b51bcb5ee8" target="_top" xlink:title=" ">
<polygon fill="white" stroke="#666666" points="314.38,-808.25 203.12,-808.25 203.12,-789 314.38,-789 314.38,-808.25"/>
<text text-anchor="middle" x="258.75" y="-794.75" font-family="Helvetica,sans-Serif" font-size="10.00">TMC2130Stepper::inv</text>
</a>
</g>
</g>
<!-- Node1&#45;&gt;Node26 -->
<g id="edge25_Node000001_Node000026" class="edge">
<title>Node1&#45;&gt;Node26</title>
<g id="a_edge25_Node000001_Node000026"><a xlink:title=" ">
<path fill="none" stroke="#63b8ff" d="M377.58,-774.06C355.01,-778.77 329.61,-784.06 308.19,-788.53"/>
<polygon fill="#63b8ff" stroke="#63b8ff" points="378.19,-777.51 387.27,-772.04 376.76,-770.66 378.19,-777.51"/>
</a>
</g>
</g>
<!-- Node27 -->
<g id="Node000027" class="node">
<title>Node27</title>
<g id="a_Node000027"><a xlink:href="class_t_m_c2130_stepper.html#ad6192783349219e1a0e47d0274de7559" target="_top" xlink:title=" ">
<polygon fill="white" stroke="#666666" points="330.5,-771.25 187,-771.25 187,-752 330.5,-752 330.5,-771.25"/>
<text text-anchor="middle" x="258.75" y="-757.75" font-family="Helvetica,sans-Serif" font-size="10.00">TMC2130Stepper::maxspeed</text>
</a>
</g>
</g>
<!-- Node1&#45;&gt;Node27 -->
<g id="edge26_Node000001_Node000027" class="edge">
<title>Node1&#45;&gt;Node27</title>
<g id="a_edge26_Node000001_Node000027"><a xlink:title=" ">
<path fill="none" stroke="#63b8ff" d="M366.95,-761.62C355.11,-761.62 342.8,-761.62 330.93,-761.62"/>
<polygon fill="#63b8ff" stroke="#63b8ff" points="366.63,-765.13 376.63,-761.63 366.63,-758.13 366.63,-765.13"/>
</a>
</g>
</g>
<!-- Node28 -->
<g id="Node000028" class="node">
<title>Node28</title>
<g id="a_Node000028"><a xlink:href="class_t_m_c2130_stepper.html#ac9dcf998b2bba062b5fcd871c25e4117" target="_top" xlink:title=" ">
<polygon fill="white" stroke="#666666" points="334.62,-734.25 182.88,-734.25 182.88,-715 334.62,-715 334.62,-734.25"/>
<text text-anchor="middle" x="258.75" y="-720.75" font-family="Helvetica,sans-Serif" font-size="10.00">TMC2130Stepper::PWMCONF</text>
</a>
</g>
</g>
<!-- Node1&#45;&gt;Node28 -->
<g id="edge27_Node000001_Node000028" class="edge">
<title>Node1&#45;&gt;Node28</title>
<g id="a_edge27_Node000001_Node000028"><a xlink:title=" ">
<path fill="none" stroke="#63b8ff" d="M377.58,-749.19C355.01,-744.48 329.61,-739.19 308.19,-734.72"/>
<polygon fill="#63b8ff" stroke="#63b8ff" points="376.76,-752.59 387.27,-751.21 378.19,-745.74 376.76,-752.59"/>
</a>
</g>
</g>
<!-- Node30 -->
<g id="Node000030" class="node">
<title>Node30</title>
<g id="a_Node000030"><a xlink:href="class_t_m_c2160_stepper.html#a919a91e07e52e70d6ace4913683c9309" target="_top" xlink:title=" ">
<polygon fill="white" stroke="#666666" points="334.62,-697.25 182.88,-697.25 182.88,-678 334.62,-678 334.62,-697.25"/>
<text text-anchor="middle" x="258.75" y="-683.75" font-family="Helvetica,sans-Serif" font-size="10.00">TMC2160Stepper::PWMCONF</text>
</a>
</g>
</g>
<!-- Node1&#45;&gt;Node30 -->
<g id="edge29_Node000001_Node000030" class="edge">
<title>Node1&#45;&gt;Node30</title>
<g id="a_edge29_Node000001_Node000030"><a xlink:title=" ">
<path fill="none" stroke="#63b8ff" d="M414.17,-745.13C395.62,-732.59 368.46,-715.81 342.5,-705.62 334.56,-702.51 325.97,-699.88 317.44,-697.68"/>
<polygon fill="#63b8ff" stroke="#63b8ff" points="412.07,-747.93 422.29,-750.73 416.05,-742.17 412.07,-747.93"/>
</a>
</g>
</g>
<!-- Node32 -->
<g id="Node000032" class="node">
<title>Node32</title>
<g id="a_Node000032"><a xlink:href="class_t_m_c5130_stepper.html#a2aa27be074f0db127f559430dd4aa0a5" target="_top" xlink:title=" ">
<polygon fill="white" stroke="#666666" points="337.62,-660.25 179.88,-660.25 179.88,-641 337.62,-641 337.62,-660.25"/>
<text text-anchor="middle" x="258.75" y="-646.75" font-family="Helvetica,sans-Serif" font-size="10.00">TMC5130Stepper::RAMPMODE</text>
</a>
</g>
</g>
<!-- Node1&#45;&gt;Node32 -->
<g id="edge31_Node000001_Node000032" class="edge">
<title>Node1&#45;&gt;Node32</title>
<g id="a_edge31_Node000001_Node000032"><a xlink:title=" ">
<path fill="none" stroke="#63b8ff" d="M423.28,-742.53C406.54,-721.11 376.47,-686.97 342.5,-668.62 336.68,-665.48 330.35,-662.89 323.86,-660.75"/>
<polygon fill="#63b8ff" stroke="#63b8ff" points="420.44,-744.59 429.28,-750.44 426.02,-740.35 420.44,-744.59"/>
</a>
</g>
</g>
<!-- Node33 -->
<g id="Node000033" class="node">
<title>Node33</title>
<g id="a_Node000033"><a xlink:href="class_t_m_c2160_stepper.html#a2c1c3d971ddcb20408441c08538b3103" target="_top" xlink:title=" ">
<polygon fill="white" stroke="#666666" points="342.5,-623.25 175,-623.25 175,-604 342.5,-604 342.5,-623.25"/>
<text text-anchor="middle" x="258.75" y="-609.75" font-family="Helvetica,sans-Serif" font-size="10.00">TMC2160Stepper::SHORT_CONF</text>
</a>
</g>
</g>
<!-- Node1&#45;&gt;Node33 -->
<g id="edge32_Node000001_Node000033" class="edge">
<title>Node1&#45;&gt;Node33</title>
<g id="a_edge32_Node000001_Node000033"><a xlink:title=" ">
<path fill="none" stroke="#63b8ff" d="M428.31,-741.36C414.38,-712.25 384.64,-659.09 342.5,-631.62 337.57,-628.41 332.17,-625.77 326.55,-623.59"/>
<polygon fill="#63b8ff" stroke="#63b8ff" points="425.02,-742.57 432.38,-750.19 431.38,-739.64 425.02,-742.57"/>
</a>
</g>
</g>
<!-- Node35 -->
<g id="Node000035" class="node">
<title>Node35</title>
<g id="a_Node000035"><a xlink:href="class_t_m_c5130_stepper.html#a38d528af6d7b58454a72e92a56cda141" target="_top" xlink:title=" ">
<polygon fill="white" stroke="#666666" points="337.62,-586.25 179.88,-586.25 179.88,-567 337.62,-567 337.62,-586.25"/>
<text text-anchor="middle" x="258.75" y="-572.75" font-family="Helvetica,sans-Serif" font-size="10.00">TMC5130Stepper::SLAVECONF</text>
</a>
</g>
</g>
<!-- Node1&#45;&gt;Node35 -->
<g id="edge34_Node000001_Node000035" class="edge">
<title>Node1&#45;&gt;Node35</title>
<g id="a_edge34_Node000001_Node000035"><a xlink:title=" ">
<path fill="none" stroke="#63b8ff" d="M431.56,-740.83C420.63,-705 393.17,-631.92 342.5,-594.62 338.24,-591.49 333.54,-588.88 328.61,-586.71"/>
<polygon fill="#63b8ff" stroke="#63b8ff" points="428.18,-741.74 434.33,-750.37 434.9,-739.79 428.18,-741.74"/>
</a>
</g>
</g>
<!-- Node36 -->
<g id="Node000036" class="node">
<title>Node36</title>
<g id="a_Node000036"><a xlink:href="class_t_m_c5130_stepper.html#a1c045a7bfa9df7c52456d934057f4609" target="_top" xlink:title=" ">
<polygon fill="white" stroke="#666666" points="333.88,-549.25 183.62,-549.25 183.62,-530 333.88,-530 333.88,-549.25"/>
<text text-anchor="middle" x="258.75" y="-535.75" font-family="Helvetica,sans-Serif" font-size="10.00">TMC5130Stepper::SW_MODE</text>
</a>
</g>
</g>
<!-- Node1&#45;&gt;Node36 -->
<g id="edge35_Node000001_Node000036" class="edge">
<title>Node1&#45;&gt;Node36</title>
<g id="a_edge35_Node000001_Node000036"><a xlink:title=" ">
<path fill="none" stroke="#63b8ff" d="M433.78,-740.4C425.77,-698.52 401.9,-605.18 342.5,-557.62 338.6,-554.5 334.27,-551.89 329.71,-549.71"/>
<polygon fill="#63b8ff" stroke="#63b8ff" points="430.32,-740.92 435.52,-750.15 437.21,-739.69 430.32,-740.92"/>
</a>
</g>
</g>
<!-- Node37 -->
<g id="Node000037" class="node">
<title>Node37</title>
<g id="a_Node000037"><a xlink:href="class_t_m_c2130_stepper.html#afb052ee9867eb46c7b58455845fa0a94" target="_top" xlink:title=" ">
<polygon fill="white" stroke="#666666" points="338.75,-512.25 178.75,-512.25 178.75,-493 338.75,-493 338.75,-512.25"/>
<text text-anchor="middle" x="258.75" y="-498.75" font-family="Helvetica,sans-Serif" font-size="10.00">TMC2130Stepper::TCOOLTHRS</text>
</a>
</g>
</g>
<!-- Node1&#45;&gt;Node37 -->
<g id="edge36_Node000001_Node000037" class="edge">
<title>Node1&#45;&gt;Node37</title>
<g id="a_edge36_Node000001_Node000037"><a xlink:title=" ">
<path fill="none" stroke="#63b8ff" d="M435.47,-740.55C430.31,-693.39 411.02,-578.95 342.5,-520.62 338.81,-517.48 334.69,-514.85 330.32,-512.65"/>
<polygon fill="#63b8ff" stroke="#63b8ff" points="431.96,-740.61 436.41,-750.22 438.93,-739.93 431.96,-740.61"/>
</a>
</g>
</g>
<!-- Node38 -->
<g id="Node000038" class="node">
<title>Node38</title>
<g id="a_Node000038"><a xlink:href="class_t_m_c2130_stepper.html#a99721a32fb8c378a67de175a90a87ce5" target="_top" xlink:title=" ">
<polygon fill="white" stroke="#666666" points="323.75,-475.25 193.75,-475.25 193.75,-456 323.75,-456 323.75,-475.25"/>
<text text-anchor="middle" x="258.75" y="-461.75" font-family="Helvetica,sans-Serif" font-size="10.00">TMC2130Stepper::THIGH</text>
</a>
</g>
</g>
<!-- Node1&#45;&gt;Node38 -->
<g id="edge37_Node000001_Node000038" class="edge">
<title>Node1&#45;&gt;Node38</title>
<g id="a_edge37_Node000001_Node000038"><a xlink:title=" ">
<path fill="none" stroke="#63b8ff" d="M436.71,-740.24C434.17,-687.93 420.03,-552.77 342.5,-483.62 337.12,-478.83 330.77,-475.21 324.02,-472.49"/>
<polygon fill="#63b8ff" stroke="#63b8ff" points="433.21,-740.29 437.08,-750.15 440.2,-740.03 433.21,-740.29"/>
</a>
</g>
</g>
<!-- Node39 -->
<g id="Node000039" class="node">
<title>Node39</title>
<g id="a_Node000039"><a xlink:href="class_t_m_c5130_stepper.html#a1972058b4840e283b0db82607a177b8a" target="_top" xlink:title=" ">
<polygon fill="white" stroke="#666666" points="318.88,-437.88 198.62,-437.88 198.62,-407.38 318.88,-407.38 318.88,-437.88"/>
<text text-anchor="start" x="206.62" y="-424.38" font-family="Helvetica,sans-Serif" font-size="10.00">TMC5130Stepper::TMC</text>
<text text-anchor="middle" x="258.75" y="-413.12" font-family="Helvetica,sans-Serif" font-size="10.00">_OUTPUT</text>
</a>
</g>
</g>
<!-- Node1&#45;&gt;Node39 -->
<g id="edge38_Node000001_Node000039" class="edge">
<title>Node1&#45;&gt;Node39</title>
<g id="a_edge38_Node000001_Node000039"><a xlink:title=" ">
<path fill="none" stroke="#63b8ff" d="M437.4,-740.47C436.6,-684.25 426.46,-529.75 342.5,-446.62 336.02,-440.2 327.92,-435.48 319.36,-432.01"/>
<polygon fill="#63b8ff" stroke="#63b8ff" points="433.9,-740.24 437.44,-750.22 440.9,-740.21 433.9,-740.24"/>
</a>
</g>
</g>
<!-- Node40 -->
<g id="Node000040" class="node">
<title>Node40</title>
<g id="a_Node000040"><a xlink:href="class_t_m_c5130_stepper.html#a9918c9f49ed95343377f84523a43f857" target="_top" xlink:title=" ">
<polygon fill="white" stroke="#666666" points="337.25,-389.25 180.25,-389.25 180.25,-370 337.25,-370 337.25,-389.25"/>
<text text-anchor="middle" x="258.75" y="-375.75" font-family="Helvetica,sans-Serif" font-size="10.00">TMC5130Stepper::TZEROWAIT</text>
</a>
</g>
</g>
<!-- Node1&#45;&gt;Node40 -->
<g id="edge39_Node000001_Node000040" class="edge">
<title>Node1&#45;&gt;Node40</title>
<g id="a_edge39_Node000001_Node000040"><a xlink:title=" ">
<path fill="none" stroke="#63b8ff" d="M434.62,-740.54C425.46,-670.52 392.76,-447.42 342.5,-398.62 338.8,-395.03 334.56,-392.07 330.01,-389.62"/>
<polygon fill="#63b8ff" stroke="#63b8ff" points="431.12,-740.78 435.86,-750.25 438.06,-739.89 431.12,-740.78"/>
</a>
</g>
</g>
<!-- Node41 -->
<g id="Node000041" class="node">
<title>Node41</title>
<g id="a_Node000041"><a xlink:href="class_t_m_c5130_stepper.html#aa9b559be4402df8de23a8214e7a555fe" target="_top" xlink:title=" ">
<polygon fill="white" stroke="#666666" points="313.25,-352.25 204.25,-352.25 204.25,-333 313.25,-333 313.25,-352.25"/>
<text text-anchor="middle" x="258.75" y="-338.75" font-family="Helvetica,sans-Serif" font-size="10.00">TMC5130Stepper::v1</text>
</a>
</g>
</g>
<!-- Node1&#45;&gt;Node41 -->
<g id="edge40_Node000001_Node000041" class="edge">
<title>Node1&#45;&gt;Node41</title>
<g id="a_edge40_Node000001_Node000041"><a xlink:title=" ">
<path fill="none" stroke="#63b8ff" d="M435.22,-740.76C427.57,-666.3 397.98,-415.12 342.5,-360.62 334.63,-352.9 324.27,-348.15 313.56,-345.31"/>
<polygon fill="#63b8ff" stroke="#63b8ff" points="431.7,-740.73 436.18,-750.33 438.67,-740.04 431.7,-740.73"/>
</a>
</g>
</g>
<!-- Node42 -->
<g id="Node000042" class="node">
<title>Node42</title>
<g id="a_Node000042"><a xlink:href="class_t_m_c2130_stepper.html#a29941b78911da3748a9be6f616e2456d" target="_top" xlink:title=" ">
<polygon fill="white" stroke="#666666" points="328.25,-315.25 189.25,-315.25 189.25,-296 328.25,-296 328.25,-315.25"/>
<text text-anchor="middle" x="258.75" y="-301.75" font-family="Helvetica,sans-Serif" font-size="10.00">TMC2130Stepper::VDCMIN</text>
</a>
</g>
</g>
<!-- Node1&#45;&gt;Node42 -->
<g id="edge41_Node000001_Node000042" class="edge">
<title>Node1&#45;&gt;Node42</title>
<g id="a_edge41_Node000001_Node000042"><a xlink:title=" ">
<path fill="none" stroke="#63b8ff" d="M435.64,-740.4C429.2,-661.13 402.66,-383.85 342.5,-323.62 338.45,-319.57 333.71,-316.33 328.59,-313.75"/>
<polygon fill="#63b8ff" stroke="#63b8ff" points="432.14,-740.53 436.41,-750.22 439.12,-739.98 432.14,-740.53"/>
</a>
</g>
</g>
<!-- Node43 -->
<g id="Node000043" class="node">
<title>Node43</title>
<g id="a_Node000043"><a xlink:href="class_t_m_c5130_stepper.html#a79b391d7358f5dc7402dac2ae7bf7ee6" target="_top" xlink:title=" ">
<polygon fill="white" stroke="#666666" points="322.25,-278.25 195.25,-278.25 195.25,-259 322.25,-259 322.25,-278.25"/>
<text text-anchor="middle" x="258.75" y="-264.75" font-family="Helvetica,sans-Serif" font-size="10.00">TMC5130Stepper::VMAX</text>
</a>
</g>
</g>
<!-- Node1&#45;&gt;Node43 -->
<g id="edge42_Node000001_Node000043" class="edge">
<title>Node1&#45;&gt;Node43</title>
<g id="a_edge42_Node000001_Node000043"><a xlink:title=" ">
<path fill="none" stroke="#63b8ff" d="M436.02,-740.25C430.76,-656.58 407.4,-352.66 342.5,-286.62 336.93,-280.96 330.04,-276.89 322.61,-273.98"/>
<polygon fill="#63b8ff" stroke="#63b8ff" points="432.52,-740.44 436.62,-750.21 439.51,-740.01 432.52,-740.44"/>
</a>
</g>
</g>
<!-- Node44 -->
<g id="Node000044" class="node">
<title>Node44</title>
<g id="a_Node000044"><a xlink:href="class_t_m_c5130_stepper.html#aa2928a4fa71e3f39a475c02fc8354f04" target="_top" xlink:title=" ">
<polygon fill="white" stroke="#666666" points="327.5,-241.25 190,-241.25 190,-222 327.5,-222 327.5,-241.25"/>
<text text-anchor="middle" x="258.75" y="-227.75" font-family="Helvetica,sans-Serif" font-size="10.00">TMC5130Stepper::VSTART</text>
</a>
</g>
</g>
<!-- Node1&#45;&gt;Node44 -->
<g id="edge43_Node000001_Node000044" class="edge">
<title>Node1&#45;&gt;Node44</title>
<g id="a_edge43_Node000001_Node000044"><a xlink:title=" ">
<path fill="none" stroke="#63b8ff" d="M436.37,-740.57C432.28,-653.35 412.29,-321.63 342.5,-249.62 338.3,-245.3 333.33,-241.89 327.93,-239.23"/>
<polygon fill="#63b8ff" stroke="#63b8ff" points="432.86,-740.45 436.8,-750.29 439.85,-740.14 432.86,-740.45"/>
</a>
</g>
</g>
<!-- Node45 -->
<g id="Node000045" class="node">
<title>Node45</title>
<g id="a_Node000045"><a xlink:href="class_t_m_c5130_stepper.html#a6907df333d262328b7a6e2832c3590a0" target="_top" xlink:title=" ">
<polygon fill="white" stroke="#666666" points="324.88,-204.25 192.62,-204.25 192.62,-185 324.88,-185 324.88,-204.25"/>
<text text-anchor="middle" x="258.75" y="-190.75" font-family="Helvetica,sans-Serif" font-size="10.00">TMC5130Stepper::VSTOP</text>
</a>
</g>
</g>
<!-- Node1&#45;&gt;Node45 -->
<g id="edge44_Node000001_Node000045" class="edge">
<title>Node1&#45;&gt;Node45</title>
<g id="a_edge44_Node000001_Node000045"><a xlink:title=" ">
<path fill="none" stroke="#63b8ff" d="M436.64,-740.22C433.59,-648.59 417.02,-290.44 342.5,-212.62 337.62,-207.53 331.66,-203.71 325.2,-200.87"/>
<polygon fill="#63b8ff" stroke="#63b8ff" points="433.14,-740.14 436.95,-750.03 440.13,-739.92 433.14,-740.14"/>
</a>
</g>
</g>
<!-- Node46 -->
<g id="Node000046" class="node">
<title>Node46</title>
<g id="a_Node000046"><a xlink:href="class_t_m_c5130_stepper.html#a9f07f02f86043e2f6838d981c8640a85" target="_top" xlink:title=" ">
<polygon fill="white" stroke="#666666" points="338.75,-167.25 178.75,-167.25 178.75,-148 338.75,-148 338.75,-167.25"/>
<text text-anchor="middle" x="258.75" y="-153.75" font-family="Helvetica,sans-Serif" font-size="10.00">TMC5130Stepper::X_COMPARE</text>
</a>
</g>
</g>
<!-- Node1&#45;&gt;Node46 -->
<g id="edge45_Node000001_Node000046" class="edge">
<title>Node1&#45;&gt;Node46</title>
<g id="a_edge45_Node000001_Node000046"><a xlink:title=" ">
<path fill="none" stroke="#63b8ff" d="M436.9,-740.33C434.89,-645.11 421.88,-259.4 342.5,-175.62 339.57,-172.53 336.24,-169.91 332.64,-167.68"/>
<polygon fill="#63b8ff" stroke="#63b8ff" points="433.4,-740.33 437.09,-750.26 440.4,-740.2 433.4,-740.33"/>
</a>
</g>
</g>
<!-- Node47 -->
<g id="Node000047" class="node">
<title>Node47</title>
<g id="a_Node000047"><a xlink:href="class_t_m_c5130_stepper.html#a96df3216ae2849d3ad7252ea9f27edbb" target="_top" xlink:title=" ">
<polygon fill="white" stroke="#666666" points="324.88,-130.25 192.62,-130.25 192.62,-111 324.88,-111 324.88,-130.25"/>
<text text-anchor="middle" x="258.75" y="-116.75" font-family="Helvetica,sans-Serif" font-size="10.00">TMC5130Stepper::X_ENC</text>
</a>
</g>
</g>
<!-- Node1&#45;&gt;Node47 -->
<g id="edge46_Node000001_Node000047" class="edge">
<title>Node1&#45;&gt;Node47</title>
<g id="a_edge46_Node000001_Node000047"><a xlink:title=" ">
<path fill="none" stroke="#63b8ff" d="M437.12,-740.25C436.08,-641.25 426.7,-228.32 342.5,-138.62 337.67,-133.48 331.74,-129.63 325.3,-126.77"/>
<polygon fill="#63b8ff" stroke="#63b8ff" points="433.62,-740.14 437.21,-750.11 440.62,-740.09 433.62,-740.14"/>
</a>
</g>
</g>
<!-- Node48 -->
<g id="Node000048" class="node">
<title>Node48</title>
<g id="a_Node000048"><a xlink:href="class_t_m_c5130_stepper.html#a94b69d8b20ac649d53eba036afdbbe41" target="_top" xlink:title=" ">
<polygon fill="white" stroke="#666666" points="331.25,-93.25 186.25,-93.25 186.25,-74 331.25,-74 331.25,-93.25"/>
<text text-anchor="middle" x="258.75" y="-79.75" font-family="Helvetica,sans-Serif" font-size="10.00">TMC5130Stepper::XACTUAL</text>
</a>
</g>
</g>
<!-- Node1&#45;&gt;Node48 -->
<g id="edge47_Node000001_Node000048" class="edge">
<title>Node1&#45;&gt;Node48</title>
<g id="a_edge47_Node000001_Node000048"><a xlink:title=" ">
<path fill="none" stroke="#63b8ff" d="M437.32,-740.29C437.22,-637.82 431.56,-197.3 342.5,-101.62 339.29,-98.18 335.6,-95.32 331.58,-92.94"/>
<polygon fill="#63b8ff" stroke="#63b8ff" points="433.82,-740.01 437.31,-750.01 440.82,-740.02 433.82,-740.01"/>
</a>
</g>
</g>
<!-- Node49 -->
<g id="Node000049" class="node">
<title>Node49</title>
<g id="a_Node000049"><a xlink:href="class_t_m_c2130_stepper.html#a879bf37d4369f73fe5e238c8181d1dd1" target="_top" xlink:title=" ">
<polygon fill="white" stroke="#666666" points="330.5,-56.25 187,-56.25 187,-37 330.5,-37 330.5,-56.25"/>
<text text-anchor="middle" x="258.75" y="-42.75" font-family="Helvetica,sans-Serif" font-size="10.00">TMC2130Stepper::XDIRECT</text>
</a>
</g>
</g>
<!-- Node1&#45;&gt;Node49 -->
<g id="edge48_Node000001_Node000049" class="edge">
<title>Node1&#45;&gt;Node49</title>
<g id="a_edge48_Node000001_Node000049"><a xlink:title=" ">
<path fill="none" stroke="#63b8ff" d="M437.5,-740.46C438.31,-634.89 436.48,-166.34 342.5,-64.62 339.11,-60.95 335.16,-57.94 330.86,-55.47"/>
<polygon fill="#63b8ff" stroke="#63b8ff" points="434,-740.41 437.4,-750.44 441,-740.48 434,-740.41"/>
</a>
</g>
</g>
<!-- Node50 -->
<g id="Node000050" class="node">
<title>Node50</title>
<g id="a_Node000050"><a xlink:href="class_t_m_c5130_stepper.html#ac6db9621fa769994b3b6481ba3043b4b" target="_top" xlink:title=" ">
<polygon fill="white" stroke="#666666" points="331.25,-19.25 186.25,-19.25 186.25,0 331.25,0 331.25,-19.25"/>
<text text-anchor="middle" x="258.75" y="-5.75" font-family="Helvetica,sans-Serif" font-size="10.00">TMC5130Stepper::XTARGET</text>
</a>
</g>
</g>
<!-- Node1&#45;&gt;Node50 -->
<g id="edge49_Node000001_Node000050" class="edge">
<title>Node1&#45;&gt;Node50</title>
<g id="a_edge49_Node000001_Node000050"><a xlink:title=" ">
<path fill="none" stroke="#63b8ff" d="M437.66,-740.37C439.33,-631.28 441.32,-135.31 342.5,-27.62 339.32,-24.16 335.64,-21.28 331.64,-18.89"/>
<polygon fill="#63b8ff" stroke="#63b8ff" points="434.17,-740.13 437.49,-750.19 441.17,-740.25 434.17,-740.13"/>
</a>
</g>
</g>
<!-- Node8 -->
<g id="Node000008" class="node">
<title>Node8</title>
<g id="a_Node000008"><a xlink:href="class_t_m_c2130_stepper.html#a0b922ce780788d67d7aa4df4d7067ee6" target="_top" xlink:title=" ">
<polygon fill="white" stroke="#666666" points="128.5,-1379.88 10.5,-1379.88 10.5,-1349.38 128.5,-1349.38 128.5,-1379.88"/>
<text text-anchor="start" x="18.5" y="-1366.38" font-family="Helvetica,sans-Serif" font-size="10.00">TMC2130Stepper::INIT</text>
<text text-anchor="middle" x="69.5" y="-1355.12" font-family="Helvetica,sans-Serif" font-size="10.00">_REGISTER</text>
</a>
</g>
</g>
<!-- Node7&#45;&gt;Node8 -->
<g id="edge7_Node000007_Node000008" class="edge">
<title>Node7&#45;&gt;Node8</title>
<g id="a_edge7_Node000007_Node000008"><a xlink:title=" ">
<path fill="none" stroke="#63b8ff" d="M169.91,-1364.62C155.94,-1364.62 141.8,-1364.62 128.73,-1364.62"/>
<polygon fill="#63b8ff" stroke="#63b8ff" points="169.53,-1368.13 179.53,-1364.63 169.53,-1361.13 169.53,-1368.13"/>
</a>
</g>
</g>
<!-- Node13 -->
<g id="Node000013" class="node">
<title>Node13</title>
<g id="a_Node000013"><a xlink:href="class_t_m_c2130_stepper.html#a58fecdc9742e26579db315b402017c18" target="_top" xlink:title=" ">
<polygon fill="white" stroke="#666666" points="128.5,-1231.88 10.5,-1231.88 10.5,-1201.38 128.5,-1201.38 128.5,-1231.88"/>
<text text-anchor="start" x="18.5" y="-1218.38" font-family="Helvetica,sans-Serif" font-size="10.00">TMC2130Stepper::INIT</text>
<text text-anchor="middle" x="69.5" y="-1207.12" font-family="Helvetica,sans-Serif" font-size="10.00">_REGISTER</text>
</a>
</g>
</g>
<!-- Node12&#45;&gt;Node13 -->
<g id="edge12_Node000012_Node000013" class="edge">
<title>Node12&#45;&gt;Node13</title>
<g id="a_edge12_Node000012_Node000013"><a xlink:title=" ">
<path fill="none" stroke="#63b8ff" d="M177.4,-1216.62C161.13,-1216.62 144.31,-1216.62 128.96,-1216.62"/>
<polygon fill="#63b8ff" stroke="#63b8ff" points="177.04,-1220.13 187.04,-1216.63 177.04,-1213.13 177.04,-1220.13"/>
</a>
</g>
</g>
<!-- Node16 -->
<g id="Node000016" class="node">
<title>Node16</title>
<g id="a_Node000016"><a xlink:href="class_t_m_c2160_stepper.html#aa1d45b42c6914ccc103fc6b5f1485b91" target="_top" xlink:title=" ">
<polygon fill="white" stroke="#666666" points="128.5,-1157.88 10.5,-1157.88 10.5,-1127.38 128.5,-1127.38 128.5,-1157.88"/>
<text text-anchor="start" x="18.5" y="-1144.38" font-family="Helvetica,sans-Serif" font-size="10.00">TMC2160Stepper::INIT</text>
<text text-anchor="middle" x="69.5" y="-1133.12" font-family="Helvetica,sans-Serif" font-size="10.00">_REGISTER</text>
</a>
</g>
</g>
<!-- Node15&#45;&gt;Node16 -->
<g id="edge15_Node000015_Node000016" class="edge">
<title>Node15&#45;&gt;Node16</title>
<g id="a_edge15_Node000015_Node000016"><a xlink:title=" ">
<path fill="none" stroke="#63b8ff" d="M170.16,-1142.62C156.17,-1142.62 142,-1142.62 128.9,-1142.62"/>
<polygon fill="#63b8ff" stroke="#63b8ff" points="169.8,-1146.13 179.8,-1142.63 169.8,-1139.13 169.8,-1146.13"/>
</a>
</g>
</g>
<!-- Node19 -->
<g id="Node000019" class="node">
<title>Node19</title>
<g id="a_Node000019"><a xlink:href="class_t_m_c5160_stepper.html#a846ae33f73f8c5b7ea3402f2922d40f4" target="_top" xlink:title=" ">
<polygon fill="white" stroke="#666666" points="128.5,-1065.88 10.5,-1065.88 10.5,-1035.38 128.5,-1035.38 128.5,-1065.88"/>
<text text-anchor="start" x="18.5" y="-1052.38" font-family="Helvetica,sans-Serif" font-size="10.00">TMC5160Stepper::INIT</text>
<text text-anchor="middle" x="69.5" y="-1041.12" font-family="Helvetica,sans-Serif" font-size="10.00">_REGISTER</text>
</a>
</g>
</g>
<!-- Node18&#45;&gt;Node19 -->
<g id="edge18_Node000018_Node000019" class="edge">
<title>Node18&#45;&gt;Node19</title>
<g id="a_edge18_Node000018_Node000019"><a xlink:title=" ">
<path fill="none" stroke="#63b8ff" d="M186.85,-1050.62C167.72,-1050.62 147.25,-1050.62 128.89,-1050.62"/>
<polygon fill="#63b8ff" stroke="#63b8ff" points="186.73,-1054.13 196.73,-1050.63 186.73,-1047.13 186.73,-1054.13"/>
</a>
</g>
</g>
<!-- Node25 -->
<g id="Node000025" class="node">
<title>Node25</title>
<g id="a_Node000025"><a xlink:href="class_t_m_c2160_stepper.html#a29849e915c5e98f0ff415015e8a884cd" target="_top" xlink:title=" ">
<polygon fill="white" stroke="#666666" points="128.5,-856.88 10.5,-856.88 10.5,-826.38 128.5,-826.38 128.5,-856.88"/>
<text text-anchor="start" x="18.5" y="-843.38" font-family="Helvetica,sans-Serif" font-size="10.00">TMC2160Stepper::INIT</text>
<text text-anchor="middle" x="69.5" y="-832.12" font-family="Helvetica,sans-Serif" font-size="10.00">_REGISTER</text>
</a>
</g>
</g>
<!-- Node24&#45;&gt;Node25 -->
<g id="edge24_Node000024_Node000025" class="edge">
<title>Node24&#45;&gt;Node25</title>
<g id="a_edge24_Node000024_Node000025"><a xlink:title=" ">
<path fill="none" stroke="#63b8ff" d="M178.23,-841.62C161.61,-841.62 144.38,-841.62 128.7,-841.62"/>
<polygon fill="#63b8ff" stroke="#63b8ff" points="178.11,-845.13 188.11,-841.63 178.11,-838.13 178.11,-845.13"/>
</a>
</g>
</g>
<!-- Node29 -->
<g id="Node000029" class="node">
<title>Node29</title>
<g id="a_Node000029"><a xlink:href="class_t_m_c2130_stepper.html#a70482e7d7bbefd27f2daf7c34d043efe" target="_top" xlink:title=" ">
<polygon fill="white" stroke="#666666" points="128.5,-745.88 10.5,-745.88 10.5,-715.38 128.5,-715.38 128.5,-745.88"/>
<text text-anchor="start" x="18.5" y="-732.38" font-family="Helvetica,sans-Serif" font-size="10.00">TMC2130Stepper::INIT</text>
<text text-anchor="middle" x="69.5" y="-721.12" font-family="Helvetica,sans-Serif" font-size="10.00">_REGISTER</text>
</a>
</g>
</g>
<!-- Node28&#45;&gt;Node29 -->
<g id="edge28_Node000028_Node000029" class="edge">
<title>Node28&#45;&gt;Node29</title>
<g id="a_edge28_Node000028_Node000029"><a xlink:title=" ">
<path fill="none" stroke="#63b8ff" d="M170.98,-727.41C156.66,-727.86 142.12,-728.33 128.71,-728.76"/>
<polygon fill="#63b8ff" stroke="#63b8ff" points="171,-730.91 180.88,-727.09 170.78,-723.91 171,-730.91"/>
</a>
</g>
</g>
<!-- Node31 -->
<g id="Node000031" class="node">
<title>Node31</title>
<g id="a_Node000031"><a xlink:href="class_t_m_c2160_stepper.html#a29ca7e78ddd54dfd0965fec9be25b391" target="_top" xlink:title=" ">
<polygon fill="white" stroke="#666666" points="139,-696.88 0,-696.88 0,-666.38 139,-666.38 139,-696.88"/>
<text text-anchor="start" x="8" y="-683.38" font-family="Helvetica,sans-Serif" font-size="10.00">TMC2160Stepper::INIT2160</text>
<text text-anchor="middle" x="69.5" y="-672.12" font-family="Helvetica,sans-Serif" font-size="10.00">_REGISTER</text>
</a>
</g>
</g>
<!-- Node30&#45;&gt;Node31 -->
<g id="edge30_Node000030_Node000031" class="edge">
<title>Node30&#45;&gt;Node31</title>
<g id="a_edge30_Node000030_Node000031"><a xlink:title=" ">
<path fill="none" stroke="#63b8ff" d="M170.96,-684.84C160.36,-684.5 149.63,-684.16 139.34,-683.83"/>
<polygon fill="#63b8ff" stroke="#63b8ff" points="170.78,-688.34 180.88,-685.16 171,-681.34 170.78,-688.34"/>
</a>
</g>
</g>
<!-- Node34 -->
<g id="Node000034" class="node">
<title>Node34</title>
<g id="a_Node000034"><a xlink:href="class_t_m_c2160_stepper.html#abc3aecaca1d6036ce6884a063c6fb9e4" target="_top" xlink:title=" ">
<polygon fill="white" stroke="#666666" points="128.5,-628.88 10.5,-628.88 10.5,-598.38 128.5,-598.38 128.5,-628.88"/>
<text text-anchor="start" x="18.5" y="-615.38" font-family="Helvetica,sans-Serif" font-size="10.00">TMC2160Stepper::INIT</text>
<text text-anchor="middle" x="69.5" y="-604.12" font-family="Helvetica,sans-Serif" font-size="10.00">_REGISTER</text>
</a>
</g>
</g>
<!-- Node33&#45;&gt;Node34 -->
<g id="edge33_Node000033_Node000034" class="edge">
<title>Node33&#45;&gt;Node34</title>
<g id="a_edge33_Node000033_Node000034"><a xlink:title=" ">
<path fill="none" stroke="#63b8ff" d="M163.27,-613.62C151.51,-613.62 139.77,-613.62 128.79,-613.62"/>
<polygon fill="#63b8ff" stroke="#63b8ff" points="163.02,-617.13 173.02,-613.63 163.02,-610.13 163.02,-617.13"/>
</a>
</g>
</g>
</g>
</svg>
