<?xml version="1.0" encoding="UTF-8" standalone="no"?>
<!DOCTYPE svg PUBLIC "-//W3C//DTD SVG 1.1//EN"
 "http://www.w3.org/Graphics/SVG/1.1/DTD/svg11.dtd">
<!-- Generated by graphviz version 12.2.1 (20241206.2353)
 -->
<!-- Title: TMC2130Stepper::DCCTRL Pages: 1 -->
<svg width="317pt" height="212pt"
 viewBox="0.00 0.00 316.75 212.25" xmlns="http://www.w3.org/2000/svg" xmlns:xlink="http://www.w3.org/1999/xlink">
<g id="graph0" class="graph" transform="scale(1 1) rotate(0) translate(4 208.25)">
<title>TMC2130Stepper::DCCTRL</title>
<!-- Node1 -->
<g id="Node000001" class="node">
<title>Node1</title>
<g id="a_Node000001"><a xlink:title=" ">
<polygon fill="#999999" stroke="#666666" points="308.75,-111.25 169,-111.25 169,-92 308.75,-92 308.75,-111.25"/>
<text text-anchor="middle" x="238.88" y="-97.75" font-family="Helvetica,sans-Serif" font-size="10.00">TMC2130Stepper::DCCTRL</text>
</a>
</g>
</g>
<!-- Node2 -->
<g id="Node000002" class="node">
<title>Node2</title>
<g id="a_Node000002"><a xlink:href="class_t_m_c2130_stepper.html#aafabeef9ffd19821104d0b00488b7115" target="_top" xlink:title=" ">
<polygon fill="white" stroke="#666666" points="128.88,-204.25 4.13,-204.25 4.13,-185 128.88,-185 128.88,-204.25"/>
<text text-anchor="middle" x="66.5" y="-190.75" font-family="Helvetica,sans-Serif" font-size="10.00">TMC2130Stepper::dc_sg</text>
</a>
</g>
</g>
<!-- Node1&#45;&gt;Node2 -->
<g id="edge1_Node000001_Node000002" class="edge">
<title>Node1&#45;&gt;Node2</title>
<g id="a_edge1_Node000001_Node000002"><a xlink:title=" ">
<path fill="none" stroke="#63b8ff" d="M218.22,-118.95C198.1,-135.87 165.28,-161.25 133,-176.62 126.51,-179.72 119.39,-182.36 112.31,-184.59"/>
<polygon fill="#63b8ff" stroke="#63b8ff" points="220.31,-121.77 225.63,-112.61 215.76,-116.46 220.31,-121.77"/>
</a>
</g>
</g>
<!-- Node3 -->
<g id="Node000003" class="node">
<title>Node3</title>
<g id="a_Node000003"><a xlink:href="class_t_m_c2130_stepper.html#a4781278716fa3c2a5204bb1b45da4fee" target="_top" xlink:title=" ">
<polygon fill="white" stroke="#666666" points="133,-167.25 0,-167.25 0,-148 133,-148 133,-167.25"/>
<text text-anchor="middle" x="66.5" y="-153.75" font-family="Helvetica,sans-Serif" font-size="10.00">TMC2130Stepper::dc_time</text>
</a>
</g>
</g>
<!-- Node1&#45;&gt;Node3 -->
<g id="edge2_Node000001_Node000003" class="edge">
<title>Node1&#45;&gt;Node3</title>
<g id="a_edge2_Node000001_Node000003"><a xlink:title=" ">
<path fill="none" stroke="#63b8ff" d="M201.25,-115.7C181.22,-123.2 155.89,-132.35 133,-139.62 124.35,-142.38 114.97,-145.1 106.1,-147.57"/>
<polygon fill="#63b8ff" stroke="#63b8ff" points="202.24,-119.07 210.37,-112.27 199.77,-112.52 202.24,-119.07"/>
</a>
</g>
</g>
<!-- Node4 -->
<g id="Node000004" class="node">
<title>Node4</title>
<g id="a_Node000004"><a xlink:href="class_t_m_c2130_stepper.html#ac62d32ad08be0a34b411bdd5a8489246" target="_top" xlink:title=" ">
<polygon fill="white" stroke="#666666" points="126.25,-130.25 6.75,-130.25 6.75,-111 126.25,-111 126.25,-130.25"/>
<text text-anchor="middle" x="66.5" y="-116.75" font-family="Helvetica,sans-Serif" font-size="10.00">TMC2130Stepper::push</text>
</a>
</g>
</g>
<!-- Node1&#45;&gt;Node4 -->
<g id="edge3_Node000001_Node000004" class="edge">
<title>Node1&#45;&gt;Node4</title>
<g id="a_edge3_Node000001_Node000004"><a xlink:title=" ">
<path fill="none" stroke="#63b8ff" d="M157.4,-110.6C147.03,-111.76 136.58,-112.92 126.64,-114.03"/>
<polygon fill="#63b8ff" stroke="#63b8ff" points="157.52,-114.11 167.07,-109.52 156.75,-107.15 157.52,-114.11"/>
</a>
</g>
</g>
<!-- Node5 -->
<g id="Node000005" class="node">
<title>Node5</title>
<g id="a_Node000005"><a xlink:href="class_t_m_c2160_stepper.html#ae8035a0cb8151d5227d8528e540e637d" target="_top" xlink:title=" ">
<polygon fill="white" stroke="#666666" points="126.25,-93.25 6.75,-93.25 6.75,-74 126.25,-74 126.25,-93.25"/>
<text text-anchor="middle" x="66.5" y="-79.75" font-family="Helvetica,sans-Serif" font-size="10.00">TMC2160Stepper::push</text>
</a>
</g>
</g>
<!-- Node1&#45;&gt;Node5 -->
<g id="edge4_Node000001_Node000005" class="edge">
<title>Node1&#45;&gt;Node5</title>
<g id="a_edge4_Node000001_Node000005"><a xlink:title=" ">
<path fill="none" stroke="#63b8ff" d="M157.4,-93.12C147.03,-92.03 136.58,-90.92 126.64,-89.87"/>
<polygon fill="#63b8ff" stroke="#63b8ff" points="156.76,-96.57 167.07,-94.14 157.49,-89.61 156.76,-96.57"/>
</a>
</g>
</g>
<!-- Node6 -->
<g id="Node000006" class="node">
<title>Node6</title>
<g id="a_Node000006"><a xlink:href="class_t_m_c5130_stepper.html#a55e61f5181d74f26c9d35c54e4436d7a" target="_top" xlink:title=" ">
<polygon fill="white" stroke="#666666" points="126.25,-56.25 6.75,-56.25 6.75,-37 126.25,-37 126.25,-56.25"/>
<text text-anchor="middle" x="66.5" y="-42.75" font-family="Helvetica,sans-Serif" font-size="10.00">TMC5130Stepper::push</text>
</a>
</g>
</g>
<!-- Node1&#45;&gt;Node6 -->
<g id="edge5_Node000001_Node000006" class="edge">
<title>Node1&#45;&gt;Node6</title>
<g id="a_edge5_Node000001_Node000006"><a xlink:title=" ">
<path fill="none" stroke="#63b8ff" d="M200.12,-87.58C180.26,-80.37 155.44,-71.66 133,-64.62 124.33,-61.91 114.96,-59.2 106.08,-56.74"/>
<polygon fill="#63b8ff" stroke="#63b8ff" points="198.87,-90.85 209.47,-90.99 201.28,-84.27 198.87,-90.85"/>
</a>
</g>
</g>
<!-- Node7 -->
<g id="Node000007" class="node">
<title>Node7</title>
<g id="a_Node000007"><a xlink:href="class_t_m_c5160_stepper.html#a5a12974304588f9d01898d91ba854b87" target="_top" xlink:title=" ">
<polygon fill="white" stroke="#666666" points="126.25,-19.25 6.75,-19.25 6.75,0 126.25,0 126.25,-19.25"/>
<text text-anchor="middle" x="66.5" y="-5.75" font-family="Helvetica,sans-Serif" font-size="10.00">TMC5160Stepper::push</text>
</a>
</g>
</g>
<!-- Node1&#45;&gt;Node7 -->
<g id="edge6_Node000001_Node000007" class="edge">
<title>Node1&#45;&gt;Node7</title>
<g id="a_edge6_Node000001_Node000007"><a xlink:title=" ">
<path fill="none" stroke="#63b8ff" d="M217.85,-84.27C197.67,-67.59 165,-42.74 133,-27.62 126.5,-24.55 119.37,-21.92 112.29,-19.7"/>
<polygon fill="#63b8ff" stroke="#63b8ff" points="215.39,-86.77 225.29,-90.54 219.9,-81.42 215.39,-86.77"/>
</a>
</g>
</g>
</g>
</svg>
