<?xml version="1.0" encoding="UTF-8" standalone="no"?>
<!DOCTYPE svg PUBLIC "-//W3C//DTD SVG 1.1//EN"
 "http://www.w3.org/Graphics/SVG/1.1/DTD/svg11.dtd">
<!-- Generated by graphviz version 12.2.1 (20241206.2353)
 -->
<!-- Title: TMC2660Stepper::test_connection Pages: 1 -->
<svg width="664pt" height="82pt"
 viewBox="0.00 0.00 663.75 82.25" xmlns="http://www.w3.org/2000/svg" xmlns:xlink="http://www.w3.org/1999/xlink">
<g id="graph0" class="graph" transform="scale(1 1) rotate(0) translate(4 78.25)">
<title>TMC2660Stepper::test_connection</title>
<!-- Node1 -->
<g id="Node000001" class="node">
<title>Node1</title>
<g id="a_Node000001"><a xlink:title=" ">
<polygon fill="#999999" stroke="#666666" points="115,-42.88 0,-42.88 0,-12.37 115,-12.37 115,-42.88"/>
<text text-anchor="start" x="8" y="-29.38" font-family="Helvetica,sans-Serif" font-size="10.00">TMC2660Stepper::test</text>
<text text-anchor="middle" x="57.5" y="-18.12" font-family="Helvetica,sans-Serif" font-size="10.00">_connection</text>
</a>
</g>
</g>
<!-- Node2 -->
<g id="Node000002" class="node">
<title>Node2</title>
<g id="a_Node000002"><a xlink:href="class_t_m_c2660_stepper.html#a124bab76346c3c6c17f812e8c4ad7a5c" target="_top" xlink:title=" ">
<polygon fill="white" stroke="#666666" points="310.25,-37.25 151,-37.25 151,-18 310.25,-18 310.25,-37.25"/>
<text text-anchor="middle" x="230.62" y="-23.75" font-family="Helvetica,sans-Serif" font-size="10.00">TMC2660Stepper::DRVSTATUS</text>
</a>
</g>
</g>
<!-- Node1&#45;&gt;Node2 -->
<g id="edge1_Node000001_Node000002" class="edge">
<title>Node1&#45;&gt;Node2</title>
<g id="a_edge1_Node000001_Node000002"><a xlink:title=" ">
<path fill="none" stroke="#63b8ff" d="M115.48,-27.62C123.15,-27.62 131.16,-27.62 139.23,-27.62"/>
<polygon fill="#63b8ff" stroke="#63b8ff" points="139.13,-31.13 149.13,-27.63 139.13,-24.13 139.13,-31.13"/>
</a>
</g>
</g>
<!-- Node3 -->
<g id="Node000003" class="node">
<title>Node3</title>
<g id="a_Node000003"><a xlink:href="class_t_m_c2660_stepper.html#a4fa131ecb1e0e0436abff079c44eee5b" target="_top" xlink:title=" ">
<polygon fill="white" stroke="#666666" points="465.75,-56.25 346.25,-56.25 346.25,-37 465.75,-37 465.75,-56.25"/>
<text text-anchor="middle" x="406" y="-42.75" font-family="Helvetica,sans-Serif" font-size="10.00">TMC2660Stepper::rdsel</text>
</a>
</g>
</g>
<!-- Node2&#45;&gt;Node3 -->
<g id="edge2_Node000002_Node000003" class="edge">
<title>Node2&#45;&gt;Node3</title>
<g id="a_edge2_Node000002_Node000003"><a xlink:title=" ">
<path fill="none" stroke="#63b8ff" d="M310.7,-36.29C318.62,-37.16 326.63,-38.04 334.45,-38.89"/>
<polygon fill="#63b8ff" stroke="#63b8ff" points="333.93,-42.36 344.25,-39.97 334.69,-35.4 333.93,-42.36"/>
</a>
</g>
</g>
<!-- Node5 -->
<g id="Node000005" class="node">
<title>Node5</title>
<g id="a_Node000005"><a xlink:href="class_t_m_c2660_stepper.html#aba43e2af829abee9e029bdd43bde5f61" target="_top" xlink:title=" ">
<polygon fill="white" stroke="#666666" points="464.62,-19.25 347.38,-19.25 347.38,0 464.62,0 464.62,-19.25"/>
<text text-anchor="middle" x="406" y="-5.75" font-family="Helvetica,sans-Serif" font-size="10.00">TMC2660Stepper::read</text>
</a>
</g>
</g>
<!-- Node2&#45;&gt;Node5 -->
<g id="edge5_Node000002_Node000005" class="edge">
<title>Node2&#45;&gt;Node5</title>
<g id="a_edge5_Node000002_Node000005"><a xlink:title=" ">
<path fill="none" stroke="#63b8ff" d="M310.7,-19.42C319.02,-18.55 327.43,-17.68 335.62,-16.83"/>
<polygon fill="#63b8ff" stroke="#63b8ff" points="335.94,-20.31 345.53,-15.8 335.22,-13.35 335.94,-20.31"/>
</a>
</g>
</g>
<!-- Node4 -->
<g id="Node000004" class="node">
<title>Node4</title>
<g id="a_Node000004"><a xlink:href="class_t_m_c2660_stepper.html#a0f6ee76b23deb7f6d5af711d9b9e2452" target="_top" xlink:title=" ">
<polygon fill="white" stroke="#666666" points="638.5,-56.25 519,-56.25 519,-37 638.5,-37 638.5,-56.25"/>
<text text-anchor="middle" x="578.75" y="-42.75" font-family="Helvetica,sans-Serif" font-size="10.00">TMC2660Stepper::rdsel</text>
</a>
</g>
</g>
<!-- Node3&#45;&gt;Node4 -->
<g id="edge3_Node000003_Node000004" class="edge">
<title>Node3&#45;&gt;Node4</title>
<g id="a_edge3_Node000003_Node000004"><a xlink:title=" ">
<path fill="none" stroke="#63b8ff" d="M466.24,-46.62C479.49,-46.62 493.66,-46.62 507.31,-46.62"/>
<polygon fill="#63b8ff" stroke="#63b8ff" points="507.1,-50.13 517.1,-46.63 507.1,-43.13 507.1,-50.13"/>
</a>
</g>
</g>
<!-- Node4&#45;&gt;Node4 -->
<g id="edge4_Node000004_Node000004" class="edge">
<title>Node4&#45;&gt;Node4</title>
<g id="a_edge4_Node000004_Node000004"><a xlink:title=" ">
<path fill="none" stroke="#63b8ff" d="M551.71,-56.54C539.37,-65.15 548.38,-74.25 578.75,-74.25 595.83,-74.25 606.16,-71.37 609.73,-67.32"/>
<polygon fill="#63b8ff" stroke="#63b8ff" points="613.03,-66.16 606.31,-57.96 606.45,-68.55 613.03,-66.16"/>
</a>
</g>
</g>
<!-- Node6 -->
<g id="Node000006" class="node">
<title>Node6</title>
<g id="a_Node000006"><a xlink:href="class_t_m_c2660_stepper.html#a63505ee4078e1f060a2ccecc30f228bd" target="_top" xlink:title=" ">
<polygon fill="white" stroke="#666666" points="655.75,-19.25 501.75,-19.25 501.75,0 655.75,0 655.75,-19.25"/>
<text text-anchor="middle" x="578.75" y="-5.75" font-family="Helvetica,sans-Serif" font-size="10.00">TMC2660Stepper::switchCSpin</text>
</a>
</g>
</g>
<!-- Node5&#45;&gt;Node6 -->
<g id="edge6_Node000005_Node000006" class="edge">
<title>Node5&#45;&gt;Node6</title>
<g id="a_edge6_Node000005_Node000006"><a xlink:title=" ">
<path fill="none" stroke="#63b8ff" d="M464.81,-9.62C473.02,-9.62 481.6,-9.62 490.22,-9.62"/>
<polygon fill="#63b8ff" stroke="#63b8ff" points="490.02,-13.13 500.02,-9.63 490.02,-6.13 490.02,-13.13"/>
</a>
</g>
</g>
</g>
</svg>
