<?xml version="1.0" encoding="UTF-8" standalone="no"?>
<!DOCTYPE svg PUBLIC "-//W3C//DTD SVG 1.1//EN"
 "http://www.w3.org/Graphics/SVG/1.1/DTD/svg11.dtd">
<!-- Generated by graphviz version 12.2.1 (20241206.2353)
 -->
<!-- Title: TMC2660Stepper::DRVSTATUS Pages: 1 -->
<svg width="324pt" height="137pt"
 viewBox="0.00 0.00 323.50 136.50" xmlns="http://www.w3.org/2000/svg" xmlns:xlink="http://www.w3.org/1999/xlink">
<g id="graph0" class="graph" transform="scale(1 1) rotate(0) translate(4 132.5)">
<title>TMC2660Stepper::DRVSTATUS</title>
<!-- Node1 -->
<g id="Node000001" class="node">
<title>Node1</title>
<g id="a_Node000001"><a xlink:title=" ">
<polygon fill="#999999" stroke="#666666" points="315.5,-73.88 156.25,-73.88 156.25,-54.62 315.5,-54.62 315.5,-73.88"/>
<text text-anchor="middle" x="235.88" y="-60.38" font-family="Helvetica,sans-Serif" font-size="10.00">TMC2660Stepper::DRVSTATUS</text>
</a>
</g>
</g>
<!-- Node2 -->
<g id="Node000002" class="node">
<title>Node2</title>
<g id="a_Node000002"><a xlink:href="class_t_m_c2660_stepper.html#a560c825469ada7c23ec66a4106360e48" target="_top" xlink:title=" ">
<polygon fill="white" stroke="#666666" points="120.25,-128.5 0,-128.5 0,-98 120.25,-98 120.25,-128.5"/>
<text text-anchor="start" x="8" y="-115" font-family="Helvetica,sans-Serif" font-size="10.00">TMC2660Stepper::DRV</text>
<text text-anchor="middle" x="60.12" y="-103.75" font-family="Helvetica,sans-Serif" font-size="10.00">_STATUS</text>
</a>
</g>
</g>
<!-- Node1&#45;&gt;Node2 -->
<g id="edge1_Node000001_Node000002" class="edge">
<title>Node1&#45;&gt;Node2</title>
<g id="a_edge1_Node000001_Node000002"><a xlink:title=" ">
<path fill="none" stroke="#63b8ff" d="M188.24,-77.4C166.26,-83.6 139.87,-91.04 116.84,-97.54"/>
<polygon fill="#63b8ff" stroke="#63b8ff" points="189.16,-80.78 197.84,-74.69 187.26,-74.04 189.16,-80.78"/>
</a>
</g>
</g>
<!-- Node3 -->
<g id="Node000003" class="node">
<title>Node3</title>
<g id="a_Node000003"><a xlink:href="class_t_m_c2660_stepper.html#a51f799cf592f8d9d50d110aaedfe141a" target="_top" xlink:title=" ">
<polygon fill="white" stroke="#666666" points="114.62,-79.5 5.62,-79.5 5.62,-49 114.62,-49 114.62,-79.5"/>
<text text-anchor="start" x="13.62" y="-66" font-family="Helvetica,sans-Serif" font-size="10.00">TMC2660Stepper::sg</text>
<text text-anchor="middle" x="60.12" y="-54.75" font-family="Helvetica,sans-Serif" font-size="10.00">_result</text>
</a>
</g>
</g>
<!-- Node1&#45;&gt;Node3 -->
<g id="edge2_Node000001_Node000003" class="edge">
<title>Node1&#45;&gt;Node3</title>
<g id="a_edge2_Node000001_Node000003"><a xlink:title=" ">
<path fill="none" stroke="#63b8ff" d="M144.52,-64.25C134.46,-64.25 124.47,-64.25 115.07,-64.25"/>
<polygon fill="#63b8ff" stroke="#63b8ff" points="144.37,-67.75 154.37,-64.25 144.37,-60.75 144.37,-67.75"/>
</a>
</g>
</g>
<!-- Node4 -->
<g id="Node000004" class="node">
<title>Node4</title>
<g id="a_Node000004"><a xlink:href="class_t_m_c2660_stepper.html#a72a9a2ecf2d0707dba76de414cec209e" target="_top" xlink:title=" ">
<polygon fill="white" stroke="#666666" points="117.62,-30.5 2.62,-30.5 2.62,0 117.62,0 117.62,-30.5"/>
<text text-anchor="start" x="10.62" y="-17" font-family="Helvetica,sans-Serif" font-size="10.00">TMC2660Stepper::test</text>
<text text-anchor="middle" x="60.12" y="-5.75" font-family="Helvetica,sans-Serif" font-size="10.00">_connection</text>
</a>
</g>
</g>
<!-- Node1&#45;&gt;Node4 -->
<g id="edge3_Node000001_Node000004" class="edge">
<title>Node1&#45;&gt;Node4</title>
<g id="a_edge3_Node000001_Node000004"><a xlink:title=" ">
<path fill="none" stroke="#63b8ff" d="M188.24,-51.1C166.26,-44.9 139.87,-37.46 116.84,-30.96"/>
<polygon fill="#63b8ff" stroke="#63b8ff" points="187.26,-54.46 197.84,-53.81 189.16,-47.72 187.26,-54.46"/>
</a>
</g>
</g>
</g>
</svg>
