<?xml version="1.0" encoding="UTF-8" standalone="no"?>
<!DOCTYPE svg PUBLIC "-//W3C//DTD SVG 1.1//EN"
 "http://www.w3.org/Graphics/SVG/1.1/DTD/svg11.dtd">
<!-- Generated by graphviz version 12.2.1 (20241206.2353)
 -->
<!-- Title: TMC2209Stepper::INIT2209_REGISTER Pages: 1 -->
<svg width="655pt" height="174pt"
 viewBox="0.00 0.00 654.75 173.88" xmlns="http://www.w3.org/2000/svg" xmlns:xlink="http://www.w3.org/1999/xlink">
<g id="graph0" class="graph" transform="scale(1 1) rotate(0) translate(4 169.88)">
<title>TMC2209Stepper::INIT2209_REGISTER</title>
<!-- Node1 -->
<g id="Node000001" class="node">
<title>Node1</title>
<g id="a_Node000001"><a xlink:title=" ">
<polygon fill="#999999" stroke="#666666" points="139,-103.5 0,-103.5 0,-73 139,-73 139,-103.5"/>
<text text-anchor="start" x="8" y="-90" font-family="Helvetica,sans-Serif" font-size="10.00">TMC2209Stepper::INIT2209</text>
<text text-anchor="middle" x="69.5" y="-78.75" font-family="Helvetica,sans-Serif" font-size="10.00">_REGISTER</text>
</a>
</g>
</g>
<!-- Node2 -->
<g id="Node000002" class="node">
<title>Node2</title>
<g id="a_Node000002"><a xlink:href="class_t_m_c2209_stepper.html#ac02a95cfd0f560a2705136717f50d957" target="_top" xlink:title=" ">
<polygon fill="white" stroke="#666666" points="315.5,-97.88 175,-97.88 175,-78.62 315.5,-78.62 315.5,-97.88"/>
<text text-anchor="middle" x="245.25" y="-84.38" font-family="Helvetica,sans-Serif" font-size="10.00">TMC2209Stepper::SGTHRS</text>
</a>
</g>
</g>
<!-- Node1&#45;&gt;Node2 -->
<g id="edge1_Node000001_Node000002" class="edge">
<title>Node1&#45;&gt;Node2</title>
<g id="a_edge1_Node000001_Node000002"><a xlink:title=" ">
<path fill="none" stroke="#63b8ff" d="M139.17,-88.25C147.1,-88.25 155.24,-88.25 163.32,-88.25"/>
<polygon fill="#63b8ff" stroke="#63b8ff" points="163.14,-91.75 173.14,-88.25 163.14,-84.75 163.14,-91.75"/>
</a>
</g>
</g>
<!-- Node3 -->
<g id="Node000003" class="node">
<title>Node3</title>
<g id="a_Node000003"><a xlink:href="class_t_m_c2208_stepper.html#a142b14de8a4dcc6cf76b4a6ede9e1cea" target="_top" xlink:title=" ">
<polygon fill="white" stroke="#666666" points="471,-97.88 351.5,-97.88 351.5,-78.62 471,-78.62 471,-97.88"/>
<text text-anchor="middle" x="411.25" y="-84.38" font-family="Helvetica,sans-Serif" font-size="10.00">TMC2208Stepper::write</text>
</a>
</g>
</g>
<!-- Node2&#45;&gt;Node3 -->
<g id="edge2_Node000002_Node000003" class="edge">
<title>Node2&#45;&gt;Node3</title>
<g id="a_edge2_Node000002_Node000003"><a xlink:title=" ">
<path fill="none" stroke="#63b8ff" d="M315.8,-88.25C323.72,-88.25 331.8,-88.25 339.73,-88.25"/>
<polygon fill="#63b8ff" stroke="#63b8ff" points="339.69,-91.75 349.69,-88.25 339.69,-84.75 339.69,-91.75"/>
</a>
</g>
</g>
<!-- Node4 -->
<g id="Node000004" class="node">
<title>Node4</title>
<g id="a_Node000004"><a xlink:href="class_t_m_c2208_stepper.html#a409c19fa6b052a370a317d061bf9af4e" target="_top" xlink:title=" ">
<polygon fill="white" stroke="#666666" points="646.38,-165.88 507.38,-165.88 507.38,-146.62 646.38,-146.62 646.38,-165.88"/>
<text text-anchor="middle" x="576.88" y="-152.38" font-family="Helvetica,sans-Serif" font-size="10.00">TMC2208Stepper::calcCRC</text>
</a>
</g>
</g>
<!-- Node3&#45;&gt;Node4 -->
<g id="edge3_Node000003_Node000004" class="edge">
<title>Node3&#45;&gt;Node4</title>
<g id="a_edge3_Node000003_Node000004"><a xlink:title=" ">
<path fill="none" stroke="#63b8ff" d="M428.87,-98.2C447.41,-108.97 478.55,-126.11 507,-137.25 512.21,-139.29 517.72,-141.2 523.26,-142.96"/>
<polygon fill="#63b8ff" stroke="#63b8ff" points="521.86,-146.2 532.45,-145.73 523.88,-139.5 521.86,-146.2"/>
</a>
</g>
</g>
<!-- Node5 -->
<g id="Node000005" class="node">
<title>Node5</title>
<g id="a_Node000005"><a xlink:href="class_t_m_c2208_stepper.html#a5147cab1658f782b36b0ce7e951d4f4e" target="_top" xlink:title=" ">
<polygon fill="white" stroke="#666666" points="646.75,-128.5 507,-128.5 507,-98 646.75,-98 646.75,-128.5"/>
<text text-anchor="start" x="515" y="-115" font-family="Helvetica,sans-Serif" font-size="10.00">TMC2208Stepper::postWrite</text>
<text text-anchor="middle" x="576.88" y="-103.75" font-family="Helvetica,sans-Serif" font-size="10.00">Communication</text>
</a>
</g>
</g>
<!-- Node3&#45;&gt;Node5 -->
<g id="edge4_Node000003_Node000005" class="edge">
<title>Node3&#45;&gt;Node5</title>
<g id="a_edge4_Node000003_Node000005"><a xlink:title=" ">
<path fill="none" stroke="#63b8ff" d="M471.32,-97.28C479.1,-98.46 487.17,-99.7 495.23,-100.93"/>
<polygon fill="#63b8ff" stroke="#63b8ff" points="494.68,-104.38 505.09,-102.43 495.73,-97.46 494.68,-104.38"/>
</a>
</g>
</g>
<!-- Node6 -->
<g id="Node000006" class="node">
<title>Node6</title>
<g id="a_Node000006"><a xlink:href="class_t_m_c2208_stepper.html#a66e4f8694ee035432af8b61f14b35a92" target="_top" xlink:title=" ">
<polygon fill="white" stroke="#666666" points="644.12,-79.5 509.62,-79.5 509.62,-49 644.12,-49 644.12,-79.5"/>
<text text-anchor="start" x="517.62" y="-66" font-family="Helvetica,sans-Serif" font-size="10.00">TMC2208Stepper::preWrite</text>
<text text-anchor="middle" x="576.88" y="-54.75" font-family="Helvetica,sans-Serif" font-size="10.00">Communication</text>
</a>
</g>
</g>
<!-- Node3&#45;&gt;Node6 -->
<g id="edge5_Node000003_Node000006" class="edge">
<title>Node3&#45;&gt;Node6</title>
<g id="a_edge5_Node000003_Node000006"><a xlink:title=" ">
<path fill="none" stroke="#63b8ff" d="M471.32,-79.59C480.01,-78.31 489.07,-76.98 498.07,-75.66"/>
<polygon fill="#63b8ff" stroke="#63b8ff" points="498.51,-79.13 507.9,-74.22 497.5,-72.21 498.51,-79.13"/>
</a>
</g>
</g>
<!-- Node7 -->
<g id="Node000007" class="node">
<title>Node7</title>
<g id="a_Node000007"><a xlink:href="class_t_m_c2208_stepper.html#adb6243277ef84d2027b2b8bae6be5bd0" target="_top" xlink:title=" ">
<polygon fill="white" stroke="#666666" points="637.75,-30.5 516,-30.5 516,0 637.75,0 637.75,-30.5"/>
<text text-anchor="start" x="524" y="-17" font-family="Helvetica,sans-Serif" font-size="10.00">TMC2208Stepper::serial</text>
<text text-anchor="middle" x="576.88" y="-5.75" font-family="Helvetica,sans-Serif" font-size="10.00">_write</text>
</a>
</g>
</g>
<!-- Node3&#45;&gt;Node7 -->
<g id="edge6_Node000003_Node000007" class="edge">
<title>Node3&#45;&gt;Node7</title>
<g id="a_edge6_Node000003_Node000007"><a xlink:title=" ">
<path fill="none" stroke="#63b8ff" d="M430.45,-78.2C449.3,-67.99 479.75,-52.04 507,-40.25 511.09,-38.48 515.34,-36.73 519.65,-35.02"/>
<polygon fill="#63b8ff" stroke="#63b8ff" points="520.89,-38.29 528.96,-31.43 518.37,-31.76 520.89,-38.29"/>
</a>
</g>
</g>
</g>
</svg>
