<?xml version="1.0" encoding="UTF-8" standalone="no"?>
<!DOCTYPE svg PUBLIC "-//W3C//DTD SVG 1.1//EN"
 "http://www.w3.org/Graphics/SVG/1.1/DTD/svg11.dtd">
<!-- Generated by graphviz version 12.2.1 (20241206.2353)
 -->
<!-- Title: TMC2660Stepper::push Pages: 1 -->
<svg width="632pt" height="214pt"
 viewBox="0.00 0.00 632.25 214.25" xmlns="http://www.w3.org/2000/svg" xmlns:xlink="http://www.w3.org/1999/xlink">
<g id="graph0" class="graph" transform="scale(1 1) rotate(0) translate(4 210.25)">
<title>TMC2660Stepper::push</title>
<!-- Node1 -->
<g id="Node000001" class="node">
<title>Node1</title>
<g id="a_Node000001"><a xlink:title=" ">
<polygon fill="#999999" stroke="#666666" points="119.5,-113.25 0,-113.25 0,-94 119.5,-94 119.5,-113.25"/>
<text text-anchor="middle" x="59.75" y="-99.75" font-family="Helvetica,sans-Serif" font-size="10.00">TMC2660Stepper::push</text>
</a>
</g>
</g>
<!-- Node2 -->
<g id="Node000002" class="node">
<title>Node2</title>
<g id="a_Node000002"><a xlink:href="class_t_m_c2660_stepper.html#ad584d93cbf798731dcecee465b8b1de6" target="_top" xlink:title=" ">
<polygon fill="white" stroke="#666666" points="311.75,-206.25 155.5,-206.25 155.5,-187 311.75,-187 311.75,-206.25"/>
<text text-anchor="middle" x="233.62" y="-192.75" font-family="Helvetica,sans-Serif" font-size="10.00">TMC2660Stepper::CHOPCONF</text>
</a>
</g>
</g>
<!-- Node1&#45;&gt;Node2 -->
<g id="edge1_Node000001_Node000002" class="edge">
<title>Node1&#45;&gt;Node2</title>
<g id="a_edge1_Node000001_Node000002"><a xlink:title=" ">
<path fill="none" stroke="#63b8ff" d="M70.25,-113.58C86.26,-129.76 120.35,-161.67 155.5,-178.62 158.78,-180.21 162.21,-181.66 165.72,-182.98"/>
<polygon fill="#63b8ff" stroke="#63b8ff" points="164.4,-186.23 175,-186.11 166.64,-179.6 164.4,-186.23"/>
</a>
</g>
</g>
<!-- Node3 -->
<g id="Node000003" class="node">
<title>Node3</title>
<g id="a_Node000003"><a xlink:href="class_t_m_c2660_stepper.html#a832e8094055d7b70e95ee49a0ef8e742" target="_top" xlink:title=" ">
<polygon fill="white" stroke="#666666" points="308,-169.25 159.25,-169.25 159.25,-150 308,-150 308,-169.25"/>
<text text-anchor="middle" x="233.62" y="-155.75" font-family="Helvetica,sans-Serif" font-size="10.00">TMC2660Stepper::DRVCONF</text>
</a>
</g>
</g>
<!-- Node1&#45;&gt;Node3 -->
<g id="edge2_Node000001_Node000003" class="edge">
<title>Node1&#45;&gt;Node3</title>
<g id="a_edge2_Node000001_Node000003"><a xlink:title=" ">
<path fill="none" stroke="#63b8ff" d="M82.99,-113.66C101.97,-121.96 130.14,-133.63 155.5,-141.62 161.24,-143.43 167.27,-145.15 173.32,-146.75"/>
<polygon fill="#63b8ff" stroke="#63b8ff" points="172.16,-150.07 182.72,-149.14 173.88,-143.28 172.16,-150.07"/>
</a>
</g>
</g>
<!-- Node4 -->
<g id="Node000004" class="node">
<title>Node4</title>
<g id="a_Node000004"><a xlink:href="class_t_m_c2660_stepper.html#a45ae40bd2b9b997b9cfedb13403e2387" target="_top" xlink:title=" ">
<polygon fill="white" stroke="#666666" points="306.88,-132.25 160.38,-132.25 160.38,-113 306.88,-113 306.88,-132.25"/>
<text text-anchor="middle" x="233.62" y="-118.75" font-family="Helvetica,sans-Serif" font-size="10.00">TMC2660Stepper::DRVCTRL</text>
</a>
</g>
</g>
<!-- Node1&#45;&gt;Node4 -->
<g id="edge3_Node000001_Node000004" class="edge">
<title>Node1&#45;&gt;Node4</title>
<g id="a_edge3_Node000001_Node000004"><a xlink:title=" ">
<path fill="none" stroke="#63b8ff" d="M119.9,-110.16C129.18,-111.19 138.93,-112.27 148.64,-113.34"/>
<polygon fill="#63b8ff" stroke="#63b8ff" points="148.17,-116.81 158.49,-114.43 148.94,-109.85 148.17,-116.81"/>
</a>
</g>
</g>
<!-- Node5 -->
<g id="Node000005" class="node">
<title>Node5</title>
<g id="a_Node000005"><a xlink:href="class_t_m_c2660_stepper.html#aa20df51be5967e40cc23132a1d461275" target="_top" xlink:title=" ">
<polygon fill="white" stroke="#666666" points="468,-113.25 347.75,-113.25 347.75,-94 468,-94 468,-113.25"/>
<text text-anchor="middle" x="407.88" y="-99.75" font-family="Helvetica,sans-Serif" font-size="10.00">TMC2660Stepper::sdoff</text>
</a>
</g>
</g>
<!-- Node1&#45;&gt;Node5 -->
<g id="edge7_Node000001_Node000005" class="edge">
<title>Node1&#45;&gt;Node5</title>
<g id="a_edge7_Node000001_Node000005"><a xlink:title=" ">
<path fill="none" stroke="#63b8ff" d="M119.86,-103.62C179.78,-103.62 272.52,-103.62 336.28,-103.62"/>
<polygon fill="#63b8ff" stroke="#63b8ff" points="335.92,-107.13 345.92,-103.63 335.92,-100.13 335.92,-107.13"/>
</a>
</g>
</g>
<!-- Node7 -->
<g id="Node000007" class="node">
<title>Node7</title>
<g id="a_Node000007"><a xlink:href="class_t_m_c2660_stepper.html#ab4d49251f5e0d438a07ae46d293aa58c" target="_top" xlink:title=" ">
<polygon fill="white" stroke="#666666" points="311.38,-56.25 155.88,-56.25 155.88,-37 311.38,-37 311.38,-56.25"/>
<text text-anchor="middle" x="233.62" y="-42.75" font-family="Helvetica,sans-Serif" font-size="10.00">TMC2660Stepper::SGCSCONF</text>
</a>
</g>
</g>
<!-- Node1&#45;&gt;Node7 -->
<g id="edge8_Node000001_Node000007" class="edge">
<title>Node1&#45;&gt;Node7</title>
<g id="a_edge8_Node000001_Node000007"><a xlink:title=" ">
<path fill="none" stroke="#63b8ff" d="M88.86,-93.56C107.67,-86.89 133,-78.04 155.5,-70.62 166.18,-67.11 177.73,-63.44 188.56,-60.06"/>
<polygon fill="#63b8ff" stroke="#63b8ff" points="189.56,-63.41 198.07,-57.11 187.49,-56.73 189.56,-63.41"/>
</a>
</g>
</g>
<!-- Node8 -->
<g id="Node000008" class="node">
<title>Node8</title>
<g id="a_Node000008"><a xlink:href="class_t_m_c2660_stepper.html#a896275632be88c8a407946df264f94cf" target="_top" xlink:title=" ">
<polygon fill="white" stroke="#666666" points="307.62,-19.25 159.62,-19.25 159.62,0 307.62,0 307.62,-19.25"/>
<text text-anchor="middle" x="233.62" y="-5.75" font-family="Helvetica,sans-Serif" font-size="10.00">TMC2660Stepper::SMARTEN</text>
</a>
</g>
</g>
<!-- Node1&#45;&gt;Node8 -->
<g id="edge9_Node000001_Node000008" class="edge">
<title>Node1&#45;&gt;Node8</title>
<g id="a_edge9_Node000001_Node000008"><a xlink:title=" ">
<path fill="none" stroke="#63b8ff" d="M70.22,-93.53C86.19,-77.13 120.23,-44.78 155.5,-27.62 158.61,-26.11 161.86,-24.72 165.19,-23.44"/>
<polygon fill="#63b8ff" stroke="#63b8ff" points="166.24,-26.78 174.57,-20.23 163.98,-20.16 166.24,-26.78"/>
</a>
</g>
</g>
<!-- Node4&#45;&gt;Node5 -->
<g id="edge4_Node000004_Node000005" class="edge">
<title>Node4&#45;&gt;Node5</title>
<g id="a_edge4_Node000004_Node000005"><a xlink:title=" ">
<path fill="none" stroke="#63b8ff" d="M307.18,-114.62C316.82,-113.56 326.7,-112.47 336.32,-111.41"/>
<polygon fill="#63b8ff" stroke="#63b8ff" points="336.39,-114.92 345.95,-110.35 335.62,-107.96 336.39,-114.92"/>
</a>
</g>
</g>
<!-- Node6 -->
<g id="Node000006" class="node">
<title>Node6</title>
<g id="a_Node000006"><a xlink:href="class_t_m_c2660_stepper.html#af6b9772d151924e000c051ecff34d313" target="_top" xlink:title=" ">
<polygon fill="white" stroke="#666666" points="624.25,-113.25 504,-113.25 504,-94 624.25,-94 624.25,-113.25"/>
<text text-anchor="middle" x="564.12" y="-99.75" font-family="Helvetica,sans-Serif" font-size="10.00">TMC2660Stepper::sdoff</text>
</a>
</g>
</g>
<!-- Node5&#45;&gt;Node6 -->
<g id="edge5_Node000005_Node000006" class="edge">
<title>Node5&#45;&gt;Node6</title>
<g id="a_edge5_Node000005_Node000006"><a xlink:title=" ">
<path fill="none" stroke="#63b8ff" d="M468.07,-103.62C475.98,-103.62 484.16,-103.62 492.25,-103.62"/>
<polygon fill="#63b8ff" stroke="#63b8ff" points="492.06,-107.13 502.06,-103.63 492.06,-100.13 492.06,-107.13"/>
</a>
</g>
</g>
<!-- Node6&#45;&gt;Node6 -->
<g id="edge6_Node000006_Node000006" class="edge">
<title>Node6&#45;&gt;Node6</title>
<g id="a_edge6_Node000006_Node000006"><a xlink:title=" ">
<path fill="none" stroke="#63b8ff" d="M539.66,-113.54C528.51,-122.15 536.66,-131.25 564.12,-131.25 579.57,-131.25 588.91,-128.37 592.14,-124.32"/>
<polygon fill="#63b8ff" stroke="#63b8ff" points="595.52,-123.38 589.06,-114.98 588.87,-125.57 595.52,-123.38"/>
</a>
</g>
</g>
</g>
</svg>
