<?xml version="1.0" encoding="UTF-8" standalone="no"?>
<!DOCTYPE svg PUBLIC "-//W3C//DTD SVG 1.1//EN"
 "http://www.w3.org/Graphics/SVG/1.1/DTD/svg11.dtd">
<!-- Generated by graphviz version 12.2.1 (20241206.2353)
 -->
<!-- Title: TMCStepper::GSTAT Pages: 1 -->
<svg width="261pt" height="101pt"
 viewBox="0.00 0.00 261.25 101.25" xmlns="http://www.w3.org/2000/svg" xmlns:xlink="http://www.w3.org/1999/xlink">
<g id="graph0" class="graph" transform="scale(1 1) rotate(0) translate(4 97.25)">
<title>TMCStepper::GSTAT</title>
<!-- Node1 -->
<g id="Node000001" class="node">
<title>Node1</title>
<g id="a_Node000001"><a xlink:title=" ">
<polygon fill="#999999" stroke="#666666" points="253.25,-56.25 143.5,-56.25 143.5,-37 253.25,-37 253.25,-56.25"/>
<text text-anchor="middle" x="198.38" y="-42.75" font-family="Helvetica,sans-Serif" font-size="10.00">TMCStepper::GSTAT</text>
</a>
</g>
</g>
<!-- Node2 -->
<g id="Node000002" class="node">
<title>Node2</title>
<g id="a_Node000002"><a xlink:href="class_t_m_c_stepper.html#a547e59743734b01749efd52210a0bd02" target="_top" xlink:title=" ">
<polygon fill="white" stroke="#666666" points="107.5,-93.25 0,-93.25 0,-74 107.5,-74 107.5,-93.25"/>
<text text-anchor="middle" x="53.75" y="-79.75" font-family="Helvetica,sans-Serif" font-size="10.00">TMCStepper::drv_err</text>
</a>
</g>
</g>
<!-- Node1&#45;&gt;Node2 -->
<g id="edge1_Node000001_Node000002" class="edge">
<title>Node1&#45;&gt;Node2</title>
<g id="a_edge1_Node000001_Node000002"><a xlink:title=" ">
<path fill="none" stroke="#63b8ff" d="M147.43,-59.58C129.8,-64.15 110.26,-69.23 93.68,-73.53"/>
<polygon fill="#63b8ff" stroke="#63b8ff" points="148.14,-63.01 156.94,-57.12 146.38,-56.24 148.14,-63.01"/>
</a>
</g>
</g>
<!-- Node3 -->
<g id="Node000003" class="node">
<title>Node3</title>
<g id="a_Node000003"><a xlink:href="class_t_m_c_stepper.html#ab3cc9688f015f07d65cca651c4c50299" target="_top" xlink:title=" ">
<polygon fill="white" stroke="#666666" points="103.38,-56.25 4.12,-56.25 4.12,-37 103.38,-37 103.38,-56.25"/>
<text text-anchor="middle" x="53.75" y="-42.75" font-family="Helvetica,sans-Serif" font-size="10.00">TMCStepper::reset</text>
</a>
</g>
</g>
<!-- Node1&#45;&gt;Node3 -->
<g id="edge2_Node000001_Node000003" class="edge">
<title>Node1&#45;&gt;Node3</title>
<g id="a_edge2_Node000001_Node000003"><a xlink:title=" ">
<path fill="none" stroke="#63b8ff" d="M131.7,-46.62C122.3,-46.62 112.78,-46.62 103.78,-46.62"/>
<polygon fill="#63b8ff" stroke="#63b8ff" points="131.53,-50.13 141.53,-46.63 131.53,-43.13 131.53,-50.13"/>
</a>
</g>
</g>
<!-- Node4 -->
<g id="Node000004" class="node">
<title>Node4</title>
<g id="a_Node000004"><a xlink:href="class_t_m_c_stepper.html#a4d6aef5354024120e47d7d638edcbfe7" target="_top" xlink:title=" ">
<polygon fill="white" stroke="#666666" points="105.62,-19.25 1.88,-19.25 1.88,0 105.62,0 105.62,-19.25"/>
<text text-anchor="middle" x="53.75" y="-5.75" font-family="Helvetica,sans-Serif" font-size="10.00">TMCStepper::uv_cp</text>
</a>
</g>
</g>
<!-- Node1&#45;&gt;Node4 -->
<g id="edge3_Node000001_Node000004" class="edge">
<title>Node1&#45;&gt;Node4</title>
<g id="a_edge3_Node000001_Node000004"><a xlink:title=" ">
<path fill="none" stroke="#63b8ff" d="M147.43,-33.67C129.8,-29.1 110.26,-24.02 93.68,-19.72"/>
<polygon fill="#63b8ff" stroke="#63b8ff" points="146.38,-37.01 156.94,-36.13 148.14,-30.24 146.38,-37.01"/>
</a>
</g>
</g>
</g>
</svg>
