<?xml version="1.0" encoding="UTF-8" standalone="no"?>
<!DOCTYPE svg PUBLIC "-//W3C//DTD SVG 1.1//EN"
 "http://www.w3.org/Graphics/SVG/1.1/DTD/svg11.dtd">
<!-- Generated by graphviz version 12.2.1 (20241206.2353)
 -->
<!-- Title: TMC2208Stepper::DRV_STATUS Pages: 1 -->
<svg width="703pt" height="187pt"
 viewBox="0.00 0.00 702.75 187.25" xmlns="http://www.w3.org/2000/svg" xmlns:xlink="http://www.w3.org/1999/xlink">
<g id="graph0" class="graph" transform="scale(1 1) rotate(0) translate(4 183.25)">
<title>TMC2208Stepper::DRV_STATUS</title>
<!-- Node1 -->
<g id="Node000001" class="node">
<title>Node1</title>
<g id="a_Node000001"><a xlink:title=" ">
<polygon fill="#999999" stroke="#666666" points="120.25,-88.88 0,-88.88 0,-58.38 120.25,-58.38 120.25,-88.88"/>
<text text-anchor="start" x="8" y="-75.38" font-family="Helvetica,sans-Serif" font-size="10.00">TMC2208Stepper::DRV</text>
<text text-anchor="middle" x="60.12" y="-64.12" font-family="Helvetica,sans-Serif" font-size="10.00">_STATUS</text>
</a>
</g>
</g>
<!-- Node2 -->
<g id="Node000002" class="node">
<title>Node2</title>
<g id="a_Node000002"><a xlink:href="class_t_m_c2208_stepper.html#a2fae2050849c3ab7968012def8ea1cc5" target="_top" xlink:title=" ">
<polygon fill="white" stroke="#666666" points="273.5,-83.25 156.25,-83.25 156.25,-64 273.5,-64 273.5,-83.25"/>
<text text-anchor="middle" x="214.88" y="-69.75" font-family="Helvetica,sans-Serif" font-size="10.00">TMC2208Stepper::read</text>
</a>
</g>
</g>
<!-- Node1&#45;&gt;Node2 -->
<g id="edge1_Node000001_Node000002" class="edge">
<title>Node1&#45;&gt;Node2</title>
<g id="a_edge1_Node000001_Node000002"><a xlink:title=" ">
<path fill="none" stroke="#63b8ff" d="M120.62,-73.62C128.39,-73.62 136.4,-73.62 144.31,-73.62"/>
<polygon fill="#63b8ff" stroke="#63b8ff" points="144.28,-77.13 154.28,-73.63 144.28,-70.13 144.28,-77.13"/>
</a>
</g>
</g>
<!-- Node3 -->
<g id="Node000003" class="node">
<title>Node3</title>
<g id="a_Node000003"><a xlink:href="class_t_m_c2208_stepper.html#a321ad81155b7a20c0858920d32d0b074" target="_top" xlink:title=" ">
<polygon fill="white" stroke="#666666" points="495,-142.25 327.5,-142.25 327.5,-123 495,-123 495,-142.25"/>
<text text-anchor="middle" x="411.25" y="-128.75" font-family="Helvetica,sans-Serif" font-size="10.00">TMC2208Stepper::_sendDatagram</text>
</a>
</g>
</g>
<!-- Node2&#45;&gt;Node3 -->
<g id="edge2_Node000002_Node000003" class="edge">
<title>Node2&#45;&gt;Node3</title>
<g id="a_edge2_Node000002_Node000003"><a xlink:title=" ">
<path fill="none" stroke="#63b8ff" d="M235.09,-83.65C253.67,-92.94 282.84,-106.53 309.5,-114.62 316.14,-116.64 323.1,-118.46 330.12,-120.1"/>
<polygon fill="#63b8ff" stroke="#63b8ff" points="329.18,-123.47 339.7,-122.2 330.68,-116.64 329.18,-123.47"/>
</a>
</g>
</g>
<!-- Node7 -->
<g id="Node000007" class="node">
<title>Node7</title>
<g id="a_Node000007"><a xlink:href="class_t_m_c2208_stepper.html#a409c19fa6b052a370a317d061bf9af4e" target="_top" xlink:title=" ">
<polygon fill="white" stroke="#666666" points="480.75,-105.25 341.75,-105.25 341.75,-86 480.75,-86 480.75,-105.25"/>
<text text-anchor="middle" x="411.25" y="-91.75" font-family="Helvetica,sans-Serif" font-size="10.00">TMC2208Stepper::calcCRC</text>
</a>
</g>
</g>
<!-- Node2&#45;&gt;Node7 -->
<g id="edge6_Node000002_Node000007" class="edge">
<title>Node2&#45;&gt;Node7</title>
<g id="a_edge6_Node000002_Node000007"><a xlink:title=" ">
<path fill="none" stroke="#63b8ff" d="M273.93,-80.2C291.62,-82.2 311.37,-84.43 330.24,-86.57"/>
<polygon fill="#63b8ff" stroke="#63b8ff" points="329.7,-90.03 340.03,-87.68 330.49,-83.07 329.7,-90.03"/>
</a>
</g>
</g>
<!-- Node8 -->
<g id="Node000008" class="node">
<title>Node8</title>
<g id="a_Node000008"><a xlink:href="class_t_m_c2208_stepper.html#ab3d186b27f45ec47c1cf0bf15ed4cd2e" target="_top" xlink:title=" ">
<polygon fill="white" stroke="#666666" points="481.5,-67.88 341,-67.88 341,-37.38 481.5,-37.38 481.5,-67.88"/>
<text text-anchor="start" x="349" y="-54.38" font-family="Helvetica,sans-Serif" font-size="10.00">TMC2208Stepper::postRead</text>
<text text-anchor="middle" x="411.25" y="-43.12" font-family="Helvetica,sans-Serif" font-size="10.00">Communication</text>
</a>
</g>
</g>
<!-- Node2&#45;&gt;Node8 -->
<g id="edge7_Node000002_Node000008" class="edge">
<title>Node2&#45;&gt;Node8</title>
<g id="a_edge7_Node000002_Node000008"><a xlink:title=" ">
<path fill="none" stroke="#63b8ff" d="M273.93,-67.35C291.43,-65.46 310.96,-63.35 329.65,-61.33"/>
<polygon fill="#63b8ff" stroke="#63b8ff" points="329.77,-64.84 339.33,-60.29 329.01,-57.88 329.77,-64.84"/>
</a>
</g>
</g>
<!-- Node9 -->
<g id="Node000009" class="node">
<title>Node9</title>
<g id="a_Node000009"><a xlink:href="class_t_m_c2208_stepper.html#a8c4f3ce4a964c9a03a1e14f47bf5bec3" target="_top" xlink:title=" ">
<polygon fill="white" stroke="#666666" points="513,-19.25 309.5,-19.25 309.5,0 513,0 513,-19.25"/>
<text text-anchor="middle" x="411.25" y="-5.75" font-family="Helvetica,sans-Serif" font-size="10.00">TMC2208Stepper::preReadCommunication</text>
</a>
</g>
</g>
<!-- Node2&#45;&gt;Node9 -->
<g id="edge8_Node000002_Node000009" class="edge">
<title>Node2&#45;&gt;Node9</title>
<g id="a_edge8_Node000002_Node000009"><a xlink:title=" ">
<path fill="none" stroke="#63b8ff" d="M233.25,-63.57C251.62,-53.34 281.74,-37.74 309.5,-28.62 316.8,-26.23 324.5,-24.1 332.26,-22.22"/>
<polygon fill="#63b8ff" stroke="#63b8ff" points="332.79,-25.69 341.76,-20.05 331.23,-18.86 332.79,-25.69"/>
</a>
</g>
</g>
<!-- Node4 -->
<g id="Node000004" class="node">
<title>Node4</title>
<g id="a_Node000004"><a xlink:href="class_t_m_c2208_stepper.html#aef33fe13c1d9c19e9ec9abc159147a5d" target="_top" xlink:title=" ">
<polygon fill="white" stroke="#666666" points="690.25,-179.25 553.5,-179.25 553.5,-160 690.25,-160 690.25,-179.25"/>
<text text-anchor="middle" x="621.88" y="-165.75" font-family="Helvetica,sans-Serif" font-size="10.00">TMC2208Stepper::available</text>
</a>
</g>
</g>
<!-- Node3&#45;&gt;Node4 -->
<g id="edge3_Node000003_Node000004" class="edge">
<title>Node3&#45;&gt;Node4</title>
<g id="a_edge3_Node000003_Node000004"><a xlink:title=" ">
<path fill="none" stroke="#63b8ff" d="M469.26,-142.74C495.02,-147.3 525.66,-152.74 552.63,-157.52"/>
<polygon fill="#63b8ff" stroke="#63b8ff" points="551.99,-160.96 562.45,-159.26 553.21,-154.07 551.99,-160.96"/>
</a>
</g>
</g>
<!-- Node5 -->
<g id="Node000005" class="node">
<title>Node5</title>
<g id="a_Node000005"><a xlink:href="class_t_m_c2208_stepper.html#a8214f87693050e222fc24be979f468e2" target="_top" xlink:title=" ">
<polygon fill="white" stroke="#666666" points="694.75,-142.25 549,-142.25 549,-123 694.75,-123 694.75,-142.25"/>
<text text-anchor="middle" x="621.88" y="-128.75" font-family="Helvetica,sans-Serif" font-size="10.00">TMC2208Stepper::serial_read</text>
</a>
</g>
</g>
<!-- Node3&#45;&gt;Node5 -->
<g id="edge4_Node000003_Node000005" class="edge">
<title>Node3&#45;&gt;Node5</title>
<g id="a_edge4_Node000003_Node000005"><a xlink:title=" ">
<path fill="none" stroke="#63b8ff" d="M495.3,-132.62C509.06,-132.62 523.34,-132.62 537.12,-132.62"/>
<polygon fill="#63b8ff" stroke="#63b8ff" points="537.04,-136.13 547.04,-132.63 537.04,-129.13 537.04,-136.13"/>
</a>
</g>
</g>
<!-- Node6 -->
<g id="Node000006" class="node">
<title>Node6</title>
<g id="a_Node000006"><a xlink:href="class_t_m_c2208_stepper.html#adb6243277ef84d2027b2b8bae6be5bd0" target="_top" xlink:title=" ">
<polygon fill="white" stroke="#666666" points="682.75,-104.88 561,-104.88 561,-74.38 682.75,-74.38 682.75,-104.88"/>
<text text-anchor="start" x="569" y="-91.38" font-family="Helvetica,sans-Serif" font-size="10.00">TMC2208Stepper::serial</text>
<text text-anchor="middle" x="621.88" y="-80.12" font-family="Helvetica,sans-Serif" font-size="10.00">_write</text>
</a>
</g>
</g>
<!-- Node3&#45;&gt;Node6 -->
<g id="edge5_Node000003_Node000006" class="edge">
<title>Node3&#45;&gt;Node6</title>
<g id="a_edge5_Node000003_Node000006"><a xlink:title=" ">
<path fill="none" stroke="#63b8ff" d="M471.75,-122.51C485.33,-120.06 499.68,-117.36 513,-114.62 524.82,-112.2 537.34,-109.46 549.49,-106.71"/>
<polygon fill="#63b8ff" stroke="#63b8ff" points="550.07,-110.16 559.04,-104.52 548.51,-103.34 550.07,-110.16"/>
</a>
</g>
</g>
</g>
</svg>
