<?xml version="1.0" encoding="UTF-8" standalone="no"?>
<!DOCTYPE svg PUBLIC "-//W3C//DTD SVG 1.1//EN"
 "http://www.w3.org/Graphics/SVG/1.1/DTD/svg11.dtd">
<!-- Generated by graphviz version 12.2.1 (20241206.2353)
 -->
<!-- Title: TMC2208Stepper::serial_write Pages: 1 -->
<!--zoomable 959 -->

<svg id="main" version="1.1" xmlns="http://www.w3.org/2000/svg" xmlns:xlink="http://www.w3.org/1999/xlink" xml:space="preserve" onload="init(evt)">

<style type="text/css"><![CDATA[
.node, .edge {opacity: 0.7;}
.node.selected, .edge.selected {opacity: 1;}
.edge:hover path { stroke: red; }
.edge:hover polygon { stroke: red; fill: red; }
]]></style>

<defs>
  <circle id="rim" cx="0" cy="0" r="7"/>
  <circle id="rim2" cx="0" cy="0" r="3.5"/>
  <g id="zoomPlus">
    <use xlink:href="#rim" fill="#404040"><set attributeName="fill" to="#808080" begin="zoomplus.mouseover" end="zoomplus.mouseout"/></use>
    <path d="M-4,0h8M0,-4v8" fill="none" stroke="white" stroke-width="1.5" pointer-events="none"/>
  </g>
  <g id="zoomMin">
    <use xlink:href="#rim" fill="#404040"><set attributeName="fill" to="#808080" begin="zoomminus.mouseover" end="zoomminus.mouseout"/></use>
    <path d="M-4,0h8" fill="none" stroke="white" stroke-width="1.5" pointer-events="none"/>
  </g>
  <g id="arrowUp" transform="translate(30 24)">
    <use xlink:href="#rim"/>
    <path pointer-events="none" fill="none" stroke="white" stroke-width="1.5" d="M0,-3.0v7 M-2.5,-0.5L0,-3.0L2.5,-0.5"/>
  </g>
  <g id="arrowRight" transform="rotate(90) translate(36 -43)">
    <use xlink:href="#rim"/>
    <path pointer-events="none" fill="none" stroke="white" stroke-width="1.5" d="M0,-3.0v7 M-2.5,-0.5L0,-3.0L2.5,-0.5"/>
  </g>
  <g id="arrowDown" transform="rotate(180) translate(-30 -48)">
    <use xlink:href="#rim"/>
    <path pointer-events="none" fill="none" stroke="white" stroke-width="1.5" d="M0,-3.0v7 M-2.5,-0.5L0,-3.0L2.5,-0.5"/>
  </g>
  <g id="arrowLeft" transform="rotate(270) translate(-36 17)">
    <use xlink:href="#rim"/>
    <path pointer-events="none" fill="none" stroke="white" stroke-width="1.5" d="M0,-3.0v7 M-2.5,-0.5L0,-3.0L2.5,-0.5"/>
  </g>
  <g id="resetDef">
    <use xlink:href="#rim2" fill="#404040"><set attributeName="fill" to="#808080" begin="reset.mouseover" end="reset.mouseout"/></use>
  </g>
</defs>
<script type="application/ecmascript">
var viewWidth = 933;
var viewHeight = 959;
var sectionId = 'dynsection-156';
</script>
<script type="application/ecmascript" xlink:href="svg.min.js"/>
<svg id="graph" class="graph">
<g id="viewport">
<title>TMC2208Stepper::serial_write</title>
<!-- Node1 -->
<g id="Node000001" class="node">
<title>Node1</title>
<g id="a_Node000001"><a xlink:title=" ">
<polygon fill="#999999" stroke="#666666" points="924.5,-251.5 802.75,-251.5 802.75,-221 924.5,-221 924.5,-251.5"/>
<text text-anchor="start" x="810.75" y="-238" font-family="Helvetica,sans-Serif" font-size="10.00">TMC2208Stepper::serial</text>
<text text-anchor="middle" x="863.62" y="-226.75" font-family="Helvetica,sans-Serif" font-size="10.00">_write</text>
</a>
</g>
</g>
<!-- Node2 -->
<g id="Node000002" class="node">
<title>Node2</title>
<g id="a_Node000002"><a xlink:href="class_t_m_c2208_stepper.html#a321ad81155b7a20c0858920d32d0b074" target="_top" xlink:title=" ">
<polygon fill="white" stroke="#666666" points="766.75,-461.88 599.25,-461.88 599.25,-442.62 766.75,-442.62 766.75,-461.88"/>
<text text-anchor="middle" x="683" y="-448.38" font-family="Helvetica,sans-Serif" font-size="10.00">TMC2208Stepper::_sendDatagram</text>
</a>
</g>
</g>
<!-- Node1&#45;&gt;Node2 -->
<g id="edge1_Node000001_Node000002" class="edge">
<title>Node1&#45;&gt;Node2</title>
<g id="a_edge1_Node000001_Node000002"><a xlink:title=" ">
<path fill="none" stroke="#63b8ff" d="M842.63,-260.43C803.69,-307.51 719.17,-409.72 692.35,-442.16"/>
<polygon fill="#63b8ff" stroke="#63b8ff" points="845.14,-262.89 848.81,-252.95 839.74,-258.43 845.14,-262.89"/>
</a>
</g>
</g>
<!-- Node28 -->
<g id="Node000028" class="node">
<title>Node28</title>
<g id="a_Node000028"><a xlink:href="class_t_m_c2208_stepper.html#a142b14de8a4dcc6cf76b4a6ede9e1cea" target="_top" xlink:title=" ">
<polygon fill="white" stroke="#666666" points="742.75,-227.88 623.25,-227.88 623.25,-208.62 742.75,-208.62 742.75,-227.88"/>
<text text-anchor="middle" x="683" y="-214.38" font-family="Helvetica,sans-Serif" font-size="10.00">TMC2208Stepper::write</text>
</a>
</g>
</g>
<!-- Node1&#45;&gt;Node28 -->
<g id="edge31_Node000001_Node000028" class="edge">
<title>Node1&#45;&gt;Node28</title>
<g id="a_edge31_Node000001_Node000028"><a xlink:title=" ">
<path fill="none" stroke="#63b8ff" d="M791.22,-229.05C775.3,-227.45 758.58,-225.77 743.21,-224.22"/>
<polygon fill="#63b8ff" stroke="#63b8ff" points="790.84,-232.53 801.14,-230.05 791.54,-225.57 790.84,-232.53"/>
</a>
</g>
</g>
<!-- Node3 -->
<g id="Node000003" class="node">
<title>Node3</title>
<g id="a_Node000003"><a xlink:href="class_t_m_c2208_stepper.html#a2fae2050849c3ab7968012def8ea1cc5" target="_top" xlink:title=" ">
<polygon fill="white" stroke="#666666" points="531.75,-667.88 414.5,-667.88 414.5,-648.62 531.75,-648.62 531.75,-667.88"/>
<text text-anchor="middle" x="473.12" y="-654.38" font-family="Helvetica,sans-Serif" font-size="10.00">TMC2208Stepper::read</text>
</a>
</g>
</g>
<!-- Node2&#45;&gt;Node3 -->
<g id="edge2_Node000002_Node000003" class="edge">
<title>Node2&#45;&gt;Node3</title>
<g id="a_edge2_Node000002_Node000003"><a xlink:title=" ">
<path fill="none" stroke="#63b8ff" d="M663.92,-470.17C621.51,-512.19 516.76,-616 484.05,-648.41"/>
<polygon fill="#63b8ff" stroke="#63b8ff" points="666.26,-472.78 670.9,-463.25 661.33,-467.8 666.26,-472.78"/>
</a>
</g>
</g>
<!-- Node4 -->
<g id="Node000004" class="node">
<title>Node4</title>
<g id="a_Node000004"><a xlink:href="class_t_m_c2208_stepper.html#aa11281f54c293f3ff2539b1a583682a9" target="_top" xlink:title=" ">
<polygon fill="white" stroke="#666666" points="335,-667.88 178.75,-667.88 178.75,-648.62 335,-648.62 335,-667.88"/>
<text text-anchor="middle" x="256.88" y="-654.38" font-family="Helvetica,sans-Serif" font-size="10.00">TMC2208Stepper::CHOPCONF</text>
</a>
</g>
</g>
<!-- Node3&#45;&gt;Node4 -->
<g id="edge3_Node000003_Node000004" class="edge">
<title>Node3&#45;&gt;Node4</title>
<g id="a_edge3_Node000003_Node000004"><a xlink:title=" ">
<path fill="none" stroke="#63b8ff" d="M402.77,-658.25C381.2,-658.25 357.29,-658.25 335.22,-658.25"/>
<polygon fill="#63b8ff" stroke="#63b8ff" points="402.63,-661.75 412.63,-658.25 402.63,-654.75 402.63,-661.75"/>
</a>
</g>
</g>
<!-- Node7 -->
<g id="Node000007" class="node">
<title>Node7</title>
<g id="a_Node000007"><a xlink:href="class_t_m_c2208_stepper.html#a2b4643106d473dd0081ec60a3f9b8fdf" target="_top" xlink:title=" ">
<polygon fill="white" stroke="#666666" points="317,-556.5 196.75,-556.5 196.75,-526 317,-526 317,-556.5"/>
<text text-anchor="start" x="204.75" y="-543" font-family="Helvetica,sans-Serif" font-size="10.00">TMC2208Stepper::DRV</text>
<text text-anchor="middle" x="256.88" y="-531.75" font-family="Helvetica,sans-Serif" font-size="10.00">_STATUS</text>
</a>
</g>
</g>
<!-- Node3&#45;&gt;Node7 -->
<g id="edge6_Node000003_Node000007" class="edge">
<title>Node3&#45;&gt;Node7</title>
<g id="a_edge6_Node000003_Node000007"><a xlink:title=" ">
<path fill="none" stroke="#63b8ff" d="M453.43,-640.75C430.19,-619.89 388.5,-585.35 347,-565.25 337.77,-560.78 327.59,-557.04 317.5,-553.96"/>
<polygon fill="#63b8ff" stroke="#63b8ff" points="450.8,-643.09 460.54,-647.24 455.52,-637.92 450.8,-643.09"/>
</a>
</g>
</g>
<!-- Node8 -->
<g id="Node000008" class="node">
<title>Node8</title>
<g id="a_Node000008"><a xlink:href="class_t_m_c2208_stepper.html#a64c51922eb2029e4bbcd4f8a51b6a6ae" target="_top" xlink:title=" ">
<polygon fill="white" stroke="#666666" points="347,-507.88 166.75,-507.88 166.75,-488.62 347,-488.62 347,-507.88"/>
<text text-anchor="middle" x="256.88" y="-494.38" font-family="Helvetica,sans-Serif" font-size="10.00">TMC2208Stepper::FACTORY_CONF</text>
</a>
</g>
</g>
<!-- Node3&#45;&gt;Node8 -->
<g id="edge7_Node000003_Node000008" class="edge">
<title>Node3&#45;&gt;Node8</title>
<g id="a_edge7_Node000003_Node000008"><a xlink:title=" ">
<path fill="none" stroke="#63b8ff" d="M460.71,-638.85C441.44,-607.9 399.36,-547.76 347,-517.25 340.71,-513.59 333.81,-510.63 326.71,-508.23"/>
<polygon fill="#63b8ff" stroke="#63b8ff" points="457.6,-640.45 465.78,-647.18 463.58,-636.82 457.6,-640.45"/>
</a>
</g>
</g>
<!-- Node11 -->
<g id="Node000011" class="node">
<title>Node11</title>
<g id="a_Node000011"><a xlink:href="class_t_m_c2208_stepper.html#a549db4f962d4ae698dda33ef9a708e33" target="_top" xlink:title=" ">
<polygon fill="white" stroke="#666666" points="324.12,-630.88 189.62,-630.88 189.62,-611.62 324.12,-611.62 324.12,-630.88"/>
<text text-anchor="middle" x="256.88" y="-617.38" font-family="Helvetica,sans-Serif" font-size="10.00">TMC2208Stepper::GCONF</text>
</a>
</g>
</g>
<!-- Node3&#45;&gt;Node11 -->
<g id="edge10_Node000003_Node000011" class="edge">
<title>Node3&#45;&gt;Node11</title>
<g id="a_edge10_Node000003_Node000011"><a xlink:title=" ">
<path fill="none" stroke="#63b8ff" d="M402.84,-646.29C374.9,-641.46 343.01,-635.95 316.27,-631.34"/>
<polygon fill="#63b8ff" stroke="#63b8ff" points="402.2,-649.73 412.65,-647.98 403.4,-642.83 402.2,-649.73"/>
</a>
</g>
</g>
<!-- Node12 -->
<g id="Node000012" class="node">
<title>Node12</title>
<g id="a_Node000012"><a xlink:href="class_t_m_c2208_stepper.html#a54eeb50855c3d7dd9e7078a5dc0ebdfc" target="_top" xlink:title=" ">
<polygon fill="white" stroke="#666666" points="321.12,-470.88 192.62,-470.88 192.62,-451.62 321.12,-451.62 321.12,-470.88"/>
<text text-anchor="middle" x="256.88" y="-457.38" font-family="Helvetica,sans-Serif" font-size="10.00">TMC2208Stepper::IFCNT</text>
</a>
</g>
</g>
<!-- Node3&#45;&gt;Node12 -->
<g id="edge13_Node000003_Node000012" class="edge">
<title>Node3&#45;&gt;Node12</title>
<g id="a_edge13_Node000003_Node000012"><a xlink:title=" ">
<path fill="none" stroke="#63b8ff" d="M464.25,-638.37C448.26,-600.75 408.22,-519.36 347,-479.25 339.34,-474.23 330.58,-470.56 321.6,-467.89"/>
<polygon fill="#63b8ff" stroke="#63b8ff" points="460.82,-639.23 467.86,-647.14 467.29,-636.56 460.82,-639.23"/>
</a>
</g>
</g>
<!-- Node13 -->
<g id="Node000013" class="node">
<title>Node13</title>
<g id="a_Node000013"><a xlink:href="class_t_m_c2208_stepper.html#a5441dd87d0bcea4ffc309cb012166a57" target="_top" xlink:title=" ">
<polygon fill="white" stroke="#666666" points="316.62,-433.88 197.12,-433.88 197.12,-414.62 316.62,-414.62 316.62,-433.88"/>
<text text-anchor="middle" x="256.88" y="-420.38" font-family="Helvetica,sans-Serif" font-size="10.00">TMC2208Stepper::IOIN</text>
</a>
</g>
</g>
<!-- Node3&#45;&gt;Node13 -->
<g id="edge14_Node000003_Node000013" class="edge">
<title>Node3&#45;&gt;Node13</title>
<g id="a_edge14_Node000003_Node000013"><a xlink:title=" ">
<path fill="none" stroke="#63b8ff" d="M466.49,-637.67C453.41,-594.06 416.69,-492.26 347,-442.25 338.15,-435.9 327.6,-431.66 316.9,-428.87"/>
<polygon fill="#63b8ff" stroke="#63b8ff" points="463.07,-638.46 469.2,-647.1 469.8,-636.52 463.07,-638.46"/>
</a>
</g>
</g>
<!-- Node14 -->
<g id="Node000014" class="node">
<title>Node14</title>
<g id="a_Node000014"><a xlink:href="class_t_m_c2209_stepper.html#aeab582b2f23d4e58f63aec80163b3838" target="_top" xlink:title=" ">
<polygon fill="white" stroke="#666666" points="316.62,-950.88 197.12,-950.88 197.12,-931.62 316.62,-931.62 316.62,-950.88"/>
<text text-anchor="middle" x="256.88" y="-937.38" font-family="Helvetica,sans-Serif" font-size="10.00">TMC2209Stepper::IOIN</text>
</a>
</g>
</g>
<!-- Node3&#45;&gt;Node14 -->
<g id="edge15_Node000003_Node000014" class="edge">
<title>Node3&#45;&gt;Node14</title>
<g id="a_edge15_Node000003_Node000014"><a xlink:title=" ">
<path fill="none" stroke="#63b8ff" d="M468.75,-679.23C459.43,-729.9 428.42,-859.48 347,-923.25 338.3,-930.06 327.7,-934.5 316.88,-937.34"/>
<polygon fill="#63b8ff" stroke="#63b8ff" points="472.15,-680.08 470.41,-669.62 465.26,-678.88 472.15,-680.08"/>
</a>
</g>
</g>
<!-- Node15 -->
<g id="Node000015" class="node">
<title>Node15</title>
<g id="a_Node000015"><a xlink:href="class_t_m_c2224_stepper.html#aa5fa836e15992bc49e0297ef2126f725" target="_top" xlink:title=" ">
<polygon fill="white" stroke="#666666" points="316.62,-913.88 197.12,-913.88 197.12,-894.62 316.62,-894.62 316.62,-913.88"/>
<text text-anchor="middle" x="256.88" y="-900.38" font-family="Helvetica,sans-Serif" font-size="10.00">TMC2224Stepper::IOIN</text>
</a>
</g>
</g>
<!-- Node3&#45;&gt;Node15 -->
<g id="edge16_Node000003_Node000015" class="edge">
<title>Node3&#45;&gt;Node15</title>
<g id="a_edge16_Node000003_Node000015"><a xlink:title=" ">
<path fill="none" stroke="#63b8ff" d="M467.09,-679.03C454.94,-724.48 419.48,-832.95 347,-886.25 338.23,-892.7 327.71,-896.98 317.02,-899.8"/>
<polygon fill="#63b8ff" stroke="#63b8ff" points="470.46,-680 469.54,-669.44 463.67,-678.26 470.46,-680"/>
</a>
</g>
</g>
<!-- Node16 -->
<g id="Node000016" class="node">
<title>Node16</title>
<g id="a_Node000016"><a xlink:href="class_t_m_c2208_stepper.html#a8aef97b3f46492720cb65a0995839f8b" target="_top" xlink:title=" ">
<polygon fill="white" stroke="#666666" points="335,-876.88 178.75,-876.88 178.75,-857.62 335,-857.62 335,-876.88"/>
<text text-anchor="middle" x="256.88" y="-863.38" font-family="Helvetica,sans-Serif" font-size="10.00">TMC2208Stepper::MSCURACT</text>
</a>
</g>
</g>
<!-- Node3&#45;&gt;Node16 -->
<g id="edge17_Node000003_Node000016" class="edge">
<title>Node3&#45;&gt;Node16</title>
<g id="a_edge17_Node000003_Node000016"><a xlink:title=" ">
<path fill="none" stroke="#63b8ff" d="M464.85,-678.89C449.68,-718.74 410.67,-806.15 347,-849.25 342.29,-852.44 337.15,-855.08 331.78,-857.28"/>
<polygon fill="#63b8ff" stroke="#63b8ff" points="468.11,-680.16 468.28,-669.57 461.54,-677.75 468.11,-680.16"/>
</a>
</g>
</g>
<!-- Node19 -->
<g id="Node000019" class="node">
<title>Node19</title>
<g id="a_Node000019"><a xlink:href="class_t_m_c2208_stepper.html#a0727482b76d6cd679021f4d1677e5b3a" target="_top" xlink:title=" ">
<polygon fill="white" stroke="#666666" points="333.12,-839.88 180.62,-839.88 180.62,-820.62 333.12,-820.62 333.12,-839.88"/>
<text text-anchor="middle" x="256.88" y="-826.38" font-family="Helvetica,sans-Serif" font-size="10.00">TMC2208Stepper::OTP_READ</text>
</a>
</g>
</g>
<!-- Node3&#45;&gt;Node19 -->
<g id="edge20_Node000003_Node000019" class="edge">
<title>Node3&#45;&gt;Node19</title>
<g id="a_edge20_Node000003_Node000019"><a xlink:title=" ">
<path fill="none" stroke="#63b8ff" d="M461.99,-678.1C443.82,-711.56 402.35,-778.78 347,-812.25 341.73,-815.44 336,-818.07 330.07,-820.24"/>
<polygon fill="#63b8ff" stroke="#63b8ff" points="464.97,-679.96 466.54,-669.49 458.78,-676.7 464.97,-679.96"/>
</a>
</g>
</g>
<!-- Node20 -->
<g id="Node000020" class="node">
<title>Node20</title>
<g id="a_Node000020"><a xlink:href="class_t_m_c2208_stepper.html#a3cad83843fc7cc00cbbff7d620690501" target="_top" xlink:title=" ">
<polygon fill="white" stroke="#666666" points="335,-802.88 178.75,-802.88 178.75,-783.62 335,-783.62 335,-802.88"/>
<text text-anchor="middle" x="256.88" y="-789.38" font-family="Helvetica,sans-Serif" font-size="10.00">TMC2208Stepper::PWM_AUTO</text>
</a>
</g>
</g>
<!-- Node3&#45;&gt;Node20 -->
<g id="edge21_Node000003_Node000020" class="edge">
<title>Node3&#45;&gt;Node20</title>
<g id="a_edge21_Node000003_Node000020"><a xlink:title=" ">
<path fill="none" stroke="#63b8ff" d="M457.47,-677.13C436.12,-703.24 393.86,-749.93 347,-774.25 339.98,-777.89 332.3,-780.84 324.49,-783.22"/>
<polygon fill="#63b8ff" stroke="#63b8ff" points="460.14,-679.39 463.65,-669.4 454.67,-675.02 460.14,-679.39"/>
</a>
</g>
</g>
<!-- Node23 -->
<g id="Node000023" class="node">
<title>Node23</title>
<g id="a_Node000023"><a xlink:href="class_t_m_c2208_stepper.html#adc81db53cf0291216352b13e5425e67b" target="_top" xlink:title=" ">
<polygon fill="white" stroke="#666666" points="318.5,-765.5 195.25,-765.5 195.25,-735 318.5,-735 318.5,-765.5"/>
<text text-anchor="start" x="203.25" y="-752" font-family="Helvetica,sans-Serif" font-size="10.00">TMC2208Stepper::PWM</text>
<text text-anchor="middle" x="256.88" y="-740.75" font-family="Helvetica,sans-Serif" font-size="10.00">_SCALE</text>
</a>
</g>
</g>
<!-- Node3&#45;&gt;Node23 -->
<g id="edge24_Node000003_Node000023" class="edge">
<title>Node3&#45;&gt;Node23</title>
<g id="a_edge24_Node000003_Node000023"><a xlink:title=" ">
<path fill="none" stroke="#63b8ff" d="M446.39,-674.19C421.63,-688.99 382.8,-710.84 347,-725.25 338.05,-728.85 328.41,-732.13 318.88,-735.06"/>
<polygon fill="#63b8ff" stroke="#63b8ff" points="448.04,-677.27 454.79,-669.1 444.42,-671.29 448.04,-677.27"/>
</a>
</g>
</g>
<!-- Node26 -->
<g id="Node000026" class="node">
<title>Node26</title>
<g id="a_Node000026"><a xlink:href="class_t_m_c2208_stepper.html#a7c2e849de2f2933ba9bf8ede8dc53f53" target="_top" xlink:title=" ">
<polygon fill="white" stroke="#666666" points="332.75,-593.88 181,-593.88 181,-574.62 332.75,-574.62 332.75,-593.88"/>
<text text-anchor="middle" x="256.88" y="-580.38" font-family="Helvetica,sans-Serif" font-size="10.00">TMC2208Stepper::PWMCONF</text>
</a>
</g>
</g>
<!-- Node3&#45;&gt;Node26 -->
<g id="edge27_Node000003_Node000026" class="edge">
<title>Node3&#45;&gt;Node26</title>
<g id="a_edge27_Node000003_Node000026"><a xlink:title=" ">
<path fill="none" stroke="#63b8ff" d="M442.93,-642.96C418.03,-630.46 380.96,-613.13 347,-602.25 337.53,-599.22 327.32,-596.58 317.32,-594.34"/>
<polygon fill="#63b8ff" stroke="#63b8ff" points="441.29,-646.05 451.79,-647.47 444.47,-639.81 441.29,-646.05"/>
</a>
</g>
</g>
<!-- Node27 -->
<g id="Node000027" class="node">
<title>Node27</title>
<g id="a_Node000027"><a xlink:href="class_t_m_c2209_stepper.html#ac1d2ec19eb65fd2f14d8d02cc1e7b02e" target="_top" xlink:title=" ">
<polygon fill="white" stroke="#666666" points="313.25,-716.5 200.5,-716.5 200.5,-686 313.25,-686 313.25,-716.5"/>
<text text-anchor="start" x="208.5" y="-703" font-family="Helvetica,sans-Serif" font-size="10.00">TMC2209Stepper::SG</text>
<text text-anchor="middle" x="256.88" y="-691.75" font-family="Helvetica,sans-Serif" font-size="10.00">_RESULT</text>
</a>
</g>
</g>
<!-- Node3&#45;&gt;Node27 -->
<g id="edge30_Node000003_Node000027" class="edge">
<title>Node3&#45;&gt;Node27</title>
<g id="a_edge30_Node000003_Node000027"><a xlink:title=" ">
<path fill="none" stroke="#63b8ff" d="M410.89,-670.54C380.2,-676.7 343.31,-684.1 313.44,-690.1"/>
<polygon fill="#63b8ff" stroke="#63b8ff" points="411.29,-674.03 420.41,-668.63 409.92,-667.17 411.29,-674.03"/>
</a>
</g>
</g>
<!-- Node5 -->
<g id="Node000005" class="node">
<title>Node5</title>
<g id="a_Node000005"><a xlink:href="class_t_m_c2208_stepper.html#a8eb0d71fbfeeb24c9092328c44fab7e5" target="_top" xlink:title=" ">
<polygon fill="white" stroke="#666666" points="125.12,-636.88 5.63,-636.88 5.63,-617.62 125.12,-617.62 125.12,-636.88"/>
<text text-anchor="middle" x="65.38" y="-623.38" font-family="Helvetica,sans-Serif" font-size="10.00">TMC2208Stepper::push</text>
</a>
</g>
</g>
<!-- Node4&#45;&gt;Node5 -->
<g id="edge4_Node000004_Node000005" class="edge">
<title>Node4&#45;&gt;Node5</title>
<g id="a_edge4_Node000004_Node000005"><a xlink:title=" ">
<path fill="none" stroke="#63b8ff" d="M182.78,-646.29C163.82,-643.19 143.64,-639.89 125.5,-636.92"/>
<polygon fill="#63b8ff" stroke="#63b8ff" points="182.16,-649.74 192.59,-647.9 183.29,-642.83 182.16,-649.74"/>
</a>
</g>
</g>
<!-- Node6 -->
<g id="Node000006" class="node">
<title>Node6</title>
<g id="a_Node000006"><a xlink:href="class_t_m_c2209_stepper.html#a180f4b9a78e526592d946ec12f71982e" target="_top" xlink:title=" ">
<polygon fill="white" stroke="#666666" points="125.12,-599.88 5.63,-599.88 5.63,-580.62 125.12,-580.62 125.12,-599.88"/>
<text text-anchor="middle" x="65.38" y="-586.38" font-family="Helvetica,sans-Serif" font-size="10.00">TMC2209Stepper::push</text>
</a>
</g>
</g>
<!-- Node4&#45;&gt;Node6 -->
<g id="edge5_Node000004_Node000006" class="edge">
<title>Node4&#45;&gt;Node6</title>
<g id="a_edge5_Node000004_Node000006"><a xlink:title=" ">
<path fill="none" stroke="#63b8ff" d="M176.31,-644.48C173.03,-643.19 169.83,-641.79 166.75,-640.25 147.6,-630.69 149.54,-618.51 130.75,-608.25 125.05,-605.14 118.76,-602.52 112.41,-600.34"/>
<polygon fill="#63b8ff" stroke="#63b8ff" points="174.97,-647.72 185.57,-647.69 177.27,-641.11 174.97,-647.72"/>
</a>
</g>
</g>
<!-- Node9 -->
<g id="Node000009" class="node">
<title>Node9</title>
<g id="a_Node000009"><a xlink:href="class_t_m_c2208_stepper.html#a2576f25049dff1a3102da1ea5b4eb7fc" target="_top" xlink:title=" ">
<polygon fill="white" stroke="#666666" points="130.75,-525.88 0,-525.88 0,-506.62 130.75,-506.62 130.75,-525.88"/>
<text text-anchor="middle" x="65.38" y="-512.38" font-family="Helvetica,sans-Serif" font-size="10.00">TMC2208Stepper::fclktrim</text>
</a>
</g>
</g>
<!-- Node8&#45;&gt;Node9 -->
<g id="edge8_Node000008_Node000009" class="edge">
<title>Node8&#45;&gt;Node9</title>
<g id="a_edge8_Node000008_Node000009"><a xlink:title=" ">
<path fill="none" stroke="#63b8ff" d="M154.97,-507.83C146.9,-508.6 138.88,-509.36 131.17,-510.1"/>
<polygon fill="#63b8ff" stroke="#63b8ff" points="155.27,-511.32 164.89,-506.89 154.6,-504.35 155.27,-511.32"/>
</a>
</g>
</g>
<!-- Node10 -->
<g id="Node000010" class="node">
<title>Node10</title>
<g id="a_Node000010"><a xlink:href="class_t_m_c2208_stepper.html#a1d354657666fa70cd13004cb70bc9fcf" target="_top" xlink:title=" ">
<polygon fill="white" stroke="#666666" points="127,-488.88 3.75,-488.88 3.75,-469.62 127,-469.62 127,-488.88"/>
<text text-anchor="middle" x="65.38" y="-475.38" font-family="Helvetica,sans-Serif" font-size="10.00">TMC2208Stepper::ottrim</text>
</a>
</g>
</g>
<!-- Node8&#45;&gt;Node10 -->
<g id="edge9_Node000008_Node000010" class="edge">
<title>Node8&#45;&gt;Node10</title>
<g id="a_edge9_Node000008_Node000010"><a xlink:title=" ">
<path fill="none" stroke="#63b8ff" d="M155.23,-488.16C145.73,-487.21 136.3,-486.26 127.35,-485.36"/>
<polygon fill="#63b8ff" stroke="#63b8ff" points="154.59,-491.61 164.89,-489.13 155.29,-484.65 154.59,-491.61"/>
</a>
</g>
</g>
<!-- Node11&#45;&gt;Node5 -->
<g id="edge11_Node000011_Node000005" class="edge">
<title>Node11&#45;&gt;Node5</title>
<g id="a_edge11_Node000011_Node000005"><a xlink:title=" ">
<path fill="none" stroke="#63b8ff" d="M177.95,-623.72C160.43,-624.27 142.11,-624.85 125.5,-625.38"/>
<polygon fill="#63b8ff" stroke="#63b8ff" points="177.93,-627.22 187.82,-623.4 177.71,-620.22 177.93,-627.22"/>
</a>
</g>
</g>
<!-- Node11&#45;&gt;Node6 -->
<g id="edge12_Node000011_Node000006" class="edge">
<title>Node11&#45;&gt;Node6</title>
<g id="a_edge12_Node000011_Node000006"><a xlink:title=" ">
<path fill="none" stroke="#63b8ff" d="M182.78,-609.29C163.82,-606.19 143.64,-602.89 125.5,-599.92"/>
<polygon fill="#63b8ff" stroke="#63b8ff" points="182.16,-612.74 192.59,-610.9 183.29,-605.83 182.16,-612.74"/>
</a>
</g>
</g>
<!-- Node17 -->
<g id="Node000017" class="node">
<title>Node17</title>
<g id="a_Node000017"><a xlink:href="class_t_m_c2208_stepper.html#a2d0d630547d4beab14d4be229c424af3" target="_top" xlink:title=" ">
<polygon fill="white" stroke="#666666" points="126.62,-922.88 4.12,-922.88 4.12,-903.62 126.62,-903.62 126.62,-922.88"/>
<text text-anchor="middle" x="65.38" y="-909.38" font-family="Helvetica,sans-Serif" font-size="10.00">TMC2208Stepper::cur_a</text>
</a>
</g>
</g>
<!-- Node16&#45;&gt;Node17 -->
<g id="edge18_Node000016_Node000017" class="edge">
<title>Node16&#45;&gt;Node17</title>
<g id="a_edge18_Node000016_Node000017"><a xlink:title=" ">
<path fill="none" stroke="#63b8ff" d="M191.28,-879.72C183.01,-881.48 174.66,-883.35 166.75,-885.25 165.09,-885.65 130.47,-895.32 102.34,-903.18"/>
<polygon fill="#63b8ff" stroke="#63b8ff" points="191.93,-883.16 201,-877.68 190.49,-876.31 191.93,-883.16"/>
</a>
</g>
</g>
<!-- Node18 -->
<g id="Node000018" class="node">
<title>Node18</title>
<g id="a_Node000018"><a xlink:href="class_t_m_c2208_stepper.html#a09eff4da746ad9e8b410796f4710dee8" target="_top" xlink:title=" ">
<polygon fill="white" stroke="#666666" points="126.62,-885.88 4.12,-885.88 4.12,-866.62 126.62,-866.62 126.62,-885.88"/>
<text text-anchor="middle" x="65.38" y="-872.38" font-family="Helvetica,sans-Serif" font-size="10.00">TMC2208Stepper::cur_b</text>
</a>
</g>
</g>
<!-- Node16&#45;&gt;Node18 -->
<g id="edge19_Node000016_Node000018" class="edge">
<title>Node16&#45;&gt;Node18</title>
<g id="a_edge19_Node000016_Node000018"><a xlink:title=" ">
<path fill="none" stroke="#63b8ff" d="M166.96,-871.47C153.45,-872.11 139.78,-872.76 127.06,-873.37"/>
<polygon fill="#63b8ff" stroke="#63b8ff" points="166.92,-874.98 176.74,-871.01 166.58,-867.99 166.92,-874.98"/>
</a>
</g>
</g>
<!-- Node21 -->
<g id="Node000021" class="node">
<title>Node21</title>
<g id="a_Node000021"><a xlink:href="class_t_m_c2208_stepper.html#a2940a4fc578d24624d835ac1664aeef3" target="_top" xlink:title=" ">
<polygon fill="white" stroke="#666666" points="125.12,-848.5 5.63,-848.5 5.63,-818 125.12,-818 125.12,-848.5"/>
<text text-anchor="start" x="13.62" y="-835" font-family="Helvetica,sans-Serif" font-size="10.00">TMC2208Stepper::pwm</text>
<text text-anchor="middle" x="65.38" y="-823.75" font-family="Helvetica,sans-Serif" font-size="10.00">_grad_auto</text>
</a>
</g>
</g>
<!-- Node20&#45;&gt;Node21 -->
<g id="edge22_Node000020_Node000021" class="edge">
<title>Node20&#45;&gt;Node21</title>
<g id="a_edge22_Node000020_Node000021"><a xlink:title=" ">
<path fill="none" stroke="#63b8ff" d="M194.28,-805.55C185.05,-807.44 175.65,-809.38 166.75,-811.25 153.4,-814.06 139.06,-817.16 125.52,-820.12"/>
<polygon fill="#63b8ff" stroke="#63b8ff" points="194.83,-809.01 203.93,-803.59 193.43,-802.15 194.83,-809.01"/>
</a>
</g>
</g>
<!-- Node22 -->
<g id="Node000022" class="node">
<title>Node22</title>
<g id="a_Node000022"><a xlink:href="class_t_m_c2208_stepper.html#af24b684f8072b9e5b064f093d266257e" target="_top" xlink:title=" ">
<polygon fill="white" stroke="#666666" points="125.12,-799.5 5.63,-799.5 5.63,-769 125.12,-769 125.12,-799.5"/>
<text text-anchor="start" x="13.62" y="-786" font-family="Helvetica,sans-Serif" font-size="10.00">TMC2208Stepper::pwm</text>
<text text-anchor="middle" x="65.38" y="-774.75" font-family="Helvetica,sans-Serif" font-size="10.00">_ofs_auto</text>
</a>
</g>
</g>
<!-- Node20&#45;&gt;Node22 -->
<g id="edge23_Node000020_Node000022" class="edge">
<title>Node20&#45;&gt;Node22</title>
<g id="a_edge23_Node000020_Node000022"><a xlink:title=" ">
<path fill="none" stroke="#63b8ff" d="M167.04,-789.03C152.99,-788.36 138.76,-787.69 125.6,-787.06"/>
<polygon fill="#63b8ff" stroke="#63b8ff" points="166.58,-792.51 176.74,-789.49 166.92,-785.52 166.58,-792.51"/>
</a>
</g>
</g>
<!-- Node24 -->
<g id="Node000024" class="node">
<title>Node24</title>
<g id="a_Node000024"><a xlink:href="class_t_m_c2208_stepper.html#a2ad2f165b9961405c9ec905713d1f7ed" target="_top" xlink:title=" ">
<polygon fill="white" stroke="#666666" points="125.12,-750.5 5.63,-750.5 5.63,-720 125.12,-720 125.12,-750.5"/>
<text text-anchor="start" x="13.62" y="-737" font-family="Helvetica,sans-Serif" font-size="10.00">TMC2208Stepper::pwm</text>
<text text-anchor="middle" x="65.38" y="-725.75" font-family="Helvetica,sans-Serif" font-size="10.00">_scale_auto</text>
</a>
</g>
</g>
<!-- Node23&#45;&gt;Node24 -->
<g id="edge25_Node000023_Node000024" class="edge">
<title>Node23&#45;&gt;Node24</title>
<g id="a_edge25_Node000023_Node000024"><a xlink:title=" ">
<path fill="none" stroke="#63b8ff" d="M183.43,-744.52C164.22,-742.99 143.72,-741.37 125.32,-739.92"/>
<polygon fill="#63b8ff" stroke="#63b8ff" points="183.12,-748 193.36,-745.3 183.67,-741.02 183.12,-748"/>
</a>
</g>
</g>
<!-- Node25 -->
<g id="Node000025" class="node">
<title>Node25</title>
<g id="a_Node000025"><a xlink:href="class_t_m_c2208_stepper.html#ab98b6c9268243e35367a5247cc32dde4" target="_top" xlink:title=" ">
<polygon fill="white" stroke="#666666" points="125.12,-701.5 5.63,-701.5 5.63,-671 125.12,-671 125.12,-701.5"/>
<text text-anchor="start" x="13.62" y="-688" font-family="Helvetica,sans-Serif" font-size="10.00">TMC2208Stepper::pwm</text>
<text text-anchor="middle" x="65.38" y="-676.75" font-family="Helvetica,sans-Serif" font-size="10.00">_scale_sum</text>
</a>
</g>
</g>
<!-- Node23&#45;&gt;Node25 -->
<g id="edge26_Node000023_Node000025" class="edge">
<title>Node23&#45;&gt;Node25</title>
<g id="a_edge26_Node000023_Node000025"><a xlink:title=" ">
<path fill="none" stroke="#63b8ff" d="M185.79,-731.29C179.33,-729.33 172.9,-727.3 166.75,-725.25 150.47,-719.81 146.75,-717.47 130.75,-711.25 123.04,-708.25 114.81,-705.06 106.9,-701.98"/>
<polygon fill="#63b8ff" stroke="#63b8ff" points="184.63,-734.59 195.21,-734.08 186.62,-727.88 184.63,-734.59"/>
</a>
</g>
</g>
<!-- Node26&#45;&gt;Node5 -->
<g id="edge28_Node000026_Node000005" class="edge">
<title>Node26&#45;&gt;Node5</title>
<g id="a_edge28_Node000026_Node000005"><a xlink:title=" ">
<path fill="none" stroke="#63b8ff" d="M192.91,-596.6C184.11,-598.43 175.2,-600.35 166.75,-602.25 146.25,-606.87 123.53,-612.49 104.89,-617.23"/>
<polygon fill="#63b8ff" stroke="#63b8ff" points="193.38,-600.08 202.47,-594.63 191.97,-593.22 193.38,-600.08"/>
</a>
</g>
</g>
<!-- Node26&#45;&gt;Node6 -->
<g id="edge29_Node000026_Node000006" class="edge">
<title>Node26&#45;&gt;Node6</title>
<g id="a_edge29_Node000026_Node000006"><a xlink:title=" ">
<path fill="none" stroke="#63b8ff" d="M169.4,-586.99C154.5,-587.46 139.33,-587.94 125.38,-588.38"/>
<polygon fill="#63b8ff" stroke="#63b8ff" points="169.31,-590.49 179.19,-586.68 169.09,-583.5 169.31,-590.49"/>
</a>
</g>
</g>
<!-- Node29 -->
<g id="Node000029" class="node">
<title>Node29</title>
<g id="a_Node000029"><a xlink:href="class_t_m_c2208_stepper.html#ac7c979e2083f3a2b35bcaa0f4fd45cae" target="_top" xlink:title=" ">
<polygon fill="white" stroke="#666666" points="551.25,-283.88 395,-283.88 395,-264.62 551.25,-264.62 551.25,-283.88"/>
<text text-anchor="middle" x="473.12" y="-270.38" font-family="Helvetica,sans-Serif" font-size="10.00">TMC2208Stepper::CHOPCONF</text>
</a>
</g>
</g>
<!-- Node28&#45;&gt;Node29 -->
<g id="edge32_Node000028_Node000029" class="edge">
<title>Node28&#45;&gt;Node29</title>
<g id="a_edge32_Node000028_Node000029"><a xlink:title=" ">
<path fill="none" stroke="#63b8ff" d="M642.76,-232.01C619.77,-239.77 590.07,-249.27 563.25,-256.25 552.25,-259.11 540.39,-261.79 529.02,-264.16"/>
<polygon fill="#63b8ff" stroke="#63b8ff" points="643.7,-235.39 652.03,-228.85 641.44,-228.76 643.7,-235.39"/>
</a>
</g>
</g>
<!-- Node31 -->
<g id="Node000031" class="node">
<title>Node31</title>
<g id="a_Node000031"><a xlink:href="class_t_m_c2209_stepper.html#add1136accc0b089a157c95fdf8e1e685" target="_top" xlink:title=" ">
<polygon fill="white" stroke="#666666" points="550.5,-246.88 395.75,-246.88 395.75,-227.62 550.5,-227.62 550.5,-246.88"/>
<text text-anchor="middle" x="473.12" y="-233.38" font-family="Helvetica,sans-Serif" font-size="10.00">TMC2209Stepper::COOLCONF</text>
</a>
</g>
</g>
<!-- Node28&#45;&gt;Node31 -->
<g id="edge34_Node000028_Node000031" class="edge">
<title>Node28&#45;&gt;Node31</title>
<g id="a_edge34_Node000028_Node000031"><a xlink:title=" ">
<path fill="none" stroke="#63b8ff" d="M611.68,-224.68C592.1,-226.47 570.72,-228.42 550.79,-230.24"/>
<polygon fill="#63b8ff" stroke="#63b8ff" points="611.84,-228.18 621.48,-223.78 611.2,-221.21 611.84,-228.18"/>
</a>
</g>
</g>
<!-- Node33 -->
<g id="Node000033" class="node">
<title>Node33</title>
<g id="a_Node000033"><a xlink:href="class_t_m_c2208_stepper.html#a97f0d743b9f5cf956637deb2e06d0145" target="_top" xlink:title=" ">
<polygon fill="white" stroke="#666666" points="563.25,-209.88 383,-209.88 383,-190.62 563.25,-190.62 563.25,-209.88"/>
<text text-anchor="middle" x="473.12" y="-196.38" font-family="Helvetica,sans-Serif" font-size="10.00">TMC2208Stepper::FACTORY_CONF</text>
</a>
</g>
</g>
<!-- Node28&#45;&gt;Node33 -->
<g id="edge36_Node000028_Node000033" class="edge">
<title>Node28&#45;&gt;Node33</title>
<g id="a_edge36_Node000028_Node000033"><a xlink:title=" ">
<path fill="none" stroke="#63b8ff" d="M611.91,-212.18C596.39,-210.84 579.74,-209.4 563.57,-208"/>
<polygon fill="#63b8ff" stroke="#63b8ff" points="611.21,-215.63 621.48,-213.01 611.82,-208.66 611.21,-215.63"/>
</a>
</g>
</g>
<!-- Node35 -->
<g id="Node000035" class="node">
<title>Node35</title>
<g id="a_Node000035"><a xlink:href="class_t_m_c2208_stepper.html#ad920d81bde73173f5974a62a85b719e6" target="_top" xlink:title=" ">
<polygon fill="white" stroke="#666666" points="538.5,-172.88 407.75,-172.88 407.75,-153.62 538.5,-153.62 538.5,-172.88"/>
<text text-anchor="middle" x="473.12" y="-159.38" font-family="Helvetica,sans-Serif" font-size="10.00">TMC2208Stepper::fclktrim</text>
</a>
</g>
</g>
<!-- Node28&#45;&gt;Node35 -->
<g id="edge38_Node000028_Node000035" class="edge">
<title>Node28&#45;&gt;Node35</title>
<g id="a_edge38_Node000028_Node000035"><a xlink:title=" ">
<path fill="none" stroke="#63b8ff" d="M642.27,-204.75C619.34,-197.24 589.86,-188.06 563.25,-181.25 552.09,-178.39 540.04,-175.7 528.53,-173.31"/>
<polygon fill="#63b8ff" stroke="#63b8ff" points="640.93,-207.99 651.52,-207.81 643.13,-201.35 640.93,-207.99"/>
</a>
</g>
</g>
<!-- Node36 -->
<g id="Node000036" class="node">
<title>Node36</title>
<g id="a_Node000036"><a xlink:href="class_t_m_c2208_stepper.html#a20d275e1dba5fe4ab75fc405b2f46281" target="_top" xlink:title=" ">
<polygon fill="white" stroke="#666666" points="540.38,-135.88 405.88,-135.88 405.88,-116.62 540.38,-116.62 540.38,-135.88"/>
<text text-anchor="middle" x="473.12" y="-122.38" font-family="Helvetica,sans-Serif" font-size="10.00">TMC2208Stepper::GCONF</text>
</a>
</g>
</g>
<!-- Node28&#45;&gt;Node36 -->
<g id="edge39_Node000028_Node000036" class="edge">
<title>Node28&#45;&gt;Node36</title>
<g id="a_edge39_Node000028_Node000036"><a xlink:title=" ">
<path fill="none" stroke="#63b8ff" d="M660.16,-201.26C637.26,-184.29 599.63,-158.71 563.25,-144.25 555.33,-141.1 546.78,-138.48 538.23,-136.3"/>
<polygon fill="#63b8ff" stroke="#63b8ff" points="658,-204.02 668.09,-207.25 662.22,-198.43 658,-204.02"/>
</a>
</g>
</g>
<!-- Node38 -->
<g id="Node000038" class="node">
<title>Node38</title>
<g id="a_Node000038"><a xlink:href="class_t_m_c2208_stepper.html#a755b2adec0990d6bfcf2f5f1daf9d692" target="_top" xlink:title=" ">
<polygon fill="white" stroke="#666666" points="549.75,-98.88 396.5,-98.88 396.5,-79.62 549.75,-79.62 549.75,-98.88"/>
<text text-anchor="middle" x="473.12" y="-85.38" font-family="Helvetica,sans-Serif" font-size="10.00">TMC2208Stepper::OTP_PROG</text>
</a>
</g>
</g>
<!-- Node28&#45;&gt;Node38 -->
<g id="edge41_Node000028_Node000038" class="edge">
<title>Node28&#45;&gt;Node38</title>
<g id="a_edge41_Node000028_Node000038"><a xlink:title=" ">
<path fill="none" stroke="#63b8ff" d="M667.59,-199.41C647.23,-174.21 607.55,-130.06 563.25,-107.25 557.07,-104.07 550.39,-101.45 543.55,-99.3"/>
<polygon fill="#63b8ff" stroke="#63b8ff" points="664.76,-201.48 673.71,-207.16 670.26,-197.14 664.76,-201.48"/>
</a>
</g>
</g>
<!-- Node39 -->
<g id="Node000039" class="node">
<title>Node39</title>
<g id="a_Node000039"><a xlink:href="class_t_m_c2208_stepper.html#ae51fb40f4fba4aecb8f0763adddb8296" target="_top" xlink:title=" ">
<polygon fill="white" stroke="#666666" points="534.75,-61.88 411.5,-61.88 411.5,-42.62 534.75,-42.62 534.75,-61.88"/>
<text text-anchor="middle" x="473.12" y="-48.38" font-family="Helvetica,sans-Serif" font-size="10.00">TMC2208Stepper::ottrim</text>
</a>
</g>
</g>
<!-- Node28&#45;&gt;Node39 -->
<g id="edge42_Node000028_Node000039" class="edge">
<title>Node28&#45;&gt;Node39</title>
<g id="a_edge42_Node000028_Node000039"><a xlink:title=" ">
<path fill="none" stroke="#63b8ff" d="M671.98,-198.29C654.58,-165.85 615.6,-102.13 563.25,-70.25 554.76,-65.08 545.04,-61.36 535.23,-58.7"/>
<polygon fill="#63b8ff" stroke="#63b8ff" points="668.79,-199.75 676.52,-207.01 675,-196.52 668.79,-199.75"/>
</a>
</g>
</g>
<!-- Node40 -->
<g id="Node000040" class="node">
<title>Node40</title>
<g id="a_Node000040"><a xlink:href="class_t_m_c2209_stepper.html#ac02a95cfd0f560a2705136717f50d957" target="_top" xlink:title=" ">
<polygon fill="white" stroke="#666666" points="543.38,-24.88 402.88,-24.88 402.88,-5.62 543.38,-5.62 543.38,-24.88"/>
<text text-anchor="middle" x="473.12" y="-11.38" font-family="Helvetica,sans-Serif" font-size="10.00">TMC2209Stepper::SGTHRS</text>
</a>
</g>
</g>
<!-- Node28&#45;&gt;Node40 -->
<g id="edge43_Node000028_Node000040" class="edge">
<title>Node28&#45;&gt;Node40</title>
<g id="a_edge43_Node000028_Node000040"><a xlink:title=" ">
<path fill="none" stroke="#63b8ff" d="M674.93,-197.47C660.53,-158.53 623.93,-74.74 563.25,-33.25 557.26,-29.15 550.54,-25.94 543.55,-23.44"/>
<polygon fill="#63b8ff" stroke="#63b8ff" points="671.6,-198.56 678.25,-206.8 678.19,-196.21 671.6,-198.56"/>
</a>
</g>
</g>
<!-- Node42 -->
<g id="Node000042" class="node">
<title>Node42</title>
<g id="a_Node000042"><a xlink:href="class_t_m_c2208_stepper.html#a62c4c6100151acdbae6de579009b9f0d" target="_top" xlink:title=" ">
<polygon fill="white" stroke="#666666" points="552,-394.88 394.25,-394.88 394.25,-375.62 552,-375.62 552,-394.88"/>
<text text-anchor="middle" x="473.12" y="-381.38" font-family="Helvetica,sans-Serif" font-size="10.00">TMC2208Stepper::SLAVECONF</text>
</a>
</g>
</g>
<!-- Node28&#45;&gt;Node42 -->
<g id="edge45_Node000028_Node000042" class="edge">
<title>Node28&#45;&gt;Node42</title>
<g id="a_edge45_Node000028_Node000042"><a xlink:title=" ">
<path fill="none" stroke="#63b8ff" d="M672.01,-238.35C654.67,-271 615.77,-335.15 563.25,-367.25 558.13,-370.38 552.57,-372.97 546.81,-375.13"/>
<polygon fill="#63b8ff" stroke="#63b8ff" points="675.07,-240.05 676.54,-229.56 668.85,-236.85 675.07,-240.05"/>
</a>
</g>
</g>
<!-- Node44 -->
<g id="Node000044" class="node">
<title>Node44</title>
<g id="a_Node000044"><a xlink:href="class_t_m_c2209_stepper.html#acc61f21e6584dc64bd9bd025fd7bc29a" target="_top" xlink:title=" ">
<polygon fill="white" stroke="#666666" points="553.12,-357.88 393.12,-357.88 393.12,-338.62 553.12,-338.62 553.12,-357.88"/>
<text text-anchor="middle" x="473.12" y="-344.38" font-family="Helvetica,sans-Serif" font-size="10.00">TMC2209Stepper::TCOOLTHRS</text>
</a>
</g>
</g>
<!-- Node28&#45;&gt;Node44 -->
<g id="edge47_Node000028_Node000044" class="edge">
<title>Node28&#45;&gt;Node44</title>
<g id="a_edge47_Node000028_Node000044"><a xlink:title=" ">
<path fill="none" stroke="#63b8ff" d="M667.63,-237.26C647.31,-262.7 607.68,-307.25 563.25,-330.25 557.08,-333.44 550.4,-336.07 543.57,-338.23"/>
<polygon fill="#63b8ff" stroke="#63b8ff" points="670.34,-239.47 673.73,-229.44 664.82,-235.17 670.34,-239.47"/>
</a>
</g>
</g>
<!-- Node45 -->
<g id="Node000045" class="node">
<title>Node45</title>
<g id="a_Node000045"><a xlink:href="class_t_m_c2208_stepper.html#a9e9792fafdbbf0681daf613b2a5f507a" target="_top" xlink:title=" ">
<polygon fill="white" stroke="#666666" points="544.88,-320.88 401.38,-320.88 401.38,-301.62 544.88,-301.62 544.88,-320.88"/>
<text text-anchor="middle" x="473.12" y="-307.38" font-family="Helvetica,sans-Serif" font-size="10.00">TMC2208Stepper::VACTUAL</text>
</a>
</g>
</g>
<!-- Node28&#45;&gt;Node45 -->
<g id="edge48_Node000028_Node000045" class="edge">
<title>Node28&#45;&gt;Node45</title>
<g id="a_edge48_Node000028_Node000045"><a xlink:title=" ">
<path fill="none" stroke="#63b8ff" d="M660.57,-235.21C637.74,-252.41 599.92,-278.55 563.25,-293.25 555.34,-296.42 546.8,-299.06 538.25,-301.24"/>
<polygon fill="#63b8ff" stroke="#63b8ff" points="662.66,-238.01 668.46,-229.14 658.4,-232.46 662.66,-238.01"/>
</a>
</g>
</g>
<!-- Node30 -->
<g id="Node000030" class="node">
<title>Node30</title>
<g id="a_Node000030"><a xlink:href="class_t_m_c2208_stepper.html#abe6a8d3594e4a6f7871fadc7d2dbdcb0" target="_top" xlink:title=" ">
<polygon fill="white" stroke="#666666" points="326.38,-292.5 187.38,-292.5 187.38,-262 326.38,-262 326.38,-292.5"/>
<text text-anchor="start" x="195.38" y="-279" font-family="Helvetica,sans-Serif" font-size="10.00">TMC2208Stepper::INIT2208</text>
<text text-anchor="middle" x="256.88" y="-267.75" font-family="Helvetica,sans-Serif" font-size="10.00">_REGISTER</text>
</a>
</g>
</g>
<!-- Node29&#45;&gt;Node30 -->
<g id="edge33_Node000029_Node000030" class="edge">
<title>Node29&#45;&gt;Node30</title>
<g id="a_edge33_Node000029_Node000030"><a xlink:title=" ">
<path fill="none" stroke="#63b8ff" d="M383.4,-275.49C364.43,-275.76 344.67,-276.03 326.59,-276.29"/>
<polygon fill="#63b8ff" stroke="#63b8ff" points="383.31,-278.99 393.26,-275.35 383.21,-271.99 383.31,-278.99"/>
</a>
</g>
</g>
<!-- Node32 -->
<g id="Node000032" class="node">
<title>Node32</title>
<g id="a_Node000032"><a xlink:href="class_t_m_c2209_stepper.html#a64221bf459b0dea397baba27b7a54e10" target="_top" xlink:title=" ">
<polygon fill="white" stroke="#666666" points="326.38,-243.5 187.38,-243.5 187.38,-213 326.38,-213 326.38,-243.5"/>
<text text-anchor="start" x="195.38" y="-230" font-family="Helvetica,sans-Serif" font-size="10.00">TMC2209Stepper::INIT2209</text>
<text text-anchor="middle" x="256.88" y="-218.75" font-family="Helvetica,sans-Serif" font-size="10.00">_REGISTER</text>
</a>
</g>
</g>
<!-- Node31&#45;&gt;Node32 -->
<g id="edge35_Node000031_Node000032" class="edge">
<title>Node31&#45;&gt;Node32</title>
<g id="a_edge35_Node000031_Node000032"><a xlink:title=" ">
<path fill="none" stroke="#63b8ff" d="M383.92,-233.54C364.8,-232.74 344.85,-231.9 326.61,-231.14"/>
<polygon fill="#63b8ff" stroke="#63b8ff" points="383.73,-237.04 393.87,-233.96 384.02,-230.05 383.73,-237.04"/>
</a>
</g>
</g>
<!-- Node34 -->
<g id="Node000034" class="node">
<title>Node34</title>
<g id="a_Node000034"><a xlink:href="class_t_m_c2208_stepper.html#a4ea75e20279003cc3c509299572d4c77" target="_top" xlink:title=" ">
<polygon fill="white" stroke="#666666" points="315.88,-194.5 197.88,-194.5 197.88,-164 315.88,-164 315.88,-194.5"/>
<text text-anchor="start" x="205.88" y="-181" font-family="Helvetica,sans-Serif" font-size="10.00">TMC2208Stepper::INIT</text>
<text text-anchor="middle" x="256.88" y="-169.75" font-family="Helvetica,sans-Serif" font-size="10.00">_REGISTER</text>
</a>
</g>
</g>
<!-- Node33&#45;&gt;Node34 -->
<g id="edge37_Node000033_Node000034" class="edge">
<title>Node33&#45;&gt;Node34</title>
<g id="a_edge37_Node000033_Node000034"><a xlink:title=" ">
<path fill="none" stroke="#63b8ff" d="M371.17,-190.35C352.37,-188.51 333.31,-186.64 316.33,-184.98"/>
<polygon fill="#63b8ff" stroke="#63b8ff" points="370.71,-193.83 381,-191.32 371.39,-186.86 370.71,-193.83"/>
</a>
</g>
</g>
<!-- Node37 -->
<g id="Node000037" class="node">
<title>Node37</title>
<g id="a_Node000037"><a xlink:href="class_t_m_c2208_stepper.html#ae9305335bf7c7fca557b3900de8e9cda" target="_top" xlink:title=" ">
<polygon fill="white" stroke="#666666" points="326.38,-141.5 187.38,-141.5 187.38,-111 326.38,-111 326.38,-141.5"/>
<text text-anchor="start" x="195.38" y="-128" font-family="Helvetica,sans-Serif" font-size="10.00">TMC2208Stepper::INIT2208</text>
<text text-anchor="middle" x="256.88" y="-116.75" font-family="Helvetica,sans-Serif" font-size="10.00">_REGISTER</text>
</a>
</g>
</g>
<!-- Node36&#45;&gt;Node37 -->
<g id="edge40_Node000036_Node000037" class="edge">
<title>Node36&#45;&gt;Node37</title>
<g id="a_edge40_Node000036_Node000037"><a xlink:title=" ">
<path fill="none" stroke="#63b8ff" d="M394.14,-126.25C372.05,-126.25 348.17,-126.25 326.67,-126.25"/>
<polygon fill="#63b8ff" stroke="#63b8ff" points="394,-129.75 404,-126.25 394,-122.75 394,-129.75"/>
</a>
</g>
</g>
<!-- Node41 -->
<g id="Node000041" class="node">
<title>Node41</title>
<g id="a_Node000041"><a xlink:href="class_t_m_c2209_stepper.html#ade36c1462edb9fdb4afcc354ae1f6d2a" target="_top" xlink:title=" ">
<polygon fill="white" stroke="#666666" points="326.38,-30.5 187.38,-30.5 187.38,0 326.38,0 326.38,-30.5"/>
<text text-anchor="start" x="195.38" y="-17" font-family="Helvetica,sans-Serif" font-size="10.00">TMC2209Stepper::INIT2209</text>
<text text-anchor="middle" x="256.88" y="-5.75" font-family="Helvetica,sans-Serif" font-size="10.00">_REGISTER</text>
</a>
</g>
</g>
<!-- Node40&#45;&gt;Node41 -->
<g id="edge44_Node000040_Node000041" class="edge">
<title>Node40&#45;&gt;Node41</title>
<g id="a_edge44_Node000040_Node000041"><a xlink:title=" ">
<path fill="none" stroke="#63b8ff" d="M391.27,-15.25C370.01,-15.25 347.28,-15.25 326.72,-15.25"/>
<polygon fill="#63b8ff" stroke="#63b8ff" points="391.05,-18.75 401.05,-15.25 391.05,-11.75 391.05,-18.75"/>
</a>
</g>
</g>
<!-- Node43 -->
<g id="Node000043" class="node">
<title>Node43</title>
<g id="a_Node000043"><a xlink:href="class_t_m_c2208_stepper.html#a6a203b25b832b19826d2fa5a54e73e01" target="_top" xlink:title=" ">
<polygon fill="white" stroke="#666666" points="315.88,-396.5 197.88,-396.5 197.88,-366 315.88,-366 315.88,-396.5"/>
<text text-anchor="start" x="205.88" y="-383" font-family="Helvetica,sans-Serif" font-size="10.00">TMC2208Stepper::INIT</text>
<text text-anchor="middle" x="256.88" y="-371.75" font-family="Helvetica,sans-Serif" font-size="10.00">_REGISTER</text>
</a>
</g>
</g>
<!-- Node42&#45;&gt;Node43 -->
<g id="edge46_Node000042_Node000043" class="edge">
<title>Node42&#45;&gt;Node43</title>
<g id="a_edge46_Node000042_Node000043"><a xlink:title=" ">
<path fill="none" stroke="#63b8ff" d="M382.59,-383.58C360.13,-383.16 336.61,-382.72 316.12,-382.34"/>
<polygon fill="#63b8ff" stroke="#63b8ff" points="382.29,-387.07 392.35,-383.76 382.42,-380.07 382.29,-387.07"/>
</a>
</g>
</g>
<!-- Node46 -->
<g id="Node000046" class="node">
<title>Node46</title>
<g id="a_Node000046"><a xlink:href="class_t_m_c2208_stepper.html#aa0478c83baba97df3d716c42b5d0ea0f" target="_top" xlink:title=" ">
<polygon fill="white" stroke="#666666" points="326.38,-341.5 187.38,-341.5 187.38,-311 326.38,-311 326.38,-341.5"/>
<text text-anchor="start" x="195.38" y="-328" font-family="Helvetica,sans-Serif" font-size="10.00">TMC2208Stepper::INIT2208</text>
<text text-anchor="middle" x="256.88" y="-316.75" font-family="Helvetica,sans-Serif" font-size="10.00">_REGISTER</text>
</a>
</g>
</g>
<!-- Node45&#45;&gt;Node46 -->
<g id="edge49_Node000045_Node000046" class="edge">
<title>Node45&#45;&gt;Node46</title>
<g id="a_edge49_Node000045_Node000046"><a xlink:title=" ">
<path fill="none" stroke="#63b8ff" d="M389.65,-317.02C368.8,-318.48 346.63,-320.04 326.54,-321.44"/>
<polygon fill="#63b8ff" stroke="#63b8ff" points="389.84,-320.52 399.57,-316.33 389.35,-313.54 389.84,-320.52"/>
</a>
</g>
</g>
</g>
</svg>

<g id="navigator" transform="translate(0 0)" fill="#404254">
  <rect fill="#f2f5e9" fill-opacity="0.5" stroke="#606060" stroke-width=".5" x="0" y="0" width="60" height="60"/>
  <use id="zoomplus" xlink:href="#zoomPlus" x="17" y="9" onmousedown="handleZoom(evt,'in')"/>
  <use id="zoomminus" xlink:href="#zoomMin" x="42" y="9" onmousedown="handleZoom(evt,'out')"/>
  <use id="reset" xlink:href="#resetDef" x="30" y="36" onmousedown="handleReset()"/>
   <use id="arrowup" xlink:href="#arrowUp" x="0" y="0" onmousedown="handlePan(0,-1)"/>
  <use id="arrowright" xlink:href="#arrowRight" x="0" y="0" onmousedown="handlePan(1,0)"/>
  <use id="arrowdown" xlink:href="#arrowDown" x="0" y="0" onmousedown="handlePan(0,1)"/>
  <use id="arrowleft" xlink:href="#arrowLeft" x="0" y="0" onmousedown="handlePan(-1,0)"/>
</g>
<svg viewBox="0 0 15 15" width="100%" height="30px" preserveAspectRatio="xMaxYMin meet">
 <g id="arrow_out" transform="scale(0.3 0.3)">
  <a xlink:href="class_t_m_c2208_stepper_adb6243277ef84d2027b2b8bae6be5bd0_icgraph_org.svg" target="_base">
   <rect id="button" ry="5" rx="5" y="6" x="6" height="38" width="38"
        fill="#f2f5e9" fill-opacity="0.5" stroke="#606060" stroke-width="1.0"/>
   <path id="arrow"
     d="M 11.500037,31.436501 C 11.940474,20.09759 22.043105,11.32322 32.158766,21.979434 L 37.068811,17.246167 C 37.068811,17.246167 37.088388,32 37.088388,32 L 22.160133,31.978069 C 22.160133,31.978069 26.997745,27.140456 26.997745,27.140456 C 18.528582,18.264221 13.291696,25.230495 11.500037,31.436501 z"
     style="fill:#404040;"/>
  </a>
 </g>
</svg>

<style type='text/css'>
<![CDATA[
[data-mouse-over-selected='false'] { opacity: 0.7; }
[data-mouse-over-selected='true']  { opacity: 1.0; }
]]>
</style>
<script type="application/ecmascript"><![CDATA[
document.addEventListener('DOMContentLoaded', (event) => {
  highlightEdges();
  highlightAdjacentNodes();
});
]]></script>
</svg>
