<?xml version="1.0" encoding="UTF-8" standalone="no"?>
<!DOCTYPE svg PUBLIC "-//W3C//DTD SVG 1.1//EN"
 "http://www.w3.org/Graphics/SVG/1.1/DTD/svg11.dtd">
<!-- Generated by graphviz version 12.2.1 (20241206.2353)
 -->
<!-- Title: TMC2240Stepper::set_overtemp_prewarn_celsius Pages: 1 -->
<svg width="457pt" height="76pt"
 viewBox="0.00 0.00 456.50 75.88" xmlns="http://www.w3.org/2000/svg" xmlns:xlink="http://www.w3.org/1999/xlink">
<g id="graph0" class="graph" transform="scale(1 1) rotate(0) translate(4 71.88)">
<title>TMC2240Stepper::set_overtemp_prewarn_celsius</title>
<!-- Node1 -->
<g id="Node000001" class="node">
<title>Node1</title>
<g id="a_Node000001"><a xlink:title=" ">
<polygon fill="#999999" stroke="#666666" points="137.5,-45.88 0,-45.88 0,-15.37 137.5,-15.37 137.5,-45.88"/>
<text text-anchor="start" x="8" y="-32.38" font-family="Helvetica,sans-Serif" font-size="10.00">TMC2240Stepper::set</text>
<text text-anchor="middle" x="68.75" y="-21.12" font-family="Helvetica,sans-Serif" font-size="10.00">_overtemp_prewarn_celsius</text>
</a>
</g>
</g>
<!-- Node2 -->
<g id="Node000002" class="node">
<title>Node2</title>
<g id="a_Node000002"><a xlink:href="class_t_m_c2240_stepper.html#a13db85a1f13aa657e656cffe6ca32443" target="_top" xlink:title=" ">
<polygon fill="white" stroke="#666666" points="295.25,-67.88 173.5,-67.88 173.5,-37.38 295.25,-37.38 295.25,-67.88"/>
<text text-anchor="start" x="181.5" y="-54.38" font-family="Helvetica,sans-Serif" font-size="10.00">TMC2240Stepper::OTW</text>
<text text-anchor="middle" x="234.38" y="-43.12" font-family="Helvetica,sans-Serif" font-size="10.00">_OV_VTH</text>
</a>
</g>
</g>
<!-- Node1&#45;&gt;Node2 -->
<g id="edge1_Node000001_Node000002" class="edge">
<title>Node1&#45;&gt;Node2</title>
<g id="a_edge1_Node000001_Node000002"><a xlink:title=" ">
<path fill="none" stroke="#63b8ff" d="M137.72,-39.76C145.72,-40.84 153.9,-41.94 161.94,-43.02"/>
<polygon fill="#63b8ff" stroke="#63b8ff" points="161.31,-46.47 171.69,-44.33 162.24,-39.53 161.31,-46.47"/>
</a>
</g>
</g>
<!-- Node4 -->
<g id="Node000004" class="node">
<title>Node4</title>
<g id="a_Node000004"><a xlink:href="class_t_m_c2240_stepper.html#a4538a5802e0a530914e3e05cb8de9c7b" target="_top" xlink:title=" ">
<polygon fill="white" stroke="#666666" points="294.12,-19.25 174.62,-19.25 174.62,0 294.12,0 294.12,-19.25"/>
<text text-anchor="middle" x="234.38" y="-5.75" font-family="Helvetica,sans-Serif" font-size="10.00">TMC2240Stepper::write</text>
</a>
</g>
</g>
<!-- Node1&#45;&gt;Node4 -->
<g id="edge3_Node000001_Node000004" class="edge">
<title>Node1&#45;&gt;Node4</title>
<g id="a_edge3_Node000001_Node000004"><a xlink:title=" ">
<path fill="none" stroke="#63b8ff" d="M137.72,-21.9C146.05,-20.83 154.58,-19.74 162.94,-18.66"/>
<polygon fill="#63b8ff" stroke="#63b8ff" points="163.24,-22.15 172.72,-17.41 162.35,-15.21 163.24,-22.15"/>
</a>
</g>
</g>
<!-- Node3 -->
<g id="Node000003" class="node">
<title>Node3</title>
<g id="a_Node000003"><a xlink:href="class_t_m_c2240_stepper.html#ab9de5d1aad8b0a998557ef85de765df9" target="_top" xlink:title=" ">
<polygon fill="white" stroke="#666666" points="448.5,-62.25 331.25,-62.25 331.25,-43 448.5,-43 448.5,-62.25"/>
<text text-anchor="middle" x="389.88" y="-48.75" font-family="Helvetica,sans-Serif" font-size="10.00">TMC2240Stepper::read</text>
</a>
</g>
</g>
<!-- Node2&#45;&gt;Node3 -->
<g id="edge2_Node000002_Node000003" class="edge">
<title>Node2&#45;&gt;Node3</title>
<g id="a_edge2_Node000002_Node000003"><a xlink:title=" ">
<path fill="none" stroke="#63b8ff" d="M295.6,-52.62C303.39,-52.62 311.42,-52.62 319.34,-52.62"/>
<polygon fill="#63b8ff" stroke="#63b8ff" points="319.32,-56.13 329.32,-52.63 319.32,-49.13 319.32,-56.13"/>
</a>
</g>
</g>
</g>
</svg>
