<?xml version="1.0" encoding="UTF-8" standalone="no"?>
<!DOCTYPE svg PUBLIC "-//W3C//DTD SVG 1.1//EN"
 "http://www.w3.org/Graphics/SVG/1.1/DTD/svg11.dtd">
<!-- Generated by graphviz version 12.2.1 (20241206.2353)
 -->
<!-- Title: TMC2130Stepper::pwm_grad Pages: 1 -->
<svg width="331pt" height="45pt"
 viewBox="0.00 0.00 331.00 45.25" xmlns="http://www.w3.org/2000/svg" xmlns:xlink="http://www.w3.org/1999/xlink">
<g id="graph0" class="graph" transform="scale(1 1) rotate(0) translate(4 41.25)">
<title>TMC2130Stepper::pwm_grad</title>
<!-- Node1 -->
<g id="Node000001" class="node">
<title>Node1</title>
<g id="a_Node000001"><a xlink:title=" ">
<polygon fill="#999999" stroke="#666666" points="323,-19.25 179.5,-19.25 179.5,0 323,0 323,-19.25"/>
<text text-anchor="middle" x="251.25" y="-5.75" font-family="Helvetica,sans-Serif" font-size="10.00">TMC2130Stepper::pwm_grad</text>
</a>
</g>
</g>
<!-- Node1&#45;&gt;Node1 -->
<g id="edge2_Node000001_Node000001" class="edge">
<title>Node1&#45;&gt;Node1</title>
<g id="a_edge2_Node000001_Node000001"><a xlink:title=" ">
<path fill="none" stroke="#63b8ff" d="M283.73,-29.98C280.32,-34.21 269.49,-37.25 251.25,-37.25 219.7,-37.25 210.33,-28.15 223.15,-19.54"/>
<polygon fill="#63b8ff" stroke="#63b8ff" points="287.03,-28.8 279.94,-20.93 280.58,-31.51 287.03,-28.8"/>
</a>
</g>
</g>
<!-- Node2 -->
<g id="Node000002" class="node">
<title>Node2</title>
<g id="a_Node000002"><a xlink:href="class_t_m_c2130_stepper.html#ae906d70bb275740cbbf687a3334be233" target="_top" xlink:title=" ">
<polygon fill="white" stroke="#666666" points="143.5,-19.25 0,-19.25 0,0 143.5,0 143.5,-19.25"/>
<text text-anchor="middle" x="71.75" y="-5.75" font-family="Helvetica,sans-Serif" font-size="10.00">TMC2130Stepper::pwm_grad</text>
</a>
</g>
</g>
<!-- Node1&#45;&gt;Node2 -->
<g id="edge1_Node000001_Node000002" class="edge">
<title>Node1&#45;&gt;Node2</title>
<g id="a_edge1_Node000001_Node000002"><a xlink:title=" ">
<path fill="none" stroke="#63b8ff" d="M167.58,-9.62C159.68,-9.62 151.72,-9.62 143.94,-9.62"/>
<polygon fill="#63b8ff" stroke="#63b8ff" points="167.56,-13.13 177.56,-9.63 167.56,-6.13 167.56,-13.13"/>
</a>
</g>
</g>
</g>
</svg>
