<?xml version="1.0" encoding="UTF-8" standalone="no"?>
<!DOCTYPE svg PUBLIC "-//W3C//DTD SVG 1.1//EN"
 "http://www.w3.org/Graphics/SVG/1.1/DTD/svg11.dtd">
<!-- Generated by graphviz version 12.2.1 (20241206.2353)
 -->
<!-- Title: TMC2208Stepper::write Pages: 1 -->
<svg width="303pt" height="174pt"
 viewBox="0.00 0.00 303.25 173.88" xmlns="http://www.w3.org/2000/svg" xmlns:xlink="http://www.w3.org/1999/xlink">
<g id="graph0" class="graph" transform="scale(1 1) rotate(0) translate(4 169.88)">
<title>TMC2208Stepper::write</title>
<!-- Node1 -->
<g id="Node000001" class="node">
<title>Node1</title>
<g id="a_Node000001"><a xlink:title=" ">
<polygon fill="#999999" stroke="#666666" points="119.5,-97.88 0,-97.88 0,-78.62 119.5,-78.62 119.5,-97.88"/>
<text text-anchor="middle" x="59.75" y="-84.38" font-family="Helvetica,sans-Serif" font-size="10.00">TMC2208Stepper::write</text>
</a>
</g>
</g>
<!-- Node2 -->
<g id="Node000002" class="node">
<title>Node2</title>
<g id="a_Node000002"><a xlink:href="class_t_m_c2208_stepper.html#a409c19fa6b052a370a317d061bf9af4e" target="_top" xlink:title=" ">
<polygon fill="white" stroke="#666666" points="294.88,-165.88 155.88,-165.88 155.88,-146.62 294.88,-146.62 294.88,-165.88"/>
<text text-anchor="middle" x="225.38" y="-152.38" font-family="Helvetica,sans-Serif" font-size="10.00">TMC2208Stepper::calcCRC</text>
</a>
</g>
</g>
<!-- Node1&#45;&gt;Node2 -->
<g id="edge1_Node000001_Node000002" class="edge">
<title>Node1&#45;&gt;Node2</title>
<g id="a_edge1_Node000001_Node000002"><a xlink:title=" ">
<path fill="none" stroke="#63b8ff" d="M77.37,-98.2C95.91,-108.97 127.05,-126.11 155.5,-137.25 160.71,-139.29 166.22,-141.2 171.76,-142.96"/>
<polygon fill="#63b8ff" stroke="#63b8ff" points="170.36,-146.2 180.95,-145.73 172.38,-139.5 170.36,-146.2"/>
</a>
</g>
</g>
<!-- Node3 -->
<g id="Node000003" class="node">
<title>Node3</title>
<g id="a_Node000003"><a xlink:href="class_t_m_c2208_stepper.html#a5147cab1658f782b36b0ce7e951d4f4e" target="_top" xlink:title=" ">
<polygon fill="white" stroke="#666666" points="295.25,-128.5 155.5,-128.5 155.5,-98 295.25,-98 295.25,-128.5"/>
<text text-anchor="start" x="163.5" y="-115" font-family="Helvetica,sans-Serif" font-size="10.00">TMC2208Stepper::postWrite</text>
<text text-anchor="middle" x="225.38" y="-103.75" font-family="Helvetica,sans-Serif" font-size="10.00">Communication</text>
</a>
</g>
</g>
<!-- Node1&#45;&gt;Node3 -->
<g id="edge2_Node000001_Node000003" class="edge">
<title>Node1&#45;&gt;Node3</title>
<g id="a_edge2_Node000001_Node000003"><a xlink:title=" ">
<path fill="none" stroke="#63b8ff" d="M119.82,-97.28C127.6,-98.46 135.67,-99.7 143.73,-100.93"/>
<polygon fill="#63b8ff" stroke="#63b8ff" points="143.18,-104.38 153.59,-102.43 144.23,-97.46 143.18,-104.38"/>
</a>
</g>
</g>
<!-- Node4 -->
<g id="Node000004" class="node">
<title>Node4</title>
<g id="a_Node000004"><a xlink:href="class_t_m_c2208_stepper.html#a66e4f8694ee035432af8b61f14b35a92" target="_top" xlink:title=" ">
<polygon fill="white" stroke="#666666" points="292.62,-79.5 158.12,-79.5 158.12,-49 292.62,-49 292.62,-79.5"/>
<text text-anchor="start" x="166.12" y="-66" font-family="Helvetica,sans-Serif" font-size="10.00">TMC2208Stepper::preWrite</text>
<text text-anchor="middle" x="225.38" y="-54.75" font-family="Helvetica,sans-Serif" font-size="10.00">Communication</text>
</a>
</g>
</g>
<!-- Node1&#45;&gt;Node4 -->
<g id="edge3_Node000001_Node000004" class="edge">
<title>Node1&#45;&gt;Node4</title>
<g id="a_edge3_Node000001_Node000004"><a xlink:title=" ">
<path fill="none" stroke="#63b8ff" d="M119.82,-79.59C128.51,-78.31 137.57,-76.98 146.57,-75.66"/>
<polygon fill="#63b8ff" stroke="#63b8ff" points="147.01,-79.13 156.4,-74.22 146,-72.21 147.01,-79.13"/>
</a>
</g>
</g>
<!-- Node5 -->
<g id="Node000005" class="node">
<title>Node5</title>
<g id="a_Node000005"><a xlink:href="class_t_m_c2208_stepper.html#adb6243277ef84d2027b2b8bae6be5bd0" target="_top" xlink:title=" ">
<polygon fill="white" stroke="#666666" points="286.25,-30.5 164.5,-30.5 164.5,0 286.25,0 286.25,-30.5"/>
<text text-anchor="start" x="172.5" y="-17" font-family="Helvetica,sans-Serif" font-size="10.00">TMC2208Stepper::serial</text>
<text text-anchor="middle" x="225.38" y="-5.75" font-family="Helvetica,sans-Serif" font-size="10.00">_write</text>
</a>
</g>
</g>
<!-- Node1&#45;&gt;Node5 -->
<g id="edge4_Node000001_Node000005" class="edge">
<title>Node1&#45;&gt;Node5</title>
<g id="a_edge4_Node000001_Node000005"><a xlink:title=" ">
<path fill="none" stroke="#63b8ff" d="M78.95,-78.2C97.8,-67.99 128.25,-52.04 155.5,-40.25 159.59,-38.48 163.84,-36.73 168.15,-35.02"/>
<polygon fill="#63b8ff" stroke="#63b8ff" points="169.39,-38.29 177.46,-31.43 166.87,-31.76 169.39,-38.29"/>
</a>
</g>
</g>
</g>
</svg>
