<?xml version="1.0" encoding="UTF-8" standalone="no"?>
<!DOCTYPE svg PUBLIC "-//W3C//DTD SVG 1.1//EN"
 "http://www.w3.org/Graphics/SVG/1.1/DTD/svg11.dtd">
<!-- Generated by graphviz version 12.2.1 (20241206.2353)
 -->
<!-- Title: TMC2160Stepper::PWM_SCALE Pages: 1 -->
<svg width="287pt" height="88pt"
 viewBox="0.00 0.00 286.75 87.50" xmlns="http://www.w3.org/2000/svg" xmlns:xlink="http://www.w3.org/1999/xlink">
<g id="graph0" class="graph" transform="scale(1 1) rotate(0) translate(4 83.5)">
<title>TMC2160Stepper::PWM_SCALE</title>
<!-- Node1 -->
<g id="Node000001" class="node">
<title>Node1</title>
<g id="a_Node000001"><a xlink:title=" ">
<polygon fill="#999999" stroke="#666666" points="278.75,-54.5 155.5,-54.5 155.5,-24 278.75,-24 278.75,-54.5"/>
<text text-anchor="start" x="163.5" y="-41" font-family="Helvetica,sans-Serif" font-size="10.00">TMC2160Stepper::PWM</text>
<text text-anchor="middle" x="217.12" y="-29.75" font-family="Helvetica,sans-Serif" font-size="10.00">_SCALE</text>
</a>
</g>
</g>
<!-- Node2 -->
<g id="Node000002" class="node">
<title>Node2</title>
<g id="a_Node000002"><a xlink:href="class_t_m_c2160_stepper.html#aed84d0cf68f223e6e0a463bf489f05da" target="_top" xlink:title=" ">
<polygon fill="white" stroke="#666666" points="119.5,-79.5 0,-79.5 0,-49 119.5,-49 119.5,-79.5"/>
<text text-anchor="start" x="8" y="-66" font-family="Helvetica,sans-Serif" font-size="10.00">TMC2160Stepper::pwm</text>
<text text-anchor="middle" x="59.75" y="-54.75" font-family="Helvetica,sans-Serif" font-size="10.00">_scale_auto</text>
</a>
</g>
</g>
<!-- Node1&#45;&gt;Node2 -->
<g id="edge1_Node000001_Node000002" class="edge">
<title>Node1&#45;&gt;Node2</title>
<g id="a_edge1_Node000001_Node000002"><a xlink:title=" ">
<path fill="none" stroke="#63b8ff" d="M143.84,-50.88C135.78,-52.18 127.63,-53.49 119.76,-54.76"/>
<polygon fill="#63b8ff" stroke="#63b8ff" points="144.35,-54.34 153.67,-49.3 143.24,-47.43 144.35,-54.34"/>
</a>
</g>
</g>
<!-- Node3 -->
<g id="Node000003" class="node">
<title>Node3</title>
<g id="a_Node000003"><a xlink:href="class_t_m_c2160_stepper.html#a5a7e05fecd47e292b496f9c07d2e7d7d" target="_top" xlink:title=" ">
<polygon fill="white" stroke="#666666" points="119.5,-30.5 0,-30.5 0,0 119.5,0 119.5,-30.5"/>
<text text-anchor="start" x="8" y="-17" font-family="Helvetica,sans-Serif" font-size="10.00">TMC2160Stepper::pwm</text>
<text text-anchor="middle" x="59.75" y="-5.75" font-family="Helvetica,sans-Serif" font-size="10.00">_scale_sum</text>
</a>
</g>
</g>
<!-- Node1&#45;&gt;Node3 -->
<g id="edge2_Node000001_Node000003" class="edge">
<title>Node1&#45;&gt;Node3</title>
<g id="a_edge2_Node000001_Node000003"><a xlink:title=" ">
<path fill="none" stroke="#63b8ff" d="M143.84,-28.09C135.78,-26.84 127.63,-25.58 119.76,-24.36"/>
<polygon fill="#63b8ff" stroke="#63b8ff" points="143.25,-31.53 153.67,-29.6 144.32,-24.62 143.25,-31.53"/>
</a>
</g>
</g>
</g>
</svg>
