<?xml version="1.0" encoding="UTF-8" standalone="no"?>
<!DOCTYPE svg PUBLIC "-//W3C//DTD SVG 1.1//EN"
 "http://www.w3.org/Graphics/SVG/1.1/DTD/svg11.dtd">
<!-- Generated by graphviz version 12.2.1 (20241206.2353)
 -->
<!-- Title: TMC2660Stepper::hstrt Pages: 1 -->
<svg width="306pt" height="88pt"
 viewBox="0.00 0.00 305.50 87.50" xmlns="http://www.w3.org/2000/svg" xmlns:xlink="http://www.w3.org/1999/xlink">
<g id="graph0" class="graph" transform="scale(1 1) rotate(0) translate(4 83.5)">
<title>TMC2660Stepper::hstrt</title>
<!-- Node1 -->
<g id="Node000001" class="node">
<title>Node1</title>
<g id="a_Node000001"><a xlink:title=" ">
<polygon fill="#999999" stroke="#666666" points="297.5,-48.88 179.5,-48.88 179.5,-29.62 297.5,-29.62 297.5,-48.88"/>
<text text-anchor="middle" x="238.5" y="-35.38" font-family="Helvetica,sans-Serif" font-size="10.00">TMC2660Stepper::hstrt</text>
</a>
</g>
</g>
<!-- Node2 -->
<g id="Node000002" class="node">
<title>Node2</title>
<g id="a_Node000002"><a xlink:href="class_t_m_c2660_stepper.html#a1efc58c38765c794f36d9a4f09b99524" target="_top" xlink:title=" ">
<polygon fill="white" stroke="#666666" points="143.5,-79.5 0,-79.5 0,-49 143.5,-49 143.5,-79.5"/>
<text text-anchor="start" x="8" y="-66" font-family="Helvetica,sans-Serif" font-size="10.00">TMC2660Stepper::hysteresis</text>
<text text-anchor="middle" x="71.75" y="-54.75" font-family="Helvetica,sans-Serif" font-size="10.00">_start</text>
</a>
</g>
</g>
<!-- Node1&#45;&gt;Node2 -->
<g id="edge1_Node000001_Node000002" class="edge">
<title>Node1&#45;&gt;Node2</title>
<g id="a_edge1_Node000001_Node000002"><a xlink:title=" ">
<path fill="none" stroke="#63b8ff" d="M168.2,-49.77C160.16,-50.99 151.95,-52.23 143.89,-53.46"/>
<polygon fill="#63b8ff" stroke="#63b8ff" points="168.56,-53.25 177.92,-48.29 167.51,-46.33 168.56,-53.25"/>
</a>
</g>
</g>
<!-- Node3 -->
<g id="Node000003" class="node">
<title>Node3</title>
<g id="a_Node000003"><a xlink:href="class_t_m_c2660_stepper.html#a6e08c12edd0a4524d0b63eb662a36d5d" target="_top" xlink:title=" ">
<polygon fill="white" stroke="#666666" points="143.5,-30.5 0,-30.5 0,0 143.5,0 143.5,-30.5"/>
<text text-anchor="start" x="8" y="-17" font-family="Helvetica,sans-Serif" font-size="10.00">TMC2660Stepper::hysteresis</text>
<text text-anchor="middle" x="71.75" y="-5.75" font-family="Helvetica,sans-Serif" font-size="10.00">_start</text>
</a>
</g>
</g>
<!-- Node1&#45;&gt;Node3 -->
<g id="edge2_Node000001_Node000003" class="edge">
<title>Node1&#45;&gt;Node3</title>
<g id="a_edge2_Node000001_Node000003"><a xlink:title=" ">
<path fill="none" stroke="#63b8ff" d="M168.2,-29.15C160.16,-27.98 151.95,-26.79 143.89,-25.61"/>
<polygon fill="#63b8ff" stroke="#63b8ff" points="167.52,-32.59 177.92,-30.57 168.53,-25.67 167.52,-32.59"/>
</a>
</g>
</g>
</g>
</svg>
