<?xml version="1.0" encoding="UTF-8" standalone="no"?>
<!DOCTYPE svg PUBLIC "-//W3C//DTD SVG 1.1//EN"
 "http://www.w3.org/Graphics/SVG/1.1/DTD/svg11.dtd">
<!-- Generated by graphviz version 12.2.1 (20241206.2353)
 -->
<!-- Title: TMC2130Stepper::GCONF Pages: 1 -->
<svg width="458pt" height="224pt"
 viewBox="0.00 0.00 458.00 224.25" xmlns="http://www.w3.org/2000/svg" xmlns:xlink="http://www.w3.org/1999/xlink">

<svg id="main" version="1.1" xmlns="http://www.w3.org/2000/svg" xmlns:xlink="http://www.w3.org/1999/xlink" xml:space="preserve">

<style type="text/css"><![CDATA[
.node, .edge {opacity: 0.7;}
.node.selected, .edge.selected {opacity: 1;}
.edge:hover path { stroke: red; }
.edge:hover polygon { stroke: red; fill: red; }
]]></style>
<script type="application/ecmascript" xlink:href="svg.min.js"/>
<svg id="graph" class="graph">
<g id="graph0" class="graph" transform="scale(1 1) rotate(0) translate(4 220.25)">
<title>TMC2130Stepper::GCONF</title>
<!-- Node1 -->
<g id="Node000001" class="node">
<title>Node1</title>
<g id="a_Node000001"><a xlink:title=" ">
<polygon fill="#999999" stroke="#666666" points="450,-111.25 315.5,-111.25 315.5,-92 450,-92 450,-111.25"/>
<text text-anchor="middle" x="382.75" y="-97.75" font-family="Helvetica,sans-Serif" font-size="10.00">TMC2130Stepper::GCONF</text>
</a>
</g>
</g>
<!-- Node2 -->
<g id="Node000002" class="node">
<title>Node2</title>
<g id="a_Node000002"><a xlink:href="class_t_m_c2160_stepper.html#a7ee48b042245ef5b3968b82029d1404c" target="_top" xlink:title=" ">
<polygon fill="white" stroke="#666666" points="279.5,-216.25 157.75,-216.25 157.75,-197 279.5,-197 279.5,-216.25"/>
<text text-anchor="middle" x="218.62" y="-202.75" font-family="Helvetica,sans-Serif" font-size="10.00">TMC2160Stepper::begin</text>
</a>
</g>
</g>
<!-- Node1&#45;&gt;Node2 -->
<g id="edge1_Node000001_Node000002" class="edge">
<title>Node1&#45;&gt;Node2</title>
<g id="a_edge1_Node000001_Node000002"><a xlink:title=" ">
<path fill="none" stroke="#63b8ff" d="M364.54,-119.85C345.42,-139.13 312.83,-169.27 279.5,-187.62 273.1,-191.15 265.95,-194.13 258.88,-196.61"/>
<polygon fill="#63b8ff" stroke="#63b8ff" points="367.05,-122.29 371.51,-112.67 362.03,-117.41 367.05,-122.29"/>
</a>
</g>
</g>
<!-- Node4 -->
<g id="Node000004" class="node">
<title>Node4</title>
<g id="a_Node000004"><a xlink:href="class_t_m_c2130_stepper.html#a095a38588e48e0387312d689b73ffb80" target="_top" xlink:title=" ">
<polygon fill="white" stroke="#666666" points="277.62,-178.88 159.62,-178.88 159.62,-148.38 277.62,-148.38 277.62,-178.88"/>
<text text-anchor="start" x="167.62" y="-165.38" font-family="Helvetica,sans-Serif" font-size="10.00">TMC2130Stepper::INIT</text>
<text text-anchor="middle" x="218.62" y="-154.12" font-family="Helvetica,sans-Serif" font-size="10.00">_REGISTER</text>
</a>
</g>
</g>
<!-- Node1&#45;&gt;Node4 -->
<g id="edge3_Node000001_Node000004" class="edge">
<title>Node1&#45;&gt;Node4</title>
<g id="a_edge3_Node000001_Node000004"><a xlink:title=" ">
<path fill="none" stroke="#63b8ff" d="M344.79,-115.76C319.7,-125.36 286.51,-138.05 260.61,-147.95"/>
<polygon fill="#63b8ff" stroke="#63b8ff" points="345.84,-119.11 353.93,-112.26 343.34,-112.57 345.84,-119.11"/>
</a>
</g>
</g>
<!-- Node5 -->
<g id="Node000005" class="node">
<title>Node5</title>
<g id="a_Node000005"><a xlink:href="class_t_m_c2130_stepper.html#ac62d32ad08be0a34b411bdd5a8489246" target="_top" xlink:title=" ">
<polygon fill="white" stroke="#666666" points="278.38,-130.25 158.88,-130.25 158.88,-111 278.38,-111 278.38,-130.25"/>
<text text-anchor="middle" x="218.62" y="-116.75" font-family="Helvetica,sans-Serif" font-size="10.00">TMC2130Stepper::push</text>
</a>
</g>
</g>
<!-- Node1&#45;&gt;Node5 -->
<g id="edge4_Node000001_Node000005" class="edge">
<title>Node1&#45;&gt;Node5</title>
<g id="a_edge4_Node000001_Node000005"><a xlink:title=" ">
<path fill="none" stroke="#63b8ff" d="M304.13,-110.72C295.56,-111.73 286.94,-112.74 278.65,-113.71"/>
<polygon fill="#63b8ff" stroke="#63b8ff" points="304.31,-114.22 313.84,-109.58 303.5,-107.27 304.31,-114.22"/>
</a>
</g>
</g>
<!-- Node6 -->
<g id="Node000006" class="node">
<title>Node6</title>
<g id="a_Node000006"><a xlink:href="class_t_m_c2160_stepper.html#ae8035a0cb8151d5227d8528e540e637d" target="_top" xlink:title=" ">
<polygon fill="white" stroke="#666666" points="278.38,-93.25 158.88,-93.25 158.88,-74 278.38,-74 278.38,-93.25"/>
<text text-anchor="middle" x="218.62" y="-79.75" font-family="Helvetica,sans-Serif" font-size="10.00">TMC2160Stepper::push</text>
</a>
</g>
</g>
<!-- Node1&#45;&gt;Node6 -->
<g id="edge5_Node000001_Node000006" class="edge">
<title>Node1&#45;&gt;Node6</title>
<g id="a_edge5_Node000001_Node000006"><a xlink:title=" ">
<path fill="none" stroke="#63b8ff" d="M304.13,-93.01C295.56,-92.06 286.94,-91.1 278.65,-90.18"/>
<polygon fill="#63b8ff" stroke="#63b8ff" points="303.51,-96.46 313.84,-94.08 304.28,-89.5 303.51,-96.46"/>
</a>
</g>
</g>
<!-- Node7 -->
<g id="Node000007" class="node">
<title>Node7</title>
<g id="a_Node000007"><a xlink:href="class_t_m_c5130_stepper.html#a55e61f5181d74f26c9d35c54e4436d7a" target="_top" xlink:title=" ">
<polygon fill="white" stroke="#666666" points="278.38,-56.25 158.88,-56.25 158.88,-37 278.38,-37 278.38,-56.25"/>
<text text-anchor="middle" x="218.62" y="-42.75" font-family="Helvetica,sans-Serif" font-size="10.00">TMC5130Stepper::push</text>
</a>
</g>
</g>
<!-- Node1&#45;&gt;Node7 -->
<g id="edge6_Node000001_Node000007" class="edge">
<title>Node1&#45;&gt;Node7</title>
<g id="a_edge6_Node000001_Node000007"><a xlink:title=" ">
<path fill="none" stroke="#63b8ff" d="M344.63,-87.63C325.3,-80.49 301.22,-71.81 279.5,-64.62 271.36,-61.93 262.54,-59.19 254.24,-56.68"/>
<polygon fill="#63b8ff" stroke="#63b8ff" points="343.4,-90.91 353.99,-91.11 345.83,-84.35 343.4,-90.91"/>
</a>
</g>
</g>
<!-- Node8 -->
<g id="Node000008" class="node">
<title>Node8</title>
<g id="a_Node000008"><a xlink:href="class_t_m_c5160_stepper.html#a5a12974304588f9d01898d91ba854b87" target="_top" xlink:title=" ">
<polygon fill="white" stroke="#666666" points="278.38,-19.25 158.88,-19.25 158.88,0 278.38,0 278.38,-19.25"/>
<text text-anchor="middle" x="218.62" y="-5.75" font-family="Helvetica,sans-Serif" font-size="10.00">TMC5160Stepper::push</text>
</a>
</g>
</g>
<!-- Node1&#45;&gt;Node8 -->
<g id="edge7_Node000001_Node000008" class="edge">
<title>Node1&#45;&gt;Node8</title>
<g id="a_edge7_Node000001_Node000008"><a xlink:title=" ">
<path fill="none" stroke="#63b8ff" d="M361.96,-84.18C342.26,-67.6 310.56,-42.98 279.5,-27.62 273.37,-24.59 266.63,-21.96 259.95,-19.72"/>
<polygon fill="#63b8ff" stroke="#63b8ff" points="359.59,-86.76 369.46,-90.61 364.15,-81.45 359.59,-86.76"/>
</a>
</g>
</g>
<!-- Node3 -->
<g id="Node000003" class="node">
<title>Node3</title>
<g id="a_Node000003"><a xlink:href="class_t_m_c5130_stepper.html#a897212f81817cdaee4536d642badc149" target="_top" xlink:title=" ">
<polygon fill="white" stroke="#666666" points="121.75,-216.25 0,-216.25 0,-197 121.75,-197 121.75,-216.25"/>
<text text-anchor="middle" x="60.88" y="-202.75" font-family="Helvetica,sans-Serif" font-size="10.00">TMC5130Stepper::begin</text>
</a>
</g>
</g>
<!-- Node2&#45;&gt;Node3 -->
<g id="edge2_Node000002_Node000003" class="edge">
<title>Node2&#45;&gt;Node3</title>
<g id="a_edge2_Node000002_Node000003"><a xlink:title=" ">
<path fill="none" stroke="#63b8ff" d="M146.17,-206.62C138.15,-206.62 130.05,-206.62 122.19,-206.62"/>
<polygon fill="#63b8ff" stroke="#63b8ff" points="145.89,-210.13 155.89,-206.63 145.89,-203.13 145.89,-210.13"/>
</a>
</g>
</g>
</g>
</svg>
</svg>

<style type='text/css'>
<![CDATA[
[data-mouse-over-selected='false'] { opacity: 0.7; }
[data-mouse-over-selected='true']  { opacity: 1.0; }
]]>
</style>
<script type="application/ecmascript"><![CDATA[
document.addEventListener('DOMContentLoaded', (event) => {
  highlightEdges();
  highlightAdjacentNodes();
});
]]></script>
</svg>
