<?xml version="1.0" encoding="UTF-8" standalone="no"?>
<!DOCTYPE svg PUBLIC "-//W3C//DTD SVG 1.1//EN"
 "http://www.w3.org/Graphics/SVG/1.1/DTD/svg11.dtd">
<!-- Generated by graphviz version 12.2.1 (20241206.2353)
 -->
<!-- Title: TMC2208Stepper::PWMCONF Pages: 1 -->
<svg width="734pt" height="187pt"
 viewBox="0.00 0.00 734.25 187.25" xmlns="http://www.w3.org/2000/svg" xmlns:xlink="http://www.w3.org/1999/xlink">
<g id="graph0" class="graph" transform="scale(1 1) rotate(0) translate(4 183.25)">
<title>TMC2208Stepper::PWMCONF</title>
<!-- Node1 -->
<g id="Node000001" class="node">
<title>Node1</title>
<g id="a_Node000001"><a xlink:title=" ">
<polygon fill="#999999" stroke="#666666" points="151.75,-83.25 0,-83.25 0,-64 151.75,-64 151.75,-83.25"/>
<text text-anchor="middle" x="75.88" y="-69.75" font-family="Helvetica,sans-Serif" font-size="10.00">TMC2208Stepper::PWMCONF</text>
</a>
</g>
</g>
<!-- Node2 -->
<g id="Node000002" class="node">
<title>Node2</title>
<g id="a_Node000002"><a xlink:href="class_t_m_c2208_stepper.html#a2fae2050849c3ab7968012def8ea1cc5" target="_top" xlink:title=" ">
<polygon fill="white" stroke="#666666" points="305,-83.25 187.75,-83.25 187.75,-64 305,-64 305,-83.25"/>
<text text-anchor="middle" x="246.38" y="-69.75" font-family="Helvetica,sans-Serif" font-size="10.00">TMC2208Stepper::read</text>
</a>
</g>
</g>
<!-- Node1&#45;&gt;Node2 -->
<g id="edge1_Node000001_Node000002" class="edge">
<title>Node1&#45;&gt;Node2</title>
<g id="a_edge1_Node000001_Node000002"><a xlink:title=" ">
<path fill="none" stroke="#63b8ff" d="M151.76,-73.62C159.79,-73.62 167.94,-73.62 175.9,-73.62"/>
<polygon fill="#63b8ff" stroke="#63b8ff" points="175.9,-77.13 185.9,-73.63 175.9,-70.13 175.9,-77.13"/>
</a>
</g>
</g>
<!-- Node3 -->
<g id="Node000003" class="node">
<title>Node3</title>
<g id="a_Node000003"><a xlink:href="class_t_m_c2208_stepper.html#a321ad81155b7a20c0858920d32d0b074" target="_top" xlink:title=" ">
<polygon fill="white" stroke="#666666" points="526.5,-142.25 359,-142.25 359,-123 526.5,-123 526.5,-142.25"/>
<text text-anchor="middle" x="442.75" y="-128.75" font-family="Helvetica,sans-Serif" font-size="10.00">TMC2208Stepper::_sendDatagram</text>
</a>
</g>
</g>
<!-- Node2&#45;&gt;Node3 -->
<g id="edge2_Node000002_Node000003" class="edge">
<title>Node2&#45;&gt;Node3</title>
<g id="a_edge2_Node000002_Node000003"><a xlink:title=" ">
<path fill="none" stroke="#63b8ff" d="M266.59,-83.65C285.17,-92.94 314.34,-106.53 341,-114.62 347.64,-116.64 354.6,-118.46 361.62,-120.1"/>
<polygon fill="#63b8ff" stroke="#63b8ff" points="360.68,-123.47 371.2,-122.2 362.18,-116.64 360.68,-123.47"/>
</a>
</g>
</g>
<!-- Node7 -->
<g id="Node000007" class="node">
<title>Node7</title>
<g id="a_Node000007"><a xlink:href="class_t_m_c2208_stepper.html#a409c19fa6b052a370a317d061bf9af4e" target="_top" xlink:title=" ">
<polygon fill="white" stroke="#666666" points="512.25,-105.25 373.25,-105.25 373.25,-86 512.25,-86 512.25,-105.25"/>
<text text-anchor="middle" x="442.75" y="-91.75" font-family="Helvetica,sans-Serif" font-size="10.00">TMC2208Stepper::calcCRC</text>
</a>
</g>
</g>
<!-- Node2&#45;&gt;Node7 -->
<g id="edge6_Node000002_Node000007" class="edge">
<title>Node2&#45;&gt;Node7</title>
<g id="a_edge6_Node000002_Node000007"><a xlink:title=" ">
<path fill="none" stroke="#63b8ff" d="M305.43,-80.2C323.12,-82.2 342.87,-84.43 361.74,-86.57"/>
<polygon fill="#63b8ff" stroke="#63b8ff" points="361.2,-90.03 371.53,-87.68 361.99,-83.07 361.2,-90.03"/>
</a>
</g>
</g>
<!-- Node8 -->
<g id="Node000008" class="node">
<title>Node8</title>
<g id="a_Node000008"><a xlink:href="class_t_m_c2208_stepper.html#ab3d186b27f45ec47c1cf0bf15ed4cd2e" target="_top" xlink:title=" ">
<polygon fill="white" stroke="#666666" points="513,-67.88 372.5,-67.88 372.5,-37.38 513,-37.38 513,-67.88"/>
<text text-anchor="start" x="380.5" y="-54.38" font-family="Helvetica,sans-Serif" font-size="10.00">TMC2208Stepper::postRead</text>
<text text-anchor="middle" x="442.75" y="-43.12" font-family="Helvetica,sans-Serif" font-size="10.00">Communication</text>
</a>
</g>
</g>
<!-- Node2&#45;&gt;Node8 -->
<g id="edge7_Node000002_Node000008" class="edge">
<title>Node2&#45;&gt;Node8</title>
<g id="a_edge7_Node000002_Node000008"><a xlink:title=" ">
<path fill="none" stroke="#63b8ff" d="M305.43,-67.35C322.93,-65.46 342.46,-63.35 361.15,-61.33"/>
<polygon fill="#63b8ff" stroke="#63b8ff" points="361.27,-64.84 370.83,-60.29 360.51,-57.88 361.27,-64.84"/>
</a>
</g>
</g>
<!-- Node9 -->
<g id="Node000009" class="node">
<title>Node9</title>
<g id="a_Node000009"><a xlink:href="class_t_m_c2208_stepper.html#a8c4f3ce4a964c9a03a1e14f47bf5bec3" target="_top" xlink:title=" ">
<polygon fill="white" stroke="#666666" points="544.5,-19.25 341,-19.25 341,0 544.5,0 544.5,-19.25"/>
<text text-anchor="middle" x="442.75" y="-5.75" font-family="Helvetica,sans-Serif" font-size="10.00">TMC2208Stepper::preReadCommunication</text>
</a>
</g>
</g>
<!-- Node2&#45;&gt;Node9 -->
<g id="edge8_Node000002_Node000009" class="edge">
<title>Node2&#45;&gt;Node9</title>
<g id="a_edge8_Node000002_Node000009"><a xlink:title=" ">
<path fill="none" stroke="#63b8ff" d="M264.75,-63.57C283.12,-53.34 313.24,-37.74 341,-28.62 348.3,-26.23 356,-24.1 363.76,-22.22"/>
<polygon fill="#63b8ff" stroke="#63b8ff" points="364.29,-25.69 373.26,-20.05 362.73,-18.86 364.29,-25.69"/>
</a>
</g>
</g>
<!-- Node4 -->
<g id="Node000004" class="node">
<title>Node4</title>
<g id="a_Node000004"><a xlink:href="class_t_m_c2208_stepper.html#aef33fe13c1d9c19e9ec9abc159147a5d" target="_top" xlink:title=" ">
<polygon fill="white" stroke="#666666" points="721.75,-179.25 585,-179.25 585,-160 721.75,-160 721.75,-179.25"/>
<text text-anchor="middle" x="653.38" y="-165.75" font-family="Helvetica,sans-Serif" font-size="10.00">TMC2208Stepper::available</text>
</a>
</g>
</g>
<!-- Node3&#45;&gt;Node4 -->
<g id="edge3_Node000003_Node000004" class="edge">
<title>Node3&#45;&gt;Node4</title>
<g id="a_edge3_Node000003_Node000004"><a xlink:title=" ">
<path fill="none" stroke="#63b8ff" d="M500.76,-142.74C526.52,-147.3 557.16,-152.74 584.13,-157.52"/>
<polygon fill="#63b8ff" stroke="#63b8ff" points="583.49,-160.96 593.95,-159.26 584.71,-154.07 583.49,-160.96"/>
</a>
</g>
</g>
<!-- Node5 -->
<g id="Node000005" class="node">
<title>Node5</title>
<g id="a_Node000005"><a xlink:href="class_t_m_c2208_stepper.html#a8214f87693050e222fc24be979f468e2" target="_top" xlink:title=" ">
<polygon fill="white" stroke="#666666" points="726.25,-142.25 580.5,-142.25 580.5,-123 726.25,-123 726.25,-142.25"/>
<text text-anchor="middle" x="653.38" y="-128.75" font-family="Helvetica,sans-Serif" font-size="10.00">TMC2208Stepper::serial_read</text>
</a>
</g>
</g>
<!-- Node3&#45;&gt;Node5 -->
<g id="edge4_Node000003_Node000005" class="edge">
<title>Node3&#45;&gt;Node5</title>
<g id="a_edge4_Node000003_Node000005"><a xlink:title=" ">
<path fill="none" stroke="#63b8ff" d="M526.8,-132.62C540.56,-132.62 554.84,-132.62 568.62,-132.62"/>
<polygon fill="#63b8ff" stroke="#63b8ff" points="568.54,-136.13 578.54,-132.63 568.54,-129.13 568.54,-136.13"/>
</a>
</g>
</g>
<!-- Node6 -->
<g id="Node000006" class="node">
<title>Node6</title>
<g id="a_Node000006"><a xlink:href="class_t_m_c2208_stepper.html#adb6243277ef84d2027b2b8bae6be5bd0" target="_top" xlink:title=" ">
<polygon fill="white" stroke="#666666" points="714.25,-104.88 592.5,-104.88 592.5,-74.38 714.25,-74.38 714.25,-104.88"/>
<text text-anchor="start" x="600.5" y="-91.38" font-family="Helvetica,sans-Serif" font-size="10.00">TMC2208Stepper::serial</text>
<text text-anchor="middle" x="653.38" y="-80.12" font-family="Helvetica,sans-Serif" font-size="10.00">_write</text>
</a>
</g>
</g>
<!-- Node3&#45;&gt;Node6 -->
<g id="edge5_Node000003_Node000006" class="edge">
<title>Node3&#45;&gt;Node6</title>
<g id="a_edge5_Node000003_Node000006"><a xlink:title=" ">
<path fill="none" stroke="#63b8ff" d="M503.25,-122.51C516.83,-120.06 531.18,-117.36 544.5,-114.62 556.32,-112.2 568.84,-109.46 580.99,-106.71"/>
<polygon fill="#63b8ff" stroke="#63b8ff" points="581.57,-110.16 590.54,-104.52 580.01,-103.34 581.57,-110.16"/>
</a>
</g>
</g>
</g>
</svg>
