<?xml version="1.0" encoding="UTF-8" standalone="no"?>
<!DOCTYPE svg PUBLIC "-//W3C//DTD SVG 1.1//EN"
 "http://www.w3.org/Graphics/SVG/1.1/DTD/svg11.dtd">
<!-- Generated by graphviz version 12.2.1 (20241206.2353)
 -->
<!-- Title: TMCStepper Pages: 1 -->
<svg width="323pt" height="304pt"
 viewBox="0.00 0.00 322.50 303.50" xmlns="http://www.w3.org/2000/svg" xmlns:xlink="http://www.w3.org/1999/xlink">
<g id="graph0" class="graph" transform="scale(1 1) rotate(0) translate(4 299.5)">
<title>TMCStepper</title>
<!-- Node1 -->
<g id="Node000001" class="node">
<title>Node1</title>
<g id="a_Node000001"><a xlink:title=" ">
<polygon fill="#999999" stroke="#666666" points="137,-295.5 65.5,-295.5 65.5,-276.25 137,-276.25 137,-295.5"/>
<text text-anchor="middle" x="101.25" y="-282" font-family="Helvetica,sans-Serif" font-size="10.00">TMCStepper</text>
</a>
</g>
</g>
<!-- Node2 -->
<g id="Node000002" class="node">
<title>Node2</title>
<g id="a_Node000002"><a xlink:href="class_t_m_c2130_stepper.html" target="_top" xlink:title=" ">
<polygon fill="white" stroke="#666666" points="92.5,-240.25 0,-240.25 0,-221 92.5,-221 92.5,-240.25"/>
<text text-anchor="middle" x="46.25" y="-226.75" font-family="Helvetica,sans-Serif" font-size="10.00">TMC2130Stepper</text>
</a>
</g>
</g>
<!-- Node1&#45;&gt;Node2 -->
<g id="edge1_Node000001_Node000002" class="edge">
<title>Node1&#45;&gt;Node2</title>
<g id="a_edge1_Node000001_Node000002"><a xlink:title=" ">
<path fill="none" stroke="#63b8ff" d="M83.9,-268.07C74.5,-258.98 63.27,-248.1 55.53,-240.61"/>
<polygon fill="#63b8ff" stroke="#63b8ff" points="81.46,-270.59 91.08,-275.03 86.33,-265.56 81.46,-270.59"/>
</a>
</g>
</g>
<!-- Node7 -->
<g id="Node000007" class="node">
<title>Node7</title>
<g id="a_Node000007"><a xlink:href="class_t_m_c2208_stepper.html" target="_top" xlink:title=" ">
<polygon fill="white" stroke="#666666" points="203.5,-240.25 111,-240.25 111,-221 203.5,-221 203.5,-240.25"/>
<text text-anchor="middle" x="157.25" y="-226.75" font-family="Helvetica,sans-Serif" font-size="10.00">TMC2208Stepper</text>
</a>
</g>
</g>
<!-- Node1&#45;&gt;Node7 -->
<g id="edge6_Node000001_Node000007" class="edge">
<title>Node1&#45;&gt;Node7</title>
<g id="a_edge6_Node000001_Node000007"><a xlink:title=" ">
<path fill="none" stroke="#63b8ff" d="M118.88,-268.11C128.49,-258.97 140,-248.03 147.89,-240.52"/>
<polygon fill="#63b8ff" stroke="#63b8ff" points="116.68,-265.37 111.85,-274.8 121.51,-270.44 116.68,-265.37"/>
</a>
</g>
</g>
<!-- Node3 -->
<g id="Node000003" class="node">
<title>Node3</title>
<g id="a_Node000003"><a xlink:href="class_t_m_c2160_stepper.html" target="_top" xlink:title=" ">
<polygon fill="white" stroke="#666666" points="92.5,-185 0,-185 0,-165.75 92.5,-165.75 92.5,-185"/>
<text text-anchor="middle" x="46.25" y="-171.5" font-family="Helvetica,sans-Serif" font-size="10.00">TMC2160Stepper</text>
</a>
</g>
</g>
<!-- Node2&#45;&gt;Node3 -->
<g id="edge2_Node000002_Node000003" class="edge">
<title>Node2&#45;&gt;Node3</title>
<g id="a_edge2_Node000002_Node000003"><a xlink:title=" ">
<path fill="none" stroke="#63b8ff" d="M46.25,-209.38C46.25,-201.09 46.25,-191.92 46.25,-185.36"/>
<polygon fill="#63b8ff" stroke="#63b8ff" points="42.75,-209.32 46.25,-219.32 49.75,-209.32 42.75,-209.32"/>
</a>
</g>
</g>
<!-- Node4 -->
<g id="Node000004" class="node">
<title>Node4</title>
<g id="a_Node000004"><a xlink:href="class_t_m_c5130_stepper.html" target="_top" xlink:title=" ">
<polygon fill="white" stroke="#666666" points="92.5,-129.75 0,-129.75 0,-110.5 92.5,-110.5 92.5,-129.75"/>
<text text-anchor="middle" x="46.25" y="-116.25" font-family="Helvetica,sans-Serif" font-size="10.00">TMC5130Stepper</text>
</a>
</g>
</g>
<!-- Node3&#45;&gt;Node4 -->
<g id="edge3_Node000003_Node000004" class="edge">
<title>Node3&#45;&gt;Node4</title>
<g id="a_edge3_Node000003_Node000004"><a xlink:title=" ">
<path fill="none" stroke="#63b8ff" d="M46.25,-154.13C46.25,-145.84 46.25,-136.67 46.25,-130.11"/>
<polygon fill="#63b8ff" stroke="#63b8ff" points="42.75,-154.07 46.25,-164.07 49.75,-154.07 42.75,-154.07"/>
</a>
</g>
</g>
<!-- Node5 -->
<g id="Node000005" class="node">
<title>Node5</title>
<g id="a_Node000005"><a xlink:href="class_t_m_c5160_stepper.html" target="_top" xlink:title=" ">
<polygon fill="white" stroke="#666666" points="92.5,-74.5 0,-74.5 0,-55.25 92.5,-55.25 92.5,-74.5"/>
<text text-anchor="middle" x="46.25" y="-61" font-family="Helvetica,sans-Serif" font-size="10.00">TMC5160Stepper</text>
</a>
</g>
</g>
<!-- Node4&#45;&gt;Node5 -->
<g id="edge4_Node000004_Node000005" class="edge">
<title>Node4&#45;&gt;Node5</title>
<g id="a_edge4_Node000004_Node000005"><a xlink:title=" ">
<path fill="none" stroke="#63b8ff" d="M46.25,-98.88C46.25,-90.59 46.25,-81.42 46.25,-74.86"/>
<polygon fill="#63b8ff" stroke="#63b8ff" points="42.75,-98.82 46.25,-108.82 49.75,-98.82 42.75,-98.82"/>
</a>
</g>
</g>
<!-- Node6 -->
<g id="Node000006" class="node">
<title>Node6</title>
<g id="a_Node000006"><a xlink:href="class_t_m_c5161_stepper.html" target="_top" xlink:title=" ">
<polygon fill="white" stroke="#666666" points="92.5,-19.25 0,-19.25 0,0 92.5,0 92.5,-19.25"/>
<text text-anchor="middle" x="46.25" y="-5.75" font-family="Helvetica,sans-Serif" font-size="10.00">TMC5161Stepper</text>
</a>
</g>
</g>
<!-- Node5&#45;&gt;Node6 -->
<g id="edge5_Node000005_Node000006" class="edge">
<title>Node5&#45;&gt;Node6</title>
<g id="a_edge5_Node000005_Node000006"><a xlink:title=" ">
<path fill="none" stroke="#63b8ff" d="M46.25,-43.63C46.25,-35.34 46.25,-26.17 46.25,-19.61"/>
<polygon fill="#63b8ff" stroke="#63b8ff" points="42.75,-43.57 46.25,-53.57 49.75,-43.57 42.75,-43.57"/>
</a>
</g>
</g>
<!-- Node8 -->
<g id="Node000008" class="node">
<title>Node8</title>
<g id="a_Node000008"><a xlink:href="class_t_m_c2209_stepper.html" target="_top" xlink:title=" ">
<polygon fill="white" stroke="#666666" points="203.5,-185 111,-185 111,-165.75 203.5,-165.75 203.5,-185"/>
<text text-anchor="middle" x="157.25" y="-171.5" font-family="Helvetica,sans-Serif" font-size="10.00">TMC2209Stepper</text>
</a>
</g>
</g>
<!-- Node7&#45;&gt;Node8 -->
<g id="edge7_Node000007_Node000008" class="edge">
<title>Node7&#45;&gt;Node8</title>
<g id="a_edge7_Node000007_Node000008"><a xlink:title=" ">
<path fill="none" stroke="#63b8ff" d="M157.25,-209.38C157.25,-201.09 157.25,-191.92 157.25,-185.36"/>
<polygon fill="#63b8ff" stroke="#63b8ff" points="153.75,-209.32 157.25,-219.32 160.75,-209.32 153.75,-209.32"/>
</a>
</g>
</g>
<!-- Node9 -->
<g id="Node000009" class="node">
<title>Node9</title>
<g id="a_Node000009"><a xlink:href="class_t_m_c2224_stepper.html" target="_top" xlink:title=" ">
<polygon fill="white" stroke="#666666" points="314.5,-185 222,-185 222,-165.75 314.5,-165.75 314.5,-185"/>
<text text-anchor="middle" x="268.25" y="-171.5" font-family="Helvetica,sans-Serif" font-size="10.00">TMC2224Stepper</text>
</a>
</g>
</g>
<!-- Node7&#45;&gt;Node9 -->
<g id="edge8_Node000007_Node000009" class="edge">
<title>Node7&#45;&gt;Node9</title>
<g id="a_edge8_Node000007_Node000009"><a xlink:title=" ">
<path fill="none" stroke="#63b8ff" d="M186.43,-215.62C206.32,-206.08 232.08,-193.73 249.33,-185.45"/>
<polygon fill="#63b8ff" stroke="#63b8ff" points="184.95,-212.46 177.44,-219.94 187.97,-218.77 184.95,-212.46"/>
</a>
</g>
</g>
</g>
</svg>
