<?xml version="1.0" encoding="UTF-8" standalone="no"?>
<!DOCTYPE svg PUBLIC "-//W3C//DTD SVG 1.1//EN"
 "http://www.w3.org/Graphics/SVG/1.1/DTD/svg11.dtd">
<!-- Generated by graphviz version 12.2.1 (20241206.2353)
 -->
<!-- Title: TMC2208Stepper::INIT2208_REGISTER Pages: 1 -->
<svg width="649pt" height="174pt"
 viewBox="0.00 0.00 648.75 173.88" xmlns="http://www.w3.org/2000/svg" xmlns:xlink="http://www.w3.org/1999/xlink">
<g id="graph0" class="graph" transform="scale(1 1) rotate(0) translate(4 169.88)">
<title>TMC2208Stepper::INIT2208_REGISTER</title>
<!-- Node1 -->
<g id="Node000001" class="node">
<title>Node1</title>
<g id="a_Node000001"><a xlink:title=" ">
<polygon fill="#999999" stroke="#666666" points="139,-103.5 0,-103.5 0,-73 139,-73 139,-103.5"/>
<text text-anchor="start" x="8" y="-90" font-family="Helvetica,sans-Serif" font-size="10.00">TMC2208Stepper::INIT2208</text>
<text text-anchor="middle" x="69.5" y="-78.75" font-family="Helvetica,sans-Serif" font-size="10.00">_REGISTER</text>
</a>
</g>
</g>
<!-- Node2 -->
<g id="Node000002" class="node">
<title>Node2</title>
<g id="a_Node000002"><a xlink:href="class_t_m_c2208_stepper.html#a20d275e1dba5fe4ab75fc405b2f46281" target="_top" xlink:title=" ">
<polygon fill="white" stroke="#666666" points="309.5,-97.88 175,-97.88 175,-78.62 309.5,-78.62 309.5,-97.88"/>
<text text-anchor="middle" x="242.25" y="-84.38" font-family="Helvetica,sans-Serif" font-size="10.00">TMC2208Stepper::GCONF</text>
</a>
</g>
</g>
<!-- Node1&#45;&gt;Node2 -->
<g id="edge1_Node000001_Node000002" class="edge">
<title>Node1&#45;&gt;Node2</title>
<g id="a_edge1_Node000001_Node000002"><a xlink:title=" ">
<path fill="none" stroke="#63b8ff" d="M139.46,-88.25C147.23,-88.25 155.19,-88.25 163.07,-88.25"/>
<polygon fill="#63b8ff" stroke="#63b8ff" points="163.01,-91.75 173.01,-88.25 163.01,-84.75 163.01,-91.75"/>
</a>
</g>
</g>
<!-- Node3 -->
<g id="Node000003" class="node">
<title>Node3</title>
<g id="a_Node000003"><a xlink:href="class_t_m_c2208_stepper.html#a142b14de8a4dcc6cf76b4a6ede9e1cea" target="_top" xlink:title=" ">
<polygon fill="white" stroke="#666666" points="465,-97.88 345.5,-97.88 345.5,-78.62 465,-78.62 465,-97.88"/>
<text text-anchor="middle" x="405.25" y="-84.38" font-family="Helvetica,sans-Serif" font-size="10.00">TMC2208Stepper::write</text>
</a>
</g>
</g>
<!-- Node2&#45;&gt;Node3 -->
<g id="edge2_Node000002_Node000003" class="edge">
<title>Node2&#45;&gt;Node3</title>
<g id="a_edge2_Node000002_Node000003"><a xlink:title=" ">
<path fill="none" stroke="#63b8ff" d="M309.66,-88.25C317.67,-88.25 325.87,-88.25 333.93,-88.25"/>
<polygon fill="#63b8ff" stroke="#63b8ff" points="333.69,-91.75 343.69,-88.25 333.69,-84.75 333.69,-91.75"/>
</a>
</g>
</g>
<!-- Node4 -->
<g id="Node000004" class="node">
<title>Node4</title>
<g id="a_Node000004"><a xlink:href="class_t_m_c2208_stepper.html#a409c19fa6b052a370a317d061bf9af4e" target="_top" xlink:title=" ">
<polygon fill="white" stroke="#666666" points="640.38,-165.88 501.38,-165.88 501.38,-146.62 640.38,-146.62 640.38,-165.88"/>
<text text-anchor="middle" x="570.88" y="-152.38" font-family="Helvetica,sans-Serif" font-size="10.00">TMC2208Stepper::calcCRC</text>
</a>
</g>
</g>
<!-- Node3&#45;&gt;Node4 -->
<g id="edge3_Node000003_Node000004" class="edge">
<title>Node3&#45;&gt;Node4</title>
<g id="a_edge3_Node000003_Node000004"><a xlink:title=" ">
<path fill="none" stroke="#63b8ff" d="M422.87,-98.2C441.41,-108.97 472.55,-126.11 501,-137.25 506.21,-139.29 511.72,-141.2 517.26,-142.96"/>
<polygon fill="#63b8ff" stroke="#63b8ff" points="515.86,-146.2 526.45,-145.73 517.88,-139.5 515.86,-146.2"/>
</a>
</g>
</g>
<!-- Node5 -->
<g id="Node000005" class="node">
<title>Node5</title>
<g id="a_Node000005"><a xlink:href="class_t_m_c2208_stepper.html#a5147cab1658f782b36b0ce7e951d4f4e" target="_top" xlink:title=" ">
<polygon fill="white" stroke="#666666" points="640.75,-128.5 501,-128.5 501,-98 640.75,-98 640.75,-128.5"/>
<text text-anchor="start" x="509" y="-115" font-family="Helvetica,sans-Serif" font-size="10.00">TMC2208Stepper::postWrite</text>
<text text-anchor="middle" x="570.88" y="-103.75" font-family="Helvetica,sans-Serif" font-size="10.00">Communication</text>
</a>
</g>
</g>
<!-- Node3&#45;&gt;Node5 -->
<g id="edge4_Node000003_Node000005" class="edge">
<title>Node3&#45;&gt;Node5</title>
<g id="a_edge4_Node000003_Node000005"><a xlink:title=" ">
<path fill="none" stroke="#63b8ff" d="M465.32,-97.28C473.1,-98.46 481.17,-99.7 489.23,-100.93"/>
<polygon fill="#63b8ff" stroke="#63b8ff" points="488.68,-104.38 499.09,-102.43 489.73,-97.46 488.68,-104.38"/>
</a>
</g>
</g>
<!-- Node6 -->
<g id="Node000006" class="node">
<title>Node6</title>
<g id="a_Node000006"><a xlink:href="class_t_m_c2208_stepper.html#a66e4f8694ee035432af8b61f14b35a92" target="_top" xlink:title=" ">
<polygon fill="white" stroke="#666666" points="638.12,-79.5 503.62,-79.5 503.62,-49 638.12,-49 638.12,-79.5"/>
<text text-anchor="start" x="511.62" y="-66" font-family="Helvetica,sans-Serif" font-size="10.00">TMC2208Stepper::preWrite</text>
<text text-anchor="middle" x="570.88" y="-54.75" font-family="Helvetica,sans-Serif" font-size="10.00">Communication</text>
</a>
</g>
</g>
<!-- Node3&#45;&gt;Node6 -->
<g id="edge5_Node000003_Node000006" class="edge">
<title>Node3&#45;&gt;Node6</title>
<g id="a_edge5_Node000003_Node000006"><a xlink:title=" ">
<path fill="none" stroke="#63b8ff" d="M465.32,-79.59C474.01,-78.31 483.07,-76.98 492.07,-75.66"/>
<polygon fill="#63b8ff" stroke="#63b8ff" points="492.51,-79.13 501.9,-74.22 491.5,-72.21 492.51,-79.13"/>
</a>
</g>
</g>
<!-- Node7 -->
<g id="Node000007" class="node">
<title>Node7</title>
<g id="a_Node000007"><a xlink:href="class_t_m_c2208_stepper.html#adb6243277ef84d2027b2b8bae6be5bd0" target="_top" xlink:title=" ">
<polygon fill="white" stroke="#666666" points="631.75,-30.5 510,-30.5 510,0 631.75,0 631.75,-30.5"/>
<text text-anchor="start" x="518" y="-17" font-family="Helvetica,sans-Serif" font-size="10.00">TMC2208Stepper::serial</text>
<text text-anchor="middle" x="570.88" y="-5.75" font-family="Helvetica,sans-Serif" font-size="10.00">_write</text>
</a>
</g>
</g>
<!-- Node3&#45;&gt;Node7 -->
<g id="edge6_Node000003_Node000007" class="edge">
<title>Node3&#45;&gt;Node7</title>
<g id="a_edge6_Node000003_Node000007"><a xlink:title=" ">
<path fill="none" stroke="#63b8ff" d="M424.45,-78.2C443.3,-67.99 473.75,-52.04 501,-40.25 505.09,-38.48 509.34,-36.73 513.65,-35.02"/>
<polygon fill="#63b8ff" stroke="#63b8ff" points="514.89,-38.29 522.96,-31.43 512.37,-31.76 514.89,-38.29"/>
</a>
</g>
</g>
</g>
</svg>
