<?xml version="1.0" encoding="UTF-8" standalone="no"?>
<!DOCTYPE svg PUBLIC "-//W3C//DTD SVG 1.1//EN"
 "http://www.w3.org/Graphics/SVG/1.1/DTD/svg11.dtd">
<!-- Generated by graphviz version 12.2.1 (20241206.2353)
 -->
<!-- Title: TMC2208Stepper::pdn_disable Pages: 1 -->
<svg width="430pt" height="57pt"
 viewBox="0.00 0.00 430.25 56.50" xmlns="http://www.w3.org/2000/svg" xmlns:xlink="http://www.w3.org/1999/xlink">
<g id="graph0" class="graph" transform="scale(1 1) rotate(0) translate(4 52.5)">
<title>TMC2208Stepper::pdn_disable</title>
<!-- Node1 -->
<g id="Node000001" class="node">
<title>Node1</title>
<g id="a_Node000001"><a xlink:title=" ">
<polygon fill="#999999" stroke="#666666" points="422.25,-30.5 308,-30.5 308,0 422.25,0 422.25,-30.5"/>
<text text-anchor="start" x="316" y="-17" font-family="Helvetica,sans-Serif" font-size="10.00">TMC2208Stepper::pdn</text>
<text text-anchor="middle" x="365.12" y="-5.75" font-family="Helvetica,sans-Serif" font-size="10.00">_disable</text>
</a>
</g>
</g>
<!-- Node1&#45;&gt;Node1 -->
<g id="edge3_Node000001_Node000001" class="edge">
<title>Node1&#45;&gt;Node1</title>
<g id="a_edge3_Node000001_Node000001"><a xlink:title=" ">
<path fill="none" stroke="#63b8ff" d="M390.32,-42.2C386.2,-45.97 377.8,-48.5 365.12,-48.5 341.94,-48.5 333.07,-40.06 338.5,-30.99"/>
<polygon fill="#63b8ff" stroke="#63b8ff" points="393.77,-42.85 391.56,-32.49 386.82,-41.97 393.77,-42.85"/>
</a>
</g>
</g>
<!-- Node2 -->
<g id="Node000002" class="node">
<title>Node2</title>
<g id="a_Node000002"><a xlink:href="class_t_m_c2208_stepper.html#a9de4a150926f2875903be27063f00973" target="_top" xlink:title=" ">
<polygon fill="white" stroke="#666666" points="272,-30.5 157.75,-30.5 157.75,0 272,0 272,-30.5"/>
<text text-anchor="start" x="165.75" y="-17" font-family="Helvetica,sans-Serif" font-size="10.00">TMC2208Stepper::pdn</text>
<text text-anchor="middle" x="214.88" y="-5.75" font-family="Helvetica,sans-Serif" font-size="10.00">_disable</text>
</a>
</g>
</g>
<!-- Node1&#45;&gt;Node2 -->
<g id="edge1_Node000001_Node000002" class="edge">
<title>Node1&#45;&gt;Node2</title>
<g id="a_edge1_Node000001_Node000002"><a xlink:title=" ">
<path fill="none" stroke="#63b8ff" d="M296.34,-15.25C288.26,-15.25 280.08,-15.25 272.19,-15.25"/>
<polygon fill="#63b8ff" stroke="#63b8ff" points="296.14,-18.75 306.14,-15.25 296.14,-11.75 296.14,-18.75"/>
</a>
</g>
</g>
<!-- Node3 -->
<g id="Node000003" class="node">
<title>Node3</title>
<g id="a_Node000003"><a xlink:href="class_t_m_c2208_stepper.html#a974fa83e3bab04cd9f9a7b2d31ebd18e" target="_top" xlink:title=" ">
<polygon fill="white" stroke="#666666" points="121.75,-24.88 0,-24.88 0,-5.63 121.75,-5.63 121.75,-24.88"/>
<text text-anchor="middle" x="60.88" y="-11.38" font-family="Helvetica,sans-Serif" font-size="10.00">TMC2208Stepper::begin</text>
</a>
</g>
</g>
<!-- Node2&#45;&gt;Node3 -->
<g id="edge2_Node000002_Node000003" class="edge">
<title>Node2&#45;&gt;Node3</title>
<g id="a_edge2_Node000002_Node000003"><a xlink:title=" ">
<path fill="none" stroke="#63b8ff" d="M145.81,-15.25C137.9,-15.25 129.88,-15.25 122.09,-15.25"/>
<polygon fill="#63b8ff" stroke="#63b8ff" points="145.76,-18.75 155.76,-15.25 145.76,-11.75 145.76,-18.75"/>
</a>
</g>
</g>
</g>
</svg>
