<?xml version="1.0" encoding="UTF-8" standalone="no"?>
<!DOCTYPE svg PUBLIC "-//W3C//DTD SVG 1.1//EN"
 "http://www.w3.org/Graphics/SVG/1.1/DTD/svg11.dtd">
<!-- Generated by graphviz version 12.2.1 (20241206.2353)
 -->
<!-- Title: TMC5130Stepper::version Pages: 1 -->
<svg width="439pt" height="51pt"
 viewBox="0.00 0.00 438.50 50.88" xmlns="http://www.w3.org/2000/svg" xmlns:xlink="http://www.w3.org/1999/xlink">

<svg id="main" version="1.1" xmlns="http://www.w3.org/2000/svg" xmlns:xlink="http://www.w3.org/1999/xlink" xml:space="preserve">

<style type="text/css"><![CDATA[
.node, .edge {opacity: 0.7;}
.node.selected, .edge.selected {opacity: 1;}
.edge:hover path { stroke: red; }
.edge:hover polygon { stroke: red; fill: red; }
]]></style>
<script type="application/ecmascript" xlink:href="svg.min.js"/>
<svg id="graph" class="graph">
<g id="graph0" class="graph" transform="scale(1 1) rotate(0) translate(4 46.88)">
<title>TMC5130Stepper::version</title>
<!-- Node1 -->
<g id="Node000001" class="node">
<title>Node1</title>
<g id="a_Node000001"><a xlink:title=" ">
<polygon fill="#999999" stroke="#666666" points="430.5,-24.88 300.5,-24.88 300.5,-5.63 430.5,-5.63 430.5,-24.88"/>
<text text-anchor="middle" x="365.5" y="-11.38" font-family="Helvetica,sans-Serif" font-size="10.00">TMC5130Stepper::version</text>
</a>
</g>
</g>
<!-- Node1&#45;&gt;Node1 -->
<g id="edge3_Node000001_Node000001" class="edge">
<title>Node1&#45;&gt;Node1</title>
<g id="a_edge3_Node000001_Node000001"><a xlink:title=" ">
<path fill="none" stroke="#63b8ff" d="M393.85,-35.94C390.59,-39.99 381.13,-42.88 365.5,-42.88 337.7,-42.88 329.45,-33.77 340.74,-25.16"/>
<polygon fill="#63b8ff" stroke="#63b8ff" points="397.22,-34.98 390.73,-26.6 390.58,-37.19 397.22,-34.98"/>
</a>
</g>
</g>
<!-- Node2 -->
<g id="Node000002" class="node">
<title>Node2</title>
<g id="a_Node000002"><a xlink:href="class_t_m_c5160_stepper.html#adc1e0971a9d17880735d30fcb0eac342" target="_top" xlink:title=" ">
<polygon fill="white" stroke="#666666" points="264.5,-30.5 150.25,-30.5 150.25,0 264.5,0 264.5,-30.5"/>
<text text-anchor="start" x="158.25" y="-17" font-family="Helvetica,sans-Serif" font-size="10.00">TMC5160Stepper::enc</text>
<text text-anchor="middle" x="207.38" y="-5.75" font-family="Helvetica,sans-Serif" font-size="10.00">_n_dco</text>
</a>
</g>
</g>
<!-- Node1&#45;&gt;Node2 -->
<g id="edge1_Node000001_Node000002" class="edge">
<title>Node1&#45;&gt;Node2</title>
<g id="a_edge1_Node000001_Node000002"><a xlink:title=" ">
<path fill="none" stroke="#63b8ff" d="M288.7,-15.25C280.6,-15.25 272.47,-15.25 264.65,-15.25"/>
<polygon fill="#63b8ff" stroke="#63b8ff" points="288.58,-18.75 298.58,-15.25 288.58,-11.75 288.58,-18.75"/>
</a>
</g>
</g>
<!-- Node3 -->
<g id="Node000003" class="node">
<title>Node3</title>
<g id="a_Node000003"><a xlink:href="class_t_m_c5160_stepper.html#a9ed1c2641507fdd8a692495c5eb91297" target="_top" xlink:title=" ">
<polygon fill="white" stroke="#666666" points="114.25,-30.5 0,-30.5 0,0 114.25,0 114.25,-30.5"/>
<text text-anchor="start" x="8" y="-17" font-family="Helvetica,sans-Serif" font-size="10.00">TMC5160Stepper::enc</text>
<text text-anchor="middle" x="57.13" y="-5.75" font-family="Helvetica,sans-Serif" font-size="10.00">_n_dco_cfg6</text>
</a>
</g>
</g>
<!-- Node2&#45;&gt;Node3 -->
<g id="edge2_Node000002_Node000003" class="edge">
<title>Node2&#45;&gt;Node3</title>
<g id="a_edge2_Node000002_Node000003"><a xlink:title=" ">
<path fill="none" stroke="#63b8ff" d="M138.59,-15.25C130.51,-15.25 122.33,-15.25 114.44,-15.25"/>
<polygon fill="#63b8ff" stroke="#63b8ff" points="138.39,-18.75 148.39,-15.25 138.39,-11.75 138.39,-18.75"/>
</a>
</g>
</g>
</g>
</svg>
</svg>

<style type='text/css'>
<![CDATA[
[data-mouse-over-selected='false'] { opacity: 0.7; }
[data-mouse-over-selected='true']  { opacity: 1.0; }
]]>
</style>
<script type="application/ecmascript"><![CDATA[
document.addEventListener('DOMContentLoaded', (event) => {
  highlightEdges();
  highlightAdjacentNodes();
});
]]></script>
</svg>
