<?xml version="1.0" encoding="UTF-8" standalone="no"?>
<!DOCTYPE svg PUBLIC "-//W3C//DTD SVG 1.1//EN"
 "http://www.w3.org/Graphics/SVG/1.1/DTD/svg11.dtd">
<!-- Generated by graphviz version 12.2.1 (20241206.2353)
 -->
<!-- Title: TMC2240Stepper::isEnabled Pages: 1 -->
<svg width="467pt" height="82pt"
 viewBox="0.00 0.00 467.00 82.25" xmlns="http://www.w3.org/2000/svg" xmlns:xlink="http://www.w3.org/1999/xlink">

<svg id="main" version="1.1" xmlns="http://www.w3.org/2000/svg" xmlns:xlink="http://www.w3.org/1999/xlink" xml:space="preserve">

<style type="text/css"><![CDATA[
.node, .edge {opacity: 0.7;}
.node.selected, .edge.selected {opacity: 1;}
.edge:hover path { stroke: red; }
.edge:hover polygon { stroke: red; fill: red; }
]]></style>
<script type="application/ecmascript" xlink:href="svg.min.js"/>
<svg id="graph" class="graph">
<g id="graph0" class="graph" transform="scale(1 1) rotate(0) translate(4 78.25)">
<title>TMC2240Stepper::isEnabled</title>
<!-- Node1 -->
<g id="Node000001" class="node">
<title>Node1</title>
<g id="a_Node000001"><a xlink:title=" ">
<polygon fill="#999999" stroke="#666666" points="141.25,-37.25 0,-37.25 0,-18 141.25,-18 141.25,-37.25"/>
<text text-anchor="middle" x="70.62" y="-23.75" font-family="Helvetica,sans-Serif" font-size="10.00">TMC2240Stepper::isEnabled</text>
</a>
</g>
</g>
<!-- Node2 -->
<g id="Node000002" class="node">
<title>Node2</title>
<g id="a_Node000002"><a xlink:href="class_t_m_c2240_stepper.html#a6fa9f639906b2ffa7e55bbff1fdfd5c7" target="_top" xlink:title=" ">
<polygon fill="white" stroke="#666666" points="310.25,-56.25 177.25,-56.25 177.25,-37 310.25,-37 310.25,-56.25"/>
<text text-anchor="middle" x="243.75" y="-42.75" font-family="Helvetica,sans-Serif" font-size="10.00">TMC2240Stepper::drv_enn</text>
</a>
</g>
</g>
<!-- Node1&#45;&gt;Node2 -->
<g id="edge1_Node000001_Node000002" class="edge">
<title>Node1&#45;&gt;Node2</title>
<g id="a_edge1_Node000001_Node000002"><a xlink:title=" ">
<path fill="none" stroke="#63b8ff" d="M141.72,-35.41C149.63,-36.29 157.71,-37.18 165.7,-38.07"/>
<polygon fill="#63b8ff" stroke="#63b8ff" points="165.07,-41.52 175.39,-39.15 165.84,-34.56 165.07,-41.52"/>
</a>
</g>
</g>
<!-- Node3 -->
<g id="Node000003" class="node">
<title>Node3</title>
<g id="a_Node000003"><a xlink:href="class_t_m_c2240_stepper.html#ae0911f8a65aea9d3b1d88b531e6c61d6" target="_top" xlink:title=" ">
<polygon fill="white" stroke="#666666" points="300.12,-19.25 187.38,-19.25 187.38,0 300.12,0 300.12,-19.25"/>
<text text-anchor="middle" x="243.75" y="-5.75" font-family="Helvetica,sans-Serif" font-size="10.00">TMC2240Stepper::toff</text>
</a>
</g>
</g>
<!-- Node1&#45;&gt;Node3 -->
<g id="edge3_Node000001_Node000003" class="edge">
<title>Node1&#45;&gt;Node3</title>
<g id="a_edge3_Node000001_Node000003"><a xlink:title=" ">
<path fill="none" stroke="#63b8ff" d="M141.72,-20.25C152.89,-19.08 164.42,-17.86 175.52,-16.7"/>
<polygon fill="#63b8ff" stroke="#63b8ff" points="175.81,-20.19 185.39,-15.66 175.08,-13.22 175.81,-20.19"/>
</a>
</g>
</g>
<!-- Node2&#45;&gt;Node2 -->
<g id="edge2_Node000002_Node000002" class="edge">
<title>Node2&#45;&gt;Node2</title>
<g id="a_edge2_Node000002_Node000002"><a xlink:title=" ">
<path fill="none" stroke="#63b8ff" d="M218.88,-56.54C207.53,-65.15 215.82,-74.25 243.75,-74.25 259.46,-74.25 268.96,-71.37 272.24,-67.32"/>
<polygon fill="#63b8ff" stroke="#63b8ff" points="275.6,-66.34 269.1,-57.97 268.97,-68.57 275.6,-66.34"/>
</a>
</g>
</g>
<!-- Node4 -->
<g id="Node000004" class="node">
<title>Node4</title>
<g id="a_Node000004"><a xlink:href="class_t_m_c2240_stepper.html#abdec8f8f795ea9b0fd44ab2ab20f8f80" target="_top" xlink:title=" ">
<polygon fill="white" stroke="#666666" points="459,-19.25 346.25,-19.25 346.25,0 459,0 459,-19.25"/>
<text text-anchor="middle" x="402.62" y="-5.75" font-family="Helvetica,sans-Serif" font-size="10.00">TMC2240Stepper::toff</text>
</a>
</g>
</g>
<!-- Node3&#45;&gt;Node4 -->
<g id="edge4_Node000003_Node000004" class="edge">
<title>Node3&#45;&gt;Node4</title>
<g id="a_edge4_Node000003_Node000004"><a xlink:title=" ">
<path fill="none" stroke="#63b8ff" d="M300.5,-9.62C311.53,-9.62 323.22,-9.62 334.58,-9.62"/>
<polygon fill="#63b8ff" stroke="#63b8ff" points="334.28,-13.13 344.28,-9.63 334.28,-6.13 334.28,-13.13"/>
</a>
</g>
</g>
<!-- Node4&#45;&gt;Node4 -->
<g id="edge5_Node000004_Node000004" class="edge">
<title>Node4&#45;&gt;Node4</title>
<g id="a_edge5_Node000004_Node000004"><a xlink:title=" ">
<path fill="none" stroke="#63b8ff" d="M377.75,-19.54C366.41,-28.15 374.7,-37.25 402.62,-37.25 418.33,-37.25 427.83,-34.37 431.11,-30.32"/>
<polygon fill="#63b8ff" stroke="#63b8ff" points="434.48,-29.34 427.98,-20.97 427.84,-31.57 434.48,-29.34"/>
</a>
</g>
</g>
</g>
</svg>
</svg>

<style type='text/css'>
<![CDATA[
[data-mouse-over-selected='false'] { opacity: 0.7; }
[data-mouse-over-selected='true']  { opacity: 1.0; }
]]>
</style>
<script type="application/ecmascript"><![CDATA[
document.addEventListener('DOMContentLoaded', (event) => {
  highlightEdges();
  highlightAdjacentNodes();
});
]]></script>
</svg>
