<?xml version="1.0" encoding="UTF-8" standalone="no"?>
<!DOCTYPE svg PUBLIC "-//W3C//DTD SVG 1.1//EN"
 "http://www.w3.org/Graphics/SVG/1.1/DTD/svg11.dtd">
<!-- Generated by graphviz version 12.2.1 (20241206.2353)
 -->
<!-- Title: TMC2208Stepper::diss2vs Pages: 1 -->
<svg width="309pt" height="45pt"
 viewBox="0.00 0.00 308.50 45.25" xmlns="http://www.w3.org/2000/svg" xmlns:xlink="http://www.w3.org/1999/xlink">
<g id="graph0" class="graph" transform="scale(1 1) rotate(0) translate(4 41.25)">
<title>TMC2208Stepper::diss2vs</title>
<!-- Node1 -->
<g id="Node000001" class="node">
<title>Node1</title>
<g id="a_Node000001"><a xlink:title=" ">
<polygon fill="#999999" stroke="#666666" points="132.25,-19.25 0,-19.25 0,0 132.25,0 132.25,-19.25"/>
<text text-anchor="middle" x="66.12" y="-5.75" font-family="Helvetica,sans-Serif" font-size="10.00">TMC2208Stepper::diss2vs</text>
</a>
</g>
</g>
<!-- Node2 -->
<g id="Node000002" class="node">
<title>Node2</title>
<g id="a_Node000002"><a xlink:href="class_t_m_c2208_stepper.html#a3df95f42838a9aba18f50a2a2440a609" target="_top" xlink:title=" ">
<polygon fill="white" stroke="#666666" points="300.5,-19.25 168.25,-19.25 168.25,0 300.5,0 300.5,-19.25"/>
<text text-anchor="middle" x="234.38" y="-5.75" font-family="Helvetica,sans-Serif" font-size="10.00">TMC2208Stepper::diss2vs</text>
</a>
</g>
</g>
<!-- Node1&#45;&gt;Node2 -->
<g id="edge1_Node000001_Node000002" class="edge">
<title>Node1&#45;&gt;Node2</title>
<g id="a_edge1_Node000001_Node000002"><a xlink:title=" ">
<path fill="none" stroke="#63b8ff" d="M132.35,-9.62C140.27,-9.62 148.41,-9.62 156.47,-9.62"/>
<polygon fill="#63b8ff" stroke="#63b8ff" points="156.27,-13.13 166.27,-9.63 156.27,-6.13 156.27,-13.13"/>
</a>
</g>
</g>
<!-- Node2&#45;&gt;Node2 -->
<g id="edge2_Node000002_Node000002" class="edge">
<title>Node2&#45;&gt;Node2</title>
<g id="a_edge2_Node000002_Node000002"><a xlink:title=" ">
<path fill="none" stroke="#63b8ff" d="M208.03,-19.54C196.02,-28.15 204.8,-37.25 234.38,-37.25 251.01,-37.25 261.07,-34.37 264.54,-30.32"/>
<polygon fill="#63b8ff" stroke="#63b8ff" points="267.87,-29.22 261.22,-20.96 261.27,-31.56 267.87,-29.22"/>
</a>
</g>
</g>
</g>
</svg>
