<?xml version="1.0" encoding="UTF-8" standalone="no"?>
<!DOCTYPE svg PUBLIC "-//W3C//DTD SVG 1.1//EN"
 "http://www.w3.org/Graphics/SVG/1.1/DTD/svg11.dtd">
<!-- Generated by graphviz version 12.2.1 (20241206.2353)
 -->
<!-- Title: TMC2660Stepper::rms_current Pages: 1 -->
<!--zoomable 82 -->

<svg id="main" version="1.1" xmlns="http://www.w3.org/2000/svg" xmlns:xlink="http://www.w3.org/1999/xlink" xml:space="preserve" onload="init(evt)">

<style type="text/css"><![CDATA[
.node, .edge {opacity: 0.7;}
.node.selected, .edge.selected {opacity: 1;}
.edge:hover path { stroke: red; }
.edge:hover polygon { stroke: red; fill: red; }
]]></style>

<defs>
  <circle id="rim" cx="0" cy="0" r="7"/>
  <circle id="rim2" cx="0" cy="0" r="3.5"/>
  <g id="zoomPlus">
    <use xlink:href="#rim" fill="#404040"><set attributeName="fill" to="#808080" begin="zoomplus.mouseover" end="zoomplus.mouseout"/></use>
    <path d="M-4,0h8M0,-4v8" fill="none" stroke="white" stroke-width="1.5" pointer-events="none"/>
  </g>
  <g id="zoomMin">
    <use xlink:href="#rim" fill="#404040"><set attributeName="fill" to="#808080" begin="zoomminus.mouseover" end="zoomminus.mouseout"/></use>
    <path d="M-4,0h8" fill="none" stroke="white" stroke-width="1.5" pointer-events="none"/>
  </g>
  <g id="arrowUp" transform="translate(30 24)">
    <use xlink:href="#rim"/>
    <path pointer-events="none" fill="none" stroke="white" stroke-width="1.5" d="M0,-3.0v7 M-2.5,-0.5L0,-3.0L2.5,-0.5"/>
  </g>
  <g id="arrowRight" transform="rotate(90) translate(36 -43)">
    <use xlink:href="#rim"/>
    <path pointer-events="none" fill="none" stroke="white" stroke-width="1.5" d="M0,-3.0v7 M-2.5,-0.5L0,-3.0L2.5,-0.5"/>
  </g>
  <g id="arrowDown" transform="rotate(180) translate(-30 -48)">
    <use xlink:href="#rim"/>
    <path pointer-events="none" fill="none" stroke="white" stroke-width="1.5" d="M0,-3.0v7 M-2.5,-0.5L0,-3.0L2.5,-0.5"/>
  </g>
  <g id="arrowLeft" transform="rotate(270) translate(-36 17)">
    <use xlink:href="#rim"/>
    <path pointer-events="none" fill="none" stroke="white" stroke-width="1.5" d="M0,-3.0v7 M-2.5,-0.5L0,-3.0L2.5,-0.5"/>
  </g>
  <g id="resetDef">
    <use xlink:href="#rim2" fill="#404040"><set attributeName="fill" to="#808080" begin="reset.mouseover" end="reset.mouseout"/></use>
  </g>
</defs>
<script type="application/ecmascript">
var viewWidth = 622;
var viewHeight = 82;
var sectionId = 'dynsection-82';
</script>
<script type="application/ecmascript" xlink:href="svg.min.js"/>
<svg id="graph" class="graph">
<g id="viewport">
<title>TMC2660Stepper::rms_current</title>
<!-- Node1 -->
<g id="Node000001" class="node">
<title>Node1</title>
<g id="a_Node000001"><a xlink:title=" ">
<polygon fill="#999999" stroke="#666666" points="115,-42.88 0,-42.88 0,-12.37 115,-12.37 115,-42.88"/>
<text text-anchor="start" x="8" y="-29.38" font-family="Helvetica,sans-Serif" font-size="10.00">TMC2660Stepper::rms</text>
<text text-anchor="middle" x="57.5" y="-18.12" font-family="Helvetica,sans-Serif" font-size="10.00">_current</text>
</a>
</g>
</g>
<!-- Node2 -->
<g id="Node000002" class="node">
<title>Node2</title>
<g id="a_Node000002"><a xlink:href="class_t_m_c2660_stepper.html#a771f1425704e15ed90471bc7db2deaa4" target="_top" xlink:title=" ">
<polygon fill="white" stroke="#666666" points="270.88,-56.25 161.88,-56.25 161.88,-37 270.88,-37 270.88,-56.25"/>
<text text-anchor="middle" x="216.38" y="-42.75" font-family="Helvetica,sans-Serif" font-size="10.00">TMC2660Stepper::cs</text>
</a>
</g>
</g>
<!-- Node1&#45;&gt;Node2 -->
<g id="edge1_Node000001_Node000002" class="edge">
<title>Node1&#45;&gt;Node2</title>
<g id="a_edge1_Node000001_Node000002"><a xlink:title=" ">
<path fill="none" stroke="#63b8ff" d="M115.14,-34.48C126.46,-35.86 138.44,-37.31 150.02,-38.71"/>
<polygon fill="#63b8ff" stroke="#63b8ff" points="149.59,-42.18 159.94,-39.91 150.43,-35.23 149.59,-42.18"/>
</a>
</g>
</g>
<!-- Node4 -->
<g id="Node000004" class="node">
<title>Node4</title>
<g id="a_Node000004"><a xlink:href="class_t_m_c2660_stepper.html#a625480799004d350a27a24bbb066e4e9" target="_top" xlink:title=" ">
<polygon fill="white" stroke="#666666" points="281.75,-19.25 151,-19.25 151,0 281.75,0 281.75,-19.25"/>
<text text-anchor="middle" x="216.38" y="-5.75" font-family="Helvetica,sans-Serif" font-size="10.00">TMC2660Stepper::cs2rms</text>
</a>
</g>
</g>
<!-- Node1&#45;&gt;Node4 -->
<g id="edge4_Node000001_Node000004" class="edge">
<title>Node1&#45;&gt;Node4</title>
<g id="a_edge4_Node000001_Node000004"><a xlink:title=" ">
<path fill="none" stroke="#63b8ff" d="M115.14,-21.13C122.95,-20.23 131.08,-19.3 139.17,-18.37"/>
<polygon fill="#63b8ff" stroke="#63b8ff" points="139.52,-21.85 149.06,-17.23 138.73,-14.9 139.52,-21.85"/>
</a>
</g>
</g>
<!-- Node3 -->
<g id="Node000003" class="node">
<title>Node3</title>
<g id="a_Node000003"><a xlink:href="class_t_m_c2660_stepper.html#a466d10a3492459cd19e0dc22404578ba" target="_top" xlink:title=" ">
<polygon fill="white" stroke="#666666" points="437.25,-56.25 328.25,-56.25 328.25,-37 437.25,-37 437.25,-56.25"/>
<text text-anchor="middle" x="382.75" y="-42.75" font-family="Helvetica,sans-Serif" font-size="10.00">TMC2660Stepper::cs</text>
</a>
</g>
</g>
<!-- Node2&#45;&gt;Node3 -->
<g id="edge2_Node000002_Node000003" class="edge">
<title>Node2&#45;&gt;Node3</title>
<g id="a_edge2_Node000002_Node000003"><a xlink:title=" ">
<path fill="none" stroke="#63b8ff" d="M271.2,-46.62C285.67,-46.62 301.48,-46.62 316.51,-46.62"/>
<polygon fill="#63b8ff" stroke="#63b8ff" points="316.29,-50.13 326.29,-46.63 316.29,-43.13 316.29,-50.13"/>
</a>
</g>
</g>
<!-- Node3&#45;&gt;Node3 -->
<g id="edge3_Node000003_Node000003" class="edge">
<title>Node3&#45;&gt;Node3</title>
<g id="a_edge3_Node000003_Node000003"><a xlink:title=" ">
<path fill="none" stroke="#63b8ff" d="M356.76,-56.54C344.91,-65.15 353.57,-74.25 382.75,-74.25 399.16,-74.25 409.09,-71.37 412.52,-67.32"/>
<polygon fill="#63b8ff" stroke="#63b8ff" points="415.85,-66.25 409.24,-57.97 409.24,-68.56 415.85,-66.25"/>
</a>
</g>
</g>
<!-- Node5 -->
<g id="Node000005" class="node">
<title>Node5</title>
<g id="a_Node000005"><a xlink:href="class_t_m_c2660_stepper.html#ae9e78a1a2e7847988c779e81e3ae5545" target="_top" xlink:title=" ">
<polygon fill="white" stroke="#666666" points="447.75,-19.25 317.75,-19.25 317.75,0 447.75,0 447.75,-19.25"/>
<text text-anchor="middle" x="382.75" y="-5.75" font-family="Helvetica,sans-Serif" font-size="10.00">TMC2660Stepper::vsense</text>
</a>
</g>
</g>
<!-- Node4&#45;&gt;Node5 -->
<g id="edge5_Node000004_Node000005" class="edge">
<title>Node4&#45;&gt;Node5</title>
<g id="a_edge5_Node000004_Node000005"><a xlink:title=" ">
<path fill="none" stroke="#63b8ff" d="M281.87,-9.62C289.82,-9.62 297.99,-9.62 306.09,-9.62"/>
<polygon fill="#63b8ff" stroke="#63b8ff" points="305.93,-13.13 315.93,-9.63 305.93,-6.13 305.93,-13.13"/>
</a>
</g>
</g>
<!-- Node6 -->
<g id="Node000006" class="node">
<title>Node6</title>
<g id="a_Node000006"><a xlink:href="class_t_m_c2660_stepper.html#a8de8bc7d0e08e4ee4476276f599edf47" target="_top" xlink:title=" ">
<polygon fill="white" stroke="#666666" points="613.75,-19.25 483.75,-19.25 483.75,0 613.75,0 613.75,-19.25"/>
<text text-anchor="middle" x="548.75" y="-5.75" font-family="Helvetica,sans-Serif" font-size="10.00">TMC2660Stepper::vsense</text>
</a>
</g>
</g>
<!-- Node5&#45;&gt;Node6 -->
<g id="edge6_Node000005_Node000006" class="edge">
<title>Node5&#45;&gt;Node6</title>
<g id="a_edge6_Node000005_Node000006"><a xlink:title=" ">
<path fill="none" stroke="#63b8ff" d="M448.1,-9.62C455.96,-9.62 464.06,-9.62 472.08,-9.62"/>
<polygon fill="#63b8ff" stroke="#63b8ff" points="471.81,-13.13 481.81,-9.63 471.81,-6.13 471.81,-13.13"/>
</a>
</g>
</g>
<!-- Node6&#45;&gt;Node6 -->
<g id="edge7_Node000006_Node000006" class="edge">
<title>Node6&#45;&gt;Node6</title>
<g id="a_edge7_Node000006_Node000006"><a xlink:title=" ">
<path fill="none" stroke="#63b8ff" d="M522.76,-19.54C510.91,-28.15 519.57,-37.25 548.75,-37.25 565.16,-37.25 575.09,-34.37 578.52,-30.32"/>
<polygon fill="#63b8ff" stroke="#63b8ff" points="581.85,-29.25 575.24,-20.97 575.24,-31.56 581.85,-29.25"/>
</a>
</g>
</g>
</g>
</svg>

<g id="navigator" transform="translate(0 0)" fill="#404254">
  <rect fill="#f2f5e9" fill-opacity="0.5" stroke="#606060" stroke-width=".5" x="0" y="0" width="60" height="60"/>
  <use id="zoomplus" xlink:href="#zoomPlus" x="17" y="9" onmousedown="handleZoom(evt,'in')"/>
  <use id="zoomminus" xlink:href="#zoomMin" x="42" y="9" onmousedown="handleZoom(evt,'out')"/>
  <use id="reset" xlink:href="#resetDef" x="30" y="36" onmousedown="handleReset()"/>
   <use id="arrowup" xlink:href="#arrowUp" x="0" y="0" onmousedown="handlePan(0,-1)"/>
  <use id="arrowright" xlink:href="#arrowRight" x="0" y="0" onmousedown="handlePan(1,0)"/>
  <use id="arrowdown" xlink:href="#arrowDown" x="0" y="0" onmousedown="handlePan(0,1)"/>
  <use id="arrowleft" xlink:href="#arrowLeft" x="0" y="0" onmousedown="handlePan(-1,0)"/>
</g>
<svg viewBox="0 0 15 15" width="100%" height="30px" preserveAspectRatio="xMaxYMin meet">
 <g id="arrow_out" transform="scale(0.3 0.3)">
  <a xlink:href="class_t_m_c2660_stepper_a5a4a17c80ceb1bc88be8588b1c34fb77_cgraph_org.svg" target="_base">
   <rect id="button" ry="5" rx="5" y="6" x="6" height="38" width="38"
        fill="#f2f5e9" fill-opacity="0.5" stroke="#606060" stroke-width="1.0"/>
   <path id="arrow"
     d="M 11.500037,31.436501 C 11.940474,20.09759 22.043105,11.32322 32.158766,21.979434 L 37.068811,17.246167 C 37.068811,17.246167 37.088388,32 37.088388,32 L 22.160133,31.978069 C 22.160133,31.978069 26.997745,27.140456 26.997745,27.140456 C 18.528582,18.264221 13.291696,25.230495 11.500037,31.436501 z"
     style="fill:#404040;"/>
  </a>
 </g>
</svg>

<style type='text/css'>
<![CDATA[
[data-mouse-over-selected='false'] { opacity: 0.7; }
[data-mouse-over-selected='true']  { opacity: 1.0; }
]]>
</style>
<script type="application/ecmascript"><![CDATA[
document.addEventListener('DOMContentLoaded', (event) => {
  highlightEdges();
  highlightAdjacentNodes();
});
]]></script>
</svg>
