<?xml version="1.0" encoding="UTF-8" standalone="no"?>
<!DOCTYPE svg PUBLIC "-//W3C//DTD SVG 1.1//EN"
 "http://www.w3.org/Graphics/SVG/1.1/DTD/svg11.dtd">
<!-- Generated by graphviz version 12.2.1 (20241206.2353)
 -->
<!-- Title: TMC2208Stepper::FACTORY_CONF Pages: 1 -->
<svg width="355pt" height="64pt"
 viewBox="0.00 0.00 355.00 64.25" xmlns="http://www.w3.org/2000/svg" xmlns:xlink="http://www.w3.org/1999/xlink">
<g id="graph0" class="graph" transform="scale(1 1) rotate(0) translate(4 60.25)">
<title>TMC2208Stepper::FACTORY_CONF</title>
<!-- Node1 -->
<g id="Node000001" class="node">
<title>Node1</title>
<g id="a_Node000001"><a xlink:title=" ">
<polygon fill="#999999" stroke="#666666" points="347,-37.25 166.75,-37.25 166.75,-18 347,-18 347,-37.25"/>
<text text-anchor="middle" x="256.88" y="-23.75" font-family="Helvetica,sans-Serif" font-size="10.00">TMC2208Stepper::FACTORY_CONF</text>
</a>
</g>
</g>
<!-- Node2 -->
<g id="Node000002" class="node">
<title>Node2</title>
<g id="a_Node000002"><a xlink:href="class_t_m_c2208_stepper.html#a2576f25049dff1a3102da1ea5b4eb7fc" target="_top" xlink:title=" ">
<polygon fill="white" stroke="#666666" points="130.75,-56.25 0,-56.25 0,-37 130.75,-37 130.75,-56.25"/>
<text text-anchor="middle" x="65.38" y="-42.75" font-family="Helvetica,sans-Serif" font-size="10.00">TMC2208Stepper::fclktrim</text>
</a>
</g>
</g>
<!-- Node1&#45;&gt;Node2 -->
<g id="edge1_Node000001_Node000002" class="edge">
<title>Node1&#45;&gt;Node2</title>
<g id="a_edge1_Node000001_Node000002"><a xlink:title=" ">
<path fill="none" stroke="#63b8ff" d="M154.97,-37.74C146.9,-38.55 138.88,-39.36 131.17,-40.13"/>
<polygon fill="#63b8ff" stroke="#63b8ff" points="155.29,-41.23 164.89,-36.75 154.59,-34.26 155.29,-41.23"/>
</a>
</g>
</g>
<!-- Node3 -->
<g id="Node000003" class="node">
<title>Node3</title>
<g id="a_Node000003"><a xlink:href="class_t_m_c2208_stepper.html#a1d354657666fa70cd13004cb70bc9fcf" target="_top" xlink:title=" ">
<polygon fill="white" stroke="#666666" points="127,-19.25 3.75,-19.25 3.75,0 127,0 127,-19.25"/>
<text text-anchor="middle" x="65.38" y="-5.75" font-family="Helvetica,sans-Serif" font-size="10.00">TMC2208Stepper::ottrim</text>
</a>
</g>
</g>
<!-- Node1&#45;&gt;Node3 -->
<g id="edge2_Node000001_Node000003" class="edge">
<title>Node1&#45;&gt;Node3</title>
<g id="a_edge2_Node000001_Node000003"><a xlink:title=" ">
<path fill="none" stroke="#63b8ff" d="M155.23,-18.06C145.73,-17.16 136.3,-16.27 127.35,-15.42"/>
<polygon fill="#63b8ff" stroke="#63b8ff" points="154.6,-21.52 164.89,-18.98 155.27,-14.55 154.6,-21.52"/>
</a>
</g>
</g>
</g>
</svg>
