<?xml version="1.0" encoding="UTF-8" standalone="no"?>
<!DOCTYPE svg PUBLIC "-//W3C//DTD SVG 1.1//EN"
 "http://www.w3.org/Graphics/SVG/1.1/DTD/svg11.dtd">
<!-- Generated by graphviz version 12.2.1 (20241206.2353)
 -->
<!-- Title: TMC2240Stepper::direct_mode Pages: 1 -->
<svg width="348pt" height="45pt"
 viewBox="0.00 0.00 347.50 45.25" xmlns="http://www.w3.org/2000/svg" xmlns:xlink="http://www.w3.org/1999/xlink">
<g id="graph0" class="graph" transform="scale(1 1) rotate(0) translate(4 41.25)">
<title>TMC2240Stepper::direct_mode</title>
<!-- Node1 -->
<g id="Node000001" class="node">
<title>Node1</title>
<g id="a_Node000001"><a xlink:title=" ">
<polygon fill="#999999" stroke="#666666" points="339.5,-19.25 187.75,-19.25 187.75,0 339.5,0 339.5,-19.25"/>
<text text-anchor="middle" x="263.62" y="-5.75" font-family="Helvetica,sans-Serif" font-size="10.00">TMC2240Stepper::direct_mode</text>
</a>
</g>
</g>
<!-- Node1&#45;&gt;Node1 -->
<g id="edge2_Node000001_Node000001" class="edge">
<title>Node1&#45;&gt;Node1</title>
<g id="a_edge2_Node000001_Node000001"><a xlink:title=" ">
<path fill="none" stroke="#63b8ff" d="M297.6,-29.98C294.03,-34.21 282.7,-37.25 263.62,-37.25 230.62,-37.25 220.82,-28.15 234.23,-19.54"/>
<polygon fill="#63b8ff" stroke="#63b8ff" points="300.85,-28.68 293.63,-20.92 294.44,-31.49 300.85,-28.68"/>
</a>
</g>
</g>
<!-- Node2 -->
<g id="Node000002" class="node">
<title>Node2</title>
<g id="a_Node000002"><a xlink:href="class_t_m_c2240_stepper.html#a4f0dacafeea604a3a3b9def1a4cbe269" target="_top" xlink:title=" ">
<polygon fill="white" stroke="#666666" points="151.75,-19.25 0,-19.25 0,0 151.75,0 151.75,-19.25"/>
<text text-anchor="middle" x="75.88" y="-5.75" font-family="Helvetica,sans-Serif" font-size="10.00">TMC2240Stepper::direct_mode</text>
</a>
</g>
</g>
<!-- Node1&#45;&gt;Node2 -->
<g id="edge1_Node000001_Node000002" class="edge">
<title>Node1&#45;&gt;Node2</title>
<g id="a_edge1_Node000001_Node000002"><a xlink:title=" ">
<path fill="none" stroke="#63b8ff" d="M176.04,-9.62C168,-9.62 159.89,-9.62 151.96,-9.62"/>
<polygon fill="#63b8ff" stroke="#63b8ff" points="175.83,-13.13 185.83,-9.63 175.83,-6.13 175.83,-13.13"/>
</a>
</g>
</g>
</g>
</svg>
