<?xml version="1.0" encoding="UTF-8" standalone="no"?>
<!DOCTYPE svg PUBLIC "-//W3C//DTD SVG 1.1//EN"
 "http://www.w3.org/Graphics/SVG/1.1/DTD/svg11.dtd">
<!-- Generated by graphviz version 12.2.1 (20241206.2353)
 -->
<!-- Title: TMC2240Stepper::reset Pages: 1 -->
<svg width="448pt" height="27pt"
 viewBox="0.00 0.00 448.25 27.25" xmlns="http://www.w3.org/2000/svg" xmlns:xlink="http://www.w3.org/1999/xlink">
<g id="graph0" class="graph" transform="scale(1 1) rotate(0) translate(4 23.25)">
<title>TMC2240Stepper::reset</title>
<!-- Node1 -->
<g id="Node000001" class="node">
<title>Node1</title>
<g id="a_Node000001"><a xlink:title=" ">
<polygon fill="#999999" stroke="#666666" points="120.25,-19.25 0,-19.25 0,0 120.25,0 120.25,-19.25"/>
<text text-anchor="middle" x="60.12" y="-5.75" font-family="Helvetica,sans-Serif" font-size="10.00">TMC2240Stepper::reset</text>
</a>
</g>
</g>
<!-- Node2 -->
<g id="Node000002" class="node">
<title>Node2</title>
<g id="a_Node000002"><a xlink:href="class_t_m_c2240_stepper.html#a1bf39bb8228d09c92e264de83124f788" target="_top" xlink:title=" ">
<polygon fill="white" stroke="#666666" points="287,-19.25 156.25,-19.25 156.25,0 287,0 287,-19.25"/>
<text text-anchor="middle" x="221.62" y="-5.75" font-family="Helvetica,sans-Serif" font-size="10.00">TMC2240Stepper::GSTAT</text>
</a>
</g>
</g>
<!-- Node1&#45;&gt;Node2 -->
<g id="edge1_Node000001_Node000002" class="edge">
<title>Node1&#45;&gt;Node2</title>
<g id="a_edge1_Node000001_Node000002"><a xlink:title=" ">
<path fill="none" stroke="#63b8ff" d="M120.52,-9.62C128.34,-9.62 136.45,-9.62 144.51,-9.62"/>
<polygon fill="#63b8ff" stroke="#63b8ff" points="144.32,-13.13 154.32,-9.63 144.32,-6.13 144.32,-13.13"/>
</a>
</g>
</g>
<!-- Node3 -->
<g id="Node000003" class="node">
<title>Node3</title>
<g id="a_Node000003"><a xlink:href="class_t_m_c2240_stepper.html#ab9de5d1aad8b0a998557ef85de765df9" target="_top" xlink:title=" ">
<polygon fill="white" stroke="#666666" points="440.25,-19.25 323,-19.25 323,0 440.25,0 440.25,-19.25"/>
<text text-anchor="middle" x="381.62" y="-5.75" font-family="Helvetica,sans-Serif" font-size="10.00">TMC2240Stepper::read</text>
</a>
</g>
</g>
<!-- Node2&#45;&gt;Node3 -->
<g id="edge2_Node000002_Node000003" class="edge">
<title>Node2&#45;&gt;Node3</title>
<g id="a_edge2_Node000002_Node000003"><a xlink:title=" ">
<path fill="none" stroke="#63b8ff" d="M287.35,-9.62C295.19,-9.62 303.23,-9.62 311.14,-9.62"/>
<polygon fill="#63b8ff" stroke="#63b8ff" points="311.08,-13.13 321.08,-9.63 311.08,-6.13 311.08,-13.13"/>
</a>
</g>
</g>
</g>
</svg>
