<?xml version="1.0" encoding="UTF-8" standalone="no"?>
<!DOCTYPE svg PUBLIC "-//W3C//DTD SVG 1.1//EN"
 "http://www.w3.org/Graphics/SVG/1.1/DTD/svg11.dtd">
<!-- Generated by graphviz version 12.2.1 (20241206.2353)
 -->
<!-- Title: TMC2240Stepper::rms_current Pages: 1 -->
<svg width="463pt" height="143pt"
 viewBox="0.00 0.00 463.25 142.88" xmlns="http://www.w3.org/2000/svg" xmlns:xlink="http://www.w3.org/1999/xlink">

<svg id="main" version="1.1" xmlns="http://www.w3.org/2000/svg" xmlns:xlink="http://www.w3.org/1999/xlink" xml:space="preserve">

<style type="text/css"><![CDATA[
.node, .edge {opacity: 0.7;}
.node.selected, .edge.selected {opacity: 1;}
.edge:hover path { stroke: red; }
.edge:hover polygon { stroke: red; fill: red; }
]]></style>
<script type="application/ecmascript" xlink:href="svg.min.js"/>
<svg id="graph" class="graph">
<g id="graph0" class="graph" transform="scale(1 1) rotate(0) translate(4 138.88)">
<title>TMC2240Stepper::rms_current</title>
<!-- Node1 -->
<g id="Node000001" class="node">
<title>Node1</title>
<g id="a_Node000001"><a xlink:title=" ">
<polygon fill="#999999" stroke="#666666" points="115,-54.88 0,-54.88 0,-24.38 115,-24.38 115,-54.88"/>
<text text-anchor="start" x="8" y="-41.38" font-family="Helvetica,sans-Serif" font-size="10.00">TMC2240Stepper::rms</text>
<text text-anchor="middle" x="57.5" y="-30.12" font-family="Helvetica,sans-Serif" font-size="10.00">_current</text>
</a>
</g>
</g>
<!-- Node2 -->
<g id="Node000002" class="node">
<title>Node2</title>
<g id="a_Node000002"><a xlink:href="class_t_m_c2240_stepper.html#ab4e03600d1f0d733b042b7a2b57fa65f" target="_top" xlink:title=" ">
<polygon fill="white" stroke="#666666" points="281.75,-80.25 151,-80.25 151,-61 281.75,-61 281.75,-80.25"/>
<text text-anchor="middle" x="216.38" y="-66.75" font-family="Helvetica,sans-Serif" font-size="10.00">TMC2240Stepper::cs2rms</text>
</a>
</g>
</g>
<!-- Node1&#45;&gt;Node2 -->
<g id="edge1_Node000001_Node000002" class="edge">
<title>Node1&#45;&gt;Node2</title>
<g id="a_edge1_Node000001_Node000002"><a xlink:title=" ">
<path fill="none" stroke="#63b8ff" d="M115.14,-50.82C127.43,-53.25 140.51,-55.83 153.01,-58.3"/>
<polygon fill="#63b8ff" stroke="#63b8ff" points="152.32,-61.73 162.81,-60.24 153.68,-54.87 152.32,-61.73"/>
</a>
</g>
</g>
<!-- Node5 -->
<g id="Node000005" class="node">
<title>Node5</title>
<g id="a_Node000005"><a xlink:href="class_t_m_c2240_stepper.html#ad1639c4db3c0ddfcf16b96b77be71219" target="_top" xlink:title=" ">
<polygon fill="white" stroke="#666666" points="273.5,-31.25 159.25,-31.25 159.25,-12 273.5,-12 273.5,-31.25"/>
<text text-anchor="middle" x="216.38" y="-17.75" font-family="Helvetica,sans-Serif" font-size="10.00">TMC2240Stepper::irun</text>
</a>
</g>
</g>
<!-- Node1&#45;&gt;Node5 -->
<g id="edge4_Node000001_Node000005" class="edge">
<title>Node1&#45;&gt;Node5</title>
<g id="a_edge4_Node000001_Node000005"><a xlink:title=" ">
<path fill="none" stroke="#63b8ff" d="M115.14,-33.13C125.69,-31.92 136.81,-30.64 147.66,-29.4"/>
<polygon fill="#63b8ff" stroke="#63b8ff" points="147.78,-32.9 157.32,-28.29 146.99,-25.95 147.78,-32.9"/>
</a>
</g>
</g>
<!-- Node3 -->
<g id="Node000003" class="node">
<title>Node3</title>
<g id="a_Node000003"><a xlink:href="class_t_m_c2240_stepper.html#a8d9765a61d3bf90aa88ff933a29ad160" target="_top" xlink:title=" ">
<polygon fill="white" stroke="#666666" points="444.75,-134.88 328.25,-134.88 328.25,-104.38 444.75,-104.38 444.75,-134.88"/>
<text text-anchor="start" x="336.25" y="-121.38" font-family="Helvetica,sans-Serif" font-size="10.00">TMC2240Stepper::calc</text>
<text text-anchor="middle" x="386.5" y="-110.12" font-family="Helvetica,sans-Serif" font-size="10.00">_IFS_current_RMS</text>
</a>
</g>
</g>
<!-- Node2&#45;&gt;Node3 -->
<g id="edge2_Node000002_Node000003" class="edge">
<title>Node2&#45;&gt;Node3</title>
<g id="a_edge2_Node000002_Node000003"><a xlink:title=" ">
<path fill="none" stroke="#63b8ff" d="M251.8,-80.66C271.62,-86.44 297.18,-93.88 320.63,-100.72"/>
<polygon fill="#63b8ff" stroke="#63b8ff" points="319.55,-104.05 330.13,-103.49 321.51,-97.33 319.55,-104.05"/>
</a>
</g>
</g>
<!-- Node4 -->
<g id="Node000004" class="node">
<title>Node4</title>
<g id="a_Node000004"><a xlink:href="class_t_m_c2240_stepper.html#a0950aa99ecae81e9599a77563b1d2d97" target="_top" xlink:title=" ">
<polygon fill="white" stroke="#666666" points="455.25,-85.88 317.75,-85.88 317.75,-55.38 455.25,-55.38 455.25,-85.88"/>
<text text-anchor="start" x="325.75" y="-72.38" font-family="Helvetica,sans-Serif" font-size="10.00">TMC2240Stepper::GLOBAL</text>
<text text-anchor="middle" x="386.5" y="-61.12" font-family="Helvetica,sans-Serif" font-size="10.00">_SCALER</text>
</a>
</g>
</g>
<!-- Node2&#45;&gt;Node4 -->
<g id="edge3_Node000002_Node000004" class="edge">
<title>Node2&#45;&gt;Node4</title>
<g id="a_edge3_Node000002_Node000004"><a xlink:title=" ">
<path fill="none" stroke="#63b8ff" d="M281.9,-70.62C289.83,-70.62 298,-70.62 306.12,-70.62"/>
<polygon fill="#63b8ff" stroke="#63b8ff" points="306.01,-74.13 316.01,-70.63 306.01,-67.13 306.01,-74.13"/>
</a>
</g>
</g>
<!-- Node6 -->
<g id="Node000006" class="node">
<title>Node6</title>
<g id="a_Node000006"><a xlink:href="class_t_m_c2240_stepper.html#af64920dda2f277bed484e12d54a8d0d3" target="_top" xlink:title=" ">
<polygon fill="white" stroke="#666666" points="443.62,-19.25 329.38,-19.25 329.38,0 443.62,0 443.62,-19.25"/>
<text text-anchor="middle" x="386.5" y="-5.75" font-family="Helvetica,sans-Serif" font-size="10.00">TMC2240Stepper::irun</text>
</a>
</g>
</g>
<!-- Node5&#45;&gt;Node6 -->
<g id="edge5_Node000005_Node000006" class="edge">
<title>Node5&#45;&gt;Node6</title>
<g id="a_edge5_Node000005_Node000006"><a xlink:title=" ">
<path fill="none" stroke="#63b8ff" d="M273.83,-17.6C287.83,-16.6 302.98,-15.52 317.47,-14.48"/>
<polygon fill="#63b8ff" stroke="#63b8ff" points="317.68,-17.97 327.4,-13.77 317.18,-10.99 317.68,-17.97"/>
</a>
</g>
</g>
<!-- Node6&#45;&gt;Node6 -->
<g id="edge6_Node000006_Node000006" class="edge">
<title>Node6&#45;&gt;Node6</title>
<g id="a_edge6_Node000006_Node000006"><a xlink:title=" ">
<path fill="none" stroke="#63b8ff" d="M359.87,-19.54C347.72,-28.15 356.6,-37.25 386.5,-37.25 403.32,-37.25 413.49,-34.37 417.01,-30.32"/>
<polygon fill="#63b8ff" stroke="#63b8ff" points="420.32,-29.19 413.65,-20.96 413.73,-31.56 420.32,-29.19"/>
</a>
</g>
</g>
</g>
</svg>
</svg>

<style type='text/css'>
<![CDATA[
[data-mouse-over-selected='false'] { opacity: 0.7; }
[data-mouse-over-selected='true']  { opacity: 1.0; }
]]>
</style>
<script type="application/ecmascript"><![CDATA[
document.addEventListener('DOMContentLoaded', (event) => {
  highlightEdges();
  highlightAdjacentNodes();
});
]]></script>
</svg>
