<?xml version="1.0" encoding="UTF-8" standalone="no"?>
<!DOCTYPE svg PUBLIC "-//W3C//DTD SVG 1.1//EN"
 "http://www.w3.org/Graphics/SVG/1.1/DTD/svg11.dtd">
<!-- Generated by graphviz version 12.2.1 (20241206.2353)
 -->
<!-- Title: TMCStepper::drv_err Pages: 1 -->
<svg width="394pt" height="27pt"
 viewBox="0.00 0.00 393.50 27.25" xmlns="http://www.w3.org/2000/svg" xmlns:xlink="http://www.w3.org/1999/xlink">
<g id="graph0" class="graph" transform="scale(1 1) rotate(0) translate(4 23.25)">
<title>TMCStepper::drv_err</title>
<!-- Node1 -->
<g id="Node000001" class="node">
<title>Node1</title>
<g id="a_Node000001"><a xlink:title=" ">
<polygon fill="#999999" stroke="#666666" points="107.5,-19.25 0,-19.25 0,0 107.5,0 107.5,-19.25"/>
<text text-anchor="middle" x="53.75" y="-5.75" font-family="Helvetica,sans-Serif" font-size="10.00">TMCStepper::drv_err</text>
</a>
</g>
</g>
<!-- Node2 -->
<g id="Node000002" class="node">
<title>Node2</title>
<g id="a_Node000002"><a xlink:href="class_t_m_c_stepper.html#ac7874c4b56bd1b3acce522c1e7d7dfed" target="_top" xlink:title=" ">
<polygon fill="white" stroke="#666666" points="253.25,-19.25 143.5,-19.25 143.5,0 253.25,0 253.25,-19.25"/>
<text text-anchor="middle" x="198.38" y="-5.75" font-family="Helvetica,sans-Serif" font-size="10.00">TMCStepper::GSTAT</text>
</a>
</g>
</g>
<!-- Node1&#45;&gt;Node2 -->
<g id="edge1_Node000001_Node000002" class="edge">
<title>Node1&#45;&gt;Node2</title>
<g id="a_edge1_Node000001_Node000002"><a xlink:title=" ">
<path fill="none" stroke="#63b8ff" d="M107.86,-9.62C115.72,-9.62 123.89,-9.62 131.97,-9.62"/>
<polygon fill="#63b8ff" stroke="#63b8ff" points="131.76,-13.13 141.76,-9.63 131.76,-6.13 131.76,-13.13"/>
</a>
</g>
</g>
<!-- Node3 -->
<g id="Node000003" class="node">
<title>Node3</title>
<g id="a_Node000003"><a xlink:href="class_t_m_c_stepper.html#a55984b797e1b4d3fd9e253277b19b8bd" target="_top" xlink:title=" ">
<polygon fill="white" stroke="#666666" points="385.5,-19.25 289.25,-19.25 289.25,0 385.5,0 385.5,-19.25"/>
<text text-anchor="middle" x="337.38" y="-5.75" font-family="Helvetica,sans-Serif" font-size="10.00">TMCStepper::read</text>
</a>
</g>
</g>
<!-- Node2&#45;&gt;Node3 -->
<g id="edge2_Node000002_Node000003" class="edge">
<title>Node2&#45;&gt;Node3</title>
<g id="a_edge2_Node000002_Node000003"><a xlink:title=" ">
<path fill="none" stroke="#63b8ff" d="M253.52,-9.62C261.36,-9.62 269.46,-9.62 277.39,-9.62"/>
<polygon fill="#63b8ff" stroke="#63b8ff" points="277.32,-13.13 287.32,-9.63 277.32,-6.13 277.32,-13.13"/>
</a>
</g>
</g>
</g>
</svg>
