<?xml version="1.0" encoding="UTF-8" standalone="no"?>
<!DOCTYPE svg PUBLIC "-//W3C//DTD SVG 1.1//EN"
 "http://www.w3.org/Graphics/SVG/1.1/DTD/svg11.dtd">
<!-- Generated by graphviz version 12.2.1 (20241206.2353)
 -->
<!-- Title: TMCStepper::hstrt Pages: 1 -->
<svg width="264pt" height="88pt"
 viewBox="0.00 0.00 263.50 87.50" xmlns="http://www.w3.org/2000/svg" xmlns:xlink="http://www.w3.org/1999/xlink">
<g id="graph0" class="graph" transform="scale(1 1) rotate(0) translate(4 83.5)">
<title>TMCStepper::hstrt</title>
<!-- Node1 -->
<g id="Node000001" class="node">
<title>Node1</title>
<g id="a_Node000001"><a xlink:title=" ">
<polygon fill="#999999" stroke="#666666" points="255.5,-48.88 158.5,-48.88 158.5,-29.62 255.5,-29.62 255.5,-48.88"/>
<text text-anchor="middle" x="207" y="-35.38" font-family="Helvetica,sans-Serif" font-size="10.00">TMCStepper::hstrt</text>
</a>
</g>
</g>
<!-- Node2 -->
<g id="Node000002" class="node">
<title>Node2</title>
<g id="a_Node000002"><a xlink:href="class_t_m_c_stepper.html#ac06189981d4400bf5961719f468c39b1" target="_top" xlink:title=" ">
<polygon fill="white" stroke="#666666" points="122.5,-79.5 0,-79.5 0,-49 122.5,-49 122.5,-79.5"/>
<text text-anchor="start" x="8" y="-66" font-family="Helvetica,sans-Serif" font-size="10.00">TMCStepper::hysteresis</text>
<text text-anchor="middle" x="61.25" y="-54.75" font-family="Helvetica,sans-Serif" font-size="10.00">_start</text>
</a>
</g>
</g>
<!-- Node1&#45;&gt;Node2 -->
<g id="edge1_Node000001_Node000002" class="edge">
<title>Node1&#45;&gt;Node2</title>
<g id="a_edge1_Node000001_Node000002"><a xlink:title=" ">
<path fill="none" stroke="#63b8ff" d="M146.8,-49.55C138.93,-50.92 130.85,-52.32 122.95,-53.69"/>
<polygon fill="#63b8ff" stroke="#63b8ff" points="147.39,-53 156.64,-47.83 146.19,-46.1 147.39,-53"/>
</a>
</g>
</g>
<!-- Node3 -->
<g id="Node000003" class="node">
<title>Node3</title>
<g id="a_Node000003"><a xlink:href="class_t_m_c_stepper.html#a87670296ab7633ec9aba23f86ea98085" target="_top" xlink:title=" ">
<polygon fill="white" stroke="#666666" points="122.5,-30.5 0,-30.5 0,0 122.5,0 122.5,-30.5"/>
<text text-anchor="start" x="8" y="-17" font-family="Helvetica,sans-Serif" font-size="10.00">TMCStepper::hysteresis</text>
<text text-anchor="middle" x="61.25" y="-5.75" font-family="Helvetica,sans-Serif" font-size="10.00">_start</text>
</a>
</g>
</g>
<!-- Node1&#45;&gt;Node3 -->
<g id="edge2_Node000001_Node000003" class="edge">
<title>Node1&#45;&gt;Node3</title>
<g id="a_edge2_Node000001_Node000003"><a xlink:title=" ">
<path fill="none" stroke="#63b8ff" d="M146.8,-29.37C138.93,-28.05 130.85,-26.7 122.95,-25.38"/>
<polygon fill="#63b8ff" stroke="#63b8ff" points="146.2,-32.81 156.64,-31.01 147.35,-25.91 146.2,-32.81"/>
</a>
</g>
</g>
</g>
</svg>
