<?xml version="1.0" encoding="UTF-8" standalone="no"?>
<!DOCTYPE svg PUBLIC "-//W3C//DTD SVG 1.1//EN"
 "http://www.w3.org/Graphics/SVG/1.1/DTD/svg11.dtd">
<!-- Generated by graphviz version 12.2.1 (20241206.2353)
 -->
<!-- Title: TMC2208Stepper::pwm_ofs_auto Pages: 1 -->
<svg width="894pt" height="187pt"
 viewBox="0.00 0.00 894.25 187.25" xmlns="http://www.w3.org/2000/svg" xmlns:xlink="http://www.w3.org/1999/xlink">
<g id="graph0" class="graph" transform="scale(1 1) rotate(0) translate(4 183.25)">
<title>TMC2208Stepper::pwm_ofs_auto</title>
<!-- Node1 -->
<g id="Node000001" class="node">
<title>Node1</title>
<g id="a_Node000001"><a xlink:title=" ">
<polygon fill="#999999" stroke="#666666" points="119.5,-88.88 0,-88.88 0,-58.38 119.5,-58.38 119.5,-88.88"/>
<text text-anchor="start" x="8" y="-75.38" font-family="Helvetica,sans-Serif" font-size="10.00">TMC2208Stepper::pwm</text>
<text text-anchor="middle" x="59.75" y="-64.12" font-family="Helvetica,sans-Serif" font-size="10.00">_ofs_auto</text>
</a>
</g>
</g>
<!-- Node2 -->
<g id="Node000002" class="node">
<title>Node2</title>
<g id="a_Node000002"><a xlink:href="class_t_m_c2208_stepper.html#a3cad83843fc7cc00cbbff7d620690501" target="_top" xlink:title=" ">
<polygon fill="white" stroke="#666666" points="311.75,-83.25 155.5,-83.25 155.5,-64 311.75,-64 311.75,-83.25"/>
<text text-anchor="middle" x="233.62" y="-69.75" font-family="Helvetica,sans-Serif" font-size="10.00">TMC2208Stepper::PWM_AUTO</text>
</a>
</g>
</g>
<!-- Node1&#45;&gt;Node2 -->
<g id="edge1_Node000001_Node000002" class="edge">
<title>Node1&#45;&gt;Node2</title>
<g id="a_edge1_Node000001_Node000002"><a xlink:title=" ">
<path fill="none" stroke="#63b8ff" d="M119.9,-73.62C127.62,-73.62 135.66,-73.62 143.74,-73.62"/>
<polygon fill="#63b8ff" stroke="#63b8ff" points="143.64,-77.13 153.64,-73.63 143.64,-70.13 143.64,-77.13"/>
</a>
</g>
</g>
<!-- Node3 -->
<g id="Node000003" class="node">
<title>Node3</title>
<g id="a_Node000003"><a xlink:href="class_t_m_c2208_stepper.html#a2fae2050849c3ab7968012def8ea1cc5" target="_top" xlink:title=" ">
<polygon fill="white" stroke="#666666" points="465,-83.25 347.75,-83.25 347.75,-64 465,-64 465,-83.25"/>
<text text-anchor="middle" x="406.38" y="-69.75" font-family="Helvetica,sans-Serif" font-size="10.00">TMC2208Stepper::read</text>
</a>
</g>
</g>
<!-- Node2&#45;&gt;Node3 -->
<g id="edge2_Node000002_Node000003" class="edge">
<title>Node2&#45;&gt;Node3</title>
<g id="a_edge2_Node000002_Node000003"><a xlink:title=" ">
<path fill="none" stroke="#63b8ff" d="M312.01,-73.62C320.01,-73.62 328.11,-73.62 336.02,-73.62"/>
<polygon fill="#63b8ff" stroke="#63b8ff" points="335.92,-77.13 345.92,-73.63 335.92,-70.13 335.92,-77.13"/>
</a>
</g>
</g>
<!-- Node4 -->
<g id="Node000004" class="node">
<title>Node4</title>
<g id="a_Node000004"><a xlink:href="class_t_m_c2208_stepper.html#a321ad81155b7a20c0858920d32d0b074" target="_top" xlink:title=" ">
<polygon fill="white" stroke="#666666" points="686.5,-142.25 519,-142.25 519,-123 686.5,-123 686.5,-142.25"/>
<text text-anchor="middle" x="602.75" y="-128.75" font-family="Helvetica,sans-Serif" font-size="10.00">TMC2208Stepper::_sendDatagram</text>
</a>
</g>
</g>
<!-- Node3&#45;&gt;Node4 -->
<g id="edge3_Node000003_Node000004" class="edge">
<title>Node3&#45;&gt;Node4</title>
<g id="a_edge3_Node000003_Node000004"><a xlink:title=" ">
<path fill="none" stroke="#63b8ff" d="M426.59,-83.65C445.17,-92.94 474.34,-106.53 501,-114.62 507.64,-116.64 514.6,-118.46 521.62,-120.1"/>
<polygon fill="#63b8ff" stroke="#63b8ff" points="520.68,-123.47 531.2,-122.2 522.18,-116.64 520.68,-123.47"/>
</a>
</g>
</g>
<!-- Node8 -->
<g id="Node000008" class="node">
<title>Node8</title>
<g id="a_Node000008"><a xlink:href="class_t_m_c2208_stepper.html#a409c19fa6b052a370a317d061bf9af4e" target="_top" xlink:title=" ">
<polygon fill="white" stroke="#666666" points="672.25,-105.25 533.25,-105.25 533.25,-86 672.25,-86 672.25,-105.25"/>
<text text-anchor="middle" x="602.75" y="-91.75" font-family="Helvetica,sans-Serif" font-size="10.00">TMC2208Stepper::calcCRC</text>
</a>
</g>
</g>
<!-- Node3&#45;&gt;Node8 -->
<g id="edge7_Node000003_Node000008" class="edge">
<title>Node3&#45;&gt;Node8</title>
<g id="a_edge7_Node000003_Node000008"><a xlink:title=" ">
<path fill="none" stroke="#63b8ff" d="M465.43,-80.2C483.12,-82.2 502.87,-84.43 521.74,-86.57"/>
<polygon fill="#63b8ff" stroke="#63b8ff" points="521.2,-90.03 531.53,-87.68 521.99,-83.07 521.2,-90.03"/>
</a>
</g>
</g>
<!-- Node9 -->
<g id="Node000009" class="node">
<title>Node9</title>
<g id="a_Node000009"><a xlink:href="class_t_m_c2208_stepper.html#ab3d186b27f45ec47c1cf0bf15ed4cd2e" target="_top" xlink:title=" ">
<polygon fill="white" stroke="#666666" points="673,-67.88 532.5,-67.88 532.5,-37.38 673,-37.38 673,-67.88"/>
<text text-anchor="start" x="540.5" y="-54.38" font-family="Helvetica,sans-Serif" font-size="10.00">TMC2208Stepper::postRead</text>
<text text-anchor="middle" x="602.75" y="-43.12" font-family="Helvetica,sans-Serif" font-size="10.00">Communication</text>
</a>
</g>
</g>
<!-- Node3&#45;&gt;Node9 -->
<g id="edge8_Node000003_Node000009" class="edge">
<title>Node3&#45;&gt;Node9</title>
<g id="a_edge8_Node000003_Node000009"><a xlink:title=" ">
<path fill="none" stroke="#63b8ff" d="M465.43,-67.35C482.93,-65.46 502.46,-63.35 521.15,-61.33"/>
<polygon fill="#63b8ff" stroke="#63b8ff" points="521.27,-64.84 530.83,-60.29 520.51,-57.88 521.27,-64.84"/>
</a>
</g>
</g>
<!-- Node10 -->
<g id="Node000010" class="node">
<title>Node10</title>
<g id="a_Node000010"><a xlink:href="class_t_m_c2208_stepper.html#a8c4f3ce4a964c9a03a1e14f47bf5bec3" target="_top" xlink:title=" ">
<polygon fill="white" stroke="#666666" points="704.5,-19.25 501,-19.25 501,0 704.5,0 704.5,-19.25"/>
<text text-anchor="middle" x="602.75" y="-5.75" font-family="Helvetica,sans-Serif" font-size="10.00">TMC2208Stepper::preReadCommunication</text>
</a>
</g>
</g>
<!-- Node3&#45;&gt;Node10 -->
<g id="edge9_Node000003_Node000010" class="edge">
<title>Node3&#45;&gt;Node10</title>
<g id="a_edge9_Node000003_Node000010"><a xlink:title=" ">
<path fill="none" stroke="#63b8ff" d="M424.75,-63.57C443.12,-53.34 473.24,-37.74 501,-28.62 508.3,-26.23 516,-24.1 523.76,-22.22"/>
<polygon fill="#63b8ff" stroke="#63b8ff" points="524.29,-25.69 533.26,-20.05 522.73,-18.86 524.29,-25.69"/>
</a>
</g>
</g>
<!-- Node5 -->
<g id="Node000005" class="node">
<title>Node5</title>
<g id="a_Node000005"><a xlink:href="class_t_m_c2208_stepper.html#aef33fe13c1d9c19e9ec9abc159147a5d" target="_top" xlink:title=" ">
<polygon fill="white" stroke="#666666" points="881.75,-179.25 745,-179.25 745,-160 881.75,-160 881.75,-179.25"/>
<text text-anchor="middle" x="813.38" y="-165.75" font-family="Helvetica,sans-Serif" font-size="10.00">TMC2208Stepper::available</text>
</a>
</g>
</g>
<!-- Node4&#45;&gt;Node5 -->
<g id="edge4_Node000004_Node000005" class="edge">
<title>Node4&#45;&gt;Node5</title>
<g id="a_edge4_Node000004_Node000005"><a xlink:title=" ">
<path fill="none" stroke="#63b8ff" d="M660.76,-142.74C686.52,-147.3 717.16,-152.74 744.13,-157.52"/>
<polygon fill="#63b8ff" stroke="#63b8ff" points="743.49,-160.96 753.95,-159.26 744.71,-154.07 743.49,-160.96"/>
</a>
</g>
</g>
<!-- Node6 -->
<g id="Node000006" class="node">
<title>Node6</title>
<g id="a_Node000006"><a xlink:href="class_t_m_c2208_stepper.html#a8214f87693050e222fc24be979f468e2" target="_top" xlink:title=" ">
<polygon fill="white" stroke="#666666" points="886.25,-142.25 740.5,-142.25 740.5,-123 886.25,-123 886.25,-142.25"/>
<text text-anchor="middle" x="813.38" y="-128.75" font-family="Helvetica,sans-Serif" font-size="10.00">TMC2208Stepper::serial_read</text>
</a>
</g>
</g>
<!-- Node4&#45;&gt;Node6 -->
<g id="edge5_Node000004_Node000006" class="edge">
<title>Node4&#45;&gt;Node6</title>
<g id="a_edge5_Node000004_Node000006"><a xlink:title=" ">
<path fill="none" stroke="#63b8ff" d="M686.8,-132.62C700.56,-132.62 714.84,-132.62 728.62,-132.62"/>
<polygon fill="#63b8ff" stroke="#63b8ff" points="728.54,-136.13 738.54,-132.63 728.54,-129.13 728.54,-136.13"/>
</a>
</g>
</g>
<!-- Node7 -->
<g id="Node000007" class="node">
<title>Node7</title>
<g id="a_Node000007"><a xlink:href="class_t_m_c2208_stepper.html#adb6243277ef84d2027b2b8bae6be5bd0" target="_top" xlink:title=" ">
<polygon fill="white" stroke="#666666" points="874.25,-104.88 752.5,-104.88 752.5,-74.38 874.25,-74.38 874.25,-104.88"/>
<text text-anchor="start" x="760.5" y="-91.38" font-family="Helvetica,sans-Serif" font-size="10.00">TMC2208Stepper::serial</text>
<text text-anchor="middle" x="813.38" y="-80.12" font-family="Helvetica,sans-Serif" font-size="10.00">_write</text>
</a>
</g>
</g>
<!-- Node4&#45;&gt;Node7 -->
<g id="edge6_Node000004_Node000007" class="edge">
<title>Node4&#45;&gt;Node7</title>
<g id="a_edge6_Node000004_Node000007"><a xlink:title=" ">
<path fill="none" stroke="#63b8ff" d="M663.25,-122.51C676.83,-120.06 691.18,-117.36 704.5,-114.62 716.32,-112.2 728.84,-109.46 740.99,-106.71"/>
<polygon fill="#63b8ff" stroke="#63b8ff" points="741.57,-110.16 750.54,-104.52 740.01,-103.34 741.57,-110.16"/>
</a>
</g>
</g>
</g>
</svg>
