<?xml version="1.0" encoding="UTF-8" standalone="no"?>
<!DOCTYPE svg PUBLIC "-//W3C//DTD SVG 1.1//EN"
 "http://www.w3.org/Graphics/SVG/1.1/DTD/svg11.dtd">
<!-- Generated by graphviz version 12.2.1 (20241206.2353)
 -->
<!-- Title: TMC2660Stepper::rms_current Pages: 1 -->
<svg width="622pt" height="82pt"
 viewBox="0.00 0.00 621.75 82.25" xmlns="http://www.w3.org/2000/svg" xmlns:xlink="http://www.w3.org/1999/xlink">
<g id="graph0" class="graph" transform="scale(1 1) rotate(0) translate(4 78.25)">
<title>TMC2660Stepper::rms_current</title>
<!-- Node1 -->
<g id="Node000001" class="node">
<title>Node1</title>
<g id="a_Node000001"><a xlink:title=" ">
<polygon fill="#999999" stroke="#666666" points="115,-42.88 0,-42.88 0,-12.37 115,-12.37 115,-42.88"/>
<text text-anchor="start" x="8" y="-29.38" font-family="Helvetica,sans-Serif" font-size="10.00">TMC2660Stepper::rms</text>
<text text-anchor="middle" x="57.5" y="-18.12" font-family="Helvetica,sans-Serif" font-size="10.00">_current</text>
</a>
</g>
</g>
<!-- Node2 -->
<g id="Node000002" class="node">
<title>Node2</title>
<g id="a_Node000002"><a xlink:href="class_t_m_c2660_stepper.html#a771f1425704e15ed90471bc7db2deaa4" target="_top" xlink:title=" ">
<polygon fill="white" stroke="#666666" points="270.88,-56.25 161.88,-56.25 161.88,-37 270.88,-37 270.88,-56.25"/>
<text text-anchor="middle" x="216.38" y="-42.75" font-family="Helvetica,sans-Serif" font-size="10.00">TMC2660Stepper::cs</text>
</a>
</g>
</g>
<!-- Node1&#45;&gt;Node2 -->
<g id="edge1_Node000001_Node000002" class="edge">
<title>Node1&#45;&gt;Node2</title>
<g id="a_edge1_Node000001_Node000002"><a xlink:title=" ">
<path fill="none" stroke="#63b8ff" d="M115.14,-34.48C126.46,-35.86 138.44,-37.31 150.02,-38.71"/>
<polygon fill="#63b8ff" stroke="#63b8ff" points="149.59,-42.18 159.94,-39.91 150.43,-35.23 149.59,-42.18"/>
</a>
</g>
</g>
<!-- Node4 -->
<g id="Node000004" class="node">
<title>Node4</title>
<g id="a_Node000004"><a xlink:href="class_t_m_c2660_stepper.html#a625480799004d350a27a24bbb066e4e9" target="_top" xlink:title=" ">
<polygon fill="white" stroke="#666666" points="281.75,-19.25 151,-19.25 151,0 281.75,0 281.75,-19.25"/>
<text text-anchor="middle" x="216.38" y="-5.75" font-family="Helvetica,sans-Serif" font-size="10.00">TMC2660Stepper::cs2rms</text>
</a>
</g>
</g>
<!-- Node1&#45;&gt;Node4 -->
<g id="edge4_Node000001_Node000004" class="edge">
<title>Node1&#45;&gt;Node4</title>
<g id="a_edge4_Node000001_Node000004"><a xlink:title=" ">
<path fill="none" stroke="#63b8ff" d="M115.14,-21.13C122.95,-20.23 131.08,-19.3 139.17,-18.37"/>
<polygon fill="#63b8ff" stroke="#63b8ff" points="139.52,-21.85 149.06,-17.23 138.73,-14.9 139.52,-21.85"/>
</a>
</g>
</g>
<!-- Node3 -->
<g id="Node000003" class="node">
<title>Node3</title>
<g id="a_Node000003"><a xlink:href="class_t_m_c2660_stepper.html#a466d10a3492459cd19e0dc22404578ba" target="_top" xlink:title=" ">
<polygon fill="white" stroke="#666666" points="437.25,-56.25 328.25,-56.25 328.25,-37 437.25,-37 437.25,-56.25"/>
<text text-anchor="middle" x="382.75" y="-42.75" font-family="Helvetica,sans-Serif" font-size="10.00">TMC2660Stepper::cs</text>
</a>
</g>
</g>
<!-- Node2&#45;&gt;Node3 -->
<g id="edge2_Node000002_Node000003" class="edge">
<title>Node2&#45;&gt;Node3</title>
<g id="a_edge2_Node000002_Node000003"><a xlink:title=" ">
<path fill="none" stroke="#63b8ff" d="M271.2,-46.62C285.67,-46.62 301.48,-46.62 316.51,-46.62"/>
<polygon fill="#63b8ff" stroke="#63b8ff" points="316.29,-50.13 326.29,-46.63 316.29,-43.13 316.29,-50.13"/>
</a>
</g>
</g>
<!-- Node3&#45;&gt;Node3 -->
<g id="edge3_Node000003_Node000003" class="edge">
<title>Node3&#45;&gt;Node3</title>
<g id="a_edge3_Node000003_Node000003"><a xlink:title=" ">
<path fill="none" stroke="#63b8ff" d="M356.76,-56.54C344.91,-65.15 353.57,-74.25 382.75,-74.25 399.16,-74.25 409.09,-71.37 412.52,-67.32"/>
<polygon fill="#63b8ff" stroke="#63b8ff" points="415.85,-66.25 409.24,-57.97 409.24,-68.56 415.85,-66.25"/>
</a>
</g>
</g>
<!-- Node5 -->
<g id="Node000005" class="node">
<title>Node5</title>
<g id="a_Node000005"><a xlink:href="class_t_m_c2660_stepper.html#ae9e78a1a2e7847988c779e81e3ae5545" target="_top" xlink:title=" ">
<polygon fill="white" stroke="#666666" points="447.75,-19.25 317.75,-19.25 317.75,0 447.75,0 447.75,-19.25"/>
<text text-anchor="middle" x="382.75" y="-5.75" font-family="Helvetica,sans-Serif" font-size="10.00">TMC2660Stepper::vsense</text>
</a>
</g>
</g>
<!-- Node4&#45;&gt;Node5 -->
<g id="edge5_Node000004_Node000005" class="edge">
<title>Node4&#45;&gt;Node5</title>
<g id="a_edge5_Node000004_Node000005"><a xlink:title=" ">
<path fill="none" stroke="#63b8ff" d="M281.87,-9.62C289.82,-9.62 297.99,-9.62 306.09,-9.62"/>
<polygon fill="#63b8ff" stroke="#63b8ff" points="305.93,-13.13 315.93,-9.63 305.93,-6.13 305.93,-13.13"/>
</a>
</g>
</g>
<!-- Node6 -->
<g id="Node000006" class="node">
<title>Node6</title>
<g id="a_Node000006"><a xlink:href="class_t_m_c2660_stepper.html#a8de8bc7d0e08e4ee4476276f599edf47" target="_top" xlink:title=" ">
<polygon fill="white" stroke="#666666" points="613.75,-19.25 483.75,-19.25 483.75,0 613.75,0 613.75,-19.25"/>
<text text-anchor="middle" x="548.75" y="-5.75" font-family="Helvetica,sans-Serif" font-size="10.00">TMC2660Stepper::vsense</text>
</a>
</g>
</g>
<!-- Node5&#45;&gt;Node6 -->
<g id="edge6_Node000005_Node000006" class="edge">
<title>Node5&#45;&gt;Node6</title>
<g id="a_edge6_Node000005_Node000006"><a xlink:title=" ">
<path fill="none" stroke="#63b8ff" d="M448.1,-9.62C455.96,-9.62 464.06,-9.62 472.08,-9.62"/>
<polygon fill="#63b8ff" stroke="#63b8ff" points="471.81,-13.13 481.81,-9.63 471.81,-6.13 471.81,-13.13"/>
</a>
</g>
</g>
<!-- Node6&#45;&gt;Node6 -->
<g id="edge7_Node000006_Node000006" class="edge">
<title>Node6&#45;&gt;Node6</title>
<g id="a_edge7_Node000006_Node000006"><a xlink:title=" ">
<path fill="none" stroke="#63b8ff" d="M522.76,-19.54C510.91,-28.15 519.57,-37.25 548.75,-37.25 565.16,-37.25 575.09,-34.37 578.52,-30.32"/>
<polygon fill="#63b8ff" stroke="#63b8ff" points="581.85,-29.25 575.24,-20.97 575.24,-31.56 581.85,-29.25"/>
</a>
</g>
</g>
</g>
</svg>
