<?xml version="1.0" encoding="UTF-8" standalone="no"?>
<!DOCTYPE svg PUBLIC "-//W3C//DTD SVG 1.1//EN"
 "http://www.w3.org/Graphics/SVG/1.1/DTD/svg11.dtd">
<!-- Generated by graphviz version 12.2.1 (20241206.2353)
 -->
<!-- Title: TMC2209Stepper Pages: 1 -->
<svg width="222pt" height="156pt"
 viewBox="0.00 0.00 221.94 156.00" xmlns="http://www.w3.org/2000/svg" xmlns:xlink="http://www.w3.org/1999/xlink">
<g id="graph0" class="graph" transform="scale(1 1) rotate(0) translate(4 152)">
<title>TMC2209Stepper</title>
<!-- Node1 -->
<g id="Node000001" class="node">
<title>Node1</title>
<g id="a_Node000001"><a xlink:title=" ">
<polygon fill="#999999" stroke="#666666" points="160,-19.25 67.5,-19.25 67.5,0 160,0 160,-19.25"/>
<text text-anchor="middle" x="113.75" y="-5.75" font-family="Helvetica,sans-Serif" font-size="10.00">TMC2209Stepper</text>
</a>
</g>
</g>
<!-- Node2 -->
<g id="Node000002" class="node">
<title>Node2</title>
<g id="a_Node000002"><a xlink:href="class_t_m_c2208_stepper.html" target="_top" xlink:title=" ">
<polygon fill="white" stroke="#666666" points="160,-75.5 67.5,-75.5 67.5,-56.25 160,-56.25 160,-75.5"/>
<text text-anchor="middle" x="113.75" y="-62" font-family="Helvetica,sans-Serif" font-size="10.00">TMC2208Stepper</text>
</a>
</g>
</g>
<!-- Node2&#45;&gt;Node1 -->
<g id="edge1_Node000001_Node000002" class="edge">
<title>Node2&#45;&gt;Node1</title>
<g id="a_edge1_Node000001_Node000002"><a xlink:title=" ">
<path fill="none" stroke="#63b8ff" d="M113.75,-44.69C113.75,-35.98 113.75,-26.24 113.75,-19.42"/>
<polygon fill="#63b8ff" stroke="#63b8ff" points="110.25,-44.4 113.75,-54.4 117.25,-44.4 110.25,-44.4"/>
</a>
</g>
</g>
<!-- Node3 -->
<g id="Node000003" class="node">
<title>Node3</title>
<g id="a_Node000003"><a xlink:href="class_t_m_c_stepper.html" target="_top" xlink:title=" ">
<polygon fill="white" stroke="#666666" points="71.5,-148 0,-148 0,-128.75 71.5,-128.75 71.5,-148"/>
<text text-anchor="middle" x="35.75" y="-134.5" font-family="Helvetica,sans-Serif" font-size="10.00">TMCStepper</text>
</a>
</g>
</g>
<!-- Node3&#45;&gt;Node2 -->
<g id="edge2_Node000002_Node000003" class="edge">
<title>Node3&#45;&gt;Node2</title>
<g id="a_edge2_Node000002_Node000003"><a xlink:title=" ">
<path fill="none" stroke="#63b8ff" d="M53.92,-120.95C69.43,-106.93 91.15,-87.3 103.71,-75.95"/>
<polygon fill="#63b8ff" stroke="#63b8ff" points="51.82,-118.13 46.75,-127.43 56.52,-123.32 51.82,-118.13"/>
</a>
</g>
</g>
<!-- Node4 -->
<g id="Node000004" class="node">
<title>Node4</title>
<g id="a_Node000004"><a xlink:href="class_stream.html" target="_top" xlink:title=" ">
<polygon fill="white" stroke="#666666" points="137.5,-148 90,-148 90,-128.75 137.5,-128.75 137.5,-148"/>
<text text-anchor="middle" x="113.75" y="-134.5" font-family="Helvetica,sans-Serif" font-size="10.00">Stream</text>
</a>
</g>
</g>
<!-- Node4&#45;&gt;Node2 -->
<g id="edge3_Node000002_Node000004" class="edge">
<title>Node4&#45;&gt;Node2</title>
<g id="a_edge3_Node000002_Node000004"><a xlink:title=" ">
<path fill="none" stroke="#9a32cd" stroke-dasharray="5,2" d="M113.75,-117.3C113.75,-103.69 113.75,-86.35 113.75,-75.95"/>
<polygon fill="#9a32cd" stroke="#9a32cd" points="110.25,-116.93 113.75,-126.93 117.25,-116.93 110.25,-116.93"/>
</a>
</g>
<text text-anchor="start" x="116.75" y="-98.25" font-family="Helvetica,sans-Serif" font-size="10.00" fill="grey">HWSerial</text>
</g>
<!-- Node5 -->
<g id="Node000005" class="node">
<title>Node5</title>
<g id="a_Node000005"><a xlink:href="class_s_switch.html" target="_top" xlink:title=" ">
<polygon fill="white" stroke="#666666" points="211.12,-148 158.38,-148 158.38,-128.75 211.12,-128.75 211.12,-148"/>
<text text-anchor="middle" x="184.75" y="-134.5" font-family="Helvetica,sans-Serif" font-size="10.00">SSwitch</text>
</a>
</g>
</g>
<!-- Node5&#45;&gt;Node2 -->
<g id="edge4_Node000002_Node000005" class="edge">
<title>Node5&#45;&gt;Node2</title>
<g id="a_edge4_Node000002_Node000005"><a xlink:title=" ">
<path fill="none" stroke="#9a32cd" stroke-dasharray="5,2" d="M177.95,-117.74C174.38,-109.53 169.35,-100.33 162.75,-93.5 155.61,-86.12 145.99,-80.29 137.15,-75.99"/>
<polygon fill="#9a32cd" stroke="#9a32cd" points="174.63,-118.86 181.49,-126.93 181.16,-116.34 174.63,-118.86"/>
</a>
</g>
<text text-anchor="start" x="177.19" y="-98.25" font-family="Helvetica,sans-Serif" font-size="10.00" fill="grey">sswitch</text>
</g>
</g>
</svg>
