<?xml version="1.0" encoding="UTF-8" standalone="no"?>
<!DOCTYPE svg PUBLIC "-//W3C//DTD SVG 1.1//EN"
 "http://www.w3.org/Graphics/SVG/1.1/DTD/svg11.dtd">
<!-- Generated by graphviz version 12.2.1 (20241206.2353)
 -->
<!-- Title: TMC2660Stepper::toff Pages: 1 -->
<svg width="447pt" height="64pt"
 viewBox="0.00 0.00 446.75 64.25" xmlns="http://www.w3.org/2000/svg" xmlns:xlink="http://www.w3.org/1999/xlink">
<g id="graph0" class="graph" transform="scale(1 1) rotate(0) translate(4 60.25)">
<title>TMC2660Stepper::toff</title>
<!-- Node1 -->
<g id="Node000001" class="node">
<title>Node1</title>
<g id="a_Node000001"><a xlink:title=" ">
<polygon fill="#999999" stroke="#666666" points="438.75,-37.25 326,-37.25 326,-18 438.75,-18 438.75,-37.25"/>
<text text-anchor="middle" x="382.38" y="-23.75" font-family="Helvetica,sans-Serif" font-size="10.00">TMC2660Stepper::toff</text>
</a>
</g>
</g>
<!-- Node1&#45;&gt;Node1 -->
<g id="edge4_Node000001_Node000001" class="edge">
<title>Node1&#45;&gt;Node1</title>
<g id="a_edge4_Node000001_Node000001"><a xlink:title=" ">
<path fill="none" stroke="#63b8ff" d="M409.05,-48.32C405.97,-52.37 397.08,-55.25 382.38,-55.25 356.23,-55.25 348.47,-46.15 359.09,-37.54"/>
<polygon fill="#63b8ff" stroke="#63b8ff" points="412.45,-47.47 406.12,-38.98 405.77,-49.57 412.45,-47.47"/>
</a>
</g>
</g>
<!-- Node2 -->
<g id="Node000002" class="node">
<title>Node2</title>
<g id="a_Node000002"><a xlink:href="class_t_m_c2660_stepper.html#abe01a905588d5feb41ec3a967512027f" target="_top" xlink:title=" ">
<polygon fill="white" stroke="#666666" points="290,-37.25 177.25,-37.25 177.25,-18 290,-18 290,-37.25"/>
<text text-anchor="middle" x="233.62" y="-23.75" font-family="Helvetica,sans-Serif" font-size="10.00">TMC2660Stepper::toff</text>
</a>
</g>
</g>
<!-- Node1&#45;&gt;Node2 -->
<g id="edge1_Node000001_Node000002" class="edge">
<title>Node1&#45;&gt;Node2</title>
<g id="a_edge1_Node000001_Node000002"><a xlink:title=" ">
<path fill="none" stroke="#63b8ff" d="M314.51,-27.62C306.37,-27.62 298.13,-27.62 290.18,-27.62"/>
<polygon fill="#63b8ff" stroke="#63b8ff" points="314.38,-31.13 324.38,-27.63 314.38,-24.13 314.38,-31.13"/>
</a>
</g>
</g>
<!-- Node3 -->
<g id="Node000003" class="node">
<title>Node3</title>
<g id="a_Node000003"><a xlink:href="class_t_m_c2660_stepper.html#a36fec657eca5845bef6668fd2fce1b54" target="_top" xlink:title=" ">
<polygon fill="white" stroke="#666666" points="131.5,-56.25 9.75,-56.25 9.75,-37 131.5,-37 131.5,-56.25"/>
<text text-anchor="middle" x="70.62" y="-42.75" font-family="Helvetica,sans-Serif" font-size="10.00">TMC2660Stepper::begin</text>
</a>
</g>
</g>
<!-- Node2&#45;&gt;Node3 -->
<g id="edge2_Node000002_Node000003" class="edge">
<title>Node2&#45;&gt;Node3</title>
<g id="a_edge2_Node000002_Node000003"><a xlink:title=" ">
<path fill="none" stroke="#63b8ff" d="M165.68,-35.53C154.44,-36.85 142.83,-38.22 131.78,-39.53"/>
<polygon fill="#63b8ff" stroke="#63b8ff" points="165.74,-39.04 175.26,-34.39 164.92,-32.09 165.74,-39.04"/>
</a>
</g>
</g>
<!-- Node4 -->
<g id="Node000004" class="node">
<title>Node4</title>
<g id="a_Node000004"><a xlink:href="class_t_m_c2660_stepper.html#aec662c467455f109ba504f69495ac90f" target="_top" xlink:title=" ">
<polygon fill="white" stroke="#666666" points="141.25,-19.25 0,-19.25 0,0 141.25,0 141.25,-19.25"/>
<text text-anchor="middle" x="70.62" y="-5.75" font-family="Helvetica,sans-Serif" font-size="10.00">TMC2660Stepper::isEnabled</text>
</a>
</g>
</g>
<!-- Node2&#45;&gt;Node4 -->
<g id="edge3_Node000002_Node000004" class="edge">
<title>Node2&#45;&gt;Node4</title>
<g id="a_edge3_Node000002_Node000004"><a xlink:title=" ">
<path fill="none" stroke="#63b8ff" d="M165.39,-20.11C157.52,-19.23 149.48,-18.33 141.57,-17.44"/>
<polygon fill="#63b8ff" stroke="#63b8ff" points="164.94,-23.58 175.26,-21.21 165.71,-16.62 164.94,-23.58"/>
</a>
</g>
</g>
</g>
</svg>
