<?xml version="1.0" encoding="UTF-8" standalone="no"?>
<!DOCTYPE svg PUBLIC "-//W3C//DTD SVG 1.1//EN"
 "http://www.w3.org/Graphics/SVG/1.1/DTD/svg11.dtd">
<!-- Generated by graphviz version 12.2.1 (20241206.2353)
 -->
<!-- Title: TMC2240Stepper::hysteresis_start Pages: 1 -->
<svg width="460pt" height="51pt"
 viewBox="0.00 0.00 459.50 50.88" xmlns="http://www.w3.org/2000/svg" xmlns:xlink="http://www.w3.org/1999/xlink">

<svg id="main" version="1.1" xmlns="http://www.w3.org/2000/svg" xmlns:xlink="http://www.w3.org/1999/xlink" xml:space="preserve">

<style type="text/css"><![CDATA[
.node, .edge {opacity: 0.7;}
.node.selected, .edge.selected {opacity: 1;}
.edge:hover path { stroke: red; }
.edge:hover polygon { stroke: red; fill: red; }
]]></style>
<script type="application/ecmascript" xlink:href="svg.min.js"/>
<svg id="graph" class="graph">
<g id="graph0" class="graph" transform="scale(1 1) rotate(0) translate(4 46.88)">
<title>TMC2240Stepper::hysteresis_start</title>
<!-- Node1 -->
<g id="Node000001" class="node">
<title>Node1</title>
<g id="a_Node000001"><a xlink:title=" ">
<polygon fill="#999999" stroke="#666666" points="143.5,-30.5 0,-30.5 0,0 143.5,0 143.5,-30.5"/>
<text text-anchor="start" x="8" y="-17" font-family="Helvetica,sans-Serif" font-size="10.00">TMC2240Stepper::hysteresis</text>
<text text-anchor="middle" x="71.75" y="-5.75" font-family="Helvetica,sans-Serif" font-size="10.00">_start</text>
</a>
</g>
</g>
<!-- Node2 -->
<g id="Node000002" class="node">
<title>Node2</title>
<g id="a_Node000002"><a xlink:href="class_t_m_c2240_stepper.html#a06002cf5665d817a1098a212a1984e8b" target="_top" xlink:title=" ">
<polygon fill="white" stroke="#666666" points="297.5,-24.88 179.5,-24.88 179.5,-5.63 297.5,-5.63 297.5,-24.88"/>
<text text-anchor="middle" x="238.5" y="-11.38" font-family="Helvetica,sans-Serif" font-size="10.00">TMC2240Stepper::hstrt</text>
</a>
</g>
</g>
<!-- Node1&#45;&gt;Node2 -->
<g id="edge1_Node000001_Node000002" class="edge">
<title>Node1&#45;&gt;Node2</title>
<g id="a_edge1_Node000001_Node000002"><a xlink:title=" ">
<path fill="none" stroke="#63b8ff" d="M143.57,-15.25C151.54,-15.25 159.66,-15.25 167.62,-15.25"/>
<polygon fill="#63b8ff" stroke="#63b8ff" points="167.61,-18.75 177.61,-15.25 167.61,-11.75 167.61,-18.75"/>
</a>
</g>
</g>
<!-- Node3 -->
<g id="Node000003" class="node">
<title>Node3</title>
<g id="a_Node000003"><a xlink:href="class_t_m_c2240_stepper.html#a6540a21dcf3bbc0bc1c05c6cce512c71" target="_top" xlink:title=" ">
<polygon fill="white" stroke="#666666" points="451.5,-24.88 333.5,-24.88 333.5,-5.63 451.5,-5.63 451.5,-24.88"/>
<text text-anchor="middle" x="392.5" y="-11.38" font-family="Helvetica,sans-Serif" font-size="10.00">TMC2240Stepper::hstrt</text>
</a>
</g>
</g>
<!-- Node2&#45;&gt;Node3 -->
<g id="edge2_Node000002_Node000003" class="edge">
<title>Node2&#45;&gt;Node3</title>
<g id="a_edge2_Node000002_Node000003"><a xlink:title=" ">
<path fill="none" stroke="#63b8ff" d="M297.83,-15.25C305.69,-15.25 313.8,-15.25 321.83,-15.25"/>
<polygon fill="#63b8ff" stroke="#63b8ff" points="321.56,-18.75 331.56,-15.25 321.56,-11.75 321.56,-18.75"/>
</a>
</g>
</g>
<!-- Node3&#45;&gt;Node3 -->
<g id="edge3_Node000003_Node000003" class="edge">
<title>Node3&#45;&gt;Node3</title>
<g id="a_edge3_Node000003_Node000003"><a xlink:title=" ">
<path fill="none" stroke="#63b8ff" d="M368.39,-25.16C357.39,-33.77 365.43,-42.88 392.5,-42.88 407.73,-42.88 416.93,-39.99 420.11,-35.94"/>
<polygon fill="#63b8ff" stroke="#63b8ff" points="423.5,-35.03 417.08,-26.6 416.84,-37.19 423.5,-35.03"/>
</a>
</g>
</g>
</g>
</svg>
</svg>

<style type='text/css'>
<![CDATA[
[data-mouse-over-selected='false'] { opacity: 0.7; }
[data-mouse-over-selected='true']  { opacity: 1.0; }
]]>
</style>
<script type="application/ecmascript"><![CDATA[
document.addEventListener('DOMContentLoaded', (event) => {
  highlightEdges();
  highlightAdjacentNodes();
});
]]></script>
</svg>
