<?xml version="1.0" encoding="UTF-8" standalone="no"?>
<!DOCTYPE svg PUBLIC "-//W3C//DTD SVG 1.1//EN"
 "http://www.w3.org/Graphics/SVG/1.1/DTD/svg11.dtd">
<!-- Generated by graphviz version 12.2.1 (20241206.2353)
 -->
<!-- Title: TMCStepper::TPOWERDOWN Pages: 1 -->
<svg width="352pt" height="249pt"
 viewBox="0.00 0.00 352.00 249.25" xmlns="http://www.w3.org/2000/svg" xmlns:xlink="http://www.w3.org/1999/xlink">

<svg id="main" version="1.1" xmlns="http://www.w3.org/2000/svg" xmlns:xlink="http://www.w3.org/1999/xlink" xml:space="preserve">

<style type="text/css"><![CDATA[
.node, .edge {opacity: 0.7;}
.node.selected, .edge.selected {opacity: 1;}
.edge:hover path { stroke: red; }
.edge:hover polygon { stroke: red; fill: red; }
]]></style>
<script type="application/ecmascript" xlink:href="svg.min.js"/>
<svg id="graph" class="graph">
<g id="graph0" class="graph" transform="scale(1 1) rotate(0) translate(4 245.25)">
<title>TMCStepper::TPOWERDOWN</title>
<!-- Node1 -->
<g id="Node000001" class="node">
<title>Node1</title>
<g id="a_Node000001"><a xlink:title=" ">
<polygon fill="#999999" stroke="#666666" points="344,-130.25 190,-130.25 190,-111 344,-111 344,-130.25"/>
<text text-anchor="middle" x="267" y="-116.75" font-family="Helvetica,sans-Serif" font-size="10.00">TMCStepper::TPOWERDOWN</text>
</a>
</g>
</g>
<!-- Node2 -->
<g id="Node000002" class="node">
<title>Node2</title>
<g id="a_Node000002"><a xlink:href="class_t_m_c_stepper.html#a78b7f66579ea8663bf2bb77e3c1ef37a" target="_top" xlink:title=" ">
<polygon fill="white" stroke="#666666" points="154,-241.25 0,-241.25 0,-222 154,-222 154,-241.25"/>
<text text-anchor="middle" x="77" y="-227.75" font-family="Helvetica,sans-Serif" font-size="10.00">TMCStepper::INIT_REGISTER</text>
</a>
</g>
</g>
<!-- Node1&#45;&gt;Node2 -->
<g id="edge1_Node000001_Node000002" class="edge">
<title>Node1&#45;&gt;Node2</title>
<g id="a_edge1_Node000001_Node000002"><a xlink:title=" ">
<path fill="none" stroke="#63b8ff" d="M249.5,-138.66C229.11,-159.83 192.39,-194.47 154,-213.62 147.69,-216.77 140.81,-219.38 133.85,-221.55"/>
<polygon fill="#63b8ff" stroke="#63b8ff" points="251.84,-141.27 256.16,-131.6 246.75,-136.47 251.84,-141.27"/>
</a>
</g>
</g>
<!-- Node3 -->
<g id="Node000003" class="node">
<title>Node3</title>
<g id="a_Node000003"><a xlink:href="class_t_m_c2130_stepper.html#ac62d32ad08be0a34b411bdd5a8489246" target="_top" xlink:title=" ">
<polygon fill="white" stroke="#666666" points="136.75,-204.25 17.25,-204.25 17.25,-185 136.75,-185 136.75,-204.25"/>
<text text-anchor="middle" x="77" y="-190.75" font-family="Helvetica,sans-Serif" font-size="10.00">TMC2130Stepper::push</text>
</a>
</g>
</g>
<!-- Node1&#45;&gt;Node3 -->
<g id="edge2_Node000001_Node000003" class="edge">
<title>Node1&#45;&gt;Node3</title>
<g id="a_edge2_Node000001_Node000003"><a xlink:title=" ">
<path fill="none" stroke="#63b8ff" d="M239.08,-136.3C216.87,-148.69 184.21,-165.66 154,-176.62 145.71,-179.63 136.74,-182.27 127.95,-184.54"/>
<polygon fill="#63b8ff" stroke="#63b8ff" points="240.8,-139.35 247.77,-131.38 237.35,-133.26 240.8,-139.35"/>
</a>
</g>
</g>
<!-- Node4 -->
<g id="Node000004" class="node">
<title>Node4</title>
<g id="a_Node000004"><a xlink:href="class_t_m_c2160_stepper.html#ae8035a0cb8151d5227d8528e540e637d" target="_top" xlink:title=" ">
<polygon fill="white" stroke="#666666" points="136.75,-167.25 17.25,-167.25 17.25,-148 136.75,-148 136.75,-167.25"/>
<text text-anchor="middle" x="77" y="-153.75" font-family="Helvetica,sans-Serif" font-size="10.00">TMC2160Stepper::push</text>
</a>
</g>
</g>
<!-- Node1&#45;&gt;Node4 -->
<g id="edge3_Node000001_Node000004" class="edge">
<title>Node1&#45;&gt;Node4</title>
<g id="a_edge3_Node000001_Node000004"><a xlink:title=" ">
<path fill="none" stroke="#63b8ff" d="M203.46,-132.93C179.38,-137.67 152.2,-143.02 129.31,-147.53"/>
<polygon fill="#63b8ff" stroke="#63b8ff" points="204.01,-136.39 213.14,-131.03 202.66,-129.52 204.01,-136.39"/>
</a>
</g>
</g>
<!-- Node5 -->
<g id="Node000005" class="node">
<title>Node5</title>
<g id="a_Node000005"><a xlink:href="class_t_m_c2208_stepper.html#a8eb0d71fbfeeb24c9092328c44fab7e5" target="_top" xlink:title=" ">
<polygon fill="white" stroke="#666666" points="136.75,-130.25 17.25,-130.25 17.25,-111 136.75,-111 136.75,-130.25"/>
<text text-anchor="middle" x="77" y="-116.75" font-family="Helvetica,sans-Serif" font-size="10.00">TMC2208Stepper::push</text>
</a>
</g>
</g>
<!-- Node1&#45;&gt;Node5 -->
<g id="edge4_Node000001_Node000005" class="edge">
<title>Node1&#45;&gt;Node5</title>
<g id="a_edge4_Node000001_Node000005"><a xlink:title=" ">
<path fill="none" stroke="#63b8ff" d="M178.38,-120.62C164.39,-120.62 150.22,-120.62 137.1,-120.62"/>
<polygon fill="#63b8ff" stroke="#63b8ff" points="178.02,-124.13 188.02,-120.63 178.02,-117.13 178.02,-124.13"/>
</a>
</g>
</g>
<!-- Node6 -->
<g id="Node000006" class="node">
<title>Node6</title>
<g id="a_Node000006"><a xlink:href="class_t_m_c2209_stepper.html#a180f4b9a78e526592d946ec12f71982e" target="_top" xlink:title=" ">
<polygon fill="white" stroke="#666666" points="136.75,-93.25 17.25,-93.25 17.25,-74 136.75,-74 136.75,-93.25"/>
<text text-anchor="middle" x="77" y="-79.75" font-family="Helvetica,sans-Serif" font-size="10.00">TMC2209Stepper::push</text>
</a>
</g>
</g>
<!-- Node1&#45;&gt;Node6 -->
<g id="edge5_Node000001_Node000006" class="edge">
<title>Node1&#45;&gt;Node6</title>
<g id="a_edge5_Node000001_Node000006"><a xlink:title=" ">
<path fill="none" stroke="#63b8ff" d="M203.46,-108.32C179.38,-103.58 152.2,-98.23 129.31,-93.72"/>
<polygon fill="#63b8ff" stroke="#63b8ff" points="202.66,-111.73 213.14,-110.22 204.01,-104.86 202.66,-111.73"/>
</a>
</g>
</g>
<!-- Node7 -->
<g id="Node000007" class="node">
<title>Node7</title>
<g id="a_Node000007"><a xlink:href="class_t_m_c5130_stepper.html#a55e61f5181d74f26c9d35c54e4436d7a" target="_top" xlink:title=" ">
<polygon fill="white" stroke="#666666" points="136.75,-56.25 17.25,-56.25 17.25,-37 136.75,-37 136.75,-56.25"/>
<text text-anchor="middle" x="77" y="-42.75" font-family="Helvetica,sans-Serif" font-size="10.00">TMC5130Stepper::push</text>
</a>
</g>
</g>
<!-- Node1&#45;&gt;Node7 -->
<g id="edge6_Node000001_Node000007" class="edge">
<title>Node1&#45;&gt;Node7</title>
<g id="a_edge6_Node000001_Node000007"><a xlink:title=" ">
<path fill="none" stroke="#63b8ff" d="M239.08,-104.95C216.87,-92.56 184.21,-75.59 154,-64.62 145.71,-61.62 136.74,-58.98 127.95,-56.71"/>
<polygon fill="#63b8ff" stroke="#63b8ff" points="237.35,-107.99 247.77,-109.87 240.8,-101.9 237.35,-107.99"/>
</a>
</g>
</g>
<!-- Node8 -->
<g id="Node000008" class="node">
<title>Node8</title>
<g id="a_Node000008"><a xlink:href="class_t_m_c5160_stepper.html#a5a12974304588f9d01898d91ba854b87" target="_top" xlink:title=" ">
<polygon fill="white" stroke="#666666" points="136.75,-19.25 17.25,-19.25 17.25,0 136.75,0 136.75,-19.25"/>
<text text-anchor="middle" x="77" y="-5.75" font-family="Helvetica,sans-Serif" font-size="10.00">TMC5160Stepper::push</text>
</a>
</g>
</g>
<!-- Node1&#45;&gt;Node8 -->
<g id="edge7_Node000001_Node000008" class="edge">
<title>Node1&#45;&gt;Node8</title>
<g id="a_edge7_Node000001_Node000008"><a xlink:title=" ">
<path fill="none" stroke="#63b8ff" d="M249.5,-102.59C229.11,-81.42 192.39,-46.78 154,-27.62 147.69,-24.48 140.81,-21.87 133.85,-19.7"/>
<polygon fill="#63b8ff" stroke="#63b8ff" points="246.75,-104.78 256.16,-109.65 251.84,-99.98 246.75,-104.78"/>
</a>
</g>
</g>
</g>
</svg>
</svg>

<style type='text/css'>
<![CDATA[
[data-mouse-over-selected='false'] { opacity: 0.7; }
[data-mouse-over-selected='true']  { opacity: 1.0; }
]]>
</style>
<script type="application/ecmascript"><![CDATA[
document.addEventListener('DOMContentLoaded', (event) => {
  highlightEdges();
  highlightAdjacentNodes();
});
]]></script>
</svg>
