<?xml version="1.0" encoding="UTF-8" standalone="no"?>
<!DOCTYPE svg PUBLIC "-//W3C//DTD SVG 1.1//EN"
 "http://www.w3.org/Graphics/SVG/1.1/DTD/svg11.dtd">
<!-- Generated by graphviz version 12.2.1 (20241206.2353)
 -->
<!-- Title: TMC2130Stepper::TMC2130Stepper Pages: 1 -->
<svg width="352pt" height="64pt"
 viewBox="0.00 0.00 352.00 64.25" xmlns="http://www.w3.org/2000/svg" xmlns:xlink="http://www.w3.org/1999/xlink">
<g id="graph0" class="graph" transform="scale(1 1) rotate(0) translate(4 60.25)">
<title>TMC2130Stepper::TMC2130Stepper</title>
<!-- Node1 -->
<g id="Node000001" class="node">
<title>Node1</title>
<g id="a_Node000001"><a xlink:title=" ">
<polygon fill="#999999" stroke="#666666" points="175,-37.25 0,-37.25 0,-18 175,-18 175,-37.25"/>
<text text-anchor="middle" x="87.5" y="-23.75" font-family="Helvetica,sans-Serif" font-size="10.00">TMC2130Stepper::TMC2130Stepper</text>
</a>
</g>
</g>
<!-- Node2 -->
<g id="Node000002" class="node">
<title>Node2</title>
<g id="a_Node000002"><a xlink:href="class_t_m_c2130_stepper.html#abd1d08df305673b41b1b9c3106fb9c68" target="_top" xlink:title=" ">
<polygon fill="white" stroke="#666666" points="344,-56.25 211,-56.25 211,-37 344,-37 344,-56.25"/>
<text text-anchor="middle" x="277.5" y="-42.75" font-family="Helvetica,sans-Serif" font-size="10.00">TMC2130Stepper::defaults</text>
</a>
</g>
</g>
<!-- Node1&#45;&gt;Node2 -->
<g id="edge1_Node000001_Node000002" class="edge">
<title>Node1&#45;&gt;Node2</title>
<g id="a_edge1_Node000001_Node000002"><a xlink:title=" ">
<path fill="none" stroke="#63b8ff" d="M175.35,-36.4C183.3,-37.21 191.32,-38.02 199.18,-38.81"/>
<polygon fill="#63b8ff" stroke="#63b8ff" points="198.74,-42.28 209.04,-39.81 199.44,-35.32 198.74,-42.28"/>
</a>
</g>
</g>
<!-- Node3 -->
<g id="Node000003" class="node">
<title>Node3</title>
<g id="a_Node000003"><a xlink:href="class_t_m_c_stepper.html#a8a8813bde06653e0b66f93e57387a02f" target="_top" xlink:title=" ">
<polygon fill="white" stroke="#666666" points="344,-19.25 211,-19.25 211,0 344,0 344,-19.25"/>
<text text-anchor="middle" x="277.5" y="-5.75" font-family="Helvetica,sans-Serif" font-size="10.00">TMCStepper::TMCStepper</text>
</a>
</g>
</g>
<!-- Node1&#45;&gt;Node3 -->
<g id="edge2_Node000001_Node000003" class="edge">
<title>Node1&#45;&gt;Node3</title>
<g id="a_edge2_Node000001_Node000003"><a xlink:title=" ">
<path fill="none" stroke="#63b8ff" d="M175.35,-19.31C183.3,-18.55 191.32,-17.78 199.18,-17.03"/>
<polygon fill="#63b8ff" stroke="#63b8ff" points="199.42,-20.52 209.04,-16.08 198.75,-13.55 199.42,-20.52"/>
</a>
</g>
</g>
</g>
</svg>
