<?xml version="1.0" encoding="UTF-8" standalone="no"?>
<!DOCTYPE svg PUBLIC "-//W3C//DTD SVG 1.1//EN"
 "http://www.w3.org/Graphics/SVG/1.1/DTD/svg11.dtd">
<!-- Generated by graphviz version 12.2.1 (20241206.2353)
 -->
<!-- Title: TMC2240Stepper::slaveaddr Pages: 1 -->
<svg width="497pt" height="45pt"
 viewBox="0.00 0.00 497.00 45.25" xmlns="http://www.w3.org/2000/svg" xmlns:xlink="http://www.w3.org/1999/xlink">
<g id="graph0" class="graph" transform="scale(1 1) rotate(0) translate(4 41.25)">
<title>TMC2240Stepper::slaveaddr</title>
<!-- Node1 -->
<g id="Node000001" class="node">
<title>Node1</title>
<g id="a_Node000001"><a xlink:title=" ">
<polygon fill="#999999" stroke="#666666" points="140.5,-19.25 0,-19.25 0,0 140.5,0 140.5,-19.25"/>
<text text-anchor="middle" x="70.25" y="-5.75" font-family="Helvetica,sans-Serif" font-size="10.00">TMC2240Stepper::slaveaddr</text>
</a>
</g>
</g>
<!-- Node2 -->
<g id="Node000002" class="node">
<title>Node2</title>
<g id="a_Node000002"><a xlink:href="class_t_m_c2240_stepper.html#afb143601252a38d9a2456f211609ab35" target="_top" xlink:title=" ">
<polygon fill="white" stroke="#666666" points="314.75,-19.25 176.5,-19.25 176.5,0 314.75,0 314.75,-19.25"/>
<text text-anchor="middle" x="245.62" y="-5.75" font-family="Helvetica,sans-Serif" font-size="10.00">TMC2240Stepper::nodeaddr</text>
</a>
</g>
</g>
<!-- Node1&#45;&gt;Node2 -->
<g id="edge1_Node000001_Node000002" class="edge">
<title>Node1&#45;&gt;Node2</title>
<g id="a_edge1_Node000001_Node000002"><a xlink:title=" ">
<path fill="none" stroke="#63b8ff" d="M140.77,-9.62C148.71,-9.62 156.85,-9.62 164.91,-9.62"/>
<polygon fill="#63b8ff" stroke="#63b8ff" points="164.71,-13.13 174.71,-9.63 164.71,-6.13 164.71,-13.13"/>
</a>
</g>
</g>
<!-- Node3 -->
<g id="Node000003" class="node">
<title>Node3</title>
<g id="a_Node000003"><a xlink:href="class_t_m_c2240_stepper.html#a704a817115609f0c4dffebe43e6f3d64" target="_top" xlink:title=" ">
<polygon fill="white" stroke="#666666" points="489,-19.25 350.75,-19.25 350.75,0 489,0 489,-19.25"/>
<text text-anchor="middle" x="419.88" y="-5.75" font-family="Helvetica,sans-Serif" font-size="10.00">TMC2240Stepper::nodeaddr</text>
</a>
</g>
</g>
<!-- Node2&#45;&gt;Node3 -->
<g id="edge2_Node000002_Node000003" class="edge">
<title>Node2&#45;&gt;Node3</title>
<g id="a_edge2_Node000002_Node000003"><a xlink:title=" ">
<path fill="none" stroke="#63b8ff" d="M315.2,-9.62C322.95,-9.62 330.9,-9.62 338.79,-9.62"/>
<polygon fill="#63b8ff" stroke="#63b8ff" points="338.74,-13.13 348.74,-9.63 338.74,-6.13 338.74,-13.13"/>
</a>
</g>
</g>
<!-- Node3&#45;&gt;Node3 -->
<g id="edge3_Node000003_Node000003" class="edge">
<title>Node3&#45;&gt;Node3</title>
<g id="a_edge3_Node000003_Node000003"><a xlink:title=" ">
<path fill="none" stroke="#63b8ff" d="M392.6,-19.54C380.15,-28.15 389.25,-37.25 419.88,-37.25 437.1,-37.25 447.52,-34.37 451.12,-30.32"/>
<polygon fill="#63b8ff" stroke="#63b8ff" points="454.41,-29.14 447.68,-20.96 447.85,-31.55 454.41,-29.14"/>
</a>
</g>
</g>
</g>
</svg>
