<?xml version="1.0" encoding="UTF-8" standalone="no"?>
<!DOCTYPE svg PUBLIC "-//W3C//DTD SVG 1.1//EN"
 "http://www.w3.org/Graphics/SVG/1.1/DTD/svg11.dtd">
<!-- Generated by graphviz version 12.2.1 (20241206.2353)
 -->
<!-- Title: TMC2660Stepper::tbl Pages: 1 -->
<svg width="444pt" height="101pt"
 viewBox="0.00 0.00 443.75 101.25" xmlns="http://www.w3.org/2000/svg" xmlns:xlink="http://www.w3.org/1999/xlink">

<svg id="main" version="1.1" xmlns="http://www.w3.org/2000/svg" xmlns:xlink="http://www.w3.org/1999/xlink" xml:space="preserve">

<style type="text/css"><![CDATA[
.node, .edge {opacity: 0.7;}
.node.selected, .edge.selected {opacity: 1;}
.edge:hover path { stroke: red; }
.edge:hover polygon { stroke: red; fill: red; }
]]></style>
<script type="application/ecmascript" xlink:href="svg.min.js"/>
<svg id="graph" class="graph">
<g id="graph0" class="graph" transform="scale(1 1) rotate(0) translate(4 97.25)">
<title>TMC2660Stepper::tbl</title>
<!-- Node1 -->
<g id="Node000001" class="node">
<title>Node1</title>
<g id="a_Node000001"><a xlink:title=" ">
<polygon fill="#999999" stroke="#666666" points="435.75,-56.25 326.75,-56.25 326.75,-37 435.75,-37 435.75,-56.25"/>
<text text-anchor="middle" x="381.25" y="-42.75" font-family="Helvetica,sans-Serif" font-size="10.00">TMC2660Stepper::tbl</text>
</a>
</g>
</g>
<!-- Node1&#45;&gt;Node1 -->
<g id="edge5_Node000001_Node000001" class="edge">
<title>Node1&#45;&gt;Node1</title>
<g id="a_edge5_Node000001_Node000001"><a xlink:title=" ">
<path fill="none" stroke="#63b8ff" d="M407.25,-67.32C404.25,-71.37 395.59,-74.25 381.25,-74.25 355.76,-74.25 348.19,-65.15 358.55,-56.54"/>
<polygon fill="#63b8ff" stroke="#63b8ff" points="410.67,-66.52 404.39,-57.99 403.97,-68.57 410.67,-66.52"/>
</a>
</g>
</g>
<!-- Node2 -->
<g id="Node000002" class="node">
<title>Node2</title>
<g id="a_Node000002"><a xlink:href="class_t_m_c2660_stepper.html#a72c064ac219a1fadd2d0410f8e4dd764" target="_top" xlink:title=" ">
<polygon fill="white" stroke="#666666" points="290.75,-56.25 181.75,-56.25 181.75,-37 290.75,-37 290.75,-56.25"/>
<text text-anchor="middle" x="236.25" y="-42.75" font-family="Helvetica,sans-Serif" font-size="10.00">TMC2660Stepper::tbl</text>
</a>
</g>
</g>
<!-- Node1&#45;&gt;Node2 -->
<g id="edge1_Node000001_Node000002" class="edge">
<title>Node1&#45;&gt;Node2</title>
<g id="a_edge1_Node000001_Node000002"><a xlink:title=" ">
<path fill="none" stroke="#63b8ff" d="M315.31,-46.62C307.25,-46.62 299.08,-46.62 291.21,-46.62"/>
<polygon fill="#63b8ff" stroke="#63b8ff" points="315.08,-50.13 325.08,-46.63 315.08,-43.13 315.08,-50.13"/>
</a>
</g>
</g>
<!-- Node3 -->
<g id="Node000003" class="node">
<title>Node3</title>
<g id="a_Node000003"><a xlink:href="class_t_m_c2660_stepper.html#a36fec657eca5845bef6668fd2fce1b54" target="_top" xlink:title=" ">
<polygon fill="white" stroke="#666666" points="133.75,-93.25 12,-93.25 12,-74 133.75,-74 133.75,-93.25"/>
<text text-anchor="middle" x="72.88" y="-79.75" font-family="Helvetica,sans-Serif" font-size="10.00">TMC2660Stepper::begin</text>
</a>
</g>
</g>
<!-- Node2&#45;&gt;Node3 -->
<g id="edge2_Node000002_Node000003" class="edge">
<title>Node2&#45;&gt;Node3</title>
<g id="a_edge2_Node000002_Node000003"><a xlink:title=" ">
<path fill="none" stroke="#63b8ff" d="M180.16,-59.26C159.85,-63.91 137.12,-69.12 117.92,-73.53"/>
<polygon fill="#63b8ff" stroke="#63b8ff" points="180.71,-62.72 189.68,-57.07 179.15,-55.9 180.71,-62.72"/>
</a>
</g>
</g>
<!-- Node4 -->
<g id="Node000004" class="node">
<title>Node4</title>
<g id="a_Node000004"><a xlink:href="class_t_m_c2660_stepper.html#acb42dacdd4a3244be7ab7ad034832807" target="_top" xlink:title=" ">
<polygon fill="white" stroke="#666666" points="145.75,-56.25 0,-56.25 0,-37 145.75,-37 145.75,-56.25"/>
<text text-anchor="middle" x="72.88" y="-42.75" font-family="Helvetica,sans-Serif" font-size="10.00">TMC2660Stepper::blank_time</text>
</a>
</g>
</g>
<!-- Node2&#45;&gt;Node4 -->
<g id="edge3_Node000002_Node000004" class="edge">
<title>Node2&#45;&gt;Node4</title>
<g id="a_edge3_Node000002_Node000004"><a xlink:title=" ">
<path fill="none" stroke="#63b8ff" d="M170.1,-46.62C162.18,-46.62 154.06,-46.62 146.04,-46.62"/>
<polygon fill="#63b8ff" stroke="#63b8ff" points="170,-50.13 180,-46.63 170,-43.13 170,-50.13"/>
</a>
</g>
</g>
<!-- Node5 -->
<g id="Node000005" class="node">
<title>Node5</title>
<g id="a_Node000005"><a xlink:href="class_t_m_c2660_stepper.html#a6348de75bdacd6838ca563641af10582" target="_top" xlink:title=" ">
<polygon fill="white" stroke="#666666" points="145.75,-19.25 0,-19.25 0,0 145.75,0 145.75,-19.25"/>
<text text-anchor="middle" x="72.88" y="-5.75" font-family="Helvetica,sans-Serif" font-size="10.00">TMC2660Stepper::blank_time</text>
</a>
</g>
</g>
<!-- Node2&#45;&gt;Node5 -->
<g id="edge4_Node000002_Node000005" class="edge">
<title>Node2&#45;&gt;Node5</title>
<g id="a_edge4_Node000002_Node000005"><a xlink:title=" ">
<path fill="none" stroke="#63b8ff" d="M180.16,-33.99C159.85,-29.34 137.12,-24.13 117.92,-19.72"/>
<polygon fill="#63b8ff" stroke="#63b8ff" points="179.15,-37.35 189.68,-36.18 180.71,-30.53 179.15,-37.35"/>
</a>
</g>
</g>
</g>
</svg>
</svg>

<style type='text/css'>
<![CDATA[
[data-mouse-over-selected='false'] { opacity: 0.7; }
[data-mouse-over-selected='true']  { opacity: 1.0; }
]]>
</style>
<script type="application/ecmascript"><![CDATA[
document.addEventListener('DOMContentLoaded', (event) => {
  highlightEdges();
  highlightAdjacentNodes();
});
]]></script>
</svg>
