<?xml version="1.0" encoding="UTF-8" standalone="no"?>
<!DOCTYPE svg PUBLIC "-//W3C//DTD SVG 1.1//EN"
 "http://www.w3.org/Graphics/SVG/1.1/DTD/svg11.dtd">
<!-- Generated by graphviz version 12.2.1 (20241206.2353)
 -->
<!-- Title: TMC2240Stepper::GLOBAL_SCALER Pages: 1 -->
<svg width="614pt" height="88pt"
 viewBox="0.00 0.00 614.25 87.50" xmlns="http://www.w3.org/2000/svg" xmlns:xlink="http://www.w3.org/1999/xlink">
<g id="graph0" class="graph" transform="scale(1 1) rotate(0) translate(4 83.5)">
<title>TMC2240Stepper::GLOBAL_SCALER</title>
<!-- Node1 -->
<g id="Node000001" class="node">
<title>Node1</title>
<g id="a_Node000001"><a xlink:title=" ">
<polygon fill="#999999" stroke="#666666" points="606.25,-54.5 468.75,-54.5 468.75,-24 606.25,-24 606.25,-54.5"/>
<text text-anchor="start" x="476.75" y="-41" font-family="Helvetica,sans-Serif" font-size="10.00">TMC2240Stepper::GLOBAL</text>
<text text-anchor="middle" x="537.5" y="-29.75" font-family="Helvetica,sans-Serif" font-size="10.00">_SCALER</text>
</a>
</g>
</g>
<!-- Node2 -->
<g id="Node000002" class="node">
<title>Node2</title>
<g id="a_Node000002"><a xlink:href="class_t_m_c2240_stepper.html#ab4e03600d1f0d733b042b7a2b57fa65f" target="_top" xlink:title=" ">
<polygon fill="white" stroke="#666666" points="432.75,-71.88 302,-71.88 302,-52.62 432.75,-52.62 432.75,-71.88"/>
<text text-anchor="middle" x="367.38" y="-58.38" font-family="Helvetica,sans-Serif" font-size="10.00">TMC2240Stepper::cs2rms</text>
</a>
</g>
</g>
<!-- Node1&#45;&gt;Node2 -->
<g id="edge1_Node000001_Node000002" class="edge">
<title>Node1&#45;&gt;Node2</title>
<g id="a_edge1_Node000001_Node000002"><a xlink:title=" ">
<path fill="none" stroke="#63b8ff" d="M457.2,-50.1C449.09,-51.21 440.91,-52.33 432.98,-53.41"/>
<polygon fill="#63b8ff" stroke="#63b8ff" points="457.67,-53.57 467.1,-48.74 456.72,-46.63 457.67,-53.57"/>
</a>
</g>
</g>
<!-- Node5 -->
<g id="Node000005" class="node">
<title>Node5</title>
<g id="a_Node000005"><a xlink:href="class_t_m_c2240_stepper.html#a6c7890ad00371779ff777dee0d00544b" target="_top" xlink:title=" ">
<polygon fill="white" stroke="#666666" points="423.38,-33.5 311.38,-33.5 311.38,-3 423.38,-3 423.38,-33.5"/>
<text text-anchor="start" x="319.38" y="-20" font-family="Helvetica,sans-Serif" font-size="10.00">TMC2240Stepper::set</text>
<text text-anchor="middle" x="367.38" y="-8.75" font-family="Helvetica,sans-Serif" font-size="10.00">_globalscaler</text>
</a>
</g>
</g>
<!-- Node1&#45;&gt;Node5 -->
<g id="edge4_Node000001_Node000005" class="edge">
<title>Node1&#45;&gt;Node5</title>
<g id="a_edge4_Node000001_Node000005"><a xlink:title=" ">
<path fill="none" stroke="#63b8ff" d="M457.29,-29.36C445.91,-27.93 434.41,-26.5 423.63,-25.15"/>
<polygon fill="#63b8ff" stroke="#63b8ff" points="456.74,-32.81 467.1,-30.58 457.61,-25.87 456.74,-32.81"/>
</a>
</g>
</g>
<!-- Node3 -->
<g id="Node000003" class="node">
<title>Node3</title>
<g id="a_Node000003"><a xlink:href="class_t_m_c2240_stepper.html#a3e82f48545681b406fd103bd84f29e54" target="_top" xlink:title=" ">
<polygon fill="white" stroke="#666666" points="266,-79.5 151,-79.5 151,-49 266,-49 266,-79.5"/>
<text text-anchor="start" x="159" y="-66" font-family="Helvetica,sans-Serif" font-size="10.00">TMC2240Stepper::rms</text>
<text text-anchor="middle" x="208.5" y="-54.75" font-family="Helvetica,sans-Serif" font-size="10.00">_current</text>
</a>
</g>
</g>
<!-- Node2&#45;&gt;Node3 -->
<g id="edge2_Node000002_Node000003" class="edge">
<title>Node2&#45;&gt;Node3</title>
<g id="a_edge2_Node000002_Node000003"><a xlink:title=" ">
<path fill="none" stroke="#63b8ff" d="M290.21,-63.22C282.07,-63.32 273.9,-63.43 266.05,-63.53"/>
<polygon fill="#63b8ff" stroke="#63b8ff" points="290.19,-66.72 300.15,-63.09 290.1,-59.72 290.19,-66.72"/>
</a>
</g>
</g>
<!-- Node4 -->
<g id="Node000004" class="node">
<title>Node4</title>
<g id="a_Node000004"><a xlink:href="class_t_m_c2240_stepper.html#a54d1fadff69efefc479037e61a0052ee" target="_top" xlink:title=" ">
<polygon fill="white" stroke="#666666" points="115,-79.5 0,-79.5 0,-49 115,-49 115,-79.5"/>
<text text-anchor="start" x="8" y="-66" font-family="Helvetica,sans-Serif" font-size="10.00">TMC2240Stepper::rms</text>
<text text-anchor="middle" x="57.5" y="-54.75" font-family="Helvetica,sans-Serif" font-size="10.00">_current</text>
</a>
</g>
</g>
<!-- Node3&#45;&gt;Node4 -->
<g id="edge3_Node000003_Node000004" class="edge">
<title>Node3&#45;&gt;Node4</title>
<g id="a_edge3_Node000003_Node000004"><a xlink:title=" ">
<path fill="none" stroke="#63b8ff" d="M139.37,-64.25C131.25,-64.25 123.03,-64.25 115.1,-64.25"/>
<polygon fill="#63b8ff" stroke="#63b8ff" points="139.23,-67.75 149.23,-64.25 139.23,-60.75 139.23,-67.75"/>
</a>
</g>
</g>
<!-- Node6 -->
<g id="Node000006" class="node">
<title>Node6</title>
<g id="a_Node000006"><a xlink:href="class_t_m_c2240_stepper.html#a5f704f4ebe14d5a2ad74c08fcaf4d549" target="_top" xlink:title=" ">
<polygon fill="white" stroke="#666666" points="266,-30.5 151,-30.5 151,0 266,0 266,-30.5"/>
<text text-anchor="start" x="159" y="-17" font-family="Helvetica,sans-Serif" font-size="10.00">TMC2240Stepper::rms</text>
<text text-anchor="middle" x="208.5" y="-5.75" font-family="Helvetica,sans-Serif" font-size="10.00">_current</text>
</a>
</g>
</g>
<!-- Node5&#45;&gt;Node6 -->
<g id="edge5_Node000005_Node000006" class="edge">
<title>Node5&#45;&gt;Node6</title>
<g id="a_edge5_Node000005_Node000006"><a xlink:title=" ">
<path fill="none" stroke="#63b8ff" d="M299.69,-16.97C288.62,-16.76 277.23,-16.55 266.43,-16.34"/>
<polygon fill="#63b8ff" stroke="#63b8ff" points="299.49,-20.47 309.55,-17.16 299.62,-13.47 299.49,-20.47"/>
</a>
</g>
</g>
</g>
</svg>
