<?xml version="1.0" encoding="UTF-8" standalone="no"?>
<!DOCTYPE svg PUBLIC "-//W3C//DTD SVG 1.1//EN"
 "http://www.w3.org/Graphics/SVG/1.1/DTD/svg11.dtd">
<!-- Generated by graphviz version 12.2.1 (20241206.2353)
 -->
<!-- Title: TMC2209Stepper::SGTHRS Pages: 1 -->
<svg width="480pt" height="174pt"
 viewBox="0.00 0.00 479.75 173.88" xmlns="http://www.w3.org/2000/svg" xmlns:xlink="http://www.w3.org/1999/xlink">

<svg id="main" version="1.1" xmlns="http://www.w3.org/2000/svg" xmlns:xlink="http://www.w3.org/1999/xlink" xml:space="preserve">

<style type="text/css"><![CDATA[
.node, .edge {opacity: 0.7;}
.node.selected, .edge.selected {opacity: 1;}
.edge:hover path { stroke: red; }
.edge:hover polygon { stroke: red; fill: red; }
]]></style>
<script type="application/ecmascript" xlink:href="svg.min.js"/>
<svg id="graph" class="graph">
<g id="graph0" class="graph" transform="scale(1 1) rotate(0) translate(4 169.88)">
<title>TMC2209Stepper::SGTHRS</title>
<!-- Node1 -->
<g id="Node000001" class="node">
<title>Node1</title>
<g id="a_Node000001"><a xlink:title=" ">
<polygon fill="#999999" stroke="#666666" points="140.5,-97.88 0,-97.88 0,-78.62 140.5,-78.62 140.5,-97.88"/>
<text text-anchor="middle" x="70.25" y="-84.38" font-family="Helvetica,sans-Serif" font-size="10.00">TMC2209Stepper::SGTHRS</text>
</a>
</g>
</g>
<!-- Node2 -->
<g id="Node000002" class="node">
<title>Node2</title>
<g id="a_Node000002"><a xlink:href="class_t_m_c2208_stepper.html#a142b14de8a4dcc6cf76b4a6ede9e1cea" target="_top" xlink:title=" ">
<polygon fill="white" stroke="#666666" points="296,-97.88 176.5,-97.88 176.5,-78.62 296,-78.62 296,-97.88"/>
<text text-anchor="middle" x="236.25" y="-84.38" font-family="Helvetica,sans-Serif" font-size="10.00">TMC2208Stepper::write</text>
</a>
</g>
</g>
<!-- Node1&#45;&gt;Node2 -->
<g id="edge1_Node000001_Node000002" class="edge">
<title>Node1&#45;&gt;Node2</title>
<g id="a_edge1_Node000001_Node000002"><a xlink:title=" ">
<path fill="none" stroke="#63b8ff" d="M140.8,-88.25C148.72,-88.25 156.8,-88.25 164.73,-88.25"/>
<polygon fill="#63b8ff" stroke="#63b8ff" points="164.69,-91.75 174.69,-88.25 164.69,-84.75 164.69,-91.75"/>
</a>
</g>
</g>
<!-- Node3 -->
<g id="Node000003" class="node">
<title>Node3</title>
<g id="a_Node000003"><a xlink:href="class_t_m_c2208_stepper.html#a409c19fa6b052a370a317d061bf9af4e" target="_top" xlink:title=" ">
<polygon fill="white" stroke="#666666" points="471.38,-165.88 332.38,-165.88 332.38,-146.62 471.38,-146.62 471.38,-165.88"/>
<text text-anchor="middle" x="401.88" y="-152.38" font-family="Helvetica,sans-Serif" font-size="10.00">TMC2208Stepper::calcCRC</text>
</a>
</g>
</g>
<!-- Node2&#45;&gt;Node3 -->
<g id="edge2_Node000002_Node000003" class="edge">
<title>Node2&#45;&gt;Node3</title>
<g id="a_edge2_Node000002_Node000003"><a xlink:title=" ">
<path fill="none" stroke="#63b8ff" d="M253.87,-98.2C272.41,-108.97 303.55,-126.11 332,-137.25 337.21,-139.29 342.72,-141.2 348.26,-142.96"/>
<polygon fill="#63b8ff" stroke="#63b8ff" points="346.86,-146.2 357.45,-145.73 348.88,-139.5 346.86,-146.2"/>
</a>
</g>
</g>
<!-- Node4 -->
<g id="Node000004" class="node">
<title>Node4</title>
<g id="a_Node000004"><a xlink:href="class_t_m_c2208_stepper.html#a5147cab1658f782b36b0ce7e951d4f4e" target="_top" xlink:title=" ">
<polygon fill="white" stroke="#666666" points="471.75,-128.5 332,-128.5 332,-98 471.75,-98 471.75,-128.5"/>
<text text-anchor="start" x="340" y="-115" font-family="Helvetica,sans-Serif" font-size="10.00">TMC2208Stepper::postWrite</text>
<text text-anchor="middle" x="401.88" y="-103.75" font-family="Helvetica,sans-Serif" font-size="10.00">Communication</text>
</a>
</g>
</g>
<!-- Node2&#45;&gt;Node4 -->
<g id="edge3_Node000002_Node000004" class="edge">
<title>Node2&#45;&gt;Node4</title>
<g id="a_edge3_Node000002_Node000004"><a xlink:title=" ">
<path fill="none" stroke="#63b8ff" d="M296.32,-97.28C304.1,-98.46 312.17,-99.7 320.23,-100.93"/>
<polygon fill="#63b8ff" stroke="#63b8ff" points="319.68,-104.38 330.09,-102.43 320.73,-97.46 319.68,-104.38"/>
</a>
</g>
</g>
<!-- Node5 -->
<g id="Node000005" class="node">
<title>Node5</title>
<g id="a_Node000005"><a xlink:href="class_t_m_c2208_stepper.html#a66e4f8694ee035432af8b61f14b35a92" target="_top" xlink:title=" ">
<polygon fill="white" stroke="#666666" points="469.12,-79.5 334.62,-79.5 334.62,-49 469.12,-49 469.12,-79.5"/>
<text text-anchor="start" x="342.62" y="-66" font-family="Helvetica,sans-Serif" font-size="10.00">TMC2208Stepper::preWrite</text>
<text text-anchor="middle" x="401.88" y="-54.75" font-family="Helvetica,sans-Serif" font-size="10.00">Communication</text>
</a>
</g>
</g>
<!-- Node2&#45;&gt;Node5 -->
<g id="edge4_Node000002_Node000005" class="edge">
<title>Node2&#45;&gt;Node5</title>
<g id="a_edge4_Node000002_Node000005"><a xlink:title=" ">
<path fill="none" stroke="#63b8ff" d="M296.32,-79.59C305.01,-78.31 314.07,-76.98 323.07,-75.66"/>
<polygon fill="#63b8ff" stroke="#63b8ff" points="323.51,-79.13 332.9,-74.22 322.5,-72.21 323.51,-79.13"/>
</a>
</g>
</g>
<!-- Node6 -->
<g id="Node000006" class="node">
<title>Node6</title>
<g id="a_Node000006"><a xlink:href="class_t_m_c2208_stepper.html#adb6243277ef84d2027b2b8bae6be5bd0" target="_top" xlink:title=" ">
<polygon fill="white" stroke="#666666" points="462.75,-30.5 341,-30.5 341,0 462.75,0 462.75,-30.5"/>
<text text-anchor="start" x="349" y="-17" font-family="Helvetica,sans-Serif" font-size="10.00">TMC2208Stepper::serial</text>
<text text-anchor="middle" x="401.88" y="-5.75" font-family="Helvetica,sans-Serif" font-size="10.00">_write</text>
</a>
</g>
</g>
<!-- Node2&#45;&gt;Node6 -->
<g id="edge5_Node000002_Node000006" class="edge">
<title>Node2&#45;&gt;Node6</title>
<g id="a_edge5_Node000002_Node000006"><a xlink:title=" ">
<path fill="none" stroke="#63b8ff" d="M255.45,-78.2C274.3,-67.99 304.75,-52.04 332,-40.25 336.09,-38.48 340.34,-36.73 344.65,-35.02"/>
<polygon fill="#63b8ff" stroke="#63b8ff" points="345.89,-38.29 353.96,-31.43 343.37,-31.76 345.89,-38.29"/>
</a>
</g>
</g>
</g>
</svg>
</svg>

<style type='text/css'>
<![CDATA[
[data-mouse-over-selected='false'] { opacity: 0.7; }
[data-mouse-over-selected='true']  { opacity: 1.0; }
]]>
</style>
<script type="application/ecmascript"><![CDATA[
document.addEventListener('DOMContentLoaded', (event) => {
  highlightEdges();
  highlightAdjacentNodes();
});
]]></script>
</svg>
