<?xml version="1.0" encoding="UTF-8" standalone="no"?>
<!DOCTYPE svg PUBLIC "-//W3C//DTD SVG 1.1//EN"
 "http://www.w3.org/Graphics/SVG/1.1/DTD/svg11.dtd">
<!-- Generated by graphviz version 12.2.1 (20241206.2353)
 -->
<!-- Title: TMC2660Stepper::switchCSpin Pages: 1 -->
<svg width="671pt" height="267pt"
 viewBox="0.00 0.00 671.25 266.88" xmlns="http://www.w3.org/2000/svg" xmlns:xlink="http://www.w3.org/1999/xlink">
<g id="graph0" class="graph" transform="scale(1 1) rotate(0) translate(4 262.88)">
<title>TMC2660Stepper::switchCSpin</title>
<!-- Node1 -->
<g id="Node000001" class="node">
<title>Node1</title>
<g id="a_Node000001"><a xlink:title=" ">
<polygon fill="#999999" stroke="#666666" points="663.25,-176.25 509.25,-176.25 509.25,-157 663.25,-157 663.25,-176.25"/>
<text text-anchor="middle" x="586.25" y="-162.75" font-family="Helvetica,sans-Serif" font-size="10.00">TMC2660Stepper::switchCSpin</text>
</a>
</g>
</g>
<!-- Node2 -->
<g id="Node000002" class="node">
<title>Node2</title>
<g id="a_Node000002"><a xlink:href="class_t_m_c2660_stepper.html#a36fec657eca5845bef6668fd2fce1b54" target="_top" xlink:title=" ">
<polygon fill="white" stroke="#666666" points="473.25,-213.25 351.5,-213.25 351.5,-194 473.25,-194 473.25,-213.25"/>
<text text-anchor="middle" x="412.38" y="-199.75" font-family="Helvetica,sans-Serif" font-size="10.00">TMC2660Stepper::begin</text>
</a>
</g>
</g>
<!-- Node1&#45;&gt;Node2 -->
<g id="edge1_Node000001_Node000002" class="edge">
<title>Node1&#45;&gt;Node2</title>
<g id="a_edge1_Node000001_Node000002"><a xlink:title=" ">
<path fill="none" stroke="#63b8ff" d="M527.17,-179.13C505.39,-183.82 480.93,-189.08 460.28,-193.53"/>
<polygon fill="#63b8ff" stroke="#63b8ff" points="527.77,-182.58 536.8,-177.05 526.29,-175.74 527.77,-182.58"/>
</a>
</g>
</g>
<!-- Node3 -->
<g id="Node000003" class="node">
<title>Node3</title>
<g id="a_Node000003"><a xlink:href="class_t_m_c2660_stepper.html#aba43e2af829abee9e029bdd43bde5f61" target="_top" xlink:title=" ">
<polygon fill="white" stroke="#666666" points="471,-176.25 353.75,-176.25 353.75,-157 471,-157 471,-176.25"/>
<text text-anchor="middle" x="412.38" y="-162.75" font-family="Helvetica,sans-Serif" font-size="10.00">TMC2660Stepper::read</text>
</a>
</g>
</g>
<!-- Node1&#45;&gt;Node3 -->
<g id="edge2_Node000001_Node000003" class="edge">
<title>Node1&#45;&gt;Node3</title>
<g id="a_edge2_Node000001_Node000003"><a xlink:title=" ">
<path fill="none" stroke="#63b8ff" d="M497.64,-166.62C488.77,-166.62 479.92,-166.62 471.47,-166.62"/>
<polygon fill="#63b8ff" stroke="#63b8ff" points="497.35,-170.13 507.35,-166.63 497.35,-163.13 497.35,-170.13"/>
</a>
</g>
</g>
<!-- Node8 -->
<g id="Node000008" class="node">
<title>Node8</title>
<g id="a_Node000008"><a xlink:href="class_t_m_c2660_stepper.html#a4ab9b5cf6da0c345ecc50e877b54ada2" target="_top" xlink:title=" ">
<polygon fill="white" stroke="#666666" points="472.12,-111.25 352.62,-111.25 352.62,-92 472.12,-92 472.12,-111.25"/>
<text text-anchor="middle" x="412.38" y="-97.75" font-family="Helvetica,sans-Serif" font-size="10.00">TMC2660Stepper::write</text>
</a>
</g>
</g>
<!-- Node1&#45;&gt;Node8 -->
<g id="edge7_Node000001_Node000008" class="edge">
<title>Node1&#45;&gt;Node8</title>
<g id="a_edge7_Node000001_Node000008"><a xlink:title=" ">
<path fill="none" stroke="#63b8ff" d="M548.3,-152.65C515.67,-140.31 468.91,-122.63 439.88,-111.65"/>
<polygon fill="#63b8ff" stroke="#63b8ff" points="546.76,-155.81 557.36,-156.08 549.24,-149.26 546.76,-155.81"/>
</a>
</g>
</g>
<!-- Node4 -->
<g id="Node000004" class="node">
<title>Node4</title>
<g id="a_Node000004"><a xlink:href="class_t_m_c2660_stepper.html#a124bab76346c3c6c17f812e8c4ad7a5c" target="_top" xlink:title=" ">
<polygon fill="white" stroke="#666666" points="315.5,-204.25 156.25,-204.25 156.25,-185 315.5,-185 315.5,-204.25"/>
<text text-anchor="middle" x="235.88" y="-190.75" font-family="Helvetica,sans-Serif" font-size="10.00">TMC2660Stepper::DRVSTATUS</text>
</a>
</g>
</g>
<!-- Node3&#45;&gt;Node4 -->
<g id="edge3_Node000003_Node000004" class="edge">
<title>Node3&#45;&gt;Node4</title>
<g id="a_edge3_Node000003_Node000004"><a xlink:title=" ">
<path fill="none" stroke="#63b8ff" d="M342.22,-177.72C328.23,-179.97 313.59,-182.32 299.83,-184.52"/>
<polygon fill="#63b8ff" stroke="#63b8ff" points="342.46,-181.23 351.77,-176.19 341.35,-174.32 342.46,-181.23"/>
</a>
</g>
</g>
<!-- Node5 -->
<g id="Node000005" class="node">
<title>Node5</title>
<g id="a_Node000005"><a xlink:href="class_t_m_c2660_stepper.html#a560c825469ada7c23ec66a4106360e48" target="_top" xlink:title=" ">
<polygon fill="white" stroke="#666666" points="120.25,-258.88 0,-258.88 0,-228.38 120.25,-228.38 120.25,-258.88"/>
<text text-anchor="start" x="8" y="-245.38" font-family="Helvetica,sans-Serif" font-size="10.00">TMC2660Stepper::DRV</text>
<text text-anchor="middle" x="60.12" y="-234.12" font-family="Helvetica,sans-Serif" font-size="10.00">_STATUS</text>
</a>
</g>
</g>
<!-- Node4&#45;&gt;Node5 -->
<g id="edge4_Node000004_Node000005" class="edge">
<title>Node4&#45;&gt;Node5</title>
<g id="a_edge4_Node000004_Node000005"><a xlink:title=" ">
<path fill="none" stroke="#63b8ff" d="M188.24,-207.78C166.26,-213.97 139.87,-221.42 116.84,-227.91"/>
<polygon fill="#63b8ff" stroke="#63b8ff" points="189.16,-211.15 197.84,-205.07 187.26,-204.42 189.16,-211.15"/>
</a>
</g>
</g>
<!-- Node6 -->
<g id="Node000006" class="node">
<title>Node6</title>
<g id="a_Node000006"><a xlink:href="class_t_m_c2660_stepper.html#a51f799cf592f8d9d50d110aaedfe141a" target="_top" xlink:title=" ">
<polygon fill="white" stroke="#666666" points="114.62,-209.88 5.62,-209.88 5.62,-179.38 114.62,-179.38 114.62,-209.88"/>
<text text-anchor="start" x="13.62" y="-196.38" font-family="Helvetica,sans-Serif" font-size="10.00">TMC2660Stepper::sg</text>
<text text-anchor="middle" x="60.12" y="-185.12" font-family="Helvetica,sans-Serif" font-size="10.00">_result</text>
</a>
</g>
</g>
<!-- Node4&#45;&gt;Node6 -->
<g id="edge5_Node000004_Node000006" class="edge">
<title>Node4&#45;&gt;Node6</title>
<g id="a_edge5_Node000004_Node000006"><a xlink:title=" ">
<path fill="none" stroke="#63b8ff" d="M144.52,-194.62C134.46,-194.62 124.47,-194.62 115.07,-194.62"/>
<polygon fill="#63b8ff" stroke="#63b8ff" points="144.37,-198.13 154.37,-194.63 144.37,-191.13 144.37,-198.13"/>
</a>
</g>
</g>
<!-- Node7 -->
<g id="Node000007" class="node">
<title>Node7</title>
<g id="a_Node000007"><a xlink:href="class_t_m_c2660_stepper.html#a72a9a2ecf2d0707dba76de414cec209e" target="_top" xlink:title=" ">
<polygon fill="white" stroke="#666666" points="117.62,-160.88 2.62,-160.88 2.62,-130.38 117.62,-130.38 117.62,-160.88"/>
<text text-anchor="start" x="10.62" y="-147.38" font-family="Helvetica,sans-Serif" font-size="10.00">TMC2660Stepper::test</text>
<text text-anchor="middle" x="60.12" y="-136.12" font-family="Helvetica,sans-Serif" font-size="10.00">_connection</text>
</a>
</g>
</g>
<!-- Node4&#45;&gt;Node7 -->
<g id="edge6_Node000004_Node000007" class="edge">
<title>Node4&#45;&gt;Node7</title>
<g id="a_edge6_Node000004_Node000007"><a xlink:title=" ">
<path fill="none" stroke="#63b8ff" d="M176.85,-181.96C169.89,-180.26 162.89,-178.46 156.25,-176.62 139.84,-172.08 122.06,-166.48 106.36,-161.29"/>
<polygon fill="#63b8ff" stroke="#63b8ff" points="175.71,-185.29 186.25,-184.21 177.33,-178.48 175.71,-185.29"/>
</a>
</g>
</g>
<!-- Node9 -->
<g id="Node000009" class="node">
<title>Node9</title>
<g id="a_Node000009"><a xlink:href="class_t_m_c2660_stepper.html#a70328d7ca863697d018760836310a6ee" target="_top" xlink:title=" ">
<polygon fill="white" stroke="#666666" points="314,-167.25 157.75,-167.25 157.75,-148 314,-148 314,-167.25"/>
<text text-anchor="middle" x="235.88" y="-153.75" font-family="Helvetica,sans-Serif" font-size="10.00">TMC2660Stepper::CHOPCONF</text>
</a>
</g>
</g>
<!-- Node8&#45;&gt;Node9 -->
<g id="edge8_Node000008_Node000009" class="edge">
<title>Node8&#45;&gt;Node9</title>
<g id="a_edge8_Node000008_Node000009"><a xlink:title=" ">
<path fill="none" stroke="#63b8ff" d="M378.46,-116.11C360.16,-123.8 336.84,-133 315.5,-139.62 306.14,-142.53 296.02,-145.2 286.25,-147.53"/>
<polygon fill="#63b8ff" stroke="#63b8ff" points="379.65,-119.41 387.47,-112.27 376.9,-112.97 379.65,-119.41"/>
</a>
</g>
</g>
<!-- Node10 -->
<g id="Node000010" class="node">
<title>Node10</title>
<g id="a_Node000010"><a xlink:href="class_t_m_c2660_stepper.html#aec6cc6025a1e9d9aa0165a6f9a8b67d9" target="_top" xlink:title=" ">
<polygon fill="white" stroke="#666666" points="310.25,-130.25 161.5,-130.25 161.5,-111 310.25,-111 310.25,-130.25"/>
<text text-anchor="middle" x="235.88" y="-116.75" font-family="Helvetica,sans-Serif" font-size="10.00">TMC2660Stepper::DRVCONF</text>
</a>
</g>
</g>
<!-- Node8&#45;&gt;Node10 -->
<g id="edge9_Node000008_Node000010" class="edge">
<title>Node8&#45;&gt;Node10</title>
<g id="a_edge9_Node000008_Node000010"><a xlink:title=" ">
<path fill="none" stroke="#63b8ff" d="M341.16,-109.27C331.15,-110.36 320.82,-111.48 310.74,-112.58"/>
<polygon fill="#63b8ff" stroke="#63b8ff" points="341.23,-112.78 350.79,-108.22 340.47,-105.82 341.23,-112.78"/>
</a>
</g>
</g>
<!-- Node11 -->
<g id="Node000011" class="node">
<title>Node11</title>
<g id="a_Node000011"><a xlink:href="class_t_m_c2660_stepper.html#a52b5e94e7a6a339f4c58f47edbf97f0b" target="_top" xlink:title=" ">
<polygon fill="white" stroke="#666666" points="309.12,-93.25 162.62,-93.25 162.62,-74 309.12,-74 309.12,-93.25"/>
<text text-anchor="middle" x="235.88" y="-79.75" font-family="Helvetica,sans-Serif" font-size="10.00">TMC2660Stepper::DRVCTRL</text>
</a>
</g>
</g>
<!-- Node8&#45;&gt;Node11 -->
<g id="edge10_Node000008_Node000011" class="edge">
<title>Node8&#45;&gt;Node11</title>
<g id="a_edge10_Node000008_Node000011"><a xlink:title=" ">
<path fill="none" stroke="#63b8ff" d="M341.15,-94.38C330.74,-93.31 319.98,-92.2 309.51,-91.12"/>
<polygon fill="#63b8ff" stroke="#63b8ff" points="340.49,-97.83 350.79,-95.38 341.2,-90.87 340.49,-97.83"/>
</a>
</g>
</g>
<!-- Node12 -->
<g id="Node000012" class="node">
<title>Node12</title>
<g id="a_Node000012"><a xlink:href="class_t_m_c2660_stepper.html#a49dec7d4fe3d3fc5c26b748b1653e6e6" target="_top" xlink:title=" ">
<polygon fill="white" stroke="#666666" points="313.62,-56.25 158.12,-56.25 158.12,-37 313.62,-37 313.62,-56.25"/>
<text text-anchor="middle" x="235.88" y="-42.75" font-family="Helvetica,sans-Serif" font-size="10.00">TMC2660Stepper::SGCSCONF</text>
</a>
</g>
</g>
<!-- Node8&#45;&gt;Node12 -->
<g id="edge11_Node000008_Node000012" class="edge">
<title>Node8&#45;&gt;Node12</title>
<g id="a_edge11_Node000008_Node000012"><a xlink:title=" ">
<path fill="none" stroke="#63b8ff" d="M377.43,-87.16C359.28,-79.77 336.41,-71.02 315.5,-64.62 305.99,-61.72 295.71,-59.04 285.82,-56.69"/>
<polygon fill="#63b8ff" stroke="#63b8ff" points="376.09,-90.39 386.67,-90.97 378.76,-83.92 376.09,-90.39"/>
</a>
</g>
</g>
<!-- Node13 -->
<g id="Node000013" class="node">
<title>Node13</title>
<g id="a_Node000013"><a xlink:href="class_t_m_c2660_stepper.html#a6e7b6995932a531acd1a8b81e81fd94e" target="_top" xlink:title=" ">
<polygon fill="white" stroke="#666666" points="309.88,-19.25 161.88,-19.25 161.88,0 309.88,0 309.88,-19.25"/>
<text text-anchor="middle" x="235.88" y="-5.75" font-family="Helvetica,sans-Serif" font-size="10.00">TMC2660Stepper::SMARTEN</text>
</a>
</g>
</g>
<!-- Node8&#45;&gt;Node13 -->
<g id="edge12_Node000008_Node000013" class="edge">
<title>Node8&#45;&gt;Node13</title>
<g id="a_edge12_Node000008_Node000013"><a xlink:title=" ">
<path fill="none" stroke="#63b8ff" d="M393.53,-83.95C375.39,-66.98 345.73,-41.9 315.5,-27.62 308.79,-24.46 301.49,-21.83 294.13,-19.65"/>
<polygon fill="#63b8ff" stroke="#63b8ff" points="390.72,-86.11 400.36,-90.49 395.56,-81.05 390.72,-86.11"/>
</a>
</g>
</g>
</g>
</svg>
