<?xml version="1.0" encoding="UTF-8" standalone="no"?>
<!DOCTYPE svg PUBLIC "-//W3C//DTD SVG 1.1//EN"
 "http://www.w3.org/Graphics/SVG/1.1/DTD/svg11.dtd">
<!-- Generated by graphviz version 12.2.1 (20241206.2353)
 -->
<!-- Title: TMCStepper::rms_current Pages: 1 -->
<svg width="416pt" height="132pt"
 viewBox="0.00 0.00 416.00 132.25" xmlns="http://www.w3.org/2000/svg" xmlns:xlink="http://www.w3.org/1999/xlink">

<svg id="main" version="1.1" xmlns="http://www.w3.org/2000/svg" xmlns:xlink="http://www.w3.org/1999/xlink" xml:space="preserve">

<style type="text/css"><![CDATA[
.node, .edge {opacity: 0.7;}
.node.selected, .edge.selected {opacity: 1;}
.edge:hover path { stroke: red; }
.edge:hover polygon { stroke: red; fill: red; }
]]></style>
<script type="application/ecmascript" xlink:href="svg.min.js"/>
<svg id="graph" class="graph">
<g id="graph0" class="graph" transform="scale(1 1) rotate(0) translate(4 128.25)">
<title>TMCStepper::rms_current</title>
<!-- Node1 -->
<g id="Node000001" class="node">
<title>Node1</title>
<g id="a_Node000001"><a xlink:title=" ">
<polygon fill="#999999" stroke="#666666" points="129.25,-56.25 0,-56.25 0,-37 129.25,-37 129.25,-56.25"/>
<text text-anchor="middle" x="64.62" y="-42.75" font-family="Helvetica,sans-Serif" font-size="10.00">TMCStepper::rms_current</text>
</a>
</g>
</g>
<!-- Node2 -->
<g id="Node000002" class="node">
<title>Node2</title>
<g id="a_Node000002"><a xlink:href="class_t_m_c_stepper.html#a5f7f8f6ce7b394449239bc2c05f39c8f" target="_top" xlink:title=" ">
<polygon fill="white" stroke="#666666" points="268.62,-97.25 170.88,-97.25 170.88,-78 268.62,-78 268.62,-97.25"/>
<text text-anchor="middle" x="219.75" y="-83.75" font-family="Helvetica,sans-Serif" font-size="10.00">TMCStepper::ihold</text>
</a>
</g>
</g>
<!-- Node1&#45;&gt;Node2 -->
<g id="edge1_Node000001_Node000002" class="edge">
<title>Node1&#45;&gt;Node2</title>
<g id="a_edge1_Node000001_Node000002"><a xlink:title=" ">
<path fill="none" stroke="#63b8ff" d="M103.08,-56.65C123.29,-62.07 148.46,-68.81 170.16,-74.62"/>
<polygon fill="#63b8ff" stroke="#63b8ff" points="169.12,-77.96 179.69,-77.17 170.93,-71.2 169.12,-77.96"/>
</a>
</g>
</g>
<!-- Node4 -->
<g id="Node000004" class="node">
<title>Node4</title>
<g id="a_Node000004"><a xlink:href="class_t_m_c_stepper.html#a89f965f7d005e189ef27951f37e699f2" target="_top" xlink:title=" ">
<polygon fill="white" stroke="#666666" points="266.38,-56.25 173.12,-56.25 173.12,-37 266.38,-37 266.38,-56.25"/>
<text text-anchor="middle" x="219.75" y="-42.75" font-family="Helvetica,sans-Serif" font-size="10.00">TMCStepper::irun</text>
</a>
</g>
</g>
<!-- Node1&#45;&gt;Node4 -->
<g id="edge4_Node000001_Node000004" class="edge">
<title>Node1&#45;&gt;Node4</title>
<g id="a_edge4_Node000001_Node000004"><a xlink:title=" ">
<path fill="none" stroke="#63b8ff" d="M129.68,-46.62C140.16,-46.62 150.96,-46.62 161.27,-46.62"/>
<polygon fill="#63b8ff" stroke="#63b8ff" points="161.14,-50.13 171.14,-46.63 161.14,-43.13 161.14,-50.13"/>
</a>
</g>
</g>
<!-- Node6 -->
<g id="Node000006" class="node">
<title>Node6</title>
<g id="a_Node000006"><a xlink:href="class_t_m_c_stepper.html#ab4366bc26a0f6a4bb1c6c33da5919238" target="_top" xlink:title=" ">
<polygon fill="white" stroke="#666666" points="274.25,-19.25 165.25,-19.25 165.25,0 274.25,0 274.25,-19.25"/>
<text text-anchor="middle" x="219.75" y="-5.75" font-family="Helvetica,sans-Serif" font-size="10.00">TMCStepper::vsense</text>
</a>
</g>
</g>
<!-- Node1&#45;&gt;Node6 -->
<g id="edge7_Node000001_Node000006" class="edge">
<title>Node1&#45;&gt;Node6</title>
<g id="a_edge7_Node000001_Node000006"><a xlink:title=" ">
<path fill="none" stroke="#63b8ff" d="M107.47,-36.51C125.53,-32.15 146.86,-27 165.99,-22.37"/>
<polygon fill="#63b8ff" stroke="#63b8ff" points="166.59,-25.83 175.49,-20.08 164.94,-19.03 166.59,-25.83"/>
</a>
</g>
</g>
<!-- Node3 -->
<g id="Node000003" class="node">
<title>Node3</title>
<g id="a_Node000003"><a xlink:href="class_t_m_c_stepper.html#acfb32d1b63e9f04badfa64adf99bd991" target="_top" xlink:title=" ">
<polygon fill="white" stroke="#666666" points="408,-106.25 310.25,-106.25 310.25,-87 408,-87 408,-106.25"/>
<text text-anchor="middle" x="359.12" y="-92.75" font-family="Helvetica,sans-Serif" font-size="10.00">TMCStepper::ihold</text>
</a>
</g>
</g>
<!-- Node2&#45;&gt;Node3 -->
<g id="edge2_Node000002_Node000003" class="edge">
<title>Node2&#45;&gt;Node3</title>
<g id="a_edge2_Node000002_Node000003"><a xlink:title=" ">
<path fill="none" stroke="#63b8ff" d="M268.8,-90.77C278.36,-91.4 288.52,-92.06 298.42,-92.71"/>
<polygon fill="#63b8ff" stroke="#63b8ff" points="298.16,-96.2 308.36,-93.36 298.61,-89.22 298.16,-96.2"/>
</a>
</g>
</g>
<!-- Node3&#45;&gt;Node3 -->
<g id="edge3_Node000003_Node000003" class="edge">
<title>Node3&#45;&gt;Node3</title>
<g id="a_edge3_Node000003_Node000003"><a xlink:title=" ">
<path fill="none" stroke="#63b8ff" d="M337.31,-106.54C327.35,-115.15 334.63,-124.25 359.12,-124.25 372.52,-124.25 380.77,-121.53 383.86,-117.65"/>
<polygon fill="#63b8ff" stroke="#63b8ff" points="387.26,-116.78 381.33,-108 380.48,-118.56 387.26,-116.78"/>
</a>
</g>
</g>
<!-- Node5 -->
<g id="Node000005" class="node">
<title>Node5</title>
<g id="a_Node000005"><a xlink:href="class_t_m_c_stepper.html#aa82391a803e3103b03fadd9bb597d532" target="_top" xlink:title=" ">
<polygon fill="white" stroke="#666666" points="405.75,-51.25 312.5,-51.25 312.5,-32 405.75,-32 405.75,-51.25"/>
<text text-anchor="middle" x="359.12" y="-37.75" font-family="Helvetica,sans-Serif" font-size="10.00">TMCStepper::irun</text>
</a>
</g>
</g>
<!-- Node4&#45;&gt;Node5 -->
<g id="edge5_Node000004_Node000005" class="edge">
<title>Node4&#45;&gt;Node5</title>
<g id="a_edge5_Node000004_Node000005"><a xlink:title=" ">
<path fill="none" stroke="#63b8ff" d="M266.49,-44.96C277.5,-44.56 289.39,-44.13 300.85,-43.71"/>
<polygon fill="#63b8ff" stroke="#63b8ff" points="300.73,-47.22 310.6,-43.35 300.48,-40.22 300.73,-47.22"/>
</a>
</g>
</g>
<!-- Node5&#45;&gt;Node5 -->
<g id="edge6_Node000005_Node000005" class="edge">
<title>Node5&#45;&gt;Node5</title>
<g id="a_edge6_Node000005_Node000005"><a xlink:title=" ">
<path fill="none" stroke="#63b8ff" d="M337.31,-51.54C327.35,-60.15 334.63,-69.25 359.12,-69.25 372.52,-69.25 380.77,-66.53 383.86,-62.65"/>
<polygon fill="#63b8ff" stroke="#63b8ff" points="387.26,-61.78 381.33,-53 380.48,-63.56 387.26,-61.78"/>
</a>
</g>
</g>
</g>
</svg>
</svg>

<style type='text/css'>
<![CDATA[
[data-mouse-over-selected='false'] { opacity: 0.7; }
[data-mouse-over-selected='true']  { opacity: 1.0; }
]]>
</style>
<script type="application/ecmascript"><![CDATA[
document.addEventListener('DOMContentLoaded', (event) => {
  highlightEdges();
  highlightAdjacentNodes();
});
]]></script>
</svg>
