<?xml version="1.0" encoding="UTF-8" standalone="no"?>
<!DOCTYPE svg PUBLIC "-//W3C//DTD SVG 1.1//EN"
 "http://www.w3.org/Graphics/SVG/1.1/DTD/svg11.dtd">
<!-- Generated by graphviz version 12.2.1 (20241206.2353)
 -->
<!-- Title: TMCStepper::vsense Pages: 1 -->
<svg width="613pt" height="174pt"
 viewBox="0.00 0.00 612.75 173.88" xmlns="http://www.w3.org/2000/svg" xmlns:xlink="http://www.w3.org/1999/xlink">
<g id="graph0" class="graph" transform="scale(1 1) rotate(0) translate(4 169.88)">
<title>TMCStepper::vsense</title>
<!-- Node1 -->
<g id="Node000001" class="node">
<title>Node1</title>
<g id="a_Node000001"><a xlink:title=" ">
<polygon fill="#999999" stroke="#666666" points="604.75,-67.25 495.75,-67.25 495.75,-48 604.75,-48 604.75,-67.25"/>
<text text-anchor="middle" x="550.25" y="-53.75" font-family="Helvetica,sans-Serif" font-size="10.00">TMCStepper::vsense</text>
</a>
</g>
</g>
<!-- Node2 -->
<g id="Node000002" class="node">
<title>Node2</title>
<g id="a_Node000002"><a xlink:href="class_t_m_c_stepper.html#ae6829e76ae67523a4cb60553dd70fece" target="_top" xlink:title=" ">
<polygon fill="white" stroke="#666666" points="450,-86.25 340.25,-86.25 340.25,-67 450,-67 450,-86.25"/>
<text text-anchor="middle" x="395.12" y="-72.75" font-family="Helvetica,sans-Serif" font-size="10.00">TMCStepper::cs2rms</text>
</a>
</g>
</g>
<!-- Node1&#45;&gt;Node2 -->
<g id="edge1_Node000001_Node000002" class="edge">
<title>Node1&#45;&gt;Node2</title>
<g id="a_edge1_Node000001_Node000002"><a xlink:title=" ">
<path fill="none" stroke="#63b8ff" d="M484.16,-65.7C472.91,-67.1 461.32,-68.54 450.4,-69.89"/>
<polygon fill="#63b8ff" stroke="#63b8ff" points="484.27,-69.21 493.76,-64.51 483.41,-62.27 484.27,-69.21"/>
</a>
</g>
</g>
<!-- Node8 -->
<g id="Node000008" class="node">
<title>Node8</title>
<g id="a_Node000008"><a xlink:href="class_t_m_c_stepper.html#af6bd7fc36dabb23fee412d7293a3bb75" target="_top" xlink:title=" ">
<polygon fill="white" stroke="#666666" points="459.75,-49.25 330.5,-49.25 330.5,-30 459.75,-30 459.75,-49.25"/>
<text text-anchor="middle" x="395.12" y="-35.75" font-family="Helvetica,sans-Serif" font-size="10.00">TMCStepper::rms_current</text>
</a>
</g>
</g>
<!-- Node1&#45;&gt;Node8 -->
<g id="edge7_Node000001_Node000008" class="edge">
<title>Node1&#45;&gt;Node8</title>
<g id="a_edge7_Node000001_Node000008"><a xlink:title=" ">
<path fill="none" stroke="#63b8ff" d="M483.88,-49.94C476,-49.01 467.97,-48.07 460.11,-47.15"/>
<polygon fill="#63b8ff" stroke="#63b8ff" points="483.42,-53.41 493.76,-51.1 484.24,-46.46 483.42,-53.41"/>
</a>
</g>
</g>
<!-- Node3 -->
<g id="Node000003" class="node">
<title>Node3</title>
<g id="a_Node000003"><a xlink:href="class_t_m_c_stepper.html#aaa5cfefaf915e98eb9700bda48f99337" target="_top" xlink:title=" ">
<polygon fill="white" stroke="#666666" points="294.5,-86.25 165.25,-86.25 165.25,-67 294.5,-67 294.5,-86.25"/>
<text text-anchor="middle" x="229.88" y="-72.75" font-family="Helvetica,sans-Serif" font-size="10.00">TMCStepper::rms_current</text>
</a>
</g>
</g>
<!-- Node2&#45;&gt;Node3 -->
<g id="edge2_Node000002_Node000003" class="edge">
<title>Node2&#45;&gt;Node3</title>
<g id="a_edge2_Node000002_Node000003"><a xlink:title=" ">
<path fill="none" stroke="#63b8ff" d="M328.43,-76.62C317.37,-76.62 305.91,-76.62 294.9,-76.62"/>
<polygon fill="#63b8ff" stroke="#63b8ff" points="328.25,-80.13 338.25,-76.63 328.25,-73.13 328.25,-80.13"/>
</a>
</g>
</g>
<!-- Node4 -->
<g id="Node000004" class="node">
<title>Node4</title>
<g id="a_Node000004"><a xlink:href="class_t_m_c5130_stepper.html#a61ced146a4cc34e5c15050d4eb495ac0" target="_top" xlink:title=" ">
<polygon fill="white" stroke="#666666" points="122.12,-165.88 7.12,-165.88 7.12,-135.38 122.12,-135.38 122.12,-165.88"/>
<text text-anchor="start" x="15.12" y="-152.38" font-family="Helvetica,sans-Serif" font-size="10.00">TMC5130Stepper::rms</text>
<text text-anchor="middle" x="64.62" y="-141.12" font-family="Helvetica,sans-Serif" font-size="10.00">_current</text>
</a>
</g>
</g>
<!-- Node3&#45;&gt;Node4 -->
<g id="edge3_Node000003_Node000004" class="edge">
<title>Node3&#45;&gt;Node4</title>
<g id="a_edge3_Node000003_Node000004"><a xlink:title=" ">
<path fill="none" stroke="#63b8ff" d="M199.47,-91.89C179.79,-101.9 153.2,-115.05 129.25,-125.62 122.08,-128.79 114.38,-131.98 106.9,-134.98"/>
<polygon fill="#63b8ff" stroke="#63b8ff" points="200.98,-95.05 208.28,-87.37 197.78,-88.82 200.98,-95.05"/>
</a>
</g>
</g>
<!-- Node5 -->
<g id="Node000005" class="node">
<title>Node5</title>
<g id="a_Node000005"><a xlink:href="class_t_m_c5130_stepper.html#a6f20aa4a690a1ad2bdb845d11cc5e60f" target="_top" xlink:title=" ">
<polygon fill="white" stroke="#666666" points="122.12,-116.88 7.12,-116.88 7.12,-86.38 122.12,-86.38 122.12,-116.88"/>
<text text-anchor="start" x="15.12" y="-103.38" font-family="Helvetica,sans-Serif" font-size="10.00">TMC5130Stepper::rms</text>
<text text-anchor="middle" x="64.62" y="-92.12" font-family="Helvetica,sans-Serif" font-size="10.00">_current</text>
</a>
</g>
</g>
<!-- Node3&#45;&gt;Node5 -->
<g id="edge4_Node000003_Node000005" class="edge">
<title>Node3&#45;&gt;Node5</title>
<g id="a_edge4_Node000003_Node000005"><a xlink:title=" ">
<path fill="none" stroke="#63b8ff" d="M153.6,-88.15C143.18,-89.75 132.61,-91.37 122.6,-92.9"/>
<polygon fill="#63b8ff" stroke="#63b8ff" points="153.97,-91.64 163.33,-86.66 152.91,-84.72 153.97,-91.64"/>
</a>
</g>
</g>
<!-- Node6 -->
<g id="Node000006" class="node">
<title>Node6</title>
<g id="a_Node000006"><a xlink:href="class_t_m_c5130_stepper.html#a7528bac93b345ee7af84ab1e2786237c" target="_top" xlink:title=" ">
<polygon fill="white" stroke="#666666" points="122.12,-67.88 7.12,-67.88 7.12,-37.38 122.12,-37.38 122.12,-67.88"/>
<text text-anchor="start" x="15.12" y="-54.38" font-family="Helvetica,sans-Serif" font-size="10.00">TMC5130Stepper::rms</text>
<text text-anchor="middle" x="64.62" y="-43.12" font-family="Helvetica,sans-Serif" font-size="10.00">_current</text>
</a>
</g>
</g>
<!-- Node3&#45;&gt;Node6 -->
<g id="edge5_Node000003_Node000006" class="edge">
<title>Node3&#45;&gt;Node6</title>
<g id="a_edge5_Node000003_Node000006"><a xlink:title=" ">
<path fill="none" stroke="#63b8ff" d="M153.6,-65.56C143.18,-64.03 132.61,-62.47 122.6,-61"/>
<polygon fill="#63b8ff" stroke="#63b8ff" points="152.92,-69 163.33,-66.99 153.94,-62.07 152.92,-69"/>
</a>
</g>
</g>
<!-- Node7 -->
<g id="Node000007" class="node">
<title>Node7</title>
<g id="a_Node000007"><a xlink:href="class_t_m_c_stepper.html#ab42a120cb3172ce493b88f02e0233f9a" target="_top" xlink:title=" ">
<polygon fill="white" stroke="#666666" points="129.25,-19.25 0,-19.25 0,0 129.25,0 129.25,-19.25"/>
<text text-anchor="middle" x="64.62" y="-5.75" font-family="Helvetica,sans-Serif" font-size="10.00">TMCStepper::rms_current</text>
</a>
</g>
</g>
<!-- Node3&#45;&gt;Node7 -->
<g id="edge6_Node000003_Node000007" class="edge">
<title>Node3&#45;&gt;Node7</title>
<g id="a_edge6_Node000003_Node000007"><a xlink:title=" ">
<path fill="none" stroke="#63b8ff" d="M200.07,-61.24C180.46,-51.15 153.72,-38.1 129.25,-28.62 120.87,-25.38 111.68,-22.34 102.97,-19.7"/>
<polygon fill="#63b8ff" stroke="#63b8ff" points="198.35,-64.29 208.83,-65.81 201.58,-58.08 198.35,-64.29"/>
</a>
</g>
</g>
</g>
</svg>
