<?xml version="1.0" encoding="UTF-8" standalone="no"?>
<!DOCTYPE svg PUBLIC "-//W3C//DTD SVG 1.1//EN"
 "http://www.w3.org/Graphics/SVG/1.1/DTD/svg11.dtd">
<!-- Generated by graphviz version 12.2.1 (20241206.2353)
 -->
<!-- Title: TMCStepper::cs2rms Pages: 1 -->
<svg width="448pt" height="174pt"
 viewBox="0.00 0.00 448.25 173.88" xmlns="http://www.w3.org/2000/svg" xmlns:xlink="http://www.w3.org/1999/xlink">

<svg id="main" version="1.1" xmlns="http://www.w3.org/2000/svg" xmlns:xlink="http://www.w3.org/1999/xlink" xml:space="preserve">

<style type="text/css"><![CDATA[
.node, .edge {opacity: 0.7;}
.node.selected, .edge.selected {opacity: 1;}
.edge:hover path { stroke: red; }
.edge:hover polygon { stroke: red; fill: red; }
]]></style>
<script type="application/ecmascript" xlink:href="svg.min.js"/>
<svg id="graph" class="graph">
<g id="graph0" class="graph" transform="scale(1 1) rotate(0) translate(4 169.88)">
<title>TMCStepper::cs2rms</title>
<!-- Node1 -->
<g id="Node000001" class="node">
<title>Node1</title>
<g id="a_Node000001"><a xlink:title=" ">
<polygon fill="#999999" stroke="#666666" points="440.25,-86.25 330.5,-86.25 330.5,-67 440.25,-67 440.25,-86.25"/>
<text text-anchor="middle" x="385.38" y="-72.75" font-family="Helvetica,sans-Serif" font-size="10.00">TMCStepper::cs2rms</text>
</a>
</g>
</g>
<!-- Node2 -->
<g id="Node000002" class="node">
<title>Node2</title>
<g id="a_Node000002"><a xlink:href="class_t_m_c_stepper.html#aaa5cfefaf915e98eb9700bda48f99337" target="_top" xlink:title=" ">
<polygon fill="white" stroke="#666666" points="294.5,-86.25 165.25,-86.25 165.25,-67 294.5,-67 294.5,-86.25"/>
<text text-anchor="middle" x="229.88" y="-72.75" font-family="Helvetica,sans-Serif" font-size="10.00">TMCStepper::rms_current</text>
</a>
</g>
</g>
<!-- Node1&#45;&gt;Node2 -->
<g id="edge1_Node000001_Node000002" class="edge">
<title>Node1&#45;&gt;Node2</title>
<g id="a_edge1_Node000001_Node000002"><a xlink:title=" ">
<path fill="none" stroke="#63b8ff" d="M318.76,-76.62C310.8,-76.62 302.68,-76.62 294.75,-76.62"/>
<polygon fill="#63b8ff" stroke="#63b8ff" points="318.74,-80.13 328.74,-76.63 318.74,-73.13 318.74,-80.13"/>
</a>
</g>
</g>
<!-- Node3 -->
<g id="Node000003" class="node">
<title>Node3</title>
<g id="a_Node000003"><a xlink:href="class_t_m_c5130_stepper.html#a61ced146a4cc34e5c15050d4eb495ac0" target="_top" xlink:title=" ">
<polygon fill="white" stroke="#666666" points="122.12,-165.88 7.12,-165.88 7.12,-135.38 122.12,-135.38 122.12,-165.88"/>
<text text-anchor="start" x="15.12" y="-152.38" font-family="Helvetica,sans-Serif" font-size="10.00">TMC5130Stepper::rms</text>
<text text-anchor="middle" x="64.62" y="-141.12" font-family="Helvetica,sans-Serif" font-size="10.00">_current</text>
</a>
</g>
</g>
<!-- Node2&#45;&gt;Node3 -->
<g id="edge2_Node000002_Node000003" class="edge">
<title>Node2&#45;&gt;Node3</title>
<g id="a_edge2_Node000002_Node000003"><a xlink:title=" ">
<path fill="none" stroke="#63b8ff" d="M199.47,-91.89C179.79,-101.9 153.2,-115.05 129.25,-125.62 122.08,-128.79 114.38,-131.98 106.9,-134.98"/>
<polygon fill="#63b8ff" stroke="#63b8ff" points="200.98,-95.05 208.28,-87.37 197.78,-88.82 200.98,-95.05"/>
</a>
</g>
</g>
<!-- Node4 -->
<g id="Node000004" class="node">
<title>Node4</title>
<g id="a_Node000004"><a xlink:href="class_t_m_c5130_stepper.html#a6f20aa4a690a1ad2bdb845d11cc5e60f" target="_top" xlink:title=" ">
<polygon fill="white" stroke="#666666" points="122.12,-116.88 7.12,-116.88 7.12,-86.38 122.12,-86.38 122.12,-116.88"/>
<text text-anchor="start" x="15.12" y="-103.38" font-family="Helvetica,sans-Serif" font-size="10.00">TMC5130Stepper::rms</text>
<text text-anchor="middle" x="64.62" y="-92.12" font-family="Helvetica,sans-Serif" font-size="10.00">_current</text>
</a>
</g>
</g>
<!-- Node2&#45;&gt;Node4 -->
<g id="edge3_Node000002_Node000004" class="edge">
<title>Node2&#45;&gt;Node4</title>
<g id="a_edge3_Node000002_Node000004"><a xlink:title=" ">
<path fill="none" stroke="#63b8ff" d="M153.6,-88.15C143.18,-89.75 132.61,-91.37 122.6,-92.9"/>
<polygon fill="#63b8ff" stroke="#63b8ff" points="153.97,-91.64 163.33,-86.66 152.91,-84.72 153.97,-91.64"/>
</a>
</g>
</g>
<!-- Node5 -->
<g id="Node000005" class="node">
<title>Node5</title>
<g id="a_Node000005"><a xlink:href="class_t_m_c5130_stepper.html#a7528bac93b345ee7af84ab1e2786237c" target="_top" xlink:title=" ">
<polygon fill="white" stroke="#666666" points="122.12,-67.88 7.12,-67.88 7.12,-37.38 122.12,-37.38 122.12,-67.88"/>
<text text-anchor="start" x="15.12" y="-54.38" font-family="Helvetica,sans-Serif" font-size="10.00">TMC5130Stepper::rms</text>
<text text-anchor="middle" x="64.62" y="-43.12" font-family="Helvetica,sans-Serif" font-size="10.00">_current</text>
</a>
</g>
</g>
<!-- Node2&#45;&gt;Node5 -->
<g id="edge4_Node000002_Node000005" class="edge">
<title>Node2&#45;&gt;Node5</title>
<g id="a_edge4_Node000002_Node000005"><a xlink:title=" ">
<path fill="none" stroke="#63b8ff" d="M153.6,-65.56C143.18,-64.03 132.61,-62.47 122.6,-61"/>
<polygon fill="#63b8ff" stroke="#63b8ff" points="152.92,-69 163.33,-66.99 153.94,-62.07 152.92,-69"/>
</a>
</g>
</g>
<!-- Node6 -->
<g id="Node000006" class="node">
<title>Node6</title>
<g id="a_Node000006"><a xlink:href="class_t_m_c_stepper.html#ab42a120cb3172ce493b88f02e0233f9a" target="_top" xlink:title=" ">
<polygon fill="white" stroke="#666666" points="129.25,-19.25 0,-19.25 0,0 129.25,0 129.25,-19.25"/>
<text text-anchor="middle" x="64.62" y="-5.75" font-family="Helvetica,sans-Serif" font-size="10.00">TMCStepper::rms_current</text>
</a>
</g>
</g>
<!-- Node2&#45;&gt;Node6 -->
<g id="edge5_Node000002_Node000006" class="edge">
<title>Node2&#45;&gt;Node6</title>
<g id="a_edge5_Node000002_Node000006"><a xlink:title=" ">
<path fill="none" stroke="#63b8ff" d="M200.07,-61.24C180.46,-51.15 153.72,-38.1 129.25,-28.62 120.87,-25.38 111.68,-22.34 102.97,-19.7"/>
<polygon fill="#63b8ff" stroke="#63b8ff" points="198.35,-64.29 208.83,-65.81 201.58,-58.08 198.35,-64.29"/>
</a>
</g>
</g>
</g>
</svg>
</svg>

<style type='text/css'>
<![CDATA[
[data-mouse-over-selected='false'] { opacity: 0.7; }
[data-mouse-over-selected='true']  { opacity: 1.0; }
]]>
</style>
<script type="application/ecmascript"><![CDATA[
document.addEventListener('DOMContentLoaded', (event) => {
  highlightEdges();
  highlightAdjacentNodes();
});
]]></script>
</svg>
