<?xml version="1.0" encoding="UTF-8" standalone="no"?>
<!DOCTYPE svg PUBLIC "-//W3C//DTD SVG 1.1//EN"
 "http://www.w3.org/Graphics/SVG/1.1/DTD/svg11.dtd">
<!-- Generated by graphviz version 12.2.1 (20241206.2353)
 -->
<!-- Title: TMC2208Stepper::INIT_REGISTER Pages: 1 -->
<svg width="651pt" height="174pt"
 viewBox="0.00 0.00 651.00 173.88" xmlns="http://www.w3.org/2000/svg" xmlns:xlink="http://www.w3.org/1999/xlink">
<g id="graph0" class="graph" transform="scale(1 1) rotate(0) translate(4 169.88)">
<title>TMC2208Stepper::INIT_REGISTER</title>
<!-- Node1 -->
<g id="Node000001" class="node">
<title>Node1</title>
<g id="a_Node000001"><a xlink:title=" ">
<polygon fill="#999999" stroke="#666666" points="118,-103.5 0,-103.5 0,-73 118,-73 118,-103.5"/>
<text text-anchor="start" x="8" y="-90" font-family="Helvetica,sans-Serif" font-size="10.00">TMC2208Stepper::INIT</text>
<text text-anchor="middle" x="59" y="-78.75" font-family="Helvetica,sans-Serif" font-size="10.00">_REGISTER</text>
</a>
</g>
</g>
<!-- Node2 -->
<g id="Node000002" class="node">
<title>Node2</title>
<g id="a_Node000002"><a xlink:href="class_t_m_c2208_stepper.html#a62c4c6100151acdbae6de579009b9f0d" target="_top" xlink:title=" ">
<polygon fill="white" stroke="#666666" points="311.75,-97.88 154,-97.88 154,-78.62 311.75,-78.62 311.75,-97.88"/>
<text text-anchor="middle" x="232.88" y="-84.38" font-family="Helvetica,sans-Serif" font-size="10.00">TMC2208Stepper::SLAVECONF</text>
</a>
</g>
</g>
<!-- Node1&#45;&gt;Node2 -->
<g id="edge1_Node000001_Node000002" class="edge">
<title>Node1&#45;&gt;Node2</title>
<g id="a_edge1_Node000001_Node000002"><a xlink:title=" ">
<path fill="none" stroke="#63b8ff" d="M118.19,-88.25C125.93,-88.25 134.01,-88.25 142.14,-88.25"/>
<polygon fill="#63b8ff" stroke="#63b8ff" points="142.12,-91.75 152.12,-88.25 142.12,-84.75 142.12,-91.75"/>
</a>
</g>
</g>
<!-- Node3 -->
<g id="Node000003" class="node">
<title>Node3</title>
<g id="a_Node000003"><a xlink:href="class_t_m_c2208_stepper.html#a142b14de8a4dcc6cf76b4a6ede9e1cea" target="_top" xlink:title=" ">
<polygon fill="white" stroke="#666666" points="467.25,-97.88 347.75,-97.88 347.75,-78.62 467.25,-78.62 467.25,-97.88"/>
<text text-anchor="middle" x="407.5" y="-84.38" font-family="Helvetica,sans-Serif" font-size="10.00">TMC2208Stepper::write</text>
</a>
</g>
</g>
<!-- Node2&#45;&gt;Node3 -->
<g id="edge2_Node000002_Node000003" class="edge">
<title>Node2&#45;&gt;Node3</title>
<g id="a_edge2_Node000002_Node000003"><a xlink:title=" ">
<path fill="none" stroke="#63b8ff" d="M312.11,-88.25C320.08,-88.25 328.14,-88.25 336.02,-88.25"/>
<polygon fill="#63b8ff" stroke="#63b8ff" points="335.9,-91.75 345.9,-88.25 335.9,-84.75 335.9,-91.75"/>
</a>
</g>
</g>
<!-- Node4 -->
<g id="Node000004" class="node">
<title>Node4</title>
<g id="a_Node000004"><a xlink:href="class_t_m_c2208_stepper.html#a409c19fa6b052a370a317d061bf9af4e" target="_top" xlink:title=" ">
<polygon fill="white" stroke="#666666" points="642.62,-165.88 503.62,-165.88 503.62,-146.62 642.62,-146.62 642.62,-165.88"/>
<text text-anchor="middle" x="573.12" y="-152.38" font-family="Helvetica,sans-Serif" font-size="10.00">TMC2208Stepper::calcCRC</text>
</a>
</g>
</g>
<!-- Node3&#45;&gt;Node4 -->
<g id="edge3_Node000003_Node000004" class="edge">
<title>Node3&#45;&gt;Node4</title>
<g id="a_edge3_Node000003_Node000004"><a xlink:title=" ">
<path fill="none" stroke="#63b8ff" d="M425.12,-98.2C443.66,-108.97 474.8,-126.11 503.25,-137.25 508.46,-139.29 513.97,-141.2 519.51,-142.96"/>
<polygon fill="#63b8ff" stroke="#63b8ff" points="518.11,-146.2 528.7,-145.73 520.13,-139.5 518.11,-146.2"/>
</a>
</g>
</g>
<!-- Node5 -->
<g id="Node000005" class="node">
<title>Node5</title>
<g id="a_Node000005"><a xlink:href="class_t_m_c2208_stepper.html#a5147cab1658f782b36b0ce7e951d4f4e" target="_top" xlink:title=" ">
<polygon fill="white" stroke="#666666" points="643,-128.5 503.25,-128.5 503.25,-98 643,-98 643,-128.5"/>
<text text-anchor="start" x="511.25" y="-115" font-family="Helvetica,sans-Serif" font-size="10.00">TMC2208Stepper::postWrite</text>
<text text-anchor="middle" x="573.12" y="-103.75" font-family="Helvetica,sans-Serif" font-size="10.00">Communication</text>
</a>
</g>
</g>
<!-- Node3&#45;&gt;Node5 -->
<g id="edge4_Node000003_Node000005" class="edge">
<title>Node3&#45;&gt;Node5</title>
<g id="a_edge4_Node000003_Node000005"><a xlink:title=" ">
<path fill="none" stroke="#63b8ff" d="M467.57,-97.28C475.35,-98.46 483.42,-99.7 491.48,-100.93"/>
<polygon fill="#63b8ff" stroke="#63b8ff" points="490.93,-104.38 501.34,-102.43 491.98,-97.46 490.93,-104.38"/>
</a>
</g>
</g>
<!-- Node6 -->
<g id="Node000006" class="node">
<title>Node6</title>
<g id="a_Node000006"><a xlink:href="class_t_m_c2208_stepper.html#a66e4f8694ee035432af8b61f14b35a92" target="_top" xlink:title=" ">
<polygon fill="white" stroke="#666666" points="640.38,-79.5 505.88,-79.5 505.88,-49 640.38,-49 640.38,-79.5"/>
<text text-anchor="start" x="513.88" y="-66" font-family="Helvetica,sans-Serif" font-size="10.00">TMC2208Stepper::preWrite</text>
<text text-anchor="middle" x="573.12" y="-54.75" font-family="Helvetica,sans-Serif" font-size="10.00">Communication</text>
</a>
</g>
</g>
<!-- Node3&#45;&gt;Node6 -->
<g id="edge5_Node000003_Node000006" class="edge">
<title>Node3&#45;&gt;Node6</title>
<g id="a_edge5_Node000003_Node000006"><a xlink:title=" ">
<path fill="none" stroke="#63b8ff" d="M467.57,-79.59C476.26,-78.31 485.32,-76.98 494.32,-75.66"/>
<polygon fill="#63b8ff" stroke="#63b8ff" points="494.76,-79.13 504.15,-74.22 493.75,-72.21 494.76,-79.13"/>
</a>
</g>
</g>
<!-- Node7 -->
<g id="Node000007" class="node">
<title>Node7</title>
<g id="a_Node000007"><a xlink:href="class_t_m_c2208_stepper.html#adb6243277ef84d2027b2b8bae6be5bd0" target="_top" xlink:title=" ">
<polygon fill="white" stroke="#666666" points="634,-30.5 512.25,-30.5 512.25,0 634,0 634,-30.5"/>
<text text-anchor="start" x="520.25" y="-17" font-family="Helvetica,sans-Serif" font-size="10.00">TMC2208Stepper::serial</text>
<text text-anchor="middle" x="573.12" y="-5.75" font-family="Helvetica,sans-Serif" font-size="10.00">_write</text>
</a>
</g>
</g>
<!-- Node3&#45;&gt;Node7 -->
<g id="edge6_Node000003_Node000007" class="edge">
<title>Node3&#45;&gt;Node7</title>
<g id="a_edge6_Node000003_Node000007"><a xlink:title=" ">
<path fill="none" stroke="#63b8ff" d="M426.7,-78.2C445.55,-67.99 476,-52.04 503.25,-40.25 507.34,-38.48 511.59,-36.73 515.9,-35.02"/>
<polygon fill="#63b8ff" stroke="#63b8ff" points="517.14,-38.29 525.21,-31.43 514.62,-31.76 517.14,-38.29"/>
</a>
</g>
</g>
</g>
</svg>
