<?xml version="1.0" encoding="UTF-8" standalone="no"?>
<!DOCTYPE svg PUBLIC "-//W3C//DTD SVG 1.1//EN"
 "http://www.w3.org/Graphics/SVG/1.1/DTD/svg11.dtd">
<!-- Generated by graphviz version 12.2.1 (20241206.2353)
 -->
<!-- Title: TMC2208Stepper::CHOPCONF Pages: 1 -->
<svg width="739pt" height="187pt"
 viewBox="0.00 0.00 738.75 187.25" xmlns="http://www.w3.org/2000/svg" xmlns:xlink="http://www.w3.org/1999/xlink">
<g id="graph0" class="graph" transform="scale(1 1) rotate(0) translate(4 183.25)">
<title>TMC2208Stepper::CHOPCONF</title>
<!-- Node1 -->
<g id="Node000001" class="node">
<title>Node1</title>
<g id="a_Node000001"><a xlink:title=" ">
<polygon fill="#999999" stroke="#666666" points="156.25,-83.25 0,-83.25 0,-64 156.25,-64 156.25,-83.25"/>
<text text-anchor="middle" x="78.12" y="-69.75" font-family="Helvetica,sans-Serif" font-size="10.00">TMC2208Stepper::CHOPCONF</text>
</a>
</g>
</g>
<!-- Node2 -->
<g id="Node000002" class="node">
<title>Node2</title>
<g id="a_Node000002"><a xlink:href="class_t_m_c2208_stepper.html#a2fae2050849c3ab7968012def8ea1cc5" target="_top" xlink:title=" ">
<polygon fill="white" stroke="#666666" points="309.5,-83.25 192.25,-83.25 192.25,-64 309.5,-64 309.5,-83.25"/>
<text text-anchor="middle" x="250.88" y="-69.75" font-family="Helvetica,sans-Serif" font-size="10.00">TMC2208Stepper::read</text>
</a>
</g>
</g>
<!-- Node1&#45;&gt;Node2 -->
<g id="edge1_Node000001_Node000002" class="edge">
<title>Node1&#45;&gt;Node2</title>
<g id="a_edge1_Node000001_Node000002"><a xlink:title=" ">
<path fill="none" stroke="#63b8ff" d="M156.51,-73.62C164.51,-73.62 172.61,-73.62 180.52,-73.62"/>
<polygon fill="#63b8ff" stroke="#63b8ff" points="180.42,-77.13 190.42,-73.63 180.42,-70.13 180.42,-77.13"/>
</a>
</g>
</g>
<!-- Node3 -->
<g id="Node000003" class="node">
<title>Node3</title>
<g id="a_Node000003"><a xlink:href="class_t_m_c2208_stepper.html#a321ad81155b7a20c0858920d32d0b074" target="_top" xlink:title=" ">
<polygon fill="white" stroke="#666666" points="531,-142.25 363.5,-142.25 363.5,-123 531,-123 531,-142.25"/>
<text text-anchor="middle" x="447.25" y="-128.75" font-family="Helvetica,sans-Serif" font-size="10.00">TMC2208Stepper::_sendDatagram</text>
</a>
</g>
</g>
<!-- Node2&#45;&gt;Node3 -->
<g id="edge2_Node000002_Node000003" class="edge">
<title>Node2&#45;&gt;Node3</title>
<g id="a_edge2_Node000002_Node000003"><a xlink:title=" ">
<path fill="none" stroke="#63b8ff" d="M271.09,-83.65C289.67,-92.94 318.84,-106.53 345.5,-114.62 352.14,-116.64 359.1,-118.46 366.12,-120.1"/>
<polygon fill="#63b8ff" stroke="#63b8ff" points="365.18,-123.47 375.7,-122.2 366.68,-116.64 365.18,-123.47"/>
</a>
</g>
</g>
<!-- Node7 -->
<g id="Node000007" class="node">
<title>Node7</title>
<g id="a_Node000007"><a xlink:href="class_t_m_c2208_stepper.html#a409c19fa6b052a370a317d061bf9af4e" target="_top" xlink:title=" ">
<polygon fill="white" stroke="#666666" points="516.75,-105.25 377.75,-105.25 377.75,-86 516.75,-86 516.75,-105.25"/>
<text text-anchor="middle" x="447.25" y="-91.75" font-family="Helvetica,sans-Serif" font-size="10.00">TMC2208Stepper::calcCRC</text>
</a>
</g>
</g>
<!-- Node2&#45;&gt;Node7 -->
<g id="edge6_Node000002_Node000007" class="edge">
<title>Node2&#45;&gt;Node7</title>
<g id="a_edge6_Node000002_Node000007"><a xlink:title=" ">
<path fill="none" stroke="#63b8ff" d="M309.93,-80.2C327.62,-82.2 347.37,-84.43 366.24,-86.57"/>
<polygon fill="#63b8ff" stroke="#63b8ff" points="365.7,-90.03 376.03,-87.68 366.49,-83.07 365.7,-90.03"/>
</a>
</g>
</g>
<!-- Node8 -->
<g id="Node000008" class="node">
<title>Node8</title>
<g id="a_Node000008"><a xlink:href="class_t_m_c2208_stepper.html#ab3d186b27f45ec47c1cf0bf15ed4cd2e" target="_top" xlink:title=" ">
<polygon fill="white" stroke="#666666" points="517.5,-67.88 377,-67.88 377,-37.38 517.5,-37.38 517.5,-67.88"/>
<text text-anchor="start" x="385" y="-54.38" font-family="Helvetica,sans-Serif" font-size="10.00">TMC2208Stepper::postRead</text>
<text text-anchor="middle" x="447.25" y="-43.12" font-family="Helvetica,sans-Serif" font-size="10.00">Communication</text>
</a>
</g>
</g>
<!-- Node2&#45;&gt;Node8 -->
<g id="edge7_Node000002_Node000008" class="edge">
<title>Node2&#45;&gt;Node8</title>
<g id="a_edge7_Node000002_Node000008"><a xlink:title=" ">
<path fill="none" stroke="#63b8ff" d="M309.93,-67.35C327.43,-65.46 346.96,-63.35 365.65,-61.33"/>
<polygon fill="#63b8ff" stroke="#63b8ff" points="365.77,-64.84 375.33,-60.29 365.01,-57.88 365.77,-64.84"/>
</a>
</g>
</g>
<!-- Node9 -->
<g id="Node000009" class="node">
<title>Node9</title>
<g id="a_Node000009"><a xlink:href="class_t_m_c2208_stepper.html#a8c4f3ce4a964c9a03a1e14f47bf5bec3" target="_top" xlink:title=" ">
<polygon fill="white" stroke="#666666" points="549,-19.25 345.5,-19.25 345.5,0 549,0 549,-19.25"/>
<text text-anchor="middle" x="447.25" y="-5.75" font-family="Helvetica,sans-Serif" font-size="10.00">TMC2208Stepper::preReadCommunication</text>
</a>
</g>
</g>
<!-- Node2&#45;&gt;Node9 -->
<g id="edge8_Node000002_Node000009" class="edge">
<title>Node2&#45;&gt;Node9</title>
<g id="a_edge8_Node000002_Node000009"><a xlink:title=" ">
<path fill="none" stroke="#63b8ff" d="M269.25,-63.57C287.62,-53.34 317.74,-37.74 345.5,-28.62 352.8,-26.23 360.5,-24.1 368.26,-22.22"/>
<polygon fill="#63b8ff" stroke="#63b8ff" points="368.79,-25.69 377.76,-20.05 367.23,-18.86 368.79,-25.69"/>
</a>
</g>
</g>
<!-- Node4 -->
<g id="Node000004" class="node">
<title>Node4</title>
<g id="a_Node000004"><a xlink:href="class_t_m_c2208_stepper.html#aef33fe13c1d9c19e9ec9abc159147a5d" target="_top" xlink:title=" ">
<polygon fill="white" stroke="#666666" points="726.25,-179.25 589.5,-179.25 589.5,-160 726.25,-160 726.25,-179.25"/>
<text text-anchor="middle" x="657.88" y="-165.75" font-family="Helvetica,sans-Serif" font-size="10.00">TMC2208Stepper::available</text>
</a>
</g>
</g>
<!-- Node3&#45;&gt;Node4 -->
<g id="edge3_Node000003_Node000004" class="edge">
<title>Node3&#45;&gt;Node4</title>
<g id="a_edge3_Node000003_Node000004"><a xlink:title=" ">
<path fill="none" stroke="#63b8ff" d="M505.26,-142.74C531.02,-147.3 561.66,-152.74 588.63,-157.52"/>
<polygon fill="#63b8ff" stroke="#63b8ff" points="587.99,-160.96 598.45,-159.26 589.21,-154.07 587.99,-160.96"/>
</a>
</g>
</g>
<!-- Node5 -->
<g id="Node000005" class="node">
<title>Node5</title>
<g id="a_Node000005"><a xlink:href="class_t_m_c2208_stepper.html#a8214f87693050e222fc24be979f468e2" target="_top" xlink:title=" ">
<polygon fill="white" stroke="#666666" points="730.75,-142.25 585,-142.25 585,-123 730.75,-123 730.75,-142.25"/>
<text text-anchor="middle" x="657.88" y="-128.75" font-family="Helvetica,sans-Serif" font-size="10.00">TMC2208Stepper::serial_read</text>
</a>
</g>
</g>
<!-- Node3&#45;&gt;Node5 -->
<g id="edge4_Node000003_Node000005" class="edge">
<title>Node3&#45;&gt;Node5</title>
<g id="a_edge4_Node000003_Node000005"><a xlink:title=" ">
<path fill="none" stroke="#63b8ff" d="M531.3,-132.62C545.06,-132.62 559.34,-132.62 573.12,-132.62"/>
<polygon fill="#63b8ff" stroke="#63b8ff" points="573.04,-136.13 583.04,-132.63 573.04,-129.13 573.04,-136.13"/>
</a>
</g>
</g>
<!-- Node6 -->
<g id="Node000006" class="node">
<title>Node6</title>
<g id="a_Node000006"><a xlink:href="class_t_m_c2208_stepper.html#adb6243277ef84d2027b2b8bae6be5bd0" target="_top" xlink:title=" ">
<polygon fill="white" stroke="#666666" points="718.75,-104.88 597,-104.88 597,-74.38 718.75,-74.38 718.75,-104.88"/>
<text text-anchor="start" x="605" y="-91.38" font-family="Helvetica,sans-Serif" font-size="10.00">TMC2208Stepper::serial</text>
<text text-anchor="middle" x="657.88" y="-80.12" font-family="Helvetica,sans-Serif" font-size="10.00">_write</text>
</a>
</g>
</g>
<!-- Node3&#45;&gt;Node6 -->
<g id="edge5_Node000003_Node000006" class="edge">
<title>Node3&#45;&gt;Node6</title>
<g id="a_edge5_Node000003_Node000006"><a xlink:title=" ">
<path fill="none" stroke="#63b8ff" d="M507.75,-122.51C521.33,-120.06 535.68,-117.36 549,-114.62 560.82,-112.2 573.34,-109.46 585.49,-106.71"/>
<polygon fill="#63b8ff" stroke="#63b8ff" points="586.07,-110.16 595.04,-104.52 584.51,-103.34 586.07,-110.16"/>
</a>
</g>
</g>
</g>
</svg>
