<?xml version="1.0" encoding="UTF-8" standalone="no"?>
<!DOCTYPE svg PUBLIC "-//W3C//DTD SVG 1.1//EN"
 "http://www.w3.org/Graphics/SVG/1.1/DTD/svg11.dtd">
<!-- Generated by graphviz version 12.2.1 (20241206.2353)
 -->
<!-- Title: TMC2209Stepper::push Pages: 1 -->
<svg width="898pt" height="419pt"
 viewBox="0.00 0.00 898.00 419.25" xmlns="http://www.w3.org/2000/svg" xmlns:xlink="http://www.w3.org/1999/xlink">
<g id="graph0" class="graph" transform="scale(1 1) rotate(0) translate(4 415.25)">
<title>TMC2209Stepper::push</title>
<!-- Node1 -->
<g id="Node000001" class="node">
<title>Node1</title>
<g id="a_Node000001"><a xlink:title=" ">
<polygon fill="#999999" stroke="#666666" points="119.5,-204.25 0,-204.25 0,-185 119.5,-185 119.5,-204.25"/>
<text text-anchor="middle" x="59.75" y="-190.75" font-family="Helvetica,sans-Serif" font-size="10.00">TMC2209Stepper::push</text>
</a>
</g>
</g>
<!-- Node2 -->
<g id="Node000002" class="node">
<title>Node2</title>
<g id="a_Node000002"><a xlink:href="class_t_m_c2208_stepper.html#aa11281f54c293f3ff2539b1a583682a9" target="_top" xlink:title=" ">
<polygon fill="white" stroke="#666666" points="313.62,-389.25 157.38,-389.25 157.38,-370 313.62,-370 313.62,-389.25"/>
<text text-anchor="middle" x="235.5" y="-375.75" font-family="Helvetica,sans-Serif" font-size="10.00">TMC2208Stepper::CHOPCONF</text>
</a>
</g>
</g>
<!-- Node1&#45;&gt;Node2 -->
<g id="edge1_Node000001_Node000002" class="edge">
<title>Node1&#45;&gt;Node2</title>
<g id="a_edge1_Node000001_Node000002"><a xlink:title=" ">
<path fill="none" stroke="#63b8ff" d="M63.27,-204.4C71.29,-233.42 99.06,-319.66 155.5,-361.62 156.84,-362.62 158.23,-363.56 159.65,-364.46"/>
<polygon fill="#63b8ff" stroke="#63b8ff" points="157.71,-367.39 168.2,-368.93 160.96,-361.19 157.71,-367.39"/>
</a>
</g>
</g>
<!-- Node11 -->
<g id="Node000011" class="node">
<title>Node11</title>
<g id="a_Node000011"><a xlink:href="class_t_m_c2209_stepper.html#a069f66b9d21316332a12a80327ae1971" target="_top" xlink:title=" ">
<polygon fill="white" stroke="#666666" points="312.88,-352.25 158.12,-352.25 158.12,-333 312.88,-333 312.88,-352.25"/>
<text text-anchor="middle" x="235.5" y="-338.75" font-family="Helvetica,sans-Serif" font-size="10.00">TMC2209Stepper::COOLCONF</text>
</a>
</g>
</g>
<!-- Node1&#45;&gt;Node11 -->
<g id="edge10_Node000001_Node000011" class="edge">
<title>Node1&#45;&gt;Node11</title>
<g id="a_edge10_Node000001_Node000011"><a xlink:title=" ">
<path fill="none" stroke="#63b8ff" d="M65,-204.66C76,-229.34 107.92,-293.28 155.5,-324.62 157.31,-325.81 159.18,-326.93 161.11,-327.97"/>
<polygon fill="#63b8ff" stroke="#63b8ff" points="159.2,-330.94 169.75,-331.94 162.13,-324.58 159.2,-330.94"/>
</a>
</g>
</g>
<!-- Node12 -->
<g id="Node000012" class="node">
<title>Node12</title>
<g id="a_Node000012"><a xlink:href="class_t_m_c2208_stepper.html#a549db4f962d4ae698dda33ef9a708e33" target="_top" xlink:title=" ">
<polygon fill="white" stroke="#666666" points="302.75,-315.25 168.25,-315.25 168.25,-296 302.75,-296 302.75,-315.25"/>
<text text-anchor="middle" x="235.5" y="-301.75" font-family="Helvetica,sans-Serif" font-size="10.00">TMC2208Stepper::GCONF</text>
</a>
</g>
</g>
<!-- Node1&#45;&gt;Node12 -->
<g id="edge11_Node000001_Node000012" class="edge">
<title>Node1&#45;&gt;Node12</title>
<g id="a_edge11_Node000001_Node000012"><a xlink:title=" ">
<path fill="none" stroke="#63b8ff" d="M67.83,-204.57C82.08,-223.83 116.26,-266.19 155.5,-287.62 158.04,-289.01 160.68,-290.29 163.39,-291.47"/>
<polygon fill="#63b8ff" stroke="#63b8ff" points="162.11,-294.73 172.7,-295.02 164.6,-288.19 162.11,-294.73"/>
</a>
</g>
</g>
<!-- Node13 -->
<g id="Node000013" class="node">
<title>Node13</title>
<g id="a_Node000013"><a xlink:href="class_t_m_c_stepper.html#a597bc308bad0d1198b98c48a6ef34fc3" target="_top" xlink:title=" ">
<polygon fill="white" stroke="#666666" points="305,-278.25 166,-278.25 166,-259 305,-259 305,-278.25"/>
<text text-anchor="middle" x="235.5" y="-264.75" font-family="Helvetica,sans-Serif" font-size="10.00">TMCStepper::IHOLD_IRUN</text>
</a>
</g>
</g>
<!-- Node1&#45;&gt;Node13 -->
<g id="edge13_Node000001_Node000013" class="edge">
<title>Node1&#45;&gt;Node13</title>
<g id="a_edge13_Node000001_Node000013"><a xlink:title=" ">
<path fill="none" stroke="#63b8ff" d="M74.49,-204.61C92.31,-217.12 124.79,-238.4 155.5,-250.62 159.84,-252.35 164.38,-253.93 169,-255.38"/>
<polygon fill="#63b8ff" stroke="#63b8ff" points="167.82,-258.68 178.4,-258.09 169.76,-251.96 167.82,-258.68"/>
</a>
</g>
</g>
<!-- Node14 -->
<g id="Node000014" class="node">
<title>Node14</title>
<g id="a_Node000014"><a xlink:href="class_t_m_c2208_stepper.html#a7c2e849de2f2933ba9bf8ede8dc53f53" target="_top" xlink:title=" ">
<polygon fill="white" stroke="#666666" points="311.38,-241.25 159.62,-241.25 159.62,-222 311.38,-222 311.38,-241.25"/>
<text text-anchor="middle" x="235.5" y="-227.75" font-family="Helvetica,sans-Serif" font-size="10.00">TMC2208Stepper::PWMCONF</text>
</a>
</g>
</g>
<!-- Node1&#45;&gt;Node14 -->
<g id="edge14_Node000001_Node000014" class="edge">
<title>Node1&#45;&gt;Node14</title>
<g id="a_edge14_Node000001_Node000014"><a xlink:title=" ">
<path fill="none" stroke="#63b8ff" d="M108.23,-204.74C129.11,-209.18 153.83,-214.45 175.85,-219.14"/>
<polygon fill="#63b8ff" stroke="#63b8ff" points="175.09,-222.55 185.6,-221.21 176.55,-215.71 175.09,-222.55"/>
</a>
</g>
</g>
<!-- Node15 -->
<g id="Node000015" class="node">
<title>Node15</title>
<g id="a_Node000015"><a xlink:href="class_t_m_c2209_stepper.html#ac293cc713741cc1abe89079b36df9b2b" target="_top" xlink:title=" ">
<polygon fill="white" stroke="#666666" points="305.75,-204.25 165.25,-204.25 165.25,-185 305.75,-185 305.75,-204.25"/>
<text text-anchor="middle" x="235.5" y="-190.75" font-family="Helvetica,sans-Serif" font-size="10.00">TMC2209Stepper::SGTHRS</text>
</a>
</g>
</g>
<!-- Node1&#45;&gt;Node15 -->
<g id="edge16_Node000001_Node000015" class="edge">
<title>Node1&#45;&gt;Node15</title>
<g id="a_edge16_Node000001_Node000015"><a xlink:title=" ">
<path fill="none" stroke="#63b8ff" d="M119.57,-194.62C130.5,-194.62 142.09,-194.62 153.55,-194.62"/>
<polygon fill="#63b8ff" stroke="#63b8ff" points="153.41,-198.13 163.41,-194.63 153.41,-191.13 153.41,-198.13"/>
</a>
</g>
</g>
<!-- Node16 -->
<g id="Node000016" class="node">
<title>Node16</title>
<g id="a_Node000016"><a xlink:href="class_t_m_c2208_stepper.html#a7a0682fc7f4d103bf3ceee4cabb411bb" target="_top" xlink:title=" ">
<polygon fill="white" stroke="#666666" points="314.38,-167.25 156.62,-167.25 156.62,-148 314.38,-148 314.38,-167.25"/>
<text text-anchor="middle" x="235.5" y="-153.75" font-family="Helvetica,sans-Serif" font-size="10.00">TMC2208Stepper::SLAVECONF</text>
</a>
</g>
</g>
<!-- Node1&#45;&gt;Node16 -->
<g id="edge17_Node000001_Node000016" class="edge">
<title>Node1&#45;&gt;Node16</title>
<g id="a_edge17_Node000001_Node000016"><a xlink:title=" ">
<path fill="none" stroke="#63b8ff" d="M108.23,-184.51C129.11,-180.07 153.83,-174.8 175.85,-170.11"/>
<polygon fill="#63b8ff" stroke="#63b8ff" points="176.55,-173.54 185.6,-168.04 175.09,-166.7 176.55,-173.54"/>
</a>
</g>
</g>
<!-- Node17 -->
<g id="Node000017" class="node">
<title>Node17</title>
<g id="a_Node000017"><a xlink:href="class_t_m_c2209_stepper.html#a5a1335a60d938c7d1fcb7408c28f8650" target="_top" xlink:title=" ">
<polygon fill="white" stroke="#666666" points="315.5,-130.25 155.5,-130.25 155.5,-111 315.5,-111 315.5,-130.25"/>
<text text-anchor="middle" x="235.5" y="-116.75" font-family="Helvetica,sans-Serif" font-size="10.00">TMC2209Stepper::TCOOLTHRS</text>
</a>
</g>
</g>
<!-- Node1&#45;&gt;Node17 -->
<g id="edge18_Node000001_Node000017" class="edge">
<title>Node1&#45;&gt;Node17</title>
<g id="a_edge18_Node000001_Node000017"><a xlink:title=" ">
<path fill="none" stroke="#63b8ff" d="M74.49,-184.64C92.31,-172.13 124.79,-150.85 155.5,-138.62 159.84,-136.9 164.38,-135.32 169,-133.87"/>
<polygon fill="#63b8ff" stroke="#63b8ff" points="169.76,-137.29 178.4,-131.16 167.82,-130.57 169.76,-137.29"/>
</a>
</g>
</g>
<!-- Node18 -->
<g id="Node000018" class="node">
<title>Node18</title>
<g id="a_Node000018"><a xlink:href="class_t_m_c_stepper.html#a66812c883dfbb6dedc046a011b2564be" target="_top" xlink:title=" ">
<polygon fill="white" stroke="#666666" points="312.5,-93.25 158.5,-93.25 158.5,-74 312.5,-74 312.5,-93.25"/>
<text text-anchor="middle" x="235.5" y="-79.75" font-family="Helvetica,sans-Serif" font-size="10.00">TMCStepper::TPOWERDOWN</text>
</a>
</g>
</g>
<!-- Node1&#45;&gt;Node18 -->
<g id="edge19_Node000001_Node000018" class="edge">
<title>Node1&#45;&gt;Node18</title>
<g id="a_edge19_Node000001_Node000018"><a xlink:title=" ">
<path fill="none" stroke="#63b8ff" d="M67.83,-184.68C82.08,-165.42 116.26,-123.06 155.5,-101.62 158.04,-100.24 160.68,-98.96 163.39,-97.78"/>
<polygon fill="#63b8ff" stroke="#63b8ff" points="164.6,-101.06 172.7,-94.23 162.11,-94.52 164.6,-101.06"/>
</a>
</g>
</g>
<!-- Node19 -->
<g id="Node000019" class="node">
<title>Node19</title>
<g id="a_Node000019"><a xlink:href="class_t_m_c_stepper.html#ac59a9305aafc64a63698a34cac404788" target="_top" xlink:title=" ">
<polygon fill="white" stroke="#666666" points="303.5,-56.25 167.5,-56.25 167.5,-37 303.5,-37 303.5,-56.25"/>
<text text-anchor="middle" x="235.5" y="-42.75" font-family="Helvetica,sans-Serif" font-size="10.00">TMCStepper::TPWMTHRS</text>
</a>
</g>
</g>
<!-- Node1&#45;&gt;Node19 -->
<g id="edge20_Node000001_Node000019" class="edge">
<title>Node1&#45;&gt;Node19</title>
<g id="a_edge20_Node000001_Node000019"><a xlink:title=" ">
<path fill="none" stroke="#63b8ff" d="M65,-184.59C76,-159.91 107.92,-95.97 155.5,-64.62 157.31,-63.44 159.18,-62.32 161.11,-61.28"/>
<polygon fill="#63b8ff" stroke="#63b8ff" points="162.13,-64.67 169.75,-57.31 159.2,-58.31 162.13,-64.67"/>
</a>
</g>
</g>
<!-- Node20 -->
<g id="Node000020" class="node">
<title>Node20</title>
<g id="a_Node000020"><a xlink:href="class_t_m_c2208_stepper.html#a28b7ebef9a1f4b04d4b3b1e5e83ff76f" target="_top" xlink:title=" ">
<polygon fill="white" stroke="#666666" points="307.25,-19.25 163.75,-19.25 163.75,0 307.25,0 307.25,-19.25"/>
<text text-anchor="middle" x="235.5" y="-5.75" font-family="Helvetica,sans-Serif" font-size="10.00">TMC2208Stepper::VACTUAL</text>
</a>
</g>
</g>
<!-- Node1&#45;&gt;Node20 -->
<g id="edge21_Node000001_Node000020" class="edge">
<title>Node1&#45;&gt;Node20</title>
<g id="a_edge21_Node000001_Node000020"><a xlink:title=" ">
<path fill="none" stroke="#63b8ff" d="M63.27,-184.85C71.29,-155.83 99.06,-69.59 155.5,-27.62 156.84,-26.63 158.23,-25.69 159.65,-24.79"/>
<polygon fill="#63b8ff" stroke="#63b8ff" points="160.96,-28.06 168.2,-20.32 157.71,-21.86 160.96,-28.06"/>
</a>
</g>
</g>
<!-- Node3 -->
<g id="Node000003" class="node">
<title>Node3</title>
<g id="a_Node000003"><a xlink:href="class_t_m_c2208_stepper.html#a2fae2050849c3ab7968012def8ea1cc5" target="_top" xlink:title=" ">
<polygon fill="white" stroke="#666666" points="468.75,-315.25 351.5,-315.25 351.5,-296 468.75,-296 468.75,-315.25"/>
<text text-anchor="middle" x="410.12" y="-301.75" font-family="Helvetica,sans-Serif" font-size="10.00">TMC2208Stepper::read</text>
</a>
</g>
</g>
<!-- Node2&#45;&gt;Node3 -->
<g id="edge2_Node000002_Node000003" class="edge">
<title>Node2&#45;&gt;Node3</title>
<g id="a_edge2_Node000002_Node000003"><a xlink:title=" ">
<path fill="none" stroke="#63b8ff" d="M291.16,-369.54C299.45,-367.34 307.8,-364.72 315.5,-361.62 341.16,-351.33 368,-334.57 386.33,-322.06"/>
<polygon fill="#63b8ff" stroke="#63b8ff" points="388.13,-325.07 394.33,-316.49 384.12,-319.33 388.13,-325.07"/>
</a>
</g>
</g>
<!-- Node4 -->
<g id="Node000004" class="node">
<title>Node4</title>
<g id="a_Node000004"><a xlink:href="class_t_m_c2208_stepper.html#a321ad81155b7a20c0858920d32d0b074" target="_top" xlink:title=" ">
<polygon fill="white" stroke="#666666" points="690.25,-374.25 522.75,-374.25 522.75,-355 690.25,-355 690.25,-374.25"/>
<text text-anchor="middle" x="606.5" y="-360.75" font-family="Helvetica,sans-Serif" font-size="10.00">TMC2208Stepper::_sendDatagram</text>
</a>
</g>
</g>
<!-- Node3&#45;&gt;Node4 -->
<g id="edge3_Node000003_Node000004" class="edge">
<title>Node3&#45;&gt;Node4</title>
<g id="a_edge3_Node000003_Node000004"><a xlink:title=" ">
<path fill="none" stroke="#63b8ff" d="M430.34,-315.65C448.92,-324.94 478.09,-338.53 504.75,-346.62 511.39,-348.64 518.35,-350.46 525.37,-352.1"/>
<polygon fill="#63b8ff" stroke="#63b8ff" points="524.43,-355.47 534.95,-354.2 525.93,-348.64 524.43,-355.47"/>
</a>
</g>
</g>
<!-- Node8 -->
<g id="Node000008" class="node">
<title>Node8</title>
<g id="a_Node000008"><a xlink:href="class_t_m_c2208_stepper.html#a409c19fa6b052a370a317d061bf9af4e" target="_top" xlink:title=" ">
<polygon fill="white" stroke="#666666" points="676,-337.25 537,-337.25 537,-318 676,-318 676,-337.25"/>
<text text-anchor="middle" x="606.5" y="-323.75" font-family="Helvetica,sans-Serif" font-size="10.00">TMC2208Stepper::calcCRC</text>
</a>
</g>
</g>
<!-- Node3&#45;&gt;Node8 -->
<g id="edge7_Node000003_Node000008" class="edge">
<title>Node3&#45;&gt;Node8</title>
<g id="a_edge7_Node000003_Node000008"><a xlink:title=" ">
<path fill="none" stroke="#63b8ff" d="M469.18,-312.2C486.87,-314.2 506.62,-316.43 525.49,-318.57"/>
<polygon fill="#63b8ff" stroke="#63b8ff" points="524.95,-322.03 535.28,-319.68 525.74,-315.07 524.95,-322.03"/>
</a>
</g>
</g>
<!-- Node9 -->
<g id="Node000009" class="node">
<title>Node9</title>
<g id="a_Node000009"><a xlink:href="class_t_m_c2208_stepper.html#ab3d186b27f45ec47c1cf0bf15ed4cd2e" target="_top" xlink:title=" ">
<polygon fill="white" stroke="#666666" points="676.75,-299.88 536.25,-299.88 536.25,-269.38 676.75,-269.38 676.75,-299.88"/>
<text text-anchor="start" x="544.25" y="-286.38" font-family="Helvetica,sans-Serif" font-size="10.00">TMC2208Stepper::postRead</text>
<text text-anchor="middle" x="606.5" y="-275.12" font-family="Helvetica,sans-Serif" font-size="10.00">Communication</text>
</a>
</g>
</g>
<!-- Node3&#45;&gt;Node9 -->
<g id="edge8_Node000003_Node000009" class="edge">
<title>Node3&#45;&gt;Node9</title>
<g id="a_edge8_Node000003_Node000009"><a xlink:title=" ">
<path fill="none" stroke="#63b8ff" d="M469.18,-299.35C486.68,-297.46 506.21,-295.35 524.9,-293.33"/>
<polygon fill="#63b8ff" stroke="#63b8ff" points="525.02,-296.84 534.58,-292.29 524.26,-289.88 525.02,-296.84"/>
</a>
</g>
</g>
<!-- Node10 -->
<g id="Node000010" class="node">
<title>Node10</title>
<g id="a_Node000010"><a xlink:href="class_t_m_c2208_stepper.html#a8c4f3ce4a964c9a03a1e14f47bf5bec3" target="_top" xlink:title=" ">
<polygon fill="white" stroke="#666666" points="708.25,-251.25 504.75,-251.25 504.75,-232 708.25,-232 708.25,-251.25"/>
<text text-anchor="middle" x="606.5" y="-237.75" font-family="Helvetica,sans-Serif" font-size="10.00">TMC2208Stepper::preReadCommunication</text>
</a>
</g>
</g>
<!-- Node3&#45;&gt;Node10 -->
<g id="edge9_Node000003_Node000010" class="edge">
<title>Node3&#45;&gt;Node10</title>
<g id="a_edge9_Node000003_Node000010"><a xlink:title=" ">
<path fill="none" stroke="#63b8ff" d="M428.5,-295.57C446.87,-285.34 476.99,-269.74 504.75,-260.62 512.05,-258.23 519.75,-256.1 527.51,-254.22"/>
<polygon fill="#63b8ff" stroke="#63b8ff" points="528.04,-257.69 537.01,-252.05 526.48,-250.86 528.04,-257.69"/>
</a>
</g>
</g>
<!-- Node5 -->
<g id="Node000005" class="node">
<title>Node5</title>
<g id="a_Node000005"><a xlink:href="class_t_m_c2208_stepper.html#aef33fe13c1d9c19e9ec9abc159147a5d" target="_top" xlink:title=" ">
<polygon fill="white" stroke="#666666" points="885.5,-411.25 748.75,-411.25 748.75,-392 885.5,-392 885.5,-411.25"/>
<text text-anchor="middle" x="817.12" y="-397.75" font-family="Helvetica,sans-Serif" font-size="10.00">TMC2208Stepper::available</text>
</a>
</g>
</g>
<!-- Node4&#45;&gt;Node5 -->
<g id="edge4_Node000004_Node000005" class="edge">
<title>Node4&#45;&gt;Node5</title>
<g id="a_edge4_Node000004_Node000005"><a xlink:title=" ">
<path fill="none" stroke="#63b8ff" d="M664.51,-374.74C690.27,-379.3 720.91,-384.74 747.88,-389.52"/>
<polygon fill="#63b8ff" stroke="#63b8ff" points="747.24,-392.96 757.7,-391.26 748.46,-386.07 747.24,-392.96"/>
</a>
</g>
</g>
<!-- Node6 -->
<g id="Node000006" class="node">
<title>Node6</title>
<g id="a_Node000006"><a xlink:href="class_t_m_c2208_stepper.html#a8214f87693050e222fc24be979f468e2" target="_top" xlink:title=" ">
<polygon fill="white" stroke="#666666" points="890,-374.25 744.25,-374.25 744.25,-355 890,-355 890,-374.25"/>
<text text-anchor="middle" x="817.12" y="-360.75" font-family="Helvetica,sans-Serif" font-size="10.00">TMC2208Stepper::serial_read</text>
</a>
</g>
</g>
<!-- Node4&#45;&gt;Node6 -->
<g id="edge5_Node000004_Node000006" class="edge">
<title>Node4&#45;&gt;Node6</title>
<g id="a_edge5_Node000004_Node000006"><a xlink:title=" ">
<path fill="none" stroke="#63b8ff" d="M690.55,-364.62C704.31,-364.62 718.59,-364.62 732.37,-364.62"/>
<polygon fill="#63b8ff" stroke="#63b8ff" points="732.29,-368.13 742.29,-364.63 732.29,-361.13 732.29,-368.13"/>
</a>
</g>
</g>
<!-- Node7 -->
<g id="Node000007" class="node">
<title>Node7</title>
<g id="a_Node000007"><a xlink:href="class_t_m_c2208_stepper.html#adb6243277ef84d2027b2b8bae6be5bd0" target="_top" xlink:title=" ">
<polygon fill="white" stroke="#666666" points="878,-336.88 756.25,-336.88 756.25,-306.38 878,-306.38 878,-336.88"/>
<text text-anchor="start" x="764.25" y="-323.38" font-family="Helvetica,sans-Serif" font-size="10.00">TMC2208Stepper::serial</text>
<text text-anchor="middle" x="817.12" y="-312.12" font-family="Helvetica,sans-Serif" font-size="10.00">_write</text>
</a>
</g>
</g>
<!-- Node4&#45;&gt;Node7 -->
<g id="edge6_Node000004_Node000007" class="edge">
<title>Node4&#45;&gt;Node7</title>
<g id="a_edge6_Node000004_Node000007"><a xlink:title=" ">
<path fill="none" stroke="#63b8ff" d="M667,-354.51C680.58,-352.06 694.93,-349.36 708.25,-346.62 720.07,-344.2 732.59,-341.46 744.74,-338.71"/>
<polygon fill="#63b8ff" stroke="#63b8ff" points="745.32,-342.16 754.29,-336.52 743.76,-335.34 745.32,-342.16"/>
</a>
</g>
</g>
<!-- Node12&#45;&gt;Node3 -->
<g id="edge12_Node000012_Node000003" class="edge">
<title>Node12&#45;&gt;Node3</title>
<g id="a_edge12_Node000012_Node000003"><a xlink:title=" ">
<path fill="none" stroke="#63b8ff" d="M303.24,-305.62C315.25,-305.62 327.79,-305.62 339.87,-305.62"/>
<polygon fill="#63b8ff" stroke="#63b8ff" points="339.76,-309.13 349.76,-305.63 339.76,-302.13 339.76,-309.13"/>
</a>
</g>
</g>
<!-- Node14&#45;&gt;Node3 -->
<g id="edge15_Node000014_Node000003" class="edge">
<title>Node14&#45;&gt;Node3</title>
<g id="a_edge15_Node000014_Node000003"><a xlink:title=" ">
<path fill="none" stroke="#63b8ff" d="M291.16,-241.71C299.45,-243.91 307.8,-246.53 315.5,-249.62 341.16,-259.92 368,-276.68 386.33,-289.19"/>
<polygon fill="#63b8ff" stroke="#63b8ff" points="384.12,-291.92 394.33,-294.76 388.13,-286.18 384.12,-291.92"/>
</a>
</g>
</g>
</g>
</svg>
