<?xml version="1.0" encoding="UTF-8" standalone="no"?>
<!DOCTYPE svg PUBLIC "-//W3C//DTD SVG 1.1//EN"
 "http://www.w3.org/Graphics/SVG/1.1/DTD/svg11.dtd">
<!-- Generated by graphviz version 12.2.1 (20241206.2353)
 -->
<!-- Title: TMC2240Stepper::defaults Pages: 1 -->
<svg width="352pt" height="64pt"
 viewBox="0.00 0.00 352.00 64.25" xmlns="http://www.w3.org/2000/svg" xmlns:xlink="http://www.w3.org/1999/xlink">
<g id="graph0" class="graph" transform="scale(1 1) rotate(0) translate(4 60.25)">
<title>TMC2240Stepper::defaults</title>
<!-- Node1 -->
<g id="Node000001" class="node">
<title>Node1</title>
<g id="a_Node000001"><a xlink:title=" ">
<polygon fill="#999999" stroke="#666666" points="344,-37.25 211,-37.25 211,-18 344,-18 344,-37.25"/>
<text text-anchor="middle" x="277.5" y="-23.75" font-family="Helvetica,sans-Serif" font-size="10.00">TMC2240Stepper::defaults</text>
</a>
</g>
</g>
<!-- Node2 -->
<g id="Node000002" class="node">
<title>Node2</title>
<g id="a_Node000002"><a xlink:href="class_t_m_c2240_stepper.html#a33c9a315fe981ba88bca2b3b30134179" target="_top" xlink:title=" ">
<polygon fill="white" stroke="#666666" points="175,-56.25 0,-56.25 0,-37 175,-37 175,-56.25"/>
<text text-anchor="middle" x="87.5" y="-42.75" font-family="Helvetica,sans-Serif" font-size="10.00">TMC2240Stepper::TMC2240Stepper</text>
</a>
</g>
</g>
<!-- Node1&#45;&gt;Node2 -->
<g id="edge1_Node000001_Node000002" class="edge">
<title>Node1&#45;&gt;Node2</title>
<g id="a_edge1_Node000001_Node000002"><a xlink:title=" ">
<path fill="none" stroke="#63b8ff" d="M199.32,-35.43C191.42,-36.22 183.36,-37.04 175.36,-37.85"/>
<polygon fill="#63b8ff" stroke="#63b8ff" points="199.64,-38.91 209.24,-34.42 198.94,-31.95 199.64,-38.91"/>
</a>
</g>
</g>
<!-- Node3 -->
<g id="Node000003" class="node">
<title>Node3</title>
<g id="a_Node000003"><a xlink:href="class_t_m_c2240_stepper.html#ade2f79f0f5fca370c9ddcb82403a8847" target="_top" xlink:title=" ">
<polygon fill="white" stroke="#666666" points="175,-19.25 0,-19.25 0,0 175,0 175,-19.25"/>
<text text-anchor="middle" x="87.5" y="-5.75" font-family="Helvetica,sans-Serif" font-size="10.00">TMC2240Stepper::TMC2240Stepper</text>
</a>
</g>
</g>
<!-- Node1&#45;&gt;Node3 -->
<g id="edge2_Node000001_Node000003" class="edge">
<title>Node1&#45;&gt;Node3</title>
<g id="a_edge2_Node000001_Node000003"><a xlink:title=" ">
<path fill="none" stroke="#63b8ff" d="M199.32,-20.24C191.42,-19.48 183.36,-18.71 175.36,-17.94"/>
<polygon fill="#63b8ff" stroke="#63b8ff" points="198.95,-23.72 209.24,-21.19 199.62,-16.75 198.95,-23.72"/>
</a>
</g>
</g>
</g>
</svg>
