<?xml version="1.0" encoding="UTF-8" standalone="no"?>
<!DOCTYPE svg PUBLIC "-//W3C//DTD SVG 1.1//EN"
 "http://www.w3.org/Graphics/SVG/1.1/DTD/svg11.dtd">
<!-- Generated by graphviz version 12.2.1 (20241206.2353)
 -->
<!-- Title: TMC5130Stepper::X_COMPARE Pages: 1 -->
<svg width="324pt" height="113pt"
 viewBox="0.00 0.00 323.50 112.88" xmlns="http://www.w3.org/2000/svg" xmlns:xlink="http://www.w3.org/1999/xlink">
<g id="graph0" class="graph" transform="scale(1 1) rotate(0) translate(4 108.88)">
<title>TMC5130Stepper::X_COMPARE</title>
<!-- Node1 -->
<g id="Node000001" class="node">
<title>Node1</title>
<g id="a_Node000001"><a xlink:title=" ">
<polygon fill="#999999" stroke="#666666" points="315.5,-56.25 155.5,-56.25 155.5,-37 315.5,-37 315.5,-56.25"/>
<text text-anchor="middle" x="235.5" y="-42.75" font-family="Helvetica,sans-Serif" font-size="10.00">TMC5130Stepper::X_COMPARE</text>
</a>
</g>
</g>
<!-- Node2 -->
<g id="Node000002" class="node">
<title>Node2</title>
<g id="a_Node000002"><a xlink:href="class_t_m_c5130_stepper.html#a7e752d7ab59fd6da09a2ce0e86dd8b83" target="_top" xlink:title=" ">
<polygon fill="white" stroke="#666666" points="118.75,-104.88 0.75,-104.88 0.75,-74.38 118.75,-74.38 118.75,-104.88"/>
<text text-anchor="start" x="8.75" y="-91.38" font-family="Helvetica,sans-Serif" font-size="10.00">TMC5130Stepper::INIT</text>
<text text-anchor="middle" x="59.75" y="-80.12" font-family="Helvetica,sans-Serif" font-size="10.00">_REGISTER</text>
</a>
</g>
</g>
<!-- Node1&#45;&gt;Node2 -->
<g id="edge1_Node000001_Node000002" class="edge">
<title>Node1&#45;&gt;Node2</title>
<g id="a_edge1_Node000001_Node000002"><a xlink:title=" ">
<path fill="none" stroke="#63b8ff" d="M182.66,-59.45C162.63,-64.41 139.6,-70.11 119,-75.21"/>
<polygon fill="#63b8ff" stroke="#63b8ff" points="183.43,-62.87 192.29,-57.07 181.75,-56.08 183.43,-62.87"/>
</a>
</g>
</g>
<!-- Node3 -->
<g id="Node000003" class="node">
<title>Node3</title>
<g id="a_Node000003"><a xlink:href="class_t_m_c5130_stepper.html#a55e61f5181d74f26c9d35c54e4436d7a" target="_top" xlink:title=" ">
<polygon fill="white" stroke="#666666" points="119.5,-56.25 0,-56.25 0,-37 119.5,-37 119.5,-56.25"/>
<text text-anchor="middle" x="59.75" y="-42.75" font-family="Helvetica,sans-Serif" font-size="10.00">TMC5130Stepper::push</text>
</a>
</g>
</g>
<!-- Node1&#45;&gt;Node3 -->
<g id="edge2_Node000001_Node000003" class="edge">
<title>Node1&#45;&gt;Node3</title>
<g id="a_edge2_Node000001_Node000003"><a xlink:title=" ">
<path fill="none" stroke="#63b8ff" d="M143.78,-46.62C135.67,-46.62 127.61,-46.62 119.87,-46.62"/>
<polygon fill="#63b8ff" stroke="#63b8ff" points="143.74,-50.13 153.74,-46.63 143.74,-43.13 143.74,-50.13"/>
</a>
</g>
</g>
<!-- Node4 -->
<g id="Node000004" class="node">
<title>Node4</title>
<g id="a_Node000004"><a xlink:href="class_t_m_c5160_stepper.html#a5a12974304588f9d01898d91ba854b87" target="_top" xlink:title=" ">
<polygon fill="white" stroke="#666666" points="119.5,-19.25 0,-19.25 0,0 119.5,0 119.5,-19.25"/>
<text text-anchor="middle" x="59.75" y="-5.75" font-family="Helvetica,sans-Serif" font-size="10.00">TMC5160Stepper::push</text>
</a>
</g>
</g>
<!-- Node1&#45;&gt;Node4 -->
<g id="edge3_Node000001_Node000004" class="edge">
<title>Node1&#45;&gt;Node4</title>
<g id="a_edge3_Node000001_Node000004"><a xlink:title=" ">
<path fill="none" stroke="#63b8ff" d="M175.79,-34.12C153.77,-29.43 129.04,-24.17 108.17,-19.72"/>
<polygon fill="#63b8ff" stroke="#63b8ff" points="175.03,-37.54 185.54,-36.2 176.49,-30.69 175.03,-37.54"/>
</a>
</g>
</g>
</g>
</svg>
