<?xml version="1.0" encoding="UTF-8" standalone="no"?>
<!DOCTYPE svg PUBLIC "-//W3C//DTD SVG 1.1//EN"
 "http://www.w3.org/Graphics/SVG/1.1/DTD/svg11.dtd">
<!-- Generated by graphviz version 12.2.1 (20241206.2353)
 -->
<!-- Title: TMCStepper::rms_current Pages: 1 -->
<svg width="593pt" height="82pt"
 viewBox="0.00 0.00 593.25 82.25" xmlns="http://www.w3.org/2000/svg" xmlns:xlink="http://www.w3.org/1999/xlink">
<g id="graph0" class="graph" transform="scale(1 1) rotate(0) translate(4 78.25)">
<title>TMCStepper::rms_current</title>
<!-- Node1 -->
<g id="Node000001" class="node">
<title>Node1</title>
<g id="a_Node000001"><a xlink:title=" ">
<polygon fill="#999999" stroke="#666666" points="129.25,-46.25 0,-46.25 0,-27 129.25,-27 129.25,-46.25"/>
<text text-anchor="middle" x="64.62" y="-32.75" font-family="Helvetica,sans-Serif" font-size="10.00">TMCStepper::rms_current</text>
</a>
</g>
</g>
<!-- Node2 -->
<g id="Node000002" class="node">
<title>Node2</title>
<g id="a_Node000002"><a xlink:href="class_t_m_c_stepper.html#aaa5cfefaf915e98eb9700bda48f99337" target="_top" xlink:title=" ">
<polygon fill="white" stroke="#666666" points="294.5,-46.25 165.25,-46.25 165.25,-27 294.5,-27 294.5,-46.25"/>
<text text-anchor="middle" x="229.88" y="-32.75" font-family="Helvetica,sans-Serif" font-size="10.00">TMCStepper::rms_current</text>
</a>
</g>
</g>
<!-- Node1&#45;&gt;Node2 -->
<g id="edge1_Node000001_Node000002" class="edge">
<title>Node1&#45;&gt;Node2</title>
<g id="a_edge1_Node000001_Node000002"><a xlink:title=" ">
<path fill="none" stroke="#63b8ff" d="M129.68,-36.62C137.57,-36.62 145.69,-36.62 153.73,-36.62"/>
<polygon fill="#63b8ff" stroke="#63b8ff" points="153.49,-40.13 163.49,-36.63 153.49,-33.13 153.49,-40.13"/>
</a>
</g>
</g>
<!-- Node3 -->
<g id="Node000003" class="node">
<title>Node3</title>
<g id="a_Node000003"><a xlink:href="class_t_m_c_stepper.html#ae6829e76ae67523a4cb60553dd70fece" target="_top" xlink:title=" ">
<polygon fill="white" stroke="#666666" points="440.25,-69.25 330.5,-69.25 330.5,-50 440.25,-50 440.25,-69.25"/>
<text text-anchor="middle" x="385.38" y="-55.75" font-family="Helvetica,sans-Serif" font-size="10.00">TMCStepper::cs2rms</text>
</a>
</g>
</g>
<!-- Node2&#45;&gt;Node3 -->
<g id="edge2_Node000002_Node000003" class="edge">
<title>Node2&#45;&gt;Node3</title>
<g id="a_edge2_Node000002_Node000003"><a xlink:title=" ">
<path fill="none" stroke="#63b8ff" d="M294.64,-46.18C302.7,-47.39 310.96,-48.62 319.05,-49.84"/>
<polygon fill="#63b8ff" stroke="#63b8ff" points="318.42,-53.28 328.83,-51.3 319.46,-46.36 318.42,-53.28"/>
</a>
</g>
</g>
<!-- Node5 -->
<g id="Node000005" class="node">
<title>Node5</title>
<g id="a_Node000005"><a xlink:href="class_t_m_c_stepper.html#a89f965f7d005e189ef27951f37e699f2" target="_top" xlink:title=" ">
<polygon fill="white" stroke="#666666" points="432,-28.25 338.75,-28.25 338.75,-9 432,-9 432,-28.25"/>
<text text-anchor="middle" x="385.38" y="-14.75" font-family="Helvetica,sans-Serif" font-size="10.00">TMCStepper::irun</text>
</a>
</g>
</g>
<!-- Node2&#45;&gt;Node5 -->
<g id="edge4_Node000002_Node000005" class="edge">
<title>Node2&#45;&gt;Node5</title>
<g id="a_edge4_Node000002_Node000005"><a xlink:title=" ">
<path fill="none" stroke="#63b8ff" d="M294.64,-29.15C305.41,-27.89 316.53,-26.58 327.11,-25.34"/>
<polygon fill="#63b8ff" stroke="#63b8ff" points="327.33,-28.84 336.85,-24.2 326.51,-21.89 327.33,-28.84"/>
</a>
</g>
</g>
<!-- Node4 -->
<g id="Node000004" class="node">
<title>Node4</title>
<g id="a_Node000004"><a xlink:href="class_t_m_c_stepper.html#ab4366bc26a0f6a4bb1c6c33da5919238" target="_top" xlink:title=" ">
<polygon fill="white" stroke="#666666" points="585.25,-74.25 476.25,-74.25 476.25,-55 585.25,-55 585.25,-74.25"/>
<text text-anchor="middle" x="530.75" y="-60.75" font-family="Helvetica,sans-Serif" font-size="10.00">TMCStepper::vsense</text>
</a>
</g>
</g>
<!-- Node3&#45;&gt;Node4 -->
<g id="edge3_Node000003_Node000004" class="edge">
<title>Node3&#45;&gt;Node4</title>
<g id="a_edge3_Node000003_Node000004"><a xlink:title=" ">
<path fill="none" stroke="#63b8ff" d="M440.58,-61.52C448.45,-61.79 456.62,-62.07 464.67,-62.36"/>
<polygon fill="#63b8ff" stroke="#63b8ff" points="464.32,-65.85 474.43,-62.7 464.56,-58.85 464.32,-65.85"/>
</a>
</g>
</g>
<!-- Node6 -->
<g id="Node000006" class="node">
<title>Node6</title>
<g id="a_Node000006"><a xlink:href="class_t_m_c_stepper.html#aa82391a803e3103b03fadd9bb597d532" target="_top" xlink:title=" ">
<polygon fill="white" stroke="#666666" points="577.38,-19.25 484.12,-19.25 484.12,0 577.38,0 577.38,-19.25"/>
<text text-anchor="middle" x="530.75" y="-5.75" font-family="Helvetica,sans-Serif" font-size="10.00">TMCStepper::irun</text>
</a>
</g>
</g>
<!-- Node5&#45;&gt;Node6 -->
<g id="edge5_Node000005_Node000006" class="edge">
<title>Node5&#45;&gt;Node6</title>
<g id="a_edge5_Node000005_Node000006"><a xlink:title=" ">
<path fill="none" stroke="#63b8ff" d="M432.13,-15.75C445.07,-14.94 459.3,-14.05 472.81,-13.2"/>
<polygon fill="#63b8ff" stroke="#63b8ff" points="472.66,-16.72 482.42,-12.6 472.22,-9.73 472.66,-16.72"/>
</a>
</g>
</g>
<!-- Node6&#45;&gt;Node6 -->
<g id="edge6_Node000006_Node000006" class="edge">
<title>Node6&#45;&gt;Node6</title>
<g id="a_edge6_Node000006_Node000006"><a xlink:title=" ">
<path fill="none" stroke="#63b8ff" d="M507.99,-19.54C497.61,-28.15 505.2,-37.25 530.75,-37.25 545.12,-37.25 553.81,-34.37 556.82,-30.32"/>
<polygon fill="#63b8ff" stroke="#63b8ff" points="560.23,-29.52 553.95,-20.99 553.54,-31.57 560.23,-29.52"/>
</a>
</g>
</g>
</g>
</svg>
