<?xml version="1.0" encoding="UTF-8" standalone="no"?>
<!DOCTYPE svg PUBLIC "-//W3C//DTD SVG 1.1//EN"
 "http://www.w3.org/Graphics/SVG/1.1/DTD/svg11.dtd">
<!-- Generated by graphviz version 12.2.1 (20241206.2353)
 -->
<!-- Title: TMC2208Stepper::pwm_scale_auto Pages: 1 -->
<svg width="861pt" height="187pt"
 viewBox="0.00 0.00 861.25 187.25" xmlns="http://www.w3.org/2000/svg" xmlns:xlink="http://www.w3.org/1999/xlink">
<g id="graph0" class="graph" transform="scale(1 1) rotate(0) translate(4 183.25)">
<title>TMC2208Stepper::pwm_scale_auto</title>
<!-- Node1 -->
<g id="Node000001" class="node">
<title>Node1</title>
<g id="a_Node000001"><a xlink:title=" ">
<polygon fill="#999999" stroke="#666666" points="119.5,-88.88 0,-88.88 0,-58.38 119.5,-58.38 119.5,-88.88"/>
<text text-anchor="start" x="8" y="-75.38" font-family="Helvetica,sans-Serif" font-size="10.00">TMC2208Stepper::pwm</text>
<text text-anchor="middle" x="59.75" y="-64.12" font-family="Helvetica,sans-Serif" font-size="10.00">_scale_auto</text>
</a>
</g>
</g>
<!-- Node2 -->
<g id="Node000002" class="node">
<title>Node2</title>
<g id="a_Node000002"><a xlink:href="class_t_m_c2208_stepper.html#adc81db53cf0291216352b13e5425e67b" target="_top" xlink:title=" ">
<polygon fill="white" stroke="#666666" points="278.75,-88.88 155.5,-88.88 155.5,-58.38 278.75,-58.38 278.75,-88.88"/>
<text text-anchor="start" x="163.5" y="-75.38" font-family="Helvetica,sans-Serif" font-size="10.00">TMC2208Stepper::PWM</text>
<text text-anchor="middle" x="217.12" y="-64.12" font-family="Helvetica,sans-Serif" font-size="10.00">_SCALE</text>
</a>
</g>
</g>
<!-- Node1&#45;&gt;Node2 -->
<g id="edge1_Node000001_Node000002" class="edge">
<title>Node1&#45;&gt;Node2</title>
<g id="a_edge1_Node000001_Node000002"><a xlink:title=" ">
<path fill="none" stroke="#63b8ff" d="M119.93,-73.62C127.65,-73.62 135.63,-73.62 143.54,-73.62"/>
<polygon fill="#63b8ff" stroke="#63b8ff" points="143.53,-77.13 153.53,-73.63 143.53,-70.13 143.53,-77.13"/>
</a>
</g>
</g>
<!-- Node3 -->
<g id="Node000003" class="node">
<title>Node3</title>
<g id="a_Node000003"><a xlink:href="class_t_m_c2208_stepper.html#a2fae2050849c3ab7968012def8ea1cc5" target="_top" xlink:title=" ">
<polygon fill="white" stroke="#666666" points="432,-83.25 314.75,-83.25 314.75,-64 432,-64 432,-83.25"/>
<text text-anchor="middle" x="373.38" y="-69.75" font-family="Helvetica,sans-Serif" font-size="10.00">TMC2208Stepper::read</text>
</a>
</g>
</g>
<!-- Node2&#45;&gt;Node3 -->
<g id="edge2_Node000002_Node000003" class="edge">
<title>Node2&#45;&gt;Node3</title>
<g id="a_edge2_Node000002_Node000003"><a xlink:title=" ">
<path fill="none" stroke="#63b8ff" d="M279.09,-73.62C286.9,-73.62 294.94,-73.62 302.87,-73.62"/>
<polygon fill="#63b8ff" stroke="#63b8ff" points="302.86,-77.13 312.86,-73.63 302.86,-70.13 302.86,-77.13"/>
</a>
</g>
</g>
<!-- Node4 -->
<g id="Node000004" class="node">
<title>Node4</title>
<g id="a_Node000004"><a xlink:href="class_t_m_c2208_stepper.html#a321ad81155b7a20c0858920d32d0b074" target="_top" xlink:title=" ">
<polygon fill="white" stroke="#666666" points="653.5,-142.25 486,-142.25 486,-123 653.5,-123 653.5,-142.25"/>
<text text-anchor="middle" x="569.75" y="-128.75" font-family="Helvetica,sans-Serif" font-size="10.00">TMC2208Stepper::_sendDatagram</text>
</a>
</g>
</g>
<!-- Node3&#45;&gt;Node4 -->
<g id="edge3_Node000003_Node000004" class="edge">
<title>Node3&#45;&gt;Node4</title>
<g id="a_edge3_Node000003_Node000004"><a xlink:title=" ">
<path fill="none" stroke="#63b8ff" d="M393.59,-83.65C412.17,-92.94 441.34,-106.53 468,-114.62 474.64,-116.64 481.6,-118.46 488.62,-120.1"/>
<polygon fill="#63b8ff" stroke="#63b8ff" points="487.68,-123.47 498.2,-122.2 489.18,-116.64 487.68,-123.47"/>
</a>
</g>
</g>
<!-- Node8 -->
<g id="Node000008" class="node">
<title>Node8</title>
<g id="a_Node000008"><a xlink:href="class_t_m_c2208_stepper.html#a409c19fa6b052a370a317d061bf9af4e" target="_top" xlink:title=" ">
<polygon fill="white" stroke="#666666" points="639.25,-105.25 500.25,-105.25 500.25,-86 639.25,-86 639.25,-105.25"/>
<text text-anchor="middle" x="569.75" y="-91.75" font-family="Helvetica,sans-Serif" font-size="10.00">TMC2208Stepper::calcCRC</text>
</a>
</g>
</g>
<!-- Node3&#45;&gt;Node8 -->
<g id="edge7_Node000003_Node000008" class="edge">
<title>Node3&#45;&gt;Node8</title>
<g id="a_edge7_Node000003_Node000008"><a xlink:title=" ">
<path fill="none" stroke="#63b8ff" d="M432.43,-80.2C450.12,-82.2 469.87,-84.43 488.74,-86.57"/>
<polygon fill="#63b8ff" stroke="#63b8ff" points="488.2,-90.03 498.53,-87.68 488.99,-83.07 488.2,-90.03"/>
</a>
</g>
</g>
<!-- Node9 -->
<g id="Node000009" class="node">
<title>Node9</title>
<g id="a_Node000009"><a xlink:href="class_t_m_c2208_stepper.html#ab3d186b27f45ec47c1cf0bf15ed4cd2e" target="_top" xlink:title=" ">
<polygon fill="white" stroke="#666666" points="640,-67.88 499.5,-67.88 499.5,-37.38 640,-37.38 640,-67.88"/>
<text text-anchor="start" x="507.5" y="-54.38" font-family="Helvetica,sans-Serif" font-size="10.00">TMC2208Stepper::postRead</text>
<text text-anchor="middle" x="569.75" y="-43.12" font-family="Helvetica,sans-Serif" font-size="10.00">Communication</text>
</a>
</g>
</g>
<!-- Node3&#45;&gt;Node9 -->
<g id="edge8_Node000003_Node000009" class="edge">
<title>Node3&#45;&gt;Node9</title>
<g id="a_edge8_Node000003_Node000009"><a xlink:title=" ">
<path fill="none" stroke="#63b8ff" d="M432.43,-67.35C449.93,-65.46 469.46,-63.35 488.15,-61.33"/>
<polygon fill="#63b8ff" stroke="#63b8ff" points="488.27,-64.84 497.83,-60.29 487.51,-57.88 488.27,-64.84"/>
</a>
</g>
</g>
<!-- Node10 -->
<g id="Node000010" class="node">
<title>Node10</title>
<g id="a_Node000010"><a xlink:href="class_t_m_c2208_stepper.html#a8c4f3ce4a964c9a03a1e14f47bf5bec3" target="_top" xlink:title=" ">
<polygon fill="white" stroke="#666666" points="671.5,-19.25 468,-19.25 468,0 671.5,0 671.5,-19.25"/>
<text text-anchor="middle" x="569.75" y="-5.75" font-family="Helvetica,sans-Serif" font-size="10.00">TMC2208Stepper::preReadCommunication</text>
</a>
</g>
</g>
<!-- Node3&#45;&gt;Node10 -->
<g id="edge9_Node000003_Node000010" class="edge">
<title>Node3&#45;&gt;Node10</title>
<g id="a_edge9_Node000003_Node000010"><a xlink:title=" ">
<path fill="none" stroke="#63b8ff" d="M391.75,-63.57C410.12,-53.34 440.24,-37.74 468,-28.62 475.3,-26.23 483,-24.1 490.76,-22.22"/>
<polygon fill="#63b8ff" stroke="#63b8ff" points="491.29,-25.69 500.26,-20.05 489.73,-18.86 491.29,-25.69"/>
</a>
</g>
</g>
<!-- Node5 -->
<g id="Node000005" class="node">
<title>Node5</title>
<g id="a_Node000005"><a xlink:href="class_t_m_c2208_stepper.html#aef33fe13c1d9c19e9ec9abc159147a5d" target="_top" xlink:title=" ">
<polygon fill="white" stroke="#666666" points="848.75,-179.25 712,-179.25 712,-160 848.75,-160 848.75,-179.25"/>
<text text-anchor="middle" x="780.38" y="-165.75" font-family="Helvetica,sans-Serif" font-size="10.00">TMC2208Stepper::available</text>
</a>
</g>
</g>
<!-- Node4&#45;&gt;Node5 -->
<g id="edge4_Node000004_Node000005" class="edge">
<title>Node4&#45;&gt;Node5</title>
<g id="a_edge4_Node000004_Node000005"><a xlink:title=" ">
<path fill="none" stroke="#63b8ff" d="M627.76,-142.74C653.52,-147.3 684.16,-152.74 711.13,-157.52"/>
<polygon fill="#63b8ff" stroke="#63b8ff" points="710.49,-160.96 720.95,-159.26 711.71,-154.07 710.49,-160.96"/>
</a>
</g>
</g>
<!-- Node6 -->
<g id="Node000006" class="node">
<title>Node6</title>
<g id="a_Node000006"><a xlink:href="class_t_m_c2208_stepper.html#a8214f87693050e222fc24be979f468e2" target="_top" xlink:title=" ">
<polygon fill="white" stroke="#666666" points="853.25,-142.25 707.5,-142.25 707.5,-123 853.25,-123 853.25,-142.25"/>
<text text-anchor="middle" x="780.38" y="-128.75" font-family="Helvetica,sans-Serif" font-size="10.00">TMC2208Stepper::serial_read</text>
</a>
</g>
</g>
<!-- Node4&#45;&gt;Node6 -->
<g id="edge5_Node000004_Node000006" class="edge">
<title>Node4&#45;&gt;Node6</title>
<g id="a_edge5_Node000004_Node000006"><a xlink:title=" ">
<path fill="none" stroke="#63b8ff" d="M653.8,-132.62C667.56,-132.62 681.84,-132.62 695.62,-132.62"/>
<polygon fill="#63b8ff" stroke="#63b8ff" points="695.54,-136.13 705.54,-132.63 695.54,-129.13 695.54,-136.13"/>
</a>
</g>
</g>
<!-- Node7 -->
<g id="Node000007" class="node">
<title>Node7</title>
<g id="a_Node000007"><a xlink:href="class_t_m_c2208_stepper.html#adb6243277ef84d2027b2b8bae6be5bd0" target="_top" xlink:title=" ">
<polygon fill="white" stroke="#666666" points="841.25,-104.88 719.5,-104.88 719.5,-74.38 841.25,-74.38 841.25,-104.88"/>
<text text-anchor="start" x="727.5" y="-91.38" font-family="Helvetica,sans-Serif" font-size="10.00">TMC2208Stepper::serial</text>
<text text-anchor="middle" x="780.38" y="-80.12" font-family="Helvetica,sans-Serif" font-size="10.00">_write</text>
</a>
</g>
</g>
<!-- Node4&#45;&gt;Node7 -->
<g id="edge6_Node000004_Node000007" class="edge">
<title>Node4&#45;&gt;Node7</title>
<g id="a_edge6_Node000004_Node000007"><a xlink:title=" ">
<path fill="none" stroke="#63b8ff" d="M630.25,-122.51C643.83,-120.06 658.18,-117.36 671.5,-114.62 683.32,-112.2 695.84,-109.46 707.99,-106.71"/>
<polygon fill="#63b8ff" stroke="#63b8ff" points="708.57,-110.16 717.54,-104.52 707.01,-103.34 708.57,-110.16"/>
</a>
</g>
</g>
</g>
</svg>
