<?xml version="1.0" encoding="UTF-8" standalone="no"?>
<!DOCTYPE svg PUBLIC "-//W3C//DTD SVG 1.1//EN"
 "http://www.w3.org/Graphics/SVG/1.1/DTD/svg11.dtd">
<!-- Generated by graphviz version 12.2.1 (20241206.2353)
 -->
<!-- Title: TMC2240Stepper::rms_current Pages: 1 -->
<svg width="614pt" height="143pt"
 viewBox="0.00 0.00 614.25 142.88" xmlns="http://www.w3.org/2000/svg" xmlns:xlink="http://www.w3.org/1999/xlink">
<g id="graph0" class="graph" transform="scale(1 1) rotate(0) translate(4 138.88)">
<title>TMC2240Stepper::rms_current</title>
<!-- Node1 -->
<g id="Node000001" class="node">
<title>Node1</title>
<g id="a_Node000001"><a xlink:title=" ">
<polygon fill="#999999" stroke="#666666" points="115,-54.88 0,-54.88 0,-24.38 115,-24.38 115,-54.88"/>
<text text-anchor="start" x="8" y="-41.38" font-family="Helvetica,sans-Serif" font-size="10.00">TMC2240Stepper::rms</text>
<text text-anchor="middle" x="57.5" y="-30.12" font-family="Helvetica,sans-Serif" font-size="10.00">_current</text>
</a>
</g>
</g>
<!-- Node2 -->
<g id="Node000002" class="node">
<title>Node2</title>
<g id="a_Node000002"><a xlink:href="class_t_m_c2240_stepper.html#a3e82f48545681b406fd103bd84f29e54" target="_top" xlink:title=" ">
<polygon fill="white" stroke="#666666" points="266,-54.88 151,-54.88 151,-24.38 266,-24.38 266,-54.88"/>
<text text-anchor="start" x="159" y="-41.38" font-family="Helvetica,sans-Serif" font-size="10.00">TMC2240Stepper::rms</text>
<text text-anchor="middle" x="208.5" y="-30.12" font-family="Helvetica,sans-Serif" font-size="10.00">_current</text>
</a>
</g>
</g>
<!-- Node1&#45;&gt;Node2 -->
<g id="edge1_Node000001_Node000002" class="edge">
<title>Node1&#45;&gt;Node2</title>
<g id="a_edge1_Node000001_Node000002"><a xlink:title=" ">
<path fill="none" stroke="#63b8ff" d="M115.26,-39.62C123.19,-39.62 131.42,-39.62 139.53,-39.62"/>
<polygon fill="#63b8ff" stroke="#63b8ff" points="139.39,-43.13 149.39,-39.63 139.39,-36.13 139.39,-43.13"/>
</a>
</g>
</g>
<!-- Node3 -->
<g id="Node000003" class="node">
<title>Node3</title>
<g id="a_Node000003"><a xlink:href="class_t_m_c2240_stepper.html#ab4e03600d1f0d733b042b7a2b57fa65f" target="_top" xlink:title=" ">
<polygon fill="white" stroke="#666666" points="432.75,-80.25 302,-80.25 302,-61 432.75,-61 432.75,-80.25"/>
<text text-anchor="middle" x="367.38" y="-66.75" font-family="Helvetica,sans-Serif" font-size="10.00">TMC2240Stepper::cs2rms</text>
</a>
</g>
</g>
<!-- Node2&#45;&gt;Node3 -->
<g id="edge2_Node000002_Node000003" class="edge">
<title>Node2&#45;&gt;Node3</title>
<g id="a_edge2_Node000002_Node000003"><a xlink:title=" ">
<path fill="none" stroke="#63b8ff" d="M266.14,-50.82C278.43,-53.25 291.51,-55.83 304.01,-58.3"/>
<polygon fill="#63b8ff" stroke="#63b8ff" points="303.32,-61.73 313.81,-60.24 304.68,-54.87 303.32,-61.73"/>
</a>
</g>
</g>
<!-- Node6 -->
<g id="Node000006" class="node">
<title>Node6</title>
<g id="a_Node000006"><a xlink:href="class_t_m_c2240_stepper.html#ad1639c4db3c0ddfcf16b96b77be71219" target="_top" xlink:title=" ">
<polygon fill="white" stroke="#666666" points="424.5,-31.25 310.25,-31.25 310.25,-12 424.5,-12 424.5,-31.25"/>
<text text-anchor="middle" x="367.38" y="-17.75" font-family="Helvetica,sans-Serif" font-size="10.00">TMC2240Stepper::irun</text>
</a>
</g>
</g>
<!-- Node2&#45;&gt;Node6 -->
<g id="edge5_Node000002_Node000006" class="edge">
<title>Node2&#45;&gt;Node6</title>
<g id="a_edge5_Node000002_Node000006"><a xlink:title=" ">
<path fill="none" stroke="#63b8ff" d="M266.14,-33.13C276.69,-31.92 287.81,-30.64 298.66,-29.4"/>
<polygon fill="#63b8ff" stroke="#63b8ff" points="298.78,-32.9 308.32,-28.29 297.99,-25.95 298.78,-32.9"/>
</a>
</g>
</g>
<!-- Node4 -->
<g id="Node000004" class="node">
<title>Node4</title>
<g id="a_Node000004"><a xlink:href="class_t_m_c2240_stepper.html#a8d9765a61d3bf90aa88ff933a29ad160" target="_top" xlink:title=" ">
<polygon fill="white" stroke="#666666" points="595.75,-134.88 479.25,-134.88 479.25,-104.38 595.75,-104.38 595.75,-134.88"/>
<text text-anchor="start" x="487.25" y="-121.38" font-family="Helvetica,sans-Serif" font-size="10.00">TMC2240Stepper::calc</text>
<text text-anchor="middle" x="537.5" y="-110.12" font-family="Helvetica,sans-Serif" font-size="10.00">_IFS_current_RMS</text>
</a>
</g>
</g>
<!-- Node3&#45;&gt;Node4 -->
<g id="edge3_Node000003_Node000004" class="edge">
<title>Node3&#45;&gt;Node4</title>
<g id="a_edge3_Node000003_Node000004"><a xlink:title=" ">
<path fill="none" stroke="#63b8ff" d="M402.8,-80.66C422.62,-86.44 448.18,-93.88 471.63,-100.72"/>
<polygon fill="#63b8ff" stroke="#63b8ff" points="470.55,-104.05 481.13,-103.49 472.51,-97.33 470.55,-104.05"/>
</a>
</g>
</g>
<!-- Node5 -->
<g id="Node000005" class="node">
<title>Node5</title>
<g id="a_Node000005"><a xlink:href="class_t_m_c2240_stepper.html#a0950aa99ecae81e9599a77563b1d2d97" target="_top" xlink:title=" ">
<polygon fill="white" stroke="#666666" points="606.25,-85.88 468.75,-85.88 468.75,-55.38 606.25,-55.38 606.25,-85.88"/>
<text text-anchor="start" x="476.75" y="-72.38" font-family="Helvetica,sans-Serif" font-size="10.00">TMC2240Stepper::GLOBAL</text>
<text text-anchor="middle" x="537.5" y="-61.12" font-family="Helvetica,sans-Serif" font-size="10.00">_SCALER</text>
</a>
</g>
</g>
<!-- Node3&#45;&gt;Node5 -->
<g id="edge4_Node000003_Node000005" class="edge">
<title>Node3&#45;&gt;Node5</title>
<g id="a_edge4_Node000003_Node000005"><a xlink:title=" ">
<path fill="none" stroke="#63b8ff" d="M432.9,-70.62C440.83,-70.62 449,-70.62 457.12,-70.62"/>
<polygon fill="#63b8ff" stroke="#63b8ff" points="457.01,-74.13 467.01,-70.63 457.01,-67.13 457.01,-74.13"/>
</a>
</g>
</g>
<!-- Node7 -->
<g id="Node000007" class="node">
<title>Node7</title>
<g id="a_Node000007"><a xlink:href="class_t_m_c2240_stepper.html#af64920dda2f277bed484e12d54a8d0d3" target="_top" xlink:title=" ">
<polygon fill="white" stroke="#666666" points="594.62,-19.25 480.38,-19.25 480.38,0 594.62,0 594.62,-19.25"/>
<text text-anchor="middle" x="537.5" y="-5.75" font-family="Helvetica,sans-Serif" font-size="10.00">TMC2240Stepper::irun</text>
</a>
</g>
</g>
<!-- Node6&#45;&gt;Node7 -->
<g id="edge6_Node000006_Node000007" class="edge">
<title>Node6&#45;&gt;Node7</title>
<g id="a_edge6_Node000006_Node000007"><a xlink:title=" ">
<path fill="none" stroke="#63b8ff" d="M424.83,-17.6C438.83,-16.6 453.98,-15.52 468.47,-14.48"/>
<polygon fill="#63b8ff" stroke="#63b8ff" points="468.68,-17.97 478.4,-13.77 468.18,-10.99 468.68,-17.97"/>
</a>
</g>
</g>
<!-- Node7&#45;&gt;Node7 -->
<g id="edge7_Node000007_Node000007" class="edge">
<title>Node7&#45;&gt;Node7</title>
<g id="a_edge7_Node000007_Node000007"><a xlink:title=" ">
<path fill="none" stroke="#63b8ff" d="M510.87,-19.54C498.72,-28.15 507.6,-37.25 537.5,-37.25 554.32,-37.25 564.49,-34.37 568.01,-30.32"/>
<polygon fill="#63b8ff" stroke="#63b8ff" points="571.32,-29.19 564.65,-20.96 564.73,-31.56 571.32,-29.19"/>
</a>
</g>
</g>
</g>
</svg>
