<?xml version="1.0" encoding="UTF-8" standalone="no"?>
<!DOCTYPE svg PUBLIC "-//W3C//DTD SVG 1.1//EN"
 "http://www.w3.org/Graphics/SVG/1.1/DTD/svg11.dtd">
<!-- Generated by graphviz version 12.2.1 (20241206.2353)
 -->
<!-- Title: TMC2209Stepper::TMC2209Stepper Pages: 1 -->
<svg width="394pt" height="45pt"
 viewBox="0.00 0.00 394.00 45.25" xmlns="http://www.w3.org/2000/svg" xmlns:xlink="http://www.w3.org/1999/xlink">
<g id="graph0" class="graph" transform="scale(1 1) rotate(0) translate(4 41.25)">
<title>TMC2209Stepper::TMC2209Stepper</title>
<!-- Node1 -->
<g id="Node000001" class="node">
<title>Node1</title>
<g id="a_Node000001"><a xlink:title=" ">
<polygon fill="#999999" stroke="#666666" points="175,-19.25 0,-19.25 0,0 175,0 175,-19.25"/>
<text text-anchor="middle" x="87.5" y="-5.75" font-family="Helvetica,sans-Serif" font-size="10.00">TMC2209Stepper::TMC2209Stepper</text>
</a>
</g>
</g>
<!-- Node2 -->
<g id="Node000002" class="node">
<title>Node2</title>
<g id="a_Node000002"><a xlink:href="class_t_m_c2208_stepper.html#a57a21913e94361f97293dc881a693b6d" target="_top" xlink:title=" ">
<polygon fill="white" stroke="#666666" points="386,-19.25 211,-19.25 211,0 386,0 386,-19.25"/>
<text text-anchor="middle" x="298.5" y="-5.75" font-family="Helvetica,sans-Serif" font-size="10.00">TMC2208Stepper::TMC2208Stepper</text>
</a>
</g>
</g>
<!-- Node1&#45;&gt;Node2 -->
<g id="edge1_Node000001_Node000002" class="edge">
<title>Node1&#45;&gt;Node2</title>
<g id="a_edge1_Node000001_Node000002"><a xlink:title=" ">
<path fill="none" stroke="#63b8ff" d="M175.32,-9.62C183.25,-9.62 191.31,-9.62 199.33,-9.62"/>
<polygon fill="#63b8ff" stroke="#63b8ff" points="199.1,-13.13 209.1,-9.63 199.1,-6.13 199.1,-13.13"/>
</a>
</g>
</g>
<!-- Node2&#45;&gt;Node2 -->
<g id="edge2_Node000002_Node000002" class="edge">
<title>Node2&#45;&gt;Node2</title>
<g id="a_edge2_Node000002_Node000002"><a xlink:title=" ">
<path fill="none" stroke="#63b8ff" d="M265.47,-19.54C250.4,-28.15 261.41,-37.25 298.5,-37.25 320.52,-37.25 333.35,-34.04 336.98,-29.63"/>
<polygon fill="#63b8ff" stroke="#63b8ff" points="340.08,-28 332.25,-20.87 333.93,-31.33 340.08,-28"/>
</a>
</g>
</g>
</g>
</svg>
