<?xml version="1.0" encoding="UTF-8" standalone="no"?>
<!DOCTYPE svg PUBLIC "-//W3C//DTD SVG 1.1//EN"
 "http://www.w3.org/Graphics/SVG/1.1/DTD/svg11.dtd">
<!-- Generated by graphviz version 12.2.1 (20241206.2353)
 -->
<!-- Title: TMC2660Stepper::intpol Pages: 1 -->
<svg width="600pt" height="64pt"
 viewBox="0.00 0.00 600.00 64.25" xmlns="http://www.w3.org/2000/svg" xmlns:xlink="http://www.w3.org/1999/xlink">
<g id="graph0" class="graph" transform="scale(1 1) rotate(0) translate(4 60.25)">
<title>TMC2660Stepper::intpol</title>
<!-- Node1 -->
<g id="Node000001" class="node">
<title>Node1</title>
<g id="a_Node000001"><a xlink:title=" ">
<polygon fill="#999999" stroke="#666666" points="121.75,-19.25 0,-19.25 0,0 121.75,0 121.75,-19.25"/>
<text text-anchor="middle" x="60.88" y="-5.75" font-family="Helvetica,sans-Serif" font-size="10.00">TMC2660Stepper::intpol</text>
</a>
</g>
</g>
<!-- Node2 -->
<g id="Node000002" class="node">
<title>Node2</title>
<g id="a_Node000002"><a xlink:href="class_t_m_c2660_stepper.html#a01d9df97977bb8c12e3f562782adbe90" target="_top" xlink:title=" ">
<polygon fill="white" stroke="#666666" points="279.5,-38.25 157.75,-38.25 157.75,-19 279.5,-19 279.5,-38.25"/>
<text text-anchor="middle" x="218.62" y="-24.75" font-family="Helvetica,sans-Serif" font-size="10.00">TMC2660Stepper::intpol</text>
</a>
</g>
</g>
<!-- Node1&#45;&gt;Node2 -->
<g id="edge1_Node000001_Node000002" class="edge">
<title>Node1&#45;&gt;Node2</title>
<g id="a_edge1_Node000001_Node000002"><a xlink:title=" ">
<path fill="none" stroke="#63b8ff" d="M122.09,-16.97C129.95,-17.93 138.05,-18.92 146.07,-19.9"/>
<polygon fill="#63b8ff" stroke="#63b8ff" points="145.46,-23.35 155.81,-21.08 146.31,-16.4 145.46,-23.35"/>
</a>
</g>
</g>
<!-- Node3 -->
<g id="Node000003" class="node">
<title>Node3</title>
<g id="a_Node000003"><a xlink:href="class_t_m_c2660_stepper.html#aa20df51be5967e40cc23132a1d461275" target="_top" xlink:title=" ">
<polygon fill="white" stroke="#666666" points="435.75,-19.25 315.5,-19.25 315.5,0 435.75,0 435.75,-19.25"/>
<text text-anchor="middle" x="375.62" y="-5.75" font-family="Helvetica,sans-Serif" font-size="10.00">TMC2660Stepper::sdoff</text>
</a>
</g>
</g>
<!-- Node1&#45;&gt;Node3 -->
<g id="edge6_Node000001_Node000003" class="edge">
<title>Node1&#45;&gt;Node3</title>
<g id="a_edge6_Node000001_Node000003"><a xlink:title=" ">
<path fill="none" stroke="#63b8ff" d="M122.18,-9.62C174.05,-9.62 248.94,-9.62 303.68,-9.62"/>
<polygon fill="#63b8ff" stroke="#63b8ff" points="303.53,-13.13 313.53,-9.63 303.53,-6.13 303.53,-13.13"/>
</a>
</g>
</g>
<!-- Node2&#45;&gt;Node2 -->
<g id="edge2_Node000002_Node000002" class="edge">
<title>Node2&#45;&gt;Node2</title>
<g id="a_edge2_Node000002_Node000002"><a xlink:title=" ">
<path fill="none" stroke="#63b8ff" d="M194.05,-38.54C182.83,-47.15 191.03,-56.25 218.62,-56.25 234.15,-56.25 243.53,-53.37 246.78,-49.32"/>
<polygon fill="#63b8ff" stroke="#63b8ff" points="250.15,-48.37 243.68,-39.97 243.5,-50.57 250.15,-48.37"/>
</a>
</g>
</g>
<!-- Node2&#45;&gt;Node3 -->
<g id="edge3_Node000002_Node000003" class="edge">
<title>Node2&#45;&gt;Node3</title>
<g id="a_edge3_Node000002_Node000003"><a xlink:title=" ">
<path fill="none" stroke="#63b8ff" d="M280,-21.22C287.85,-20.26 295.96,-19.27 303.96,-18.29"/>
<polygon fill="#63b8ff" stroke="#63b8ff" points="304.18,-21.79 313.68,-17.1 303.33,-14.84 304.18,-21.79"/>
</a>
</g>
</g>
<!-- Node4 -->
<g id="Node000004" class="node">
<title>Node4</title>
<g id="a_Node000004"><a xlink:href="class_t_m_c2660_stepper.html#af6b9772d151924e000c051ecff34d313" target="_top" xlink:title=" ">
<polygon fill="white" stroke="#666666" points="592,-19.25 471.75,-19.25 471.75,0 592,0 592,-19.25"/>
<text text-anchor="middle" x="531.88" y="-5.75" font-family="Helvetica,sans-Serif" font-size="10.00">TMC2660Stepper::sdoff</text>
</a>
</g>
</g>
<!-- Node3&#45;&gt;Node4 -->
<g id="edge4_Node000003_Node000004" class="edge">
<title>Node3&#45;&gt;Node4</title>
<g id="a_edge4_Node000003_Node000004"><a xlink:title=" ">
<path fill="none" stroke="#63b8ff" d="M435.82,-9.62C443.73,-9.62 451.91,-9.62 460,-9.62"/>
<polygon fill="#63b8ff" stroke="#63b8ff" points="459.81,-13.13 469.81,-9.63 459.81,-6.13 459.81,-13.13"/>
</a>
</g>
</g>
<!-- Node4&#45;&gt;Node4 -->
<g id="edge5_Node000004_Node000004" class="edge">
<title>Node4&#45;&gt;Node4</title>
<g id="a_edge5_Node000004_Node000004"><a xlink:title=" ">
<path fill="none" stroke="#63b8ff" d="M507.41,-19.54C496.26,-28.15 504.41,-37.25 531.88,-37.25 547.32,-37.25 556.66,-34.37 559.89,-30.32"/>
<polygon fill="#63b8ff" stroke="#63b8ff" points="563.27,-29.38 556.81,-20.98 556.62,-31.57 563.27,-29.38"/>
</a>
</g>
</g>
</g>
</svg>
