<?xml version="1.0" encoding="UTF-8" standalone="no"?>
<!DOCTYPE svg PUBLIC "-//W3C//DTD SVG 1.1//EN"
 "http://www.w3.org/Graphics/SVG/1.1/DTD/svg11.dtd">
<!-- Generated by graphviz version 12.2.1 (20241206.2353)
 -->
<!-- Title: TMC5130Stepper::swap_lr Pages: 1 -->
<svg width="309pt" height="45pt"
 viewBox="0.00 0.00 308.50 45.25" xmlns="http://www.w3.org/2000/svg" xmlns:xlink="http://www.w3.org/1999/xlink">
<g id="graph0" class="graph" transform="scale(1 1) rotate(0) translate(4 41.25)">
<title>TMC5130Stepper::swap_lr</title>
<!-- Node1 -->
<g id="Node000001" class="node">
<title>Node1</title>
<g id="a_Node000001"><a xlink:title=" ">
<polygon fill="#999999" stroke="#666666" points="300.5,-19.25 168.25,-19.25 168.25,0 300.5,0 300.5,-19.25"/>
<text text-anchor="middle" x="234.38" y="-5.75" font-family="Helvetica,sans-Serif" font-size="10.00">TMC5130Stepper::swap_lr</text>
</a>
</g>
</g>
<!-- Node1&#45;&gt;Node1 -->
<g id="edge2_Node000001_Node000001" class="edge">
<title>Node1&#45;&gt;Node1</title>
<g id="a_edge2_Node000001_Node000001"><a xlink:title=" ">
<path fill="none" stroke="#63b8ff" d="M264.54,-30.32C261.07,-34.37 251.01,-37.25 234.38,-37.25 204.8,-37.25 196.02,-28.15 208.03,-19.54"/>
<polygon fill="#63b8ff" stroke="#63b8ff" points="267.87,-29.22 261.22,-20.96 261.27,-31.56 267.87,-29.22"/>
</a>
</g>
</g>
<!-- Node2 -->
<g id="Node000002" class="node">
<title>Node2</title>
<g id="a_Node000002"><a xlink:href="class_t_m_c5130_stepper.html#acaf8b537ddd6121f7949a0c9efaeb4f2" target="_top" xlink:title=" ">
<polygon fill="white" stroke="#666666" points="132.25,-19.25 0,-19.25 0,0 132.25,0 132.25,-19.25"/>
<text text-anchor="middle" x="66.12" y="-5.75" font-family="Helvetica,sans-Serif" font-size="10.00">TMC5130Stepper::swap_lr</text>
</a>
</g>
</g>
<!-- Node1&#45;&gt;Node2 -->
<g id="edge1_Node000001_Node000002" class="edge">
<title>Node1&#45;&gt;Node2</title>
<g id="a_edge1_Node000001_Node000002"><a xlink:title=" ">
<path fill="none" stroke="#63b8ff" d="M156.84,-9.62C148.78,-9.62 140.63,-9.62 132.71,-9.62"/>
<polygon fill="#63b8ff" stroke="#63b8ff" points="156.63,-13.13 166.63,-9.63 156.63,-6.13 156.63,-13.13"/>
</a>
</g>
</g>
</g>
</svg>
