<?xml version="1.0" encoding="UTF-8" standalone="no"?>
<!DOCTYPE svg PUBLIC "-//W3C//DTD SVG 1.1//EN"
 "http://www.w3.org/Graphics/SVG/1.1/DTD/svg11.dtd">
<!-- Generated by graphviz version 12.2.1 (20241206.2353)
 -->
<!-- Title: TMC2240Stepper::MSCURACT Pages: 1 -->
<svg width="323pt" height="64pt"
 viewBox="0.00 0.00 322.75 64.25" xmlns="http://www.w3.org/2000/svg" xmlns:xlink="http://www.w3.org/1999/xlink">
<g id="graph0" class="graph" transform="scale(1 1) rotate(0) translate(4 60.25)">
<title>TMC2240Stepper::MSCURACT</title>
<!-- Node1 -->
<g id="Node000001" class="node">
<title>Node1</title>
<g id="a_Node000001"><a xlink:title=" ">
<polygon fill="#999999" stroke="#666666" points="314.75,-37.25 158.5,-37.25 158.5,-18 314.75,-18 314.75,-37.25"/>
<text text-anchor="middle" x="236.62" y="-23.75" font-family="Helvetica,sans-Serif" font-size="10.00">TMC2240Stepper::MSCURACT</text>
</a>
</g>
</g>
<!-- Node2 -->
<g id="Node000002" class="node">
<title>Node2</title>
<g id="a_Node000002"><a xlink:href="class_t_m_c2240_stepper.html#a90d6e76948e23d4e03b702a871439a97" target="_top" xlink:title=" ">
<polygon fill="white" stroke="#666666" points="122.5,-56.25 0,-56.25 0,-37 122.5,-37 122.5,-56.25"/>
<text text-anchor="middle" x="61.25" y="-42.75" font-family="Helvetica,sans-Serif" font-size="10.00">TMC2240Stepper::cur_a</text>
</a>
</g>
</g>
<!-- Node1&#45;&gt;Node2 -->
<g id="edge1_Node000001_Node000002" class="edge">
<title>Node1&#45;&gt;Node2</title>
<g id="a_edge1_Node000001_Node000002"><a xlink:title=" ">
<path fill="none" stroke="#63b8ff" d="M146.67,-37.37C138.61,-38.26 130.57,-39.14 122.84,-39.99"/>
<polygon fill="#63b8ff" stroke="#63b8ff" points="147,-40.86 156.56,-36.29 146.24,-33.9 147,-40.86"/>
</a>
</g>
</g>
<!-- Node3 -->
<g id="Node000003" class="node">
<title>Node3</title>
<g id="a_Node000003"><a xlink:href="class_t_m_c2240_stepper.html#ac6cc53b250fbb11c6149d5177ef7c56c" target="_top" xlink:title=" ">
<polygon fill="white" stroke="#666666" points="122.5,-19.25 0,-19.25 0,0 122.5,0 122.5,-19.25"/>
<text text-anchor="middle" x="61.25" y="-5.75" font-family="Helvetica,sans-Serif" font-size="10.00">TMC2240Stepper::cur_b</text>
</a>
</g>
</g>
<!-- Node1&#45;&gt;Node3 -->
<g id="edge2_Node000001_Node000003" class="edge">
<title>Node1&#45;&gt;Node3</title>
<g id="a_edge2_Node000001_Node000003"><a xlink:title=" ">
<path fill="none" stroke="#63b8ff" d="M146.67,-18.39C138.61,-17.55 130.57,-16.72 122.84,-15.92"/>
<polygon fill="#63b8ff" stroke="#63b8ff" points="146.25,-21.86 156.56,-19.42 146.97,-14.9 146.25,-21.86"/>
</a>
</g>
</g>
</g>
</svg>
