<?xml version="1.0" encoding="UTF-8" standalone="no"?>
<!DOCTYPE svg PUBLIC "-//W3C//DTD SVG 1.1//EN"
 "http://www.w3.org/Graphics/SVG/1.1/DTD/svg11.dtd">
<!-- Generated by graphviz version 12.2.1 (20241206.2353)
 -->
<!-- Title: TMC2240Stepper::OTW_OV_VTH Pages: 1 -->
<svg width="305pt" height="255pt"
 viewBox="0.00 0.00 304.75 255.12" xmlns="http://www.w3.org/2000/svg" xmlns:xlink="http://www.w3.org/1999/xlink">
<g id="graph0" class="graph" transform="scale(1 1) rotate(0) translate(4 251.12)">
<title>TMC2240Stepper::OTW_OV_VTH</title>
<!-- Node1 -->
<g id="Node000001" class="node">
<title>Node1</title>
<g id="a_Node000001"><a xlink:title=" ">
<polygon fill="#999999" stroke="#666666" points="296.75,-139.12 175,-139.12 175,-108.62 296.75,-108.62 296.75,-139.12"/>
<text text-anchor="start" x="183" y="-125.62" font-family="Helvetica,sans-Serif" font-size="10.00">TMC2240Stepper::OTW</text>
<text text-anchor="middle" x="235.88" y="-114.38" font-family="Helvetica,sans-Serif" font-size="10.00">_OV_VTH</text>
</a>
</g>
</g>
<!-- Node2 -->
<g id="Node000002" class="node">
<title>Node2</title>
<g id="a_Node000002"><a xlink:href="class_t_m_c2240_stepper.html#ac56ac254b4d745b52c282c090972efd9" target="_top" xlink:title=" ">
<polygon fill="white" stroke="#666666" points="138.25,-247.12 0.75,-247.12 0.75,-216.62 138.25,-216.62 138.25,-247.12"/>
<text text-anchor="start" x="8.75" y="-233.62" font-family="Helvetica,sans-Serif" font-size="10.00">TMC2240Stepper::get</text>
<text text-anchor="middle" x="69.5" y="-222.38" font-family="Helvetica,sans-Serif" font-size="10.00">_overtemp_prewarn_celsius</text>
</a>
</g>
</g>
<!-- Node1&#45;&gt;Node2 -->
<g id="edge1_Node000001_Node000002" class="edge">
<title>Node1&#45;&gt;Node2</title>
<g id="a_edge1_Node000001_Node000002"><a xlink:title=" ">
<path fill="none" stroke="#63b8ff" d="M212.72,-147.77C194.45,-166.3 167.05,-191.51 139,-207.88 133.78,-210.92 128.1,-213.67 122.33,-216.13"/>
<polygon fill="#63b8ff" stroke="#63b8ff" points="215.2,-150.24 219.63,-140.61 210.17,-145.37 215.2,-150.24"/>
</a>
</g>
</g>
<!-- Node3 -->
<g id="Node000003" class="node">
<title>Node3</title>
<g id="a_Node000003"><a xlink:href="class_t_m_c2240_stepper.html#adcc4883716f3edfbd2b165edb958bd42" target="_top" xlink:title=" ">
<polygon fill="white" stroke="#666666" points="127.75,-198.75 11.25,-198.75 11.25,-157 127.75,-157 127.75,-198.75"/>
<text text-anchor="start" x="19.25" y="-185.25" font-family="Helvetica,sans-Serif" font-size="10.00">TMC2240Stepper::get</text>
<text text-anchor="start" x="19.25" y="-174" font-family="Helvetica,sans-Serif" font-size="10.00">_overvoltage_threshold</text>
<text text-anchor="middle" x="69.5" y="-162.75" font-family="Helvetica,sans-Serif" font-size="10.00">_voltage</text>
</a>
</g>
</g>
<!-- Node1&#45;&gt;Node3 -->
<g id="edge2_Node000001_Node000003" class="edge">
<title>Node1&#45;&gt;Node3</title>
<g id="a_edge2_Node000001_Node000003"><a xlink:title=" ">
<path fill="none" stroke="#63b8ff" d="M176.66,-143C160.9,-148.18 143.86,-153.77 128.14,-158.94"/>
<polygon fill="#63b8ff" stroke="#63b8ff" points="177.48,-146.41 185.89,-139.97 175.3,-139.76 177.48,-146.41"/>
</a>
</g>
</g>
<!-- Node4 -->
<g id="Node000004" class="node">
<title>Node4</title>
<g id="a_Node000004"><a xlink:href="class_t_m_c2240_stepper.html#a14f7770c1bd7fcfed40e40c29e3a4312" target="_top" xlink:title=" ">
<polygon fill="white" stroke="#666666" points="139,-139.12 0,-139.12 0,-108.62 139,-108.62 139,-139.12"/>
<text text-anchor="start" x="8" y="-125.62" font-family="Helvetica,sans-Serif" font-size="10.00">TMC2240Stepper::INIT2240</text>
<text text-anchor="middle" x="69.5" y="-114.38" font-family="Helvetica,sans-Serif" font-size="10.00">_REGISTER</text>
</a>
</g>
</g>
<!-- Node1&#45;&gt;Node4 -->
<g id="edge3_Node000001_Node000004" class="edge">
<title>Node1&#45;&gt;Node4</title>
<g id="a_edge3_Node000001_Node000004"><a xlink:title=" ">
<path fill="none" stroke="#63b8ff" d="M163.16,-123.88C155.27,-123.88 147.24,-123.88 139.39,-123.88"/>
<polygon fill="#63b8ff" stroke="#63b8ff" points="163.09,-127.38 173.09,-123.88 163.09,-120.38 163.09,-127.38"/>
</a>
</g>
</g>
<!-- Node5 -->
<g id="Node000005" class="node">
<title>Node5</title>
<g id="a_Node000005"><a xlink:href="class_t_m_c2240_stepper.html#a63df54b3cd20b3b25b7aa832c9ace4d9" target="_top" xlink:title=" ">
<polygon fill="white" stroke="#666666" points="138.25,-90.12 0.75,-90.12 0.75,-59.62 138.25,-59.62 138.25,-90.12"/>
<text text-anchor="start" x="8.75" y="-76.62" font-family="Helvetica,sans-Serif" font-size="10.00">TMC2240Stepper::set</text>
<text text-anchor="middle" x="69.5" y="-65.38" font-family="Helvetica,sans-Serif" font-size="10.00">_overtemp_prewarn_celsius</text>
</a>
</g>
</g>
<!-- Node1&#45;&gt;Node5 -->
<g id="edge4_Node000001_Node000005" class="edge">
<title>Node1&#45;&gt;Node5</title>
<g id="a_edge4_Node000001_Node000005"><a xlink:title=" ">
<path fill="none" stroke="#63b8ff" d="M171.57,-105C155.62,-100.25 138.68,-95.2 123.31,-90.62"/>
<polygon fill="#63b8ff" stroke="#63b8ff" points="170.38,-108.3 180.96,-107.8 172.38,-101.59 170.38,-108.3"/>
</a>
</g>
</g>
<!-- Node6 -->
<g id="Node000006" class="node">
<title>Node6</title>
<g id="a_Node000006"><a xlink:href="class_t_m_c2240_stepper.html#a5c1c69f365c8980031a747fd84787db0" target="_top" xlink:title=" ">
<polygon fill="white" stroke="#666666" points="127.75,-41.75 11.25,-41.75 11.25,0 127.75,0 127.75,-41.75"/>
<text text-anchor="start" x="19.25" y="-28.25" font-family="Helvetica,sans-Serif" font-size="10.00">TMC2240Stepper::set</text>
<text text-anchor="start" x="19.25" y="-17" font-family="Helvetica,sans-Serif" font-size="10.00">_overvoltage_threshold</text>
<text text-anchor="middle" x="69.5" y="-5.75" font-family="Helvetica,sans-Serif" font-size="10.00">_voltage</text>
</a>
</g>
</g>
<!-- Node1&#45;&gt;Node6 -->
<g id="edge5_Node000001_Node000006" class="edge">
<title>Node1&#45;&gt;Node6</title>
<g id="a_edge5_Node000001_Node000006"><a xlink:title=" ">
<path fill="none" stroke="#63b8ff" d="M208.3,-100.88C189.7,-85.51 163.84,-65.49 139,-50.88 133.85,-47.85 128.34,-44.94 122.77,-42.2"/>
<polygon fill="#63b8ff" stroke="#63b8ff" points="205.99,-103.52 215.9,-107.26 210.49,-98.15 205.99,-103.52"/>
</a>
</g>
</g>
</g>
</svg>
