<?xml version="1.0" encoding="UTF-8" standalone="no"?>
<!DOCTYPE svg PUBLIC "-//W3C//DTD SVG 1.1//EN"
 "http://www.w3.org/Graphics/SVG/1.1/DTD/svg11.dtd">
<!-- Generated by graphviz version 12.2.1 (20241206.2353)
 -->
<!-- Title: TMC5161Stepper::TMC5161Stepper Pages: 1 -->
<svg width="1196pt" height="118pt"
 viewBox="0.00 0.00 1196.00 118.25" xmlns="http://www.w3.org/2000/svg" xmlns:xlink="http://www.w3.org/1999/xlink">
<g id="graph0" class="graph" transform="scale(1 1) rotate(0) translate(4 114.25)">
<title>TMC5161Stepper::TMC5161Stepper</title>
<!-- Node1 -->
<g id="Node000001" class="node">
<title>Node1</title>
<g id="a_Node000001"><a xlink:title=" ">
<polygon fill="#999999" stroke="#666666" points="175,-91.25 0,-91.25 0,-72 175,-72 175,-91.25"/>
<text text-anchor="middle" x="87.5" y="-77.75" font-family="Helvetica,sans-Serif" font-size="10.00">TMC5161Stepper::TMC5161Stepper</text>
</a>
</g>
</g>
<!-- Node2 -->
<g id="Node000002" class="node">
<title>Node2</title>
<g id="a_Node000002"><a xlink:href="class_t_m_c5160_stepper.html#a6bac7c5223645da8e54aca6ff9ad700f" target="_top" xlink:title=" ">
<polygon fill="white" stroke="#666666" points="386,-91.25 211,-91.25 211,-72 386,-72 386,-91.25"/>
<text text-anchor="middle" x="298.5" y="-77.75" font-family="Helvetica,sans-Serif" font-size="10.00">TMC5160Stepper::TMC5160Stepper</text>
</a>
</g>
</g>
<!-- Node1&#45;&gt;Node2 -->
<g id="edge1_Node000001_Node000002" class="edge">
<title>Node1&#45;&gt;Node2</title>
<g id="a_edge1_Node000001_Node000002"><a xlink:title=" ">
<path fill="none" stroke="#63b8ff" d="M175.32,-81.62C183.25,-81.62 191.31,-81.62 199.33,-81.62"/>
<polygon fill="#63b8ff" stroke="#63b8ff" points="199.1,-85.13 209.1,-81.63 199.1,-78.13 199.1,-85.13"/>
</a>
</g>
</g>
<!-- Node3 -->
<g id="Node000003" class="node">
<title>Node3</title>
<g id="a_Node000003"><a xlink:href="class_t_m_c5160_stepper.html#a2b9b72c13c1f667d274927e1d56d2298" target="_top" xlink:title=" ">
<polygon fill="white" stroke="#666666" points="576,-110.25 443,-110.25 443,-91 576,-91 576,-110.25"/>
<text text-anchor="middle" x="509.5" y="-96.75" font-family="Helvetica,sans-Serif" font-size="10.00">TMC5160Stepper::defaults</text>
</a>
</g>
</g>
<!-- Node2&#45;&gt;Node3 -->
<g id="edge2_Node000002_Node000003" class="edge">
<title>Node2&#45;&gt;Node3</title>
<g id="a_edge2_Node000002_Node000003"><a xlink:title=" ">
<path fill="none" stroke="#63b8ff" d="M386.32,-89.52C401.33,-90.88 416.85,-92.29 431.58,-93.63"/>
<polygon fill="#63b8ff" stroke="#63b8ff" points="430.88,-97.08 441.16,-94.5 431.52,-90.11 430.88,-97.08"/>
</a>
</g>
</g>
<!-- Node4 -->
<g id="Node000004" class="node">
<title>Node4</title>
<g id="a_Node000004"><a xlink:href="class_t_m_c5130_stepper.html#a088aeda9ef66db632a4ede6ce0ac98b4" target="_top" xlink:title=" ">
<polygon fill="white" stroke="#666666" points="597,-73.25 422,-73.25 422,-54 597,-54 597,-73.25"/>
<text text-anchor="middle" x="509.5" y="-59.75" font-family="Helvetica,sans-Serif" font-size="10.00">TMC5130Stepper::TMC5130Stepper</text>
</a>
</g>
</g>
<!-- Node2&#45;&gt;Node4 -->
<g id="edge3_Node000002_Node000004" class="edge">
<title>Node2&#45;&gt;Node4</title>
<g id="a_edge3_Node000002_Node000004"><a xlink:title=" ">
<path fill="none" stroke="#63b8ff" d="M386.32,-74.15C394.25,-73.46 402.31,-72.77 410.33,-72.08"/>
<polygon fill="#63b8ff" stroke="#63b8ff" points="410.44,-75.58 420.11,-71.24 409.84,-68.61 410.44,-75.58"/>
</a>
</g>
</g>
<!-- Node5 -->
<g id="Node000005" class="node">
<title>Node5</title>
<g id="a_Node000005"><a xlink:href="class_t_m_c5130_stepper.html#aaeb93e5fd8e0ad7cd4f70edfa69fec47" target="_top" xlink:title=" ">
<polygon fill="white" stroke="#666666" points="787,-92.25 654,-92.25 654,-73 787,-73 787,-92.25"/>
<text text-anchor="middle" x="720.5" y="-78.75" font-family="Helvetica,sans-Serif" font-size="10.00">TMC5130Stepper::defaults</text>
</a>
</g>
</g>
<!-- Node4&#45;&gt;Node5 -->
<g id="edge4_Node000004_Node000005" class="edge">
<title>Node4&#45;&gt;Node5</title>
<g id="a_edge4_Node000004_Node000005"><a xlink:title=" ">
<path fill="none" stroke="#63b8ff" d="M597.32,-71.52C612.33,-72.88 627.85,-74.29 642.58,-75.63"/>
<polygon fill="#63b8ff" stroke="#63b8ff" points="641.88,-79.08 652.16,-76.5 642.52,-72.11 641.88,-79.08"/>
</a>
</g>
</g>
<!-- Node6 -->
<g id="Node000006" class="node">
<title>Node6</title>
<g id="a_Node000006"><a xlink:href="class_t_m_c2160_stepper.html#a4ba0721dce0f73b4438c497b27263543" target="_top" xlink:title=" ">
<polygon fill="white" stroke="#666666" points="808,-55.25 633,-55.25 633,-36 808,-36 808,-55.25"/>
<text text-anchor="middle" x="720.5" y="-41.75" font-family="Helvetica,sans-Serif" font-size="10.00">TMC2160Stepper::TMC2160Stepper</text>
</a>
</g>
</g>
<!-- Node4&#45;&gt;Node6 -->
<g id="edge5_Node000004_Node000006" class="edge">
<title>Node4&#45;&gt;Node6</title>
<g id="a_edge5_Node000004_Node000006"><a xlink:title=" ">
<path fill="none" stroke="#63b8ff" d="M597.32,-56.15C605.25,-55.46 613.31,-54.77 621.33,-54.08"/>
<polygon fill="#63b8ff" stroke="#63b8ff" points="621.44,-57.58 631.11,-53.24 620.84,-50.61 621.44,-57.58"/>
</a>
</g>
</g>
<!-- Node7 -->
<g id="Node000007" class="node">
<title>Node7</title>
<g id="a_Node000007"><a xlink:href="class_t_m_c2160_stepper.html#a5e55442fa6cd92580197a8a0d34208b1" target="_top" xlink:title=" ">
<polygon fill="white" stroke="#666666" points="998,-74.25 865,-74.25 865,-55 998,-55 998,-74.25"/>
<text text-anchor="middle" x="931.5" y="-60.75" font-family="Helvetica,sans-Serif" font-size="10.00">TMC2160Stepper::defaults</text>
</a>
</g>
</g>
<!-- Node6&#45;&gt;Node7 -->
<g id="edge6_Node000006_Node000007" class="edge">
<title>Node6&#45;&gt;Node7</title>
<g id="a_edge6_Node000006_Node000007"><a xlink:title=" ">
<path fill="none" stroke="#63b8ff" d="M808.32,-53.52C823.33,-54.88 838.85,-56.29 853.58,-57.63"/>
<polygon fill="#63b8ff" stroke="#63b8ff" points="852.88,-61.08 863.16,-58.5 853.52,-54.11 852.88,-61.08"/>
</a>
</g>
</g>
<!-- Node8 -->
<g id="Node000008" class="node">
<title>Node8</title>
<g id="a_Node000008"><a xlink:href="class_t_m_c2130_stepper.html#a5ba7c4f0262fc2715b47e33c2e419fea" target="_top" xlink:title=" ">
<polygon fill="white" stroke="#666666" points="1019,-37.25 844,-37.25 844,-18 1019,-18 1019,-37.25"/>
<text text-anchor="middle" x="931.5" y="-23.75" font-family="Helvetica,sans-Serif" font-size="10.00">TMC2130Stepper::TMC2130Stepper</text>
</a>
</g>
</g>
<!-- Node6&#45;&gt;Node8 -->
<g id="edge7_Node000006_Node000008" class="edge">
<title>Node6&#45;&gt;Node8</title>
<g id="a_edge7_Node000006_Node000008"><a xlink:title=" ">
<path fill="none" stroke="#63b8ff" d="M808.32,-38.15C816.25,-37.46 824.31,-36.77 832.33,-36.08"/>
<polygon fill="#63b8ff" stroke="#63b8ff" points="832.44,-39.58 842.11,-35.24 831.84,-32.61 832.44,-39.58"/>
</a>
</g>
</g>
<!-- Node9 -->
<g id="Node000009" class="node">
<title>Node9</title>
<g id="a_Node000009"><a xlink:href="class_t_m_c2130_stepper.html#abd1d08df305673b41b1b9c3106fb9c68" target="_top" xlink:title=" ">
<polygon fill="white" stroke="#666666" points="1188,-56.25 1055,-56.25 1055,-37 1188,-37 1188,-56.25"/>
<text text-anchor="middle" x="1121.5" y="-42.75" font-family="Helvetica,sans-Serif" font-size="10.00">TMC2130Stepper::defaults</text>
</a>
</g>
</g>
<!-- Node8&#45;&gt;Node9 -->
<g id="edge8_Node000008_Node000009" class="edge">
<title>Node8&#45;&gt;Node9</title>
<g id="a_edge8_Node000008_Node000009"><a xlink:title=" ">
<path fill="none" stroke="#63b8ff" d="M1019.35,-36.4C1027.3,-37.21 1035.32,-38.02 1043.18,-38.81"/>
<polygon fill="#63b8ff" stroke="#63b8ff" points="1042.74,-42.28 1053.04,-39.81 1043.44,-35.32 1042.74,-42.28"/>
</a>
</g>
</g>
<!-- Node10 -->
<g id="Node000010" class="node">
<title>Node10</title>
<g id="a_Node000010"><a xlink:href="class_t_m_c_stepper.html#a8a8813bde06653e0b66f93e57387a02f" target="_top" xlink:title=" ">
<polygon fill="white" stroke="#666666" points="1188,-19.25 1055,-19.25 1055,0 1188,0 1188,-19.25"/>
<text text-anchor="middle" x="1121.5" y="-5.75" font-family="Helvetica,sans-Serif" font-size="10.00">TMCStepper::TMCStepper</text>
</a>
</g>
</g>
<!-- Node8&#45;&gt;Node10 -->
<g id="edge9_Node000008_Node000010" class="edge">
<title>Node8&#45;&gt;Node10</title>
<g id="a_edge9_Node000008_Node000010"><a xlink:title=" ">
<path fill="none" stroke="#63b8ff" d="M1019.35,-19.31C1027.3,-18.55 1035.32,-17.78 1043.18,-17.03"/>
<polygon fill="#63b8ff" stroke="#63b8ff" points="1043.42,-20.52 1053.04,-16.08 1042.75,-13.55 1043.42,-20.52"/>
</a>
</g>
</g>
</g>
</svg>
