<?xml version="1.0" encoding="UTF-8" standalone="no"?>
<!DOCTYPE svg PUBLIC "-//W3C//DTD SVG 1.1//EN"
 "http://www.w3.org/Graphics/SVG/1.1/DTD/svg11.dtd">
<!-- Generated by graphviz version 12.2.1 (20241206.2353)
 -->
<!-- Title: TMC5130Stepper::SW_MODE Pages: 1 -->
<svg width="314pt" height="113pt"
 viewBox="0.00 0.00 313.75 112.88" xmlns="http://www.w3.org/2000/svg" xmlns:xlink="http://www.w3.org/1999/xlink">
<g id="graph0" class="graph" transform="scale(1 1) rotate(0) translate(4 108.88)">
<title>TMC5130Stepper::SW_MODE</title>
<!-- Node1 -->
<g id="Node000001" class="node">
<title>Node1</title>
<g id="a_Node000001"><a xlink:title=" ">
<polygon fill="#999999" stroke="#666666" points="305.75,-56.25 155.5,-56.25 155.5,-37 305.75,-37 305.75,-56.25"/>
<text text-anchor="middle" x="230.62" y="-42.75" font-family="Helvetica,sans-Serif" font-size="10.00">TMC5130Stepper::SW_MODE</text>
</a>
</g>
</g>
<!-- Node2 -->
<g id="Node000002" class="node">
<title>Node2</title>
<g id="a_Node000002"><a xlink:href="class_t_m_c5130_stepper.html#a27fd1e49c3fbf91794064d500ebec754" target="_top" xlink:title=" ">
<polygon fill="white" stroke="#666666" points="118.75,-104.88 0.75,-104.88 0.75,-74.38 118.75,-74.38 118.75,-104.88"/>
<text text-anchor="start" x="8.75" y="-91.38" font-family="Helvetica,sans-Serif" font-size="10.00">TMC5130Stepper::INIT</text>
<text text-anchor="middle" x="59.75" y="-80.12" font-family="Helvetica,sans-Serif" font-size="10.00">_REGISTER</text>
</a>
</g>
</g>
<!-- Node1&#45;&gt;Node2 -->
<g id="edge1_Node000001_Node000002" class="edge">
<title>Node1&#45;&gt;Node2</title>
<g id="a_edge1_Node000001_Node000002"><a xlink:title=" ">
<path fill="none" stroke="#63b8ff" d="M178.96,-59.52C160.08,-64.33 138.49,-69.83 118.98,-74.8"/>
<polygon fill="#63b8ff" stroke="#63b8ff" points="179.74,-62.94 188.56,-57.08 178.01,-56.16 179.74,-62.94"/>
</a>
</g>
</g>
<!-- Node3 -->
<g id="Node000003" class="node">
<title>Node3</title>
<g id="a_Node000003"><a xlink:href="class_t_m_c5130_stepper.html#a55e61f5181d74f26c9d35c54e4436d7a" target="_top" xlink:title=" ">
<polygon fill="white" stroke="#666666" points="119.5,-56.25 0,-56.25 0,-37 119.5,-37 119.5,-56.25"/>
<text text-anchor="middle" x="59.75" y="-42.75" font-family="Helvetica,sans-Serif" font-size="10.00">TMC5130Stepper::push</text>
</a>
</g>
</g>
<!-- Node1&#45;&gt;Node3 -->
<g id="edge2_Node000001_Node000003" class="edge">
<title>Node1&#45;&gt;Node3</title>
<g id="a_edge2_Node000001_Node000003"><a xlink:title=" ">
<path fill="none" stroke="#63b8ff" d="M143.72,-46.62C135.69,-46.62 127.67,-46.62 119.96,-46.62"/>
<polygon fill="#63b8ff" stroke="#63b8ff" points="143.55,-50.13 153.55,-46.63 143.55,-43.13 143.55,-50.13"/>
</a>
</g>
</g>
<!-- Node4 -->
<g id="Node000004" class="node">
<title>Node4</title>
<g id="a_Node000004"><a xlink:href="class_t_m_c5160_stepper.html#a5a12974304588f9d01898d91ba854b87" target="_top" xlink:title=" ">
<polygon fill="white" stroke="#666666" points="119.5,-19.25 0,-19.25 0,0 119.5,0 119.5,-19.25"/>
<text text-anchor="middle" x="59.75" y="-5.75" font-family="Helvetica,sans-Serif" font-size="10.00">TMC5160Stepper::push</text>
</a>
</g>
</g>
<!-- Node1&#45;&gt;Node4 -->
<g id="edge3_Node000001_Node000004" class="edge">
<title>Node1&#45;&gt;Node4</title>
<g id="a_edge3_Node000001_Node000004"><a xlink:title=" ">
<path fill="none" stroke="#63b8ff" d="M172.27,-34.06C150.94,-29.38 127.03,-24.15 106.84,-19.72"/>
<polygon fill="#63b8ff" stroke="#63b8ff" points="171.48,-37.47 182,-36.19 172.98,-30.63 171.48,-37.47"/>
</a>
</g>
</g>
</g>
</svg>
