<?xml version="1.0" encoding="UTF-8" standalone="no"?>
<!DOCTYPE svg PUBLIC "-//W3C//DTD SVG 1.1//EN"
 "http://www.w3.org/Graphics/SVG/1.1/DTD/svg11.dtd">
<!-- Generated by graphviz version 12.2.1 (20241206.2353)
 -->
<!-- Title: TMC2130Stepper::isEnabled Pages: 1 -->
<svg width="447pt" height="94pt"
 viewBox="0.00 0.00 446.75 93.88" xmlns="http://www.w3.org/2000/svg" xmlns:xlink="http://www.w3.org/1999/xlink">

<svg id="main" version="1.1" xmlns="http://www.w3.org/2000/svg" xmlns:xlink="http://www.w3.org/1999/xlink" xml:space="preserve">

<style type="text/css"><![CDATA[
.node, .edge {opacity: 0.7;}
.node.selected, .edge.selected {opacity: 1;}
.edge:hover path { stroke: red; }
.edge:hover polygon { stroke: red; fill: red; }
]]></style>
<script type="application/ecmascript" xlink:href="svg.min.js"/>
<svg id="graph" class="graph">
<g id="graph0" class="graph" transform="scale(1 1) rotate(0) translate(4 89.88)">
<title>TMC2130Stepper::isEnabled</title>
<!-- Node1 -->
<g id="Node000001" class="node">
<title>Node1</title>
<g id="a_Node000001"><a xlink:title=" ">
<polygon fill="#999999" stroke="#666666" points="141.25,-40.25 0,-40.25 0,-21 141.25,-21 141.25,-40.25"/>
<text text-anchor="middle" x="70.62" y="-26.75" font-family="Helvetica,sans-Serif" font-size="10.00">TMC2130Stepper::isEnabled</text>
</a>
</g>
</g>
<!-- Node2 -->
<g id="Node000002" class="node">
<title>Node2</title>
<g id="a_Node000002"><a xlink:href="class_t_m_c2130_stepper.html#a838f3e6896ee64d6c8e203e9d5883667" target="_top" xlink:title=" ">
<polygon fill="white" stroke="#666666" points="289.62,-67.88 177.62,-67.88 177.62,-37.38 289.62,-37.38 289.62,-67.88"/>
<text text-anchor="start" x="185.62" y="-54.38" font-family="Helvetica,sans-Serif" font-size="10.00">TMC2130Stepper::drv</text>
<text text-anchor="middle" x="233.62" y="-43.12" font-family="Helvetica,sans-Serif" font-size="10.00">_enn_cfg6</text>
</a>
</g>
</g>
<!-- Node1&#45;&gt;Node2 -->
<g id="edge1_Node000001_Node000002" class="edge">
<title>Node1&#45;&gt;Node2</title>
<g id="a_edge1_Node000001_Node000002"><a xlink:title=" ">
<path fill="none" stroke="#63b8ff" d="M141.31,-40.15C149.51,-41.27 157.86,-42.41 166.02,-43.52"/>
<polygon fill="#63b8ff" stroke="#63b8ff" points="165.51,-46.99 175.89,-44.87 166.45,-40.05 165.51,-46.99"/>
</a>
</g>
</g>
<!-- Node3 -->
<g id="Node000003" class="node">
<title>Node3</title>
<g id="a_Node000003"><a xlink:href="class_t_m_c2130_stepper.html#ac34bf4add4f669e935f2a91e1b42817c" target="_top" xlink:title=" ">
<polygon fill="white" stroke="#666666" points="290,-19.25 177.25,-19.25 177.25,0 290,0 290,-19.25"/>
<text text-anchor="middle" x="233.62" y="-5.75" font-family="Helvetica,sans-Serif" font-size="10.00">TMC2130Stepper::toff</text>
</a>
</g>
</g>
<!-- Node1&#45;&gt;Node3 -->
<g id="edge3_Node000001_Node000003" class="edge">
<title>Node1&#45;&gt;Node3</title>
<g id="a_edge3_Node000001_Node000003"><a xlink:title=" ">
<path fill="none" stroke="#63b8ff" d="M141.31,-21.54C149.39,-20.48 157.63,-19.41 165.68,-18.36"/>
<polygon fill="#63b8ff" stroke="#63b8ff" points="165.93,-21.85 175.4,-17.09 165.03,-14.91 165.93,-21.85"/>
</a>
</g>
</g>
<!-- Node2&#45;&gt;Node2 -->
<g id="edge2_Node000002_Node000002" class="edge">
<title>Node2&#45;&gt;Node2</title>
<g id="a_edge2_Node000002_Node000002"><a xlink:title=" ">
<path fill="none" stroke="#63b8ff" d="M207.27,-68.36C201.89,-77.43 210.67,-85.88 233.62,-85.88 246.18,-85.88 254.49,-83.35 258.57,-79.58"/>
<polygon fill="#63b8ff" stroke="#63b8ff" points="262.02,-80.22 259.79,-69.86 255.07,-79.35 262.02,-80.22"/>
</a>
</g>
</g>
<!-- Node4 -->
<g id="Node000004" class="node">
<title>Node4</title>
<g id="a_Node000004"><a xlink:href="class_t_m_c2130_stepper.html#a5c38cecab1bea081e85481f6ea107d42" target="_top" xlink:title=" ">
<polygon fill="white" stroke="#666666" points="438.75,-19.25 326,-19.25 326,0 438.75,0 438.75,-19.25"/>
<text text-anchor="middle" x="382.38" y="-5.75" font-family="Helvetica,sans-Serif" font-size="10.00">TMC2130Stepper::toff</text>
</a>
</g>
</g>
<!-- Node3&#45;&gt;Node4 -->
<g id="edge4_Node000003_Node000004" class="edge">
<title>Node3&#45;&gt;Node4</title>
<g id="a_edge4_Node000003_Node000004"><a xlink:title=" ">
<path fill="none" stroke="#63b8ff" d="M290.1,-9.62C298.05,-9.62 306.29,-9.62 314.43,-9.62"/>
<polygon fill="#63b8ff" stroke="#63b8ff" points="314.3,-13.13 324.3,-9.63 314.3,-6.13 314.3,-13.13"/>
</a>
</g>
</g>
<!-- Node4&#45;&gt;Node4 -->
<g id="edge5_Node000004_Node000004" class="edge">
<title>Node4&#45;&gt;Node4</title>
<g id="a_edge5_Node000004_Node000004"><a xlink:title=" ">
<path fill="none" stroke="#63b8ff" d="M359.09,-19.54C348.47,-28.15 356.23,-37.25 382.38,-37.25 397.08,-37.25 405.97,-34.37 409.05,-30.32"/>
<polygon fill="#63b8ff" stroke="#63b8ff" points="412.45,-29.47 406.12,-20.98 405.77,-31.57 412.45,-29.47"/>
</a>
</g>
</g>
</g>
</svg>
</svg>

<style type='text/css'>
<![CDATA[
[data-mouse-over-selected='false'] { opacity: 0.7; }
[data-mouse-over-selected='true']  { opacity: 1.0; }
]]>
</style>
<script type="application/ecmascript"><![CDATA[
document.addEventListener('DOMContentLoaded', (event) => {
  highlightEdges();
  highlightAdjacentNodes();
});
]]></script>
</svg>
