<?xml version="1.0" encoding="UTF-8" standalone="no"?>
<!DOCTYPE svg PUBLIC "-//W3C//DTD SVG 1.1//EN"
 "http://www.w3.org/Graphics/SVG/1.1/DTD/svg11.dtd">
<!-- Generated by graphviz version 12.2.1 (20241206.2353)
 -->
<!-- Title: TMC2660Stepper::mres Pages: 1 -->
<svg width="597pt" height="64pt"
 viewBox="0.00 0.00 597.00 64.25" xmlns="http://www.w3.org/2000/svg" xmlns:xlink="http://www.w3.org/1999/xlink">
<g id="graph0" class="graph" transform="scale(1 1) rotate(0) translate(4 60.25)">
<title>TMC2660Stepper::mres</title>
<!-- Node1 -->
<g id="Node000001" class="node">
<title>Node1</title>
<g id="a_Node000001"><a xlink:title=" ">
<polygon fill="#999999" stroke="#666666" points="120.25,-19.25 0,-19.25 0,0 120.25,0 120.25,-19.25"/>
<text text-anchor="middle" x="60.12" y="-5.75" font-family="Helvetica,sans-Serif" font-size="10.00">TMC2660Stepper::mres</text>
</a>
</g>
</g>
<!-- Node2 -->
<g id="Node000002" class="node">
<title>Node2</title>
<g id="a_Node000002"><a xlink:href="class_t_m_c2660_stepper.html#a5d9b27273ae12ef452caf6552d5c6d7c" target="_top" xlink:title=" ">
<polygon fill="white" stroke="#666666" points="276.5,-38.25 156.25,-38.25 156.25,-19 276.5,-19 276.5,-38.25"/>
<text text-anchor="middle" x="216.38" y="-24.75" font-family="Helvetica,sans-Serif" font-size="10.00">TMC2660Stepper::mres</text>
</a>
</g>
</g>
<!-- Node1&#45;&gt;Node2 -->
<g id="edge1_Node000001_Node000002" class="edge">
<title>Node1&#45;&gt;Node2</title>
<g id="a_edge1_Node000001_Node000002"><a xlink:title=" ">
<path fill="none" stroke="#63b8ff" d="M120.32,-16.92C128.23,-17.89 136.41,-18.9 144.5,-19.89"/>
<polygon fill="#63b8ff" stroke="#63b8ff" points="143.97,-23.36 154.33,-21.11 144.83,-16.41 143.97,-23.36"/>
</a>
</g>
</g>
<!-- Node3 -->
<g id="Node000003" class="node">
<title>Node3</title>
<g id="a_Node000003"><a xlink:href="class_t_m_c2660_stepper.html#aa20df51be5967e40cc23132a1d461275" target="_top" xlink:title=" ">
<polygon fill="white" stroke="#666666" points="432.75,-19.25 312.5,-19.25 312.5,0 432.75,0 432.75,-19.25"/>
<text text-anchor="middle" x="372.62" y="-5.75" font-family="Helvetica,sans-Serif" font-size="10.00">TMC2660Stepper::sdoff</text>
</a>
</g>
</g>
<!-- Node1&#45;&gt;Node3 -->
<g id="edge6_Node000001_Node000003" class="edge">
<title>Node1&#45;&gt;Node3</title>
<g id="a_edge6_Node000001_Node000003"><a xlink:title=" ">
<path fill="none" stroke="#63b8ff" d="M120.63,-9.62C172,-9.62 246.32,-9.62 300.76,-9.62"/>
<polygon fill="#63b8ff" stroke="#63b8ff" points="300.55,-13.13 310.55,-9.63 300.55,-6.13 300.55,-13.13"/>
</a>
</g>
</g>
<!-- Node2&#45;&gt;Node2 -->
<g id="edge2_Node000002_Node000002" class="edge">
<title>Node2&#45;&gt;Node2</title>
<g id="a_edge2_Node000002_Node000002"><a xlink:title=" ">
<path fill="none" stroke="#63b8ff" d="M191.91,-38.54C180.76,-47.15 188.91,-56.25 216.38,-56.25 231.82,-56.25 241.16,-53.37 244.39,-49.32"/>
<polygon fill="#63b8ff" stroke="#63b8ff" points="247.77,-48.38 241.31,-39.98 241.12,-50.57 247.77,-48.38"/>
</a>
</g>
</g>
<!-- Node2&#45;&gt;Node3 -->
<g id="edge3_Node000002_Node000003" class="edge">
<title>Node2&#45;&gt;Node3</title>
<g id="a_edge3_Node000002_Node000003"><a xlink:title=" ">
<path fill="none" stroke="#63b8ff" d="M276.57,-21.33C284.48,-20.36 292.66,-19.35 300.75,-18.36"/>
<polygon fill="#63b8ff" stroke="#63b8ff" points="301.08,-21.84 310.58,-17.14 300.22,-14.89 301.08,-21.84"/>
</a>
</g>
</g>
<!-- Node4 -->
<g id="Node000004" class="node">
<title>Node4</title>
<g id="a_Node000004"><a xlink:href="class_t_m_c2660_stepper.html#af6b9772d151924e000c051ecff34d313" target="_top" xlink:title=" ">
<polygon fill="white" stroke="#666666" points="589,-19.25 468.75,-19.25 468.75,0 589,0 589,-19.25"/>
<text text-anchor="middle" x="528.88" y="-5.75" font-family="Helvetica,sans-Serif" font-size="10.00">TMC2660Stepper::sdoff</text>
</a>
</g>
</g>
<!-- Node3&#45;&gt;Node4 -->
<g id="edge4_Node000003_Node000004" class="edge">
<title>Node3&#45;&gt;Node4</title>
<g id="a_edge4_Node000003_Node000004"><a xlink:title=" ">
<path fill="none" stroke="#63b8ff" d="M432.82,-9.62C440.73,-9.62 448.91,-9.62 457,-9.62"/>
<polygon fill="#63b8ff" stroke="#63b8ff" points="456.81,-13.13 466.81,-9.63 456.81,-6.13 456.81,-13.13"/>
</a>
</g>
</g>
<!-- Node4&#45;&gt;Node4 -->
<g id="edge5_Node000004_Node000004" class="edge">
<title>Node4&#45;&gt;Node4</title>
<g id="a_edge5_Node000004_Node000004"><a xlink:title=" ">
<path fill="none" stroke="#63b8ff" d="M504.41,-19.54C493.26,-28.15 501.41,-37.25 528.88,-37.25 544.32,-37.25 553.66,-34.37 556.89,-30.32"/>
<polygon fill="#63b8ff" stroke="#63b8ff" points="560.27,-29.38 553.81,-20.98 553.62,-31.57 560.27,-29.38"/>
</a>
</g>
</g>
</g>
</svg>
