<?xml version="1.0" encoding="UTF-8" standalone="no"?>
<!DOCTYPE svg PUBLIC "-//W3C//DTD SVG 1.1//EN"
 "http://www.w3.org/Graphics/SVG/1.1/DTD/svg11.dtd">
<!-- Generated by graphviz version 12.2.1 (20241206.2353)
 -->
<!-- Title: TMC2208Stepper::_sendDatagram Pages: 1 -->
<svg width="712pt" height="559pt"
 viewBox="0.00 0.00 711.75 558.88" xmlns="http://www.w3.org/2000/svg" xmlns:xlink="http://www.w3.org/1999/xlink">
<g id="graph0" class="graph" transform="scale(1 1) rotate(0) translate(4 554.88)">
<title>TMC2208Stepper::_sendDatagram</title>
<!-- Node1 -->
<g id="Node000001" class="node">
<title>Node1</title>
<g id="a_Node000001"><a xlink:title=" ">
<polygon fill="#999999" stroke="#666666" points="703.75,-297.88 536.25,-297.88 536.25,-278.62 703.75,-278.62 703.75,-297.88"/>
<text text-anchor="middle" x="620" y="-284.38" font-family="Helvetica,sans-Serif" font-size="10.00">TMC2208Stepper::_sendDatagram</text>
</a>
</g>
</g>
<!-- Node2 -->
<g id="Node000002" class="node">
<title>Node2</title>
<g id="a_Node000002"><a xlink:href="class_t_m_c2208_stepper.html#a2fae2050849c3ab7968012def8ea1cc5" target="_top" xlink:title=" ">
<polygon fill="white" stroke="#666666" points="500.25,-297.88 383,-297.88 383,-278.62 500.25,-278.62 500.25,-297.88"/>
<text text-anchor="middle" x="441.62" y="-284.38" font-family="Helvetica,sans-Serif" font-size="10.00">TMC2208Stepper::read</text>
</a>
</g>
</g>
<!-- Node1&#45;&gt;Node2 -->
<g id="edge1_Node000001_Node000002" class="edge">
<title>Node1&#45;&gt;Node2</title>
<g id="a_edge1_Node000001_Node000002"><a xlink:title=" ">
<path fill="none" stroke="#63b8ff" d="M524.74,-288.25C516.52,-288.25 508.36,-288.25 500.56,-288.25"/>
<polygon fill="#63b8ff" stroke="#63b8ff" points="524.46,-291.75 534.46,-288.25 524.46,-284.75 524.46,-291.75"/>
</a>
</g>
</g>
<!-- Node3 -->
<g id="Node000003" class="node">
<title>Node3</title>
<g id="a_Node000003"><a xlink:href="class_t_m_c2208_stepper.html#aa11281f54c293f3ff2539b1a583682a9" target="_top" xlink:title=" ">
<polygon fill="white" stroke="#666666" points="335,-550.88 178.75,-550.88 178.75,-531.62 335,-531.62 335,-550.88"/>
<text text-anchor="middle" x="256.88" y="-537.38" font-family="Helvetica,sans-Serif" font-size="10.00">TMC2208Stepper::CHOPCONF</text>
</a>
</g>
</g>
<!-- Node2&#45;&gt;Node3 -->
<g id="edge2_Node000002_Node000003" class="edge">
<title>Node2&#45;&gt;Node3</title>
<g id="a_edge2_Node000002_Node000003"><a xlink:title=" ">
<path fill="none" stroke="#63b8ff" d="M438.77,-309.5C433.51,-356.01 414.19,-467.18 347,-523.25 343.24,-526.39 339.09,-529.03 334.69,-531.24"/>
<polygon fill="#63b8ff" stroke="#63b8ff" points="442.23,-310 439.76,-299.7 435.27,-309.3 442.23,-310"/>
</a>
</g>
</g>
<!-- Node6 -->
<g id="Node000006" class="node">
<title>Node6</title>
<g id="a_Node000006"><a xlink:href="class_t_m_c2208_stepper.html#a2b4643106d473dd0081ec60a3f9b8fdf" target="_top" xlink:title=" ">
<polygon fill="white" stroke="#666666" points="317,-439.5 196.75,-439.5 196.75,-409 317,-409 317,-439.5"/>
<text text-anchor="start" x="204.75" y="-426" font-family="Helvetica,sans-Serif" font-size="10.00">TMC2208Stepper::DRV</text>
<text text-anchor="middle" x="256.88" y="-414.75" font-family="Helvetica,sans-Serif" font-size="10.00">_STATUS</text>
</a>
</g>
</g>
<!-- Node2&#45;&gt;Node6 -->
<g id="edge5_Node000002_Node000006" class="edge">
<title>Node2&#45;&gt;Node6</title>
<g id="a_edge5_Node000002_Node000006"><a xlink:title=" ">
<path fill="none" stroke="#63b8ff" d="M429.46,-307.96C414.13,-333.18 384.2,-376.47 347,-400.25 337.95,-406.03 327.54,-410.43 317.09,-413.78"/>
<polygon fill="#63b8ff" stroke="#63b8ff" points="432.45,-309.76 434.51,-299.37 426.42,-306.21 432.45,-309.76"/>
</a>
</g>
</g>
<!-- Node7 -->
<g id="Node000007" class="node">
<title>Node7</title>
<g id="a_Node000007"><a xlink:href="class_t_m_c2208_stepper.html#a64c51922eb2029e4bbcd4f8a51b6a6ae" target="_top" xlink:title=" ">
<polygon fill="white" stroke="#666666" points="347,-390.88 166.75,-390.88 166.75,-371.62 347,-371.62 347,-390.88"/>
<text text-anchor="middle" x="256.88" y="-377.38" font-family="Helvetica,sans-Serif" font-size="10.00">TMC2208Stepper::FACTORY_CONF</text>
</a>
</g>
</g>
<!-- Node2&#45;&gt;Node7 -->
<g id="edge6_Node000002_Node000007" class="edge">
<title>Node2&#45;&gt;Node7</title>
<g id="a_edge6_Node000002_Node000007"><a xlink:title=" ">
<path fill="none" stroke="#63b8ff" d="M423.68,-306.08C406.16,-323.42 377.16,-349.15 347,-363.25 340.28,-366.39 333.02,-368.99 325.65,-371.13"/>
<polygon fill="#63b8ff" stroke="#63b8ff" points="425.74,-308.98 430.26,-299.4 420.75,-304.07 425.74,-308.98"/>
</a>
</g>
</g>
<!-- Node10 -->
<g id="Node000010" class="node">
<title>Node10</title>
<g id="a_Node000010"><a xlink:href="class_t_m_c2208_stepper.html#a549db4f962d4ae698dda33ef9a708e33" target="_top" xlink:title=" ">
<polygon fill="white" stroke="#666666" points="324.12,-513.88 189.62,-513.88 189.62,-494.62 324.12,-494.62 324.12,-513.88"/>
<text text-anchor="middle" x="256.88" y="-500.38" font-family="Helvetica,sans-Serif" font-size="10.00">TMC2208Stepper::GCONF</text>
</a>
</g>
</g>
<!-- Node2&#45;&gt;Node10 -->
<g id="edge9_Node000002_Node000010" class="edge">
<title>Node2&#45;&gt;Node10</title>
<g id="a_edge9_Node000002_Node000010"><a xlink:title=" ">
<path fill="none" stroke="#63b8ff" d="M437.08,-309.2C429.01,-350.12 405.21,-440.68 347,-486.25 340.29,-491.5 332.44,-495.34 324.24,-498.13"/>
<polygon fill="#63b8ff" stroke="#63b8ff" points="440.51,-309.94 438.87,-299.47 433.62,-308.67 440.51,-309.94"/>
</a>
</g>
</g>
<!-- Node11 -->
<g id="Node000011" class="node">
<title>Node11</title>
<g id="a_Node000011"><a xlink:href="class_t_m_c2208_stepper.html#a54eeb50855c3d7dd9e7078a5dc0ebdfc" target="_top" xlink:title=" ">
<polygon fill="white" stroke="#666666" points="321.12,-353.88 192.62,-353.88 192.62,-334.62 321.12,-334.62 321.12,-353.88"/>
<text text-anchor="middle" x="256.88" y="-340.38" font-family="Helvetica,sans-Serif" font-size="10.00">TMC2208Stepper::IFCNT</text>
</a>
</g>
</g>
<!-- Node2&#45;&gt;Node11 -->
<g id="edge12_Node000002_Node000011" class="edge">
<title>Node2&#45;&gt;Node11</title>
<g id="a_edge12_Node000002_Node000011"><a xlink:title=" ">
<path fill="none" stroke="#63b8ff" d="M408.68,-302.94C390.83,-310.71 368,-319.93 347,-326.25 337.02,-329.25 326.27,-331.9 315.8,-334.19"/>
<polygon fill="#63b8ff" stroke="#63b8ff" points="409.99,-306.19 417.71,-298.94 407.15,-299.79 409.99,-306.19"/>
</a>
</g>
</g>
<!-- Node12 -->
<g id="Node000012" class="node">
<title>Node12</title>
<g id="a_Node000012"><a xlink:href="class_t_m_c2208_stepper.html#a5441dd87d0bcea4ffc309cb012166a57" target="_top" xlink:title=" ">
<polygon fill="white" stroke="#666666" points="316.62,-316.88 197.12,-316.88 197.12,-297.62 316.62,-297.62 316.62,-316.88"/>
<text text-anchor="middle" x="256.88" y="-303.38" font-family="Helvetica,sans-Serif" font-size="10.00">TMC2208Stepper::IOIN</text>
</a>
</g>
</g>
<!-- Node2&#45;&gt;Node12 -->
<g id="edge13_Node000002_Node000012" class="edge">
<title>Node2&#45;&gt;Node12</title>
<g id="a_edge13_Node000002_Node000012"><a xlink:title=" ">
<path fill="none" stroke="#63b8ff" d="M371.31,-295.46C353.43,-297.32 334.36,-299.3 317.05,-301.1"/>
<polygon fill="#63b8ff" stroke="#63b8ff" points="371.46,-298.96 381.05,-294.44 370.74,-292 371.46,-298.96"/>
</a>
</g>
</g>
<!-- Node13 -->
<g id="Node000013" class="node">
<title>Node13</title>
<g id="a_Node000013"><a xlink:href="class_t_m_c2209_stepper.html#aeab582b2f23d4e58f63aec80163b3838" target="_top" xlink:title=" ">
<polygon fill="white" stroke="#666666" points="316.62,-279.88 197.12,-279.88 197.12,-260.62 316.62,-260.62 316.62,-279.88"/>
<text text-anchor="middle" x="256.88" y="-266.38" font-family="Helvetica,sans-Serif" font-size="10.00">TMC2209Stepper::IOIN</text>
</a>
</g>
</g>
<!-- Node2&#45;&gt;Node13 -->
<g id="edge14_Node000002_Node000013" class="edge">
<title>Node2&#45;&gt;Node13</title>
<g id="a_edge14_Node000002_Node000013"><a xlink:title=" ">
<path fill="none" stroke="#63b8ff" d="M371.31,-281.42C353.43,-279.66 334.36,-277.78 317.05,-276.08"/>
<polygon fill="#63b8ff" stroke="#63b8ff" points="370.75,-284.88 381.04,-282.38 371.44,-277.92 370.75,-284.88"/>
</a>
</g>
</g>
<!-- Node14 -->
<g id="Node000014" class="node">
<title>Node14</title>
<g id="a_Node000014"><a xlink:href="class_t_m_c2224_stepper.html#aa5fa836e15992bc49e0297ef2126f725" target="_top" xlink:title=" ">
<polygon fill="white" stroke="#666666" points="316.62,-242.88 197.12,-242.88 197.12,-223.62 316.62,-223.62 316.62,-242.88"/>
<text text-anchor="middle" x="256.88" y="-229.38" font-family="Helvetica,sans-Serif" font-size="10.00">TMC2224Stepper::IOIN</text>
</a>
</g>
</g>
<!-- Node2&#45;&gt;Node14 -->
<g id="edge15_Node000002_Node000014" class="edge">
<title>Node2&#45;&gt;Node14</title>
<g id="a_edge15_Node000002_Node000014"><a xlink:title=" ">
<path fill="none" stroke="#63b8ff" d="M407.93,-273.68C390.17,-266.19 367.68,-257.37 347,-251.25 336.86,-248.25 325.92,-245.58 315.3,-243.29"/>
<polygon fill="#63b8ff" stroke="#63b8ff" points="406.36,-276.81 416.93,-277.54 409.12,-270.38 406.36,-276.81"/>
</a>
</g>
</g>
<!-- Node15 -->
<g id="Node000015" class="node">
<title>Node15</title>
<g id="a_Node000015"><a xlink:href="class_t_m_c2208_stepper.html#a8aef97b3f46492720cb65a0995839f8b" target="_top" xlink:title=" ">
<polygon fill="white" stroke="#666666" points="335,-205.88 178.75,-205.88 178.75,-186.62 335,-186.62 335,-205.88"/>
<text text-anchor="middle" x="256.88" y="-192.38" font-family="Helvetica,sans-Serif" font-size="10.00">TMC2208Stepper::MSCURACT</text>
</a>
</g>
</g>
<!-- Node2&#45;&gt;Node15 -->
<g id="edge16_Node000002_Node000015" class="edge">
<title>Node2&#45;&gt;Node15</title>
<g id="a_edge16_Node000002_Node000015"><a xlink:title=" ">
<path fill="none" stroke="#63b8ff" d="M423.16,-270.2C405.54,-253.1 376.77,-228.05 347,-214.25 340.13,-211.06 332.7,-208.44 325.16,-206.28"/>
<polygon fill="#63b8ff" stroke="#63b8ff" points="420.67,-272.66 430.22,-277.24 425.61,-267.71 420.67,-272.66"/>
</a>
</g>
</g>
<!-- Node18 -->
<g id="Node000018" class="node">
<title>Node18</title>
<g id="a_Node000018"><a xlink:href="class_t_m_c2208_stepper.html#a0727482b76d6cd679021f4d1677e5b3a" target="_top" xlink:title=" ">
<polygon fill="white" stroke="#666666" points="333.12,-168.88 180.62,-168.88 180.62,-149.62 333.12,-149.62 333.12,-168.88"/>
<text text-anchor="middle" x="256.88" y="-155.38" font-family="Helvetica,sans-Serif" font-size="10.00">TMC2208Stepper::OTP_READ</text>
</a>
</g>
</g>
<!-- Node2&#45;&gt;Node18 -->
<g id="edge19_Node000002_Node000018" class="edge">
<title>Node2&#45;&gt;Node18</title>
<g id="a_edge19_Node000002_Node000018"><a xlink:title=" ">
<path fill="none" stroke="#63b8ff" d="M429.64,-268.36C414.51,-242.96 384.79,-199.63 347,-177.25 341.7,-174.11 335.95,-171.51 330.01,-169.36"/>
<polygon fill="#63b8ff" stroke="#63b8ff" points="426.6,-270.09 434.62,-277.02 432.66,-266.6 426.6,-270.09"/>
</a>
</g>
</g>
<!-- Node19 -->
<g id="Node000019" class="node">
<title>Node19</title>
<g id="a_Node000019"><a xlink:href="class_t_m_c2208_stepper.html#a3cad83843fc7cc00cbbff7d620690501" target="_top" xlink:title=" ">
<polygon fill="white" stroke="#666666" points="335,-131.88 178.75,-131.88 178.75,-112.62 335,-112.62 335,-131.88"/>
<text text-anchor="middle" x="256.88" y="-118.38" font-family="Helvetica,sans-Serif" font-size="10.00">TMC2208Stepper::PWM_AUTO</text>
</a>
</g>
</g>
<!-- Node2&#45;&gt;Node19 -->
<g id="edge20_Node000002_Node000019" class="edge">
<title>Node2&#45;&gt;Node19</title>
<g id="a_edge20_Node000002_Node000019"><a xlink:title=" ">
<path fill="none" stroke="#63b8ff" d="M433.75,-267.91C421.67,-235.41 393.39,-172.19 347,-140.25 342.45,-137.12 337.48,-134.5 332.28,-132.33"/>
<polygon fill="#63b8ff" stroke="#63b8ff" points="430.32,-268.7 436.97,-276.95 436.92,-266.35 430.32,-268.7"/>
</a>
</g>
</g>
<!-- Node22 -->
<g id="Node000022" class="node">
<title>Node22</title>
<g id="a_Node000022"><a xlink:href="class_t_m_c2208_stepper.html#adc81db53cf0291216352b13e5425e67b" target="_top" xlink:title=" ">
<polygon fill="white" stroke="#666666" points="318.5,-82.5 195.25,-82.5 195.25,-52 318.5,-52 318.5,-82.5"/>
<text text-anchor="start" x="203.25" y="-69" font-family="Helvetica,sans-Serif" font-size="10.00">TMC2208Stepper::PWM</text>
<text text-anchor="middle" x="256.88" y="-57.75" font-family="Helvetica,sans-Serif" font-size="10.00">_SCALE</text>
</a>
</g>
</g>
<!-- Node2&#45;&gt;Node22 -->
<g id="edge23_Node000002_Node000022" class="edge">
<title>Node2&#45;&gt;Node22</title>
<g id="a_edge23_Node000002_Node000022"><a xlink:title=" ">
<path fill="none" stroke="#63b8ff" d="M435.29,-267.21C424.68,-229.41 397.49,-149.64 347,-103.25 337.66,-94.67 326.01,-88.01 314.25,-82.89"/>
<polygon fill="#63b8ff" stroke="#63b8ff" points="431.9,-268.09 437.87,-276.85 438.66,-266.28 431.9,-268.09"/>
</a>
</g>
</g>
<!-- Node25 -->
<g id="Node000025" class="node">
<title>Node25</title>
<g id="a_Node000025"><a xlink:href="class_t_m_c2208_stepper.html#a7c2e849de2f2933ba9bf8ede8dc53f53" target="_top" xlink:title=" ">
<polygon fill="white" stroke="#666666" points="332.75,-476.88 181,-476.88 181,-457.62 332.75,-457.62 332.75,-476.88"/>
<text text-anchor="middle" x="256.88" y="-463.38" font-family="Helvetica,sans-Serif" font-size="10.00">TMC2208Stepper::PWMCONF</text>
</a>
</g>
</g>
<!-- Node2&#45;&gt;Node25 -->
<g id="edge26_Node000002_Node000025" class="edge">
<title>Node2&#45;&gt;Node25</title>
<g id="a_edge26_Node000002_Node000025"><a xlink:title=" ">
<path fill="none" stroke="#63b8ff" d="M434.67,-308.7C423.5,-343.25 396,-412.84 347,-448.25 342,-451.86 336.45,-454.82 330.64,-457.23"/>
<polygon fill="#63b8ff" stroke="#63b8ff" points="437.91,-310.09 437.5,-299.5 431.22,-308.03 437.91,-310.09"/>
</a>
</g>
</g>
<!-- Node26 -->
<g id="Node000026" class="node">
<title>Node26</title>
<g id="a_Node000026"><a xlink:href="class_t_m_c2209_stepper.html#ac1d2ec19eb65fd2f14d8d02cc1e7b02e" target="_top" xlink:title=" ">
<polygon fill="white" stroke="#666666" points="313.25,-33.5 200.5,-33.5 200.5,-3 313.25,-3 313.25,-33.5"/>
<text text-anchor="start" x="208.5" y="-20" font-family="Helvetica,sans-Serif" font-size="10.00">TMC2209Stepper::SG</text>
<text text-anchor="middle" x="256.88" y="-8.75" font-family="Helvetica,sans-Serif" font-size="10.00">_RESULT</text>
</a>
</g>
</g>
<!-- Node2&#45;&gt;Node26 -->
<g id="edge29_Node000002_Node000026" class="edge">
<title>Node2&#45;&gt;Node26</title>
<g id="a_edge29_Node000002_Node000026"><a xlink:title=" ">
<path fill="none" stroke="#63b8ff" d="M438.81,-267.13C433.61,-219.81 414.32,-104.68 347,-43.25 337.62,-34.69 325.54,-29.04 313.33,-25.31"/>
<polygon fill="#63b8ff" stroke="#63b8ff" points="435.31,-267.22 439.77,-276.83 442.27,-266.53 435.31,-267.22"/>
</a>
</g>
</g>
<!-- Node4 -->
<g id="Node000004" class="node">
<title>Node4</title>
<g id="a_Node000004"><a xlink:href="class_t_m_c2208_stepper.html#a8eb0d71fbfeeb24c9092328c44fab7e5" target="_top" xlink:title=" ">
<polygon fill="white" stroke="#666666" points="125.12,-531.88 5.63,-531.88 5.63,-512.62 125.12,-512.62 125.12,-531.88"/>
<text text-anchor="middle" x="65.38" y="-518.38" font-family="Helvetica,sans-Serif" font-size="10.00">TMC2208Stepper::push</text>
</a>
</g>
</g>
<!-- Node3&#45;&gt;Node4 -->
<g id="edge3_Node000003_Node000004" class="edge">
<title>Node3&#45;&gt;Node4</title>
<g id="a_edge3_Node000003_Node000004"><a xlink:title=" ">
<path fill="none" stroke="#63b8ff" d="M167.04,-532.34C152.99,-530.93 138.76,-529.51 125.6,-528.19"/>
<polygon fill="#63b8ff" stroke="#63b8ff" points="166.45,-535.8 176.75,-533.32 167.14,-528.84 166.45,-535.8"/>
</a>
</g>
</g>
<!-- Node5 -->
<g id="Node000005" class="node">
<title>Node5</title>
<g id="a_Node000005"><a xlink:href="class_t_m_c2209_stepper.html#a180f4b9a78e526592d946ec12f71982e" target="_top" xlink:title=" ">
<polygon fill="white" stroke="#666666" points="125.12,-494.88 5.63,-494.88 5.63,-475.62 125.12,-475.62 125.12,-494.88"/>
<text text-anchor="middle" x="65.38" y="-481.38" font-family="Helvetica,sans-Serif" font-size="10.00">TMC2209Stepper::push</text>
</a>
</g>
</g>
<!-- Node3&#45;&gt;Node5 -->
<g id="edge4_Node000003_Node000005" class="edge">
<title>Node3&#45;&gt;Node5</title>
<g id="a_edge4_Node000003_Node000005"><a xlink:title=" ">
<path fill="none" stroke="#63b8ff" d="M182.34,-528.29C177.01,-526.77 171.76,-525.1 166.75,-523.25 149.58,-516.92 147.68,-510.21 130.75,-503.25 123.56,-500.29 115.72,-497.65 108.07,-495.36"/>
<polygon fill="#63b8ff" stroke="#63b8ff" points="181.32,-531.64 191.88,-530.79 183.09,-524.87 181.32,-531.64"/>
</a>
</g>
</g>
<!-- Node8 -->
<g id="Node000008" class="node">
<title>Node8</title>
<g id="a_Node000008"><a xlink:href="class_t_m_c2208_stepper.html#a2576f25049dff1a3102da1ea5b4eb7fc" target="_top" xlink:title=" ">
<polygon fill="white" stroke="#666666" points="130.75,-408.88 0,-408.88 0,-389.62 130.75,-389.62 130.75,-408.88"/>
<text text-anchor="middle" x="65.38" y="-395.38" font-family="Helvetica,sans-Serif" font-size="10.00">TMC2208Stepper::fclktrim</text>
</a>
</g>
</g>
<!-- Node7&#45;&gt;Node8 -->
<g id="edge7_Node000007_Node000008" class="edge">
<title>Node7&#45;&gt;Node8</title>
<g id="a_edge7_Node000007_Node000008"><a xlink:title=" ">
<path fill="none" stroke="#63b8ff" d="M154.97,-390.83C146.9,-391.6 138.88,-392.36 131.17,-393.1"/>
<polygon fill="#63b8ff" stroke="#63b8ff" points="155.27,-394.32 164.89,-389.89 154.6,-387.35 155.27,-394.32"/>
</a>
</g>
</g>
<!-- Node9 -->
<g id="Node000009" class="node">
<title>Node9</title>
<g id="a_Node000009"><a xlink:href="class_t_m_c2208_stepper.html#a1d354657666fa70cd13004cb70bc9fcf" target="_top" xlink:title=" ">
<polygon fill="white" stroke="#666666" points="127,-371.88 3.75,-371.88 3.75,-352.62 127,-352.62 127,-371.88"/>
<text text-anchor="middle" x="65.38" y="-358.38" font-family="Helvetica,sans-Serif" font-size="10.00">TMC2208Stepper::ottrim</text>
</a>
</g>
</g>
<!-- Node7&#45;&gt;Node9 -->
<g id="edge8_Node000007_Node000009" class="edge">
<title>Node7&#45;&gt;Node9</title>
<g id="a_edge8_Node000007_Node000009"><a xlink:title=" ">
<path fill="none" stroke="#63b8ff" d="M155.23,-371.16C145.73,-370.21 136.3,-369.26 127.35,-368.36"/>
<polygon fill="#63b8ff" stroke="#63b8ff" points="154.59,-374.61 164.89,-372.13 155.29,-367.65 154.59,-374.61"/>
</a>
</g>
</g>
<!-- Node10&#45;&gt;Node4 -->
<g id="edge10_Node000010_Node000004" class="edge">
<title>Node10&#45;&gt;Node4</title>
<g id="a_edge10_Node000010_Node000004"><a xlink:title=" ">
<path fill="none" stroke="#63b8ff" d="M177.95,-511.65C160.43,-513.32 142.11,-515.06 125.5,-516.63"/>
<polygon fill="#63b8ff" stroke="#63b8ff" points="178.2,-515.14 187.82,-510.71 177.54,-508.18 178.2,-515.14"/>
</a>
</g>
</g>
<!-- Node10&#45;&gt;Node5 -->
<g id="edge11_Node000010_Node000005" class="edge">
<title>Node10&#45;&gt;Node5</title>
<g id="a_edge11_Node000010_Node000005"><a xlink:title=" ">
<path fill="none" stroke="#63b8ff" d="M177.95,-496.44C160.43,-494.68 142.11,-492.84 125.5,-491.18"/>
<polygon fill="#63b8ff" stroke="#63b8ff" points="177.53,-499.91 187.82,-497.43 178.22,-492.95 177.53,-499.91"/>
</a>
</g>
</g>
<!-- Node16 -->
<g id="Node000016" class="node">
<title>Node16</title>
<g id="a_Node000016"><a xlink:href="class_t_m_c2208_stepper.html#a2d0d630547d4beab14d4be229c424af3" target="_top" xlink:title=" ">
<polygon fill="white" stroke="#666666" points="126.62,-251.88 4.12,-251.88 4.12,-232.62 126.62,-232.62 126.62,-251.88"/>
<text text-anchor="middle" x="65.38" y="-238.38" font-family="Helvetica,sans-Serif" font-size="10.00">TMC2208Stepper::cur_a</text>
</a>
</g>
</g>
<!-- Node15&#45;&gt;Node16 -->
<g id="edge17_Node000015_Node000016" class="edge">
<title>Node15&#45;&gt;Node16</title>
<g id="a_edge17_Node000015_Node000016"><a xlink:title=" ">
<path fill="none" stroke="#63b8ff" d="M191.28,-208.72C183.01,-210.48 174.66,-212.35 166.75,-214.25 165.09,-214.65 130.47,-224.32 102.34,-232.18"/>
<polygon fill="#63b8ff" stroke="#63b8ff" points="191.93,-212.16 201,-206.68 190.49,-205.31 191.93,-212.16"/>
</a>
</g>
</g>
<!-- Node17 -->
<g id="Node000017" class="node">
<title>Node17</title>
<g id="a_Node000017"><a xlink:href="class_t_m_c2208_stepper.html#a09eff4da746ad9e8b410796f4710dee8" target="_top" xlink:title=" ">
<polygon fill="white" stroke="#666666" points="126.62,-214.88 4.12,-214.88 4.12,-195.62 126.62,-195.62 126.62,-214.88"/>
<text text-anchor="middle" x="65.38" y="-201.38" font-family="Helvetica,sans-Serif" font-size="10.00">TMC2208Stepper::cur_b</text>
</a>
</g>
</g>
<!-- Node15&#45;&gt;Node17 -->
<g id="edge18_Node000015_Node000017" class="edge">
<title>Node15&#45;&gt;Node17</title>
<g id="a_edge18_Node000015_Node000017"><a xlink:title=" ">
<path fill="none" stroke="#63b8ff" d="M166.96,-200.47C153.45,-201.11 139.78,-201.76 127.06,-202.37"/>
<polygon fill="#63b8ff" stroke="#63b8ff" points="166.92,-203.98 176.74,-200.01 166.58,-196.99 166.92,-203.98"/>
</a>
</g>
</g>
<!-- Node20 -->
<g id="Node000020" class="node">
<title>Node20</title>
<g id="a_Node000020"><a xlink:href="class_t_m_c2208_stepper.html#a2940a4fc578d24624d835ac1664aeef3" target="_top" xlink:title=" ">
<polygon fill="white" stroke="#666666" points="125.12,-177.5 5.63,-177.5 5.63,-147 125.12,-147 125.12,-177.5"/>
<text text-anchor="start" x="13.62" y="-164" font-family="Helvetica,sans-Serif" font-size="10.00">TMC2208Stepper::pwm</text>
<text text-anchor="middle" x="65.38" y="-152.75" font-family="Helvetica,sans-Serif" font-size="10.00">_grad_auto</text>
</a>
</g>
</g>
<!-- Node19&#45;&gt;Node20 -->
<g id="edge21_Node000019_Node000020" class="edge">
<title>Node19&#45;&gt;Node20</title>
<g id="a_edge21_Node000019_Node000020"><a xlink:title=" ">
<path fill="none" stroke="#63b8ff" d="M194.28,-134.55C185.05,-136.44 175.65,-138.38 166.75,-140.25 153.4,-143.06 139.06,-146.16 125.52,-149.12"/>
<polygon fill="#63b8ff" stroke="#63b8ff" points="194.83,-138.01 203.93,-132.59 193.43,-131.15 194.83,-138.01"/>
</a>
</g>
</g>
<!-- Node21 -->
<g id="Node000021" class="node">
<title>Node21</title>
<g id="a_Node000021"><a xlink:href="class_t_m_c2208_stepper.html#af24b684f8072b9e5b064f093d266257e" target="_top" xlink:title=" ">
<polygon fill="white" stroke="#666666" points="125.12,-128.5 5.63,-128.5 5.63,-98 125.12,-98 125.12,-128.5"/>
<text text-anchor="start" x="13.62" y="-115" font-family="Helvetica,sans-Serif" font-size="10.00">TMC2208Stepper::pwm</text>
<text text-anchor="middle" x="65.38" y="-103.75" font-family="Helvetica,sans-Serif" font-size="10.00">_ofs_auto</text>
</a>
</g>
</g>
<!-- Node19&#45;&gt;Node21 -->
<g id="edge22_Node000019_Node000021" class="edge">
<title>Node19&#45;&gt;Node21</title>
<g id="a_edge22_Node000019_Node000021"><a xlink:title=" ">
<path fill="none" stroke="#63b8ff" d="M167.04,-118.03C152.99,-117.36 138.76,-116.69 125.6,-116.06"/>
<polygon fill="#63b8ff" stroke="#63b8ff" points="166.58,-121.51 176.74,-118.49 166.92,-114.52 166.58,-121.51"/>
</a>
</g>
</g>
<!-- Node23 -->
<g id="Node000023" class="node">
<title>Node23</title>
<g id="a_Node000023"><a xlink:href="class_t_m_c2208_stepper.html#a2ad2f165b9961405c9ec905713d1f7ed" target="_top" xlink:title=" ">
<polygon fill="white" stroke="#666666" points="125.12,-79.5 5.63,-79.5 5.63,-49 125.12,-49 125.12,-79.5"/>
<text text-anchor="start" x="13.62" y="-66" font-family="Helvetica,sans-Serif" font-size="10.00">TMC2208Stepper::pwm</text>
<text text-anchor="middle" x="65.38" y="-54.75" font-family="Helvetica,sans-Serif" font-size="10.00">_scale_auto</text>
</a>
</g>
</g>
<!-- Node22&#45;&gt;Node23 -->
<g id="edge24_Node000022_Node000023" class="edge">
<title>Node22&#45;&gt;Node23</title>
<g id="a_edge24_Node000022_Node000023"><a xlink:title=" ">
<path fill="none" stroke="#63b8ff" d="M183.43,-66.1C164.22,-65.8 143.72,-65.47 125.32,-65.18"/>
<polygon fill="#63b8ff" stroke="#63b8ff" points="183.31,-69.6 193.36,-66.26 183.42,-62.6 183.31,-69.6"/>
</a>
</g>
</g>
<!-- Node24 -->
<g id="Node000024" class="node">
<title>Node24</title>
<g id="a_Node000024"><a xlink:href="class_t_m_c2208_stepper.html#ab98b6c9268243e35367a5247cc32dde4" target="_top" xlink:title=" ">
<polygon fill="white" stroke="#666666" points="125.12,-30.5 5.63,-30.5 5.63,0 125.12,0 125.12,-30.5"/>
<text text-anchor="start" x="13.62" y="-17" font-family="Helvetica,sans-Serif" font-size="10.00">TMC2208Stepper::pwm</text>
<text text-anchor="middle" x="65.38" y="-5.75" font-family="Helvetica,sans-Serif" font-size="10.00">_scale_sum</text>
</a>
</g>
</g>
<!-- Node22&#45;&gt;Node24 -->
<g id="edge25_Node000022_Node000024" class="edge">
<title>Node22&#45;&gt;Node24</title>
<g id="a_edge25_Node000022_Node000024"><a xlink:title=" ">
<path fill="none" stroke="#63b8ff" d="M187.42,-48.46C166.47,-42.72 143.66,-36.46 123.55,-30.94"/>
<polygon fill="#63b8ff" stroke="#63b8ff" points="186.48,-51.84 197.04,-51.11 188.33,-45.09 186.48,-51.84"/>
</a>
</g>
</g>
<!-- Node25&#45;&gt;Node4 -->
<g id="edge27_Node000025_Node000004" class="edge">
<title>Node25&#45;&gt;Node4</title>
<g id="a_edge27_Node000025_Node000004"><a xlink:title=" ">
<path fill="none" stroke="#63b8ff" d="M183.38,-480.06C177.7,-481.62 172.1,-483.34 166.75,-485.25 149.71,-491.33 147.56,-497.55 130.75,-504.25 123.31,-507.21 115.21,-509.89 107.33,-512.21"/>
<polygon fill="#63b8ff" stroke="#63b8ff" points="184.06,-483.5 192.89,-477.64 182.33,-476.72 184.06,-483.5"/>
</a>
</g>
</g>
<!-- Node25&#45;&gt;Node5 -->
<g id="edge28_Node000025_Node000005" class="edge">
<title>Node25&#45;&gt;Node5</title>
<g id="a_edge28_Node000025_Node000005"><a xlink:title=" ">
<path fill="none" stroke="#63b8ff" d="M169.4,-475.46C154.5,-476.88 139.33,-478.32 125.38,-479.65"/>
<polygon fill="#63b8ff" stroke="#63b8ff" points="169.58,-478.96 179.2,-474.53 168.91,-471.99 169.58,-478.96"/>
</a>
</g>
</g>
</g>
</svg>
