<?xml version="1.0" encoding="UTF-8" standalone="no"?>
<!DOCTYPE svg PUBLIC "-//W3C//DTD SVG 1.1//EN"
 "http://www.w3.org/Graphics/SVG/1.1/DTD/svg11.dtd">
<!-- Generated by graphviz version 12.2.1 (20241206.2353)
 -->
<!-- Title: TMC2660Stepper::dedge Pages: 1 -->
<svg width="606pt" height="64pt"
 viewBox="0.00 0.00 606.00 64.25" xmlns="http://www.w3.org/2000/svg" xmlns:xlink="http://www.w3.org/1999/xlink">
<g id="graph0" class="graph" transform="scale(1 1) rotate(0) translate(4 60.25)">
<title>TMC2660Stepper::dedge</title>
<!-- Node1 -->
<g id="Node000001" class="node">
<title>Node1</title>
<g id="a_Node000001"><a xlink:title=" ">
<polygon fill="#999999" stroke="#666666" points="124.75,-19.25 0,-19.25 0,0 124.75,0 124.75,-19.25"/>
<text text-anchor="middle" x="62.38" y="-5.75" font-family="Helvetica,sans-Serif" font-size="10.00">TMC2660Stepper::dedge</text>
</a>
</g>
</g>
<!-- Node2 -->
<g id="Node000002" class="node">
<title>Node2</title>
<g id="a_Node000002"><a xlink:href="class_t_m_c2660_stepper.html#a996a24f7f183a9589d01a5ebde701b03" target="_top" xlink:title=" ">
<polygon fill="white" stroke="#666666" points="285.5,-38.25 160.75,-38.25 160.75,-19 285.5,-19 285.5,-38.25"/>
<text text-anchor="middle" x="223.12" y="-24.75" font-family="Helvetica,sans-Serif" font-size="10.00">TMC2660Stepper::dedge</text>
</a>
</g>
</g>
<!-- Node1&#45;&gt;Node2 -->
<g id="edge1_Node000001_Node000002" class="edge">
<title>Node1&#45;&gt;Node2</title>
<g id="a_edge1_Node000001_Node000002"><a xlink:title=" ">
<path fill="none" stroke="#63b8ff" d="M125.21,-17.03C133.08,-17.97 141.19,-18.94 149.21,-19.9"/>
<polygon fill="#63b8ff" stroke="#63b8ff" points="148.61,-23.35 158.96,-21.07 149.45,-16.4 148.61,-23.35"/>
</a>
</g>
</g>
<!-- Node3 -->
<g id="Node000003" class="node">
<title>Node3</title>
<g id="a_Node000003"><a xlink:href="class_t_m_c2660_stepper.html#aa20df51be5967e40cc23132a1d461275" target="_top" xlink:title=" ">
<polygon fill="white" stroke="#666666" points="441.75,-19.25 321.5,-19.25 321.5,0 441.75,0 441.75,-19.25"/>
<text text-anchor="middle" x="381.62" y="-5.75" font-family="Helvetica,sans-Serif" font-size="10.00">TMC2660Stepper::sdoff</text>
</a>
</g>
</g>
<!-- Node1&#45;&gt;Node3 -->
<g id="edge6_Node000001_Node000003" class="edge">
<title>Node1&#45;&gt;Node3</title>
<g id="a_edge6_Node000001_Node000003"><a xlink:title=" ">
<path fill="none" stroke="#63b8ff" d="M124.92,-9.62C177.83,-9.62 254.15,-9.62 309.62,-9.62"/>
<polygon fill="#63b8ff" stroke="#63b8ff" points="309.62,-13.13 319.62,-9.63 309.62,-6.13 309.62,-13.13"/>
</a>
</g>
</g>
<!-- Node2&#45;&gt;Node2 -->
<g id="edge2_Node000002_Node000002" class="edge">
<title>Node2&#45;&gt;Node2</title>
<g id="a_edge2_Node000002_Node000002"><a xlink:title=" ">
<path fill="none" stroke="#63b8ff" d="M198.31,-38.54C186.99,-47.15 195.26,-56.25 223.12,-56.25 238.8,-56.25 248.27,-53.37 251.55,-49.32"/>
<polygon fill="#63b8ff" stroke="#63b8ff" points="254.91,-48.35 248.42,-39.97 248.27,-50.57 254.91,-48.35"/>
</a>
</g>
</g>
<!-- Node2&#45;&gt;Node3 -->
<g id="edge3_Node000002_Node000003" class="edge">
<title>Node2&#45;&gt;Node3</title>
<g id="a_edge3_Node000002_Node000003"><a xlink:title=" ">
<path fill="none" stroke="#63b8ff" d="M285.98,-21.12C293.82,-20.16 301.89,-19.18 309.85,-18.22"/>
<polygon fill="#63b8ff" stroke="#63b8ff" points="310,-21.72 319.51,-17.05 309.16,-14.78 310,-21.72"/>
</a>
</g>
</g>
<!-- Node4 -->
<g id="Node000004" class="node">
<title>Node4</title>
<g id="a_Node000004"><a xlink:href="class_t_m_c2660_stepper.html#af6b9772d151924e000c051ecff34d313" target="_top" xlink:title=" ">
<polygon fill="white" stroke="#666666" points="598,-19.25 477.75,-19.25 477.75,0 598,0 598,-19.25"/>
<text text-anchor="middle" x="537.88" y="-5.75" font-family="Helvetica,sans-Serif" font-size="10.00">TMC2660Stepper::sdoff</text>
</a>
</g>
</g>
<!-- Node3&#45;&gt;Node4 -->
<g id="edge4_Node000003_Node000004" class="edge">
<title>Node3&#45;&gt;Node4</title>
<g id="a_edge4_Node000003_Node000004"><a xlink:title=" ">
<path fill="none" stroke="#63b8ff" d="M441.82,-9.62C449.73,-9.62 457.91,-9.62 466,-9.62"/>
<polygon fill="#63b8ff" stroke="#63b8ff" points="465.81,-13.13 475.81,-9.63 465.81,-6.13 465.81,-13.13"/>
</a>
</g>
</g>
<!-- Node4&#45;&gt;Node4 -->
<g id="edge5_Node000004_Node000004" class="edge">
<title>Node4&#45;&gt;Node4</title>
<g id="a_edge5_Node000004_Node000004"><a xlink:title=" ">
<path fill="none" stroke="#63b8ff" d="M513.41,-19.54C502.26,-28.15 510.41,-37.25 537.88,-37.25 553.32,-37.25 562.66,-34.37 565.89,-30.32"/>
<polygon fill="#63b8ff" stroke="#63b8ff" points="569.27,-29.38 562.81,-20.98 562.62,-31.57 569.27,-29.38"/>
</a>
</g>
</g>
</g>
</svg>
