<?xml version="1.0" encoding="UTF-8" standalone="no"?>
<!DOCTYPE svg PUBLIC "-//W3C//DTD SVG 1.1//EN"
 "http://www.w3.org/Graphics/SVG/1.1/DTD/svg11.dtd">
<!-- Generated by graphviz version 12.2.1 (20241206.2353)
 -->
<!-- Title: TMC2240Stepper::mres Pages: 1 -->
<svg width="285pt" height="45pt"
 viewBox="0.00 0.00 284.50 45.25" xmlns="http://www.w3.org/2000/svg" xmlns:xlink="http://www.w3.org/1999/xlink">
<g id="graph0" class="graph" transform="scale(1 1) rotate(0) translate(4 41.25)">
<title>TMC2240Stepper::mres</title>
<!-- Node1 -->
<g id="Node000001" class="node">
<title>Node1</title>
<g id="a_Node000001"><a xlink:title=" ">
<polygon fill="#999999" stroke="#666666" points="120.25,-19.25 0,-19.25 0,0 120.25,0 120.25,-19.25"/>
<text text-anchor="middle" x="60.12" y="-5.75" font-family="Helvetica,sans-Serif" font-size="10.00">TMC2240Stepper::mres</text>
</a>
</g>
</g>
<!-- Node2 -->
<g id="Node000002" class="node">
<title>Node2</title>
<g id="a_Node000002"><a xlink:href="class_t_m_c2240_stepper.html#a5db83171f1b1b180e2eb72afd262fd14" target="_top" xlink:title=" ">
<polygon fill="white" stroke="#666666" points="276.5,-19.25 156.25,-19.25 156.25,0 276.5,0 276.5,-19.25"/>
<text text-anchor="middle" x="216.38" y="-5.75" font-family="Helvetica,sans-Serif" font-size="10.00">TMC2240Stepper::mres</text>
</a>
</g>
</g>
<!-- Node1&#45;&gt;Node2 -->
<g id="edge1_Node000001_Node000002" class="edge">
<title>Node1&#45;&gt;Node2</title>
<g id="a_edge1_Node000001_Node000002"><a xlink:title=" ">
<path fill="none" stroke="#63b8ff" d="M120.32,-9.62C128.23,-9.62 136.41,-9.62 144.5,-9.62"/>
<polygon fill="#63b8ff" stroke="#63b8ff" points="144.31,-13.13 154.31,-9.63 144.31,-6.13 144.31,-13.13"/>
</a>
</g>
</g>
<!-- Node2&#45;&gt;Node2 -->
<g id="edge2_Node000002_Node000002" class="edge">
<title>Node2&#45;&gt;Node2</title>
<g id="a_edge2_Node000002_Node000002"><a xlink:title=" ">
<path fill="none" stroke="#63b8ff" d="M191.91,-19.54C180.76,-28.15 188.91,-37.25 216.38,-37.25 231.82,-37.25 241.16,-34.37 244.39,-30.32"/>
<polygon fill="#63b8ff" stroke="#63b8ff" points="247.77,-29.38 241.31,-20.98 241.12,-31.57 247.77,-29.38"/>
</a>
</g>
</g>
</g>
</svg>
