<?xml version="1.0" encoding="UTF-8" standalone="no"?>
<!DOCTYPE svg PUBLIC "-//W3C//DTD SVG 1.1//EN"
 "http://www.w3.org/Graphics/SVG/1.1/DTD/svg11.dtd">
<!-- Generated by graphviz version 12.2.1 (20241206.2353)
 -->
<!-- Title: TMC2660Stepper::begin Pages: 1 -->
<svg width="469pt" height="114pt"
 viewBox="0.00 0.00 468.50 114.25" xmlns="http://www.w3.org/2000/svg" xmlns:xlink="http://www.w3.org/1999/xlink">
<g id="graph0" class="graph" transform="scale(1 1) rotate(0) translate(4 110.25)">
<title>TMC2660Stepper::begin</title>
<!-- Node1 -->
<g id="Node000001" class="node">
<title>Node1</title>
<g id="a_Node000001"><a xlink:title=" ">
<polygon fill="#999999" stroke="#666666" points="121.75,-69.25 0,-69.25 0,-50 121.75,-50 121.75,-69.25"/>
<text text-anchor="middle" x="60.88" y="-55.75" font-family="Helvetica,sans-Serif" font-size="10.00">TMC2660Stepper::begin</text>
</a>
</g>
</g>
<!-- Node2 -->
<g id="Node000002" class="node">
<title>Node2</title>
<g id="a_Node000002"><a xlink:href="class_t_m_c2660_stepper.html#a63505ee4078e1f060a2ccecc30f228bd" target="_top" xlink:title=" ">
<polygon fill="white" stroke="#666666" points="311.75,-106.25 157.75,-106.25 157.75,-87 311.75,-87 311.75,-106.25"/>
<text text-anchor="middle" x="234.75" y="-92.75" font-family="Helvetica,sans-Serif" font-size="10.00">TMC2660Stepper::switchCSpin</text>
</a>
</g>
</g>
<!-- Node1&#45;&gt;Node2 -->
<g id="edge1_Node000001_Node000002" class="edge">
<title>Node1&#45;&gt;Node2</title>
<g id="a_edge1_Node000001_Node000002"><a xlink:title=" ">
<path fill="none" stroke="#63b8ff" d="M108.84,-69.74C129.49,-74.18 153.95,-79.45 175.73,-84.14"/>
<polygon fill="#63b8ff" stroke="#63b8ff" points="174.85,-87.53 185.36,-86.21 176.32,-80.68 174.85,-87.53"/>
</a>
</g>
</g>
<!-- Node3 -->
<g id="Node000003" class="node">
<title>Node3</title>
<g id="a_Node000003"><a xlink:href="class_t_m_c2660_stepper.html#a72c064ac219a1fadd2d0410f8e4dd764" target="_top" xlink:title=" ">
<polygon fill="white" stroke="#666666" points="289.25,-69.25 180.25,-69.25 180.25,-50 289.25,-50 289.25,-69.25"/>
<text text-anchor="middle" x="234.75" y="-55.75" font-family="Helvetica,sans-Serif" font-size="10.00">TMC2660Stepper::tbl</text>
</a>
</g>
</g>
<!-- Node1&#45;&gt;Node3 -->
<g id="edge2_Node000001_Node000003" class="edge">
<title>Node1&#45;&gt;Node3</title>
<g id="a_edge2_Node000001_Node000003"><a xlink:title=" ">
<path fill="none" stroke="#63b8ff" d="M121.99,-59.62C137.03,-59.62 153.24,-59.62 168.52,-59.62"/>
<polygon fill="#63b8ff" stroke="#63b8ff" points="168.47,-63.13 178.47,-59.63 168.47,-56.13 168.47,-63.13"/>
</a>
</g>
</g>
<!-- Node5 -->
<g id="Node000005" class="node">
<title>Node5</title>
<g id="a_Node000005"><a xlink:href="class_t_m_c2660_stepper.html#abe01a905588d5feb41ec3a967512027f" target="_top" xlink:title=" ">
<polygon fill="white" stroke="#666666" points="291.12,-28.25 178.38,-28.25 178.38,-9 291.12,-9 291.12,-28.25"/>
<text text-anchor="middle" x="234.75" y="-14.75" font-family="Helvetica,sans-Serif" font-size="10.00">TMC2660Stepper::toff</text>
</a>
</g>
</g>
<!-- Node1&#45;&gt;Node5 -->
<g id="edge5_Node000001_Node000005" class="edge">
<title>Node1&#45;&gt;Node5</title>
<g id="a_edge5_Node000001_Node000005"><a xlink:title=" ">
<path fill="none" stroke="#63b8ff" d="M103.92,-49.6C127.02,-44.09 155.9,-37.2 180.55,-31.32"/>
<polygon fill="#63b8ff" stroke="#63b8ff" points="181.16,-34.77 190.07,-29.04 179.53,-27.96 181.16,-34.77"/>
</a>
</g>
</g>
<!-- Node4 -->
<g id="Node000004" class="node">
<title>Node4</title>
<g id="a_Node000004"><a xlink:href="class_t_m_c2660_stepper.html#a4efb4d459c2eaa22f1ff3cbe417ab8d4" target="_top" xlink:title=" ">
<polygon fill="white" stroke="#666666" points="458.62,-74.25 349.62,-74.25 349.62,-55 458.62,-55 458.62,-74.25"/>
<text text-anchor="middle" x="404.12" y="-60.75" font-family="Helvetica,sans-Serif" font-size="10.00">TMC2660Stepper::tbl</text>
</a>
</g>
</g>
<!-- Node3&#45;&gt;Node4 -->
<g id="edge3_Node000003_Node000004" class="edge">
<title>Node3&#45;&gt;Node4</title>
<g id="a_edge3_Node000003_Node000004"><a xlink:title=" ">
<path fill="none" stroke="#63b8ff" d="M289.63,-61.23C305.01,-61.69 321.93,-62.2 337.91,-62.68"/>
<polygon fill="#63b8ff" stroke="#63b8ff" points="337.73,-66.17 347.83,-62.97 337.94,-59.18 337.73,-66.17"/>
</a>
</g>
</g>
<!-- Node4&#45;&gt;Node4 -->
<g id="edge4_Node000004_Node000004" class="edge">
<title>Node4&#45;&gt;Node4</title>
<g id="a_edge4_Node000004_Node000004"><a xlink:title=" ">
<path fill="none" stroke="#63b8ff" d="M377.61,-74.54C365.51,-83.15 374.35,-92.25 404.12,-92.25 420.87,-92.25 431,-89.37 434.5,-85.32"/>
<polygon fill="#63b8ff" stroke="#63b8ff" points="437.81,-84.2 431.15,-75.96 431.22,-86.56 437.81,-84.2"/>
</a>
</g>
</g>
<!-- Node6 -->
<g id="Node000006" class="node">
<title>Node6</title>
<g id="a_Node000006"><a xlink:href="class_t_m_c2660_stepper.html#ae0067aef27a3b77f7bd02670fcd87332" target="_top" xlink:title=" ">
<polygon fill="white" stroke="#666666" points="460.5,-19.25 347.75,-19.25 347.75,0 460.5,0 460.5,-19.25"/>
<text text-anchor="middle" x="404.12" y="-5.75" font-family="Helvetica,sans-Serif" font-size="10.00">TMC2660Stepper::toff</text>
</a>
</g>
</g>
<!-- Node5&#45;&gt;Node6 -->
<g id="edge6_Node000005_Node000006" class="edge">
<title>Node5&#45;&gt;Node6</title>
<g id="a_edge6_Node000005_Node000006"><a xlink:title=" ">
<path fill="none" stroke="#63b8ff" d="M291.48,-15.63C305.81,-14.86 321.36,-14.02 336.19,-13.22"/>
<polygon fill="#63b8ff" stroke="#63b8ff" points="336.04,-16.74 345.84,-12.71 335.66,-9.75 336.04,-16.74"/>
</a>
</g>
</g>
<!-- Node6&#45;&gt;Node6 -->
<g id="edge7_Node000006_Node000006" class="edge">
<title>Node6&#45;&gt;Node6</title>
<g id="a_edge7_Node000006_Node000006"><a xlink:title=" ">
<path fill="none" stroke="#63b8ff" d="M377.61,-19.54C365.51,-28.15 374.35,-37.25 404.12,-37.25 420.87,-37.25 431,-34.37 434.5,-30.32"/>
<polygon fill="#63b8ff" stroke="#63b8ff" points="437.81,-29.2 431.15,-20.96 431.22,-31.56 437.81,-29.2"/>
</a>
</g>
</g>
</g>
</svg>
