<?xml version="1.0" encoding="UTF-8" standalone="no"?>
<!DOCTYPE svg PUBLIC "-//W3C//DTD SVG 1.1//EN"
 "http://www.w3.org/Graphics/SVG/1.1/DTD/svg11.dtd">
<!-- Generated by graphviz version 12.2.1 (20241206.2353)
 -->
<!-- Title: TMC2240Stepper::IHOLD_IRUN Pages: 1 -->
<svg width="326pt" height="64pt"
 viewBox="0.00 0.00 325.75 64.25" xmlns="http://www.w3.org/2000/svg" xmlns:xlink="http://www.w3.org/1999/xlink">
<g id="graph0" class="graph" transform="scale(1 1) rotate(0) translate(4 60.25)">
<title>TMC2240Stepper::IHOLD_IRUN</title>
<!-- Node1 -->
<g id="Node000001" class="node">
<title>Node1</title>
<g id="a_Node000001"><a xlink:title=" ">
<polygon fill="#999999" stroke="#666666" points="317.75,-37.25 157.75,-37.25 157.75,-18 317.75,-18 317.75,-37.25"/>
<text text-anchor="middle" x="237.75" y="-23.75" font-family="Helvetica,sans-Serif" font-size="10.00">TMC2240Stepper::IHOLD_IRUN</text>
</a>
</g>
</g>
<!-- Node2 -->
<g id="Node000002" class="node">
<title>Node2</title>
<g id="a_Node000002"><a xlink:href="class_t_m_c2240_stepper.html#a72da25686a74f8d3a87c4f01b9301ce7" target="_top" xlink:title=" ">
<polygon fill="white" stroke="#666666" points="121.75,-56.25 0,-56.25 0,-37 121.75,-37 121.75,-56.25"/>
<text text-anchor="middle" x="60.88" y="-42.75" font-family="Helvetica,sans-Serif" font-size="10.00">TMC2240Stepper::begin</text>
</a>
</g>
</g>
<!-- Node1&#45;&gt;Node2 -->
<g id="edge1_Node000001_Node000002" class="edge">
<title>Node1&#45;&gt;Node2</title>
<g id="a_edge1_Node000001_Node000002"><a xlink:title=" ">
<path fill="none" stroke="#63b8ff" d="M146.28,-37.45C138.05,-38.35 129.86,-39.24 122,-40.09"/>
<polygon fill="#63b8ff" stroke="#63b8ff" points="146.43,-40.96 155.99,-36.4 145.67,-34 146.43,-40.96"/>
</a>
</g>
</g>
<!-- Node3 -->
<g id="Node000003" class="node">
<title>Node3</title>
<g id="a_Node000003"><a xlink:href="class_t_m_c2240_stepper.html#ad3dceab3734fad6678234e177bca6c11" target="_top" xlink:title=" ">
<polygon fill="white" stroke="#666666" points="120.62,-19.25 1.13,-19.25 1.13,0 120.62,0 120.62,-19.25"/>
<text text-anchor="middle" x="60.88" y="-5.75" font-family="Helvetica,sans-Serif" font-size="10.00">TMC2240Stepper::push</text>
</a>
</g>
</g>
<!-- Node1&#45;&gt;Node3 -->
<g id="edge2_Node000001_Node000003" class="edge">
<title>Node1&#45;&gt;Node3</title>
<g id="a_edge2_Node000001_Node000003"><a xlink:title=" ">
<path fill="none" stroke="#63b8ff" d="M146.23,-18.31C137.66,-17.43 129.12,-16.55 120.96,-15.71"/>
<polygon fill="#63b8ff" stroke="#63b8ff" points="145.69,-21.77 155.99,-19.31 146.4,-14.81 145.69,-21.77"/>
</a>
</g>
</g>
</g>
</svg>
