<?xml version="1.0" encoding="UTF-8" standalone="no"?>
<!DOCTYPE svg PUBLIC "-//W3C//DTD SVG 1.1//EN"
 "http://www.w3.org/Graphics/SVG/1.1/DTD/svg11.dtd">
<!-- Generated by graphviz version 12.2.1 (20241206.2353)
 -->
<!-- Title: TMC2160Stepper::rms_current Pages: 1 -->
<svg width="430pt" height="126pt"
 viewBox="0.00 0.00 430.25 125.88" xmlns="http://www.w3.org/2000/svg" xmlns:xlink="http://www.w3.org/1999/xlink">

<svg id="main" version="1.1" xmlns="http://www.w3.org/2000/svg" xmlns:xlink="http://www.w3.org/1999/xlink" xml:space="preserve">

<style type="text/css"><![CDATA[
.node, .edge {opacity: 0.7;}
.node.selected, .edge.selected {opacity: 1;}
.edge:hover path { stroke: red; }
.edge:hover polygon { stroke: red; fill: red; }
]]></style>
<script type="application/ecmascript" xlink:href="svg.min.js"/>
<svg id="graph" class="graph">
<g id="graph0" class="graph" transform="scale(1 1) rotate(0) translate(4 121.88)">
<title>TMC2160Stepper::rms_current</title>
<!-- Node1 -->
<g id="Node000001" class="node">
<title>Node1</title>
<g id="a_Node000001"><a xlink:title=" ">
<polygon fill="#999999" stroke="#666666" points="115,-74.88 0,-74.88 0,-44.38 115,-44.38 115,-74.88"/>
<text text-anchor="start" x="8" y="-61.38" font-family="Helvetica,sans-Serif" font-size="10.00">TMC2160Stepper::rms</text>
<text text-anchor="middle" x="57.5" y="-50.12" font-family="Helvetica,sans-Serif" font-size="10.00">_current</text>
</a>
</g>
</g>
<!-- Node2 -->
<g id="Node000002" class="node">
<title>Node2</title>
<g id="a_Node000002"><a xlink:href="class_t_m_c2160_stepper.html#a4dc485fd467892f35f98ad6ea30b6d21" target="_top" xlink:title=" ">
<polygon fill="white" stroke="#666666" points="288.5,-117.88 151,-117.88 151,-87.38 288.5,-87.38 288.5,-117.88"/>
<text text-anchor="start" x="159" y="-104.38" font-family="Helvetica,sans-Serif" font-size="10.00">TMC2160Stepper::GLOBAL</text>
<text text-anchor="middle" x="219.75" y="-93.12" font-family="Helvetica,sans-Serif" font-size="10.00">_SCALER</text>
</a>
</g>
</g>
<!-- Node1&#45;&gt;Node2 -->
<g id="edge1_Node000001_Node000002" class="edge">
<title>Node1&#45;&gt;Node2</title>
<g id="a_edge1_Node000001_Node000002"><a xlink:title=" ">
<path fill="none" stroke="#63b8ff" d="M115.45,-74.91C126.31,-77.82 137.8,-80.9 149.01,-83.91"/>
<polygon fill="#63b8ff" stroke="#63b8ff" points="148.06,-87.28 158.63,-86.49 149.88,-80.52 148.06,-87.28"/>
</a>
</g>
</g>
<!-- Node3 -->
<g id="Node000003" class="node">
<title>Node3</title>
<g id="a_Node000003"><a xlink:href="class_t_m_c_stepper.html#a5f7f8f6ce7b394449239bc2c05f39c8f" target="_top" xlink:title=" ">
<polygon fill="white" stroke="#666666" points="268.62,-69.25 170.88,-69.25 170.88,-50 268.62,-50 268.62,-69.25"/>
<text text-anchor="middle" x="219.75" y="-55.75" font-family="Helvetica,sans-Serif" font-size="10.00">TMCStepper::ihold</text>
</a>
</g>
</g>
<!-- Node1&#45;&gt;Node3 -->
<g id="edge2_Node000001_Node000003" class="edge">
<title>Node1&#45;&gt;Node3</title>
<g id="a_edge2_Node000001_Node000003"><a xlink:title=" ">
<path fill="none" stroke="#63b8ff" d="M115.45,-59.62C129.65,-59.62 144.91,-59.62 159.22,-59.62"/>
<polygon fill="#63b8ff" stroke="#63b8ff" points="158.95,-63.13 168.95,-59.63 158.95,-56.13 158.95,-63.13"/>
</a>
</g>
</g>
<!-- Node5 -->
<g id="Node000005" class="node">
<title>Node5</title>
<g id="a_Node000005"><a xlink:href="class_t_m_c_stepper.html#a89f965f7d005e189ef27951f37e699f2" target="_top" xlink:title=" ">
<polygon fill="white" stroke="#666666" points="266.38,-28.25 173.12,-28.25 173.12,-9 266.38,-9 266.38,-28.25"/>
<text text-anchor="middle" x="219.75" y="-14.75" font-family="Helvetica,sans-Serif" font-size="10.00">TMCStepper::irun</text>
</a>
</g>
</g>
<!-- Node1&#45;&gt;Node5 -->
<g id="edge5_Node000001_Node000005" class="edge">
<title>Node1&#45;&gt;Node5</title>
<g id="a_edge5_Node000001_Node000005"><a xlink:title=" ">
<path fill="none" stroke="#63b8ff" d="M115.45,-45.05C132.87,-40.6 151.88,-35.73 168.79,-31.41"/>
<polygon fill="#63b8ff" stroke="#63b8ff" points="169.28,-34.89 178.1,-29.02 167.55,-28.11 169.28,-34.89"/>
</a>
</g>
</g>
<!-- Node4 -->
<g id="Node000004" class="node">
<title>Node4</title>
<g id="a_Node000004"><a xlink:href="class_t_m_c_stepper.html#acfb32d1b63e9f04badfa64adf99bd991" target="_top" xlink:title=" ">
<polygon fill="white" stroke="#666666" points="422.25,-74.25 324.5,-74.25 324.5,-55 422.25,-55 422.25,-74.25"/>
<text text-anchor="middle" x="373.38" y="-60.75" font-family="Helvetica,sans-Serif" font-size="10.00">TMCStepper::ihold</text>
</a>
</g>
</g>
<!-- Node3&#45;&gt;Node4 -->
<g id="edge3_Node000003_Node000004" class="edge">
<title>Node3&#45;&gt;Node4</title>
<g id="a_edge3_Node000003_Node000004"><a xlink:title=" ">
<path fill="none" stroke="#63b8ff" d="M268.73,-61.21C282.69,-61.67 298.12,-62.18 312.71,-62.66"/>
<polygon fill="#63b8ff" stroke="#63b8ff" points="312.57,-66.15 322.68,-62.99 312.8,-59.16 312.57,-66.15"/>
</a>
</g>
</g>
<!-- Node4&#45;&gt;Node4 -->
<g id="edge4_Node000004_Node000004" class="edge">
<title>Node4&#45;&gt;Node4</title>
<g id="a_edge4_Node000004_Node000004"><a xlink:title=" ">
<path fill="none" stroke="#63b8ff" d="M349.32,-74.54C338.35,-83.15 346.37,-92.25 373.38,-92.25 388.56,-92.25 397.75,-89.37 400.92,-85.32"/>
<polygon fill="#63b8ff" stroke="#63b8ff" points="404.31,-84.41 397.89,-75.98 397.65,-86.57 404.31,-84.41"/>
</a>
</g>
</g>
<!-- Node6 -->
<g id="Node000006" class="node">
<title>Node6</title>
<g id="a_Node000006"><a xlink:href="class_t_m_c_stepper.html#aa82391a803e3103b03fadd9bb597d532" target="_top" xlink:title=" ">
<polygon fill="white" stroke="#666666" points="420,-19.25 326.75,-19.25 326.75,0 420,0 420,-19.25"/>
<text text-anchor="middle" x="373.38" y="-5.75" font-family="Helvetica,sans-Serif" font-size="10.00">TMCStepper::irun</text>
</a>
</g>
</g>
<!-- Node5&#45;&gt;Node6 -->
<g id="edge6_Node000005_Node000006" class="edge">
<title>Node5&#45;&gt;Node6</title>
<g id="a_edge6_Node000005_Node000006"><a xlink:title=" ">
<path fill="none" stroke="#63b8ff" d="M266.65,-15.9C281.87,-15 299.01,-13.98 314.98,-13.03"/>
<polygon fill="#63b8ff" stroke="#63b8ff" points="315.08,-16.53 324.85,-12.45 314.66,-9.54 315.08,-16.53"/>
</a>
</g>
</g>
<!-- Node6&#45;&gt;Node6 -->
<g id="edge7_Node000006_Node000006" class="edge">
<title>Node6&#45;&gt;Node6</title>
<g id="a_edge7_Node000006_Node000006"><a xlink:title=" ">
<path fill="none" stroke="#63b8ff" d="M349.32,-19.54C338.35,-28.15 346.37,-37.25 373.38,-37.25 388.56,-37.25 397.75,-34.37 400.92,-30.32"/>
<polygon fill="#63b8ff" stroke="#63b8ff" points="404.31,-29.41 397.89,-20.98 397.65,-31.57 404.31,-29.41"/>
</a>
</g>
</g>
</g>
</svg>
</svg>

<style type='text/css'>
<![CDATA[
[data-mouse-over-selected='false'] { opacity: 0.7; }
[data-mouse-over-selected='true']  { opacity: 1.0; }
]]>
</style>
<script type="application/ecmascript"><![CDATA[
document.addEventListener('DOMContentLoaded', (event) => {
  highlightEdges();
  highlightAdjacentNodes();
});
]]></script>
</svg>
