<?xml version="1.0" encoding="UTF-8" standalone="no"?>
<!DOCTYPE svg PUBLIC "-//W3C//DTD SVG 1.1//EN"
 "http://www.w3.org/Graphics/SVG/1.1/DTD/svg11.dtd">
<!-- Generated by graphviz version 12.2.1 (20241206.2353)
 -->
<!-- Title: TMCStepper::write Pages: 1 -->
<svg width="487pt" height="138pt"
 viewBox="0.00 0.00 486.50 138.25" xmlns="http://www.w3.org/2000/svg" xmlns:xlink="http://www.w3.org/1999/xlink">
<g id="graph0" class="graph" transform="scale(1 1) rotate(0) translate(4 134.25)">
<title>TMCStepper::write</title>
<!-- Node1 -->
<g id="Node000001" class="node">
<title>Node1</title>
<g id="a_Node000001"><a xlink:title=" ">
<polygon fill="#999999" stroke="#666666" points="478.5,-74.25 380,-74.25 380,-55 478.5,-55 478.5,-74.25"/>
<text text-anchor="middle" x="429.25" y="-60.75" font-family="Helvetica,sans-Serif" font-size="10.00">TMCStepper::write</text>
</a>
</g>
</g>
<!-- Node2 -->
<g id="Node000002" class="node">
<title>Node2</title>
<g id="a_Node000002"><a xlink:href="class_t_m_c_stepper.html#af834b7aecb144c7d5c3ba1494eb447a8" target="_top" xlink:title=" ">
<polygon fill="white" stroke="#666666" points="321.88,-130.25 212.12,-130.25 212.12,-111 321.88,-111 321.88,-130.25"/>
<text text-anchor="middle" x="267" y="-116.75" font-family="Helvetica,sans-Serif" font-size="10.00">TMCStepper::GSTAT</text>
</a>
</g>
</g>
<!-- Node1&#45;&gt;Node2 -->
<g id="edge1_Node000001_Node000002" class="edge">
<title>Node1&#45;&gt;Node2</title>
<g id="a_edge1_Node000001_Node000002"><a xlink:title=" ">
<path fill="none" stroke="#63b8ff" d="M398.67,-79.65C382.76,-87.29 362.64,-96.28 344,-102.62 335.27,-105.6 325.82,-108.26 316.64,-110.57"/>
<polygon fill="#63b8ff" stroke="#63b8ff" points="400.13,-82.82 407.57,-75.28 397.05,-76.54 400.13,-82.82"/>
</a>
</g>
</g>
<!-- Node3 -->
<g id="Node000003" class="node">
<title>Node3</title>
<g id="a_Node000003"><a xlink:href="class_t_m_c_stepper.html#a223e13cdebad6387c22df3fe918090ac" target="_top" xlink:title=" ">
<polygon fill="white" stroke="#666666" points="336.5,-93.25 197.5,-93.25 197.5,-74 336.5,-74 336.5,-93.25"/>
<text text-anchor="middle" x="267" y="-79.75" font-family="Helvetica,sans-Serif" font-size="10.00">TMCStepper::IHOLD_IRUN</text>
</a>
</g>
</g>
<!-- Node1&#45;&gt;Node3 -->
<g id="edge2_Node000001_Node000003" class="edge">
<title>Node1&#45;&gt;Node3</title>
<g id="a_edge2_Node000001_Node000003"><a xlink:title=" ">
<path fill="none" stroke="#63b8ff" d="M368.34,-71.73C358.04,-72.95 347.26,-74.23 336.75,-75.47"/>
<polygon fill="#63b8ff" stroke="#63b8ff" points="368.71,-75.21 378.23,-70.56 367.89,-68.26 368.71,-75.21"/>
</a>
</g>
</g>
<!-- Node5 -->
<g id="Node000005" class="node">
<title>Node5</title>
<g id="a_Node000005"><a xlink:href="class_t_m_c_stepper.html#a3c46d790163af9e4ccbb662916563938" target="_top" xlink:title=" ">
<polygon fill="white" stroke="#666666" points="344,-56.25 190,-56.25 190,-37 344,-37 344,-56.25"/>
<text text-anchor="middle" x="267" y="-42.75" font-family="Helvetica,sans-Serif" font-size="10.00">TMCStepper::TPOWERDOWN</text>
</a>
</g>
</g>
<!-- Node1&#45;&gt;Node5 -->
<g id="edge4_Node000001_Node000005" class="edge">
<title>Node1&#45;&gt;Node5</title>
<g id="a_edge4_Node000001_Node000005"><a xlink:title=" ">
<path fill="none" stroke="#63b8ff" d="M368.49,-57.91C360.65,-57.03 352.53,-56.12 344.46,-55.21"/>
<polygon fill="#63b8ff" stroke="#63b8ff" points="367.9,-61.37 378.23,-59.01 368.68,-54.41 367.9,-61.37"/>
</a>
</g>
</g>
<!-- Node6 -->
<g id="Node000006" class="node">
<title>Node6</title>
<g id="a_Node000006"><a xlink:href="class_t_m_c_stepper.html#a4e609d7f77d9e6db6423b02b98ed5358" target="_top" xlink:title=" ">
<polygon fill="white" stroke="#666666" points="335,-19.25 199,-19.25 199,0 335,0 335,-19.25"/>
<text text-anchor="middle" x="267" y="-5.75" font-family="Helvetica,sans-Serif" font-size="10.00">TMCStepper::TPWMTHRS</text>
</a>
</g>
</g>
<!-- Node1&#45;&gt;Node6 -->
<g id="edge5_Node000001_Node000006" class="edge">
<title>Node1&#45;&gt;Node6</title>
<g id="a_edge5_Node000001_Node000006"><a xlink:title=" ">
<path fill="none" stroke="#63b8ff" d="M397.99,-49.74C382.17,-42.37 362.34,-33.77 344,-27.62 335.13,-24.65 325.52,-21.98 316.21,-19.65"/>
<polygon fill="#63b8ff" stroke="#63b8ff" points="396.33,-52.83 406.86,-53.95 399.33,-46.5 396.33,-52.83"/>
</a>
</g>
</g>
<!-- Node4 -->
<g id="Node000004" class="node">
<title>Node4</title>
<g id="a_Node000004"><a xlink:href="class_t_m_c_stepper.html#af3759763b851e6071d1bad90408b712c" target="_top" xlink:title=" ">
<polygon fill="white" stroke="#666666" points="154,-93.25 0,-93.25 0,-74 154,-74 154,-93.25"/>
<text text-anchor="middle" x="77" y="-79.75" font-family="Helvetica,sans-Serif" font-size="10.00">TMCStepper::INIT_REGISTER</text>
</a>
</g>
</g>
<!-- Node3&#45;&gt;Node4 -->
<g id="edge3_Node000003_Node000004" class="edge">
<title>Node3&#45;&gt;Node4</title>
<g id="a_edge3_Node000003_Node000004"><a xlink:title=" ">
<path fill="none" stroke="#63b8ff" d="M185.81,-83.62C175.34,-83.62 164.63,-83.62 154.22,-83.62"/>
<polygon fill="#63b8ff" stroke="#63b8ff" points="185.55,-87.13 195.55,-83.63 185.55,-80.13 185.55,-87.13"/>
</a>
</g>
</g>
</g>
</svg>
