<?xml version="1.0" encoding="UTF-8" standalone="no"?>
<!DOCTYPE svg PUBLIC "-//W3C//DTD SVG 1.1//EN"
 "http://www.w3.org/Graphics/SVG/1.1/DTD/svg11.dtd">
<!-- Generated by graphviz version 12.2.1 (20241206.2353)
 -->
<!-- Title: TMC2208Stepper::begin Pages: 1 -->
<svg width="474pt" height="138pt"
 viewBox="0.00 0.00 473.75 137.88" xmlns="http://www.w3.org/2000/svg" xmlns:xlink="http://www.w3.org/1999/xlink">

<svg id="main" version="1.1" xmlns="http://www.w3.org/2000/svg" xmlns:xlink="http://www.w3.org/1999/xlink" xml:space="preserve">

<style type="text/css"><![CDATA[
.node, .edge {opacity: 0.7;}
.node.selected, .edge.selected {opacity: 1;}
.edge:hover path { stroke: red; }
.edge:hover polygon { stroke: red; fill: red; }
]]></style>
<script type="application/ecmascript" xlink:href="svg.min.js"/>
<svg id="graph" class="graph">
<g id="graph0" class="graph" transform="scale(1 1) rotate(0) translate(4 133.88)">
<title>TMC2208Stepper::begin</title>
<!-- Node1 -->
<g id="Node000001" class="node">
<title>Node1</title>
<g id="a_Node000001"><a xlink:title=" ">
<polygon fill="#999999" stroke="#666666" points="121.75,-86.88 0,-86.88 0,-67.62 121.75,-67.62 121.75,-86.88"/>
<text text-anchor="middle" x="60.88" y="-73.38" font-family="Helvetica,sans-Serif" font-size="10.00">TMC2208Stepper::begin</text>
</a>
</g>
</g>
<!-- Node2 -->
<g id="Node000002" class="node">
<title>Node2</title>
<g id="a_Node000002"><a xlink:href="class_t_m_c2208_stepper.html#a6621972ab7af79ca78579f692048a205" target="_top" xlink:title=" ">
<polygon fill="white" stroke="#666666" points="304.25,-129.88 157.75,-129.88 157.75,-110.62 304.25,-110.62 304.25,-129.88"/>
<text text-anchor="middle" x="231" y="-116.38" font-family="Helvetica,sans-Serif" font-size="10.00">TMC2208Stepper::beginSerial</text>
</a>
</g>
</g>
<!-- Node1&#45;&gt;Node2 -->
<g id="edge1_Node000001_Node000002" class="edge">
<title>Node1&#45;&gt;Node2</title>
<g id="a_edge1_Node000001_Node000002"><a xlink:title=" ">
<path fill="none" stroke="#63b8ff" d="M101.29,-87.33C124.61,-93.29 154.37,-100.91 179.41,-107.31"/>
<polygon fill="#63b8ff" stroke="#63b8ff" points="178.52,-110.7 189.07,-109.78 180.25,-103.91 178.52,-110.7"/>
</a>
</g>
</g>
<!-- Node3 -->
<g id="Node000003" class="node">
<title>Node3</title>
<g id="a_Node000003"><a xlink:href="class_t_m_c2208_stepper.html#a02994cba6b9ac73b61799cf7af0fd588" target="_top" xlink:title=" ">
<polygon fill="white" stroke="#666666" points="293.75,-92.5 168.25,-92.5 168.25,-62 293.75,-62 293.75,-92.5"/>
<text text-anchor="start" x="176.25" y="-79" font-family="Helvetica,sans-Serif" font-size="10.00">TMC2208Stepper::mstep</text>
<text text-anchor="middle" x="231" y="-67.75" font-family="Helvetica,sans-Serif" font-size="10.00">_reg_select</text>
</a>
</g>
</g>
<!-- Node1&#45;&gt;Node3 -->
<g id="edge2_Node000001_Node000003" class="edge">
<title>Node1&#45;&gt;Node3</title>
<g id="a_edge2_Node000001_Node000003"><a xlink:title=" ">
<path fill="none" stroke="#63b8ff" d="M122.1,-77.25C133.26,-77.25 145.04,-77.25 156.55,-77.25"/>
<polygon fill="#63b8ff" stroke="#63b8ff" points="156.42,-80.75 166.42,-77.25 156.42,-73.75 156.42,-80.75"/>
</a>
</g>
</g>
<!-- Node5 -->
<g id="Node000005" class="node">
<title>Node5</title>
<g id="a_Node000005"><a xlink:href="class_t_m_c2208_stepper.html#a9de4a150926f2875903be27063f00973" target="_top" xlink:title=" ">
<polygon fill="white" stroke="#666666" points="288.12,-39.5 173.88,-39.5 173.88,-9 288.12,-9 288.12,-39.5"/>
<text text-anchor="start" x="181.88" y="-26" font-family="Helvetica,sans-Serif" font-size="10.00">TMC2208Stepper::pdn</text>
<text text-anchor="middle" x="231" y="-14.75" font-family="Helvetica,sans-Serif" font-size="10.00">_disable</text>
</a>
</g>
</g>
<!-- Node1&#45;&gt;Node5 -->
<g id="edge5_Node000001_Node000005" class="edge">
<title>Node1&#45;&gt;Node5</title>
<g id="a_edge5_Node000001_Node000005"><a xlink:title=" ">
<path fill="none" stroke="#63b8ff" d="M93.89,-67.16C115.23,-60.43 143.95,-51.38 169.51,-43.32"/>
<polygon fill="#63b8ff" stroke="#63b8ff" points="170.31,-46.74 178.8,-40.39 168.21,-40.06 170.31,-46.74"/>
</a>
</g>
</g>
<!-- Node4 -->
<g id="Node000004" class="node">
<title>Node4</title>
<g id="a_Node000004"><a xlink:href="class_t_m_c2208_stepper.html#afb391fd21b77113e5651ebaa9af1c22e" target="_top" xlink:title=" ">
<polygon fill="white" stroke="#666666" points="465.75,-97.5 340.25,-97.5 340.25,-67 465.75,-67 465.75,-97.5"/>
<text text-anchor="start" x="348.25" y="-84" font-family="Helvetica,sans-Serif" font-size="10.00">TMC2208Stepper::mstep</text>
<text text-anchor="middle" x="403" y="-72.75" font-family="Helvetica,sans-Serif" font-size="10.00">_reg_select</text>
</a>
</g>
</g>
<!-- Node3&#45;&gt;Node4 -->
<g id="edge3_Node000003_Node000004" class="edge">
<title>Node3&#45;&gt;Node4</title>
<g id="a_edge3_Node000003_Node000004"><a xlink:title=" ">
<path fill="none" stroke="#63b8ff" d="M293.85,-79.07C305.1,-79.4 316.94,-79.75 328.49,-80.09"/>
<polygon fill="#63b8ff" stroke="#63b8ff" points="328.29,-83.58 338.39,-80.38 328.5,-76.59 328.29,-83.58"/>
</a>
</g>
</g>
<!-- Node4&#45;&gt;Node4 -->
<g id="edge4_Node000004_Node000004" class="edge">
<title>Node4&#45;&gt;Node4</title>
<g id="a_edge4_Node000004_Node000004"><a xlink:title=" ">
<path fill="none" stroke="#63b8ff" d="M372.52,-97.99C366.3,-107.06 376.46,-115.5 403,-115.5 417.51,-115.5 427.13,-112.97 431.84,-109.2"/>
<polygon fill="#63b8ff" stroke="#63b8ff" points="435.28,-109.88 433.26,-99.48 428.36,-108.87 435.28,-109.88"/>
</a>
</g>
</g>
<!-- Node6 -->
<g id="Node000006" class="node">
<title>Node6</title>
<g id="a_Node000006"><a xlink:href="class_t_m_c2208_stepper.html#acc565fdcd70fa33a60a078cb5527afc8" target="_top" xlink:title=" ">
<polygon fill="white" stroke="#666666" points="460.12,-30.5 345.88,-30.5 345.88,0 460.12,0 460.12,-30.5"/>
<text text-anchor="start" x="353.88" y="-17" font-family="Helvetica,sans-Serif" font-size="10.00">TMC2208Stepper::pdn</text>
<text text-anchor="middle" x="403" y="-5.75" font-family="Helvetica,sans-Serif" font-size="10.00">_disable</text>
</a>
</g>
</g>
<!-- Node5&#45;&gt;Node6 -->
<g id="edge6_Node000005_Node000006" class="edge">
<title>Node5&#45;&gt;Node6</title>
<g id="a_edge6_Node000005_Node000006"><a xlink:title=" ">
<path fill="none" stroke="#63b8ff" d="M288.61,-21.25C303.23,-20.48 319.12,-19.64 334.25,-18.84"/>
<polygon fill="#63b8ff" stroke="#63b8ff" points="334.33,-22.34 344.13,-18.31 333.96,-15.35 334.33,-22.34"/>
</a>
</g>
</g>
<!-- Node6&#45;&gt;Node6 -->
<g id="edge7_Node000006_Node000006" class="edge">
<title>Node6&#45;&gt;Node6</title>
<g id="a_edge7_Node000006_Node000006"><a xlink:title=" ">
<path fill="none" stroke="#63b8ff" d="M372.52,-30.99C366.3,-40.06 376.46,-48.5 403,-48.5 417.51,-48.5 427.13,-45.97 431.84,-42.2"/>
<polygon fill="#63b8ff" stroke="#63b8ff" points="435.28,-42.88 433.26,-32.48 428.36,-41.87 435.28,-42.88"/>
</a>
</g>
</g>
</g>
</svg>
</svg>

<style type='text/css'>
<![CDATA[
[data-mouse-over-selected='false'] { opacity: 0.7; }
[data-mouse-over-selected='true']  { opacity: 1.0; }
]]>
</style>
<script type="application/ecmascript"><![CDATA[
document.addEventListener('DOMContentLoaded', (event) => {
  highlightEdges();
  highlightAdjacentNodes();
});
]]></script>
</svg>
