<?xml version="1.0" encoding="UTF-8" standalone="no"?>
<!DOCTYPE svg PUBLIC "-//W3C//DTD SVG 1.1//EN"
 "http://www.w3.org/Graphics/SVG/1.1/DTD/svg11.dtd">
<!-- Generated by graphviz version 12.2.1 (20241206.2353)
 -->
<!-- Title: TMC2160Stepper::rms_current Pages: 1 -->
<svg width="463pt" height="94pt"
 viewBox="0.00 0.00 463.25 93.88" xmlns="http://www.w3.org/2000/svg" xmlns:xlink="http://www.w3.org/1999/xlink">
<g id="graph0" class="graph" transform="scale(1 1) rotate(0) translate(4 89.88)">
<title>TMC2160Stepper::rms_current</title>
<!-- Node1 -->
<g id="Node000001" class="node">
<title>Node1</title>
<g id="a_Node000001"><a xlink:title=" ">
<polygon fill="#999999" stroke="#666666" points="115,-54.88 0,-54.88 0,-24.38 115,-24.38 115,-54.88"/>
<text text-anchor="start" x="8" y="-41.38" font-family="Helvetica,sans-Serif" font-size="10.00">TMC2160Stepper::rms</text>
<text text-anchor="middle" x="57.5" y="-30.12" font-family="Helvetica,sans-Serif" font-size="10.00">_current</text>
</a>
</g>
</g>
<!-- Node2 -->
<g id="Node000002" class="node">
<title>Node2</title>
<g id="a_Node000002"><a xlink:href="class_t_m_c2160_stepper.html#a6c84af7f87af2c616de8a6a288309ecb" target="_top" xlink:title=" ">
<polygon fill="white" stroke="#666666" points="281.75,-74.25 151,-74.25 151,-55 281.75,-55 281.75,-74.25"/>
<text text-anchor="middle" x="216.38" y="-60.75" font-family="Helvetica,sans-Serif" font-size="10.00">TMC2160Stepper::cs2rms</text>
</a>
</g>
</g>
<!-- Node1&#45;&gt;Node2 -->
<g id="edge1_Node000001_Node000002" class="edge">
<title>Node1&#45;&gt;Node2</title>
<g id="a_edge1_Node000001_Node000002"><a xlink:title=" ">
<path fill="none" stroke="#63b8ff" d="M115.14,-48.65C123.43,-49.97 132.09,-51.35 140.68,-52.72"/>
<polygon fill="#63b8ff" stroke="#63b8ff" points="139.99,-56.15 150.41,-54.27 141.09,-49.24 139.99,-56.15"/>
</a>
</g>
</g>
<!-- Node4 -->
<g id="Node000004" class="node">
<title>Node4</title>
<g id="a_Node000004"><a xlink:href="class_t_m_c_stepper.html#a89f965f7d005e189ef27951f37e699f2" target="_top" xlink:title=" ">
<polygon fill="white" stroke="#666666" points="263,-31.25 169.75,-31.25 169.75,-12 263,-12 263,-31.25"/>
<text text-anchor="middle" x="216.38" y="-17.75" font-family="Helvetica,sans-Serif" font-size="10.00">TMCStepper::irun</text>
</a>
</g>
</g>
<!-- Node1&#45;&gt;Node4 -->
<g id="edge3_Node000001_Node000004" class="edge">
<title>Node1&#45;&gt;Node4</title>
<g id="a_edge3_Node000001_Node000004"><a xlink:title=" ">
<path fill="none" stroke="#63b8ff" d="M115.14,-33.13C129.19,-31.51 144.27,-29.78 158.34,-28.17"/>
<polygon fill="#63b8ff" stroke="#63b8ff" points="158.34,-31.69 167.88,-27.08 157.54,-24.74 158.34,-31.69"/>
</a>
</g>
</g>
<!-- Node3 -->
<g id="Node000003" class="node">
<title>Node3</title>
<g id="a_Node000003"><a xlink:href="class_t_m_c2160_stepper.html#a4dc485fd467892f35f98ad6ea30b6d21" target="_top" xlink:title=" ">
<polygon fill="white" stroke="#666666" points="455.25,-85.88 317.75,-85.88 317.75,-55.38 455.25,-55.38 455.25,-85.88"/>
<text text-anchor="start" x="325.75" y="-72.38" font-family="Helvetica,sans-Serif" font-size="10.00">TMC2160Stepper::GLOBAL</text>
<text text-anchor="middle" x="386.5" y="-61.12" font-family="Helvetica,sans-Serif" font-size="10.00">_SCALER</text>
</a>
</g>
</g>
<!-- Node2&#45;&gt;Node3 -->
<g id="edge2_Node000002_Node000003" class="edge">
<title>Node2&#45;&gt;Node3</title>
<g id="a_edge2_Node000002_Node000003"><a xlink:title=" ">
<path fill="none" stroke="#63b8ff" d="M281.9,-66.93C289.83,-67.21 298,-67.5 306.12,-67.79"/>
<polygon fill="#63b8ff" stroke="#63b8ff" points="305.89,-71.29 316.01,-68.15 306.14,-64.29 305.89,-71.29"/>
</a>
</g>
</g>
<!-- Node5 -->
<g id="Node000005" class="node">
<title>Node5</title>
<g id="a_Node000005"><a xlink:href="class_t_m_c_stepper.html#aa82391a803e3103b03fadd9bb597d532" target="_top" xlink:title=" ">
<polygon fill="white" stroke="#666666" points="433.12,-19.25 339.88,-19.25 339.88,0 433.12,0 433.12,-19.25"/>
<text text-anchor="middle" x="386.5" y="-5.75" font-family="Helvetica,sans-Serif" font-size="10.00">TMCStepper::irun</text>
</a>
</g>
</g>
<!-- Node4&#45;&gt;Node5 -->
<g id="edge4_Node000004_Node000005" class="edge">
<title>Node4&#45;&gt;Node5</title>
<g id="a_edge4_Node000004_Node000005"><a xlink:title=" ">
<path fill="none" stroke="#63b8ff" d="M263.32,-18.35C283.33,-16.92 307.01,-15.23 328.16,-13.72"/>
<polygon fill="#63b8ff" stroke="#63b8ff" points="328.38,-17.21 338.1,-13.01 327.88,-10.23 328.38,-17.21"/>
</a>
</g>
</g>
<!-- Node5&#45;&gt;Node5 -->
<g id="edge5_Node000005_Node000005" class="edge">
<title>Node5&#45;&gt;Node5</title>
<g id="a_edge5_Node000005_Node000005"><a xlink:title=" ">
<path fill="none" stroke="#63b8ff" d="M359.87,-19.54C347.72,-28.15 356.6,-37.25 386.5,-37.25 403.32,-37.25 413.49,-34.37 417.01,-30.32"/>
<polygon fill="#63b8ff" stroke="#63b8ff" points="420.32,-29.19 413.65,-20.96 413.73,-31.56 420.32,-29.19"/>
</a>
</g>
</g>
</g>
</svg>
