<?xml version="1.0" encoding="UTF-8" standalone="no"?>
<!DOCTYPE svg PUBLIC "-//W3C//DTD SVG 1.1//EN"
 "http://www.w3.org/Graphics/SVG/1.1/DTD/svg11.dtd">
<!-- Generated by graphviz version 12.2.1 (20241206.2353)
 -->
<!-- Title: TMC2240Stepper::NODECONF Pages: 1 -->
<svg width="514pt" height="64pt"
 viewBox="0.00 0.00 513.50 64.25" xmlns="http://www.w3.org/2000/svg" xmlns:xlink="http://www.w3.org/1999/xlink">
<g id="graph0" class="graph" transform="scale(1 1) rotate(0) translate(4 60.25)">
<title>TMC2240Stepper::NODECONF</title>
<!-- Node1 -->
<g id="Node000001" class="node">
<title>Node1</title>
<g id="a_Node000001"><a xlink:title=" ">
<polygon fill="#999999" stroke="#666666" points="505.5,-37.25 349.25,-37.25 349.25,-18 505.5,-18 505.5,-37.25"/>
<text text-anchor="middle" x="427.38" y="-23.75" font-family="Helvetica,sans-Serif" font-size="10.00">TMC2240Stepper::NODECONF</text>
</a>
</g>
</g>
<!-- Node2 -->
<g id="Node000002" class="node">
<title>Node2</title>
<g id="a_Node000002"><a xlink:href="class_t_m_c2240_stepper.html#a1f66d7cb18482a2f4d8963e195519ef3" target="_top" xlink:title=" ">
<polygon fill="white" stroke="#666666" points="313.25,-56.25 155.5,-56.25 155.5,-37 313.25,-37 313.25,-56.25"/>
<text text-anchor="middle" x="234.38" y="-42.75" font-family="Helvetica,sans-Serif" font-size="10.00">TMC2240Stepper::SLAVECONF</text>
</a>
</g>
</g>
<!-- Node1&#45;&gt;Node2 -->
<g id="edge1_Node000001_Node000002" class="edge">
<title>Node1&#45;&gt;Node2</title>
<g id="a_edge1_Node000001_Node000002"><a xlink:title=" ">
<path fill="none" stroke="#63b8ff" d="M337.64,-36.45C329.59,-37.25 321.47,-38.06 313.52,-38.85"/>
<polygon fill="#63b8ff" stroke="#63b8ff" points="337.85,-39.95 347.46,-35.48 337.16,-32.98 337.85,-39.95"/>
</a>
</g>
</g>
<!-- Node4 -->
<g id="Node000004" class="node">
<title>Node4</title>
<g id="a_Node000004"><a xlink:href="class_t_m_c2240_stepper.html#ad8bacc391ae91761f474296c0ad397d5" target="_top" xlink:title=" ">
<polygon fill="white" stroke="#666666" points="313.25,-19.25 155.5,-19.25 155.5,0 313.25,0 313.25,-19.25"/>
<text text-anchor="middle" x="234.38" y="-5.75" font-family="Helvetica,sans-Serif" font-size="10.00">TMC2240Stepper::SLAVECONF</text>
</a>
</g>
</g>
<!-- Node1&#45;&gt;Node4 -->
<g id="edge3_Node000001_Node000004" class="edge">
<title>Node1&#45;&gt;Node4</title>
<g id="a_edge3_Node000001_Node000004"><a xlink:title=" ">
<path fill="none" stroke="#63b8ff" d="M337.64,-19.26C329.59,-18.5 321.47,-17.74 313.52,-16.99"/>
<polygon fill="#63b8ff" stroke="#63b8ff" points="337.17,-22.73 347.46,-20.19 337.83,-15.76 337.17,-22.73"/>
</a>
</g>
</g>
<!-- Node3 -->
<g id="Node000003" class="node">
<title>Node3</title>
<g id="a_Node000003"><a xlink:href="class_t_m_c2240_stepper.html#ad3dceab3734fad6678234e177bca6c11" target="_top" xlink:title=" ">
<polygon fill="white" stroke="#666666" points="119.5,-56.25 0,-56.25 0,-37 119.5,-37 119.5,-56.25"/>
<text text-anchor="middle" x="59.75" y="-42.75" font-family="Helvetica,sans-Serif" font-size="10.00">TMC2240Stepper::push</text>
</a>
</g>
</g>
<!-- Node2&#45;&gt;Node3 -->
<g id="edge2_Node000002_Node000003" class="edge">
<title>Node2&#45;&gt;Node3</title>
<g id="a_edge2_Node000002_Node000003"><a xlink:title=" ">
<path fill="none" stroke="#63b8ff" d="M143.71,-46.62C135.62,-46.62 127.57,-46.62 119.84,-46.62"/>
<polygon fill="#63b8ff" stroke="#63b8ff" points="143.63,-50.13 153.63,-46.63 143.63,-43.13 143.63,-50.13"/>
</a>
</g>
</g>
</g>
</svg>
