<?xml version="1.0" encoding="UTF-8" standalone="no"?>
<!DOCTYPE svg PUBLIC "-//W3C//DTD SVG 1.1//EN"
 "http://www.w3.org/Graphics/SVG/1.1/DTD/svg11.dtd">
<!-- Generated by graphviz version 12.2.1 (20241206.2353)
 -->
<!-- Title: TMC2240Stepper Pages: 1 -->
<svg width="177pt" height="100pt"
 viewBox="0.00 0.00 176.84 99.75" xmlns="http://www.w3.org/2000/svg" xmlns:xlink="http://www.w3.org/1999/xlink">

<svg id="main" version="1.1" xmlns="http://www.w3.org/2000/svg" xmlns:xlink="http://www.w3.org/1999/xlink" xml:space="preserve">

<style type="text/css"><![CDATA[
.node, .edge {opacity: 0.7;}
.node.selected, .edge.selected {opacity: 1;}
.edge:hover path { stroke: red; }
.edge:hover polygon { stroke: red; fill: red; }
]]></style>
<script type="application/ecmascript" xlink:href="svg.min.js"/>
<svg id="graph" class="graph">
<g id="graph0" class="graph" transform="scale(1 1) rotate(0) translate(4 95.75)">
<title>TMC2240Stepper</title>
<!-- Node1 -->
<g id="Node000001" class="node">
<title>Node1</title>
<g id="a_Node000001"><a xlink:title=" ">
<polygon fill="#999999" stroke="#666666" points="114.62,-19.25 22.12,-19.25 22.12,0 114.62,0 114.62,-19.25"/>
<text text-anchor="middle" x="68.38" y="-5.75" font-family="Helvetica,sans-Serif" font-size="10.00">TMC2240Stepper</text>
</a>
</g>
</g>
<!-- Node2 -->
<g id="Node000002" class="node">
<title>Node2</title>
<g id="a_Node000002"><a xlink:href="class_s_switch.html" target="_top" xlink:title=" ">
<polygon fill="white" stroke="#666666" points="52.75,-91.75 0,-91.75 0,-72.5 52.75,-72.5 52.75,-91.75"/>
<text text-anchor="middle" x="26.38" y="-78.25" font-family="Helvetica,sans-Serif" font-size="10.00">SSwitch</text>
</a>
</g>
</g>
<!-- Node2&#45;&gt;Node1 -->
<g id="edge1_Node000001_Node000002" class="edge">
<title>Node2&#45;&gt;Node1</title>
<g id="a_edge1_Node000001_Node000002"><a xlink:title=" ">
<path fill="none" stroke="#9a32cd" stroke-dasharray="5,2" d="M35.28,-61.85C39.1,-54.05 43.8,-45.06 48.62,-37.25 52.38,-31.18 57.13,-24.74 61.03,-19.72"/>
<polygon fill="#9a32cd" stroke="#9a32cd" points="32.16,-60.24 31.03,-70.78 38.48,-63.25 32.16,-60.24"/>
</a>
</g>
<text text-anchor="start" x="51.62" y="-42" font-family="Helvetica,sans-Serif" font-size="10.00" fill="grey">sswitch</text>
</g>
<!-- Node3 -->
<g id="Node000003" class="node">
<title>Node3</title>
<g id="a_Node000003"><a xlink:href="class_s_w___s_p_i_class.html" target="_top" xlink:title=" ">
<polygon fill="white" stroke="#666666" points="150.25,-91.75 70.5,-91.75 70.5,-72.5 150.25,-72.5 150.25,-91.75"/>
<text text-anchor="middle" x="110.38" y="-78.25" font-family="Helvetica,sans-Serif" font-size="10.00">SW_SPIClass</text>
</a>
</g>
</g>
<!-- Node3&#45;&gt;Node1 -->
<g id="edge2_Node000001_Node000003" class="edge">
<title>Node3&#45;&gt;Node1</title>
<g id="a_edge2_Node000001_Node000003"><a xlink:title=" ">
<path fill="none" stroke="#9a32cd" stroke-dasharray="5,2" d="M101.62,-61.82C97.85,-54.02 93.2,-45.04 88.38,-37.25 84.6,-31.16 79.79,-24.72 75.83,-19.7"/>
<polygon fill="#9a32cd" stroke="#9a32cd" points="98.4,-63.18 105.8,-70.76 104.74,-60.22 98.4,-63.18"/>
</a>
</g>
<text text-anchor="start" x="100.59" y="-42" font-family="Helvetica,sans-Serif" font-size="10.00" fill="grey">TMC_SW_SPI</text>
</g>
</g>
</svg>
</svg>

<style type='text/css'>
<![CDATA[
[data-mouse-over-selected='false'] { opacity: 0.7; }
[data-mouse-over-selected='true']  { opacity: 1.0; }
]]>
</style>
<script type="application/ecmascript"><![CDATA[
document.addEventListener('DOMContentLoaded', (event) => {
  highlightEdges();
  highlightAdjacentNodes();
});
]]></script>
</svg>
