<?xml version="1.0" encoding="UTF-8" standalone="no"?>
<!DOCTYPE svg PUBLIC "-//W3C//DTD SVG 1.1//EN"
 "http://www.w3.org/Graphics/SVG/1.1/DTD/svg11.dtd">
<!-- Generated by graphviz version 12.2.1 (20241206.2353)
 -->
<!-- Title: TMC2240Stepper::toff Pages: 1 -->
<svg width="270pt" height="45pt"
 viewBox="0.00 0.00 269.50 45.25" xmlns="http://www.w3.org/2000/svg" xmlns:xlink="http://www.w3.org/1999/xlink">
<g id="graph0" class="graph" transform="scale(1 1) rotate(0) translate(4 41.25)">
<title>TMC2240Stepper::toff</title>
<!-- Node1 -->
<g id="Node000001" class="node">
<title>Node1</title>
<g id="a_Node000001"><a xlink:title=" ">
<polygon fill="#999999" stroke="#666666" points="112.75,-19.25 0,-19.25 0,0 112.75,0 112.75,-19.25"/>
<text text-anchor="middle" x="56.38" y="-5.75" font-family="Helvetica,sans-Serif" font-size="10.00">TMC2240Stepper::toff</text>
</a>
</g>
</g>
<!-- Node2 -->
<g id="Node000002" class="node">
<title>Node2</title>
<g id="a_Node000002"><a xlink:href="class_t_m_c2240_stepper.html#abdec8f8f795ea9b0fd44ab2ab20f8f80" target="_top" xlink:title=" ">
<polygon fill="white" stroke="#666666" points="261.5,-19.25 148.75,-19.25 148.75,0 261.5,0 261.5,-19.25"/>
<text text-anchor="middle" x="205.12" y="-5.75" font-family="Helvetica,sans-Serif" font-size="10.00">TMC2240Stepper::toff</text>
</a>
</g>
</g>
<!-- Node1&#45;&gt;Node2 -->
<g id="edge1_Node000001_Node000002" class="edge">
<title>Node1&#45;&gt;Node2</title>
<g id="a_edge1_Node000001_Node000002"><a xlink:title=" ">
<path fill="none" stroke="#63b8ff" d="M112.85,-9.62C120.8,-9.62 129.04,-9.62 137.18,-9.62"/>
<polygon fill="#63b8ff" stroke="#63b8ff" points="137.05,-13.13 147.05,-9.63 137.05,-6.13 137.05,-13.13"/>
</a>
</g>
</g>
<!-- Node2&#45;&gt;Node2 -->
<g id="edge2_Node000002_Node000002" class="edge">
<title>Node2&#45;&gt;Node2</title>
<g id="a_edge2_Node000002_Node000002"><a xlink:title=" ">
<path fill="none" stroke="#63b8ff" d="M181.84,-19.54C171.22,-28.15 178.98,-37.25 205.12,-37.25 219.83,-37.25 228.72,-34.37 231.8,-30.32"/>
<polygon fill="#63b8ff" stroke="#63b8ff" points="235.2,-29.47 228.87,-20.98 228.52,-31.57 235.2,-29.47"/>
</a>
</g>
</g>
</g>
</svg>
