<?xml version="1.0" encoding="UTF-8" standalone="no"?>
<!DOCTYPE svg PUBLIC "-//W3C//DTD SVG 1.1//EN"
 "http://www.w3.org/Graphics/SVG/1.1/DTD/svg11.dtd">
<!-- Generated by graphviz version 12.2.1 (20241206.2353)
 -->
<!-- Title: TMC2660Stepper::sgt Pages: 1 -->
<svg width="268pt" height="45pt"
 viewBox="0.00 0.00 268.00 45.25" xmlns="http://www.w3.org/2000/svg" xmlns:xlink="http://www.w3.org/1999/xlink">
<g id="graph0" class="graph" transform="scale(1 1) rotate(0) translate(4 41.25)">
<title>TMC2660Stepper::sgt</title>
<!-- Node1 -->
<g id="Node000001" class="node">
<title>Node1</title>
<g id="a_Node000001"><a xlink:title=" ">
<polygon fill="#999999" stroke="#666666" points="112,-19.25 0,-19.25 0,0 112,0 112,-19.25"/>
<text text-anchor="middle" x="56" y="-5.75" font-family="Helvetica,sans-Serif" font-size="10.00">TMC2660Stepper::sgt</text>
</a>
</g>
</g>
<!-- Node2 -->
<g id="Node000002" class="node">
<title>Node2</title>
<g id="a_Node000002"><a xlink:href="class_t_m_c2660_stepper.html#a49b6ef9af2c9facdcf78928e802148d2" target="_top" xlink:title=" ">
<polygon fill="white" stroke="#666666" points="260,-19.25 148,-19.25 148,0 260,0 260,-19.25"/>
<text text-anchor="middle" x="204" y="-5.75" font-family="Helvetica,sans-Serif" font-size="10.00">TMC2660Stepper::sgt</text>
</a>
</g>
</g>
<!-- Node1&#45;&gt;Node2 -->
<g id="edge1_Node000001_Node000002" class="edge">
<title>Node1&#45;&gt;Node2</title>
<g id="a_edge1_Node000001_Node000002"><a xlink:title=" ">
<path fill="none" stroke="#63b8ff" d="M112.2,-9.62C120.1,-9.62 128.3,-9.62 136.39,-9.62"/>
<polygon fill="#63b8ff" stroke="#63b8ff" points="136.21,-13.13 146.21,-9.63 136.21,-6.13 136.21,-13.13"/>
</a>
</g>
</g>
<!-- Node2&#45;&gt;Node2 -->
<g id="edge2_Node000002_Node000002" class="edge">
<title>Node2&#45;&gt;Node2</title>
<g id="a_edge2_Node000002_Node000002"><a xlink:title=" ">
<path fill="none" stroke="#63b8ff" d="M180.83,-19.54C170.26,-28.15 177.98,-37.25 204,-37.25 218.63,-37.25 227.48,-34.37 230.54,-30.32"/>
<polygon fill="#63b8ff" stroke="#63b8ff" points="233.94,-29.48 227.62,-20.98 227.26,-31.57 233.94,-29.48"/>
</a>
</g>
</g>
</g>
</svg>
