<?xml version="1.0" encoding="UTF-8" standalone="no"?>
<!DOCTYPE svg PUBLIC "-//W3C//DTD SVG 1.1//EN"
 "http://www.w3.org/Graphics/SVG/1.1/DTD/svg11.dtd">
<!-- Generated by graphviz version 12.2.1 (20241206.2353)
 -->
<!-- Title: TMC2660Stepper::mstep Pages: 1 -->
<svg width="445pt" height="45pt"
 viewBox="0.00 0.00 444.50 45.25" xmlns="http://www.w3.org/2000/svg" xmlns:xlink="http://www.w3.org/1999/xlink">
<g id="graph0" class="graph" transform="scale(1 1) rotate(0) translate(4 41.25)">
<title>TMC2660Stepper::mstep</title>
<!-- Node1 -->
<g id="Node000001" class="node">
<title>Node1</title>
<g id="a_Node000001"><a xlink:title=" ">
<polygon fill="#999999" stroke="#666666" points="125.5,-19.25 0,-19.25 0,0 125.5,0 125.5,-19.25"/>
<text text-anchor="middle" x="62.75" y="-5.75" font-family="Helvetica,sans-Serif" font-size="10.00">TMC2660Stepper::mstep</text>
</a>
</g>
</g>
<!-- Node1&#45;&gt;Node1 -->
<g id="edge1_Node000001_Node000001" class="edge">
<title>Node1&#45;&gt;Node1</title>
<g id="a_edge1_Node000001_Node000001"><a xlink:title=" ">
<path fill="none" stroke="#63b8ff" d="M37.94,-19.54C26.62,-28.15 34.89,-37.25 62.75,-37.25 78.42,-37.25 87.9,-34.37 91.17,-30.32"/>
<polygon fill="#63b8ff" stroke="#63b8ff" points="94.54,-29.35 88.04,-20.97 87.9,-31.57 94.54,-29.35"/>
</a>
</g>
</g>
<!-- Node2 -->
<g id="Node000002" class="node">
<title>Node2</title>
<g id="a_Node000002"><a xlink:href="class_t_m_c2660_stepper.html#a4fa131ecb1e0e0436abff079c44eee5b" target="_top" xlink:title=" ">
<polygon fill="white" stroke="#666666" points="281,-19.25 161.5,-19.25 161.5,0 281,0 281,-19.25"/>
<text text-anchor="middle" x="221.25" y="-5.75" font-family="Helvetica,sans-Serif" font-size="10.00">TMC2660Stepper::rdsel</text>
</a>
</g>
</g>
<!-- Node1&#45;&gt;Node2 -->
<g id="edge2_Node000001_Node000002" class="edge">
<title>Node1&#45;&gt;Node2</title>
<g id="a_edge2_Node000001_Node000002"><a xlink:title=" ">
<path fill="none" stroke="#63b8ff" d="M125.6,-9.62C133.56,-9.62 141.75,-9.62 149.83,-9.62"/>
<polygon fill="#63b8ff" stroke="#63b8ff" points="149.63,-13.13 159.63,-9.63 149.63,-6.13 149.63,-13.13"/>
</a>
</g>
</g>
<!-- Node3 -->
<g id="Node000003" class="node">
<title>Node3</title>
<g id="a_Node000003"><a xlink:href="class_t_m_c2660_stepper.html#a0f6ee76b23deb7f6d5af711d9b9e2452" target="_top" xlink:title=" ">
<polygon fill="white" stroke="#666666" points="436.5,-19.25 317,-19.25 317,0 436.5,0 436.5,-19.25"/>
<text text-anchor="middle" x="376.75" y="-5.75" font-family="Helvetica,sans-Serif" font-size="10.00">TMC2660Stepper::rdsel</text>
</a>
</g>
</g>
<!-- Node2&#45;&gt;Node3 -->
<g id="edge3_Node000002_Node000003" class="edge">
<title>Node2&#45;&gt;Node3</title>
<g id="a_edge3_Node000002_Node000003"><a xlink:title=" ">
<path fill="none" stroke="#63b8ff" d="M281.16,-9.62C289.09,-9.62 297.29,-9.62 305.39,-9.62"/>
<polygon fill="#63b8ff" stroke="#63b8ff" points="305.23,-13.13 315.23,-9.63 305.23,-6.13 305.23,-13.13"/>
</a>
</g>
</g>
<!-- Node3&#45;&gt;Node3 -->
<g id="edge4_Node000003_Node000003" class="edge">
<title>Node3&#45;&gt;Node3</title>
<g id="a_edge4_Node000003_Node000003"><a xlink:title=" ">
<path fill="none" stroke="#63b8ff" d="M352.41,-19.54C341.3,-28.15 349.42,-37.25 376.75,-37.25 392.13,-37.25 401.42,-34.37 404.63,-30.32"/>
<polygon fill="#63b8ff" stroke="#63b8ff" points="408.01,-29.39 401.57,-20.98 401.36,-31.57 408.01,-29.39"/>
</a>
</g>
</g>
</g>
</svg>
