<?xml version="1.0" encoding="UTF-8" standalone="no"?>
<!DOCTYPE svg PUBLIC "-//W3C//DTD SVG 1.1//EN"
 "http://www.w3.org/Graphics/SVG/1.1/DTD/svg11.dtd">
<!-- Generated by graphviz version 12.2.1 (20241206.2353)
 -->
<!-- Title: TMC2240Stepper::register_reset Pages: 1 -->
<svg width="459pt" height="39pt"
 viewBox="0.00 0.00 458.75 38.50" xmlns="http://www.w3.org/2000/svg" xmlns:xlink="http://www.w3.org/1999/xlink">
<g id="graph0" class="graph" transform="scale(1 1) rotate(0) translate(4 34.5)">
<title>TMC2240Stepper::register_reset</title>
<!-- Node1 -->
<g id="Node000001" class="node">
<title>Node1</title>
<g id="a_Node000001"><a xlink:title=" ">
<polygon fill="#999999" stroke="#666666" points="130.75,-30.5 0,-30.5 0,0 130.75,0 130.75,-30.5"/>
<text text-anchor="start" x="8" y="-17" font-family="Helvetica,sans-Serif" font-size="10.00">TMC2240Stepper::register</text>
<text text-anchor="middle" x="65.38" y="-5.75" font-family="Helvetica,sans-Serif" font-size="10.00">_reset</text>
</a>
</g>
</g>
<!-- Node2 -->
<g id="Node000002" class="node">
<title>Node2</title>
<g id="a_Node000002"><a xlink:href="class_t_m_c2240_stepper.html#a1bf39bb8228d09c92e264de83124f788" target="_top" xlink:title=" ">
<polygon fill="white" stroke="#666666" points="297.5,-24.88 166.75,-24.88 166.75,-5.63 297.5,-5.63 297.5,-24.88"/>
<text text-anchor="middle" x="232.12" y="-11.38" font-family="Helvetica,sans-Serif" font-size="10.00">TMC2240Stepper::GSTAT</text>
</a>
</g>
</g>
<!-- Node1&#45;&gt;Node2 -->
<g id="edge1_Node000001_Node000002" class="edge">
<title>Node1&#45;&gt;Node2</title>
<g id="a_edge1_Node000001_Node000002"><a xlink:title=" ">
<path fill="none" stroke="#63b8ff" d="M131.02,-15.25C138.92,-15.25 147.05,-15.25 155.1,-15.25"/>
<polygon fill="#63b8ff" stroke="#63b8ff" points="154.89,-18.75 164.89,-15.25 154.89,-11.75 154.89,-18.75"/>
</a>
</g>
</g>
<!-- Node3 -->
<g id="Node000003" class="node">
<title>Node3</title>
<g id="a_Node000003"><a xlink:href="class_t_m_c2240_stepper.html#ab9de5d1aad8b0a998557ef85de765df9" target="_top" xlink:title=" ">
<polygon fill="white" stroke="#666666" points="450.75,-24.88 333.5,-24.88 333.5,-5.63 450.75,-5.63 450.75,-24.88"/>
<text text-anchor="middle" x="392.12" y="-11.38" font-family="Helvetica,sans-Serif" font-size="10.00">TMC2240Stepper::read</text>
</a>
</g>
</g>
<!-- Node2&#45;&gt;Node3 -->
<g id="edge2_Node000002_Node000003" class="edge">
<title>Node2&#45;&gt;Node3</title>
<g id="a_edge2_Node000002_Node000003"><a xlink:title=" ">
<path fill="none" stroke="#63b8ff" d="M297.85,-15.25C305.69,-15.25 313.73,-15.25 321.64,-15.25"/>
<polygon fill="#63b8ff" stroke="#63b8ff" points="321.58,-18.75 331.58,-15.25 321.58,-11.75 321.58,-18.75"/>
</a>
</g>
</g>
</g>
</svg>
