<?xml version="1.0" encoding="UTF-8" standalone="no"?>
<!DOCTYPE svg PUBLIC "-//W3C//DTD SVG 1.1//EN"
 "http://www.w3.org/Graphics/SVG/1.1/DTD/svg11.dtd">
<!-- Generated by graphviz version 12.2.1 (20241206.2353)
 -->
<!-- Title: TMC5130Stepper::TMC5130Stepper Pages: 1 -->
<svg width="605pt" height="101pt"
 viewBox="0.00 0.00 605.00 101.25" xmlns="http://www.w3.org/2000/svg" xmlns:xlink="http://www.w3.org/1999/xlink">
<g id="graph0" class="graph" transform="scale(1 1) rotate(0) translate(4 97.25)">
<title>TMC5130Stepper::TMC5130Stepper</title>
<!-- Node1 -->
<g id="Node000001" class="node">
<title>Node1</title>
<g id="a_Node000001"><a xlink:title=" ">
<polygon fill="#999999" stroke="#666666" points="597,-56.25 422,-56.25 422,-37 597,-37 597,-56.25"/>
<text text-anchor="middle" x="509.5" y="-42.75" font-family="Helvetica,sans-Serif" font-size="10.00">TMC5130Stepper::TMC5130Stepper</text>
</a>
</g>
</g>
<!-- Node2 -->
<g id="Node000002" class="node">
<title>Node2</title>
<g id="a_Node000002"><a xlink:href="class_t_m_c5160_stepper.html#ad0f698ae6d90619b534685d0ef53ffc9" target="_top" xlink:title=" ">
<polygon fill="white" stroke="#666666" points="386,-93.25 211,-93.25 211,-74 386,-74 386,-93.25"/>
<text text-anchor="middle" x="298.5" y="-79.75" font-family="Helvetica,sans-Serif" font-size="10.00">TMC5160Stepper::TMC5160Stepper</text>
</a>
</g>
</g>
<!-- Node1&#45;&gt;Node2 -->
<g id="edge1_Node000001_Node000002" class="edge">
<title>Node1&#45;&gt;Node2</title>
<g id="a_edge1_Node000001_Node000002"><a xlink:title=" ">
<path fill="none" stroke="#63b8ff" d="M440.06,-58.74C413.03,-63.53 382.34,-68.96 356.54,-73.53"/>
<polygon fill="#63b8ff" stroke="#63b8ff" points="440.66,-62.19 449.9,-57 439.44,-55.3 440.66,-62.19"/>
</a>
</g>
</g>
<!-- Node3 -->
<g id="Node000003" class="node">
<title>Node3</title>
<g id="a_Node000003"><a xlink:href="class_t_m_c5160_stepper.html#a6bac7c5223645da8e54aca6ff9ad700f" target="_top" xlink:title=" ">
<polygon fill="white" stroke="#666666" points="386,-56.25 211,-56.25 211,-37 386,-37 386,-56.25"/>
<text text-anchor="middle" x="298.5" y="-42.75" font-family="Helvetica,sans-Serif" font-size="10.00">TMC5160Stepper::TMC5160Stepper</text>
</a>
</g>
</g>
<!-- Node1&#45;&gt;Node3 -->
<g id="edge2_Node000001_Node000003" class="edge">
<title>Node1&#45;&gt;Node3</title>
<g id="a_edge2_Node000001_Node000003"><a xlink:title=" ">
<path fill="none" stroke="#63b8ff" d="M410.4,-46.62C402.38,-46.62 394.31,-46.62 386.39,-46.62"/>
<polygon fill="#63b8ff" stroke="#63b8ff" points="410.17,-50.13 420.17,-46.63 410.17,-43.13 410.17,-50.13"/>
</a>
</g>
</g>
<!-- Node7 -->
<g id="Node000007" class="node">
<title>Node7</title>
<g id="a_Node000007"><a xlink:href="class_t_m_c5160_stepper.html#a755dbd24ac852cede5f84fee827cc5dd" target="_top" xlink:title=" ">
<polygon fill="white" stroke="#666666" points="386,-19.25 211,-19.25 211,0 386,0 386,-19.25"/>
<text text-anchor="middle" x="298.5" y="-5.75" font-family="Helvetica,sans-Serif" font-size="10.00">TMC5160Stepper::TMC5160Stepper</text>
</a>
</g>
</g>
<!-- Node1&#45;&gt;Node7 -->
<g id="edge6_Node000001_Node000007" class="edge">
<title>Node1&#45;&gt;Node7</title>
<g id="a_edge6_Node000001_Node000007"><a xlink:title=" ">
<path fill="none" stroke="#63b8ff" d="M440.06,-34.51C413.03,-29.72 382.34,-24.29 356.54,-19.72"/>
<polygon fill="#63b8ff" stroke="#63b8ff" points="439.44,-37.95 449.9,-36.25 440.66,-31.06 439.44,-37.95"/>
</a>
</g>
</g>
<!-- Node4 -->
<g id="Node000004" class="node">
<title>Node4</title>
<g id="a_Node000004"><a xlink:href="class_t_m_c5161_stepper.html#a5ad0292bfabaf69e4bbd1b7569bf3967" target="_top" xlink:title=" ">
<polygon fill="white" stroke="#666666" points="175,-93.25 0,-93.25 0,-74 175,-74 175,-93.25"/>
<text text-anchor="middle" x="87.5" y="-79.75" font-family="Helvetica,sans-Serif" font-size="10.00">TMC5161Stepper::TMC5161Stepper</text>
</a>
</g>
</g>
<!-- Node3&#45;&gt;Node4 -->
<g id="edge3_Node000003_Node000004" class="edge">
<title>Node3&#45;&gt;Node4</title>
<g id="a_edge3_Node000003_Node000004"><a xlink:title=" ">
<path fill="none" stroke="#63b8ff" d="M229.06,-58.74C202.03,-63.53 171.34,-68.96 145.54,-73.53"/>
<polygon fill="#63b8ff" stroke="#63b8ff" points="229.66,-62.19 238.9,-57 228.44,-55.3 229.66,-62.19"/>
</a>
</g>
</g>
<!-- Node5 -->
<g id="Node000005" class="node">
<title>Node5</title>
<g id="a_Node000005"><a xlink:href="class_t_m_c5161_stepper.html#afff5eba2e407c3bc1ad9aabdbcffeb9f" target="_top" xlink:title=" ">
<polygon fill="white" stroke="#666666" points="175,-56.25 0,-56.25 0,-37 175,-37 175,-56.25"/>
<text text-anchor="middle" x="87.5" y="-42.75" font-family="Helvetica,sans-Serif" font-size="10.00">TMC5161Stepper::TMC5161Stepper</text>
</a>
</g>
</g>
<!-- Node3&#45;&gt;Node5 -->
<g id="edge4_Node000003_Node000005" class="edge">
<title>Node3&#45;&gt;Node5</title>
<g id="a_edge4_Node000003_Node000005"><a xlink:title=" ">
<path fill="none" stroke="#63b8ff" d="M199.4,-46.62C191.38,-46.62 183.31,-46.62 175.39,-46.62"/>
<polygon fill="#63b8ff" stroke="#63b8ff" points="199.17,-50.13 209.17,-46.63 199.17,-43.13 199.17,-50.13"/>
</a>
</g>
</g>
<!-- Node6 -->
<g id="Node000006" class="node">
<title>Node6</title>
<g id="a_Node000006"><a xlink:href="class_t_m_c5161_stepper.html#a67797469ad054e42ec6086b37b81fbdd" target="_top" xlink:title=" ">
<polygon fill="white" stroke="#666666" points="175,-19.25 0,-19.25 0,0 175,0 175,-19.25"/>
<text text-anchor="middle" x="87.5" y="-5.75" font-family="Helvetica,sans-Serif" font-size="10.00">TMC5161Stepper::TMC5161Stepper</text>
</a>
</g>
</g>
<!-- Node3&#45;&gt;Node6 -->
<g id="edge5_Node000003_Node000006" class="edge">
<title>Node3&#45;&gt;Node6</title>
<g id="a_edge5_Node000003_Node000006"><a xlink:title=" ">
<path fill="none" stroke="#63b8ff" d="M229.06,-34.51C202.03,-29.72 171.34,-24.29 145.54,-19.72"/>
<polygon fill="#63b8ff" stroke="#63b8ff" points="228.44,-37.95 238.9,-36.25 229.66,-31.06 228.44,-37.95"/>
</a>
</g>
</g>
</g>
</svg>
