<?xml version="1.0" encoding="UTF-8" standalone="no"?>
<!DOCTYPE svg PUBLIC "-//W3C//DTD SVG 1.1//EN"
 "http://www.w3.org/Graphics/SVG/1.1/DTD/svg11.dtd">
<!-- Generated by graphviz version 12.2.1 (20241206.2353)
 -->
<!-- Title: TMC2240Stepper::push Pages: 1 -->
<!--zoomable 323 -->

<svg id="main" version="1.1" xmlns="http://www.w3.org/2000/svg" xmlns:xlink="http://www.w3.org/1999/xlink" xml:space="preserve" onload="init(evt)">

<style type="text/css"><![CDATA[
.node, .edge {opacity: 0.7;}
.node.selected, .edge.selected {opacity: 1;}
.edge:hover path { stroke: red; }
.edge:hover polygon { stroke: red; fill: red; }
]]></style>

<defs>
  <circle id="rim" cx="0" cy="0" r="7"/>
  <circle id="rim2" cx="0" cy="0" r="3.5"/>
  <g id="zoomPlus">
    <use xlink:href="#rim" fill="#404040"><set attributeName="fill" to="#808080" begin="zoomplus.mouseover" end="zoomplus.mouseout"/></use>
    <path d="M-4,0h8M0,-4v8" fill="none" stroke="white" stroke-width="1.5" pointer-events="none"/>
  </g>
  <g id="zoomMin">
    <use xlink:href="#rim" fill="#404040"><set attributeName="fill" to="#808080" begin="zoomminus.mouseover" end="zoomminus.mouseout"/></use>
    <path d="M-4,0h8" fill="none" stroke="white" stroke-width="1.5" pointer-events="none"/>
  </g>
  <g id="arrowUp" transform="translate(30 24)">
    <use xlink:href="#rim"/>
    <path pointer-events="none" fill="none" stroke="white" stroke-width="1.5" d="M0,-3.0v7 M-2.5,-0.5L0,-3.0L2.5,-0.5"/>
  </g>
  <g id="arrowRight" transform="rotate(90) translate(36 -43)">
    <use xlink:href="#rim"/>
    <path pointer-events="none" fill="none" stroke="white" stroke-width="1.5" d="M0,-3.0v7 M-2.5,-0.5L0,-3.0L2.5,-0.5"/>
  </g>
  <g id="arrowDown" transform="rotate(180) translate(-30 -48)">
    <use xlink:href="#rim"/>
    <path pointer-events="none" fill="none" stroke="white" stroke-width="1.5" d="M0,-3.0v7 M-2.5,-0.5L0,-3.0L2.5,-0.5"/>
  </g>
  <g id="arrowLeft" transform="rotate(270) translate(-36 17)">
    <use xlink:href="#rim"/>
    <path pointer-events="none" fill="none" stroke="white" stroke-width="1.5" d="M0,-3.0v7 M-2.5,-0.5L0,-3.0L2.5,-0.5"/>
  </g>
  <g id="resetDef">
    <use xlink:href="#rim2" fill="#404040"><set attributeName="fill" to="#808080" begin="reset.mouseover" end="reset.mouseout"/></use>
  </g>
</defs>
<script type="application/ecmascript">
var viewWidth = 531;
var viewHeight = 323;
var sectionId = 'dynsection-209';
</script>
<script type="application/ecmascript" xlink:href="svg.min.js"/>
<svg id="graph" class="graph">
<g id="viewport">
<title>TMC2240Stepper::push</title>
<!-- Node1 -->
<g id="Node000001" class="node">
<title>Node1</title>
<g id="a_Node000001"><a xlink:title=" ">
<polygon fill="#999999" stroke="#666666" points="119.5,-167.25 0,-167.25 0,-148 119.5,-148 119.5,-167.25"/>
<text text-anchor="middle" x="59.75" y="-153.75" font-family="Helvetica,sans-Serif" font-size="10.00">TMC2240Stepper::push</text>
</a>
</g>
</g>
<!-- Node2 -->
<g id="Node000002" class="node">
<title>Node2</title>
<g id="a_Node000002"><a xlink:href="class_t_m_c2240_stepper.html#a01b6a378664e99c8fb7c2ffbffa03c2c" target="_top" xlink:title=" ">
<polygon fill="white" stroke="#666666" points="321.12,-315.25 164.88,-315.25 164.88,-296 321.12,-296 321.12,-315.25"/>
<text text-anchor="middle" x="243" y="-301.75" font-family="Helvetica,sans-Serif" font-size="10.00">TMC2240Stepper::CHOPCONF</text>
</a>
</g>
</g>
<!-- Node1&#45;&gt;Node2 -->
<g id="edge1_Node000001_Node000002" class="edge">
<title>Node1&#45;&gt;Node2</title>
<g id="a_edge1_Node000001_Node000002"><a xlink:title=" ">
<path fill="none" stroke="#63b8ff" d="M64.96,-167.71C75.89,-192.52 107.63,-256.73 155.5,-287.62 157.34,-288.81 159.24,-289.92 161.19,-290.96"/>
<polygon fill="#63b8ff" stroke="#63b8ff" points="159.38,-293.98 169.93,-294.94 162.28,-287.61 159.38,-293.98"/>
</a>
</g>
</g>
<!-- Node4 -->
<g id="Node000004" class="node">
<title>Node4</title>
<g id="a_Node000004"><a xlink:href="class_t_m_c2240_stepper.html#a9c9320bb2097e08678ec2f7fa308fe0c" target="_top" xlink:title=" ">
<polygon fill="white" stroke="#666666" points="320,-278.25 166,-278.25 166,-259 320,-259 320,-278.25"/>
<text text-anchor="middle" x="243" y="-264.75" font-family="Helvetica,sans-Serif" font-size="10.00">TMC2240Stepper::DRV_CONF</text>
</a>
</g>
</g>
<!-- Node1&#45;&gt;Node4 -->
<g id="edge3_Node000001_Node000004" class="edge">
<title>Node1&#45;&gt;Node4</title>
<g id="a_edge3_Node000001_Node000004"><a xlink:title=" ">
<path fill="none" stroke="#63b8ff" d="M67.79,-167.64C81.98,-187.01 116.06,-229.56 155.5,-250.62 158.2,-252.07 161,-253.39 163.87,-254.61"/>
<polygon fill="#63b8ff" stroke="#63b8ff" points="162.52,-257.84 173.12,-258.05 164.97,-251.28 162.52,-257.84"/>
</a>
</g>
</g>
<!-- Node5 -->
<g id="Node000005" class="node">
<title>Node5</title>
<g id="a_Node000005"><a xlink:href="class_t_m_c2240_stepper.html#a10bd310325636c2839b49a05eba924d9" target="_top" xlink:title=" ">
<polygon fill="white" stroke="#666666" points="310.25,-241.25 175.75,-241.25 175.75,-222 310.25,-222 310.25,-241.25"/>
<text text-anchor="middle" x="243" y="-227.75" font-family="Helvetica,sans-Serif" font-size="10.00">TMC2240Stepper::GCONF</text>
</a>
</g>
</g>
<!-- Node1&#45;&gt;Node5 -->
<g id="edge4_Node000001_Node000005" class="edge">
<title>Node1&#45;&gt;Node5</title>
<g id="a_edge4_Node000001_Node000005"><a xlink:title=" ">
<path fill="none" stroke="#63b8ff" d="M74.45,-167.7C92.24,-180.31 124.67,-201.69 155.5,-213.62 160.13,-215.42 164.97,-217.05 169.9,-218.52"/>
<polygon fill="#63b8ff" stroke="#63b8ff" points="168.74,-221.83 179.31,-221.11 170.6,-215.08 168.74,-221.83"/>
</a>
</g>
</g>
<!-- Node6 -->
<g id="Node000006" class="node">
<title>Node6</title>
<g id="a_Node000006"><a xlink:href="class_t_m_c2240_stepper.html#a8049b6f5406aa19ed0bd8bd3feda4809" target="_top" xlink:title=" ">
<polygon fill="white" stroke="#666666" points="323,-204.25 163,-204.25 163,-185 323,-185 323,-204.25"/>
<text text-anchor="middle" x="243" y="-190.75" font-family="Helvetica,sans-Serif" font-size="10.00">TMC2240Stepper::IHOLD_IRUN</text>
</a>
</g>
</g>
<!-- Node1&#45;&gt;Node6 -->
<g id="edge6_Node000001_Node000006" class="edge">
<title>Node1&#45;&gt;Node6</title>
<g id="a_edge6_Node000001_Node000006"><a xlink:title=" ">
<path fill="none" stroke="#63b8ff" d="M110.28,-167.74C132.26,-172.22 158.33,-177.54 181.45,-182.26"/>
<polygon fill="#63b8ff" stroke="#63b8ff" points="180.55,-185.65 191.05,-184.22 181.95,-178.79 180.55,-185.65"/>
</a>
</g>
</g>
<!-- Node7 -->
<g id="Node000007" class="node">
<title>Node7</title>
<g id="a_Node000007"><a xlink:href="class_t_m_c2240_stepper.html#a9e471be67356400b9ef46db5cd566f5d" target="_top" xlink:title=" ">
<polygon fill="white" stroke="#666666" points="318.88,-167.25 167.12,-167.25 167.12,-148 318.88,-148 318.88,-167.25"/>
<text text-anchor="middle" x="243" y="-153.75" font-family="Helvetica,sans-Serif" font-size="10.00">TMC2240Stepper::PWMCONF</text>
</a>
</g>
</g>
<!-- Node1&#45;&gt;Node7 -->
<g id="edge7_Node000001_Node000007" class="edge">
<title>Node1&#45;&gt;Node7</title>
<g id="a_edge7_Node000001_Node000007"><a xlink:title=" ">
<path fill="none" stroke="#63b8ff" d="M119.85,-157.62C131.2,-157.62 143.3,-157.62 155.32,-157.62"/>
<polygon fill="#63b8ff" stroke="#63b8ff" points="155.26,-161.13 165.26,-157.63 155.26,-154.13 155.26,-161.13"/>
</a>
</g>
</g>
<!-- Node8 -->
<g id="Node000008" class="node">
<title>Node8</title>
<g id="a_Node000008"><a xlink:href="class_t_m_c2240_stepper.html#ac69b01fcbe8900fef0c9480ab54a7746" target="_top" xlink:title=" ">
<polygon fill="white" stroke="#666666" points="318.5,-130.25 167.5,-130.25 167.5,-111 318.5,-111 318.5,-130.25"/>
<text text-anchor="middle" x="243" y="-116.75" font-family="Helvetica,sans-Serif" font-size="10.00">TMC2240Stepper::SG4_THRS</text>
</a>
</g>
</g>
<!-- Node1&#45;&gt;Node8 -->
<g id="edge8_Node000001_Node000008" class="edge">
<title>Node1&#45;&gt;Node8</title>
<g id="a_edge8_Node000001_Node000008"><a xlink:title=" ">
<path fill="none" stroke="#63b8ff" d="M110.28,-147.51C132.26,-143.03 158.33,-137.71 181.45,-132.99"/>
<polygon fill="#63b8ff" stroke="#63b8ff" points="181.95,-136.46 191.05,-131.03 180.55,-129.6 181.95,-136.46"/>
</a>
</g>
</g>
<!-- Node9 -->
<g id="Node000009" class="node">
<title>Node9</title>
<g id="a_Node000009"><a xlink:href="class_t_m_c2240_stepper.html#a1f66d7cb18482a2f4d8963e195519ef3" target="_top" xlink:title=" ">
<polygon fill="white" stroke="#666666" points="321.88,-93.25 164.12,-93.25 164.12,-74 321.88,-74 321.88,-93.25"/>
<text text-anchor="middle" x="243" y="-79.75" font-family="Helvetica,sans-Serif" font-size="10.00">TMC2240Stepper::SLAVECONF</text>
</a>
</g>
</g>
<!-- Node1&#45;&gt;Node9 -->
<g id="edge9_Node000001_Node000009" class="edge">
<title>Node1&#45;&gt;Node9</title>
<g id="a_edge9_Node000001_Node000009"><a xlink:title=" ">
<path fill="none" stroke="#63b8ff" d="M74.45,-147.55C92.24,-134.94 124.67,-113.56 155.5,-101.62 160.13,-99.83 164.97,-98.2 169.9,-96.73"/>
<polygon fill="#63b8ff" stroke="#63b8ff" points="170.6,-100.17 179.31,-94.14 168.74,-93.42 170.6,-100.17"/>
</a>
</g>
</g>
<!-- Node11 -->
<g id="Node000011" class="node">
<title>Node11</title>
<g id="a_Node000011"><a xlink:href="class_t_m_c2240_stepper.html#a67e39d70c7422f4b7c7f936669257685" target="_top" xlink:title=" ">
<polygon fill="white" stroke="#666666" points="330.5,-56.25 155.5,-56.25 155.5,-37 330.5,-37 330.5,-56.25"/>
<text text-anchor="middle" x="243" y="-42.75" font-family="Helvetica,sans-Serif" font-size="10.00">TMC2240Stepper::TPOWERDOWN</text>
</a>
</g>
</g>
<!-- Node1&#45;&gt;Node11 -->
<g id="edge11_Node000001_Node000011" class="edge">
<title>Node1&#45;&gt;Node11</title>
<g id="a_edge11_Node000001_Node000011"><a xlink:title=" ">
<path fill="none" stroke="#63b8ff" d="M67.79,-147.61C81.98,-128.24 116.06,-85.69 155.5,-64.62 158.2,-63.18 161,-61.86 163.87,-60.64"/>
<polygon fill="#63b8ff" stroke="#63b8ff" points="164.97,-63.97 173.12,-57.2 162.52,-57.41 164.97,-63.97"/>
</a>
</g>
</g>
<!-- Node12 -->
<g id="Node000012" class="node">
<title>Node12</title>
<g id="a_Node000012"><a xlink:href="class_t_m_c2240_stepper.html#a9d5e6b219570cf411303ac8a8fa8ea83" target="_top" xlink:title=" ">
<polygon fill="white" stroke="#666666" points="321.5,-19.25 164.5,-19.25 164.5,0 321.5,0 321.5,-19.25"/>
<text text-anchor="middle" x="243" y="-5.75" font-family="Helvetica,sans-Serif" font-size="10.00">TMC2240Stepper::TPWMTHRS</text>
</a>
</g>
</g>
<!-- Node1&#45;&gt;Node12 -->
<g id="edge12_Node000001_Node000012" class="edge">
<title>Node1&#45;&gt;Node12</title>
<g id="a_edge12_Node000001_Node000012"><a xlink:title=" ">
<path fill="none" stroke="#63b8ff" d="M64.96,-147.54C75.89,-122.73 107.63,-58.52 155.5,-27.62 157.34,-26.44 159.24,-25.33 161.19,-24.29"/>
<polygon fill="#63b8ff" stroke="#63b8ff" points="162.28,-27.64 169.93,-20.31 159.38,-21.27 162.28,-27.64"/>
</a>
</g>
</g>
<!-- Node3 -->
<g id="Node000003" class="node">
<title>Node3</title>
<g id="a_Node000003"><a xlink:href="class_t_m_c2240_stepper.html#ab9de5d1aad8b0a998557ef85de765df9" target="_top" xlink:title=" ">
<polygon fill="white" stroke="#666666" points="503.25,-278.25 386,-278.25 386,-259 503.25,-259 503.25,-278.25"/>
<text text-anchor="middle" x="444.62" y="-264.75" font-family="Helvetica,sans-Serif" font-size="10.00">TMC2240Stepper::read</text>
</a>
</g>
</g>
<!-- Node2&#45;&gt;Node3 -->
<g id="edge2_Node000002_Node000003" class="edge">
<title>Node2&#45;&gt;Node3</title>
<g id="a_edge2_Node000002_Node000003"><a xlink:title=" ">
<path fill="none" stroke="#63b8ff" d="M298.55,-295.51C323.08,-290.97 352.25,-285.56 377.97,-280.79"/>
<polygon fill="#63b8ff" stroke="#63b8ff" points="378.46,-284.26 387.65,-279 377.18,-277.38 378.46,-284.26"/>
</a>
</g>
</g>
<!-- Node5&#45;&gt;Node3 -->
<g id="edge5_Node000005_Node000003" class="edge">
<title>Node5&#45;&gt;Node3</title>
<g id="a_edge5_Node000005_Node000003"><a xlink:title=" ">
<path fill="none" stroke="#63b8ff" d="M298.55,-241.74C323.08,-246.28 352.25,-251.69 377.97,-256.46"/>
<polygon fill="#63b8ff" stroke="#63b8ff" points="377.18,-259.87 387.65,-258.25 378.46,-252.99 377.18,-259.87"/>
</a>
</g>
</g>
<!-- Node10 -->
<g id="Node000010" class="node">
<title>Node10</title>
<g id="a_Node000010"><a xlink:href="class_t_m_c2240_stepper.html#a4cb41cd822ddcbbf558a31f43ee55221" target="_top" xlink:title=" ">
<polygon fill="white" stroke="#666666" points="522.75,-93.25 366.5,-93.25 366.5,-74 522.75,-74 522.75,-93.25"/>
<text text-anchor="middle" x="444.62" y="-79.75" font-family="Helvetica,sans-Serif" font-size="10.00">TMC2240Stepper::NODECONF</text>
</a>
</g>
</g>
<!-- Node9&#45;&gt;Node10 -->
<g id="edge10_Node000009_Node000010" class="edge">
<title>Node9&#45;&gt;Node10</title>
<g id="a_edge10_Node000009_Node000010"><a xlink:title=" ">
<path fill="none" stroke="#63b8ff" d="M322.32,-83.62C333.03,-83.62 344.07,-83.62 354.94,-83.62"/>
<polygon fill="#63b8ff" stroke="#63b8ff" points="354.67,-87.13 364.67,-83.63 354.67,-80.13 354.67,-87.13"/>
</a>
</g>
</g>
</g>
</svg>

<g id="navigator" transform="translate(0 0)" fill="#404254">
  <rect fill="#f2f5e9" fill-opacity="0.5" stroke="#606060" stroke-width=".5" x="0" y="0" width="60" height="60"/>
  <use id="zoomplus" xlink:href="#zoomPlus" x="17" y="9" onmousedown="handleZoom(evt,'in')"/>
  <use id="zoomminus" xlink:href="#zoomMin" x="42" y="9" onmousedown="handleZoom(evt,'out')"/>
  <use id="reset" xlink:href="#resetDef" x="30" y="36" onmousedown="handleReset()"/>
   <use id="arrowup" xlink:href="#arrowUp" x="0" y="0" onmousedown="handlePan(0,-1)"/>
  <use id="arrowright" xlink:href="#arrowRight" x="0" y="0" onmousedown="handlePan(1,0)"/>
  <use id="arrowdown" xlink:href="#arrowDown" x="0" y="0" onmousedown="handlePan(0,1)"/>
  <use id="arrowleft" xlink:href="#arrowLeft" x="0" y="0" onmousedown="handlePan(-1,0)"/>
</g>
<svg viewBox="0 0 15 15" width="100%" height="30px" preserveAspectRatio="xMaxYMin meet">
 <g id="arrow_out" transform="scale(0.3 0.3)">
  <a xlink:href="class_t_m_c2240_stepper_ad3dceab3734fad6678234e177bca6c11_cgraph_org.svg" target="_base">
   <rect id="button" ry="5" rx="5" y="6" x="6" height="38" width="38"
        fill="#f2f5e9" fill-opacity="0.5" stroke="#606060" stroke-width="1.0"/>
   <path id="arrow"
     d="M 11.500037,31.436501 C 11.940474,20.09759 22.043105,11.32322 32.158766,21.979434 L 37.068811,17.246167 C 37.068811,17.246167 37.088388,32 37.088388,32 L 22.160133,31.978069 C 22.160133,31.978069 26.997745,27.140456 26.997745,27.140456 C 18.528582,18.264221 13.291696,25.230495 11.500037,31.436501 z"
     style="fill:#404040;"/>
  </a>
 </g>
</svg>

<style type='text/css'>
<![CDATA[
[data-mouse-over-selected='false'] { opacity: 0.7; }
[data-mouse-over-selected='true']  { opacity: 1.0; }
]]>
</style>
<script type="application/ecmascript"><![CDATA[
document.addEventListener('DOMContentLoaded', (event) => {
  highlightEdges();
  highlightAdjacentNodes();
});
]]></script>
</svg>
