<?xml version="1.0" encoding="UTF-8" standalone="no"?>
<!DOCTYPE svg PUBLIC "-//W3C//DTD SVG 1.1//EN"
 "http://www.w3.org/Graphics/SVG/1.1/DTD/svg11.dtd">
<!-- Generated by graphviz version 12.2.1 (20241206.2353)
 -->
<!-- Title: TMC2208Stepper::cur_b Pages: 1 -->
<svg width="897pt" height="187pt"
 viewBox="0.00 0.00 897.25 187.25" xmlns="http://www.w3.org/2000/svg" xmlns:xlink="http://www.w3.org/1999/xlink">
<g id="graph0" class="graph" transform="scale(1 1) rotate(0) translate(4 183.25)">
<title>TMC2208Stepper::cur_b</title>
<!-- Node1 -->
<g id="Node000001" class="node">
<title>Node1</title>
<g id="a_Node000001"><a xlink:title=" ">
<polygon fill="#999999" stroke="#666666" points="122.5,-83.25 0,-83.25 0,-64 122.5,-64 122.5,-83.25"/>
<text text-anchor="middle" x="61.25" y="-69.75" font-family="Helvetica,sans-Serif" font-size="10.00">TMC2208Stepper::cur_b</text>
</a>
</g>
</g>
<!-- Node2 -->
<g id="Node000002" class="node">
<title>Node2</title>
<g id="a_Node000002"><a xlink:href="class_t_m_c2208_stepper.html#a8aef97b3f46492720cb65a0995839f8b" target="_top" xlink:title=" ">
<polygon fill="white" stroke="#666666" points="314.75,-83.25 158.5,-83.25 158.5,-64 314.75,-64 314.75,-83.25"/>
<text text-anchor="middle" x="236.62" y="-69.75" font-family="Helvetica,sans-Serif" font-size="10.00">TMC2208Stepper::MSCURACT</text>
</a>
</g>
</g>
<!-- Node1&#45;&gt;Node2 -->
<g id="edge1_Node000001_Node000002" class="edge">
<title>Node1&#45;&gt;Node2</title>
<g id="a_edge1_Node000001_Node000002"><a xlink:title=" ">
<path fill="none" stroke="#63b8ff" d="M122.89,-73.62C130.65,-73.62 138.73,-73.62 146.82,-73.62"/>
<polygon fill="#63b8ff" stroke="#63b8ff" points="146.75,-77.13 156.75,-73.63 146.75,-70.13 146.75,-77.13"/>
</a>
</g>
</g>
<!-- Node3 -->
<g id="Node000003" class="node">
<title>Node3</title>
<g id="a_Node000003"><a xlink:href="class_t_m_c2208_stepper.html#a2fae2050849c3ab7968012def8ea1cc5" target="_top" xlink:title=" ">
<polygon fill="white" stroke="#666666" points="468,-83.25 350.75,-83.25 350.75,-64 468,-64 468,-83.25"/>
<text text-anchor="middle" x="409.38" y="-69.75" font-family="Helvetica,sans-Serif" font-size="10.00">TMC2208Stepper::read</text>
</a>
</g>
</g>
<!-- Node2&#45;&gt;Node3 -->
<g id="edge2_Node000002_Node000003" class="edge">
<title>Node2&#45;&gt;Node3</title>
<g id="a_edge2_Node000002_Node000003"><a xlink:title=" ">
<path fill="none" stroke="#63b8ff" d="M315.01,-73.62C323.01,-73.62 331.11,-73.62 339.02,-73.62"/>
<polygon fill="#63b8ff" stroke="#63b8ff" points="338.92,-77.13 348.92,-73.63 338.92,-70.13 338.92,-77.13"/>
</a>
</g>
</g>
<!-- Node4 -->
<g id="Node000004" class="node">
<title>Node4</title>
<g id="a_Node000004"><a xlink:href="class_t_m_c2208_stepper.html#a321ad81155b7a20c0858920d32d0b074" target="_top" xlink:title=" ">
<polygon fill="white" stroke="#666666" points="689.5,-142.25 522,-142.25 522,-123 689.5,-123 689.5,-142.25"/>
<text text-anchor="middle" x="605.75" y="-128.75" font-family="Helvetica,sans-Serif" font-size="10.00">TMC2208Stepper::_sendDatagram</text>
</a>
</g>
</g>
<!-- Node3&#45;&gt;Node4 -->
<g id="edge3_Node000003_Node000004" class="edge">
<title>Node3&#45;&gt;Node4</title>
<g id="a_edge3_Node000003_Node000004"><a xlink:title=" ">
<path fill="none" stroke="#63b8ff" d="M429.59,-83.65C448.17,-92.94 477.34,-106.53 504,-114.62 510.64,-116.64 517.6,-118.46 524.62,-120.1"/>
<polygon fill="#63b8ff" stroke="#63b8ff" points="523.68,-123.47 534.2,-122.2 525.18,-116.64 523.68,-123.47"/>
</a>
</g>
</g>
<!-- Node8 -->
<g id="Node000008" class="node">
<title>Node8</title>
<g id="a_Node000008"><a xlink:href="class_t_m_c2208_stepper.html#a409c19fa6b052a370a317d061bf9af4e" target="_top" xlink:title=" ">
<polygon fill="white" stroke="#666666" points="675.25,-105.25 536.25,-105.25 536.25,-86 675.25,-86 675.25,-105.25"/>
<text text-anchor="middle" x="605.75" y="-91.75" font-family="Helvetica,sans-Serif" font-size="10.00">TMC2208Stepper::calcCRC</text>
</a>
</g>
</g>
<!-- Node3&#45;&gt;Node8 -->
<g id="edge7_Node000003_Node000008" class="edge">
<title>Node3&#45;&gt;Node8</title>
<g id="a_edge7_Node000003_Node000008"><a xlink:title=" ">
<path fill="none" stroke="#63b8ff" d="M468.43,-80.2C486.12,-82.2 505.87,-84.43 524.74,-86.57"/>
<polygon fill="#63b8ff" stroke="#63b8ff" points="524.2,-90.03 534.53,-87.68 524.99,-83.07 524.2,-90.03"/>
</a>
</g>
</g>
<!-- Node9 -->
<g id="Node000009" class="node">
<title>Node9</title>
<g id="a_Node000009"><a xlink:href="class_t_m_c2208_stepper.html#ab3d186b27f45ec47c1cf0bf15ed4cd2e" target="_top" xlink:title=" ">
<polygon fill="white" stroke="#666666" points="676,-67.88 535.5,-67.88 535.5,-37.38 676,-37.38 676,-67.88"/>
<text text-anchor="start" x="543.5" y="-54.38" font-family="Helvetica,sans-Serif" font-size="10.00">TMC2208Stepper::postRead</text>
<text text-anchor="middle" x="605.75" y="-43.12" font-family="Helvetica,sans-Serif" font-size="10.00">Communication</text>
</a>
</g>
</g>
<!-- Node3&#45;&gt;Node9 -->
<g id="edge8_Node000003_Node000009" class="edge">
<title>Node3&#45;&gt;Node9</title>
<g id="a_edge8_Node000003_Node000009"><a xlink:title=" ">
<path fill="none" stroke="#63b8ff" d="M468.43,-67.35C485.93,-65.46 505.46,-63.35 524.15,-61.33"/>
<polygon fill="#63b8ff" stroke="#63b8ff" points="524.27,-64.84 533.83,-60.29 523.51,-57.88 524.27,-64.84"/>
</a>
</g>
</g>
<!-- Node10 -->
<g id="Node000010" class="node">
<title>Node10</title>
<g id="a_Node000010"><a xlink:href="class_t_m_c2208_stepper.html#a8c4f3ce4a964c9a03a1e14f47bf5bec3" target="_top" xlink:title=" ">
<polygon fill="white" stroke="#666666" points="707.5,-19.25 504,-19.25 504,0 707.5,0 707.5,-19.25"/>
<text text-anchor="middle" x="605.75" y="-5.75" font-family="Helvetica,sans-Serif" font-size="10.00">TMC2208Stepper::preReadCommunication</text>
</a>
</g>
</g>
<!-- Node3&#45;&gt;Node10 -->
<g id="edge9_Node000003_Node000010" class="edge">
<title>Node3&#45;&gt;Node10</title>
<g id="a_edge9_Node000003_Node000010"><a xlink:title=" ">
<path fill="none" stroke="#63b8ff" d="M427.75,-63.57C446.12,-53.34 476.24,-37.74 504,-28.62 511.3,-26.23 519,-24.1 526.76,-22.22"/>
<polygon fill="#63b8ff" stroke="#63b8ff" points="527.29,-25.69 536.26,-20.05 525.73,-18.86 527.29,-25.69"/>
</a>
</g>
</g>
<!-- Node5 -->
<g id="Node000005" class="node">
<title>Node5</title>
<g id="a_Node000005"><a xlink:href="class_t_m_c2208_stepper.html#aef33fe13c1d9c19e9ec9abc159147a5d" target="_top" xlink:title=" ">
<polygon fill="white" stroke="#666666" points="884.75,-179.25 748,-179.25 748,-160 884.75,-160 884.75,-179.25"/>
<text text-anchor="middle" x="816.38" y="-165.75" font-family="Helvetica,sans-Serif" font-size="10.00">TMC2208Stepper::available</text>
</a>
</g>
</g>
<!-- Node4&#45;&gt;Node5 -->
<g id="edge4_Node000004_Node000005" class="edge">
<title>Node4&#45;&gt;Node5</title>
<g id="a_edge4_Node000004_Node000005"><a xlink:title=" ">
<path fill="none" stroke="#63b8ff" d="M663.76,-142.74C689.52,-147.3 720.16,-152.74 747.13,-157.52"/>
<polygon fill="#63b8ff" stroke="#63b8ff" points="746.49,-160.96 756.95,-159.26 747.71,-154.07 746.49,-160.96"/>
</a>
</g>
</g>
<!-- Node6 -->
<g id="Node000006" class="node">
<title>Node6</title>
<g id="a_Node000006"><a xlink:href="class_t_m_c2208_stepper.html#a8214f87693050e222fc24be979f468e2" target="_top" xlink:title=" ">
<polygon fill="white" stroke="#666666" points="889.25,-142.25 743.5,-142.25 743.5,-123 889.25,-123 889.25,-142.25"/>
<text text-anchor="middle" x="816.38" y="-128.75" font-family="Helvetica,sans-Serif" font-size="10.00">TMC2208Stepper::serial_read</text>
</a>
</g>
</g>
<!-- Node4&#45;&gt;Node6 -->
<g id="edge5_Node000004_Node000006" class="edge">
<title>Node4&#45;&gt;Node6</title>
<g id="a_edge5_Node000004_Node000006"><a xlink:title=" ">
<path fill="none" stroke="#63b8ff" d="M689.8,-132.62C703.56,-132.62 717.84,-132.62 731.62,-132.62"/>
<polygon fill="#63b8ff" stroke="#63b8ff" points="731.54,-136.13 741.54,-132.63 731.54,-129.13 731.54,-136.13"/>
</a>
</g>
</g>
<!-- Node7 -->
<g id="Node000007" class="node">
<title>Node7</title>
<g id="a_Node000007"><a xlink:href="class_t_m_c2208_stepper.html#adb6243277ef84d2027b2b8bae6be5bd0" target="_top" xlink:title=" ">
<polygon fill="white" stroke="#666666" points="877.25,-104.88 755.5,-104.88 755.5,-74.38 877.25,-74.38 877.25,-104.88"/>
<text text-anchor="start" x="763.5" y="-91.38" font-family="Helvetica,sans-Serif" font-size="10.00">TMC2208Stepper::serial</text>
<text text-anchor="middle" x="816.38" y="-80.12" font-family="Helvetica,sans-Serif" font-size="10.00">_write</text>
</a>
</g>
</g>
<!-- Node4&#45;&gt;Node7 -->
<g id="edge6_Node000004_Node000007" class="edge">
<title>Node4&#45;&gt;Node7</title>
<g id="a_edge6_Node000004_Node000007"><a xlink:title=" ">
<path fill="none" stroke="#63b8ff" d="M666.25,-122.51C679.83,-120.06 694.18,-117.36 707.5,-114.62 719.32,-112.2 731.84,-109.46 743.99,-106.71"/>
<polygon fill="#63b8ff" stroke="#63b8ff" points="744.57,-110.16 753.54,-104.52 743.01,-103.34 744.57,-110.16"/>
</a>
</g>
</g>
</g>
</svg>
