<?xml version="1.0" encoding="UTF-8" standalone="no"?>
<!DOCTYPE svg PUBLIC "-//W3C//DTD SVG 1.1//EN"
 "http://www.w3.org/Graphics/SVG/1.1/DTD/svg11.dtd">
<!-- Generated by graphviz version 12.2.1 (20241206.2353)
 -->
<!-- Title: TMC2240Stepper::cs2rms Pages: 1 -->
<svg width="441pt" height="39pt"
 viewBox="0.00 0.00 440.75 38.50" xmlns="http://www.w3.org/2000/svg" xmlns:xlink="http://www.w3.org/1999/xlink">
<g id="graph0" class="graph" transform="scale(1 1) rotate(0) translate(4 34.5)">
<title>TMC2240Stepper::cs2rms</title>
<!-- Node1 -->
<g id="Node000001" class="node">
<title>Node1</title>
<g id="a_Node000001"><a xlink:title=" ">
<polygon fill="#999999" stroke="#666666" points="432.75,-24.88 302,-24.88 302,-5.63 432.75,-5.63 432.75,-24.88"/>
<text text-anchor="middle" x="367.38" y="-11.38" font-family="Helvetica,sans-Serif" font-size="10.00">TMC2240Stepper::cs2rms</text>
</a>
</g>
</g>
<!-- Node2 -->
<g id="Node000002" class="node">
<title>Node2</title>
<g id="a_Node000002"><a xlink:href="class_t_m_c2240_stepper.html#a3e82f48545681b406fd103bd84f29e54" target="_top" xlink:title=" ">
<polygon fill="white" stroke="#666666" points="266,-30.5 151,-30.5 151,0 266,0 266,-30.5"/>
<text text-anchor="start" x="159" y="-17" font-family="Helvetica,sans-Serif" font-size="10.00">TMC2240Stepper::rms</text>
<text text-anchor="middle" x="208.5" y="-5.75" font-family="Helvetica,sans-Serif" font-size="10.00">_current</text>
</a>
</g>
</g>
<!-- Node1&#45;&gt;Node2 -->
<g id="edge1_Node000001_Node000002" class="edge">
<title>Node1&#45;&gt;Node2</title>
<g id="a_edge1_Node000001_Node000002"><a xlink:title=" ">
<path fill="none" stroke="#63b8ff" d="M290.21,-15.25C282.07,-15.25 273.9,-15.25 266.05,-15.25"/>
<polygon fill="#63b8ff" stroke="#63b8ff" points="290.15,-18.75 300.15,-15.25 290.15,-11.75 290.15,-18.75"/>
</a>
</g>
</g>
<!-- Node3 -->
<g id="Node000003" class="node">
<title>Node3</title>
<g id="a_Node000003"><a xlink:href="class_t_m_c2240_stepper.html#a54d1fadff69efefc479037e61a0052ee" target="_top" xlink:title=" ">
<polygon fill="white" stroke="#666666" points="115,-30.5 0,-30.5 0,0 115,0 115,-30.5"/>
<text text-anchor="start" x="8" y="-17" font-family="Helvetica,sans-Serif" font-size="10.00">TMC2240Stepper::rms</text>
<text text-anchor="middle" x="57.5" y="-5.75" font-family="Helvetica,sans-Serif" font-size="10.00">_current</text>
</a>
</g>
</g>
<!-- Node2&#45;&gt;Node3 -->
<g id="edge2_Node000002_Node000003" class="edge">
<title>Node2&#45;&gt;Node3</title>
<g id="a_edge2_Node000002_Node000003"><a xlink:title=" ">
<path fill="none" stroke="#63b8ff" d="M139.37,-15.25C131.25,-15.25 123.03,-15.25 115.1,-15.25"/>
<polygon fill="#63b8ff" stroke="#63b8ff" points="139.23,-18.75 149.23,-15.25 139.23,-11.75 139.23,-18.75"/>
</a>
</g>
</g>
</g>
</svg>
