<?xml version="1.0" encoding="UTF-8" standalone="no"?>
<!DOCTYPE svg PUBLIC "-//W3C//DTD SVG 1.1//EN"
 "http://www.w3.org/Graphics/SVG/1.1/DTD/svg11.dtd">
<!-- Generated by graphviz version 12.2.1 (20241206.2353)
 -->
<!-- Title: TMC2240Stepper::SG4_THRS Pages: 1 -->
<svg width="334pt" height="76pt"
 viewBox="0.00 0.00 334.00 75.88" xmlns="http://www.w3.org/2000/svg" xmlns:xlink="http://www.w3.org/1999/xlink">
<g id="graph0" class="graph" transform="scale(1 1) rotate(0) translate(4 71.88)">
<title>TMC2240Stepper::SG4_THRS</title>
<!-- Node1 -->
<g id="Node000001" class="node">
<title>Node1</title>
<g id="a_Node000001"><a xlink:title=" ">
<polygon fill="#999999" stroke="#666666" points="326,-40.25 175,-40.25 175,-21 326,-21 326,-40.25"/>
<text text-anchor="middle" x="250.5" y="-26.75" font-family="Helvetica,sans-Serif" font-size="10.00">TMC2240Stepper::SG4_THRS</text>
</a>
</g>
</g>
<!-- Node2 -->
<g id="Node000002" class="node">
<title>Node2</title>
<g id="a_Node000002"><a xlink:href="class_t_m_c2240_stepper.html#a1baa63b8ac815ba2601d591c8fd4b710" target="_top" xlink:title=" ">
<polygon fill="white" stroke="#666666" points="139,-67.88 0,-67.88 0,-37.38 139,-37.38 139,-67.88"/>
<text text-anchor="start" x="8" y="-54.38" font-family="Helvetica,sans-Serif" font-size="10.00">TMC2240Stepper::INIT2240</text>
<text text-anchor="middle" x="69.5" y="-43.12" font-family="Helvetica,sans-Serif" font-size="10.00">_REGISTER</text>
</a>
</g>
</g>
<!-- Node1&#45;&gt;Node2 -->
<g id="edge1_Node000001_Node000002" class="edge">
<title>Node1&#45;&gt;Node2</title>
<g id="a_edge1_Node000001_Node000002"><a xlink:title=" ">
<path fill="none" stroke="#63b8ff" d="M163.32,-41.22C155.28,-42.21 147.21,-43.2 139.36,-44.16"/>
<polygon fill="#63b8ff" stroke="#63b8ff" points="163.62,-44.71 173.12,-40.01 162.77,-37.76 163.62,-44.71"/>
</a>
</g>
</g>
<!-- Node3 -->
<g id="Node000003" class="node">
<title>Node3</title>
<g id="a_Node000003"><a xlink:href="class_t_m_c2240_stepper.html#ad3dceab3734fad6678234e177bca6c11" target="_top" xlink:title=" ">
<polygon fill="white" stroke="#666666" points="129.25,-19.25 9.75,-19.25 9.75,0 129.25,0 129.25,-19.25"/>
<text text-anchor="middle" x="69.5" y="-5.75" font-family="Helvetica,sans-Serif" font-size="10.00">TMC2240Stepper::push</text>
</a>
</g>
</g>
<!-- Node1&#45;&gt;Node3 -->
<g id="edge2_Node000001_Node000003" class="edge">
<title>Node1&#45;&gt;Node3</title>
<g id="a_edge2_Node000001_Node000003"><a xlink:title=" ">
<path fill="none" stroke="#63b8ff" d="M163.27,-20.51C151.86,-19.17 140.37,-17.82 129.56,-16.55"/>
<polygon fill="#63b8ff" stroke="#63b8ff" points="162.78,-23.98 173.12,-21.66 163.6,-17.02 162.78,-23.98"/>
</a>
</g>
</g>
</g>
</svg>
