<?xml version="1.0" encoding="UTF-8" standalone="no"?>
<!DOCTYPE svg PUBLIC "-//W3C//DTD SVG 1.1//EN"
 "http://www.w3.org/Graphics/SVG/1.1/DTD/svg11.dtd">
<!-- Generated by graphviz version 12.2.1 (20241206.2353)
 -->
<!-- Title: TMC2660Stepper::microsteps Pages: 1 -->
<svg width="780pt" height="64pt"
 viewBox="0.00 0.00 779.50 64.25" xmlns="http://www.w3.org/2000/svg" xmlns:xlink="http://www.w3.org/1999/xlink">
<g id="graph0" class="graph" transform="scale(1 1) rotate(0) translate(4 60.25)">
<title>TMC2660Stepper::microsteps</title>
<!-- Node1 -->
<g id="Node000001" class="node">
<title>Node1</title>
<g id="a_Node000001"><a xlink:title=" ">
<polygon fill="#999999" stroke="#666666" points="146.5,-19.25 0,-19.25 0,0 146.5,0 146.5,-19.25"/>
<text text-anchor="middle" x="73.25" y="-5.75" font-family="Helvetica,sans-Serif" font-size="10.00">TMC2660Stepper::microsteps</text>
</a>
</g>
</g>
<!-- Node2 -->
<g id="Node000002" class="node">
<title>Node2</title>
<g id="a_Node000002"><a xlink:href="class_t_m_c2660_stepper.html#a90c921e4f637bb688c5fadf491ee6f44" target="_top" xlink:title=" ">
<polygon fill="white" stroke="#666666" points="302.75,-19.25 182.5,-19.25 182.5,0 302.75,0 302.75,-19.25"/>
<text text-anchor="middle" x="242.62" y="-5.75" font-family="Helvetica,sans-Serif" font-size="10.00">TMC2660Stepper::mres</text>
</a>
</g>
</g>
<!-- Node1&#45;&gt;Node2 -->
<g id="edge1_Node000001_Node000002" class="edge">
<title>Node1&#45;&gt;Node2</title>
<g id="a_edge1_Node000001_Node000002"><a xlink:title=" ">
<path fill="none" stroke="#63b8ff" d="M146.69,-9.62C154.64,-9.62 162.74,-9.62 170.67,-9.62"/>
<polygon fill="#63b8ff" stroke="#63b8ff" points="170.64,-13.13 180.64,-9.63 170.64,-6.13 170.64,-13.13"/>
</a>
</g>
</g>
<!-- Node3 -->
<g id="Node000003" class="node">
<title>Node3</title>
<g id="a_Node000003"><a xlink:href="class_t_m_c2660_stepper.html#a5d9b27273ae12ef452caf6552d5c6d7c" target="_top" xlink:title=" ">
<polygon fill="white" stroke="#666666" points="459,-38.25 338.75,-38.25 338.75,-19 459,-19 459,-38.25"/>
<text text-anchor="middle" x="398.88" y="-24.75" font-family="Helvetica,sans-Serif" font-size="10.00">TMC2660Stepper::mres</text>
</a>
</g>
</g>
<!-- Node2&#45;&gt;Node3 -->
<g id="edge2_Node000002_Node000003" class="edge">
<title>Node2&#45;&gt;Node3</title>
<g id="a_edge2_Node000002_Node000003"><a xlink:title=" ">
<path fill="none" stroke="#63b8ff" d="M302.82,-16.92C310.73,-17.89 318.91,-18.9 327,-19.89"/>
<polygon fill="#63b8ff" stroke="#63b8ff" points="326.47,-23.36 336.83,-21.11 327.33,-16.41 326.47,-23.36"/>
</a>
</g>
</g>
<!-- Node4 -->
<g id="Node000004" class="node">
<title>Node4</title>
<g id="a_Node000004"><a xlink:href="class_t_m_c2660_stepper.html#aa20df51be5967e40cc23132a1d461275" target="_top" xlink:title=" ">
<polygon fill="white" stroke="#666666" points="615.25,-19.25 495,-19.25 495,0 615.25,0 615.25,-19.25"/>
<text text-anchor="middle" x="555.12" y="-5.75" font-family="Helvetica,sans-Serif" font-size="10.00">TMC2660Stepper::sdoff</text>
</a>
</g>
</g>
<!-- Node2&#45;&gt;Node4 -->
<g id="edge7_Node000002_Node000004" class="edge">
<title>Node2&#45;&gt;Node4</title>
<g id="a_edge7_Node000002_Node000004"><a xlink:title=" ">
<path fill="none" stroke="#63b8ff" d="M303.13,-9.62C354.5,-9.62 428.82,-9.62 483.26,-9.62"/>
<polygon fill="#63b8ff" stroke="#63b8ff" points="483.05,-13.13 493.05,-9.63 483.05,-6.13 483.05,-13.13"/>
</a>
</g>
</g>
<!-- Node3&#45;&gt;Node3 -->
<g id="edge3_Node000003_Node000003" class="edge">
<title>Node3&#45;&gt;Node3</title>
<g id="a_edge3_Node000003_Node000003"><a xlink:title=" ">
<path fill="none" stroke="#63b8ff" d="M374.41,-38.54C363.26,-47.15 371.41,-56.25 398.88,-56.25 414.32,-56.25 423.66,-53.37 426.89,-49.32"/>
<polygon fill="#63b8ff" stroke="#63b8ff" points="430.27,-48.38 423.81,-39.98 423.62,-50.57 430.27,-48.38"/>
</a>
</g>
</g>
<!-- Node3&#45;&gt;Node4 -->
<g id="edge4_Node000003_Node000004" class="edge">
<title>Node3&#45;&gt;Node4</title>
<g id="a_edge4_Node000003_Node000004"><a xlink:title=" ">
<path fill="none" stroke="#63b8ff" d="M459.07,-21.33C466.98,-20.36 475.16,-19.35 483.25,-18.36"/>
<polygon fill="#63b8ff" stroke="#63b8ff" points="483.58,-21.84 493.08,-17.14 482.72,-14.89 483.58,-21.84"/>
</a>
</g>
</g>
<!-- Node5 -->
<g id="Node000005" class="node">
<title>Node5</title>
<g id="a_Node000005"><a xlink:href="class_t_m_c2660_stepper.html#af6b9772d151924e000c051ecff34d313" target="_top" xlink:title=" ">
<polygon fill="white" stroke="#666666" points="771.5,-19.25 651.25,-19.25 651.25,0 771.5,0 771.5,-19.25"/>
<text text-anchor="middle" x="711.38" y="-5.75" font-family="Helvetica,sans-Serif" font-size="10.00">TMC2660Stepper::sdoff</text>
</a>
</g>
</g>
<!-- Node4&#45;&gt;Node5 -->
<g id="edge5_Node000004_Node000005" class="edge">
<title>Node4&#45;&gt;Node5</title>
<g id="a_edge5_Node000004_Node000005"><a xlink:title=" ">
<path fill="none" stroke="#63b8ff" d="M615.32,-9.62C623.23,-9.62 631.41,-9.62 639.5,-9.62"/>
<polygon fill="#63b8ff" stroke="#63b8ff" points="639.31,-13.13 649.31,-9.63 639.31,-6.13 639.31,-13.13"/>
</a>
</g>
</g>
<!-- Node5&#45;&gt;Node5 -->
<g id="edge6_Node000005_Node000005" class="edge">
<title>Node5&#45;&gt;Node5</title>
<g id="a_edge6_Node000005_Node000005"><a xlink:title=" ">
<path fill="none" stroke="#63b8ff" d="M686.91,-19.54C675.76,-28.15 683.91,-37.25 711.38,-37.25 726.82,-37.25 736.16,-34.37 739.39,-30.32"/>
<polygon fill="#63b8ff" stroke="#63b8ff" points="742.77,-29.38 736.31,-20.98 736.12,-31.57 742.77,-29.38"/>
</a>
</g>
</g>
</g>
</svg>
