<?xml version="1.0" encoding="UTF-8" standalone="no"?>
<!DOCTYPE svg PUBLIC "-//W3C//DTD SVG 1.1//EN"
 "http://www.w3.org/Graphics/SVG/1.1/DTD/svg11.dtd">
<!-- Generated by graphviz version 12.2.1 (20241206.2353)
 -->
<!-- Title: TMC2130Stepper::TMC2130Stepper Pages: 1 -->
<!--zoomable 101 -->

<svg id="main" version="1.1" xmlns="http://www.w3.org/2000/svg" xmlns:xlink="http://www.w3.org/1999/xlink" xml:space="preserve" onload="init(evt)">

<style type="text/css"><![CDATA[
.node, .edge {opacity: 0.7;}
.node.selected, .edge.selected {opacity: 1;}
.edge:hover path { stroke: red; }
.edge:hover polygon { stroke: red; fill: red; }
]]></style>

<defs>
  <circle id="rim" cx="0" cy="0" r="7"/>
  <circle id="rim2" cx="0" cy="0" r="3.5"/>
  <g id="zoomPlus">
    <use xlink:href="#rim" fill="#404040"><set attributeName="fill" to="#808080" begin="zoomplus.mouseover" end="zoomplus.mouseout"/></use>
    <path d="M-4,0h8M0,-4v8" fill="none" stroke="white" stroke-width="1.5" pointer-events="none"/>
  </g>
  <g id="zoomMin">
    <use xlink:href="#rim" fill="#404040"><set attributeName="fill" to="#808080" begin="zoomminus.mouseover" end="zoomminus.mouseout"/></use>
    <path d="M-4,0h8" fill="none" stroke="white" stroke-width="1.5" pointer-events="none"/>
  </g>
  <g id="arrowUp" transform="translate(30 24)">
    <use xlink:href="#rim"/>
    <path pointer-events="none" fill="none" stroke="white" stroke-width="1.5" d="M0,-3.0v7 M-2.5,-0.5L0,-3.0L2.5,-0.5"/>
  </g>
  <g id="arrowRight" transform="rotate(90) translate(36 -43)">
    <use xlink:href="#rim"/>
    <path pointer-events="none" fill="none" stroke="white" stroke-width="1.5" d="M0,-3.0v7 M-2.5,-0.5L0,-3.0L2.5,-0.5"/>
  </g>
  <g id="arrowDown" transform="rotate(180) translate(-30 -48)">
    <use xlink:href="#rim"/>
    <path pointer-events="none" fill="none" stroke="white" stroke-width="1.5" d="M0,-3.0v7 M-2.5,-0.5L0,-3.0L2.5,-0.5"/>
  </g>
  <g id="arrowLeft" transform="rotate(270) translate(-36 17)">
    <use xlink:href="#rim"/>
    <path pointer-events="none" fill="none" stroke="white" stroke-width="1.5" d="M0,-3.0v7 M-2.5,-0.5L0,-3.0L2.5,-0.5"/>
  </g>
  <g id="resetDef">
    <use xlink:href="#rim2" fill="#404040"><set attributeName="fill" to="#808080" begin="reset.mouseover" end="reset.mouseout"/></use>
  </g>
</defs>
<script type="application/ecmascript">
var viewWidth = 1027;
var viewHeight = 101;
var sectionId = 'dynsection-3';
</script>
<script type="application/ecmascript" xlink:href="svg.min.js"/>
<svg id="graph" class="graph">
<g id="viewport">
<title>TMC2130Stepper::TMC2130Stepper</title>
<!-- Node1 -->
<g id="Node000001" class="node">
<title>Node1</title>
<g id="a_Node000001"><a xlink:title=" ">
<polygon fill="#999999" stroke="#666666" points="1019,-56.25 844,-56.25 844,-37 1019,-37 1019,-56.25"/>
<text text-anchor="middle" x="931.5" y="-42.75" font-family="Helvetica,sans-Serif" font-size="10.00">TMC2130Stepper::TMC2130Stepper</text>
</a>
</g>
</g>
<!-- Node2 -->
<g id="Node000002" class="node">
<title>Node2</title>
<g id="a_Node000002"><a xlink:href="class_t_m_c2160_stepper.html#ad08024cd60ea809df87695cf797095c4" target="_top" xlink:title=" ">
<polygon fill="white" stroke="#666666" points="808,-93.25 633,-93.25 633,-74 808,-74 808,-93.25"/>
<text text-anchor="middle" x="720.5" y="-79.75" font-family="Helvetica,sans-Serif" font-size="10.00">TMC2160Stepper::TMC2160Stepper</text>
</a>
</g>
</g>
<!-- Node1&#45;&gt;Node2 -->
<g id="edge1_Node000001_Node000002" class="edge">
<title>Node1&#45;&gt;Node2</title>
<g id="a_edge1_Node000001_Node000002"><a xlink:title=" ">
<path fill="none" stroke="#63b8ff" d="M862.06,-58.74C835.03,-63.53 804.34,-68.96 778.54,-73.53"/>
<polygon fill="#63b8ff" stroke="#63b8ff" points="862.66,-62.19 871.9,-57 861.44,-55.3 862.66,-62.19"/>
</a>
</g>
</g>
<!-- Node3 -->
<g id="Node000003" class="node">
<title>Node3</title>
<g id="a_Node000003"><a xlink:href="class_t_m_c2160_stepper.html#a4ba0721dce0f73b4438c497b27263543" target="_top" xlink:title=" ">
<polygon fill="white" stroke="#666666" points="808,-56.25 633,-56.25 633,-37 808,-37 808,-56.25"/>
<text text-anchor="middle" x="720.5" y="-42.75" font-family="Helvetica,sans-Serif" font-size="10.00">TMC2160Stepper::TMC2160Stepper</text>
</a>
</g>
</g>
<!-- Node1&#45;&gt;Node3 -->
<g id="edge2_Node000001_Node000003" class="edge">
<title>Node1&#45;&gt;Node3</title>
<g id="a_edge2_Node000001_Node000003"><a xlink:title=" ">
<path fill="none" stroke="#63b8ff" d="M832.4,-46.62C824.38,-46.62 816.31,-46.62 808.39,-46.62"/>
<polygon fill="#63b8ff" stroke="#63b8ff" points="832.17,-50.13 842.17,-46.63 832.17,-43.13 832.17,-50.13"/>
</a>
</g>
</g>
<!-- Node13 -->
<g id="Node000013" class="node">
<title>Node13</title>
<g id="a_Node000013"><a xlink:href="class_t_m_c2160_stepper.html#a0c84e1242e09dfc863987c5370a6aaf4" target="_top" xlink:title=" ">
<polygon fill="white" stroke="#666666" points="808,-19.25 633,-19.25 633,0 808,0 808,-19.25"/>
<text text-anchor="middle" x="720.5" y="-5.75" font-family="Helvetica,sans-Serif" font-size="10.00">TMC2160Stepper::TMC2160Stepper</text>
</a>
</g>
</g>
<!-- Node1&#45;&gt;Node13 -->
<g id="edge12_Node000001_Node000013" class="edge">
<title>Node1&#45;&gt;Node13</title>
<g id="a_edge12_Node000001_Node000013"><a xlink:title=" ">
<path fill="none" stroke="#63b8ff" d="M862.06,-34.51C835.03,-29.72 804.34,-24.29 778.54,-19.72"/>
<polygon fill="#63b8ff" stroke="#63b8ff" points="861.44,-37.95 871.9,-36.25 862.66,-31.06 861.44,-37.95"/>
</a>
</g>
</g>
<!-- Node4 -->
<g id="Node000004" class="node">
<title>Node4</title>
<g id="a_Node000004"><a xlink:href="class_t_m_c5130_stepper.html#a86041a5ec3fcc8df393a5aff0ea9bed3" target="_top" xlink:title=" ">
<polygon fill="white" stroke="#666666" points="597,-93.25 422,-93.25 422,-74 597,-74 597,-93.25"/>
<text text-anchor="middle" x="509.5" y="-79.75" font-family="Helvetica,sans-Serif" font-size="10.00">TMC5130Stepper::TMC5130Stepper</text>
</a>
</g>
</g>
<!-- Node3&#45;&gt;Node4 -->
<g id="edge3_Node000003_Node000004" class="edge">
<title>Node3&#45;&gt;Node4</title>
<g id="a_edge3_Node000003_Node000004"><a xlink:title=" ">
<path fill="none" stroke="#63b8ff" d="M651.06,-58.74C624.03,-63.53 593.34,-68.96 567.54,-73.53"/>
<polygon fill="#63b8ff" stroke="#63b8ff" points="651.66,-62.19 660.9,-57 650.44,-55.3 651.66,-62.19"/>
</a>
</g>
</g>
<!-- Node5 -->
<g id="Node000005" class="node">
<title>Node5</title>
<g id="a_Node000005"><a xlink:href="class_t_m_c5130_stepper.html#a088aeda9ef66db632a4ede6ce0ac98b4" target="_top" xlink:title=" ">
<polygon fill="white" stroke="#666666" points="597,-56.25 422,-56.25 422,-37 597,-37 597,-56.25"/>
<text text-anchor="middle" x="509.5" y="-42.75" font-family="Helvetica,sans-Serif" font-size="10.00">TMC5130Stepper::TMC5130Stepper</text>
</a>
</g>
</g>
<!-- Node3&#45;&gt;Node5 -->
<g id="edge4_Node000003_Node000005" class="edge">
<title>Node3&#45;&gt;Node5</title>
<g id="a_edge4_Node000003_Node000005"><a xlink:title=" ">
<path fill="none" stroke="#63b8ff" d="M621.4,-46.62C613.38,-46.62 605.31,-46.62 597.39,-46.62"/>
<polygon fill="#63b8ff" stroke="#63b8ff" points="621.17,-50.13 631.17,-46.63 621.17,-43.13 621.17,-50.13"/>
</a>
</g>
</g>
<!-- Node12 -->
<g id="Node000012" class="node">
<title>Node12</title>
<g id="a_Node000012"><a xlink:href="class_t_m_c5130_stepper.html#a241f9457df1035801b9466232b635408" target="_top" xlink:title=" ">
<polygon fill="white" stroke="#666666" points="597,-19.25 422,-19.25 422,0 597,0 597,-19.25"/>
<text text-anchor="middle" x="509.5" y="-5.75" font-family="Helvetica,sans-Serif" font-size="10.00">TMC5130Stepper::TMC5130Stepper</text>
</a>
</g>
</g>
<!-- Node3&#45;&gt;Node12 -->
<g id="edge11_Node000003_Node000012" class="edge">
<title>Node3&#45;&gt;Node12</title>
<g id="a_edge11_Node000003_Node000012"><a xlink:title=" ">
<path fill="none" stroke="#63b8ff" d="M651.06,-34.51C624.03,-29.72 593.34,-24.29 567.54,-19.72"/>
<polygon fill="#63b8ff" stroke="#63b8ff" points="650.44,-37.95 660.9,-36.25 651.66,-31.06 650.44,-37.95"/>
</a>
</g>
</g>
<!-- Node6 -->
<g id="Node000006" class="node">
<title>Node6</title>
<g id="a_Node000006"><a xlink:href="class_t_m_c5160_stepper.html#ad0f698ae6d90619b534685d0ef53ffc9" target="_top" xlink:title=" ">
<polygon fill="white" stroke="#666666" points="386,-93.25 211,-93.25 211,-74 386,-74 386,-93.25"/>
<text text-anchor="middle" x="298.5" y="-79.75" font-family="Helvetica,sans-Serif" font-size="10.00">TMC5160Stepper::TMC5160Stepper</text>
</a>
</g>
</g>
<!-- Node5&#45;&gt;Node6 -->
<g id="edge5_Node000005_Node000006" class="edge">
<title>Node5&#45;&gt;Node6</title>
<g id="a_edge5_Node000005_Node000006"><a xlink:title=" ">
<path fill="none" stroke="#63b8ff" d="M440.06,-58.74C413.03,-63.53 382.34,-68.96 356.54,-73.53"/>
<polygon fill="#63b8ff" stroke="#63b8ff" points="440.66,-62.19 449.9,-57 439.44,-55.3 440.66,-62.19"/>
</a>
</g>
</g>
<!-- Node7 -->
<g id="Node000007" class="node">
<title>Node7</title>
<g id="a_Node000007"><a xlink:href="class_t_m_c5160_stepper.html#a6bac7c5223645da8e54aca6ff9ad700f" target="_top" xlink:title=" ">
<polygon fill="white" stroke="#666666" points="386,-56.25 211,-56.25 211,-37 386,-37 386,-56.25"/>
<text text-anchor="middle" x="298.5" y="-42.75" font-family="Helvetica,sans-Serif" font-size="10.00">TMC5160Stepper::TMC5160Stepper</text>
</a>
</g>
</g>
<!-- Node5&#45;&gt;Node7 -->
<g id="edge6_Node000005_Node000007" class="edge">
<title>Node5&#45;&gt;Node7</title>
<g id="a_edge6_Node000005_Node000007"><a xlink:title=" ">
<path fill="none" stroke="#63b8ff" d="M410.4,-46.62C402.38,-46.62 394.31,-46.62 386.39,-46.62"/>
<polygon fill="#63b8ff" stroke="#63b8ff" points="410.17,-50.13 420.17,-46.63 410.17,-43.13 410.17,-50.13"/>
</a>
</g>
</g>
<!-- Node11 -->
<g id="Node000011" class="node">
<title>Node11</title>
<g id="a_Node000011"><a xlink:href="class_t_m_c5160_stepper.html#a755dbd24ac852cede5f84fee827cc5dd" target="_top" xlink:title=" ">
<polygon fill="white" stroke="#666666" points="386,-19.25 211,-19.25 211,0 386,0 386,-19.25"/>
<text text-anchor="middle" x="298.5" y="-5.75" font-family="Helvetica,sans-Serif" font-size="10.00">TMC5160Stepper::TMC5160Stepper</text>
</a>
</g>
</g>
<!-- Node5&#45;&gt;Node11 -->
<g id="edge10_Node000005_Node000011" class="edge">
<title>Node5&#45;&gt;Node11</title>
<g id="a_edge10_Node000005_Node000011"><a xlink:title=" ">
<path fill="none" stroke="#63b8ff" d="M440.06,-34.51C413.03,-29.72 382.34,-24.29 356.54,-19.72"/>
<polygon fill="#63b8ff" stroke="#63b8ff" points="439.44,-37.95 449.9,-36.25 440.66,-31.06 439.44,-37.95"/>
</a>
</g>
</g>
<!-- Node8 -->
<g id="Node000008" class="node">
<title>Node8</title>
<g id="a_Node000008"><a xlink:href="class_t_m_c5161_stepper.html#a5ad0292bfabaf69e4bbd1b7569bf3967" target="_top" xlink:title=" ">
<polygon fill="white" stroke="#666666" points="175,-93.25 0,-93.25 0,-74 175,-74 175,-93.25"/>
<text text-anchor="middle" x="87.5" y="-79.75" font-family="Helvetica,sans-Serif" font-size="10.00">TMC5161Stepper::TMC5161Stepper</text>
</a>
</g>
</g>
<!-- Node7&#45;&gt;Node8 -->
<g id="edge7_Node000007_Node000008" class="edge">
<title>Node7&#45;&gt;Node8</title>
<g id="a_edge7_Node000007_Node000008"><a xlink:title=" ">
<path fill="none" stroke="#63b8ff" d="M229.06,-58.74C202.03,-63.53 171.34,-68.96 145.54,-73.53"/>
<polygon fill="#63b8ff" stroke="#63b8ff" points="229.66,-62.19 238.9,-57 228.44,-55.3 229.66,-62.19"/>
</a>
</g>
</g>
<!-- Node9 -->
<g id="Node000009" class="node">
<title>Node9</title>
<g id="a_Node000009"><a xlink:href="class_t_m_c5161_stepper.html#afff5eba2e407c3bc1ad9aabdbcffeb9f" target="_top" xlink:title=" ">
<polygon fill="white" stroke="#666666" points="175,-56.25 0,-56.25 0,-37 175,-37 175,-56.25"/>
<text text-anchor="middle" x="87.5" y="-42.75" font-family="Helvetica,sans-Serif" font-size="10.00">TMC5161Stepper::TMC5161Stepper</text>
</a>
</g>
</g>
<!-- Node7&#45;&gt;Node9 -->
<g id="edge8_Node000007_Node000009" class="edge">
<title>Node7&#45;&gt;Node9</title>
<g id="a_edge8_Node000007_Node000009"><a xlink:title=" ">
<path fill="none" stroke="#63b8ff" d="M199.4,-46.62C191.38,-46.62 183.31,-46.62 175.39,-46.62"/>
<polygon fill="#63b8ff" stroke="#63b8ff" points="199.17,-50.13 209.17,-46.63 199.17,-43.13 199.17,-50.13"/>
</a>
</g>
</g>
<!-- Node10 -->
<g id="Node000010" class="node">
<title>Node10</title>
<g id="a_Node000010"><a xlink:href="class_t_m_c5161_stepper.html#a67797469ad054e42ec6086b37b81fbdd" target="_top" xlink:title=" ">
<polygon fill="white" stroke="#666666" points="175,-19.25 0,-19.25 0,0 175,0 175,-19.25"/>
<text text-anchor="middle" x="87.5" y="-5.75" font-family="Helvetica,sans-Serif" font-size="10.00">TMC5161Stepper::TMC5161Stepper</text>
</a>
</g>
</g>
<!-- Node7&#45;&gt;Node10 -->
<g id="edge9_Node000007_Node000010" class="edge">
<title>Node7&#45;&gt;Node10</title>
<g id="a_edge9_Node000007_Node000010"><a xlink:title=" ">
<path fill="none" stroke="#63b8ff" d="M229.06,-34.51C202.03,-29.72 171.34,-24.29 145.54,-19.72"/>
<polygon fill="#63b8ff" stroke="#63b8ff" points="228.44,-37.95 238.9,-36.25 229.66,-31.06 228.44,-37.95"/>
</a>
</g>
</g>
</g>
</svg>

<g id="navigator" transform="translate(0 0)" fill="#404254">
  <rect fill="#f2f5e9" fill-opacity="0.5" stroke="#606060" stroke-width=".5" x="0" y="0" width="60" height="60"/>
  <use id="zoomplus" xlink:href="#zoomPlus" x="17" y="9" onmousedown="handleZoom(evt,'in')"/>
  <use id="zoomminus" xlink:href="#zoomMin" x="42" y="9" onmousedown="handleZoom(evt,'out')"/>
  <use id="reset" xlink:href="#resetDef" x="30" y="36" onmousedown="handleReset()"/>
   <use id="arrowup" xlink:href="#arrowUp" x="0" y="0" onmousedown="handlePan(0,-1)"/>
  <use id="arrowright" xlink:href="#arrowRight" x="0" y="0" onmousedown="handlePan(1,0)"/>
  <use id="arrowdown" xlink:href="#arrowDown" x="0" y="0" onmousedown="handlePan(0,1)"/>
  <use id="arrowleft" xlink:href="#arrowLeft" x="0" y="0" onmousedown="handlePan(-1,0)"/>
</g>
<svg viewBox="0 0 15 15" width="100%" height="30px" preserveAspectRatio="xMaxYMin meet">
 <g id="arrow_out" transform="scale(0.3 0.3)">
  <a xlink:href="class_t_m_c2130_stepper_a5ba7c4f0262fc2715b47e33c2e419fea_icgraph_org.svg" target="_base">
   <rect id="button" ry="5" rx="5" y="6" x="6" height="38" width="38"
        fill="#f2f5e9" fill-opacity="0.5" stroke="#606060" stroke-width="1.0"/>
   <path id="arrow"
     d="M 11.500037,31.436501 C 11.940474,20.09759 22.043105,11.32322 32.158766,21.979434 L 37.068811,17.246167 C 37.068811,17.246167 37.088388,32 37.088388,32 L 22.160133,31.978069 C 22.160133,31.978069 26.997745,27.140456 26.997745,27.140456 C 18.528582,18.264221 13.291696,25.230495 11.500037,31.436501 z"
     style="fill:#404040;"/>
  </a>
 </g>
</svg>

<style type='text/css'>
<![CDATA[
[data-mouse-over-selected='false'] { opacity: 0.7; }
[data-mouse-over-selected='true']  { opacity: 1.0; }
]]>
</style>
<script type="application/ecmascript"><![CDATA[
document.addEventListener('DOMContentLoaded', (event) => {
  highlightEdges();
  highlightAdjacentNodes();
});
]]></script>
</svg>
