<?xml version="1.0" encoding="UTF-8" standalone="no"?>
<!DOCTYPE svg PUBLIC "-//W3C//DTD SVG 1.1//EN"
 "http://www.w3.org/Graphics/SVG/1.1/DTD/svg11.dtd">
<!-- Generated by graphviz version 12.2.1 (20241206.2353)
 -->
<!-- Title: TMC2660Stepper::rdsel Pages: 1 -->
<svg width="635pt" height="239pt"
 viewBox="0.00 0.00 634.50 238.88" xmlns="http://www.w3.org/2000/svg" xmlns:xlink="http://www.w3.org/1999/xlink">
<g id="graph0" class="graph" transform="scale(1 1) rotate(0) translate(4 234.88)">
<title>TMC2660Stepper::rdsel</title>
<!-- Node1 -->
<g id="Node000001" class="node">
<title>Node1</title>
<g id="a_Node000001"><a xlink:title=" ">
<polygon fill="#999999" stroke="#666666" points="626.5,-102.25 507,-102.25 507,-83 626.5,-83 626.5,-102.25"/>
<text text-anchor="middle" x="566.75" y="-88.75" font-family="Helvetica,sans-Serif" font-size="10.00">TMC2660Stepper::rdsel</text>
</a>
</g>
</g>
<!-- Node1&#45;&gt;Node1 -->
<g id="edge11_Node000001_Node000001" class="edge">
<title>Node1&#45;&gt;Node1</title>
<g id="a_edge11_Node000001_Node000001"><a xlink:title=" ">
<path fill="none" stroke="#63b8ff" d="M594.63,-113.32C591.42,-117.37 582.13,-120.25 566.75,-120.25 539.42,-120.25 531.3,-111.15 542.41,-102.54"/>
<polygon fill="#63b8ff" stroke="#63b8ff" points="598.01,-112.39 591.57,-103.98 591.36,-114.57 598.01,-112.39"/>
</a>
</g>
</g>
<!-- Node2 -->
<g id="Node000002" class="node">
<title>Node2</title>
<g id="a_Node000002"><a xlink:href="class_t_m_c2660_stepper.html#a4fa131ecb1e0e0436abff079c44eee5b" target="_top" xlink:title=" ">
<polygon fill="white" stroke="#666666" points="471,-102.25 351.5,-102.25 351.5,-83 471,-83 471,-102.25"/>
<text text-anchor="middle" x="411.25" y="-88.75" font-family="Helvetica,sans-Serif" font-size="10.00">TMC2660Stepper::rdsel</text>
</a>
</g>
</g>
<!-- Node1&#45;&gt;Node2 -->
<g id="edge1_Node000001_Node000002" class="edge">
<title>Node1&#45;&gt;Node2</title>
<g id="a_edge1_Node000001_Node000002"><a xlink:title=" ">
<path fill="none" stroke="#63b8ff" d="M495.49,-92.62C487.39,-92.62 479.19,-92.62 471.25,-92.62"/>
<polygon fill="#63b8ff" stroke="#63b8ff" points="495.33,-96.13 505.33,-92.63 495.33,-89.13 495.33,-96.13"/>
</a>
</g>
</g>
<!-- Node3 -->
<g id="Node000003" class="node">
<title>Node3</title>
<g id="a_Node000003"><a xlink:href="class_t_m_c2660_stepper.html#a124bab76346c3c6c17f812e8c4ad7a5c" target="_top" xlink:title=" ">
<polygon fill="white" stroke="#666666" points="315.5,-173.25 156.25,-173.25 156.25,-154 315.5,-154 315.5,-173.25"/>
<text text-anchor="middle" x="235.88" y="-159.75" font-family="Helvetica,sans-Serif" font-size="10.00">TMC2660Stepper::DRVSTATUS</text>
</a>
</g>
</g>
<!-- Node2&#45;&gt;Node3 -->
<g id="edge2_Node000002_Node000003" class="edge">
<title>Node2&#45;&gt;Node3</title>
<g id="a_edge2_Node000002_Node000003"><a xlink:title=" ">
<path fill="none" stroke="#63b8ff" d="M378.22,-107.43C359.96,-115.72 336.59,-126.07 315.5,-134.62 299.05,-141.3 280.42,-148.2 265.43,-153.59"/>
<polygon fill="#63b8ff" stroke="#63b8ff" points="379.57,-110.66 387.21,-103.33 376.66,-104.3 379.57,-110.66"/>
</a>
</g>
</g>
<!-- Node5 -->
<g id="Node000005" class="node">
<title>Node5</title>
<g id="a_Node000005"><a xlink:href="class_t_m_c2660_stepper.html#a51f799cf592f8d9d50d110aaedfe141a" target="_top" xlink:title=" ">
<polygon fill="white" stroke="#666666" points="114.62,-132.88 5.62,-132.88 5.62,-102.38 114.62,-102.38 114.62,-132.88"/>
<text text-anchor="start" x="13.62" y="-119.38" font-family="Helvetica,sans-Serif" font-size="10.00">TMC2660Stepper::sg</text>
<text text-anchor="middle" x="60.12" y="-108.12" font-family="Helvetica,sans-Serif" font-size="10.00">_result</text>
</a>
</g>
</g>
<!-- Node2&#45;&gt;Node5 -->
<g id="edge10_Node000002_Node000005" class="edge">
<title>Node2&#45;&gt;Node5</title>
<g id="a_edge10_Node000002_Node000005"><a xlink:title=" ">
<path fill="none" stroke="#63b8ff" d="M339.69,-99.58C331.53,-100.31 323.34,-101.01 315.5,-101.62 246.24,-107.09 166.26,-111.87 114.76,-114.75"/>
<polygon fill="#63b8ff" stroke="#63b8ff" points="339.99,-103.06 349.63,-98.67 339.36,-96.09 339.99,-103.06"/>
</a>
</g>
</g>
<!-- Node7 -->
<g id="Node000007" class="node">
<title>Node7</title>
<g id="a_Node000007"><a xlink:href="class_t_m_c2660_stepper.html#a9be7b8e7d95c08ff349182ff09510124" target="_top" xlink:title=" ">
<polygon fill="white" stroke="#666666" points="298.62,-74.25 173.12,-74.25 173.12,-55 298.62,-55 298.62,-74.25"/>
<text text-anchor="middle" x="235.88" y="-60.75" font-family="Helvetica,sans-Serif" font-size="10.00">TMC2660Stepper::mstep</text>
</a>
</g>
</g>
<!-- Node2&#45;&gt;Node7 -->
<g id="edge6_Node000002_Node000007" class="edge">
<title>Node2&#45;&gt;Node7</title>
<g id="a_edge6_Node000002_Node000007"><a xlink:title=" ">
<path fill="none" stroke="#63b8ff" d="M339.87,-81.26C326.35,-79.08 312.28,-76.8 299.04,-74.66"/>
<polygon fill="#63b8ff" stroke="#63b8ff" points="339.14,-84.69 349.57,-82.83 340.26,-77.78 339.14,-84.69"/>
</a>
</g>
</g>
<!-- Node8 -->
<g id="Node000008" class="node">
<title>Node8</title>
<g id="a_Node000008"><a xlink:href="class_t_m_c2660_stepper.html#a9c6e8257f10b5e17c9f0fd4db36f022a" target="_top" xlink:title=" ">
<polygon fill="white" stroke="#666666" points="290.38,-19.25 181.38,-19.25 181.38,0 290.38,0 290.38,-19.25"/>
<text text-anchor="middle" x="235.88" y="-5.75" font-family="Helvetica,sans-Serif" font-size="10.00">TMC2660Stepper::se</text>
</a>
</g>
</g>
<!-- Node2&#45;&gt;Node8 -->
<g id="edge8_Node000002_Node000008" class="edge">
<title>Node2&#45;&gt;Node8</title>
<g id="a_edge8_Node000002_Node000008"><a xlink:title=" ">
<path fill="none" stroke="#63b8ff" d="M380.17,-77.41C361.6,-68.09 337.25,-56 315.5,-45.62 296.66,-36.64 275.1,-26.8 259.33,-19.68"/>
<polygon fill="#63b8ff" stroke="#63b8ff" points="378.52,-80.49 389.02,-81.86 381.66,-74.24 378.52,-80.49"/>
</a>
</g>
</g>
<!-- Node4 -->
<g id="Node000004" class="node">
<title>Node4</title>
<g id="a_Node000004"><a xlink:href="class_t_m_c2660_stepper.html#a560c825469ada7c23ec66a4106360e48" target="_top" xlink:title=" ">
<polygon fill="white" stroke="#666666" points="120.25,-230.88 0,-230.88 0,-200.38 120.25,-200.38 120.25,-230.88"/>
<text text-anchor="start" x="8" y="-217.38" font-family="Helvetica,sans-Serif" font-size="10.00">TMC2660Stepper::DRV</text>
<text text-anchor="middle" x="60.12" y="-206.12" font-family="Helvetica,sans-Serif" font-size="10.00">_STATUS</text>
</a>
</g>
</g>
<!-- Node3&#45;&gt;Node4 -->
<g id="edge3_Node000003_Node000004" class="edge">
<title>Node3&#45;&gt;Node4</title>
<g id="a_edge3_Node000003_Node000004"><a xlink:title=" ">
<path fill="none" stroke="#63b8ff" d="M190.37,-176.94C166.98,-183.95 138.15,-192.57 113.67,-199.9"/>
<polygon fill="#63b8ff" stroke="#63b8ff" points="191.35,-180.31 199.92,-174.09 189.34,-173.6 191.35,-180.31"/>
</a>
</g>
</g>
<!-- Node3&#45;&gt;Node5 -->
<g id="edge4_Node000003_Node000005" class="edge">
<title>Node3&#45;&gt;Node5</title>
<g id="a_edge4_Node000003_Node000005"><a xlink:title=" ">
<path fill="none" stroke="#63b8ff" d="M185.62,-150.59C163.58,-144.75 137.54,-137.86 114.98,-131.88"/>
<polygon fill="#63b8ff" stroke="#63b8ff" points="184.72,-153.97 195.28,-153.14 186.51,-147.2 184.72,-153.97"/>
</a>
</g>
</g>
<!-- Node6 -->
<g id="Node000006" class="node">
<title>Node6</title>
<g id="a_Node000006"><a xlink:href="class_t_m_c2660_stepper.html#a72a9a2ecf2d0707dba76de414cec209e" target="_top" xlink:title=" ">
<polygon fill="white" stroke="#666666" points="117.62,-181.88 2.62,-181.88 2.62,-151.38 117.62,-151.38 117.62,-181.88"/>
<text text-anchor="start" x="10.62" y="-168.38" font-family="Helvetica,sans-Serif" font-size="10.00">TMC2660Stepper::test</text>
<text text-anchor="middle" x="60.12" y="-157.12" font-family="Helvetica,sans-Serif" font-size="10.00">_connection</text>
</a>
</g>
</g>
<!-- Node3&#45;&gt;Node6 -->
<g id="edge5_Node000003_Node000006" class="edge">
<title>Node3&#45;&gt;Node6</title>
<g id="a_edge5_Node000003_Node000006"><a xlink:title=" ">
<path fill="none" stroke="#63b8ff" d="M144.51,-165.19C135.53,-165.34 126.61,-165.49 118.11,-165.64"/>
<polygon fill="#63b8ff" stroke="#63b8ff" points="144.43,-168.69 154.37,-165.02 144.31,-161.69 144.43,-168.69"/>
</a>
</g>
</g>
<!-- Node7&#45;&gt;Node7 -->
<g id="edge7_Node000007_Node000007" class="edge">
<title>Node7&#45;&gt;Node7</title>
<g id="a_edge7_Node000007_Node000007"><a xlink:title=" ">
<path fill="none" stroke="#63b8ff" d="M267.32,-85.32C263.7,-89.37 253.22,-92.25 235.88,-92.25 205.05,-92.25 195.9,-83.15 208.42,-74.54"/>
<polygon fill="#63b8ff" stroke="#63b8ff" points="270.61,-84.12 263.86,-75.96 264.05,-86.55 270.61,-84.12"/>
</a>
</g>
</g>
<!-- Node8&#45;&gt;Node8 -->
<g id="edge9_Node000008_Node000008" class="edge">
<title>Node8&#45;&gt;Node8</title>
<g id="a_edge9_Node000008_Node000008"><a xlink:title=" ">
<path fill="none" stroke="#63b8ff" d="M267.32,-30.32C263.7,-34.37 253.22,-37.25 235.88,-37.25 205.05,-37.25 195.9,-28.15 208.42,-19.54"/>
<polygon fill="#63b8ff" stroke="#63b8ff" points="270.61,-29.12 263.86,-20.96 264.05,-31.55 270.61,-29.12"/>
</a>
</g>
</g>
</g>
</svg>
