<?xml version="1.0" encoding="UTF-8" standalone="no"?>
<!DOCTYPE svg PUBLIC "-//W3C//DTD SVG 1.1//EN"
 "http://www.w3.org/Graphics/SVG/1.1/DTD/svg11.dtd">
<!-- Generated by graphviz version 12.2.1 (20241206.2353)
 -->
<!-- Title: TMC2160Stepper::bbmtime Pages: 1 -->
<svg width="316pt" height="45pt"
 viewBox="0.00 0.00 316.00 45.25" xmlns="http://www.w3.org/2000/svg" xmlns:xlink="http://www.w3.org/1999/xlink">
<g id="graph0" class="graph" transform="scale(1 1) rotate(0) translate(4 41.25)">
<title>TMC2160Stepper::bbmtime</title>
<!-- Node1 -->
<g id="Node000001" class="node">
<title>Node1</title>
<g id="a_Node000001"><a xlink:title=" ">
<polygon fill="#999999" stroke="#666666" points="308,-19.25 172,-19.25 172,0 308,0 308,-19.25"/>
<text text-anchor="middle" x="240" y="-5.75" font-family="Helvetica,sans-Serif" font-size="10.00">TMC2160Stepper::bbmtime</text>
</a>
</g>
</g>
<!-- Node1&#45;&gt;Node1 -->
<g id="edge2_Node000001_Node000001" class="edge">
<title>Node1&#45;&gt;Node1</title>
<g id="a_edge2_Node000001_Node000001"><a xlink:title=" ">
<path fill="none" stroke="#63b8ff" d="M270.84,-30.32C267.29,-34.37 257.01,-37.25 240,-37.25 209.77,-37.25 200.79,-28.15 213.07,-19.54"/>
<polygon fill="#63b8ff" stroke="#63b8ff" points="274.15,-29.17 267.44,-20.96 267.57,-31.55 274.15,-29.17"/>
</a>
</g>
</g>
<!-- Node2 -->
<g id="Node000002" class="node">
<title>Node2</title>
<g id="a_Node000002"><a xlink:href="class_t_m_c2160_stepper.html#a8b84fefe1e46353dc9dbf4130fdb90bb" target="_top" xlink:title=" ">
<polygon fill="white" stroke="#666666" points="136,-19.25 0,-19.25 0,0 136,0 136,-19.25"/>
<text text-anchor="middle" x="68" y="-5.75" font-family="Helvetica,sans-Serif" font-size="10.00">TMC2160Stepper::bbmtime</text>
</a>
</g>
</g>
<!-- Node1&#45;&gt;Node2 -->
<g id="edge1_Node000001_Node000002" class="edge">
<title>Node1&#45;&gt;Node2</title>
<g id="a_edge1_Node000001_Node000002"><a xlink:title=" ">
<path fill="none" stroke="#63b8ff" d="M160.46,-9.62C152.37,-9.62 144.21,-9.62 136.26,-9.62"/>
<polygon fill="#63b8ff" stroke="#63b8ff" points="160.3,-13.13 170.3,-9.63 160.3,-6.13 160.3,-13.13"/>
</a>
</g>
</g>
</g>
</svg>
