<?xml version="1.0" encoding="UTF-8" standalone="no"?>
<!DOCTYPE svg PUBLIC "-//W3C//DTD SVG 1.1//EN"
 "http://www.w3.org/Graphics/SVG/1.1/DTD/svg11.dtd">
<!-- Generated by graphviz version 12.2.1 (20241206.2353)
 -->
<!-- Title: TMCStepper::ihold Pages: 1 -->
<svg width="405pt" height="76pt"
 viewBox="0.00 0.00 404.75 75.88" xmlns="http://www.w3.org/2000/svg" xmlns:xlink="http://www.w3.org/1999/xlink">

<svg id="main" version="1.1" xmlns="http://www.w3.org/2000/svg" xmlns:xlink="http://www.w3.org/1999/xlink" xml:space="preserve">

<style type="text/css"><![CDATA[
.node, .edge {opacity: 0.7;}
.node.selected, .edge.selected {opacity: 1;}
.edge:hover path { stroke: red; }
.edge:hover polygon { stroke: red; fill: red; }
]]></style>
<script type="application/ecmascript" xlink:href="svg.min.js"/>
<svg id="graph" class="graph">
<g id="graph0" class="graph" transform="scale(1 1) rotate(0) translate(4 71.88)">
<title>TMCStepper::ihold</title>
<!-- Node1 -->
<g id="Node000001" class="node">
<title>Node1</title>
<g id="a_Node000001"><a xlink:title=" ">
<polygon fill="#999999" stroke="#666666" points="396.75,-40.25 299,-40.25 299,-21 396.75,-21 396.75,-40.25"/>
<text text-anchor="middle" x="347.88" y="-26.75" font-family="Helvetica,sans-Serif" font-size="10.00">TMCStepper::ihold</text>
</a>
</g>
</g>
<!-- Node1&#45;&gt;Node1 -->
<g id="edge4_Node000001_Node000001" class="edge">
<title>Node1&#45;&gt;Node1</title>
<g id="a_edge4_Node000001_Node000001"><a xlink:title=" ">
<path fill="none" stroke="#63b8ff" d="M371.62,-51.65C368.65,-55.53 360.73,-58.25 347.88,-58.25 324.36,-58.25 317.38,-49.15 326.94,-40.54"/>
<polygon fill="#63b8ff" stroke="#63b8ff" points="375.02,-50.85 369.18,-42.01 368.23,-52.56 375.02,-50.85"/>
</a>
</g>
</g>
<!-- Node2 -->
<g id="Node000002" class="node">
<title>Node2</title>
<g id="a_Node000002"><a xlink:href="class_t_m_c_stepper.html#a5f7f8f6ce7b394449239bc2c05f39c8f" target="_top" xlink:title=" ">
<polygon fill="white" stroke="#666666" points="263,-40.25 165.25,-40.25 165.25,-21 263,-21 263,-40.25"/>
<text text-anchor="middle" x="214.12" y="-26.75" font-family="Helvetica,sans-Serif" font-size="10.00">TMCStepper::ihold</text>
</a>
</g>
</g>
<!-- Node1&#45;&gt;Node2 -->
<g id="edge1_Node000001_Node000002" class="edge">
<title>Node1&#45;&gt;Node2</title>
<g id="a_edge1_Node000001_Node000002"><a xlink:title=" ">
<path fill="none" stroke="#63b8ff" d="M287.09,-30.62C279.17,-30.62 271.13,-30.62 263.43,-30.62"/>
<polygon fill="#63b8ff" stroke="#63b8ff" points="287.05,-34.13 297.05,-30.63 287.05,-27.13 287.05,-34.13"/>
</a>
</g>
</g>
<!-- Node3 -->
<g id="Node000003" class="node">
<title>Node3</title>
<g id="a_Node000003"><a xlink:href="class_t_m_c2160_stepper.html#a90a23ccb351310ef8f74a6a9f7953042" target="_top" xlink:title=" ">
<polygon fill="white" stroke="#666666" points="122.12,-67.88 7.12,-67.88 7.12,-37.38 122.12,-37.38 122.12,-67.88"/>
<text text-anchor="start" x="15.12" y="-54.38" font-family="Helvetica,sans-Serif" font-size="10.00">TMC2160Stepper::rms</text>
<text text-anchor="middle" x="64.62" y="-43.12" font-family="Helvetica,sans-Serif" font-size="10.00">_current</text>
</a>
</g>
</g>
<!-- Node2&#45;&gt;Node3 -->
<g id="edge2_Node000002_Node000003" class="edge">
<title>Node2&#45;&gt;Node3</title>
<g id="a_edge2_Node000002_Node000003"><a xlink:title=" ">
<path fill="none" stroke="#63b8ff" d="M153.48,-39.52C143.26,-41.05 132.65,-42.63 122.5,-44.14"/>
<polygon fill="#63b8ff" stroke="#63b8ff" points="153.96,-42.99 163.33,-38.05 152.92,-36.07 153.96,-42.99"/>
</a>
</g>
</g>
<!-- Node4 -->
<g id="Node000004" class="node">
<title>Node4</title>
<g id="a_Node000004"><a xlink:href="class_t_m_c_stepper.html#af6bd7fc36dabb23fee412d7293a3bb75" target="_top" xlink:title=" ">
<polygon fill="white" stroke="#666666" points="129.25,-19.25 0,-19.25 0,0 129.25,0 129.25,-19.25"/>
<text text-anchor="middle" x="64.62" y="-5.75" font-family="Helvetica,sans-Serif" font-size="10.00">TMCStepper::rms_current</text>
</a>
</g>
</g>
<!-- Node2&#45;&gt;Node4 -->
<g id="edge3_Node000002_Node000004" class="edge">
<title>Node2&#45;&gt;Node4</title>
<g id="a_edge3_Node000002_Node000004"><a xlink:title=" ">
<path fill="none" stroke="#63b8ff" d="M153.5,-22.14C145.63,-21.01 137.53,-19.86 129.59,-18.73"/>
<polygon fill="#63b8ff" stroke="#63b8ff" points="152.94,-25.59 163.33,-23.54 153.92,-18.66 152.94,-25.59"/>
</a>
</g>
</g>
</g>
</svg>
</svg>

<style type='text/css'>
<![CDATA[
[data-mouse-over-selected='false'] { opacity: 0.7; }
[data-mouse-over-selected='true']  { opacity: 1.0; }
]]>
</style>
<script type="application/ecmascript"><![CDATA[
document.addEventListener('DOMContentLoaded', (event) => {
  highlightEdges();
  highlightAdjacentNodes();
});
]]></script>
</svg>
