<?xml version="1.0" encoding="UTF-8" standalone="no"?>
<!DOCTYPE svg PUBLIC "-//W3C//DTD SVG 1.1//EN"
 "http://www.w3.org/Graphics/SVG/1.1/DTD/svg11.dtd">
<!-- Generated by graphviz version 12.2.1 (20241206.2353)
 -->
<!-- Title: TMC2208Stepper::FACTORY_CONF Pages: 1 -->
<svg width="763pt" height="187pt"
 viewBox="0.00 0.00 762.75 187.25" xmlns="http://www.w3.org/2000/svg" xmlns:xlink="http://www.w3.org/1999/xlink">
<g id="graph0" class="graph" transform="scale(1 1) rotate(0) translate(4 183.25)">
<title>TMC2208Stepper::FACTORY_CONF</title>
<!-- Node1 -->
<g id="Node000001" class="node">
<title>Node1</title>
<g id="a_Node000001"><a xlink:title=" ">
<polygon fill="#999999" stroke="#666666" points="180.25,-83.25 0,-83.25 0,-64 180.25,-64 180.25,-83.25"/>
<text text-anchor="middle" x="90.12" y="-69.75" font-family="Helvetica,sans-Serif" font-size="10.00">TMC2208Stepper::FACTORY_CONF</text>
</a>
</g>
</g>
<!-- Node2 -->
<g id="Node000002" class="node">
<title>Node2</title>
<g id="a_Node000002"><a xlink:href="class_t_m_c2208_stepper.html#a2fae2050849c3ab7968012def8ea1cc5" target="_top" xlink:title=" ">
<polygon fill="white" stroke="#666666" points="333.5,-83.25 216.25,-83.25 216.25,-64 333.5,-64 333.5,-83.25"/>
<text text-anchor="middle" x="274.88" y="-69.75" font-family="Helvetica,sans-Serif" font-size="10.00">TMC2208Stepper::read</text>
</a>
</g>
</g>
<!-- Node1&#45;&gt;Node2 -->
<g id="edge1_Node000001_Node000002" class="edge">
<title>Node1&#45;&gt;Node2</title>
<g id="a_edge1_Node000001_Node000002"><a xlink:title=" ">
<path fill="none" stroke="#63b8ff" d="M180.63,-73.62C188.65,-73.62 196.69,-73.62 204.5,-73.62"/>
<polygon fill="#63b8ff" stroke="#63b8ff" points="204.24,-77.13 214.24,-73.63 204.24,-70.13 204.24,-77.13"/>
</a>
</g>
</g>
<!-- Node3 -->
<g id="Node000003" class="node">
<title>Node3</title>
<g id="a_Node000003"><a xlink:href="class_t_m_c2208_stepper.html#a321ad81155b7a20c0858920d32d0b074" target="_top" xlink:title=" ">
<polygon fill="white" stroke="#666666" points="555,-142.25 387.5,-142.25 387.5,-123 555,-123 555,-142.25"/>
<text text-anchor="middle" x="471.25" y="-128.75" font-family="Helvetica,sans-Serif" font-size="10.00">TMC2208Stepper::_sendDatagram</text>
</a>
</g>
</g>
<!-- Node2&#45;&gt;Node3 -->
<g id="edge2_Node000002_Node000003" class="edge">
<title>Node2&#45;&gt;Node3</title>
<g id="a_edge2_Node000002_Node000003"><a xlink:title=" ">
<path fill="none" stroke="#63b8ff" d="M295.09,-83.65C313.67,-92.94 342.84,-106.53 369.5,-114.62 376.14,-116.64 383.1,-118.46 390.12,-120.1"/>
<polygon fill="#63b8ff" stroke="#63b8ff" points="389.18,-123.47 399.7,-122.2 390.68,-116.64 389.18,-123.47"/>
</a>
</g>
</g>
<!-- Node7 -->
<g id="Node000007" class="node">
<title>Node7</title>
<g id="a_Node000007"><a xlink:href="class_t_m_c2208_stepper.html#a409c19fa6b052a370a317d061bf9af4e" target="_top" xlink:title=" ">
<polygon fill="white" stroke="#666666" points="540.75,-105.25 401.75,-105.25 401.75,-86 540.75,-86 540.75,-105.25"/>
<text text-anchor="middle" x="471.25" y="-91.75" font-family="Helvetica,sans-Serif" font-size="10.00">TMC2208Stepper::calcCRC</text>
</a>
</g>
</g>
<!-- Node2&#45;&gt;Node7 -->
<g id="edge6_Node000002_Node000007" class="edge">
<title>Node2&#45;&gt;Node7</title>
<g id="a_edge6_Node000002_Node000007"><a xlink:title=" ">
<path fill="none" stroke="#63b8ff" d="M333.93,-80.2C351.62,-82.2 371.37,-84.43 390.24,-86.57"/>
<polygon fill="#63b8ff" stroke="#63b8ff" points="389.7,-90.03 400.03,-87.68 390.49,-83.07 389.7,-90.03"/>
</a>
</g>
</g>
<!-- Node8 -->
<g id="Node000008" class="node">
<title>Node8</title>
<g id="a_Node000008"><a xlink:href="class_t_m_c2208_stepper.html#ab3d186b27f45ec47c1cf0bf15ed4cd2e" target="_top" xlink:title=" ">
<polygon fill="white" stroke="#666666" points="541.5,-67.88 401,-67.88 401,-37.38 541.5,-37.38 541.5,-67.88"/>
<text text-anchor="start" x="409" y="-54.38" font-family="Helvetica,sans-Serif" font-size="10.00">TMC2208Stepper::postRead</text>
<text text-anchor="middle" x="471.25" y="-43.12" font-family="Helvetica,sans-Serif" font-size="10.00">Communication</text>
</a>
</g>
</g>
<!-- Node2&#45;&gt;Node8 -->
<g id="edge7_Node000002_Node000008" class="edge">
<title>Node2&#45;&gt;Node8</title>
<g id="a_edge7_Node000002_Node000008"><a xlink:title=" ">
<path fill="none" stroke="#63b8ff" d="M333.93,-67.35C351.43,-65.46 370.96,-63.35 389.65,-61.33"/>
<polygon fill="#63b8ff" stroke="#63b8ff" points="389.77,-64.84 399.33,-60.29 389.01,-57.88 389.77,-64.84"/>
</a>
</g>
</g>
<!-- Node9 -->
<g id="Node000009" class="node">
<title>Node9</title>
<g id="a_Node000009"><a xlink:href="class_t_m_c2208_stepper.html#a8c4f3ce4a964c9a03a1e14f47bf5bec3" target="_top" xlink:title=" ">
<polygon fill="white" stroke="#666666" points="573,-19.25 369.5,-19.25 369.5,0 573,0 573,-19.25"/>
<text text-anchor="middle" x="471.25" y="-5.75" font-family="Helvetica,sans-Serif" font-size="10.00">TMC2208Stepper::preReadCommunication</text>
</a>
</g>
</g>
<!-- Node2&#45;&gt;Node9 -->
<g id="edge8_Node000002_Node000009" class="edge">
<title>Node2&#45;&gt;Node9</title>
<g id="a_edge8_Node000002_Node000009"><a xlink:title=" ">
<path fill="none" stroke="#63b8ff" d="M293.25,-63.57C311.62,-53.34 341.74,-37.74 369.5,-28.62 376.8,-26.23 384.5,-24.1 392.26,-22.22"/>
<polygon fill="#63b8ff" stroke="#63b8ff" points="392.79,-25.69 401.76,-20.05 391.23,-18.86 392.79,-25.69"/>
</a>
</g>
</g>
<!-- Node4 -->
<g id="Node000004" class="node">
<title>Node4</title>
<g id="a_Node000004"><a xlink:href="class_t_m_c2208_stepper.html#aef33fe13c1d9c19e9ec9abc159147a5d" target="_top" xlink:title=" ">
<polygon fill="white" stroke="#666666" points="750.25,-179.25 613.5,-179.25 613.5,-160 750.25,-160 750.25,-179.25"/>
<text text-anchor="middle" x="681.88" y="-165.75" font-family="Helvetica,sans-Serif" font-size="10.00">TMC2208Stepper::available</text>
</a>
</g>
</g>
<!-- Node3&#45;&gt;Node4 -->
<g id="edge3_Node000003_Node000004" class="edge">
<title>Node3&#45;&gt;Node4</title>
<g id="a_edge3_Node000003_Node000004"><a xlink:title=" ">
<path fill="none" stroke="#63b8ff" d="M529.26,-142.74C555.02,-147.3 585.66,-152.74 612.63,-157.52"/>
<polygon fill="#63b8ff" stroke="#63b8ff" points="611.99,-160.96 622.45,-159.26 613.21,-154.07 611.99,-160.96"/>
</a>
</g>
</g>
<!-- Node5 -->
<g id="Node000005" class="node">
<title>Node5</title>
<g id="a_Node000005"><a xlink:href="class_t_m_c2208_stepper.html#a8214f87693050e222fc24be979f468e2" target="_top" xlink:title=" ">
<polygon fill="white" stroke="#666666" points="754.75,-142.25 609,-142.25 609,-123 754.75,-123 754.75,-142.25"/>
<text text-anchor="middle" x="681.88" y="-128.75" font-family="Helvetica,sans-Serif" font-size="10.00">TMC2208Stepper::serial_read</text>
</a>
</g>
</g>
<!-- Node3&#45;&gt;Node5 -->
<g id="edge4_Node000003_Node000005" class="edge">
<title>Node3&#45;&gt;Node5</title>
<g id="a_edge4_Node000003_Node000005"><a xlink:title=" ">
<path fill="none" stroke="#63b8ff" d="M555.3,-132.62C569.06,-132.62 583.34,-132.62 597.12,-132.62"/>
<polygon fill="#63b8ff" stroke="#63b8ff" points="597.04,-136.13 607.04,-132.63 597.04,-129.13 597.04,-136.13"/>
</a>
</g>
</g>
<!-- Node6 -->
<g id="Node000006" class="node">
<title>Node6</title>
<g id="a_Node000006"><a xlink:href="class_t_m_c2208_stepper.html#adb6243277ef84d2027b2b8bae6be5bd0" target="_top" xlink:title=" ">
<polygon fill="white" stroke="#666666" points="742.75,-104.88 621,-104.88 621,-74.38 742.75,-74.38 742.75,-104.88"/>
<text text-anchor="start" x="629" y="-91.38" font-family="Helvetica,sans-Serif" font-size="10.00">TMC2208Stepper::serial</text>
<text text-anchor="middle" x="681.88" y="-80.12" font-family="Helvetica,sans-Serif" font-size="10.00">_write</text>
</a>
</g>
</g>
<!-- Node3&#45;&gt;Node6 -->
<g id="edge5_Node000003_Node000006" class="edge">
<title>Node3&#45;&gt;Node6</title>
<g id="a_edge5_Node000003_Node000006"><a xlink:title=" ">
<path fill="none" stroke="#63b8ff" d="M531.75,-122.51C545.33,-120.06 559.68,-117.36 573,-114.62 584.82,-112.2 597.34,-109.46 609.49,-106.71"/>
<polygon fill="#63b8ff" stroke="#63b8ff" points="610.07,-110.16 619.04,-104.52 608.51,-103.34 610.07,-110.16"/>
</a>
</g>
</g>
</g>
</svg>
