<?xml version="1.0" encoding="UTF-8" standalone="no"?>
<!DOCTYPE svg PUBLIC "-//W3C//DTD SVG 1.1//EN"
 "http://www.w3.org/Graphics/SVG/1.1/DTD/svg11.dtd">
<!-- Generated by graphviz version 12.2.1 (20241206.2353)
 -->
<!-- Title: TMC2660Stepper::rms_current Pages: 1 -->
<svg width="455pt" height="100pt"
 viewBox="0.00 0.00 455.00 100.25" xmlns="http://www.w3.org/2000/svg" xmlns:xlink="http://www.w3.org/1999/xlink">

<svg id="main" version="1.1" xmlns="http://www.w3.org/2000/svg" xmlns:xlink="http://www.w3.org/1999/xlink" xml:space="preserve">

<style type="text/css"><![CDATA[
.node, .edge {opacity: 0.7;}
.node.selected, .edge.selected {opacity: 1;}
.edge:hover path { stroke: red; }
.edge:hover polygon { stroke: red; fill: red; }
]]></style>
<script type="application/ecmascript" xlink:href="svg.min.js"/>
<svg id="graph" class="graph">
<g id="graph0" class="graph" transform="scale(1 1) rotate(0) translate(4 96.25)">
<title>TMC2660Stepper::rms_current</title>
<!-- Node1 -->
<g id="Node000001" class="node">
<title>Node1</title>
<g id="a_Node000001"><a xlink:title=" ">
<polygon fill="#999999" stroke="#666666" points="115,-51.88 0,-51.88 0,-21.38 115,-21.38 115,-51.88"/>
<text text-anchor="start" x="8" y="-38.38" font-family="Helvetica,sans-Serif" font-size="10.00">TMC2660Stepper::rms</text>
<text text-anchor="middle" x="57.5" y="-27.12" font-family="Helvetica,sans-Serif" font-size="10.00">_current</text>
</a>
</g>
</g>
<!-- Node2 -->
<g id="Node000002" class="node">
<title>Node2</title>
<g id="a_Node000002"><a xlink:href="class_t_m_c2660_stepper.html#a771f1425704e15ed90471bc7db2deaa4" target="_top" xlink:title=" ">
<polygon fill="white" stroke="#666666" points="270.5,-69.25 161.5,-69.25 161.5,-50 270.5,-50 270.5,-69.25"/>
<text text-anchor="middle" x="216" y="-55.75" font-family="Helvetica,sans-Serif" font-size="10.00">TMC2660Stepper::cs</text>
</a>
</g>
</g>
<!-- Node1&#45;&gt;Node2 -->
<g id="edge1_Node000001_Node000002" class="edge">
<title>Node1&#45;&gt;Node2</title>
<g id="a_edge1_Node000001_Node000002"><a xlink:title=" ">
<path fill="none" stroke="#63b8ff" d="M115.44,-44.99C126.65,-46.64 138.49,-48.38 149.94,-50.06"/>
<polygon fill="#63b8ff" stroke="#63b8ff" points="149.33,-53.51 159.73,-51.5 150.35,-46.59 149.33,-53.51"/>
</a>
</g>
</g>
<!-- Node4 -->
<g id="Node000004" class="node">
<title>Node4</title>
<g id="a_Node000004"><a xlink:href="class_t_m_c2660_stepper.html#ae9e78a1a2e7847988c779e81e3ae5545" target="_top" xlink:title=" ">
<polygon fill="white" stroke="#666666" points="281,-28.25 151,-28.25 151,-9 281,-9 281,-28.25"/>
<text text-anchor="middle" x="216" y="-14.75" font-family="Helvetica,sans-Serif" font-size="10.00">TMC2660Stepper::vsense</text>
</a>
</g>
</g>
<!-- Node1&#45;&gt;Node4 -->
<g id="edge4_Node000001_Node000004" class="edge">
<title>Node1&#45;&gt;Node4</title>
<g id="a_edge4_Node000001_Node000004"><a xlink:title=" ">
<path fill="none" stroke="#63b8ff" d="M115.44,-30.08C123.22,-29.18 131.31,-28.25 139.36,-27.32"/>
<polygon fill="#63b8ff" stroke="#63b8ff" points="139.64,-30.82 149.18,-26.2 138.84,-23.86 139.64,-30.82"/>
</a>
</g>
</g>
<!-- Node3 -->
<g id="Node000003" class="node">
<title>Node3</title>
<g id="a_Node000003"><a xlink:href="class_t_m_c2660_stepper.html#a466d10a3492459cd19e0dc22404578ba" target="_top" xlink:title=" ">
<polygon fill="white" stroke="#666666" points="436.5,-74.25 327.5,-74.25 327.5,-55 436.5,-55 436.5,-74.25"/>
<text text-anchor="middle" x="382" y="-60.75" font-family="Helvetica,sans-Serif" font-size="10.00">TMC2660Stepper::cs</text>
</a>
</g>
</g>
<!-- Node2&#45;&gt;Node3 -->
<g id="edge2_Node000002_Node000003" class="edge">
<title>Node2&#45;&gt;Node3</title>
<g id="a_edge2_Node000002_Node000003"><a xlink:title=" ">
<path fill="none" stroke="#63b8ff" d="M270.7,-61.26C285.14,-61.7 300.92,-62.18 315.91,-62.64"/>
<polygon fill="#63b8ff" stroke="#63b8ff" points="315.56,-66.13 325.67,-62.94 315.78,-59.13 315.56,-66.13"/>
</a>
</g>
</g>
<!-- Node3&#45;&gt;Node3 -->
<g id="edge3_Node000003_Node000003" class="edge">
<title>Node3&#45;&gt;Node3</title>
<g id="a_edge3_Node000003_Node000003"><a xlink:title=" ">
<path fill="none" stroke="#63b8ff" d="M356.01,-74.54C344.16,-83.15 352.82,-92.25 382,-92.25 398.41,-92.25 408.34,-89.37 411.77,-85.32"/>
<polygon fill="#63b8ff" stroke="#63b8ff" points="415.1,-84.25 408.49,-75.97 408.49,-86.56 415.1,-84.25"/>
</a>
</g>
</g>
<!-- Node5 -->
<g id="Node000005" class="node">
<title>Node5</title>
<g id="a_Node000005"><a xlink:href="class_t_m_c2660_stepper.html#a8de8bc7d0e08e4ee4476276f599edf47" target="_top" xlink:title=" ">
<polygon fill="white" stroke="#666666" points="447,-19.25 317,-19.25 317,0 447,0 447,-19.25"/>
<text text-anchor="middle" x="382" y="-5.75" font-family="Helvetica,sans-Serif" font-size="10.00">TMC2660Stepper::vsense</text>
</a>
</g>
</g>
<!-- Node4&#45;&gt;Node5 -->
<g id="edge5_Node000004_Node000005" class="edge">
<title>Node4&#45;&gt;Node5</title>
<g id="a_edge5_Node000004_Node000005"><a xlink:title=" ">
<path fill="none" stroke="#63b8ff" d="M281.35,-15.09C289.21,-14.66 297.31,-14.22 305.33,-13.78"/>
<polygon fill="#63b8ff" stroke="#63b8ff" points="305.27,-17.29 315.06,-13.24 304.88,-10.3 305.27,-17.29"/>
</a>
</g>
</g>
<!-- Node5&#45;&gt;Node5 -->
<g id="edge6_Node000005_Node000005" class="edge">
<title>Node5&#45;&gt;Node5</title>
<g id="a_edge6_Node000005_Node000005"><a xlink:title=" ">
<path fill="none" stroke="#63b8ff" d="M356.01,-19.54C344.16,-28.15 352.82,-37.25 382,-37.25 398.41,-37.25 408.34,-34.37 411.77,-30.32"/>
<polygon fill="#63b8ff" stroke="#63b8ff" points="415.1,-29.25 408.49,-20.97 408.49,-31.56 415.1,-29.25"/>
</a>
</g>
</g>
</g>
</svg>
</svg>

<style type='text/css'>
<![CDATA[
[data-mouse-over-selected='false'] { opacity: 0.7; }
[data-mouse-over-selected='true']  { opacity: 1.0; }
]]>
</style>
<script type="application/ecmascript"><![CDATA[
document.addEventListener('DOMContentLoaded', (event) => {
  highlightEdges();
  highlightAdjacentNodes();
});
]]></script>
</svg>
