<?xml version="1.0" encoding="UTF-8" standalone="no"?>
<!DOCTYPE svg PUBLIC "-//W3C//DTD SVG 1.1//EN"
 "http://www.w3.org/Graphics/SVG/1.1/DTD/svg11.dtd">
<!-- Generated by graphviz version 12.2.1 (20241206.2353)
 -->
<!-- Title: TMC2660Stepper::cs2rms Pages: 1 -->
<svg width="471pt" height="45pt"
 viewBox="0.00 0.00 470.75 45.25" xmlns="http://www.w3.org/2000/svg" xmlns:xlink="http://www.w3.org/1999/xlink">
<g id="graph0" class="graph" transform="scale(1 1) rotate(0) translate(4 41.25)">
<title>TMC2660Stepper::cs2rms</title>
<!-- Node1 -->
<g id="Node000001" class="node">
<title>Node1</title>
<g id="a_Node000001"><a xlink:title=" ">
<polygon fill="#999999" stroke="#666666" points="130.75,-19.25 0,-19.25 0,0 130.75,0 130.75,-19.25"/>
<text text-anchor="middle" x="65.38" y="-5.75" font-family="Helvetica,sans-Serif" font-size="10.00">TMC2660Stepper::cs2rms</text>
</a>
</g>
</g>
<!-- Node2 -->
<g id="Node000002" class="node">
<title>Node2</title>
<g id="a_Node000002"><a xlink:href="class_t_m_c2660_stepper.html#ae9e78a1a2e7847988c779e81e3ae5545" target="_top" xlink:title=" ">
<polygon fill="white" stroke="#666666" points="296.75,-19.25 166.75,-19.25 166.75,0 296.75,0 296.75,-19.25"/>
<text text-anchor="middle" x="231.75" y="-5.75" font-family="Helvetica,sans-Serif" font-size="10.00">TMC2660Stepper::vsense</text>
</a>
</g>
</g>
<!-- Node1&#45;&gt;Node2 -->
<g id="edge1_Node000001_Node000002" class="edge">
<title>Node1&#45;&gt;Node2</title>
<g id="a_edge1_Node000001_Node000002"><a xlink:title=" ">
<path fill="none" stroke="#63b8ff" d="M130.87,-9.62C138.82,-9.62 146.99,-9.62 155.09,-9.62"/>
<polygon fill="#63b8ff" stroke="#63b8ff" points="154.93,-13.13 164.93,-9.63 154.93,-6.13 154.93,-13.13"/>
</a>
</g>
</g>
<!-- Node3 -->
<g id="Node000003" class="node">
<title>Node3</title>
<g id="a_Node000003"><a xlink:href="class_t_m_c2660_stepper.html#a8de8bc7d0e08e4ee4476276f599edf47" target="_top" xlink:title=" ">
<polygon fill="white" stroke="#666666" points="462.75,-19.25 332.75,-19.25 332.75,0 462.75,0 462.75,-19.25"/>
<text text-anchor="middle" x="397.75" y="-5.75" font-family="Helvetica,sans-Serif" font-size="10.00">TMC2660Stepper::vsense</text>
</a>
</g>
</g>
<!-- Node2&#45;&gt;Node3 -->
<g id="edge2_Node000002_Node000003" class="edge">
<title>Node2&#45;&gt;Node3</title>
<g id="a_edge2_Node000002_Node000003"><a xlink:title=" ">
<path fill="none" stroke="#63b8ff" d="M297.1,-9.62C304.96,-9.62 313.06,-9.62 321.08,-9.62"/>
<polygon fill="#63b8ff" stroke="#63b8ff" points="320.81,-13.13 330.81,-9.63 320.81,-6.13 320.81,-13.13"/>
</a>
</g>
</g>
<!-- Node3&#45;&gt;Node3 -->
<g id="edge3_Node000003_Node000003" class="edge">
<title>Node3&#45;&gt;Node3</title>
<g id="a_edge3_Node000003_Node000003"><a xlink:title=" ">
<path fill="none" stroke="#63b8ff" d="M371.76,-19.54C359.91,-28.15 368.57,-37.25 397.75,-37.25 414.16,-37.25 424.09,-34.37 427.52,-30.32"/>
<polygon fill="#63b8ff" stroke="#63b8ff" points="430.85,-29.25 424.24,-20.97 424.24,-31.56 430.85,-29.25"/>
</a>
</g>
</g>
</g>
</svg>
