<?xml version="1.0" encoding="UTF-8" standalone="no"?>
<!DOCTYPE svg PUBLIC "-//W3C//DTD SVG 1.1//EN"
 "http://www.w3.org/Graphics/SVG/1.1/DTD/svg11.dtd">
<!-- Generated by graphviz version 12.2.1 (20241206.2353)
 -->
<!-- Title: TMC2208Stepper::toff Pages: 1 -->
<svg width="447pt" height="45pt"
 viewBox="0.00 0.00 446.75 45.25" xmlns="http://www.w3.org/2000/svg" xmlns:xlink="http://www.w3.org/1999/xlink">

<svg id="main" version="1.1" xmlns="http://www.w3.org/2000/svg" xmlns:xlink="http://www.w3.org/1999/xlink" xml:space="preserve">

<style type="text/css"><![CDATA[
.node, .edge {opacity: 0.7;}
.node.selected, .edge.selected {opacity: 1;}
.edge:hover path { stroke: red; }
.edge:hover polygon { stroke: red; fill: red; }
]]></style>
<script type="application/ecmascript" xlink:href="svg.min.js"/>
<svg id="graph" class="graph">
<g id="graph0" class="graph" transform="scale(1 1) rotate(0) translate(4 41.25)">
<title>TMC2208Stepper::toff</title>
<!-- Node1 -->
<g id="Node000001" class="node">
<title>Node1</title>
<g id="a_Node000001"><a xlink:title=" ">
<polygon fill="#999999" stroke="#666666" points="438.75,-19.25 326,-19.25 326,0 438.75,0 438.75,-19.25"/>
<text text-anchor="middle" x="382.38" y="-5.75" font-family="Helvetica,sans-Serif" font-size="10.00">TMC2208Stepper::toff</text>
</a>
</g>
</g>
<!-- Node1&#45;&gt;Node1 -->
<g id="edge3_Node000001_Node000001" class="edge">
<title>Node1&#45;&gt;Node1</title>
<g id="a_edge3_Node000001_Node000001"><a xlink:title=" ">
<path fill="none" stroke="#63b8ff" d="M409.05,-30.32C405.97,-34.37 397.08,-37.25 382.38,-37.25 356.23,-37.25 348.47,-28.15 359.09,-19.54"/>
<polygon fill="#63b8ff" stroke="#63b8ff" points="412.45,-29.47 406.12,-20.98 405.77,-31.57 412.45,-29.47"/>
</a>
</g>
</g>
<!-- Node2 -->
<g id="Node000002" class="node">
<title>Node2</title>
<g id="a_Node000002"><a xlink:href="class_t_m_c2208_stepper.html#aad3790e8c9040b5b4770ee65ed06b1ed" target="_top" xlink:title=" ">
<polygon fill="white" stroke="#666666" points="290,-19.25 177.25,-19.25 177.25,0 290,0 290,-19.25"/>
<text text-anchor="middle" x="233.62" y="-5.75" font-family="Helvetica,sans-Serif" font-size="10.00">TMC2208Stepper::toff</text>
</a>
</g>
</g>
<!-- Node1&#45;&gt;Node2 -->
<g id="edge1_Node000001_Node000002" class="edge">
<title>Node1&#45;&gt;Node2</title>
<g id="a_edge1_Node000001_Node000002"><a xlink:title=" ">
<path fill="none" stroke="#63b8ff" d="M314.51,-9.62C306.37,-9.62 298.13,-9.62 290.18,-9.62"/>
<polygon fill="#63b8ff" stroke="#63b8ff" points="314.38,-13.13 324.38,-9.63 314.38,-6.13 314.38,-13.13"/>
</a>
</g>
</g>
<!-- Node3 -->
<g id="Node000003" class="node">
<title>Node3</title>
<g id="a_Node000003"><a xlink:href="class_t_m_c2208_stepper.html#a9ad9b892e8abf475e15e6d8c30c56ce2" target="_top" xlink:title=" ">
<polygon fill="white" stroke="#666666" points="141.25,-19.25 0,-19.25 0,0 141.25,0 141.25,-19.25"/>
<text text-anchor="middle" x="70.62" y="-5.75" font-family="Helvetica,sans-Serif" font-size="10.00">TMC2208Stepper::isEnabled</text>
</a>
</g>
</g>
<!-- Node2&#45;&gt;Node3 -->
<g id="edge2_Node000002_Node000003" class="edge">
<title>Node2&#45;&gt;Node3</title>
<g id="a_edge2_Node000002_Node000003"><a xlink:title=" ">
<path fill="none" stroke="#63b8ff" d="M165.39,-9.62C157.52,-9.62 149.48,-9.62 141.57,-9.62"/>
<polygon fill="#63b8ff" stroke="#63b8ff" points="165.25,-13.13 175.25,-9.63 165.25,-6.13 165.25,-13.13"/>
</a>
</g>
</g>
</g>
</svg>
</svg>

<style type='text/css'>
<![CDATA[
[data-mouse-over-selected='false'] { opacity: 0.7; }
[data-mouse-over-selected='true']  { opacity: 1.0; }
]]>
</style>
<script type="application/ecmascript"><![CDATA[
document.addEventListener('DOMContentLoaded', (event) => {
  highlightEdges();
  highlightAdjacentNodes();
});
]]></script>
</svg>
