<?xml version="1.0" encoding="UTF-8" standalone="no"?>
<!DOCTYPE svg PUBLIC "-//W3C//DTD SVG 1.1//EN"
 "http://www.w3.org/Graphics/SVG/1.1/DTD/svg11.dtd">
<!-- Generated by graphviz version 12.2.1 (20241206.2353)
 -->
<!-- Title: TMC2208Stepper::isEnabled Pages: 1 -->
<svg width="448pt" height="82pt"
 viewBox="0.00 0.00 448.25 82.25" xmlns="http://www.w3.org/2000/svg" xmlns:xlink="http://www.w3.org/1999/xlink">

<svg id="main" version="1.1" xmlns="http://www.w3.org/2000/svg" xmlns:xlink="http://www.w3.org/1999/xlink" xml:space="preserve">

<style type="text/css"><![CDATA[
.node, .edge {opacity: 0.7;}
.node.selected, .edge.selected {opacity: 1;}
.edge:hover path { stroke: red; }
.edge:hover polygon { stroke: red; fill: red; }
]]></style>
<script type="application/ecmascript" xlink:href="svg.min.js"/>
<svg id="graph" class="graph">
<g id="graph0" class="graph" transform="scale(1 1) rotate(0) translate(4 78.25)">
<title>TMC2208Stepper::isEnabled</title>
<!-- Node1 -->
<g id="Node000001" class="node">
<title>Node1</title>
<g id="a_Node000001"><a xlink:title=" ">
<polygon fill="#999999" stroke="#666666" points="141.25,-37.25 0,-37.25 0,-18 141.25,-18 141.25,-37.25"/>
<text text-anchor="middle" x="70.62" y="-23.75" font-family="Helvetica,sans-Serif" font-size="10.00">TMC2208Stepper::isEnabled</text>
</a>
</g>
</g>
<!-- Node2 -->
<g id="Node000002" class="node">
<title>Node2</title>
<g id="a_Node000002"><a xlink:href="class_t_m_c2208_stepper.html#acc1f92ce007231215fc4266fb4b99a62" target="_top" xlink:title=" ">
<polygon fill="white" stroke="#666666" points="291.5,-56.25 177.25,-56.25 177.25,-37 291.5,-37 291.5,-56.25"/>
<text text-anchor="middle" x="234.38" y="-42.75" font-family="Helvetica,sans-Serif" font-size="10.00">TMC2208Stepper::enn</text>
</a>
</g>
</g>
<!-- Node1&#45;&gt;Node2 -->
<g id="edge1_Node000001_Node000002" class="edge">
<title>Node1&#45;&gt;Node2</title>
<g id="a_edge1_Node000001_Node000002"><a xlink:title=" ">
<path fill="none" stroke="#63b8ff" d="M141.63,-35.85C149.55,-36.78 157.6,-37.72 165.49,-38.65"/>
<polygon fill="#63b8ff" stroke="#63b8ff" points="165.05,-42.12 175.39,-39.81 165.87,-35.17 165.05,-42.12"/>
</a>
</g>
</g>
<!-- Node3 -->
<g id="Node000003" class="node">
<title>Node3</title>
<g id="a_Node000003"><a xlink:href="class_t_m_c2208_stepper.html#aad3790e8c9040b5b4770ee65ed06b1ed" target="_top" xlink:title=" ">
<polygon fill="white" stroke="#666666" points="290.75,-19.25 178,-19.25 178,0 290.75,0 290.75,-19.25"/>
<text text-anchor="middle" x="234.38" y="-5.75" font-family="Helvetica,sans-Serif" font-size="10.00">TMC2208Stepper::toff</text>
</a>
</g>
</g>
<!-- Node1&#45;&gt;Node3 -->
<g id="edge3_Node000001_Node000003" class="edge">
<title>Node1&#45;&gt;Node3</title>
<g id="a_edge3_Node000001_Node000003"><a xlink:title=" ">
<path fill="none" stroke="#63b8ff" d="M141.63,-19.83C149.87,-18.92 158.26,-17.98 166.46,-17.07"/>
<polygon fill="#63b8ff" stroke="#63b8ff" points="166.83,-20.55 176.38,-15.97 166.05,-13.6 166.83,-20.55"/>
</a>
</g>
</g>
<!-- Node2&#45;&gt;Node2 -->
<g id="edge2_Node000002_Node000002" class="edge">
<title>Node2&#45;&gt;Node2</title>
<g id="a_edge2_Node000002_Node000002"><a xlink:title=" ">
<path fill="none" stroke="#63b8ff" d="M210.97,-56.54C200.29,-65.15 208.1,-74.25 234.38,-74.25 249.16,-74.25 258.09,-71.37 261.18,-67.32"/>
<polygon fill="#63b8ff" stroke="#63b8ff" points="264.58,-66.46 258.24,-57.98 257.91,-68.57 264.58,-66.46"/>
</a>
</g>
</g>
<!-- Node4 -->
<g id="Node000004" class="node">
<title>Node4</title>
<g id="a_Node000004"><a xlink:href="class_t_m_c2208_stepper.html#a7ec1e7b4256e23a062cf72135d480d5f" target="_top" xlink:title=" ">
<polygon fill="white" stroke="#666666" points="440.25,-19.25 327.5,-19.25 327.5,0 440.25,0 440.25,-19.25"/>
<text text-anchor="middle" x="383.88" y="-5.75" font-family="Helvetica,sans-Serif" font-size="10.00">TMC2208Stepper::toff</text>
</a>
</g>
</g>
<!-- Node3&#45;&gt;Node4 -->
<g id="edge4_Node000003_Node000004" class="edge">
<title>Node3&#45;&gt;Node4</title>
<g id="a_edge4_Node000003_Node000004"><a xlink:title=" ">
<path fill="none" stroke="#63b8ff" d="M291.14,-9.62C299.12,-9.62 307.41,-9.62 315.59,-9.62"/>
<polygon fill="#63b8ff" stroke="#63b8ff" points="315.52,-13.13 325.52,-9.63 315.52,-6.13 315.52,-13.13"/>
</a>
</g>
</g>
<!-- Node4&#45;&gt;Node4 -->
<g id="edge5_Node000004_Node000004" class="edge">
<title>Node4&#45;&gt;Node4</title>
<g id="a_edge5_Node000004_Node000004"><a xlink:title=" ">
<path fill="none" stroke="#63b8ff" d="M360.47,-19.54C349.79,-28.15 357.6,-37.25 383.88,-37.25 398.66,-37.25 407.59,-34.37 410.68,-30.32"/>
<polygon fill="#63b8ff" stroke="#63b8ff" points="414.08,-29.46 407.74,-20.98 407.41,-31.57 414.08,-29.46"/>
</a>
</g>
</g>
</g>
</svg>
</svg>

<style type='text/css'>
<![CDATA[
[data-mouse-over-selected='false'] { opacity: 0.7; }
[data-mouse-over-selected='true']  { opacity: 1.0; }
]]>
</style>
<script type="application/ecmascript"><![CDATA[
document.addEventListener('DOMContentLoaded', (event) => {
  highlightEdges();
  highlightAdjacentNodes();
});
]]></script>
</svg>
