<?xml version="1.0" encoding="UTF-8" standalone="no"?>
<!DOCTYPE svg PUBLIC "-//W3C//DTD SVG 1.1//EN"
 "http://www.w3.org/Graphics/SVG/1.1/DTD/svg11.dtd">
<!-- Generated by graphviz version 12.2.1 (20241206.2353)
 -->
<!-- Title: TMC5130Stepper::rms_current Pages: 1 -->
<svg width="579pt" height="82pt"
 viewBox="0.00 0.00 579.00 82.25" xmlns="http://www.w3.org/2000/svg" xmlns:xlink="http://www.w3.org/1999/xlink">
<g id="graph0" class="graph" transform="scale(1 1) rotate(0) translate(4 78.25)">
<title>TMC5130Stepper::rms_current</title>
<!-- Node1 -->
<g id="Node000001" class="node">
<title>Node1</title>
<g id="a_Node000001"><a xlink:title=" ">
<polygon fill="#999999" stroke="#666666" points="115,-51.88 0,-51.88 0,-21.38 115,-21.38 115,-51.88"/>
<text text-anchor="start" x="8" y="-38.38" font-family="Helvetica,sans-Serif" font-size="10.00">TMC5130Stepper::rms</text>
<text text-anchor="middle" x="57.5" y="-27.12" font-family="Helvetica,sans-Serif" font-size="10.00">_current</text>
</a>
</g>
</g>
<!-- Node2 -->
<g id="Node000002" class="node">
<title>Node2</title>
<g id="a_Node000002"><a xlink:href="class_t_m_c_stepper.html#aaa5cfefaf915e98eb9700bda48f99337" target="_top" xlink:title=" ">
<polygon fill="white" stroke="#666666" points="280.25,-46.25 151,-46.25 151,-27 280.25,-27 280.25,-46.25"/>
<text text-anchor="middle" x="215.62" y="-32.75" font-family="Helvetica,sans-Serif" font-size="10.00">TMCStepper::rms_current</text>
</a>
</g>
</g>
<!-- Node1&#45;&gt;Node2 -->
<g id="edge1_Node000001_Node000002" class="edge">
<title>Node1&#45;&gt;Node2</title>
<g id="a_edge1_Node000001_Node000002"><a xlink:title=" ">
<path fill="none" stroke="#63b8ff" d="M115.31,-36.62C123.13,-36.62 131.26,-36.62 139.35,-36.62"/>
<polygon fill="#63b8ff" stroke="#63b8ff" points="139.21,-40.13 149.21,-36.63 139.21,-33.13 139.21,-40.13"/>
</a>
</g>
</g>
<!-- Node3 -->
<g id="Node000003" class="node">
<title>Node3</title>
<g id="a_Node000003"><a xlink:href="class_t_m_c_stepper.html#ae6829e76ae67523a4cb60553dd70fece" target="_top" xlink:title=" ">
<polygon fill="white" stroke="#666666" points="426,-69.25 316.25,-69.25 316.25,-50 426,-50 426,-69.25"/>
<text text-anchor="middle" x="371.12" y="-55.75" font-family="Helvetica,sans-Serif" font-size="10.00">TMCStepper::cs2rms</text>
</a>
</g>
</g>
<!-- Node2&#45;&gt;Node3 -->
<g id="edge2_Node000002_Node000003" class="edge">
<title>Node2&#45;&gt;Node3</title>
<g id="a_edge2_Node000002_Node000003"><a xlink:title=" ">
<path fill="none" stroke="#63b8ff" d="M280.39,-46.18C288.45,-47.39 296.71,-48.62 304.8,-49.84"/>
<polygon fill="#63b8ff" stroke="#63b8ff" points="304.17,-53.28 314.58,-51.3 305.21,-46.36 304.17,-53.28"/>
</a>
</g>
</g>
<!-- Node5 -->
<g id="Node000005" class="node">
<title>Node5</title>
<g id="a_Node000005"><a xlink:href="class_t_m_c_stepper.html#a89f965f7d005e189ef27951f37e699f2" target="_top" xlink:title=" ">
<polygon fill="white" stroke="#666666" points="417.75,-28.25 324.5,-28.25 324.5,-9 417.75,-9 417.75,-28.25"/>
<text text-anchor="middle" x="371.12" y="-14.75" font-family="Helvetica,sans-Serif" font-size="10.00">TMCStepper::irun</text>
</a>
</g>
</g>
<!-- Node2&#45;&gt;Node5 -->
<g id="edge4_Node000002_Node000005" class="edge">
<title>Node2&#45;&gt;Node5</title>
<g id="a_edge4_Node000002_Node000005"><a xlink:title=" ">
<path fill="none" stroke="#63b8ff" d="M280.39,-29.15C291.16,-27.89 302.28,-26.58 312.86,-25.34"/>
<polygon fill="#63b8ff" stroke="#63b8ff" points="313.08,-28.84 322.6,-24.2 312.26,-21.89 313.08,-28.84"/>
</a>
</g>
</g>
<!-- Node4 -->
<g id="Node000004" class="node">
<title>Node4</title>
<g id="a_Node000004"><a xlink:href="class_t_m_c_stepper.html#ab4366bc26a0f6a4bb1c6c33da5919238" target="_top" xlink:title=" ">
<polygon fill="white" stroke="#666666" points="571,-74.25 462,-74.25 462,-55 571,-55 571,-74.25"/>
<text text-anchor="middle" x="516.5" y="-60.75" font-family="Helvetica,sans-Serif" font-size="10.00">TMCStepper::vsense</text>
</a>
</g>
</g>
<!-- Node3&#45;&gt;Node4 -->
<g id="edge3_Node000003_Node000004" class="edge">
<title>Node3&#45;&gt;Node4</title>
<g id="a_edge3_Node000003_Node000004"><a xlink:title=" ">
<path fill="none" stroke="#63b8ff" d="M426.33,-61.52C434.2,-61.79 442.37,-62.07 450.42,-62.36"/>
<polygon fill="#63b8ff" stroke="#63b8ff" points="450.07,-65.85 460.18,-62.7 450.31,-58.85 450.07,-65.85"/>
</a>
</g>
</g>
<!-- Node6 -->
<g id="Node000006" class="node">
<title>Node6</title>
<g id="a_Node000006"><a xlink:href="class_t_m_c_stepper.html#aa82391a803e3103b03fadd9bb597d532" target="_top" xlink:title=" ">
<polygon fill="white" stroke="#666666" points="563.12,-19.25 469.88,-19.25 469.88,0 563.12,0 563.12,-19.25"/>
<text text-anchor="middle" x="516.5" y="-5.75" font-family="Helvetica,sans-Serif" font-size="10.00">TMCStepper::irun</text>
</a>
</g>
</g>
<!-- Node5&#45;&gt;Node6 -->
<g id="edge5_Node000005_Node000006" class="edge">
<title>Node5&#45;&gt;Node6</title>
<g id="a_edge5_Node000005_Node000006"><a xlink:title=" ">
<path fill="none" stroke="#63b8ff" d="M417.88,-15.75C430.82,-14.94 445.05,-14.05 458.56,-13.2"/>
<polygon fill="#63b8ff" stroke="#63b8ff" points="458.41,-16.72 468.17,-12.6 457.97,-9.73 458.41,-16.72"/>
</a>
</g>
</g>
<!-- Node6&#45;&gt;Node6 -->
<g id="edge6_Node000006_Node000006" class="edge">
<title>Node6&#45;&gt;Node6</title>
<g id="a_edge6_Node000006_Node000006"><a xlink:title=" ">
<path fill="none" stroke="#63b8ff" d="M493.74,-19.54C483.36,-28.15 490.95,-37.25 516.5,-37.25 530.87,-37.25 539.56,-34.37 542.57,-30.32"/>
<polygon fill="#63b8ff" stroke="#63b8ff" points="545.98,-29.52 539.7,-20.99 539.29,-31.57 545.98,-29.52"/>
</a>
</g>
</g>
</g>
</svg>
