<?xml version="1.0" encoding="UTF-8" standalone="no"?>
<!DOCTYPE svg PUBLIC "-//W3C//DTD SVG 1.1//EN"
 "http://www.w3.org/Graphics/SVG/1.1/DTD/svg11.dtd">
<!-- Generated by graphviz version 12.2.1 (20241206.2353)
 -->
<!-- Title: TMC2208Stepper::OTP_READ Pages: 1 -->
<!--zoomable 187 -->

<svg id="main" version="1.1" xmlns="http://www.w3.org/2000/svg" xmlns:xlink="http://www.w3.org/1999/xlink" xml:space="preserve" onload="init(evt)">

<style type="text/css"><![CDATA[
.node, .edge {opacity: 0.7;}
.node.selected, .edge.selected {opacity: 1;}
.edge:hover path { stroke: red; }
.edge:hover polygon { stroke: red; fill: red; }
]]></style>

<defs>
  <circle id="rim" cx="0" cy="0" r="7"/>
  <circle id="rim2" cx="0" cy="0" r="3.5"/>
  <g id="zoomPlus">
    <use xlink:href="#rim" fill="#404040"><set attributeName="fill" to="#808080" begin="zoomplus.mouseover" end="zoomplus.mouseout"/></use>
    <path d="M-4,0h8M0,-4v8" fill="none" stroke="white" stroke-width="1.5" pointer-events="none"/>
  </g>
  <g id="zoomMin">
    <use xlink:href="#rim" fill="#404040"><set attributeName="fill" to="#808080" begin="zoomminus.mouseover" end="zoomminus.mouseout"/></use>
    <path d="M-4,0h8" fill="none" stroke="white" stroke-width="1.5" pointer-events="none"/>
  </g>
  <g id="arrowUp" transform="translate(30 24)">
    <use xlink:href="#rim"/>
    <path pointer-events="none" fill="none" stroke="white" stroke-width="1.5" d="M0,-3.0v7 M-2.5,-0.5L0,-3.0L2.5,-0.5"/>
  </g>
  <g id="arrowRight" transform="rotate(90) translate(36 -43)">
    <use xlink:href="#rim"/>
    <path pointer-events="none" fill="none" stroke="white" stroke-width="1.5" d="M0,-3.0v7 M-2.5,-0.5L0,-3.0L2.5,-0.5"/>
  </g>
  <g id="arrowDown" transform="rotate(180) translate(-30 -48)">
    <use xlink:href="#rim"/>
    <path pointer-events="none" fill="none" stroke="white" stroke-width="1.5" d="M0,-3.0v7 M-2.5,-0.5L0,-3.0L2.5,-0.5"/>
  </g>
  <g id="arrowLeft" transform="rotate(270) translate(-36 17)">
    <use xlink:href="#rim"/>
    <path pointer-events="none" fill="none" stroke="white" stroke-width="1.5" d="M0,-3.0v7 M-2.5,-0.5L0,-3.0L2.5,-0.5"/>
  </g>
  <g id="resetDef">
    <use xlink:href="#rim2" fill="#404040"><set attributeName="fill" to="#808080" begin="reset.mouseover" end="reset.mouseout"/></use>
  </g>
</defs>
<script type="application/ecmascript">
var viewWidth = 735;
var viewHeight = 187;
var sectionId = 'dynsection-97';
</script>
<script type="application/ecmascript" xlink:href="svg.min.js"/>
<svg id="graph" class="graph">
<g id="viewport">
<title>TMC2208Stepper::OTP_READ</title>
<!-- Node1 -->
<g id="Node000001" class="node">
<title>Node1</title>
<g id="a_Node000001"><a xlink:title=" ">
<polygon fill="#999999" stroke="#666666" points="152.5,-83.25 0,-83.25 0,-64 152.5,-64 152.5,-83.25"/>
<text text-anchor="middle" x="76.25" y="-69.75" font-family="Helvetica,sans-Serif" font-size="10.00">TMC2208Stepper::OTP_READ</text>
</a>
</g>
</g>
<!-- Node2 -->
<g id="Node000002" class="node">
<title>Node2</title>
<g id="a_Node000002"><a xlink:href="class_t_m_c2208_stepper.html#a2fae2050849c3ab7968012def8ea1cc5" target="_top" xlink:title=" ">
<polygon fill="white" stroke="#666666" points="305.75,-83.25 188.5,-83.25 188.5,-64 305.75,-64 305.75,-83.25"/>
<text text-anchor="middle" x="247.12" y="-69.75" font-family="Helvetica,sans-Serif" font-size="10.00">TMC2208Stepper::read</text>
</a>
</g>
</g>
<!-- Node1&#45;&gt;Node2 -->
<g id="edge1_Node000001_Node000002" class="edge">
<title>Node1&#45;&gt;Node2</title>
<g id="a_edge1_Node000001_Node000002"><a xlink:title=" ">
<path fill="none" stroke="#63b8ff" d="M152.8,-73.62C160.76,-73.62 168.83,-73.62 176.73,-73.62"/>
<polygon fill="#63b8ff" stroke="#63b8ff" points="176.61,-77.13 186.61,-73.63 176.61,-70.13 176.61,-77.13"/>
</a>
</g>
</g>
<!-- Node3 -->
<g id="Node000003" class="node">
<title>Node3</title>
<g id="a_Node000003"><a xlink:href="class_t_m_c2208_stepper.html#a321ad81155b7a20c0858920d32d0b074" target="_top" xlink:title=" ">
<polygon fill="white" stroke="#666666" points="527.25,-142.25 359.75,-142.25 359.75,-123 527.25,-123 527.25,-142.25"/>
<text text-anchor="middle" x="443.5" y="-128.75" font-family="Helvetica,sans-Serif" font-size="10.00">TMC2208Stepper::_sendDatagram</text>
</a>
</g>
</g>
<!-- Node2&#45;&gt;Node3 -->
<g id="edge2_Node000002_Node000003" class="edge">
<title>Node2&#45;&gt;Node3</title>
<g id="a_edge2_Node000002_Node000003"><a xlink:title=" ">
<path fill="none" stroke="#63b8ff" d="M267.34,-83.65C285.92,-92.94 315.09,-106.53 341.75,-114.62 348.39,-116.64 355.35,-118.46 362.37,-120.1"/>
<polygon fill="#63b8ff" stroke="#63b8ff" points="361.43,-123.47 371.95,-122.2 362.93,-116.64 361.43,-123.47"/>
</a>
</g>
</g>
<!-- Node7 -->
<g id="Node000007" class="node">
<title>Node7</title>
<g id="a_Node000007"><a xlink:href="class_t_m_c2208_stepper.html#a409c19fa6b052a370a317d061bf9af4e" target="_top" xlink:title=" ">
<polygon fill="white" stroke="#666666" points="513,-105.25 374,-105.25 374,-86 513,-86 513,-105.25"/>
<text text-anchor="middle" x="443.5" y="-91.75" font-family="Helvetica,sans-Serif" font-size="10.00">TMC2208Stepper::calcCRC</text>
</a>
</g>
</g>
<!-- Node2&#45;&gt;Node7 -->
<g id="edge6_Node000002_Node000007" class="edge">
<title>Node2&#45;&gt;Node7</title>
<g id="a_edge6_Node000002_Node000007"><a xlink:title=" ">
<path fill="none" stroke="#63b8ff" d="M306.18,-80.2C323.87,-82.2 343.62,-84.43 362.49,-86.57"/>
<polygon fill="#63b8ff" stroke="#63b8ff" points="361.95,-90.03 372.28,-87.68 362.74,-83.07 361.95,-90.03"/>
</a>
</g>
</g>
<!-- Node8 -->
<g id="Node000008" class="node">
<title>Node8</title>
<g id="a_Node000008"><a xlink:href="class_t_m_c2208_stepper.html#ab3d186b27f45ec47c1cf0bf15ed4cd2e" target="_top" xlink:title=" ">
<polygon fill="white" stroke="#666666" points="513.75,-67.88 373.25,-67.88 373.25,-37.38 513.75,-37.38 513.75,-67.88"/>
<text text-anchor="start" x="381.25" y="-54.38" font-family="Helvetica,sans-Serif" font-size="10.00">TMC2208Stepper::postRead</text>
<text text-anchor="middle" x="443.5" y="-43.12" font-family="Helvetica,sans-Serif" font-size="10.00">Communication</text>
</a>
</g>
</g>
<!-- Node2&#45;&gt;Node8 -->
<g id="edge7_Node000002_Node000008" class="edge">
<title>Node2&#45;&gt;Node8</title>
<g id="a_edge7_Node000002_Node000008"><a xlink:title=" ">
<path fill="none" stroke="#63b8ff" d="M306.18,-67.35C323.68,-65.46 343.21,-63.35 361.9,-61.33"/>
<polygon fill="#63b8ff" stroke="#63b8ff" points="362.02,-64.84 371.58,-60.29 361.26,-57.88 362.02,-64.84"/>
</a>
</g>
</g>
<!-- Node9 -->
<g id="Node000009" class="node">
<title>Node9</title>
<g id="a_Node000009"><a xlink:href="class_t_m_c2208_stepper.html#a8c4f3ce4a964c9a03a1e14f47bf5bec3" target="_top" xlink:title=" ">
<polygon fill="white" stroke="#666666" points="545.25,-19.25 341.75,-19.25 341.75,0 545.25,0 545.25,-19.25"/>
<text text-anchor="middle" x="443.5" y="-5.75" font-family="Helvetica,sans-Serif" font-size="10.00">TMC2208Stepper::preReadCommunication</text>
</a>
</g>
</g>
<!-- Node2&#45;&gt;Node9 -->
<g id="edge8_Node000002_Node000009" class="edge">
<title>Node2&#45;&gt;Node9</title>
<g id="a_edge8_Node000002_Node000009"><a xlink:title=" ">
<path fill="none" stroke="#63b8ff" d="M265.5,-63.57C283.87,-53.34 313.99,-37.74 341.75,-28.62 349.05,-26.23 356.75,-24.1 364.51,-22.22"/>
<polygon fill="#63b8ff" stroke="#63b8ff" points="365.04,-25.69 374.01,-20.05 363.48,-18.86 365.04,-25.69"/>
</a>
</g>
</g>
<!-- Node4 -->
<g id="Node000004" class="node">
<title>Node4</title>
<g id="a_Node000004"><a xlink:href="class_t_m_c2208_stepper.html#aef33fe13c1d9c19e9ec9abc159147a5d" target="_top" xlink:title=" ">
<polygon fill="white" stroke="#666666" points="722.5,-179.25 585.75,-179.25 585.75,-160 722.5,-160 722.5,-179.25"/>
<text text-anchor="middle" x="654.12" y="-165.75" font-family="Helvetica,sans-Serif" font-size="10.00">TMC2208Stepper::available</text>
</a>
</g>
</g>
<!-- Node3&#45;&gt;Node4 -->
<g id="edge3_Node000003_Node000004" class="edge">
<title>Node3&#45;&gt;Node4</title>
<g id="a_edge3_Node000003_Node000004"><a xlink:title=" ">
<path fill="none" stroke="#63b8ff" d="M501.51,-142.74C527.27,-147.3 557.91,-152.74 584.88,-157.52"/>
<polygon fill="#63b8ff" stroke="#63b8ff" points="584.24,-160.96 594.7,-159.26 585.46,-154.07 584.24,-160.96"/>
</a>
</g>
</g>
<!-- Node5 -->
<g id="Node000005" class="node">
<title>Node5</title>
<g id="a_Node000005"><a xlink:href="class_t_m_c2208_stepper.html#a8214f87693050e222fc24be979f468e2" target="_top" xlink:title=" ">
<polygon fill="white" stroke="#666666" points="727,-142.25 581.25,-142.25 581.25,-123 727,-123 727,-142.25"/>
<text text-anchor="middle" x="654.12" y="-128.75" font-family="Helvetica,sans-Serif" font-size="10.00">TMC2208Stepper::serial_read</text>
</a>
</g>
</g>
<!-- Node3&#45;&gt;Node5 -->
<g id="edge4_Node000003_Node000005" class="edge">
<title>Node3&#45;&gt;Node5</title>
<g id="a_edge4_Node000003_Node000005"><a xlink:title=" ">
<path fill="none" stroke="#63b8ff" d="M527.55,-132.62C541.31,-132.62 555.59,-132.62 569.37,-132.62"/>
<polygon fill="#63b8ff" stroke="#63b8ff" points="569.29,-136.13 579.29,-132.63 569.29,-129.13 569.29,-136.13"/>
</a>
</g>
</g>
<!-- Node6 -->
<g id="Node000006" class="node">
<title>Node6</title>
<g id="a_Node000006"><a xlink:href="class_t_m_c2208_stepper.html#adb6243277ef84d2027b2b8bae6be5bd0" target="_top" xlink:title=" ">
<polygon fill="white" stroke="#666666" points="715,-104.88 593.25,-104.88 593.25,-74.38 715,-74.38 715,-104.88"/>
<text text-anchor="start" x="601.25" y="-91.38" font-family="Helvetica,sans-Serif" font-size="10.00">TMC2208Stepper::serial</text>
<text text-anchor="middle" x="654.12" y="-80.12" font-family="Helvetica,sans-Serif" font-size="10.00">_write</text>
</a>
</g>
</g>
<!-- Node3&#45;&gt;Node6 -->
<g id="edge5_Node000003_Node000006" class="edge">
<title>Node3&#45;&gt;Node6</title>
<g id="a_edge5_Node000003_Node000006"><a xlink:title=" ">
<path fill="none" stroke="#63b8ff" d="M504,-122.51C517.58,-120.06 531.93,-117.36 545.25,-114.62 557.07,-112.2 569.59,-109.46 581.74,-106.71"/>
<polygon fill="#63b8ff" stroke="#63b8ff" points="582.32,-110.16 591.29,-104.52 580.76,-103.34 582.32,-110.16"/>
</a>
</g>
</g>
</g>
</svg>

<g id="navigator" transform="translate(0 0)" fill="#404254">
  <rect fill="#f2f5e9" fill-opacity="0.5" stroke="#606060" stroke-width=".5" x="0" y="0" width="60" height="60"/>
  <use id="zoomplus" xlink:href="#zoomPlus" x="17" y="9" onmousedown="handleZoom(evt,'in')"/>
  <use id="zoomminus" xlink:href="#zoomMin" x="42" y="9" onmousedown="handleZoom(evt,'out')"/>
  <use id="reset" xlink:href="#resetDef" x="30" y="36" onmousedown="handleReset()"/>
   <use id="arrowup" xlink:href="#arrowUp" x="0" y="0" onmousedown="handlePan(0,-1)"/>
  <use id="arrowright" xlink:href="#arrowRight" x="0" y="0" onmousedown="handlePan(1,0)"/>
  <use id="arrowdown" xlink:href="#arrowDown" x="0" y="0" onmousedown="handlePan(0,1)"/>
  <use id="arrowleft" xlink:href="#arrowLeft" x="0" y="0" onmousedown="handlePan(-1,0)"/>
</g>
<svg viewBox="0 0 15 15" width="100%" height="30px" preserveAspectRatio="xMaxYMin meet">
 <g id="arrow_out" transform="scale(0.3 0.3)">
  <a xlink:href="class_t_m_c2208_stepper_a0727482b76d6cd679021f4d1677e5b3a_cgraph_org.svg" target="_base">
   <rect id="button" ry="5" rx="5" y="6" x="6" height="38" width="38"
        fill="#f2f5e9" fill-opacity="0.5" stroke="#606060" stroke-width="1.0"/>
   <path id="arrow"
     d="M 11.500037,31.436501 C 11.940474,20.09759 22.043105,11.32322 32.158766,21.979434 L 37.068811,17.246167 C 37.068811,17.246167 37.088388,32 37.088388,32 L 22.160133,31.978069 C 22.160133,31.978069 26.997745,27.140456 26.997745,27.140456 C 18.528582,18.264221 13.291696,25.230495 11.500037,31.436501 z"
     style="fill:#404040;"/>
  </a>
 </g>
</svg>

<style type='text/css'>
<![CDATA[
[data-mouse-over-selected='false'] { opacity: 0.7; }
[data-mouse-over-selected='true']  { opacity: 1.0; }
]]>
</style>
<script type="application/ecmascript"><![CDATA[
document.addEventListener('DOMContentLoaded', (event) => {
  highlightEdges();
  highlightAdjacentNodes();
});
]]></script>
</svg>
