<?xml version="1.0" encoding="UTF-8" standalone="no"?>
<!DOCTYPE svg PUBLIC "-//W3C//DTD SVG 1.1//EN"
 "http://www.w3.org/Graphics/SVG/1.1/DTD/svg11.dtd">
<!-- Generated by graphviz version 12.2.1 (20241206.2353)
 -->
<!-- Title: TMC2130Stepper::push Pages: 1 -->
<!--zoomable 471 -->

<svg id="main" version="1.1" xmlns="http://www.w3.org/2000/svg" xmlns:xlink="http://www.w3.org/1999/xlink" xml:space="preserve" onload="init(evt)">

<style type="text/css"><![CDATA[
.node, .edge {opacity: 0.7;}
.node.selected, .edge.selected {opacity: 1;}
.edge:hover path { stroke: red; }
.edge:hover polygon { stroke: red; fill: red; }
]]></style>

<defs>
  <circle id="rim" cx="0" cy="0" r="7"/>
  <circle id="rim2" cx="0" cy="0" r="3.5"/>
  <g id="zoomPlus">
    <use xlink:href="#rim" fill="#404040"><set attributeName="fill" to="#808080" begin="zoomplus.mouseover" end="zoomplus.mouseout"/></use>
    <path d="M-4,0h8M0,-4v8" fill="none" stroke="white" stroke-width="1.5" pointer-events="none"/>
  </g>
  <g id="zoomMin">
    <use xlink:href="#rim" fill="#404040"><set attributeName="fill" to="#808080" begin="zoomminus.mouseover" end="zoomminus.mouseout"/></use>
    <path d="M-4,0h8" fill="none" stroke="white" stroke-width="1.5" pointer-events="none"/>
  </g>
  <g id="arrowUp" transform="translate(30 24)">
    <use xlink:href="#rim"/>
    <path pointer-events="none" fill="none" stroke="white" stroke-width="1.5" d="M0,-3.0v7 M-2.5,-0.5L0,-3.0L2.5,-0.5"/>
  </g>
  <g id="arrowRight" transform="rotate(90) translate(36 -43)">
    <use xlink:href="#rim"/>
    <path pointer-events="none" fill="none" stroke="white" stroke-width="1.5" d="M0,-3.0v7 M-2.5,-0.5L0,-3.0L2.5,-0.5"/>
  </g>
  <g id="arrowDown" transform="rotate(180) translate(-30 -48)">
    <use xlink:href="#rim"/>
    <path pointer-events="none" fill="none" stroke="white" stroke-width="1.5" d="M0,-3.0v7 M-2.5,-0.5L0,-3.0L2.5,-0.5"/>
  </g>
  <g id="arrowLeft" transform="rotate(270) translate(-36 17)">
    <use xlink:href="#rim"/>
    <path pointer-events="none" fill="none" stroke="white" stroke-width="1.5" d="M0,-3.0v7 M-2.5,-0.5L0,-3.0L2.5,-0.5"/>
  </g>
  <g id="resetDef">
    <use xlink:href="#rim2" fill="#404040"><set attributeName="fill" to="#808080" begin="reset.mouseover" end="reset.mouseout"/></use>
  </g>
</defs>
<script type="application/ecmascript">
var viewWidth = 477;
var viewHeight = 471;
var sectionId = 'dynsection-129';
</script>
<script type="application/ecmascript" xlink:href="svg.min.js"/>
<svg id="graph" class="graph">
<g id="viewport">
<title>TMC2130Stepper::push</title>
<!-- Node1 -->
<g id="Node000001" class="node">
<title>Node1</title>
<g id="a_Node000001"><a xlink:title=" ">
<polygon fill="#999999" stroke="#666666" points="119.5,-241.25 0,-241.25 0,-222 119.5,-222 119.5,-241.25"/>
<text text-anchor="middle" x="59.75" y="-227.75" font-family="Helvetica,sans-Serif" font-size="10.00">TMC2130Stepper::push</text>
</a>
</g>
</g>
<!-- Node2 -->
<g id="Node000002" class="node">
<title>Node2</title>
<g id="a_Node000002"><a xlink:href="class_t_m_c2130_stepper.html#a67541b27d97ce45f175e9f6e4a2d0bff" target="_top" xlink:title=" ">
<polygon fill="white" stroke="#666666" points="313.62,-463.25 157.38,-463.25 157.38,-444 313.62,-444 313.62,-463.25"/>
<text text-anchor="middle" x="235.5" y="-449.75" font-family="Helvetica,sans-Serif" font-size="10.00">TMC2130Stepper::CHOPCONF</text>
</a>
</g>
</g>
<!-- Node1&#45;&gt;Node2 -->
<g id="edge1_Node000001_Node000002" class="edge">
<title>Node1&#45;&gt;Node2</title>
<g id="a_edge1_Node000001_Node000002"><a xlink:title=" ">
<path fill="none" stroke="#63b8ff" d="M62.24,-241.58C67.76,-274.83 90.22,-382.83 155.5,-435.62 156.48,-436.42 157.5,-437.18 158.54,-437.91"/>
<polygon fill="#63b8ff" stroke="#63b8ff" points="156.75,-440.92 167.16,-442.89 160.25,-434.86 156.75,-440.92"/>
</a>
</g>
</g>
<!-- Node4 -->
<g id="Node000004" class="node">
<title>Node4</title>
<g id="a_Node000004"><a xlink:href="class_t_m_c2130_stepper.html#abc48be984238d94bb3b72ed3aa26f028" target="_top" xlink:title=" ">
<polygon fill="white" stroke="#666666" points="312.88,-426.25 158.12,-426.25 158.12,-407 312.88,-407 312.88,-426.25"/>
<text text-anchor="middle" x="235.5" y="-412.75" font-family="Helvetica,sans-Serif" font-size="10.00">TMC2130Stepper::COOLCONF</text>
</a>
</g>
</g>
<!-- Node1&#45;&gt;Node4 -->
<g id="edge3_Node000001_Node000004" class="edge">
<title>Node1&#45;&gt;Node4</title>
<g id="a_edge3_Node000001_Node000004"><a xlink:title=" ">
<path fill="none" stroke="#63b8ff" d="M63.27,-241.4C71.29,-270.42 99.06,-356.66 155.5,-398.62 156.84,-399.62 158.23,-400.56 159.65,-401.46"/>
<polygon fill="#63b8ff" stroke="#63b8ff" points="157.71,-404.39 168.2,-405.93 160.96,-398.19 157.71,-404.39"/>
</a>
</g>
</g>
<!-- Node5 -->
<g id="Node000005" class="node">
<title>Node5</title>
<g id="a_Node000005"><a xlink:href="class_t_m_c2130_stepper.html#a1a90b2919efe61dd825552c2fbeca993" target="_top" xlink:title=" ">
<polygon fill="white" stroke="#666666" points="305.38,-389.25 165.62,-389.25 165.62,-370 305.38,-370 305.38,-389.25"/>
<text text-anchor="middle" x="235.5" y="-375.75" font-family="Helvetica,sans-Serif" font-size="10.00">TMC2130Stepper::DCCTRL</text>
</a>
</g>
</g>
<!-- Node1&#45;&gt;Node5 -->
<g id="edge4_Node000001_Node000005" class="edge">
<title>Node1&#45;&gt;Node5</title>
<g id="a_edge4_Node000001_Node000005"><a xlink:title=" ">
<path fill="none" stroke="#63b8ff" d="M65,-241.66C76,-266.34 107.92,-330.28 155.5,-361.62 157.31,-362.81 159.18,-363.93 161.11,-364.97"/>
<polygon fill="#63b8ff" stroke="#63b8ff" points="159.2,-367.94 169.75,-368.94 162.13,-361.58 159.2,-367.94"/>
</a>
</g>
</g>
<!-- Node6 -->
<g id="Node000006" class="node">
<title>Node6</title>
<g id="a_Node000006"><a xlink:href="class_t_m_c2130_stepper.html#ae9ccc393519579143c2afb67da9d02a3" target="_top" xlink:title=" ">
<polygon fill="white" stroke="#666666" points="315.5,-352.25 155.5,-352.25 155.5,-333 315.5,-333 315.5,-352.25"/>
<text text-anchor="middle" x="235.5" y="-338.75" font-family="Helvetica,sans-Serif" font-size="10.00">TMC2130Stepper::ENCM_CTRL</text>
</a>
</g>
</g>
<!-- Node1&#45;&gt;Node6 -->
<g id="edge6_Node000001_Node000006" class="edge">
<title>Node1&#45;&gt;Node6</title>
<g id="a_edge6_Node000001_Node000006"><a xlink:title=" ">
<path fill="none" stroke="#63b8ff" d="M67.83,-241.57C82.08,-260.83 116.26,-303.19 155.5,-324.62 158.04,-326.01 160.68,-327.29 163.39,-328.47"/>
<polygon fill="#63b8ff" stroke="#63b8ff" points="162.11,-331.73 172.7,-332.02 164.6,-325.19 162.11,-331.73"/>
</a>
</g>
</g>
<!-- Node7 -->
<g id="Node000007" class="node">
<title>Node7</title>
<g id="a_Node000007"><a xlink:href="class_t_m_c2130_stepper.html#aee84a9abfc84b387c6ae5658f90bf684" target="_top" xlink:title=" ">
<polygon fill="white" stroke="#666666" points="302.75,-315.25 168.25,-315.25 168.25,-296 302.75,-296 302.75,-315.25"/>
<text text-anchor="middle" x="235.5" y="-301.75" font-family="Helvetica,sans-Serif" font-size="10.00">TMC2130Stepper::GCONF</text>
</a>
</g>
</g>
<!-- Node1&#45;&gt;Node7 -->
<g id="edge7_Node000001_Node000007" class="edge">
<title>Node1&#45;&gt;Node7</title>
<g id="a_edge7_Node000001_Node000007"><a xlink:title=" ">
<path fill="none" stroke="#63b8ff" d="M74.49,-241.61C92.31,-254.12 124.79,-275.4 155.5,-287.62 159.84,-289.35 164.38,-290.93 169,-292.38"/>
<polygon fill="#63b8ff" stroke="#63b8ff" points="167.82,-295.68 178.4,-295.09 169.76,-288.96 167.82,-295.68"/>
</a>
</g>
</g>
<!-- Node8 -->
<g id="Node000008" class="node">
<title>Node8</title>
<g id="a_Node000008"><a xlink:href="class_t_m_c_stepper.html#a597bc308bad0d1198b98c48a6ef34fc3" target="_top" xlink:title=" ">
<polygon fill="white" stroke="#666666" points="305,-278.25 166,-278.25 166,-259 305,-259 305,-278.25"/>
<text text-anchor="middle" x="235.5" y="-264.75" font-family="Helvetica,sans-Serif" font-size="10.00">TMCStepper::IHOLD_IRUN</text>
</a>
</g>
</g>
<!-- Node1&#45;&gt;Node8 -->
<g id="edge9_Node000001_Node000008" class="edge">
<title>Node1&#45;&gt;Node8</title>
<g id="a_edge9_Node000001_Node000008"><a xlink:title=" ">
<path fill="none" stroke="#63b8ff" d="M108.23,-241.74C129.11,-246.18 153.83,-251.45 175.85,-256.14"/>
<polygon fill="#63b8ff" stroke="#63b8ff" points="175.09,-259.55 185.6,-258.21 176.55,-252.71 175.09,-259.55"/>
</a>
</g>
</g>
<!-- Node9 -->
<g id="Node000009" class="node">
<title>Node9</title>
<g id="a_Node000009"><a xlink:href="class_t_m_c2130_stepper.html#a357d105f7350a08dfad82c05a39042eb" target="_top" xlink:title=" ">
<polygon fill="white" stroke="#666666" points="311.38,-241.25 159.62,-241.25 159.62,-222 311.38,-222 311.38,-241.25"/>
<text text-anchor="middle" x="235.5" y="-227.75" font-family="Helvetica,sans-Serif" font-size="10.00">TMC2130Stepper::PWMCONF</text>
</a>
</g>
</g>
<!-- Node1&#45;&gt;Node9 -->
<g id="edge10_Node000001_Node000009" class="edge">
<title>Node1&#45;&gt;Node9</title>
<g id="a_edge10_Node000001_Node000009"><a xlink:title=" ">
<path fill="none" stroke="#63b8ff" d="M119.57,-231.62C128.77,-231.62 138.44,-231.62 148.1,-231.62"/>
<polygon fill="#63b8ff" stroke="#63b8ff" points="147.9,-235.13 157.9,-231.63 147.9,-228.13 147.9,-235.13"/>
</a>
</g>
</g>
<!-- Node10 -->
<g id="Node000010" class="node">
<title>Node10</title>
<g id="a_Node000010"><a xlink:href="class_t_m_c2130_stepper.html#a5db9c2e01d8c1994a5c58d0bf0b1d9b1" target="_top" xlink:title=" ">
<polygon fill="white" stroke="#666666" points="315.5,-204.25 155.5,-204.25 155.5,-185 315.5,-185 315.5,-204.25"/>
<text text-anchor="middle" x="235.5" y="-190.75" font-family="Helvetica,sans-Serif" font-size="10.00">TMC2130Stepper::TCOOLTHRS</text>
</a>
</g>
</g>
<!-- Node1&#45;&gt;Node10 -->
<g id="edge11_Node000001_Node000010" class="edge">
<title>Node1&#45;&gt;Node10</title>
<g id="a_edge11_Node000001_Node000010"><a xlink:title=" ">
<path fill="none" stroke="#63b8ff" d="M108.23,-221.51C129.11,-217.07 153.83,-211.8 175.85,-207.11"/>
<polygon fill="#63b8ff" stroke="#63b8ff" points="176.55,-210.54 185.6,-205.04 175.09,-203.7 176.55,-210.54"/>
</a>
</g>
</g>
<!-- Node11 -->
<g id="Node000011" class="node">
<title>Node11</title>
<g id="a_Node000011"><a xlink:href="class_t_m_c2130_stepper.html#a8e7d22e8bc39e89b4a02ad1460e4cf25" target="_top" xlink:title=" ">
<polygon fill="white" stroke="#666666" points="300.5,-167.25 170.5,-167.25 170.5,-148 300.5,-148 300.5,-167.25"/>
<text text-anchor="middle" x="235.5" y="-153.75" font-family="Helvetica,sans-Serif" font-size="10.00">TMC2130Stepper::THIGH</text>
</a>
</g>
</g>
<!-- Node1&#45;&gt;Node11 -->
<g id="edge12_Node000001_Node000011" class="edge">
<title>Node1&#45;&gt;Node11</title>
<g id="a_edge12_Node000001_Node000011"><a xlink:title=" ">
<path fill="none" stroke="#63b8ff" d="M74.49,-221.64C92.31,-209.13 124.79,-187.85 155.5,-175.62 159.84,-173.9 164.38,-172.32 169,-170.87"/>
<polygon fill="#63b8ff" stroke="#63b8ff" points="169.76,-174.29 178.4,-168.16 167.82,-167.57 169.76,-174.29"/>
</a>
</g>
</g>
<!-- Node12 -->
<g id="Node000012" class="node">
<title>Node12</title>
<g id="a_Node000012"><a xlink:href="class_t_m_c_stepper.html#a66812c883dfbb6dedc046a011b2564be" target="_top" xlink:title=" ">
<polygon fill="white" stroke="#666666" points="312.5,-130.25 158.5,-130.25 158.5,-111 312.5,-111 312.5,-130.25"/>
<text text-anchor="middle" x="235.5" y="-116.75" font-family="Helvetica,sans-Serif" font-size="10.00">TMCStepper::TPOWERDOWN</text>
</a>
</g>
</g>
<!-- Node1&#45;&gt;Node12 -->
<g id="edge13_Node000001_Node000012" class="edge">
<title>Node1&#45;&gt;Node12</title>
<g id="a_edge13_Node000001_Node000012"><a xlink:title=" ">
<path fill="none" stroke="#63b8ff" d="M67.83,-221.68C82.08,-202.42 116.26,-160.06 155.5,-138.62 158.04,-137.24 160.68,-135.96 163.39,-134.78"/>
<polygon fill="#63b8ff" stroke="#63b8ff" points="164.6,-138.06 172.7,-131.23 162.11,-131.52 164.6,-138.06"/>
</a>
</g>
</g>
<!-- Node13 -->
<g id="Node000013" class="node">
<title>Node13</title>
<g id="a_Node000013"><a xlink:href="class_t_m_c_stepper.html#ac59a9305aafc64a63698a34cac404788" target="_top" xlink:title=" ">
<polygon fill="white" stroke="#666666" points="303.5,-93.25 167.5,-93.25 167.5,-74 303.5,-74 303.5,-93.25"/>
<text text-anchor="middle" x="235.5" y="-79.75" font-family="Helvetica,sans-Serif" font-size="10.00">TMCStepper::TPWMTHRS</text>
</a>
</g>
</g>
<!-- Node1&#45;&gt;Node13 -->
<g id="edge14_Node000001_Node000013" class="edge">
<title>Node1&#45;&gt;Node13</title>
<g id="a_edge14_Node000001_Node000013"><a xlink:title=" ">
<path fill="none" stroke="#63b8ff" d="M65,-221.59C76,-196.91 107.92,-132.97 155.5,-101.62 157.31,-100.44 159.18,-99.32 161.11,-98.28"/>
<polygon fill="#63b8ff" stroke="#63b8ff" points="162.13,-101.67 169.75,-94.31 159.2,-95.31 162.13,-101.67"/>
</a>
</g>
</g>
<!-- Node14 -->
<g id="Node000014" class="node">
<title>Node14</title>
<g id="a_Node000014"><a xlink:href="class_t_m_c2130_stepper.html#a4389f7f07c57d2267351b781c6031fb4" target="_top" xlink:title=" ">
<polygon fill="white" stroke="#666666" points="305,-56.25 166,-56.25 166,-37 305,-37 305,-56.25"/>
<text text-anchor="middle" x="235.5" y="-42.75" font-family="Helvetica,sans-Serif" font-size="10.00">TMC2130Stepper::VDCMIN</text>
</a>
</g>
</g>
<!-- Node1&#45;&gt;Node14 -->
<g id="edge15_Node000001_Node000014" class="edge">
<title>Node1&#45;&gt;Node14</title>
<g id="a_edge15_Node000001_Node000014"><a xlink:title=" ">
<path fill="none" stroke="#63b8ff" d="M63.27,-221.85C71.29,-192.83 99.06,-106.59 155.5,-64.62 156.84,-63.63 158.23,-62.69 159.65,-61.79"/>
<polygon fill="#63b8ff" stroke="#63b8ff" points="160.96,-65.06 168.2,-57.32 157.71,-58.86 160.96,-65.06"/>
</a>
</g>
</g>
<!-- Node15 -->
<g id="Node000015" class="node">
<title>Node15</title>
<g id="a_Node000015"><a xlink:href="class_t_m_c2130_stepper.html#af486cd4712be021c735fc3bcb8eee9f5" target="_top" xlink:title=" ">
<polygon fill="white" stroke="#666666" points="307.25,-19.25 163.75,-19.25 163.75,0 307.25,0 307.25,-19.25"/>
<text text-anchor="middle" x="235.5" y="-5.75" font-family="Helvetica,sans-Serif" font-size="10.00">TMC2130Stepper::XDIRECT</text>
</a>
</g>
</g>
<!-- Node1&#45;&gt;Node15 -->
<g id="edge16_Node000001_Node000015" class="edge">
<title>Node1&#45;&gt;Node15</title>
<g id="a_edge16_Node000001_Node000015"><a xlink:title=" ">
<path fill="none" stroke="#63b8ff" d="M62.24,-221.67C67.76,-188.42 90.22,-80.42 155.5,-27.62 156.48,-26.83 157.5,-26.07 158.54,-25.34"/>
<polygon fill="#63b8ff" stroke="#63b8ff" points="160.25,-28.39 167.16,-20.36 156.75,-22.33 160.25,-28.39"/>
</a>
</g>
</g>
<!-- Node3 -->
<g id="Node000003" class="node">
<title>Node3</title>
<g id="a_Node000003"><a xlink:href="class_t_m_c2130_stepper.html#aed0175bff6e80ebc14e0d2606283cbe0" target="_top" xlink:title=" ">
<polygon fill="white" stroke="#666666" points="468.75,-352.25 351.5,-352.25 351.5,-333 468.75,-333 468.75,-352.25"/>
<text text-anchor="middle" x="410.12" y="-338.75" font-family="Helvetica,sans-Serif" font-size="10.00">TMC2130Stepper::read</text>
</a>
</g>
</g>
<!-- Node2&#45;&gt;Node3 -->
<g id="edge2_Node000002_Node000003" class="edge">
<title>Node2&#45;&gt;Node3</title>
<g id="a_edge2_Node000002_Node000003"><a xlink:title=" ">
<path fill="none" stroke="#63b8ff" d="M296.91,-443.6C303.38,-441.44 309.71,-438.81 315.5,-435.62 349.12,-417.13 378.82,-383.03 395.34,-361.66"/>
<polygon fill="#63b8ff" stroke="#63b8ff" points="398.05,-363.89 401.25,-353.79 392.45,-359.68 398.05,-363.89"/>
</a>
</g>
</g>
<!-- Node5&#45;&gt;Node3 -->
<g id="edge5_Node000005_Node000003" class="edge">
<title>Node5&#45;&gt;Node3</title>
<g id="a_edge5_Node000005_Node000003"><a xlink:title=" ">
<path fill="none" stroke="#63b8ff" d="M283.67,-369.51C304.41,-365.07 328.98,-359.8 350.85,-355.11"/>
<polygon fill="#63b8ff" stroke="#63b8ff" points="351.49,-358.56 360.53,-353.04 350.02,-351.71 351.49,-358.56"/>
</a>
</g>
</g>
<!-- Node7&#45;&gt;Node3 -->
<g id="edge8_Node000007_Node000003" class="edge">
<title>Node7&#45;&gt;Node3</title>
<g id="a_edge8_Node000007_Node000003"><a xlink:title=" ">
<path fill="none" stroke="#63b8ff" d="M283.67,-315.74C304.41,-320.18 328.98,-325.45 350.85,-330.14"/>
<polygon fill="#63b8ff" stroke="#63b8ff" points="350.02,-333.54 360.53,-332.21 351.49,-326.69 350.02,-333.54"/>
</a>
</g>
</g>
<!-- Node15&#45;&gt;Node3 -->
<g id="edge17_Node000015_Node000003" class="edge">
<title>Node15&#45;&gt;Node3</title>
<g id="a_edge17_Node000015_Node000003"><a xlink:title=" ">
<path fill="none" stroke="#63b8ff" d="M304.19,-19.58C308.29,-21.8 312.11,-24.45 315.5,-27.62 401.62,-108.34 409.69,-264.32 409.62,-321.2"/>
<polygon fill="#63b8ff" stroke="#63b8ff" points="406.12,-321.05 409.5,-331.09 413.12,-321.14 406.12,-321.05"/>
</a>
</g>
</g>
</g>
</svg>

<g id="navigator" transform="translate(0 0)" fill="#404254">
  <rect fill="#f2f5e9" fill-opacity="0.5" stroke="#606060" stroke-width=".5" x="0" y="0" width="60" height="60"/>
  <use id="zoomplus" xlink:href="#zoomPlus" x="17" y="9" onmousedown="handleZoom(evt,'in')"/>
  <use id="zoomminus" xlink:href="#zoomMin" x="42" y="9" onmousedown="handleZoom(evt,'out')"/>
  <use id="reset" xlink:href="#resetDef" x="30" y="36" onmousedown="handleReset()"/>
   <use id="arrowup" xlink:href="#arrowUp" x="0" y="0" onmousedown="handlePan(0,-1)"/>
  <use id="arrowright" xlink:href="#arrowRight" x="0" y="0" onmousedown="handlePan(1,0)"/>
  <use id="arrowdown" xlink:href="#arrowDown" x="0" y="0" onmousedown="handlePan(0,1)"/>
  <use id="arrowleft" xlink:href="#arrowLeft" x="0" y="0" onmousedown="handlePan(-1,0)"/>
</g>
<svg viewBox="0 0 15 15" width="100%" height="30px" preserveAspectRatio="xMaxYMin meet">
 <g id="arrow_out" transform="scale(0.3 0.3)">
  <a xlink:href="class_t_m_c2130_stepper_ac62d32ad08be0a34b411bdd5a8489246_cgraph_org.svg" target="_base">
   <rect id="button" ry="5" rx="5" y="6" x="6" height="38" width="38"
        fill="#f2f5e9" fill-opacity="0.5" stroke="#606060" stroke-width="1.0"/>
   <path id="arrow"
     d="M 11.500037,31.436501 C 11.940474,20.09759 22.043105,11.32322 32.158766,21.979434 L 37.068811,17.246167 C 37.068811,17.246167 37.088388,32 37.088388,32 L 22.160133,31.978069 C 22.160133,31.978069 26.997745,27.140456 26.997745,27.140456 C 18.528582,18.264221 13.291696,25.230495 11.500037,31.436501 z"
     style="fill:#404040;"/>
  </a>
 </g>
</svg>

<style type='text/css'>
<![CDATA[
[data-mouse-over-selected='false'] { opacity: 0.7; }
[data-mouse-over-selected='true']  { opacity: 1.0; }
]]>
</style>
<script type="application/ecmascript"><![CDATA[
document.addEventListener('DOMContentLoaded', (event) => {
  highlightEdges();
  highlightAdjacentNodes();
});
]]></script>
</svg>
