<?xml version="1.0" encoding="UTF-8" standalone="no"?>
<!DOCTYPE svg PUBLIC "-//W3C//DTD SVG 1.1//EN"
 "http://www.w3.org/Graphics/SVG/1.1/DTD/svg11.dtd">
<!-- Generated by graphviz version 12.2.1 (20241206.2353)
 -->
<!-- Title: TMC2660Stepper::isEnabled Pages: 1 -->
<svg width="447pt" height="45pt"
 viewBox="0.00 0.00 446.75 45.25" xmlns="http://www.w3.org/2000/svg" xmlns:xlink="http://www.w3.org/1999/xlink">
<g id="graph0" class="graph" transform="scale(1 1) rotate(0) translate(4 41.25)">
<title>TMC2660Stepper::isEnabled</title>
<!-- Node1 -->
<g id="Node000001" class="node">
<title>Node1</title>
<g id="a_Node000001"><a xlink:title=" ">
<polygon fill="#999999" stroke="#666666" points="141.25,-19.25 0,-19.25 0,0 141.25,0 141.25,-19.25"/>
<text text-anchor="middle" x="70.62" y="-5.75" font-family="Helvetica,sans-Serif" font-size="10.00">TMC2660Stepper::isEnabled</text>
</a>
</g>
</g>
<!-- Node2 -->
<g id="Node000002" class="node">
<title>Node2</title>
<g id="a_Node000002"><a xlink:href="class_t_m_c2660_stepper.html#abe01a905588d5feb41ec3a967512027f" target="_top" xlink:title=" ">
<polygon fill="white" stroke="#666666" points="290,-19.25 177.25,-19.25 177.25,0 290,0 290,-19.25"/>
<text text-anchor="middle" x="233.62" y="-5.75" font-family="Helvetica,sans-Serif" font-size="10.00">TMC2660Stepper::toff</text>
</a>
</g>
</g>
<!-- Node1&#45;&gt;Node2 -->
<g id="edge1_Node000001_Node000002" class="edge">
<title>Node1&#45;&gt;Node2</title>
<g id="a_edge1_Node000001_Node000002"><a xlink:title=" ">
<path fill="none" stroke="#63b8ff" d="M141.31,-9.62C149.3,-9.62 157.44,-9.62 165.4,-9.62"/>
<polygon fill="#63b8ff" stroke="#63b8ff" points="165.38,-13.13 175.38,-9.63 165.38,-6.13 165.38,-13.13"/>
</a>
</g>
</g>
<!-- Node3 -->
<g id="Node000003" class="node">
<title>Node3</title>
<g id="a_Node000003"><a xlink:href="class_t_m_c2660_stepper.html#ae0067aef27a3b77f7bd02670fcd87332" target="_top" xlink:title=" ">
<polygon fill="white" stroke="#666666" points="438.75,-19.25 326,-19.25 326,0 438.75,0 438.75,-19.25"/>
<text text-anchor="middle" x="382.38" y="-5.75" font-family="Helvetica,sans-Serif" font-size="10.00">TMC2660Stepper::toff</text>
</a>
</g>
</g>
<!-- Node2&#45;&gt;Node3 -->
<g id="edge2_Node000002_Node000003" class="edge">
<title>Node2&#45;&gt;Node3</title>
<g id="a_edge2_Node000002_Node000003"><a xlink:title=" ">
<path fill="none" stroke="#63b8ff" d="M290.1,-9.62C298.05,-9.62 306.29,-9.62 314.43,-9.62"/>
<polygon fill="#63b8ff" stroke="#63b8ff" points="314.3,-13.13 324.3,-9.63 314.3,-6.13 314.3,-13.13"/>
</a>
</g>
</g>
<!-- Node3&#45;&gt;Node3 -->
<g id="edge3_Node000003_Node000003" class="edge">
<title>Node3&#45;&gt;Node3</title>
<g id="a_edge3_Node000003_Node000003"><a xlink:title=" ">
<path fill="none" stroke="#63b8ff" d="M359.09,-19.54C348.47,-28.15 356.23,-37.25 382.38,-37.25 397.08,-37.25 405.97,-34.37 409.05,-30.32"/>
<polygon fill="#63b8ff" stroke="#63b8ff" points="412.45,-29.47 406.12,-20.98 405.77,-31.57 412.45,-29.47"/>
</a>
</g>
</g>
</g>
</svg>
