<?xml version="1.0" encoding="UTF-8" standalone="no"?>
<!DOCTYPE svg PUBLIC "-//W3C//DTD SVG 1.1//EN"
 "http://www.w3.org/Graphics/SVG/1.1/DTD/svg11.dtd">
<!-- Generated by graphviz version 12.2.1 (20241206.2353)
 -->
<!-- Title: TMC2660Stepper::DRVCTRL Pages: 1 -->
<svg width="501pt" height="82pt"
 viewBox="0.00 0.00 500.75 82.25" xmlns="http://www.w3.org/2000/svg" xmlns:xlink="http://www.w3.org/1999/xlink">
<g id="graph0" class="graph" transform="scale(1 1) rotate(0) translate(4 78.25)">
<title>TMC2660Stepper::DRVCTRL</title>
<!-- Node1 -->
<g id="Node000001" class="node">
<title>Node1</title>
<g id="a_Node000001"><a xlink:title=" ">
<polygon fill="#999999" stroke="#666666" points="146.5,-37.25 0,-37.25 0,-18 146.5,-18 146.5,-37.25"/>
<text text-anchor="middle" x="73.25" y="-23.75" font-family="Helvetica,sans-Serif" font-size="10.00">TMC2660Stepper::DRVCTRL</text>
</a>
</g>
</g>
<!-- Node2 -->
<g id="Node000002" class="node">
<title>Node2</title>
<g id="a_Node000002"><a xlink:href="class_t_m_c2660_stepper.html#aa20df51be5967e40cc23132a1d461275" target="_top" xlink:title=" ">
<polygon fill="white" stroke="#666666" points="302.75,-56.25 182.5,-56.25 182.5,-37 302.75,-37 302.75,-56.25"/>
<text text-anchor="middle" x="242.62" y="-42.75" font-family="Helvetica,sans-Serif" font-size="10.00">TMC2660Stepper::sdoff</text>
</a>
</g>
</g>
<!-- Node1&#45;&gt;Node2 -->
<g id="edge1_Node000001_Node000002" class="edge">
<title>Node1&#45;&gt;Node2</title>
<g id="a_edge1_Node000001_Node000002"><a xlink:title=" ">
<path fill="none" stroke="#63b8ff" d="M146.69,-35.85C154.74,-36.76 162.92,-37.69 170.95,-38.6"/>
<polygon fill="#63b8ff" stroke="#63b8ff" points="170.32,-42.05 180.65,-39.7 171.11,-35.1 170.32,-42.05"/>
</a>
</g>
</g>
<!-- Node4 -->
<g id="Node000004" class="node">
<title>Node4</title>
<g id="a_Node000004"><a xlink:href="class_t_m_c2660_stepper.html#a4ab9b5cf6da0c345ecc50e877b54ada2" target="_top" xlink:title=" ">
<polygon fill="white" stroke="#666666" points="302.38,-19.25 182.88,-19.25 182.88,0 302.38,0 302.38,-19.25"/>
<text text-anchor="middle" x="242.62" y="-5.75" font-family="Helvetica,sans-Serif" font-size="10.00">TMC2660Stepper::write</text>
</a>
</g>
</g>
<!-- Node1&#45;&gt;Node4 -->
<g id="edge4_Node000001_Node000004" class="edge">
<title>Node1&#45;&gt;Node4</title>
<g id="a_edge4_Node000001_Node000004"><a xlink:title=" ">
<path fill="none" stroke="#63b8ff" d="M146.69,-19.83C154.8,-18.96 163.05,-18.08 171.13,-17.21"/>
<polygon fill="#63b8ff" stroke="#63b8ff" points="171.34,-20.7 180.9,-16.16 170.59,-13.74 171.34,-20.7"/>
</a>
</g>
</g>
<!-- Node3 -->
<g id="Node000003" class="node">
<title>Node3</title>
<g id="a_Node000003"><a xlink:href="class_t_m_c2660_stepper.html#af6b9772d151924e000c051ecff34d313" target="_top" xlink:title=" ">
<polygon fill="white" stroke="#666666" points="475.88,-56.25 355.62,-56.25 355.62,-37 475.88,-37 475.88,-56.25"/>
<text text-anchor="middle" x="415.75" y="-42.75" font-family="Helvetica,sans-Serif" font-size="10.00">TMC2660Stepper::sdoff</text>
</a>
</g>
</g>
<!-- Node2&#45;&gt;Node3 -->
<g id="edge2_Node000002_Node000003" class="edge">
<title>Node2&#45;&gt;Node3</title>
<g id="a_edge2_Node000002_Node000003"><a xlink:title=" ">
<path fill="none" stroke="#63b8ff" d="M303,-46.62C316.19,-46.62 330.31,-46.62 343.92,-46.62"/>
<polygon fill="#63b8ff" stroke="#63b8ff" points="343.68,-50.13 353.68,-46.63 343.68,-43.13 343.68,-50.13"/>
</a>
</g>
</g>
<!-- Node3&#45;&gt;Node3 -->
<g id="edge3_Node000003_Node000003" class="edge">
<title>Node3&#45;&gt;Node3</title>
<g id="a_edge3_Node000003_Node000003"><a xlink:title=" ">
<path fill="none" stroke="#63b8ff" d="M388.65,-56.54C376.28,-65.15 385.32,-74.25 415.75,-74.25 432.87,-74.25 443.22,-71.37 446.79,-67.32"/>
<polygon fill="#63b8ff" stroke="#63b8ff" points="450.09,-66.15 443.37,-57.96 443.52,-68.55 450.09,-66.15"/>
</a>
</g>
</g>
<!-- Node5 -->
<g id="Node000005" class="node">
<title>Node5</title>
<g id="a_Node000005"><a xlink:href="class_t_m_c2660_stepper.html#a63505ee4078e1f060a2ccecc30f228bd" target="_top" xlink:title=" ">
<polygon fill="white" stroke="#666666" points="492.75,-19.25 338.75,-19.25 338.75,0 492.75,0 492.75,-19.25"/>
<text text-anchor="middle" x="415.75" y="-5.75" font-family="Helvetica,sans-Serif" font-size="10.00">TMC2660Stepper::switchCSpin</text>
</a>
</g>
</g>
<!-- Node4&#45;&gt;Node5 -->
<g id="edge5_Node000004_Node000005" class="edge">
<title>Node4&#45;&gt;Node5</title>
<g id="a_edge5_Node000004_Node000005"><a xlink:title=" ">
<path fill="none" stroke="#63b8ff" d="M302.52,-9.62C310.49,-9.62 318.81,-9.62 327.16,-9.62"/>
<polygon fill="#63b8ff" stroke="#63b8ff" points="327.01,-13.13 337.01,-9.63 327.01,-6.13 327.01,-13.13"/>
</a>
</g>
</g>
</g>
</svg>
