<?xml version="1.0" encoding="UTF-8" standalone="no"?>
<!DOCTYPE svg PUBLIC "-//W3C//DTD SVG 1.1//EN"
 "http://www.w3.org/Graphics/SVG/1.1/DTD/svg11.dtd">
<!-- Generated by graphviz version 12.2.1 (20241206.2353)
 -->
<!-- Title: TMC2160Stepper::TMC2160Stepper Pages: 1 -->
<svg width="563pt" height="82pt"
 viewBox="0.00 0.00 563.00 82.25" xmlns="http://www.w3.org/2000/svg" xmlns:xlink="http://www.w3.org/1999/xlink">
<g id="graph0" class="graph" transform="scale(1 1) rotate(0) translate(4 78.25)">
<title>TMC2160Stepper::TMC2160Stepper</title>
<!-- Node1 -->
<g id="Node000001" class="node">
<title>Node1</title>
<g id="a_Node000001"><a xlink:title=" ">
<polygon fill="#999999" stroke="#666666" points="175,-55.25 0,-55.25 0,-36 175,-36 175,-55.25"/>
<text text-anchor="middle" x="87.5" y="-41.75" font-family="Helvetica,sans-Serif" font-size="10.00">TMC2160Stepper::TMC2160Stepper</text>
</a>
</g>
</g>
<!-- Node2 -->
<g id="Node000002" class="node">
<title>Node2</title>
<g id="a_Node000002"><a xlink:href="class_t_m_c2160_stepper.html#a5e55442fa6cd92580197a8a0d34208b1" target="_top" xlink:title=" ">
<polygon fill="white" stroke="#666666" points="365,-74.25 232,-74.25 232,-55 365,-55 365,-74.25"/>
<text text-anchor="middle" x="298.5" y="-60.75" font-family="Helvetica,sans-Serif" font-size="10.00">TMC2160Stepper::defaults</text>
</a>
</g>
</g>
<!-- Node1&#45;&gt;Node2 -->
<g id="edge1_Node000001_Node000002" class="edge">
<title>Node1&#45;&gt;Node2</title>
<g id="a_edge1_Node000001_Node000002"><a xlink:title=" ">
<path fill="none" stroke="#63b8ff" d="M175.32,-53.52C190.33,-54.88 205.85,-56.29 220.58,-57.63"/>
<polygon fill="#63b8ff" stroke="#63b8ff" points="219.88,-61.08 230.16,-58.5 220.52,-54.11 219.88,-61.08"/>
</a>
</g>
</g>
<!-- Node3 -->
<g id="Node000003" class="node">
<title>Node3</title>
<g id="a_Node000003"><a xlink:href="class_t_m_c2130_stepper.html#a5ba7c4f0262fc2715b47e33c2e419fea" target="_top" xlink:title=" ">
<polygon fill="white" stroke="#666666" points="386,-37.25 211,-37.25 211,-18 386,-18 386,-37.25"/>
<text text-anchor="middle" x="298.5" y="-23.75" font-family="Helvetica,sans-Serif" font-size="10.00">TMC2130Stepper::TMC2130Stepper</text>
</a>
</g>
</g>
<!-- Node1&#45;&gt;Node3 -->
<g id="edge2_Node000001_Node000003" class="edge">
<title>Node1&#45;&gt;Node3</title>
<g id="a_edge2_Node000001_Node000003"><a xlink:title=" ">
<path fill="none" stroke="#63b8ff" d="M175.32,-38.15C183.25,-37.46 191.31,-36.77 199.33,-36.08"/>
<polygon fill="#63b8ff" stroke="#63b8ff" points="199.44,-39.58 209.11,-35.24 198.84,-32.61 199.44,-39.58"/>
</a>
</g>
</g>
<!-- Node4 -->
<g id="Node000004" class="node">
<title>Node4</title>
<g id="a_Node000004"><a xlink:href="class_t_m_c2130_stepper.html#abd1d08df305673b41b1b9c3106fb9c68" target="_top" xlink:title=" ">
<polygon fill="white" stroke="#666666" points="555,-56.25 422,-56.25 422,-37 555,-37 555,-56.25"/>
<text text-anchor="middle" x="488.5" y="-42.75" font-family="Helvetica,sans-Serif" font-size="10.00">TMC2130Stepper::defaults</text>
</a>
</g>
</g>
<!-- Node3&#45;&gt;Node4 -->
<g id="edge3_Node000003_Node000004" class="edge">
<title>Node3&#45;&gt;Node4</title>
<g id="a_edge3_Node000003_Node000004"><a xlink:title=" ">
<path fill="none" stroke="#63b8ff" d="M386.35,-36.4C394.3,-37.21 402.32,-38.02 410.18,-38.81"/>
<polygon fill="#63b8ff" stroke="#63b8ff" points="409.74,-42.28 420.04,-39.81 410.44,-35.32 409.74,-42.28"/>
</a>
</g>
</g>
<!-- Node5 -->
<g id="Node000005" class="node">
<title>Node5</title>
<g id="a_Node000005"><a xlink:href="class_t_m_c_stepper.html#a8a8813bde06653e0b66f93e57387a02f" target="_top" xlink:title=" ">
<polygon fill="white" stroke="#666666" points="555,-19.25 422,-19.25 422,0 555,0 555,-19.25"/>
<text text-anchor="middle" x="488.5" y="-5.75" font-family="Helvetica,sans-Serif" font-size="10.00">TMCStepper::TMCStepper</text>
</a>
</g>
</g>
<!-- Node3&#45;&gt;Node5 -->
<g id="edge4_Node000003_Node000005" class="edge">
<title>Node3&#45;&gt;Node5</title>
<g id="a_edge4_Node000003_Node000005"><a xlink:title=" ">
<path fill="none" stroke="#63b8ff" d="M386.35,-19.31C394.3,-18.55 402.32,-17.78 410.18,-17.03"/>
<polygon fill="#63b8ff" stroke="#63b8ff" points="410.42,-20.52 420.04,-16.08 409.75,-13.55 410.42,-20.52"/>
</a>
</g>
</g>
</g>
</svg>
