<?xml version="1.0" encoding="UTF-8" standalone="no"?>
<!DOCTYPE svg PUBLIC "-//W3C//DTD SVG 1.1//EN"
 "http://www.w3.org/Graphics/SVG/1.1/DTD/svg11.dtd">
<!-- Generated by graphviz version 12.2.1 (20241206.2353)
 -->
<!-- Title: TMCStepper::IHOLD_IRUN Pages: 1 -->
<svg width="463pt" height="249pt"
 viewBox="0.00 0.00 462.50 249.25" xmlns="http://www.w3.org/2000/svg" xmlns:xlink="http://www.w3.org/1999/xlink">
<g id="graph0" class="graph" transform="scale(1 1) rotate(0) translate(4 245.25)">
<title>TMCStepper::IHOLD_IRUN</title>
<!-- Node1 -->
<g id="Node000001" class="node">
<title>Node1</title>
<g id="a_Node000001"><a xlink:title=" ">
<polygon fill="#999999" stroke="#666666" points="454.5,-130.25 315.5,-130.25 315.5,-111 454.5,-111 454.5,-130.25"/>
<text text-anchor="middle" x="385" y="-116.75" font-family="Helvetica,sans-Serif" font-size="10.00">TMCStepper::IHOLD_IRUN</text>
</a>
</g>
</g>
<!-- Node2 -->
<g id="Node000002" class="node">
<title>Node2</title>
<g id="a_Node000002"><a xlink:href="class_t_m_c2160_stepper.html#a7ee48b042245ef5b3968b82029d1404c" target="_top" xlink:title=" ">
<polygon fill="white" stroke="#666666" points="279.5,-241.25 157.75,-241.25 157.75,-222 279.5,-222 279.5,-241.25"/>
<text text-anchor="middle" x="218.62" y="-227.75" font-family="Helvetica,sans-Serif" font-size="10.00">TMC2160Stepper::begin</text>
</a>
</g>
</g>
<!-- Node1&#45;&gt;Node2 -->
<g id="edge1_Node000001_Node000002" class="edge">
<title>Node1&#45;&gt;Node2</title>
<g id="a_edge1_Node000001_Node000002"><a xlink:title=" ">
<path fill="none" stroke="#63b8ff" d="M368.11,-138.94C349.04,-159.84 315.14,-193.71 279.5,-213.62 273.91,-216.75 267.72,-219.39 261.49,-221.6"/>
<polygon fill="#63b8ff" stroke="#63b8ff" points="370.5,-141.51 374.55,-131.72 365.28,-136.85 370.5,-141.51"/>
</a>
</g>
</g>
<!-- Node4 -->
<g id="Node000004" class="node">
<title>Node4</title>
<g id="a_Node000004"><a xlink:href="class_t_m_c2130_stepper.html#ac62d32ad08be0a34b411bdd5a8489246" target="_top" xlink:title=" ">
<polygon fill="white" stroke="#666666" points="278.38,-204.25 158.88,-204.25 158.88,-185 278.38,-185 278.38,-204.25"/>
<text text-anchor="middle" x="218.62" y="-190.75" font-family="Helvetica,sans-Serif" font-size="10.00">TMC2130Stepper::push</text>
</a>
</g>
</g>
<!-- Node1&#45;&gt;Node4 -->
<g id="edge3_Node000001_Node000004" class="edge">
<title>Node1&#45;&gt;Node4</title>
<g id="a_edge3_Node000001_Node000004"><a xlink:title=" ">
<path fill="none" stroke="#63b8ff" d="M358.2,-136.33C337.47,-148.48 307.33,-165.12 279.5,-176.62 272.48,-179.53 264.82,-182.19 257.4,-184.52"/>
<polygon fill="#63b8ff" stroke="#63b8ff" points="359.74,-139.49 366.55,-131.37 356.16,-133.47 359.74,-139.49"/>
</a>
</g>
</g>
<!-- Node5 -->
<g id="Node000005" class="node">
<title>Node5</title>
<g id="a_Node000005"><a xlink:href="class_t_m_c2160_stepper.html#ae8035a0cb8151d5227d8528e540e637d" target="_top" xlink:title=" ">
<polygon fill="white" stroke="#666666" points="278.38,-167.25 158.88,-167.25 158.88,-148 278.38,-148 278.38,-167.25"/>
<text text-anchor="middle" x="218.62" y="-153.75" font-family="Helvetica,sans-Serif" font-size="10.00">TMC2160Stepper::push</text>
</a>
</g>
</g>
<!-- Node1&#45;&gt;Node5 -->
<g id="edge4_Node000001_Node000005" class="edge">
<title>Node1&#45;&gt;Node5</title>
<g id="a_edge4_Node000001_Node000005"><a xlink:title=" ">
<path fill="none" stroke="#63b8ff" d="M327.88,-133.26C307.2,-137.91 284.05,-143.12 264.49,-147.53"/>
<polygon fill="#63b8ff" stroke="#63b8ff" points="328.62,-136.68 337.61,-131.07 327.08,-129.85 328.62,-136.68"/>
</a>
</g>
</g>
<!-- Node6 -->
<g id="Node000006" class="node">
<title>Node6</title>
<g id="a_Node000006"><a xlink:href="class_t_m_c2208_stepper.html#a8eb0d71fbfeeb24c9092328c44fab7e5" target="_top" xlink:title=" ">
<polygon fill="white" stroke="#666666" points="278.38,-130.25 158.88,-130.25 158.88,-111 278.38,-111 278.38,-130.25"/>
<text text-anchor="middle" x="218.62" y="-116.75" font-family="Helvetica,sans-Serif" font-size="10.00">TMC2208Stepper::push</text>
</a>
</g>
</g>
<!-- Node1&#45;&gt;Node6 -->
<g id="edge5_Node000001_Node000006" class="edge">
<title>Node1&#45;&gt;Node6</title>
<g id="a_edge5_Node000001_Node000006"><a xlink:title=" ">
<path fill="none" stroke="#63b8ff" d="M303.78,-120.62C295.33,-120.62 286.86,-120.62 278.71,-120.62"/>
<polygon fill="#63b8ff" stroke="#63b8ff" points="303.73,-124.13 313.73,-120.63 303.73,-117.13 303.73,-124.13"/>
</a>
</g>
</g>
<!-- Node7 -->
<g id="Node000007" class="node">
<title>Node7</title>
<g id="a_Node000007"><a xlink:href="class_t_m_c2209_stepper.html#a180f4b9a78e526592d946ec12f71982e" target="_top" xlink:title=" ">
<polygon fill="white" stroke="#666666" points="278.38,-93.25 158.88,-93.25 158.88,-74 278.38,-74 278.38,-93.25"/>
<text text-anchor="middle" x="218.62" y="-79.75" font-family="Helvetica,sans-Serif" font-size="10.00">TMC2209Stepper::push</text>
</a>
</g>
</g>
<!-- Node1&#45;&gt;Node7 -->
<g id="edge6_Node000001_Node000007" class="edge">
<title>Node1&#45;&gt;Node7</title>
<g id="a_edge6_Node000001_Node000007"><a xlink:title=" ">
<path fill="none" stroke="#63b8ff" d="M327.88,-107.99C307.2,-103.34 284.05,-98.13 264.49,-93.72"/>
<polygon fill="#63b8ff" stroke="#63b8ff" points="327.08,-111.4 337.61,-110.18 328.62,-104.57 327.08,-111.4"/>
</a>
</g>
</g>
<!-- Node8 -->
<g id="Node000008" class="node">
<title>Node8</title>
<g id="a_Node000008"><a xlink:href="class_t_m_c5130_stepper.html#a55e61f5181d74f26c9d35c54e4436d7a" target="_top" xlink:title=" ">
<polygon fill="white" stroke="#666666" points="278.38,-56.25 158.88,-56.25 158.88,-37 278.38,-37 278.38,-56.25"/>
<text text-anchor="middle" x="218.62" y="-42.75" font-family="Helvetica,sans-Serif" font-size="10.00">TMC5130Stepper::push</text>
</a>
</g>
</g>
<!-- Node1&#45;&gt;Node8 -->
<g id="edge7_Node000001_Node000008" class="edge">
<title>Node1&#45;&gt;Node8</title>
<g id="a_edge7_Node000001_Node000008"><a xlink:title=" ">
<path fill="none" stroke="#63b8ff" d="M358.2,-104.92C337.47,-92.77 307.33,-76.13 279.5,-64.62 272.48,-61.72 264.82,-59.06 257.4,-56.73"/>
<polygon fill="#63b8ff" stroke="#63b8ff" points="356.16,-107.78 366.55,-109.88 359.74,-101.76 356.16,-107.78"/>
</a>
</g>
</g>
<!-- Node9 -->
<g id="Node000009" class="node">
<title>Node9</title>
<g id="a_Node000009"><a xlink:href="class_t_m_c5160_stepper.html#a5a12974304588f9d01898d91ba854b87" target="_top" xlink:title=" ">
<polygon fill="white" stroke="#666666" points="278.38,-19.25 158.88,-19.25 158.88,0 278.38,0 278.38,-19.25"/>
<text text-anchor="middle" x="218.62" y="-5.75" font-family="Helvetica,sans-Serif" font-size="10.00">TMC5160Stepper::push</text>
</a>
</g>
</g>
<!-- Node1&#45;&gt;Node9 -->
<g id="edge8_Node000001_Node000009" class="edge">
<title>Node1&#45;&gt;Node9</title>
<g id="a_edge8_Node000001_Node000009"><a xlink:title=" ">
<path fill="none" stroke="#63b8ff" d="M368.11,-102.31C349.04,-81.41 315.14,-47.54 279.5,-27.62 273.91,-24.5 267.72,-21.86 261.49,-19.65"/>
<polygon fill="#63b8ff" stroke="#63b8ff" points="365.28,-104.4 374.55,-109.53 370.5,-99.74 365.28,-104.4"/>
</a>
</g>
</g>
<!-- Node3 -->
<g id="Node000003" class="node">
<title>Node3</title>
<g id="a_Node000003"><a xlink:href="class_t_m_c5130_stepper.html#a897212f81817cdaee4536d642badc149" target="_top" xlink:title=" ">
<polygon fill="white" stroke="#666666" points="121.75,-241.25 0,-241.25 0,-222 121.75,-222 121.75,-241.25"/>
<text text-anchor="middle" x="60.88" y="-227.75" font-family="Helvetica,sans-Serif" font-size="10.00">TMC5130Stepper::begin</text>
</a>
</g>
</g>
<!-- Node2&#45;&gt;Node3 -->
<g id="edge2_Node000002_Node000003" class="edge">
<title>Node2&#45;&gt;Node3</title>
<g id="a_edge2_Node000002_Node000003"><a xlink:title=" ">
<path fill="none" stroke="#63b8ff" d="M146.17,-231.62C138.15,-231.62 130.05,-231.62 122.19,-231.62"/>
<polygon fill="#63b8ff" stroke="#63b8ff" points="145.89,-235.13 155.89,-231.63 145.89,-228.13 145.89,-235.13"/>
</a>
</g>
</g>
</g>
</svg>
