<?xml version="1.0" encoding="UTF-8" standalone="no"?>
<!DOCTYPE svg PUBLIC "-//W3C//DTD SVG 1.1//EN"
 "http://www.w3.org/Graphics/SVG/1.1/DTD/svg11.dtd">
<!-- Generated by graphviz version 12.2.1 (20241206.2353)
 -->
<!-- Title: TMC2208Stepper Pages: 1 -->
<svg width="222pt" height="100pt"
 viewBox="0.00 0.00 221.94 99.75" xmlns="http://www.w3.org/2000/svg" xmlns:xlink="http://www.w3.org/1999/xlink">

<svg id="main" version="1.1" xmlns="http://www.w3.org/2000/svg" xmlns:xlink="http://www.w3.org/1999/xlink" xml:space="preserve">

<style type="text/css"><![CDATA[
.node, .edge {opacity: 0.7;}
.node.selected, .edge.selected {opacity: 1;}
.edge:hover path { stroke: red; }
.edge:hover polygon { stroke: red; fill: red; }
]]></style>
<script type="application/ecmascript" xlink:href="svg.min.js"/>
<svg id="graph" class="graph">
<g id="graph0" class="graph" transform="scale(1 1) rotate(0) translate(4 95.75)">
<title>TMC2208Stepper</title>
<!-- Node1 -->
<g id="Node000001" class="node">
<title>Node1</title>
<g id="a_Node000001"><a xlink:title=" ">
<polygon fill="#999999" stroke="#666666" points="160,-19.25 67.5,-19.25 67.5,0 160,0 160,-19.25"/>
<text text-anchor="middle" x="113.75" y="-5.75" font-family="Helvetica,sans-Serif" font-size="10.00">TMC2208Stepper</text>
</a>
</g>
</g>
<!-- Node2 -->
<g id="Node000002" class="node">
<title>Node2</title>
<g id="a_Node000002"><a xlink:href="class_t_m_c_stepper.html" target="_top" xlink:title=" ">
<polygon fill="white" stroke="#666666" points="71.5,-91.75 0,-91.75 0,-72.5 71.5,-72.5 71.5,-91.75"/>
<text text-anchor="middle" x="35.75" y="-78.25" font-family="Helvetica,sans-Serif" font-size="10.00">TMCStepper</text>
</a>
</g>
</g>
<!-- Node2&#45;&gt;Node1 -->
<g id="edge1_Node000001_Node000002" class="edge">
<title>Node2&#45;&gt;Node1</title>
<g id="a_edge1_Node000001_Node000002"><a xlink:title=" ">
<path fill="none" stroke="#63b8ff" d="M53.92,-64.7C69.43,-50.68 91.15,-31.05 103.71,-19.7"/>
<polygon fill="#63b8ff" stroke="#63b8ff" points="51.82,-61.88 46.75,-71.18 56.52,-67.07 51.82,-61.88"/>
</a>
</g>
</g>
<!-- Node3 -->
<g id="Node000003" class="node">
<title>Node3</title>
<g id="a_Node000003"><a xlink:href="class_stream.html" target="_top" xlink:title=" ">
<polygon fill="white" stroke="#666666" points="137.5,-91.75 90,-91.75 90,-72.5 137.5,-72.5 137.5,-91.75"/>
<text text-anchor="middle" x="113.75" y="-78.25" font-family="Helvetica,sans-Serif" font-size="10.00">Stream</text>
</a>
</g>
</g>
<!-- Node3&#45;&gt;Node1 -->
<g id="edge2_Node000001_Node000003" class="edge">
<title>Node3&#45;&gt;Node1</title>
<g id="a_edge2_Node000001_Node000003"><a xlink:title=" ">
<path fill="none" stroke="#9a32cd" stroke-dasharray="5,2" d="M113.75,-61.05C113.75,-47.44 113.75,-30.1 113.75,-19.7"/>
<polygon fill="#9a32cd" stroke="#9a32cd" points="110.25,-60.68 113.75,-70.68 117.25,-60.68 110.25,-60.68"/>
</a>
</g>
<text text-anchor="start" x="116.75" y="-42" font-family="Helvetica,sans-Serif" font-size="10.00" fill="grey">HWSerial</text>
</g>
<!-- Node4 -->
<g id="Node000004" class="node">
<title>Node4</title>
<g id="a_Node000004"><a xlink:href="class_s_switch.html" target="_top" xlink:title=" ">
<polygon fill="white" stroke="#666666" points="211.12,-91.75 158.38,-91.75 158.38,-72.5 211.12,-72.5 211.12,-91.75"/>
<text text-anchor="middle" x="184.75" y="-78.25" font-family="Helvetica,sans-Serif" font-size="10.00">SSwitch</text>
</a>
</g>
</g>
<!-- Node4&#45;&gt;Node1 -->
<g id="edge3_Node000001_Node000004" class="edge">
<title>Node4&#45;&gt;Node1</title>
<g id="a_edge3_Node000001_Node000004"><a xlink:title=" ">
<path fill="none" stroke="#9a32cd" stroke-dasharray="5,2" d="M177.95,-61.49C174.38,-53.28 169.35,-44.08 162.75,-37.25 155.61,-29.87 145.99,-24.04 137.15,-19.74"/>
<polygon fill="#9a32cd" stroke="#9a32cd" points="174.63,-62.61 181.49,-70.68 181.16,-60.09 174.63,-62.61"/>
</a>
</g>
<text text-anchor="start" x="177.19" y="-42" font-family="Helvetica,sans-Serif" font-size="10.00" fill="grey">sswitch</text>
</g>
</g>
</svg>
</svg>

<style type='text/css'>
<![CDATA[
[data-mouse-over-selected='false'] { opacity: 0.7; }
[data-mouse-over-selected='true']  { opacity: 1.0; }
]]>
</style>
<script type="application/ecmascript"><![CDATA[
document.addEventListener('DOMContentLoaded', (event) => {
  highlightEdges();
  highlightAdjacentNodes();
});
]]></script>
</svg>
