<?xml version="1.0" encoding="UTF-8" standalone="no"?>
<!DOCTYPE svg PUBLIC "-//W3C//DTD SVG 1.1//EN"
 "http://www.w3.org/Graphics/SVG/1.1/DTD/svg11.dtd">
<!-- Generated by graphviz version 12.2.1 (20241206.2353)
 -->
<!-- Title: TMC2660Stepper::intpol Pages: 1 -->
<svg width="442pt" height="45pt"
 viewBox="0.00 0.00 442.25 45.25" xmlns="http://www.w3.org/2000/svg" xmlns:xlink="http://www.w3.org/1999/xlink">

<svg id="main" version="1.1" xmlns="http://www.w3.org/2000/svg" xmlns:xlink="http://www.w3.org/1999/xlink" xml:space="preserve">

<style type="text/css"><![CDATA[
.node, .edge {opacity: 0.7;}
.node.selected, .edge.selected {opacity: 1;}
.edge:hover path { stroke: red; }
.edge:hover polygon { stroke: red; fill: red; }
]]></style>
<script type="application/ecmascript" xlink:href="svg.min.js"/>
<svg id="graph" class="graph">
<g id="graph0" class="graph" transform="scale(1 1) rotate(0) translate(4 41.25)">
<title>TMC2660Stepper::intpol</title>
<!-- Node1 -->
<g id="Node000001" class="node">
<title>Node1</title>
<g id="a_Node000001"><a xlink:title=" ">
<polygon fill="#999999" stroke="#666666" points="121.75,-19.25 0,-19.25 0,0 121.75,0 121.75,-19.25"/>
<text text-anchor="middle" x="60.88" y="-5.75" font-family="Helvetica,sans-Serif" font-size="10.00">TMC2660Stepper::intpol</text>
</a>
</g>
</g>
<!-- Node1&#45;&gt;Node1 -->
<g id="edge1_Node000001_Node000001" class="edge">
<title>Node1&#45;&gt;Node1</title>
<g id="a_edge1_Node000001_Node000001"><a xlink:title=" ">
<path fill="none" stroke="#63b8ff" d="M36.3,-19.54C25.08,-28.15 33.28,-37.25 60.88,-37.25 76.4,-37.25 85.78,-34.37 89.03,-30.32"/>
<polygon fill="#63b8ff" stroke="#63b8ff" points="92.4,-29.37 85.93,-20.97 85.75,-31.57 92.4,-29.37"/>
</a>
</g>
</g>
<!-- Node2 -->
<g id="Node000002" class="node">
<title>Node2</title>
<g id="a_Node000002"><a xlink:href="class_t_m_c2660_stepper.html#aa20df51be5967e40cc23132a1d461275" target="_top" xlink:title=" ">
<polygon fill="white" stroke="#666666" points="278,-19.25 157.75,-19.25 157.75,0 278,0 278,-19.25"/>
<text text-anchor="middle" x="217.88" y="-5.75" font-family="Helvetica,sans-Serif" font-size="10.00">TMC2660Stepper::sdoff</text>
</a>
</g>
</g>
<!-- Node1&#45;&gt;Node2 -->
<g id="edge2_Node000001_Node000002" class="edge">
<title>Node1&#45;&gt;Node2</title>
<g id="a_edge2_Node000001_Node000002"><a xlink:title=" ">
<path fill="none" stroke="#63b8ff" d="M122.25,-9.62C130.01,-9.62 138.02,-9.62 145.94,-9.62"/>
<polygon fill="#63b8ff" stroke="#63b8ff" points="145.92,-13.13 155.92,-9.63 145.92,-6.13 145.92,-13.13"/>
</a>
</g>
</g>
<!-- Node3 -->
<g id="Node000003" class="node">
<title>Node3</title>
<g id="a_Node000003"><a xlink:href="class_t_m_c2660_stepper.html#af6b9772d151924e000c051ecff34d313" target="_top" xlink:title=" ">
<polygon fill="white" stroke="#666666" points="434.25,-19.25 314,-19.25 314,0 434.25,0 434.25,-19.25"/>
<text text-anchor="middle" x="374.12" y="-5.75" font-family="Helvetica,sans-Serif" font-size="10.00">TMC2660Stepper::sdoff</text>
</a>
</g>
</g>
<!-- Node2&#45;&gt;Node3 -->
<g id="edge3_Node000002_Node000003" class="edge">
<title>Node2&#45;&gt;Node3</title>
<g id="a_edge3_Node000002_Node000003"><a xlink:title=" ">
<path fill="none" stroke="#63b8ff" d="M278.07,-9.62C285.98,-9.62 294.16,-9.62 302.25,-9.62"/>
<polygon fill="#63b8ff" stroke="#63b8ff" points="302.06,-13.13 312.06,-9.63 302.06,-6.13 302.06,-13.13"/>
</a>
</g>
</g>
<!-- Node3&#45;&gt;Node3 -->
<g id="edge4_Node000003_Node000003" class="edge">
<title>Node3&#45;&gt;Node3</title>
<g id="a_edge4_Node000003_Node000003"><a xlink:title=" ">
<path fill="none" stroke="#63b8ff" d="M349.66,-19.54C338.51,-28.15 346.66,-37.25 374.12,-37.25 389.57,-37.25 398.91,-34.37 402.14,-30.32"/>
<polygon fill="#63b8ff" stroke="#63b8ff" points="405.52,-29.38 399.06,-20.98 398.87,-31.57 405.52,-29.38"/>
</a>
</g>
</g>
</g>
</svg>
</svg>

<style type='text/css'>
<![CDATA[
[data-mouse-over-selected='false'] { opacity: 0.7; }
[data-mouse-over-selected='true']  { opacity: 1.0; }
]]>
</style>
<script type="application/ecmascript"><![CDATA[
document.addEventListener('DOMContentLoaded', (event) => {
  highlightEdges();
  highlightAdjacentNodes();
});
]]></script>
</svg>
