<?xml version="1.0" encoding="UTF-8" standalone="no"?>
<!DOCTYPE svg PUBLIC "-//W3C//DTD SVG 1.1//EN"
 "http://www.w3.org/Graphics/SVG/1.1/DTD/svg11.dtd">
<!-- Generated by graphviz version 12.2.1 (20241206.2353)
 -->
<!-- Title: TMC2130Stepper::CHOPCONF Pages: 1 -->
<svg width="480pt" height="224pt"
 viewBox="0.00 0.00 479.75 224.25" xmlns="http://www.w3.org/2000/svg" xmlns:xlink="http://www.w3.org/1999/xlink">
<g id="graph0" class="graph" transform="scale(1 1) rotate(0) translate(4 220.25)">
<title>TMC2130Stepper::CHOPCONF</title>
<!-- Node1 -->
<g id="Node000001" class="node">
<title>Node1</title>
<g id="a_Node000001"><a xlink:title=" ">
<polygon fill="#999999" stroke="#666666" points="471.75,-111.25 315.5,-111.25 315.5,-92 471.75,-92 471.75,-111.25"/>
<text text-anchor="middle" x="393.62" y="-97.75" font-family="Helvetica,sans-Serif" font-size="10.00">TMC2130Stepper::CHOPCONF</text>
</a>
</g>
</g>
<!-- Node2 -->
<g id="Node000002" class="node">
<title>Node2</title>
<g id="a_Node000002"><a xlink:href="class_t_m_c2160_stepper.html#a7ee48b042245ef5b3968b82029d1404c" target="_top" xlink:title=" ">
<polygon fill="white" stroke="#666666" points="279.5,-216.25 157.75,-216.25 157.75,-197 279.5,-197 279.5,-216.25"/>
<text text-anchor="middle" x="218.62" y="-202.75" font-family="Helvetica,sans-Serif" font-size="10.00">TMC2160Stepper::begin</text>
</a>
</g>
</g>
<!-- Node1&#45;&gt;Node2 -->
<g id="edge1_Node000001_Node000002" class="edge">
<title>Node1&#45;&gt;Node2</title>
<g id="a_edge1_Node000001_Node000002"><a xlink:title=" ">
<path fill="none" stroke="#63b8ff" d="M373.8,-119.22C352.41,-138.38 315.74,-168.82 279.5,-187.62 272.82,-191.09 265.39,-194.07 258.1,-196.57"/>
<polygon fill="#63b8ff" stroke="#63b8ff" points="376.09,-121.86 381.12,-112.54 371.37,-116.69 376.09,-121.86"/>
</a>
</g>
</g>
<!-- Node4 -->
<g id="Node000004" class="node">
<title>Node4</title>
<g id="a_Node000004"><a xlink:href="class_t_m_c2130_stepper.html#a40d14a29633b28c3af989a273fd5b1e9" target="_top" xlink:title=" ">
<polygon fill="white" stroke="#666666" points="277.62,-178.88 159.62,-178.88 159.62,-148.38 277.62,-148.38 277.62,-178.88"/>
<text text-anchor="start" x="167.62" y="-165.38" font-family="Helvetica,sans-Serif" font-size="10.00">TMC2130Stepper::INIT</text>
<text text-anchor="middle" x="218.62" y="-154.12" font-family="Helvetica,sans-Serif" font-size="10.00">_REGISTER</text>
</a>
</g>
</g>
<!-- Node1&#45;&gt;Node4 -->
<g id="edge3_Node000001_Node000004" class="edge">
<title>Node1&#45;&gt;Node4</title>
<g id="a_edge3_Node000001_Node000004"><a xlink:title=" ">
<path fill="none" stroke="#63b8ff" d="M353.9,-115.5C327.05,-125.13 291.24,-137.96 263.36,-147.95"/>
<polygon fill="#63b8ff" stroke="#63b8ff" points="354.79,-118.9 363.02,-112.23 352.43,-112.31 354.79,-118.9"/>
</a>
</g>
</g>
<!-- Node5 -->
<g id="Node000005" class="node">
<title>Node5</title>
<g id="a_Node000005"><a xlink:href="class_t_m_c2130_stepper.html#ac62d32ad08be0a34b411bdd5a8489246" target="_top" xlink:title=" ">
<polygon fill="white" stroke="#666666" points="278.38,-130.25 158.88,-130.25 158.88,-111 278.38,-111 278.38,-130.25"/>
<text text-anchor="middle" x="218.62" y="-116.75" font-family="Helvetica,sans-Serif" font-size="10.00">TMC2130Stepper::push</text>
</a>
</g>
</g>
<!-- Node1&#45;&gt;Node5 -->
<g id="edge4_Node000001_Node000005" class="edge">
<title>Node1&#45;&gt;Node5</title>
<g id="a_edge4_Node000001_Node000005"><a xlink:title=" ">
<path fill="none" stroke="#63b8ff" d="M304.01,-111.36C295.46,-112.3 286.94,-113.23 278.78,-114.13"/>
<polygon fill="#63b8ff" stroke="#63b8ff" points="304.17,-114.86 313.73,-110.29 303.41,-107.9 304.17,-114.86"/>
</a>
</g>
</g>
<!-- Node6 -->
<g id="Node000006" class="node">
<title>Node6</title>
<g id="a_Node000006"><a xlink:href="class_t_m_c2160_stepper.html#ae8035a0cb8151d5227d8528e540e637d" target="_top" xlink:title=" ">
<polygon fill="white" stroke="#666666" points="278.38,-93.25 158.88,-93.25 158.88,-74 278.38,-74 278.38,-93.25"/>
<text text-anchor="middle" x="218.62" y="-79.75" font-family="Helvetica,sans-Serif" font-size="10.00">TMC2160Stepper::push</text>
</a>
</g>
</g>
<!-- Node1&#45;&gt;Node6 -->
<g id="edge5_Node000001_Node000006" class="edge">
<title>Node1&#45;&gt;Node6</title>
<g id="a_edge5_Node000001_Node000006"><a xlink:title=" ">
<path fill="none" stroke="#63b8ff" d="M304.01,-92.4C295.46,-91.52 286.94,-90.63 278.78,-89.78"/>
<polygon fill="#63b8ff" stroke="#63b8ff" points="303.42,-95.86 313.73,-93.42 304.14,-88.9 303.42,-95.86"/>
</a>
</g>
</g>
<!-- Node7 -->
<g id="Node000007" class="node">
<title>Node7</title>
<g id="a_Node000007"><a xlink:href="class_t_m_c5130_stepper.html#a55e61f5181d74f26c9d35c54e4436d7a" target="_top" xlink:title=" ">
<polygon fill="white" stroke="#666666" points="278.38,-56.25 158.88,-56.25 158.88,-37 278.38,-37 278.38,-56.25"/>
<text text-anchor="middle" x="218.62" y="-42.75" font-family="Helvetica,sans-Serif" font-size="10.00">TMC5130Stepper::push</text>
</a>
</g>
</g>
<!-- Node1&#45;&gt;Node7 -->
<g id="edge6_Node000001_Node000007" class="edge">
<title>Node1&#45;&gt;Node7</title>
<g id="a_edge6_Node000001_Node000007"><a xlink:title=" ">
<path fill="none" stroke="#63b8ff" d="M351.74,-87.99C330.27,-80.9 303.51,-72.16 279.5,-64.62 271.11,-61.99 262.04,-59.22 253.55,-56.67"/>
<polygon fill="#63b8ff" stroke="#63b8ff" points="350.41,-91.24 361,-91.06 352.61,-84.59 350.41,-91.24"/>
</a>
</g>
</g>
<!-- Node8 -->
<g id="Node000008" class="node">
<title>Node8</title>
<g id="a_Node000008"><a xlink:href="class_t_m_c5160_stepper.html#a5a12974304588f9d01898d91ba854b87" target="_top" xlink:title=" ">
<polygon fill="white" stroke="#666666" points="278.38,-19.25 158.88,-19.25 158.88,0 278.38,0 278.38,-19.25"/>
<text text-anchor="middle" x="218.62" y="-5.75" font-family="Helvetica,sans-Serif" font-size="10.00">TMC5160Stepper::push</text>
</a>
</g>
</g>
<!-- Node1&#45;&gt;Node8 -->
<g id="edge7_Node000001_Node000008" class="edge">
<title>Node1&#45;&gt;Node8</title>
<g id="a_edge7_Node000001_Node000008"><a xlink:title=" ">
<path fill="none" stroke="#63b8ff" d="M371.01,-84.76C349.03,-68.28 313.45,-43.43 279.5,-27.62 273.01,-24.6 265.88,-21.94 258.88,-19.66"/>
<polygon fill="#63b8ff" stroke="#63b8ff" points="368.82,-87.49 378.9,-90.76 373.06,-81.92 368.82,-87.49"/>
</a>
</g>
</g>
<!-- Node3 -->
<g id="Node000003" class="node">
<title>Node3</title>
<g id="a_Node000003"><a xlink:href="class_t_m_c5130_stepper.html#a897212f81817cdaee4536d642badc149" target="_top" xlink:title=" ">
<polygon fill="white" stroke="#666666" points="121.75,-216.25 0,-216.25 0,-197 121.75,-197 121.75,-216.25"/>
<text text-anchor="middle" x="60.88" y="-202.75" font-family="Helvetica,sans-Serif" font-size="10.00">TMC5130Stepper::begin</text>
</a>
</g>
</g>
<!-- Node2&#45;&gt;Node3 -->
<g id="edge2_Node000002_Node000003" class="edge">
<title>Node2&#45;&gt;Node3</title>
<g id="a_edge2_Node000002_Node000003"><a xlink:title=" ">
<path fill="none" stroke="#63b8ff" d="M146.17,-206.62C138.15,-206.62 130.05,-206.62 122.19,-206.62"/>
<polygon fill="#63b8ff" stroke="#63b8ff" points="145.89,-210.13 155.89,-206.63 145.89,-203.13 145.89,-210.13"/>
</a>
</g>
</g>
</g>
</svg>
