<?xml version="1.0" encoding="UTF-8" standalone="no"?>
<!DOCTYPE svg PUBLIC "-//W3C//DTD SVG 1.1//EN"
 "http://www.w3.org/Graphics/SVG/1.1/DTD/svg11.dtd">
<!-- Generated by graphviz version 12.2.1 (20241206.2353)
 -->
<!-- Title: TMCStepper::read Pages: 1 -->
<svg width="397pt" height="138pt"
 viewBox="0.00 0.00 397.25 138.25" xmlns="http://www.w3.org/2000/svg" xmlns:xlink="http://www.w3.org/1999/xlink">

<svg id="main" version="1.1" xmlns="http://www.w3.org/2000/svg" xmlns:xlink="http://www.w3.org/1999/xlink" xml:space="preserve">

<style type="text/css"><![CDATA[
.node, .edge {opacity: 0.7;}
.node.selected, .edge.selected {opacity: 1;}
.edge:hover path { stroke: red; }
.edge:hover polygon { stroke: red; fill: red; }
]]></style>
<script type="application/ecmascript" xlink:href="svg.min.js"/>
<svg id="graph" class="graph">
<g id="graph0" class="graph" transform="scale(1 1) rotate(0) translate(4 134.25)">
<title>TMCStepper::read</title>
<!-- Node1 -->
<g id="Node000001" class="node">
<title>Node1</title>
<g id="a_Node000001"><a xlink:title=" ">
<polygon fill="#999999" stroke="#666666" points="389.25,-56.25 293,-56.25 293,-37 389.25,-37 389.25,-56.25"/>
<text text-anchor="middle" x="341.12" y="-42.75" font-family="Helvetica,sans-Serif" font-size="10.00">TMCStepper::read</text>
</a>
</g>
</g>
<!-- Node2 -->
<g id="Node000002" class="node">
<title>Node2</title>
<g id="a_Node000002"><a xlink:href="class_t_m_c_stepper.html#ac7874c4b56bd1b3acce522c1e7d7dfed" target="_top" xlink:title=" ">
<polygon fill="white" stroke="#666666" points="255.12,-93.25 145.38,-93.25 145.38,-74 255.12,-74 255.12,-93.25"/>
<text text-anchor="middle" x="200.25" y="-79.75" font-family="Helvetica,sans-Serif" font-size="10.00">TMCStepper::GSTAT</text>
</a>
</g>
</g>
<!-- Node1&#45;&gt;Node2 -->
<g id="edge1_Node000001_Node000002" class="edge">
<title>Node1&#45;&gt;Node2</title>
<g id="a_edge1_Node000001_Node000002"><a xlink:title=" ">
<path fill="none" stroke="#63b8ff" d="M291.25,-59.65C274.15,-64.2 255.22,-69.25 239.15,-73.53"/>
<polygon fill="#63b8ff" stroke="#63b8ff" points="291.95,-63.08 300.71,-57.13 290.15,-56.32 291.95,-63.08"/>
</a>
</g>
</g>
<!-- Node6 -->
<g id="Node000006" class="node">
<title>Node6</title>
<g id="a_Node000006"><a xlink:href="class_t_m_c_stepper.html#a5c93e348deec2455319c4ec819ac83fa" target="_top" xlink:title=" ">
<polygon fill="white" stroke="#666666" points="257,-56.25 143.5,-56.25 143.5,-37 257,-37 257,-56.25"/>
<text text-anchor="middle" x="200.25" y="-42.75" font-family="Helvetica,sans-Serif" font-size="10.00">TMCStepper::MSCNT</text>
</a>
</g>
</g>
<!-- Node1&#45;&gt;Node6 -->
<g id="edge5_Node000001_Node000006" class="edge">
<title>Node1&#45;&gt;Node6</title>
<g id="a_edge5_Node000001_Node000006"><a xlink:title=" ">
<path fill="none" stroke="#63b8ff" d="M281.47,-46.62C273.38,-46.62 265.1,-46.62 257.06,-46.62"/>
<polygon fill="#63b8ff" stroke="#63b8ff" points="281.21,-50.13 291.21,-46.63 281.21,-43.13 281.21,-50.13"/>
</a>
</g>
</g>
<!-- Node7 -->
<g id="Node000007" class="node">
<title>Node7</title>
<g id="a_Node000007"><a xlink:href="class_t_m_c_stepper.html#ac3b12d35df63eeb8cfed2ce410ea0050" target="_top" xlink:title=" ">
<polygon fill="white" stroke="#666666" points="255.12,-19.25 145.38,-19.25 145.38,0 255.12,0 255.12,-19.25"/>
<text text-anchor="middle" x="200.25" y="-5.75" font-family="Helvetica,sans-Serif" font-size="10.00">TMCStepper::TSTEP</text>
</a>
</g>
</g>
<!-- Node1&#45;&gt;Node7 -->
<g id="edge6_Node000001_Node000007" class="edge">
<title>Node1&#45;&gt;Node7</title>
<g id="a_edge6_Node000001_Node000007"><a xlink:title=" ">
<path fill="none" stroke="#63b8ff" d="M291.25,-33.6C274.15,-29.05 255.22,-24 239.15,-19.72"/>
<polygon fill="#63b8ff" stroke="#63b8ff" points="290.15,-36.93 300.71,-36.12 291.95,-30.17 290.15,-36.93"/>
</a>
</g>
</g>
<!-- Node3 -->
<g id="Node000003" class="node">
<title>Node3</title>
<g id="a_Node000003"><a xlink:href="class_t_m_c_stepper.html#a547e59743734b01749efd52210a0bd02" target="_top" xlink:title=" ">
<polygon fill="white" stroke="#666666" points="107.5,-130.25 0,-130.25 0,-111 107.5,-111 107.5,-130.25"/>
<text text-anchor="middle" x="53.75" y="-116.75" font-family="Helvetica,sans-Serif" font-size="10.00">TMCStepper::drv_err</text>
</a>
</g>
</g>
<!-- Node2&#45;&gt;Node3 -->
<g id="edge2_Node000002_Node000003" class="edge">
<title>Node2&#45;&gt;Node3</title>
<g id="a_edge2_Node000002_Node000003"><a xlink:title=" ">
<path fill="none" stroke="#63b8ff" d="M148.65,-96.58C130.79,-101.15 110.99,-106.23 94.19,-110.53"/>
<polygon fill="#63b8ff" stroke="#63b8ff" points="149.48,-99.98 158.3,-94.11 147.74,-93.2 149.48,-99.98"/>
</a>
</g>
</g>
<!-- Node4 -->
<g id="Node000004" class="node">
<title>Node4</title>
<g id="a_Node000004"><a xlink:href="class_t_m_c_stepper.html#ab3cc9688f015f07d65cca651c4c50299" target="_top" xlink:title=" ">
<polygon fill="white" stroke="#666666" points="103.38,-93.25 4.12,-93.25 4.12,-74 103.38,-74 103.38,-93.25"/>
<text text-anchor="middle" x="53.75" y="-79.75" font-family="Helvetica,sans-Serif" font-size="10.00">TMCStepper::reset</text>
</a>
</g>
</g>
<!-- Node2&#45;&gt;Node4 -->
<g id="edge3_Node000002_Node000004" class="edge">
<title>Node2&#45;&gt;Node4</title>
<g id="a_edge3_Node000002_Node000004"><a xlink:title=" ">
<path fill="none" stroke="#63b8ff" d="M133.7,-83.62C123.56,-83.62 113.25,-83.62 103.56,-83.62"/>
<polygon fill="#63b8ff" stroke="#63b8ff" points="133.52,-87.13 143.52,-83.63 133.52,-80.13 133.52,-87.13"/>
</a>
</g>
</g>
<!-- Node5 -->
<g id="Node000005" class="node">
<title>Node5</title>
<g id="a_Node000005"><a xlink:href="class_t_m_c_stepper.html#a4d6aef5354024120e47d7d638edcbfe7" target="_top" xlink:title=" ">
<polygon fill="white" stroke="#666666" points="105.62,-56.25 1.88,-56.25 1.88,-37 105.62,-37 105.62,-56.25"/>
<text text-anchor="middle" x="53.75" y="-42.75" font-family="Helvetica,sans-Serif" font-size="10.00">TMCStepper::uv_cp</text>
</a>
</g>
</g>
<!-- Node2&#45;&gt;Node5 -->
<g id="edge4_Node000002_Node000005" class="edge">
<title>Node2&#45;&gt;Node5</title>
<g id="a_edge4_Node000002_Node000005"><a xlink:title=" ">
<path fill="none" stroke="#63b8ff" d="M148.65,-70.67C130.79,-66.1 110.99,-61.02 94.19,-56.72"/>
<polygon fill="#63b8ff" stroke="#63b8ff" points="147.74,-74.05 158.3,-73.14 149.48,-67.27 147.74,-74.05"/>
</a>
</g>
</g>
</g>
</svg>
</svg>

<style type='text/css'>
<![CDATA[
[data-mouse-over-selected='false'] { opacity: 0.7; }
[data-mouse-over-selected='true']  { opacity: 1.0; }
]]>
</style>
<script type="application/ecmascript"><![CDATA[
document.addEventListener('DOMContentLoaded', (event) => {
  highlightEdges();
  highlightAdjacentNodes();
});
]]></script>
</svg>
