<?xml version="1.0" encoding="UTF-8" standalone="no"?>
<!DOCTYPE svg PUBLIC "-//W3C//DTD SVG 1.1//EN"
 "http://www.w3.org/Graphics/SVG/1.1/DTD/svg11.dtd">
<!-- Generated by graphviz version 12.2.1 (20241206.2353)
 -->
<!-- Title: TMC2208Stepper::calcCRC Pages: 1 -->
<svg width="694pt" height="1024pt"
 viewBox="0.00 0.00 693.75 1023.88" xmlns="http://www.w3.org/2000/svg" xmlns:xlink="http://www.w3.org/1999/xlink">
<g id="graph0" class="graph" transform="scale(1 1) rotate(0) translate(4 1019.88)">
<title>TMC2208Stepper::calcCRC</title>
<!-- Node1 -->
<g id="Node000001" class="node">
<title>Node1</title>
<g id="a_Node000001"><a xlink:title=" ">
<polygon fill="#999999" stroke="#666666" points="685.75,-449.88 546.75,-449.88 546.75,-430.62 685.75,-430.62 685.75,-449.88"/>
<text text-anchor="middle" x="616.25" y="-436.38" font-family="Helvetica,sans-Serif" font-size="10.00">TMC2208Stepper::calcCRC</text>
</a>
</g>
</g>
<!-- Node2 -->
<g id="Node000002" class="node">
<title>Node2</title>
<g id="a_Node000002"><a xlink:href="class_t_m_c2208_stepper.html#a2fae2050849c3ab7968012def8ea1cc5" target="_top" xlink:title=" ">
<polygon fill="white" stroke="#666666" points="509.62,-677.88 392.38,-677.88 392.38,-658.62 509.62,-658.62 509.62,-677.88"/>
<text text-anchor="middle" x="451" y="-664.38" font-family="Helvetica,sans-Serif" font-size="10.00">TMC2208Stepper::read</text>
</a>
</g>
</g>
<!-- Node1&#45;&gt;Node2 -->
<g id="edge1_Node000001_Node000002" class="edge">
<title>Node1&#45;&gt;Node2</title>
<g id="a_edge1_Node000001_Node000002"><a xlink:title=" ">
<path fill="none" stroke="#63b8ff" d="M601.36,-459.64C567.98,-506.27 484.14,-623.36 459.14,-658.28"/>
<polygon fill="#63b8ff" stroke="#63b8ff" points="604.17,-461.74 607.14,-451.57 598.48,-457.66 604.17,-461.74"/>
</a>
</g>
</g>
<!-- Node27 -->
<g id="Node000027" class="node">
<title>Node27</title>
<g id="a_Node000027"><a xlink:href="class_t_m_c2208_stepper.html#a142b14de8a4dcc6cf76b4a6ede9e1cea" target="_top" xlink:title=" ">
<polygon fill="white" stroke="#666666" points="510.75,-240.88 391.25,-240.88 391.25,-221.62 510.75,-221.62 510.75,-240.88"/>
<text text-anchor="middle" x="451" y="-227.38" font-family="Helvetica,sans-Serif" font-size="10.00">TMC2208Stepper::write</text>
</a>
</g>
</g>
<!-- Node1&#45;&gt;Node27 -->
<g id="edge30_Node000001_Node000027" class="edge">
<title>Node1&#45;&gt;Node27</title>
<g id="a_edge30_Node000001_Node000027"><a xlink:title=" ">
<path fill="none" stroke="#63b8ff" d="M600.42,-421.26C566.72,-378.11 485.32,-273.91 459.79,-241.23"/>
<polygon fill="#63b8ff" stroke="#63b8ff" points="597.53,-423.25 606.44,-428.98 603.05,-418.94 597.53,-423.25"/>
</a>
</g>
</g>
<!-- Node3 -->
<g id="Node000003" class="node">
<title>Node3</title>
<g id="a_Node000003"><a xlink:href="class_t_m_c2208_stepper.html#aa11281f54c293f3ff2539b1a583682a9" target="_top" xlink:title=" ">
<polygon fill="white" stroke="#666666" points="343.25,-751.88 187,-751.88 187,-732.62 343.25,-732.62 343.25,-751.88"/>
<text text-anchor="middle" x="265.12" y="-738.38" font-family="Helvetica,sans-Serif" font-size="10.00">TMC2208Stepper::CHOPCONF</text>
</a>
</g>
</g>
<!-- Node2&#45;&gt;Node3 -->
<g id="edge2_Node000002_Node000003" class="edge">
<title>Node2&#45;&gt;Node3</title>
<g id="a_edge2_Node000002_Node000003"><a xlink:title=" ">
<path fill="none" stroke="#63b8ff" d="M426.97,-684.85C408.44,-697.45 381.29,-714.25 355.25,-724.25 347.14,-727.36 338.41,-729.97 329.69,-732.14"/>
<polygon fill="#63b8ff" stroke="#63b8ff" points="428.85,-687.8 435.07,-679.22 424.86,-682.05 428.85,-687.8"/>
</a>
</g>
</g>
<!-- Node6 -->
<g id="Node000006" class="node">
<title>Node6</title>
<g id="a_Node000006"><a xlink:href="class_t_m_c2208_stepper.html#a2b4643106d473dd0081ec60a3f9b8fdf" target="_top" xlink:title=" ">
<polygon fill="white" stroke="#666666" points="325.25,-640.5 205,-640.5 205,-610 325.25,-610 325.25,-640.5"/>
<text text-anchor="start" x="213" y="-627" font-family="Helvetica,sans-Serif" font-size="10.00">TMC2208Stepper::DRV</text>
<text text-anchor="middle" x="265.12" y="-615.75" font-family="Helvetica,sans-Serif" font-size="10.00">_STATUS</text>
</a>
</g>
</g>
<!-- Node2&#45;&gt;Node6 -->
<g id="edge5_Node000002_Node000006" class="edge">
<title>Node2&#45;&gt;Node6</title>
<g id="a_edge5_Node000002_Node000006"><a xlink:title=" ">
<path fill="none" stroke="#63b8ff" d="M395.73,-655.56C373.71,-650.41 348.2,-644.44 325.67,-639.17"/>
<polygon fill="#63b8ff" stroke="#63b8ff" points="394.88,-658.95 405.42,-657.82 396.48,-652.14 394.88,-658.95"/>
</a>
</g>
</g>
<!-- Node7 -->
<g id="Node000007" class="node">
<title>Node7</title>
<g id="a_Node000007"><a xlink:href="class_t_m_c2208_stepper.html#a64c51922eb2029e4bbcd4f8a51b6a6ae" target="_top" xlink:title=" ">
<polygon fill="white" stroke="#666666" points="355.25,-591.88 175,-591.88 175,-572.62 355.25,-572.62 355.25,-591.88"/>
<text text-anchor="middle" x="265.12" y="-578.38" font-family="Helvetica,sans-Serif" font-size="10.00">TMC2208Stepper::FACTORY_CONF</text>
</a>
</g>
</g>
<!-- Node2&#45;&gt;Node7 -->
<g id="edge6_Node000002_Node000007" class="edge">
<title>Node2&#45;&gt;Node7</title>
<g id="a_edge6_Node000002_Node000007"><a xlink:title=" ">
<path fill="none" stroke="#63b8ff" d="M430.44,-650.78C412.23,-635.45 383.69,-613.71 355.25,-601.25 346.99,-597.63 337.99,-594.68 328.99,-592.29"/>
<polygon fill="#63b8ff" stroke="#63b8ff" points="427.96,-653.27 437.82,-657.15 432.53,-647.97 427.96,-653.27"/>
</a>
</g>
</g>
<!-- Node10 -->
<g id="Node000010" class="node">
<title>Node10</title>
<g id="a_Node000010"><a xlink:href="class_t_m_c2208_stepper.html#a549db4f962d4ae698dda33ef9a708e33" target="_top" xlink:title=" ">
<polygon fill="white" stroke="#666666" points="332.38,-714.88 197.88,-714.88 197.88,-695.62 332.38,-695.62 332.38,-714.88"/>
<text text-anchor="middle" x="265.12" y="-701.38" font-family="Helvetica,sans-Serif" font-size="10.00">TMC2208Stepper::GCONF</text>
</a>
</g>
</g>
<!-- Node2&#45;&gt;Node10 -->
<g id="edge9_Node000002_Node000010" class="edge">
<title>Node2&#45;&gt;Node10</title>
<g id="a_edge9_Node000002_Node000010"><a xlink:title=" ">
<path fill="none" stroke="#63b8ff" d="M388.51,-680.62C365.04,-685.35 338.6,-690.67 316.31,-695.15"/>
<polygon fill="#63b8ff" stroke="#63b8ff" points="389.16,-684.06 398.27,-678.66 387.78,-677.2 389.16,-684.06"/>
</a>
</g>
</g>
<!-- Node11 -->
<g id="Node000011" class="node">
<title>Node11</title>
<g id="a_Node000011"><a xlink:href="class_t_m_c2208_stepper.html#a54eeb50855c3d7dd9e7078a5dc0ebdfc" target="_top" xlink:title=" ">
<polygon fill="white" stroke="#666666" points="329.38,-554.88 200.88,-554.88 200.88,-535.62 329.38,-535.62 329.38,-554.88"/>
<text text-anchor="middle" x="265.12" y="-541.38" font-family="Helvetica,sans-Serif" font-size="10.00">TMC2208Stepper::IFCNT</text>
</a>
</g>
</g>
<!-- Node2&#45;&gt;Node11 -->
<g id="edge12_Node000002_Node000011" class="edge">
<title>Node2&#45;&gt;Node11</title>
<g id="a_edge12_Node000002_Node000011"><a xlink:title=" ">
<path fill="none" stroke="#63b8ff" d="M438.07,-648.71C422.27,-624.59 392.04,-584.22 355.25,-563.25 347.43,-558.8 338.68,-555.43 329.79,-552.89"/>
<polygon fill="#63b8ff" stroke="#63b8ff" points="434.99,-650.39 443.31,-656.95 440.9,-646.63 434.99,-650.39"/>
</a>
</g>
</g>
<!-- Node12 -->
<g id="Node000012" class="node">
<title>Node12</title>
<g id="a_Node000012"><a xlink:href="class_t_m_c2208_stepper.html#a5441dd87d0bcea4ffc309cb012166a57" target="_top" xlink:title=" ">
<polygon fill="white" stroke="#666666" points="324.88,-517.88 205.38,-517.88 205.38,-498.62 324.88,-498.62 324.88,-517.88"/>
<text text-anchor="middle" x="265.12" y="-504.38" font-family="Helvetica,sans-Serif" font-size="10.00">TMC2208Stepper::IOIN</text>
</a>
</g>
</g>
<!-- Node2&#45;&gt;Node12 -->
<g id="edge13_Node000002_Node000012" class="edge">
<title>Node2&#45;&gt;Node12</title>
<g id="a_edge13_Node000002_Node000012"><a xlink:title=" ">
<path fill="none" stroke="#63b8ff" d="M442.38,-647.85C429.53,-616.4 400.43,-556.55 355.25,-526.25 346.34,-520.27 335.87,-516.2 325.3,-513.44"/>
<polygon fill="#63b8ff" stroke="#63b8ff" points="439.06,-648.95 445.96,-656.98 445.57,-646.39 439.06,-648.95"/>
</a>
</g>
</g>
<!-- Node13 -->
<g id="Node000013" class="node">
<title>Node13</title>
<g id="a_Node000013"><a xlink:href="class_t_m_c2209_stepper.html#aeab582b2f23d4e58f63aec80163b3838" target="_top" xlink:title=" ">
<polygon fill="white" stroke="#666666" points="324.88,-480.88 205.38,-480.88 205.38,-461.62 324.88,-461.62 324.88,-480.88"/>
<text text-anchor="middle" x="265.12" y="-467.38" font-family="Helvetica,sans-Serif" font-size="10.00">TMC2209Stepper::IOIN</text>
</a>
</g>
</g>
<!-- Node2&#45;&gt;Node13 -->
<g id="edge14_Node000002_Node000013" class="edge">
<title>Node2&#45;&gt;Node13</title>
<g id="a_edge14_Node000002_Node000013"><a xlink:title=" ">
<path fill="none" stroke="#63b8ff" d="M445.23,-647.44C435.4,-609.55 409.14,-529.51 355.25,-489.25 346.52,-482.73 336.03,-478.42 325.35,-475.6"/>
<polygon fill="#63b8ff" stroke="#63b8ff" points="441.71,-647.81 447.5,-656.69 448.51,-646.14 441.71,-647.81"/>
</a>
</g>
</g>
<!-- Node14 -->
<g id="Node000014" class="node">
<title>Node14</title>
<g id="a_Node000014"><a xlink:href="class_t_m_c2224_stepper.html#aa5fa836e15992bc49e0297ef2126f725" target="_top" xlink:title=" ">
<polygon fill="white" stroke="#666666" points="324.88,-443.88 205.38,-443.88 205.38,-424.62 324.88,-424.62 324.88,-443.88"/>
<text text-anchor="middle" x="265.12" y="-430.38" font-family="Helvetica,sans-Serif" font-size="10.00">TMC2224Stepper::IOIN</text>
</a>
</g>
</g>
<!-- Node2&#45;&gt;Node14 -->
<g id="edge15_Node000002_Node000014" class="edge">
<title>Node2&#45;&gt;Node14</title>
<g id="a_edge15_Node000002_Node000014"><a xlink:title=" ">
<path fill="none" stroke="#63b8ff" d="M447.19,-646.91C440.22,-603.08 417.93,-502.77 355.25,-452.25 346.65,-445.32 336.08,-440.83 325.28,-437.97"/>
<polygon fill="#63b8ff" stroke="#63b8ff" points="443.7,-647.26 448.61,-656.65 450.63,-646.24 443.7,-647.26"/>
</a>
</g>
</g>
<!-- Node15 -->
<g id="Node000015" class="node">
<title>Node15</title>
<g id="a_Node000015"><a xlink:href="class_t_m_c2208_stepper.html#a8aef97b3f46492720cb65a0995839f8b" target="_top" xlink:title=" ">
<polygon fill="white" stroke="#666666" points="343.25,-978.88 187,-978.88 187,-959.62 343.25,-959.62 343.25,-978.88"/>
<text text-anchor="middle" x="265.12" y="-965.38" font-family="Helvetica,sans-Serif" font-size="10.00">TMC2208Stepper::MSCURACT</text>
</a>
</g>
</g>
<!-- Node2&#45;&gt;Node15 -->
<g id="edge16_Node000002_Node000015" class="edge">
<title>Node2&#45;&gt;Node15</title>
<g id="a_edge16_Node000002_Node000015"><a xlink:title=" ">
<path fill="none" stroke="#63b8ff" d="M448.22,-689.52C442.99,-738.84 423.44,-862.24 355.25,-933.25 343.46,-945.53 326.92,-953.74 311.28,-959.17"/>
<polygon fill="#63b8ff" stroke="#63b8ff" points="451.69,-689.95 449.16,-679.66 444.72,-689.29 451.69,-689.95"/>
</a>
</g>
</g>
<!-- Node18 -->
<g id="Node000018" class="node">
<title>Node18</title>
<g id="a_Node000018"><a xlink:href="class_t_m_c2208_stepper.html#a0727482b76d6cd679021f4d1677e5b3a" target="_top" xlink:title=" ">
<polygon fill="white" stroke="#666666" points="341.38,-923.88 188.88,-923.88 188.88,-904.62 341.38,-904.62 341.38,-923.88"/>
<text text-anchor="middle" x="265.12" y="-910.38" font-family="Helvetica,sans-Serif" font-size="10.00">TMC2208Stepper::OTP_READ</text>
</a>
</g>
</g>
<!-- Node2&#45;&gt;Node18 -->
<g id="edge19_Node000002_Node000018" class="edge">
<title>Node2&#45;&gt;Node18</title>
<g id="a_edge19_Node000002_Node000018"><a xlink:title=" ">
<path fill="none" stroke="#63b8ff" d="M447.79,-689.18C441.81,-734.53 421.09,-842.12 355.25,-896.25 351.1,-899.66 346.49,-902.48 341.6,-904.81"/>
<polygon fill="#63b8ff" stroke="#63b8ff" points="451.24,-689.75 448.95,-679.41 444.29,-688.93 451.24,-689.75"/>
</a>
</g>
</g>
<!-- Node19 -->
<g id="Node000019" class="node">
<title>Node19</title>
<g id="a_Node000019"><a xlink:href="class_t_m_c2208_stepper.html#a3cad83843fc7cc00cbbff7d620690501" target="_top" xlink:title=" ">
<polygon fill="white" stroke="#666666" points="343.25,-886.88 187,-886.88 187,-867.62 343.25,-867.62 343.25,-886.88"/>
<text text-anchor="middle" x="265.12" y="-873.38" font-family="Helvetica,sans-Serif" font-size="10.00">TMC2208Stepper::PWM_AUTO</text>
</a>
</g>
</g>
<!-- Node2&#45;&gt;Node19 -->
<g id="edge20_Node000002_Node000019" class="edge">
<title>Node2&#45;&gt;Node19</title>
<g id="a_edge20_Node000002_Node000019"><a xlink:title=" ">
<path fill="none" stroke="#63b8ff" d="M445.84,-689.13C436.81,-728.72 411.52,-814.66 355.25,-858.25 350.62,-861.83 345.47,-864.78 340.04,-867.2"/>
<polygon fill="#63b8ff" stroke="#63b8ff" points="449.23,-690 447.9,-679.49 442.39,-688.54 449.23,-690"/>
</a>
</g>
</g>
<!-- Node22 -->
<g id="Node000022" class="node">
<title>Node22</title>
<g id="a_Node000022"><a xlink:href="class_t_m_c2208_stepper.html#adc81db53cf0291216352b13e5425e67b" target="_top" xlink:title=" ">
<polygon fill="white" stroke="#666666" points="326.75,-849.5 203.5,-849.5 203.5,-819 326.75,-819 326.75,-849.5"/>
<text text-anchor="start" x="211.5" y="-836" font-family="Helvetica,sans-Serif" font-size="10.00">TMC2208Stepper::PWM</text>
<text text-anchor="middle" x="265.12" y="-824.75" font-family="Helvetica,sans-Serif" font-size="10.00">_SCALE</text>
</a>
</g>
</g>
<!-- Node2&#45;&gt;Node22 -->
<g id="edge23_Node000002_Node000022" class="edge">
<title>Node2&#45;&gt;Node22</title>
<g id="a_edge23_Node000002_Node000022"><a xlink:title=" ">
<path fill="none" stroke="#63b8ff" d="M441.87,-688.56C428.5,-719.37 398.9,-777.67 355.25,-809.25 346.79,-815.37 336.88,-820 326.8,-823.49"/>
<polygon fill="#63b8ff" stroke="#63b8ff" points="444.99,-690.18 445.62,-679.61 438.53,-687.48 444.99,-690.18"/>
</a>
</g>
</g>
<!-- Node25 -->
<g id="Node000025" class="node">
<title>Node25</title>
<g id="a_Node000025"><a xlink:href="class_t_m_c2208_stepper.html#a7c2e849de2f2933ba9bf8ede8dc53f53" target="_top" xlink:title=" ">
<polygon fill="white" stroke="#666666" points="341,-677.88 189.25,-677.88 189.25,-658.62 341,-658.62 341,-677.88"/>
<text text-anchor="middle" x="265.12" y="-664.38" font-family="Helvetica,sans-Serif" font-size="10.00">TMC2208Stepper::PWMCONF</text>
</a>
</g>
</g>
<!-- Node2&#45;&gt;Node25 -->
<g id="edge26_Node000002_Node000025" class="edge">
<title>Node2&#45;&gt;Node25</title>
<g id="a_edge26_Node000002_Node000025"><a xlink:title=" ">
<path fill="none" stroke="#63b8ff" d="M380.9,-668.25C367.97,-668.25 354.4,-668.25 341.3,-668.25"/>
<polygon fill="#63b8ff" stroke="#63b8ff" points="380.56,-671.75 390.56,-668.25 380.56,-664.75 380.56,-671.75"/>
</a>
</g>
</g>
<!-- Node26 -->
<g id="Node000026" class="node">
<title>Node26</title>
<g id="a_Node000026"><a xlink:href="class_t_m_c2209_stepper.html#ac1d2ec19eb65fd2f14d8d02cc1e7b02e" target="_top" xlink:title=" ">
<polygon fill="white" stroke="#666666" points="321.5,-800.5 208.75,-800.5 208.75,-770 321.5,-770 321.5,-800.5"/>
<text text-anchor="start" x="216.75" y="-787" font-family="Helvetica,sans-Serif" font-size="10.00">TMC2209Stepper::SG</text>
<text text-anchor="middle" x="265.12" y="-775.75" font-family="Helvetica,sans-Serif" font-size="10.00">_RESULT</text>
</a>
</g>
</g>
<!-- Node2&#45;&gt;Node26 -->
<g id="edge29_Node000002_Node000026" class="edge">
<title>Node2&#45;&gt;Node26</title>
<g id="a_edge29_Node000002_Node000026"><a xlink:title=" ">
<path fill="none" stroke="#63b8ff" d="M435.6,-687.37C418.66,-708.54 388.59,-742.18 355.25,-761.25 344.96,-767.14 333.17,-771.63 321.61,-775.03"/>
<polygon fill="#63b8ff" stroke="#63b8ff" points="438.31,-689.6 441.7,-679.56 432.79,-685.29 438.31,-689.6"/>
</a>
</g>
</g>
<!-- Node4 -->
<g id="Node000004" class="node">
<title>Node4</title>
<g id="a_Node000004"><a xlink:href="class_t_m_c2208_stepper.html#a8eb0d71fbfeeb24c9092328c44fab7e5" target="_top" xlink:title=" ">
<polygon fill="white" stroke="#666666" points="129.25,-692.88 9.75,-692.88 9.75,-673.62 129.25,-673.62 129.25,-692.88"/>
<text text-anchor="middle" x="69.5" y="-679.38" font-family="Helvetica,sans-Serif" font-size="10.00">TMC2208Stepper::push</text>
</a>
</g>
</g>
<!-- Node3&#45;&gt;Node4 -->
<g id="edge3_Node000003_Node000004" class="edge">
<title>Node3&#45;&gt;Node4</title>
<g id="a_edge3_Node000003_Node000004"><a xlink:title=" ">
<path fill="none" stroke="#63b8ff" d="M188.56,-729.05C183.92,-727.61 179.36,-726.01 175,-724.25 157.4,-717.14 156.39,-708.87 139,-701.25 132.02,-698.19 124.4,-695.56 116.86,-693.33"/>
<polygon fill="#63b8ff" stroke="#63b8ff" points="187.48,-732.38 198.06,-731.74 189.39,-725.65 187.48,-732.38"/>
</a>
</g>
</g>
<!-- Node5 -->
<g id="Node000005" class="node">
<title>Node5</title>
<g id="a_Node000005"><a xlink:href="class_t_m_c2209_stepper.html#a180f4b9a78e526592d946ec12f71982e" target="_top" xlink:title=" ">
<polygon fill="white" stroke="#666666" points="129.25,-729.88 9.75,-729.88 9.75,-710.62 129.25,-710.62 129.25,-729.88"/>
<text text-anchor="middle" x="69.5" y="-716.38" font-family="Helvetica,sans-Serif" font-size="10.00">TMC2209Stepper::push</text>
</a>
</g>
</g>
<!-- Node3&#45;&gt;Node5 -->
<g id="edge4_Node000003_Node000005" class="edge">
<title>Node3&#45;&gt;Node5</title>
<g id="a_edge4_Node000003_Node000005"><a xlink:title=" ">
<path fill="none" stroke="#63b8ff" d="M175.5,-732.18C159.92,-730.41 144.06,-728.61 129.54,-726.96"/>
<polygon fill="#63b8ff" stroke="#63b8ff" points="174.93,-735.64 185.26,-733.29 175.72,-728.68 174.93,-735.64"/>
</a>
</g>
</g>
<!-- Node8 -->
<g id="Node000008" class="node">
<title>Node8</title>
<g id="a_Node000008"><a xlink:href="class_t_m_c2208_stepper.html#a2576f25049dff1a3102da1ea5b4eb7fc" target="_top" xlink:title=" ">
<polygon fill="white" stroke="#666666" points="134.88,-572.88 4.12,-572.88 4.12,-553.62 134.88,-553.62 134.88,-572.88"/>
<text text-anchor="middle" x="69.5" y="-559.38" font-family="Helvetica,sans-Serif" font-size="10.00">TMC2208Stepper::fclktrim</text>
</a>
</g>
</g>
<!-- Node7&#45;&gt;Node8 -->
<g id="edge7_Node000007_Node000008" class="edge">
<title>Node7&#45;&gt;Node8</title>
<g id="a_edge7_Node000007_Node000008"><a xlink:title=" ">
<path fill="none" stroke="#63b8ff" d="M163.46,-572.37C153.89,-571.43 144.38,-570.5 135.3,-569.61"/>
<polygon fill="#63b8ff" stroke="#63b8ff" points="162.88,-575.83 173.17,-573.33 163.56,-568.87 162.88,-575.83"/>
</a>
</g>
</g>
<!-- Node9 -->
<g id="Node000009" class="node">
<title>Node9</title>
<g id="a_Node000009"><a xlink:href="class_t_m_c2208_stepper.html#a1d354657666fa70cd13004cb70bc9fcf" target="_top" xlink:title=" ">
<polygon fill="white" stroke="#666666" points="131.12,-609.88 7.88,-609.88 7.88,-590.62 131.12,-590.62 131.12,-609.88"/>
<text text-anchor="middle" x="69.5" y="-596.38" font-family="Helvetica,sans-Serif" font-size="10.00">TMC2208Stepper::ottrim</text>
</a>
</g>
</g>
<!-- Node7&#45;&gt;Node9 -->
<g id="edge8_Node000007_Node000009" class="edge">
<title>Node7&#45;&gt;Node9</title>
<g id="a_edge8_Node000007_Node000009"><a xlink:title=" ">
<path fill="none" stroke="#63b8ff" d="M163.32,-591.62C152.41,-592.64 141.58,-593.64 131.36,-594.59"/>
<polygon fill="#63b8ff" stroke="#63b8ff" points="163.54,-595.12 173.17,-590.71 162.89,-588.15 163.54,-595.12"/>
</a>
</g>
</g>
<!-- Node10&#45;&gt;Node4 -->
<g id="edge10_Node000010_Node000004" class="edge">
<title>Node10&#45;&gt;Node4</title>
<g id="a_edge10_Node000010_Node000004"><a xlink:title=" ">
<path fill="none" stroke="#63b8ff" d="M186.18,-696.39C167.27,-694.25 147.36,-691.98 129.49,-689.95"/>
<polygon fill="#63b8ff" stroke="#63b8ff" points="185.66,-699.86 195.99,-697.51 186.45,-692.9 185.66,-699.86"/>
</a>
</g>
</g>
<!-- Node10&#45;&gt;Node5 -->
<g id="edge11_Node000010_Node000005" class="edge">
<title>Node10&#45;&gt;Node5</title>
<g id="a_edge11_Node000010_Node000005"><a xlink:title=" ">
<path fill="none" stroke="#63b8ff" d="M186.18,-711.29C167.27,-712.75 147.36,-714.3 129.49,-715.68"/>
<polygon fill="#63b8ff" stroke="#63b8ff" points="186.28,-714.79 195.98,-710.53 185.74,-707.81 186.28,-714.79"/>
</a>
</g>
</g>
<!-- Node16 -->
<g id="Node000016" class="node">
<title>Node16</title>
<g id="a_Node000016"><a xlink:href="class_t_m_c2208_stepper.html#a2d0d630547d4beab14d4be229c424af3" target="_top" xlink:title=" ">
<polygon fill="white" stroke="#666666" points="130.75,-978.88 8.25,-978.88 8.25,-959.62 130.75,-959.62 130.75,-978.88"/>
<text text-anchor="middle" x="69.5" y="-965.38" font-family="Helvetica,sans-Serif" font-size="10.00">TMC2208Stepper::cur_a</text>
</a>
</g>
</g>
<!-- Node15&#45;&gt;Node16 -->
<g id="edge17_Node000015_Node000016" class="edge">
<title>Node15&#45;&gt;Node16</title>
<g id="a_edge17_Node000015_Node000016"><a xlink:title=" ">
<path fill="none" stroke="#63b8ff" d="M175.37,-969.25C160.37,-969.25 145.11,-969.25 131.04,-969.25"/>
<polygon fill="#63b8ff" stroke="#63b8ff" points="175.25,-972.75 185.25,-969.25 175.25,-965.75 175.25,-972.75"/>
</a>
</g>
</g>
<!-- Node17 -->
<g id="Node000017" class="node">
<title>Node17</title>
<g id="a_Node000017"><a xlink:href="class_t_m_c2208_stepper.html#a09eff4da746ad9e8b410796f4710dee8" target="_top" xlink:title=" ">
<polygon fill="white" stroke="#666666" points="130.75,-1015.88 8.25,-1015.88 8.25,-996.62 130.75,-996.62 130.75,-1015.88"/>
<text text-anchor="middle" x="69.5" y="-1002.38" font-family="Helvetica,sans-Serif" font-size="10.00">TMC2208Stepper::cur_b</text>
</a>
</g>
</g>
<!-- Node15&#45;&gt;Node17 -->
<g id="edge18_Node000015_Node000017" class="edge">
<title>Node15&#45;&gt;Node17</title>
<g id="a_edge18_Node000015_Node000017"><a xlink:title=" ">
<path fill="none" stroke="#63b8ff" d="M200.05,-981.5C175.17,-986.25 147.03,-991.63 123.34,-996.15"/>
<polygon fill="#63b8ff" stroke="#63b8ff" points="200.56,-984.96 209.73,-979.64 199.25,-978.08 200.56,-984.96"/>
</a>
</g>
</g>
<!-- Node20 -->
<g id="Node000020" class="node">
<title>Node20</title>
<g id="a_Node000020"><a xlink:href="class_t_m_c2208_stepper.html#a2940a4fc578d24624d835ac1664aeef3" target="_top" xlink:title=" ">
<polygon fill="white" stroke="#666666" points="129.25,-892.5 9.75,-892.5 9.75,-862 129.25,-862 129.25,-892.5"/>
<text text-anchor="start" x="17.75" y="-879" font-family="Helvetica,sans-Serif" font-size="10.00">TMC2208Stepper::pwm</text>
<text text-anchor="middle" x="69.5" y="-867.75" font-family="Helvetica,sans-Serif" font-size="10.00">_grad_auto</text>
</a>
</g>
</g>
<!-- Node19&#45;&gt;Node20 -->
<g id="edge21_Node000019_Node000020" class="edge">
<title>Node19&#45;&gt;Node20</title>
<g id="a_edge21_Node000019_Node000020"><a xlink:title=" ">
<path fill="none" stroke="#63b8ff" d="M175.5,-877.25C159.92,-877.25 144.06,-877.25 129.54,-877.25"/>
<polygon fill="#63b8ff" stroke="#63b8ff" points="175.25,-880.75 185.25,-877.25 175.25,-873.75 175.25,-880.75"/>
</a>
</g>
</g>
<!-- Node21 -->
<g id="Node000021" class="node">
<title>Node21</title>
<g id="a_Node000021"><a xlink:href="class_t_m_c2208_stepper.html#af24b684f8072b9e5b064f093d266257e" target="_top" xlink:title=" ">
<polygon fill="white" stroke="#666666" points="129.25,-941.5 9.75,-941.5 9.75,-911 129.25,-911 129.25,-941.5"/>
<text text-anchor="start" x="17.75" y="-928" font-family="Helvetica,sans-Serif" font-size="10.00">TMC2208Stepper::pwm</text>
<text text-anchor="middle" x="69.5" y="-916.75" font-family="Helvetica,sans-Serif" font-size="10.00">_ofs_auto</text>
</a>
</g>
</g>
<!-- Node19&#45;&gt;Node21 -->
<g id="edge22_Node000019_Node000021" class="edge">
<title>Node19&#45;&gt;Node21</title>
<g id="a_edge22_Node000019_Node000021"><a xlink:title=" ">
<path fill="none" stroke="#63b8ff" d="M199.17,-889.67C191.01,-891.43 182.79,-893.31 175,-895.25 157,-899.73 137.47,-905.32 120.22,-910.52"/>
<polygon fill="#63b8ff" stroke="#63b8ff" points="199.68,-893.13 208.74,-887.64 198.24,-886.29 199.68,-893.13"/>
</a>
</g>
</g>
<!-- Node23 -->
<g id="Node000023" class="node">
<title>Node23</title>
<g id="a_Node000023"><a xlink:href="class_t_m_c2208_stepper.html#a2ad2f165b9961405c9ec905713d1f7ed" target="_top" xlink:title=" ">
<polygon fill="white" stroke="#666666" points="129.25,-794.5 9.75,-794.5 9.75,-764 129.25,-764 129.25,-794.5"/>
<text text-anchor="start" x="17.75" y="-781" font-family="Helvetica,sans-Serif" font-size="10.00">TMC2208Stepper::pwm</text>
<text text-anchor="middle" x="69.5" y="-769.75" font-family="Helvetica,sans-Serif" font-size="10.00">_scale_auto</text>
</a>
</g>
</g>
<!-- Node22&#45;&gt;Node23 -->
<g id="edge24_Node000022_Node000023" class="edge">
<title>Node22&#45;&gt;Node23</title>
<g id="a_edge24_Node000022_Node000023"><a xlink:title=" ">
<path fill="none" stroke="#63b8ff" d="M197.13,-815.5C189.66,-813.4 182.17,-811.28 175,-809.25 158.75,-804.64 141.09,-799.58 124.99,-794.96"/>
<polygon fill="#63b8ff" stroke="#63b8ff" points="195.98,-818.82 206.55,-818.16 197.87,-812.08 195.98,-818.82"/>
</a>
</g>
</g>
<!-- Node24 -->
<g id="Node000024" class="node">
<title>Node24</title>
<g id="a_Node000024"><a xlink:href="class_t_m_c2208_stepper.html#ab98b6c9268243e35367a5247cc32dde4" target="_top" xlink:title=" ">
<polygon fill="white" stroke="#666666" points="129.25,-843.5 9.75,-843.5 9.75,-813 129.25,-813 129.25,-843.5"/>
<text text-anchor="start" x="17.75" y="-830" font-family="Helvetica,sans-Serif" font-size="10.00">TMC2208Stepper::pwm</text>
<text text-anchor="middle" x="69.5" y="-818.75" font-family="Helvetica,sans-Serif" font-size="10.00">_scale_sum</text>
</a>
</g>
</g>
<!-- Node22&#45;&gt;Node24 -->
<g id="edge25_Node000022_Node000024" class="edge">
<title>Node22&#45;&gt;Node24</title>
<g id="a_edge25_Node000022_Node000024"><a xlink:title=" ">
<path fill="none" stroke="#63b8ff" d="M191.9,-832.01C171.34,-831.37 149.21,-830.69 129.54,-830.08"/>
<polygon fill="#63b8ff" stroke="#63b8ff" points="191.51,-835.5 201.61,-832.31 191.73,-828.5 191.51,-835.5"/>
</a>
</g>
</g>
<!-- Node25&#45;&gt;Node4 -->
<g id="edge27_Node000025_Node000004" class="edge">
<title>Node25&#45;&gt;Node4</title>
<g id="a_edge27_Node000025_Node000004"><a xlink:title=" ">
<path fill="none" stroke="#63b8ff" d="M177.82,-674.94C161.55,-676.2 144.89,-677.49 129.69,-678.66"/>
<polygon fill="#63b8ff" stroke="#63b8ff" points="177.78,-678.45 187.48,-674.19 177.24,-671.47 177.78,-678.45"/>
</a>
</g>
</g>
<!-- Node25&#45;&gt;Node5 -->
<g id="edge28_Node000025_Node000005" class="edge">
<title>Node25&#45;&gt;Node5</title>
<g id="a_edge28_Node000025_Node000005"><a xlink:title=" ">
<path fill="none" stroke="#63b8ff" d="M193.87,-680.93C187.44,-682.54 181.07,-684.31 175,-686.25 158.32,-691.57 155.52,-696.45 139,-702.25 130.76,-705.14 121.83,-707.81 113.21,-710.17"/>
<polygon fill="#63b8ff" stroke="#63b8ff" points="194.3,-684.42 203.22,-678.71 192.68,-677.61 194.3,-684.42"/>
</a>
</g>
</g>
<!-- Node28 -->
<g id="Node000028" class="node">
<title>Node28</title>
<g id="a_Node000028"><a xlink:href="class_t_m_c2208_stepper.html#ac7c979e2083f3a2b35bcaa0f4fd45cae" target="_top" xlink:title=" ">
<polygon fill="white" stroke="#666666" points="343.25,-73.88 187,-73.88 187,-54.62 343.25,-54.62 343.25,-73.88"/>
<text text-anchor="middle" x="265.12" y="-60.38" font-family="Helvetica,sans-Serif" font-size="10.00">TMC2208Stepper::CHOPCONF</text>
</a>
</g>
</g>
<!-- Node27&#45;&gt;Node28 -->
<g id="edge31_Node000027_Node000028" class="edge">
<title>Node27&#45;&gt;Node28</title>
<g id="a_edge31_Node000027_Node000028"><a xlink:title=" ">
<path fill="none" stroke="#63b8ff" d="M443.02,-210.77C430.74,-178.04 402.06,-114.4 355.25,-82.25 350.7,-79.12 345.72,-76.51 340.53,-74.34"/>
<polygon fill="#63b8ff" stroke="#63b8ff" points="439.62,-211.65 446.29,-219.88 446.2,-209.29 439.62,-211.65"/>
</a>
</g>
</g>
<!-- Node30 -->
<g id="Node000030" class="node">
<title>Node30</title>
<g id="a_Node000030"><a xlink:href="class_t_m_c2209_stepper.html#add1136accc0b089a157c95fdf8e1e685" target="_top" xlink:title=" ">
<polygon fill="white" stroke="#666666" points="342.5,-30.88 187.75,-30.88 187.75,-11.62 342.5,-11.62 342.5,-30.88"/>
<text text-anchor="middle" x="265.12" y="-17.38" font-family="Helvetica,sans-Serif" font-size="10.00">TMC2209Stepper::COOLCONF</text>
</a>
</g>
</g>
<!-- Node27&#45;&gt;Node30 -->
<g id="edge33_Node000027_Node000030" class="edge">
<title>Node27&#45;&gt;Node30</title>
<g id="a_edge33_Node000027_Node000030"><a xlink:title=" ">
<path fill="none" stroke="#63b8ff" d="M445.3,-210.27C435.51,-171.6 409.23,-89.03 355.25,-45.25 347.78,-39.19 338.92,-34.66 329.72,-31.26"/>
<polygon fill="#63b8ff" stroke="#63b8ff" points="441.87,-211 447.6,-219.91 448.68,-209.37 441.87,-211"/>
</a>
</g>
</g>
<!-- Node32 -->
<g id="Node000032" class="node">
<title>Node32</title>
<g id="a_Node000032"><a xlink:href="class_t_m_c2208_stepper.html#a97f0d743b9f5cf956637deb2e06d0145" target="_top" xlink:title=" ">
<polygon fill="white" stroke="#666666" points="355.25,-406.88 175,-406.88 175,-387.62 355.25,-387.62 355.25,-406.88"/>
<text text-anchor="middle" x="265.12" y="-393.38" font-family="Helvetica,sans-Serif" font-size="10.00">TMC2208Stepper::FACTORY_CONF</text>
</a>
</g>
</g>
<!-- Node27&#45;&gt;Node32 -->
<g id="edge35_Node000027_Node000032" class="edge">
<title>Node27&#45;&gt;Node32</title>
<g id="a_edge35_Node000027_Node000032"><a xlink:title=" ">
<path fill="none" stroke="#63b8ff" d="M442.98,-251.6C430.64,-284.1 401.89,-347.32 355.25,-379.25 350.69,-382.37 345.71,-384.98 340.52,-387.15"/>
<polygon fill="#63b8ff" stroke="#63b8ff" points="446.14,-253.14 446.26,-242.55 439.56,-250.75 446.14,-253.14"/>
</a>
</g>
</g>
<!-- Node34 -->
<g id="Node000034" class="node">
<title>Node34</title>
<g id="a_Node000034"><a xlink:href="class_t_m_c2208_stepper.html#ad920d81bde73173f5974a62a85b719e6" target="_top" xlink:title=" ">
<polygon fill="white" stroke="#666666" points="330.5,-369.88 199.75,-369.88 199.75,-350.62 330.5,-350.62 330.5,-369.88"/>
<text text-anchor="middle" x="265.12" y="-356.38" font-family="Helvetica,sans-Serif" font-size="10.00">TMC2208Stepper::fclktrim</text>
</a>
</g>
</g>
<!-- Node27&#45;&gt;Node34 -->
<g id="edge37_Node000027_Node000034" class="edge">
<title>Node27&#45;&gt;Node34</title>
<g id="a_edge37_Node000027_Node000034"><a xlink:title=" ">
<path fill="none" stroke="#63b8ff" d="M439.02,-250.8C423.71,-276.15 393.47,-319.77 355.25,-342.25 347.77,-346.65 339.39,-349.99 330.84,-352.53"/>
<polygon fill="#63b8ff" stroke="#63b8ff" points="441.86,-252.88 443.89,-242.48 435.82,-249.35 441.86,-252.88"/>
</a>
</g>
</g>
<!-- Node35 -->
<g id="Node000035" class="node">
<title>Node35</title>
<g id="a_Node000035"><a xlink:href="class_t_m_c2208_stepper.html#a20d275e1dba5fe4ab75fc405b2f46281" target="_top" xlink:title=" ">
<polygon fill="white" stroke="#666666" points="332.38,-332.88 197.88,-332.88 197.88,-313.62 332.38,-313.62 332.38,-332.88"/>
<text text-anchor="middle" x="265.12" y="-319.38" font-family="Helvetica,sans-Serif" font-size="10.00">TMC2208Stepper::GCONF</text>
</a>
</g>
</g>
<!-- Node27&#45;&gt;Node35 -->
<g id="edge38_Node000027_Node000035" class="edge">
<title>Node27&#45;&gt;Node35</title>
<g id="a_edge38_Node000027_Node000035"><a xlink:title=" ">
<path fill="none" stroke="#63b8ff" d="M432.77,-248.83C414.96,-265.93 385.56,-291.31 355.25,-305.25 348.08,-308.55 340.31,-311.25 332.45,-313.45"/>
<polygon fill="#63b8ff" stroke="#63b8ff" points="434.78,-251.75 439.45,-242.25 429.87,-246.77 434.78,-251.75"/>
</a>
</g>
</g>
<!-- Node37 -->
<g id="Node000037" class="node">
<title>Node37</title>
<g id="a_Node000037"><a xlink:href="class_t_m_c2208_stepper.html#a755b2adec0990d6bfcf2f5f1daf9d692" target="_top" xlink:title=" ">
<polygon fill="white" stroke="#666666" points="341.75,-295.88 188.5,-295.88 188.5,-276.62 341.75,-276.62 341.75,-295.88"/>
<text text-anchor="middle" x="265.12" y="-282.38" font-family="Helvetica,sans-Serif" font-size="10.00">TMC2208Stepper::OTP_PROG</text>
</a>
</g>
</g>
<!-- Node27&#45;&gt;Node37 -->
<g id="edge40_Node000027_Node000037" class="edge">
<title>Node27&#45;&gt;Node37</title>
<g id="a_edge40_Node000027_Node000037"><a xlink:title=" ">
<path fill="none" stroke="#63b8ff" d="M416.9,-245.8C398.92,-253.29 376.16,-262.11 355.25,-268.25 345.1,-271.23 334.16,-273.89 323.54,-276.18"/>
<polygon fill="#63b8ff" stroke="#63b8ff" points="418.17,-249.06 426.02,-241.94 415.44,-242.62 418.17,-249.06"/>
</a>
</g>
</g>
<!-- Node38 -->
<g id="Node000038" class="node">
<title>Node38</title>
<g id="a_Node000038"><a xlink:href="class_t_m_c2208_stepper.html#ae51fb40f4fba4aecb8f0763adddb8296" target="_top" xlink:title=" ">
<polygon fill="white" stroke="#666666" points="326.75,-258.88 203.5,-258.88 203.5,-239.62 326.75,-239.62 326.75,-258.88"/>
<text text-anchor="middle" x="265.12" y="-245.38" font-family="Helvetica,sans-Serif" font-size="10.00">TMC2208Stepper::ottrim</text>
</a>
</g>
</g>
<!-- Node27&#45;&gt;Node38 -->
<g id="edge41_Node000027_Node000038" class="edge">
<title>Node27&#45;&gt;Node38</title>
<g id="a_edge41_Node000027_Node000038"><a xlink:title=" ">
<path fill="none" stroke="#63b8ff" d="M379.62,-238.14C362.31,-239.83 343.92,-241.63 327.1,-243.28"/>
<polygon fill="#63b8ff" stroke="#63b8ff" points="379.69,-241.65 389.3,-237.19 379.01,-234.68 379.69,-241.65"/>
</a>
</g>
</g>
<!-- Node39 -->
<g id="Node000039" class="node">
<title>Node39</title>
<g id="a_Node000039"><a xlink:href="class_t_m_c2209_stepper.html#ac02a95cfd0f560a2705136717f50d957" target="_top" xlink:title=" ">
<polygon fill="white" stroke="#666666" points="335.38,-221.88 194.88,-221.88 194.88,-202.62 335.38,-202.62 335.38,-221.88"/>
<text text-anchor="middle" x="265.12" y="-208.38" font-family="Helvetica,sans-Serif" font-size="10.00">TMC2209Stepper::SGTHRS</text>
</a>
</g>
</g>
<!-- Node27&#45;&gt;Node39 -->
<g id="edge42_Node000027_Node000039" class="edge">
<title>Node27&#45;&gt;Node39</title>
<g id="a_edge42_Node000027_Node000039"><a xlink:title=" ">
<path fill="none" stroke="#63b8ff" d="M379.5,-223.97C365.16,-222.48 350.09,-220.93 335.79,-219.45"/>
<polygon fill="#63b8ff" stroke="#63b8ff" points="379,-227.43 389.3,-224.98 379.72,-220.47 379,-227.43"/>
</a>
</g>
</g>
<!-- Node41 -->
<g id="Node000041" class="node">
<title>Node41</title>
<g id="a_Node000041"><a xlink:href="class_t_m_c2208_stepper.html#a62c4c6100151acdbae6de579009b9f0d" target="_top" xlink:title=" ">
<polygon fill="white" stroke="#666666" points="344,-184.88 186.25,-184.88 186.25,-165.62 344,-165.62 344,-184.88"/>
<text text-anchor="middle" x="265.12" y="-171.38" font-family="Helvetica,sans-Serif" font-size="10.00">TMC2208Stepper::SLAVECONF</text>
</a>
</g>
</g>
<!-- Node27&#45;&gt;Node41 -->
<g id="edge44_Node000027_Node000041" class="edge">
<title>Node27&#45;&gt;Node41</title>
<g id="a_edge44_Node000027_Node000041"><a xlink:title=" ">
<path fill="none" stroke="#63b8ff" d="M417.66,-216.57C399.58,-208.81 376.48,-199.59 355.25,-193.25 345.27,-190.27 334.51,-187.63 324.04,-185.35"/>
<polygon fill="#63b8ff" stroke="#63b8ff" points="416.25,-219.78 426.81,-220.58 419.05,-213.36 416.25,-219.78"/>
</a>
</g>
</g>
<!-- Node43 -->
<g id="Node000043" class="node">
<title>Node43</title>
<g id="a_Node000043"><a xlink:href="class_t_m_c2209_stepper.html#acc61f21e6584dc64bd9bd025fd7bc29a" target="_top" xlink:title=" ">
<polygon fill="white" stroke="#666666" points="345.12,-147.88 185.12,-147.88 185.12,-128.62 345.12,-128.62 345.12,-147.88"/>
<text text-anchor="middle" x="265.12" y="-134.38" font-family="Helvetica,sans-Serif" font-size="10.00">TMC2209Stepper::TCOOLTHRS</text>
</a>
</g>
</g>
<!-- Node27&#45;&gt;Node43 -->
<g id="edge46_Node000027_Node000043" class="edge">
<title>Node27&#45;&gt;Node43</title>
<g id="a_edge46_Node000027_Node000043"><a xlink:title=" ">
<path fill="none" stroke="#63b8ff" d="M432.81,-213.43C415.04,-196.09 385.67,-170.36 355.25,-156.25 348.38,-153.06 340.95,-150.43 333.41,-148.27"/>
<polygon fill="#63b8ff" stroke="#63b8ff" points="429.95,-215.51 439.49,-220.11 434.9,-210.56 429.95,-215.51"/>
</a>
</g>
</g>
<!-- Node44 -->
<g id="Node000044" class="node">
<title>Node44</title>
<g id="a_Node000044"><a xlink:href="class_t_m_c2208_stepper.html#a9e9792fafdbbf0681daf613b2a5f507a" target="_top" xlink:title=" ">
<polygon fill="white" stroke="#666666" points="336.88,-110.88 193.38,-110.88 193.38,-91.62 336.88,-91.62 336.88,-110.88"/>
<text text-anchor="middle" x="265.12" y="-97.38" font-family="Helvetica,sans-Serif" font-size="10.00">TMC2208Stepper::VACTUAL</text>
</a>
</g>
</g>
<!-- Node27&#45;&gt;Node44 -->
<g id="edge47_Node000027_Node000044" class="edge">
<title>Node27&#45;&gt;Node44</title>
<g id="a_edge47_Node000027_Node000044"><a xlink:title=" ">
<path fill="none" stroke="#63b8ff" d="M439.07,-211.52C423.81,-185.94 393.62,-141.93 355.25,-119.25 349.68,-115.96 343.61,-113.26 337.34,-111.04"/>
<polygon fill="#63b8ff" stroke="#63b8ff" points="435.89,-213.02 443.92,-219.93 441.95,-209.52 435.89,-213.02"/>
</a>
</g>
</g>
<!-- Node29 -->
<g id="Node000029" class="node">
<title>Node29</title>
<g id="a_Node000029"><a xlink:href="class_t_m_c2208_stepper.html#abe6a8d3594e4a6f7871fadc7d2dbdcb0" target="_top" xlink:title=" ">
<polygon fill="white" stroke="#666666" points="139,-79.5 0,-79.5 0,-49 139,-49 139,-79.5"/>
<text text-anchor="start" x="8" y="-66" font-family="Helvetica,sans-Serif" font-size="10.00">TMC2208Stepper::INIT2208</text>
<text text-anchor="middle" x="69.5" y="-54.75" font-family="Helvetica,sans-Serif" font-size="10.00">_REGISTER</text>
</a>
</g>
</g>
<!-- Node28&#45;&gt;Node29 -->
<g id="edge32_Node000028_Node000029" class="edge">
<title>Node28&#45;&gt;Node29</title>
<g id="a_edge32_Node000028_Node000029"><a xlink:title=" ">
<path fill="none" stroke="#63b8ff" d="M175.26,-64.25C163.18,-64.25 150.94,-64.25 139.29,-64.25"/>
<polygon fill="#63b8ff" stroke="#63b8ff" points="175.25,-67.75 185.25,-64.25 175.25,-60.75 175.25,-67.75"/>
</a>
</g>
</g>
<!-- Node31 -->
<g id="Node000031" class="node">
<title>Node31</title>
<g id="a_Node000031"><a xlink:href="class_t_m_c2209_stepper.html#a64221bf459b0dea397baba27b7a54e10" target="_top" xlink:title=" ">
<polygon fill="white" stroke="#666666" points="139,-30.5 0,-30.5 0,0 139,0 139,-30.5"/>
<text text-anchor="start" x="8" y="-17" font-family="Helvetica,sans-Serif" font-size="10.00">TMC2209Stepper::INIT2209</text>
<text text-anchor="middle" x="69.5" y="-5.75" font-family="Helvetica,sans-Serif" font-size="10.00">_REGISTER</text>
</a>
</g>
</g>
<!-- Node30&#45;&gt;Node31 -->
<g id="edge34_Node000030_Node000031" class="edge">
<title>Node30&#45;&gt;Node31</title>
<g id="a_edge34_Node000030_Node000031"><a xlink:title=" ">
<path fill="none" stroke="#63b8ff" d="M176.09,-18.52C163.77,-18.14 151.26,-17.75 139.36,-17.38"/>
<polygon fill="#63b8ff" stroke="#63b8ff" points="175.7,-22.01 185.81,-18.82 175.92,-15.01 175.7,-22.01"/>
</a>
</g>
</g>
<!-- Node33 -->
<g id="Node000033" class="node">
<title>Node33</title>
<g id="a_Node000033"><a xlink:href="class_t_m_c2208_stepper.html#a4ea75e20279003cc3c509299572d4c77" target="_top" xlink:title=" ">
<polygon fill="white" stroke="#666666" points="128.5,-412.5 10.5,-412.5 10.5,-382 128.5,-382 128.5,-412.5"/>
<text text-anchor="start" x="18.5" y="-399" font-family="Helvetica,sans-Serif" font-size="10.00">TMC2208Stepper::INIT</text>
<text text-anchor="middle" x="69.5" y="-387.75" font-family="Helvetica,sans-Serif" font-size="10.00">_REGISTER</text>
</a>
</g>
</g>
<!-- Node32&#45;&gt;Node33 -->
<g id="edge36_Node000032_Node000033" class="edge">
<title>Node32&#45;&gt;Node33</title>
<g id="a_edge36_Node000032_Node000033"><a xlink:title=" ">
<path fill="none" stroke="#63b8ff" d="M163.36,-397.25C151.54,-397.25 139.81,-397.25 128.86,-397.25"/>
<polygon fill="#63b8ff" stroke="#63b8ff" points="163.17,-400.75 173.17,-397.25 163.17,-393.75 163.17,-400.75"/>
</a>
</g>
</g>
<!-- Node36 -->
<g id="Node000036" class="node">
<title>Node36</title>
<g id="a_Node000036"><a xlink:href="class_t_m_c2208_stepper.html#ae9305335bf7c7fca557b3900de8e9cda" target="_top" xlink:title=" ">
<polygon fill="white" stroke="#666666" points="139,-338.5 0,-338.5 0,-308 139,-308 139,-338.5"/>
<text text-anchor="start" x="8" y="-325" font-family="Helvetica,sans-Serif" font-size="10.00">TMC2208Stepper::INIT2208</text>
<text text-anchor="middle" x="69.5" y="-313.75" font-family="Helvetica,sans-Serif" font-size="10.00">_REGISTER</text>
</a>
</g>
</g>
<!-- Node35&#45;&gt;Node36 -->
<g id="edge39_Node000035_Node000036" class="edge">
<title>Node35&#45;&gt;Node36</title>
<g id="a_edge39_Node000035_Node000036"><a xlink:title=" ">
<path fill="none" stroke="#63b8ff" d="M186.3,-323.25C170.72,-323.25 154.47,-323.25 139.23,-323.25"/>
<polygon fill="#63b8ff" stroke="#63b8ff" points="185.98,-326.75 195.98,-323.25 185.98,-319.75 185.98,-326.75"/>
</a>
</g>
</g>
<!-- Node40 -->
<g id="Node000040" class="node">
<title>Node40</title>
<g id="a_Node000040"><a xlink:href="class_t_m_c2209_stepper.html#ade36c1462edb9fdb4afcc354ae1f6d2a" target="_top" xlink:title=" ">
<polygon fill="white" stroke="#666666" points="139,-233.5 0,-233.5 0,-203 139,-203 139,-233.5"/>
<text text-anchor="start" x="8" y="-220" font-family="Helvetica,sans-Serif" font-size="10.00">TMC2209Stepper::INIT2209</text>
<text text-anchor="middle" x="69.5" y="-208.75" font-family="Helvetica,sans-Serif" font-size="10.00">_REGISTER</text>
</a>
</g>
</g>
<!-- Node39&#45;&gt;Node40 -->
<g id="edge43_Node000039_Node000040" class="edge">
<title>Node39&#45;&gt;Node40</title>
<g id="a_edge43_Node000039_Node000040"><a xlink:title=" ">
<path fill="none" stroke="#63b8ff" d="M183.38,-214.75C168.69,-215.21 153.49,-215.68 139.19,-216.12"/>
<polygon fill="#63b8ff" stroke="#63b8ff" points="183.1,-218.26 192.98,-214.45 182.88,-211.27 183.1,-218.26"/>
</a>
</g>
</g>
<!-- Node42 -->
<g id="Node000042" class="node">
<title>Node42</title>
<g id="a_Node000042"><a xlink:href="class_t_m_c2208_stepper.html#a6a203b25b832b19826d2fa5a54e73e01" target="_top" xlink:title=" ">
<polygon fill="white" stroke="#666666" points="128.5,-184.5 10.5,-184.5 10.5,-154 128.5,-154 128.5,-184.5"/>
<text text-anchor="start" x="18.5" y="-171" font-family="Helvetica,sans-Serif" font-size="10.00">TMC2208Stepper::INIT</text>
<text text-anchor="middle" x="69.5" y="-159.75" font-family="Helvetica,sans-Serif" font-size="10.00">_REGISTER</text>
</a>
</g>
</g>
<!-- Node41&#45;&gt;Node42 -->
<g id="edge45_Node000041_Node000042" class="edge">
<title>Node41&#45;&gt;Node42</title>
<g id="a_edge45_Node000041_Node000042"><a xlink:title=" ">
<path fill="none" stroke="#63b8ff" d="M174.64,-172.48C159.05,-171.99 143.21,-171.5 128.74,-171.05"/>
<polygon fill="#63b8ff" stroke="#63b8ff" points="174.31,-175.97 184.42,-172.78 174.53,-168.97 174.31,-175.97"/>
</a>
</g>
</g>
<!-- Node45 -->
<g id="Node000045" class="node">
<title>Node45</title>
<g id="a_Node000045"><a xlink:href="class_t_m_c2208_stepper.html#aa0478c83baba97df3d716c42b5d0ea0f" target="_top" xlink:title=" ">
<polygon fill="white" stroke="#666666" points="139,-128.5 0,-128.5 0,-98 139,-98 139,-128.5"/>
<text text-anchor="start" x="8" y="-115" font-family="Helvetica,sans-Serif" font-size="10.00">TMC2208Stepper::INIT2208</text>
<text text-anchor="middle" x="69.5" y="-103.75" font-family="Helvetica,sans-Serif" font-size="10.00">_REGISTER</text>
</a>
</g>
</g>
<!-- Node44&#45;&gt;Node45 -->
<g id="edge48_Node000044_Node000045" class="edge">
<title>Node44&#45;&gt;Node45</title>
<g id="a_edge48_Node000044_Node000045"><a xlink:title=" ">
<path fill="none" stroke="#63b8ff" d="M181.85,-106.35C167.65,-107.23 153.03,-108.14 139.23,-108.99"/>
<polygon fill="#63b8ff" stroke="#63b8ff" points="181.85,-109.86 191.62,-105.74 181.42,-102.87 181.85,-109.86"/>
</a>
</g>
</g>
</g>
</svg>
