<?xml version="1.0" encoding="UTF-8" standalone="no"?>
<!DOCTYPE svg PUBLIC "-//W3C//DTD SVG 1.1//EN"
 "http://www.w3.org/Graphics/SVG/1.1/DTD/svg11.dtd">
<!-- Generated by graphviz version 12.2.1 (20241206.2353)
 -->
<!-- Title: TMC2208Stepper::TMC2208Stepper Pages: 1 -->
<svg width="394pt" height="64pt"
 viewBox="0.00 0.00 394.00 64.25" xmlns="http://www.w3.org/2000/svg" xmlns:xlink="http://www.w3.org/1999/xlink">
<g id="graph0" class="graph" transform="scale(1 1) rotate(0) translate(4 60.25)">
<title>TMC2208Stepper::TMC2208Stepper</title>
<!-- Node1 -->
<g id="Node000001" class="node">
<title>Node1</title>
<g id="a_Node000001"><a xlink:title=" ">
<polygon fill="#999999" stroke="#666666" points="386,-37.25 211,-37.25 211,-18 386,-18 386,-37.25"/>
<text text-anchor="middle" x="298.5" y="-23.75" font-family="Helvetica,sans-Serif" font-size="10.00">TMC2208Stepper::TMC2208Stepper</text>
</a>
</g>
</g>
<!-- Node1&#45;&gt;Node1 -->
<g id="edge2_Node000001_Node000001" class="edge">
<title>Node1&#45;&gt;Node1</title>
<g id="a_edge2_Node000001_Node000001"><a xlink:title=" ">
<path fill="none" stroke="#63b8ff" d="M336.98,-47.63C333.35,-52.04 320.52,-55.25 298.5,-55.25 261.41,-55.25 250.4,-46.15 265.47,-37.54"/>
<polygon fill="#63b8ff" stroke="#63b8ff" points="340.08,-46 332.25,-38.87 333.93,-49.33 340.08,-46"/>
</a>
</g>
</g>
<!-- Node2 -->
<g id="Node000002" class="node">
<title>Node2</title>
<g id="a_Node000002"><a xlink:href="class_t_m_c2208_stepper.html#a199a657521de685f5cd0831422fcc76f" target="_top" xlink:title=" ">
<polygon fill="white" stroke="#666666" points="175,-56.25 0,-56.25 0,-37 175,-37 175,-56.25"/>
<text text-anchor="middle" x="87.5" y="-42.75" font-family="Helvetica,sans-Serif" font-size="10.00">TMC2208Stepper::TMC2208Stepper</text>
</a>
</g>
</g>
<!-- Node1&#45;&gt;Node2 -->
<g id="edge1_Node000001_Node000002" class="edge">
<title>Node1&#45;&gt;Node2</title>
<g id="a_edge1_Node000001_Node000002"><a xlink:title=" ">
<path fill="none" stroke="#63b8ff" d="M199.4,-36.54C191.38,-37.27 183.31,-38.01 175.39,-38.73"/>
<polygon fill="#63b8ff" stroke="#63b8ff" points="199.53,-40.05 209.17,-35.65 198.9,-33.07 199.53,-40.05"/>
</a>
</g>
</g>
<!-- Node3 -->
<g id="Node000003" class="node">
<title>Node3</title>
<g id="a_Node000003"><a xlink:href="class_t_m_c2209_stepper.html#a1790da37955eafe0b7f5701a16a86187" target="_top" xlink:title=" ">
<polygon fill="white" stroke="#666666" points="175,-19.25 0,-19.25 0,0 175,0 175,-19.25"/>
<text text-anchor="middle" x="87.5" y="-5.75" font-family="Helvetica,sans-Serif" font-size="10.00">TMC2209Stepper::TMC2209Stepper</text>
</a>
</g>
</g>
<!-- Node1&#45;&gt;Node3 -->
<g id="edge3_Node000001_Node000003" class="edge">
<title>Node1&#45;&gt;Node3</title>
<g id="a_edge3_Node000001_Node000003"><a xlink:title=" ">
<path fill="none" stroke="#63b8ff" d="M199.4,-19.18C191.38,-18.49 183.31,-17.79 175.39,-17.11"/>
<polygon fill="#63b8ff" stroke="#63b8ff" points="198.91,-22.65 209.17,-20.02 199.51,-15.67 198.91,-22.65"/>
</a>
</g>
</g>
</g>
</svg>
