<?xml version="1.0" encoding="UTF-8" standalone="no"?>
<!DOCTYPE svg PUBLIC "-//W3C//DTD SVG 1.1//EN"
 "http://www.w3.org/Graphics/SVG/1.1/DTD/svg11.dtd">
<!-- Generated by graphviz version 12.2.1 (20241206.2353)
 -->
<!-- Title: TMC2660Stepper::write Pages: 1 -->
<svg width="320pt" height="175pt"
 viewBox="0.00 0.00 319.75 175.25" xmlns="http://www.w3.org/2000/svg" xmlns:xlink="http://www.w3.org/1999/xlink">

<svg id="main" version="1.1" xmlns="http://www.w3.org/2000/svg" xmlns:xlink="http://www.w3.org/1999/xlink" xml:space="preserve">

<style type="text/css"><![CDATA[
.node, .edge {opacity: 0.7;}
.node.selected, .edge.selected {opacity: 1;}
.edge:hover path { stroke: red; }
.edge:hover polygon { stroke: red; fill: red; }
]]></style>
<script type="application/ecmascript" xlink:href="svg.min.js"/>
<svg id="graph" class="graph">
<g id="graph0" class="graph" transform="scale(1 1) rotate(0) translate(4 171.25)">
<title>TMC2660Stepper::write</title>
<!-- Node1 -->
<g id="Node000001" class="node">
<title>Node1</title>
<g id="a_Node000001"><a xlink:title=" ">
<polygon fill="#999999" stroke="#666666" points="311.75,-93.25 192.25,-93.25 192.25,-74 311.75,-74 311.75,-93.25"/>
<text text-anchor="middle" x="252" y="-79.75" font-family="Helvetica,sans-Serif" font-size="10.00">TMC2660Stepper::write</text>
</a>
</g>
</g>
<!-- Node2 -->
<g id="Node000002" class="node">
<title>Node2</title>
<g id="a_Node000002"><a xlink:href="class_t_m_c2660_stepper.html#a70328d7ca863697d018760836310a6ee" target="_top" xlink:title=" ">
<polygon fill="white" stroke="#666666" points="156.25,-167.25 0,-167.25 0,-148 156.25,-148 156.25,-167.25"/>
<text text-anchor="middle" x="78.12" y="-153.75" font-family="Helvetica,sans-Serif" font-size="10.00">TMC2660Stepper::CHOPCONF</text>
</a>
</g>
</g>
<!-- Node1&#45;&gt;Node2 -->
<g id="edge1_Node000001_Node000002" class="edge">
<title>Node1&#45;&gt;Node2</title>
<g id="a_edge1_Node000001_Node000002"><a xlink:title=" ">
<path fill="none" stroke="#63b8ff" d="M227.88,-100.01C209.31,-112.49 182.14,-129.24 156.25,-139.62 148.59,-142.7 140.29,-145.32 132.06,-147.53"/>
<polygon fill="#63b8ff" stroke="#63b8ff" points="229.74,-102.98 236.01,-94.44 225.78,-97.21 229.74,-102.98"/>
</a>
</g>
</g>
<!-- Node3 -->
<g id="Node000003" class="node">
<title>Node3</title>
<g id="a_Node000003"><a xlink:href="class_t_m_c2660_stepper.html#aec6cc6025a1e9d9aa0165a6f9a8b67d9" target="_top" xlink:title=" ">
<polygon fill="white" stroke="#666666" points="152.5,-130.25 3.75,-130.25 3.75,-111 152.5,-111 152.5,-130.25"/>
<text text-anchor="middle" x="78.12" y="-116.75" font-family="Helvetica,sans-Serif" font-size="10.00">TMC2660Stepper::DRVCONF</text>
</a>
</g>
</g>
<!-- Node1&#45;&gt;Node3 -->
<g id="edge2_Node000001_Node000003" class="edge">
<title>Node1&#45;&gt;Node3</title>
<g id="a_edge2_Node000001_Node000003"><a xlink:title=" ">
<path fill="none" stroke="#63b8ff" d="M192.92,-96.13C171.14,-100.82 146.68,-106.08 126.03,-110.53"/>
<polygon fill="#63b8ff" stroke="#63b8ff" points="193.52,-99.58 202.55,-94.05 192.04,-92.74 193.52,-99.58"/>
</a>
</g>
</g>
<!-- Node4 -->
<g id="Node000004" class="node">
<title>Node4</title>
<g id="a_Node000004"><a xlink:href="class_t_m_c2660_stepper.html#a52b5e94e7a6a339f4c58f47edbf97f0b" target="_top" xlink:title=" ">
<polygon fill="white" stroke="#666666" points="151.38,-93.25 4.88,-93.25 4.88,-74 151.38,-74 151.38,-93.25"/>
<text text-anchor="middle" x="78.12" y="-79.75" font-family="Helvetica,sans-Serif" font-size="10.00">TMC2660Stepper::DRVCTRL</text>
</a>
</g>
</g>
<!-- Node1&#45;&gt;Node4 -->
<g id="edge3_Node000001_Node000004" class="edge">
<title>Node1&#45;&gt;Node4</title>
<g id="a_edge3_Node000001_Node000004"><a xlink:title=" ">
<path fill="none" stroke="#63b8ff" d="M180.46,-83.62C170.99,-83.62 161.26,-83.62 151.75,-83.62"/>
<polygon fill="#63b8ff" stroke="#63b8ff" points="180.34,-87.13 190.34,-83.63 180.34,-80.13 180.34,-87.13"/>
</a>
</g>
</g>
<!-- Node5 -->
<g id="Node000005" class="node">
<title>Node5</title>
<g id="a_Node000005"><a xlink:href="class_t_m_c2660_stepper.html#a49dec7d4fe3d3fc5c26b748b1653e6e6" target="_top" xlink:title=" ">
<polygon fill="white" stroke="#666666" points="155.88,-56.25 0.38,-56.25 0.38,-37 155.88,-37 155.88,-56.25"/>
<text text-anchor="middle" x="78.12" y="-42.75" font-family="Helvetica,sans-Serif" font-size="10.00">TMC2660Stepper::SGCSCONF</text>
</a>
</g>
</g>
<!-- Node1&#45;&gt;Node5 -->
<g id="edge4_Node000001_Node000005" class="edge">
<title>Node1&#45;&gt;Node5</title>
<g id="a_edge4_Node000001_Node000005"><a xlink:title=" ">
<path fill="none" stroke="#63b8ff" d="M192.92,-71.12C171.14,-66.43 146.68,-61.17 126.03,-56.72"/>
<polygon fill="#63b8ff" stroke="#63b8ff" points="192.04,-74.51 202.55,-73.2 193.52,-67.67 192.04,-74.51"/>
</a>
</g>
</g>
<!-- Node6 -->
<g id="Node000006" class="node">
<title>Node6</title>
<g id="a_Node000006"><a xlink:href="class_t_m_c2660_stepper.html#a6e7b6995932a531acd1a8b81e81fd94e" target="_top" xlink:title=" ">
<polygon fill="white" stroke="#666666" points="152.12,-19.25 4.12,-19.25 4.12,0 152.12,0 152.12,-19.25"/>
<text text-anchor="middle" x="78.12" y="-5.75" font-family="Helvetica,sans-Serif" font-size="10.00">TMC2660Stepper::SMARTEN</text>
</a>
</g>
</g>
<!-- Node1&#45;&gt;Node6 -->
<g id="edge5_Node000001_Node000006" class="edge">
<title>Node1&#45;&gt;Node6</title>
<g id="a_edge5_Node000001_Node000006"><a xlink:title=" ">
<path fill="none" stroke="#63b8ff" d="M227.88,-67.24C209.31,-54.76 182.14,-38.01 156.25,-27.62 148.59,-24.55 140.29,-21.93 132.06,-19.72"/>
<polygon fill="#63b8ff" stroke="#63b8ff" points="225.78,-70.04 236.01,-72.81 229.74,-64.27 225.78,-70.04"/>
</a>
</g>
</g>
</g>
</svg>
</svg>

<style type='text/css'>
<![CDATA[
[data-mouse-over-selected='false'] { opacity: 0.7; }
[data-mouse-over-selected='true']  { opacity: 1.0; }
]]>
</style>
<script type="application/ecmascript"><![CDATA[
document.addEventListener('DOMContentLoaded', (event) => {
  highlightEdges();
  highlightAdjacentNodes();
});
]]></script>
</svg>
