<?xml version="1.0" encoding="UTF-8" standalone="no"?>
<!DOCTYPE svg PUBLIC "-//W3C//DTD SVG 1.1//EN"
 "http://www.w3.org/Graphics/SVG/1.1/DTD/svg11.dtd">
<!-- Generated by graphviz version 12.2.1 (20241206.2353)
 -->
<!-- Title: TMC2240Stepper::begin Pages: 1 -->
<svg width="479pt" height="175pt"
 viewBox="0.00 0.00 479.00 175.25" xmlns="http://www.w3.org/2000/svg" xmlns:xlink="http://www.w3.org/1999/xlink">
<g id="graph0" class="graph" transform="scale(1 1) rotate(0) translate(4 171.25)">
<title>TMC2240Stepper::begin</title>
<!-- Node1 -->
<g id="Node000001" class="node">
<title>Node1</title>
<g id="a_Node000001"><a xlink:title=" ">
<polygon fill="#999999" stroke="#666666" points="121.75,-93.25 0,-93.25 0,-74 121.75,-74 121.75,-93.25"/>
<text text-anchor="middle" x="60.88" y="-79.75" font-family="Helvetica,sans-Serif" font-size="10.00">TMC2240Stepper::begin</text>
</a>
</g>
</g>
<!-- Node2 -->
<g id="Node000002" class="node">
<title>Node2</title>
<g id="a_Node000002"><a xlink:href="class_t_m_c2240_stepper.html#a01b6a378664e99c8fb7c2ffbffa03c2c" target="_top" xlink:title=" ">
<polygon fill="white" stroke="#666666" points="315.88,-167.25 159.62,-167.25 159.62,-148 315.88,-148 315.88,-167.25"/>
<text text-anchor="middle" x="237.75" y="-153.75" font-family="Helvetica,sans-Serif" font-size="10.00">TMC2240Stepper::CHOPCONF</text>
</a>
</g>
</g>
<!-- Node1&#45;&gt;Node2 -->
<g id="edge1_Node000001_Node000002" class="edge">
<title>Node1&#45;&gt;Node2</title>
<g id="a_edge1_Node000001_Node000002"><a xlink:title=" ">
<path fill="none" stroke="#63b8ff" d="M75.79,-93.6C93.85,-106.1 126.74,-127.37 157.75,-139.62 162.17,-141.37 166.79,-142.97 171.49,-144.43"/>
<polygon fill="#63b8ff" stroke="#63b8ff" points="170.51,-147.78 181.08,-147.17 172.43,-141.05 170.51,-147.78"/>
</a>
</g>
</g>
<!-- Node4 -->
<g id="Node000004" class="node">
<title>Node4</title>
<g id="a_Node000004"><a xlink:href="class_t_m_c2240_stepper.html#a10bd310325636c2839b49a05eba924d9" target="_top" xlink:title=" ">
<polygon fill="white" stroke="#666666" points="305,-130.25 170.5,-130.25 170.5,-111 305,-111 305,-130.25"/>
<text text-anchor="middle" x="237.75" y="-116.75" font-family="Helvetica,sans-Serif" font-size="10.00">TMC2240Stepper::GCONF</text>
</a>
</g>
</g>
<!-- Node1&#45;&gt;Node4 -->
<g id="edge3_Node000001_Node000004" class="edge">
<title>Node1&#45;&gt;Node4</title>
<g id="a_edge3_Node000001_Node000004"><a xlink:title=" ">
<path fill="none" stroke="#63b8ff" d="M109.66,-93.74C130.77,-98.2 155.79,-103.5 178.02,-108.2"/>
<polygon fill="#63b8ff" stroke="#63b8ff" points="177.03,-111.57 187.54,-110.21 178.48,-104.72 177.03,-111.57"/>
</a>
</g>
</g>
<!-- Node5 -->
<g id="Node000005" class="node">
<title>Node5</title>
<g id="a_Node000005"><a xlink:href="class_t_m_c2240_stepper.html#a8049b6f5406aa19ed0bd8bd3feda4809" target="_top" xlink:title=" ">
<polygon fill="white" stroke="#666666" points="317.75,-93.25 157.75,-93.25 157.75,-74 317.75,-74 317.75,-93.25"/>
<text text-anchor="middle" x="237.75" y="-79.75" font-family="Helvetica,sans-Serif" font-size="10.00">TMC2240Stepper::IHOLD_IRUN</text>
</a>
</g>
</g>
<!-- Node1&#45;&gt;Node5 -->
<g id="edge5_Node000001_Node000005" class="edge">
<title>Node1&#45;&gt;Node5</title>
<g id="a_edge5_Node000001_Node000005"><a xlink:title=" ">
<path fill="none" stroke="#63b8ff" d="M122.06,-83.62C129.78,-83.62 137.82,-83.62 145.89,-83.62"/>
<polygon fill="#63b8ff" stroke="#63b8ff" points="145.8,-87.13 155.8,-83.63 145.8,-80.13 145.8,-87.13"/>
</a>
</g>
</g>
<!-- Node6 -->
<g id="Node000006" class="node">
<title>Node6</title>
<g id="a_Node000006"><a xlink:href="class_t_m_c2240_stepper.html#a9e471be67356400b9ef46db5cd566f5d" target="_top" xlink:title=" ">
<polygon fill="white" stroke="#666666" points="313.62,-56.25 161.88,-56.25 161.88,-37 313.62,-37 313.62,-56.25"/>
<text text-anchor="middle" x="237.75" y="-42.75" font-family="Helvetica,sans-Serif" font-size="10.00">TMC2240Stepper::PWMCONF</text>
</a>
</g>
</g>
<!-- Node1&#45;&gt;Node6 -->
<g id="edge6_Node000001_Node000006" class="edge">
<title>Node1&#45;&gt;Node6</title>
<g id="a_edge6_Node000001_Node000006"><a xlink:title=" ">
<path fill="none" stroke="#63b8ff" d="M109.66,-73.51C130.77,-69.05 155.79,-63.75 178.02,-59.05"/>
<polygon fill="#63b8ff" stroke="#63b8ff" points="178.48,-62.53 187.54,-57.04 177.03,-55.68 178.48,-62.53"/>
</a>
</g>
</g>
<!-- Node7 -->
<g id="Node000007" class="node">
<title>Node7</title>
<g id="a_Node000007"><a xlink:href="class_t_m_c2240_stepper.html#a6ed53dc734874f9dd0d15fa08905cec8" target="_top" xlink:title=" ">
<polygon fill="white" stroke="#666666" points="314.75,-19.25 160.75,-19.25 160.75,0 314.75,0 314.75,-19.25"/>
<text text-anchor="middle" x="237.75" y="-5.75" font-family="Helvetica,sans-Serif" font-size="10.00">TMC2240Stepper::switchCSpin</text>
</a>
</g>
</g>
<!-- Node1&#45;&gt;Node7 -->
<g id="edge7_Node000001_Node000007" class="edge">
<title>Node1&#45;&gt;Node7</title>
<g id="a_edge7_Node000001_Node000007"><a xlink:title=" ">
<path fill="none" stroke="#63b8ff" d="M75.79,-73.65C93.85,-61.15 126.74,-39.88 157.75,-27.62 162.17,-25.88 166.79,-24.28 171.49,-22.82"/>
<polygon fill="#63b8ff" stroke="#63b8ff" points="172.43,-26.2 181.08,-20.08 170.51,-19.47 172.43,-26.2"/>
</a>
</g>
</g>
<!-- Node3 -->
<g id="Node000003" class="node">
<title>Node3</title>
<g id="a_Node000003"><a xlink:href="class_t_m_c2240_stepper.html#ab9de5d1aad8b0a998557ef85de765df9" target="_top" xlink:title=" ">
<polygon fill="white" stroke="#666666" points="471,-148.25 353.75,-148.25 353.75,-129 471,-129 471,-148.25"/>
<text text-anchor="middle" x="412.38" y="-134.75" font-family="Helvetica,sans-Serif" font-size="10.00">TMC2240Stepper::read</text>
</a>
</g>
</g>
<!-- Node2&#45;&gt;Node3 -->
<g id="edge2_Node000002_Node000003" class="edge">
<title>Node2&#45;&gt;Node3</title>
<g id="a_edge2_Node000002_Node000003"><a xlink:title=" ">
<path fill="none" stroke="#63b8ff" d="M316.23,-149.1C324.79,-148.15 333.47,-147.2 341.93,-146.27"/>
<polygon fill="#63b8ff" stroke="#63b8ff" points="342.23,-149.76 351.79,-145.18 341.47,-142.8 342.23,-149.76"/>
</a>
</g>
</g>
<!-- Node4&#45;&gt;Node3 -->
<g id="edge4_Node000004_Node000003" class="edge">
<title>Node4&#45;&gt;Node3</title>
<g id="a_edge4_Node000004_Node000003"><a xlink:title=" ">
<path fill="none" stroke="#63b8ff" d="M305.49,-127.58C317.5,-128.84 330.04,-130.14 342.12,-131.4"/>
<polygon fill="#63b8ff" stroke="#63b8ff" points="341.7,-134.88 352.01,-132.44 342.43,-127.92 341.7,-134.88"/>
</a>
</g>
</g>
</g>
</svg>
