<?xml version="1.0" encoding="UTF-8" standalone="no"?>
<!DOCTYPE svg PUBLIC "-//W3C//DTD SVG 1.1//EN"
 "http://www.w3.org/Graphics/SVG/1.1/DTD/svg11.dtd">
<!-- Generated by graphviz version 12.2.1 (20241206.2353)
 -->
<!-- Title: TMC2240Stepper::ihold Pages: 1 -->
<svg width="282pt" height="45pt"
 viewBox="0.00 0.00 281.50 45.25" xmlns="http://www.w3.org/2000/svg" xmlns:xlink="http://www.w3.org/1999/xlink">
<g id="graph0" class="graph" transform="scale(1 1) rotate(0) translate(4 41.25)">
<title>TMC2240Stepper::ihold</title>
<!-- Node1 -->
<g id="Node000001" class="node">
<title>Node1</title>
<g id="a_Node000001"><a xlink:title=" ">
<polygon fill="#999999" stroke="#666666" points="118.75,-19.25 0,-19.25 0,0 118.75,0 118.75,-19.25"/>
<text text-anchor="middle" x="59.38" y="-5.75" font-family="Helvetica,sans-Serif" font-size="10.00">TMC2240Stepper::ihold</text>
</a>
</g>
</g>
<!-- Node2 -->
<g id="Node000002" class="node">
<title>Node2</title>
<g id="a_Node000002"><a xlink:href="class_t_m_c2240_stepper.html#a261d189729afe54f758d7a8cd2f599c8" target="_top" xlink:title=" ">
<polygon fill="white" stroke="#666666" points="273.5,-19.25 154.75,-19.25 154.75,0 273.5,0 273.5,-19.25"/>
<text text-anchor="middle" x="214.12" y="-5.75" font-family="Helvetica,sans-Serif" font-size="10.00">TMC2240Stepper::ihold</text>
</a>
</g>
</g>
<!-- Node1&#45;&gt;Node2 -->
<g id="edge1_Node000001_Node000002" class="edge">
<title>Node1&#45;&gt;Node2</title>
<g id="a_edge1_Node000001_Node000002"><a xlink:title=" ">
<path fill="none" stroke="#63b8ff" d="M119,-9.62C126.89,-9.62 135.05,-9.62 143.11,-9.62"/>
<polygon fill="#63b8ff" stroke="#63b8ff" points="142.9,-13.13 152.9,-9.63 142.9,-6.13 142.9,-13.13"/>
</a>
</g>
</g>
<!-- Node2&#45;&gt;Node2 -->
<g id="edge2_Node000002_Node000002" class="edge">
<title>Node2&#45;&gt;Node2</title>
<g id="a_edge2_Node000002_Node000002"><a xlink:title=" ">
<path fill="none" stroke="#63b8ff" d="M189.9,-19.54C178.85,-28.15 186.92,-37.25 214.12,-37.25 229.43,-37.25 238.68,-34.37 241.87,-30.32"/>
<polygon fill="#63b8ff" stroke="#63b8ff" points="245.25,-29.4 238.82,-20.98 238.6,-31.57 245.25,-29.4"/>
</a>
</g>
</g>
</g>
</svg>
