<?xml version="1.0" encoding="UTF-8" standalone="no"?>
<!DOCTYPE svg PUBLIC "-//W3C//DTD SVG 1.1//EN"
 "http://www.w3.org/Graphics/SVG/1.1/DTD/svg11.dtd">
<!-- Generated by graphviz version 12.2.1 (20241206.2353)
 -->
<!-- Title: TMC2240Stepper::GSTAT Pages: 1 -->
<svg width="310pt" height="187pt"
 viewBox="0.00 0.00 310.00 187.25" xmlns="http://www.w3.org/2000/svg" xmlns:xlink="http://www.w3.org/1999/xlink">
<g id="graph0" class="graph" transform="scale(1 1) rotate(0) translate(4 183.25)">
<title>TMC2240Stepper::GSTAT</title>
<!-- Node1 -->
<g id="Node000001" class="node">
<title>Node1</title>
<g id="a_Node000001"><a xlink:title=" ">
<polygon fill="#999999" stroke="#666666" points="302,-93.25 171.25,-93.25 171.25,-74 302,-74 302,-93.25"/>
<text text-anchor="middle" x="236.62" y="-79.75" font-family="Helvetica,sans-Serif" font-size="10.00">TMC2240Stepper::GSTAT</text>
</a>
</g>
</g>
<!-- Node2 -->
<g id="Node000002" class="node">
<title>Node2</title>
<g id="a_Node000002"><a xlink:href="class_t_m_c2240_stepper.html#ade0b355ce1ed9bc526d77fe9054a4315" target="_top" xlink:title=" ">
<polygon fill="white" stroke="#666666" points="131.88,-179.25 3.38,-179.25 3.38,-160 131.88,-160 131.88,-179.25"/>
<text text-anchor="middle" x="67.62" y="-165.75" font-family="Helvetica,sans-Serif" font-size="10.00">TMC2240Stepper::drv_err</text>
</a>
</g>
</g>
<!-- Node1&#45;&gt;Node2 -->
<g id="edge1_Node000001_Node000002" class="edge">
<title>Node1&#45;&gt;Node2</title>
<g id="a_edge1_Node000001_Node000002"><a xlink:title=" ">
<path fill="none" stroke="#63b8ff" d="M214.46,-100.61C194.9,-115.59 164.53,-137.08 135.25,-150.62 127.72,-154.11 119.41,-157.09 111.28,-159.6"/>
<polygon fill="#63b8ff" stroke="#63b8ff" points="216.46,-103.49 222.2,-94.58 212.16,-97.97 216.46,-103.49"/>
</a>
</g>
</g>
<!-- Node3 -->
<g id="Node000003" class="node">
<title>Node3</title>
<g id="a_Node000003"><a xlink:href="class_t_m_c2240_stepper.html#a1c9dfc39f0223341e743d3596917d85e" target="_top" xlink:title=" ">
<polygon fill="white" stroke="#666666" points="133,-141.88 2.25,-141.88 2.25,-111.38 133,-111.38 133,-141.88"/>
<text text-anchor="start" x="10.25" y="-128.38" font-family="Helvetica,sans-Serif" font-size="10.00">TMC2240Stepper::register</text>
<text text-anchor="middle" x="67.62" y="-117.12" font-family="Helvetica,sans-Serif" font-size="10.00">_reset</text>
</a>
</g>
</g>
<!-- Node1&#45;&gt;Node3 -->
<g id="edge2_Node000001_Node000003" class="edge">
<title>Node1&#45;&gt;Node3</title>
<g id="a_edge2_Node000001_Node000003"><a xlink:title=" ">
<path fill="none" stroke="#63b8ff" d="M185.35,-96.57C167.85,-101.08 148.03,-106.18 129.76,-110.88"/>
<polygon fill="#63b8ff" stroke="#63b8ff" points="186.19,-99.97 195.01,-94.08 184.45,-93.19 186.19,-99.97"/>
</a>
</g>
</g>
<!-- Node4 -->
<g id="Node000004" class="node">
<title>Node4</title>
<g id="a_Node000004"><a xlink:href="class_t_m_c2240_stepper.html#a93f4756713b780af23557f2b635ebd36" target="_top" xlink:title=" ">
<polygon fill="white" stroke="#666666" points="127.75,-93.25 7.5,-93.25 7.5,-74 127.75,-74 127.75,-93.25"/>
<text text-anchor="middle" x="67.62" y="-79.75" font-family="Helvetica,sans-Serif" font-size="10.00">TMC2240Stepper::reset</text>
</a>
</g>
</g>
<!-- Node1&#45;&gt;Node4 -->
<g id="edge3_Node000001_Node000004" class="edge">
<title>Node1&#45;&gt;Node4</title>
<g id="a_edge3_Node000001_Node000004"><a xlink:title=" ">
<path fill="none" stroke="#63b8ff" d="M159.67,-83.62C149.08,-83.62 138.33,-83.62 128.1,-83.62"/>
<polygon fill="#63b8ff" stroke="#63b8ff" points="159.54,-87.13 169.54,-83.63 159.54,-80.13 159.54,-87.13"/>
</a>
</g>
</g>
<!-- Node5 -->
<g id="Node000005" class="node">
<title>Node5</title>
<g id="a_Node000005"><a xlink:href="class_t_m_c2240_stepper.html#a6bc17bc54f431115ad5d92274eb450fe" target="_top" xlink:title=" ">
<polygon fill="white" stroke="#666666" points="130,-56.25 5.25,-56.25 5.25,-37 130,-37 130,-56.25"/>
<text text-anchor="middle" x="67.62" y="-42.75" font-family="Helvetica,sans-Serif" font-size="10.00">TMC2240Stepper::uv_cp</text>
</a>
</g>
</g>
<!-- Node1&#45;&gt;Node5 -->
<g id="edge4_Node000001_Node000005" class="edge">
<title>Node1&#45;&gt;Node5</title>
<g id="a_edge4_Node000001_Node000005"><a xlink:title=" ">
<path fill="none" stroke="#63b8ff" d="M178.9,-71.06C157.81,-66.38 134.17,-61.15 114.2,-56.72"/>
<polygon fill="#63b8ff" stroke="#63b8ff" points="177.99,-74.44 188.51,-73.19 179.51,-67.61 177.99,-74.44"/>
</a>
</g>
</g>
<!-- Node6 -->
<g id="Node000006" class="node">
<title>Node6</title>
<g id="a_Node000006"><a xlink:href="class_t_m_c2240_stepper.html#a28b2731c02d029b3a32097cfec614adf" target="_top" xlink:title=" ">
<polygon fill="white" stroke="#666666" points="135.25,-19.25 0,-19.25 0,0 135.25,0 135.25,-19.25"/>
<text text-anchor="middle" x="67.62" y="-5.75" font-family="Helvetica,sans-Serif" font-size="10.00">TMC2240Stepper::vm_uvlo</text>
</a>
</g>
</g>
<!-- Node1&#45;&gt;Node6 -->
<g id="edge5_Node000001_Node000006" class="edge">
<title>Node1&#45;&gt;Node6</title>
<g id="a_edge5_Node000001_Node000006"><a xlink:title=" ">
<path fill="none" stroke="#63b8ff" d="M211.09,-67.69C191.27,-55.38 162.32,-38.64 135.25,-27.62 127.93,-24.65 119.95,-22.01 112.14,-19.73"/>
<polygon fill="#63b8ff" stroke="#63b8ff" points="208.96,-70.49 219.29,-72.86 212.7,-64.57 208.96,-70.49"/>
</a>
</g>
</g>
</g>
</svg>
