<?xml version="1.0" encoding="UTF-8" standalone="no"?>
<!DOCTYPE svg PUBLIC "-//W3C//DTD SVG 1.1//EN"
 "http://www.w3.org/Graphics/SVG/1.1/DTD/svg11.dtd">
<!-- Generated by graphviz version 12.2.1 (20241206.2353)
 -->
<!-- Title: TMC2208Stepper::GCONF Pages: 1 -->
<svg width="717pt" height="187pt"
 viewBox="0.00 0.00 717.00 187.25" xmlns="http://www.w3.org/2000/svg" xmlns:xlink="http://www.w3.org/1999/xlink">
<g id="graph0" class="graph" transform="scale(1 1) rotate(0) translate(4 183.25)">
<title>TMC2208Stepper::GCONF</title>
<!-- Node1 -->
<g id="Node000001" class="node">
<title>Node1</title>
<g id="a_Node000001"><a xlink:title=" ">
<polygon fill="#999999" stroke="#666666" points="134.5,-83.25 0,-83.25 0,-64 134.5,-64 134.5,-83.25"/>
<text text-anchor="middle" x="67.25" y="-69.75" font-family="Helvetica,sans-Serif" font-size="10.00">TMC2208Stepper::GCONF</text>
</a>
</g>
</g>
<!-- Node2 -->
<g id="Node000002" class="node">
<title>Node2</title>
<g id="a_Node000002"><a xlink:href="class_t_m_c2208_stepper.html#a2fae2050849c3ab7968012def8ea1cc5" target="_top" xlink:title=" ">
<polygon fill="white" stroke="#666666" points="287.75,-83.25 170.5,-83.25 170.5,-64 287.75,-64 287.75,-83.25"/>
<text text-anchor="middle" x="229.12" y="-69.75" font-family="Helvetica,sans-Serif" font-size="10.00">TMC2208Stepper::read</text>
</a>
</g>
</g>
<!-- Node1&#45;&gt;Node2 -->
<g id="edge1_Node000001_Node000002" class="edge">
<title>Node1&#45;&gt;Node2</title>
<g id="a_edge1_Node000001_Node000002"><a xlink:title=" ">
<path fill="none" stroke="#63b8ff" d="M134.66,-73.62C142.56,-73.62 150.64,-73.62 158.58,-73.62"/>
<polygon fill="#63b8ff" stroke="#63b8ff" points="158.56,-77.13 168.56,-73.63 158.56,-70.13 158.56,-77.13"/>
</a>
</g>
</g>
<!-- Node3 -->
<g id="Node000003" class="node">
<title>Node3</title>
<g id="a_Node000003"><a xlink:href="class_t_m_c2208_stepper.html#a321ad81155b7a20c0858920d32d0b074" target="_top" xlink:title=" ">
<polygon fill="white" stroke="#666666" points="509.25,-142.25 341.75,-142.25 341.75,-123 509.25,-123 509.25,-142.25"/>
<text text-anchor="middle" x="425.5" y="-128.75" font-family="Helvetica,sans-Serif" font-size="10.00">TMC2208Stepper::_sendDatagram</text>
</a>
</g>
</g>
<!-- Node2&#45;&gt;Node3 -->
<g id="edge2_Node000002_Node000003" class="edge">
<title>Node2&#45;&gt;Node3</title>
<g id="a_edge2_Node000002_Node000003"><a xlink:title=" ">
<path fill="none" stroke="#63b8ff" d="M249.34,-83.65C267.92,-92.94 297.09,-106.53 323.75,-114.62 330.39,-116.64 337.35,-118.46 344.37,-120.1"/>
<polygon fill="#63b8ff" stroke="#63b8ff" points="343.43,-123.47 353.95,-122.2 344.93,-116.64 343.43,-123.47"/>
</a>
</g>
</g>
<!-- Node7 -->
<g id="Node000007" class="node">
<title>Node7</title>
<g id="a_Node000007"><a xlink:href="class_t_m_c2208_stepper.html#a409c19fa6b052a370a317d061bf9af4e" target="_top" xlink:title=" ">
<polygon fill="white" stroke="#666666" points="495,-105.25 356,-105.25 356,-86 495,-86 495,-105.25"/>
<text text-anchor="middle" x="425.5" y="-91.75" font-family="Helvetica,sans-Serif" font-size="10.00">TMC2208Stepper::calcCRC</text>
</a>
</g>
</g>
<!-- Node2&#45;&gt;Node7 -->
<g id="edge6_Node000002_Node000007" class="edge">
<title>Node2&#45;&gt;Node7</title>
<g id="a_edge6_Node000002_Node000007"><a xlink:title=" ">
<path fill="none" stroke="#63b8ff" d="M288.18,-80.2C305.87,-82.2 325.62,-84.43 344.49,-86.57"/>
<polygon fill="#63b8ff" stroke="#63b8ff" points="343.95,-90.03 354.28,-87.68 344.74,-83.07 343.95,-90.03"/>
</a>
</g>
</g>
<!-- Node8 -->
<g id="Node000008" class="node">
<title>Node8</title>
<g id="a_Node000008"><a xlink:href="class_t_m_c2208_stepper.html#ab3d186b27f45ec47c1cf0bf15ed4cd2e" target="_top" xlink:title=" ">
<polygon fill="white" stroke="#666666" points="495.75,-67.88 355.25,-67.88 355.25,-37.38 495.75,-37.38 495.75,-67.88"/>
<text text-anchor="start" x="363.25" y="-54.38" font-family="Helvetica,sans-Serif" font-size="10.00">TMC2208Stepper::postRead</text>
<text text-anchor="middle" x="425.5" y="-43.12" font-family="Helvetica,sans-Serif" font-size="10.00">Communication</text>
</a>
</g>
</g>
<!-- Node2&#45;&gt;Node8 -->
<g id="edge7_Node000002_Node000008" class="edge">
<title>Node2&#45;&gt;Node8</title>
<g id="a_edge7_Node000002_Node000008"><a xlink:title=" ">
<path fill="none" stroke="#63b8ff" d="M288.18,-67.35C305.68,-65.46 325.21,-63.35 343.9,-61.33"/>
<polygon fill="#63b8ff" stroke="#63b8ff" points="344.02,-64.84 353.58,-60.29 343.26,-57.88 344.02,-64.84"/>
</a>
</g>
</g>
<!-- Node9 -->
<g id="Node000009" class="node">
<title>Node9</title>
<g id="a_Node000009"><a xlink:href="class_t_m_c2208_stepper.html#a8c4f3ce4a964c9a03a1e14f47bf5bec3" target="_top" xlink:title=" ">
<polygon fill="white" stroke="#666666" points="527.25,-19.25 323.75,-19.25 323.75,0 527.25,0 527.25,-19.25"/>
<text text-anchor="middle" x="425.5" y="-5.75" font-family="Helvetica,sans-Serif" font-size="10.00">TMC2208Stepper::preReadCommunication</text>
</a>
</g>
</g>
<!-- Node2&#45;&gt;Node9 -->
<g id="edge8_Node000002_Node000009" class="edge">
<title>Node2&#45;&gt;Node9</title>
<g id="a_edge8_Node000002_Node000009"><a xlink:title=" ">
<path fill="none" stroke="#63b8ff" d="M247.5,-63.57C265.87,-53.34 295.99,-37.74 323.75,-28.62 331.05,-26.23 338.75,-24.1 346.51,-22.22"/>
<polygon fill="#63b8ff" stroke="#63b8ff" points="347.04,-25.69 356.01,-20.05 345.48,-18.86 347.04,-25.69"/>
</a>
</g>
</g>
<!-- Node4 -->
<g id="Node000004" class="node">
<title>Node4</title>
<g id="a_Node000004"><a xlink:href="class_t_m_c2208_stepper.html#aef33fe13c1d9c19e9ec9abc159147a5d" target="_top" xlink:title=" ">
<polygon fill="white" stroke="#666666" points="704.5,-179.25 567.75,-179.25 567.75,-160 704.5,-160 704.5,-179.25"/>
<text text-anchor="middle" x="636.12" y="-165.75" font-family="Helvetica,sans-Serif" font-size="10.00">TMC2208Stepper::available</text>
</a>
</g>
</g>
<!-- Node3&#45;&gt;Node4 -->
<g id="edge3_Node000003_Node000004" class="edge">
<title>Node3&#45;&gt;Node4</title>
<g id="a_edge3_Node000003_Node000004"><a xlink:title=" ">
<path fill="none" stroke="#63b8ff" d="M483.51,-142.74C509.27,-147.3 539.91,-152.74 566.88,-157.52"/>
<polygon fill="#63b8ff" stroke="#63b8ff" points="566.24,-160.96 576.7,-159.26 567.46,-154.07 566.24,-160.96"/>
</a>
</g>
</g>
<!-- Node5 -->
<g id="Node000005" class="node">
<title>Node5</title>
<g id="a_Node000005"><a xlink:href="class_t_m_c2208_stepper.html#a8214f87693050e222fc24be979f468e2" target="_top" xlink:title=" ">
<polygon fill="white" stroke="#666666" points="709,-142.25 563.25,-142.25 563.25,-123 709,-123 709,-142.25"/>
<text text-anchor="middle" x="636.12" y="-128.75" font-family="Helvetica,sans-Serif" font-size="10.00">TMC2208Stepper::serial_read</text>
</a>
</g>
</g>
<!-- Node3&#45;&gt;Node5 -->
<g id="edge4_Node000003_Node000005" class="edge">
<title>Node3&#45;&gt;Node5</title>
<g id="a_edge4_Node000003_Node000005"><a xlink:title=" ">
<path fill="none" stroke="#63b8ff" d="M509.55,-132.62C523.31,-132.62 537.59,-132.62 551.37,-132.62"/>
<polygon fill="#63b8ff" stroke="#63b8ff" points="551.29,-136.13 561.29,-132.63 551.29,-129.13 551.29,-136.13"/>
</a>
</g>
</g>
<!-- Node6 -->
<g id="Node000006" class="node">
<title>Node6</title>
<g id="a_Node000006"><a xlink:href="class_t_m_c2208_stepper.html#adb6243277ef84d2027b2b8bae6be5bd0" target="_top" xlink:title=" ">
<polygon fill="white" stroke="#666666" points="697,-104.88 575.25,-104.88 575.25,-74.38 697,-74.38 697,-104.88"/>
<text text-anchor="start" x="583.25" y="-91.38" font-family="Helvetica,sans-Serif" font-size="10.00">TMC2208Stepper::serial</text>
<text text-anchor="middle" x="636.12" y="-80.12" font-family="Helvetica,sans-Serif" font-size="10.00">_write</text>
</a>
</g>
</g>
<!-- Node3&#45;&gt;Node6 -->
<g id="edge5_Node000003_Node000006" class="edge">
<title>Node3&#45;&gt;Node6</title>
<g id="a_edge5_Node000003_Node000006"><a xlink:title=" ">
<path fill="none" stroke="#63b8ff" d="M486,-122.51C499.58,-120.06 513.93,-117.36 527.25,-114.62 539.07,-112.2 551.59,-109.46 563.74,-106.71"/>
<polygon fill="#63b8ff" stroke="#63b8ff" points="564.32,-110.16 573.29,-104.52 562.76,-103.34 564.32,-110.16"/>
</a>
</g>
</g>
</g>
</svg>
