<?xml version="1.0" encoding="UTF-8" standalone="no"?>
<!DOCTYPE svg PUBLIC "-//W3C//DTD SVG 1.1//EN"
 "http://www.w3.org/Graphics/SVG/1.1/DTD/svg11.dtd">
<!-- Generated by graphviz version 12.2.1 (20241206.2353)
 -->
<!-- Title: TMC2660Stepper::DRVSTATUS Pages: 1 -->
<svg width="513pt" height="82pt"
 viewBox="0.00 0.00 512.75 82.25" xmlns="http://www.w3.org/2000/svg" xmlns:xlink="http://www.w3.org/1999/xlink">
<g id="graph0" class="graph" transform="scale(1 1) rotate(0) translate(4 78.25)">
<title>TMC2660Stepper::DRVSTATUS</title>
<!-- Node1 -->
<g id="Node000001" class="node">
<title>Node1</title>
<g id="a_Node000001"><a xlink:title=" ">
<polygon fill="#999999" stroke="#666666" points="159.25,-37.25 0,-37.25 0,-18 159.25,-18 159.25,-37.25"/>
<text text-anchor="middle" x="79.62" y="-23.75" font-family="Helvetica,sans-Serif" font-size="10.00">TMC2660Stepper::DRVSTATUS</text>
</a>
</g>
</g>
<!-- Node2 -->
<g id="Node000002" class="node">
<title>Node2</title>
<g id="a_Node000002"><a xlink:href="class_t_m_c2660_stepper.html#a4fa131ecb1e0e0436abff079c44eee5b" target="_top" xlink:title=" ">
<polygon fill="white" stroke="#666666" points="314.75,-56.25 195.25,-56.25 195.25,-37 314.75,-37 314.75,-56.25"/>
<text text-anchor="middle" x="255" y="-42.75" font-family="Helvetica,sans-Serif" font-size="10.00">TMC2660Stepper::rdsel</text>
</a>
</g>
</g>
<!-- Node1&#45;&gt;Node2 -->
<g id="edge1_Node000001_Node000002" class="edge">
<title>Node1&#45;&gt;Node2</title>
<g id="a_edge1_Node000001_Node000002"><a xlink:title=" ">
<path fill="none" stroke="#63b8ff" d="M159.7,-36.29C167.62,-37.16 175.63,-38.04 183.45,-38.89"/>
<polygon fill="#63b8ff" stroke="#63b8ff" points="182.93,-42.36 193.25,-39.97 183.69,-35.4 182.93,-42.36"/>
</a>
</g>
</g>
<!-- Node4 -->
<g id="Node000004" class="node">
<title>Node4</title>
<g id="a_Node000004"><a xlink:href="class_t_m_c2660_stepper.html#aba43e2af829abee9e029bdd43bde5f61" target="_top" xlink:title=" ">
<polygon fill="white" stroke="#666666" points="313.62,-19.25 196.38,-19.25 196.38,0 313.62,0 313.62,-19.25"/>
<text text-anchor="middle" x="255" y="-5.75" font-family="Helvetica,sans-Serif" font-size="10.00">TMC2660Stepper::read</text>
</a>
</g>
</g>
<!-- Node1&#45;&gt;Node4 -->
<g id="edge4_Node000001_Node000004" class="edge">
<title>Node1&#45;&gt;Node4</title>
<g id="a_edge4_Node000001_Node000004"><a xlink:title=" ">
<path fill="none" stroke="#63b8ff" d="M159.7,-19.42C168.02,-18.55 176.43,-17.68 184.62,-16.83"/>
<polygon fill="#63b8ff" stroke="#63b8ff" points="184.94,-20.31 194.53,-15.8 184.22,-13.35 184.94,-20.31"/>
</a>
</g>
</g>
<!-- Node3 -->
<g id="Node000003" class="node">
<title>Node3</title>
<g id="a_Node000003"><a xlink:href="class_t_m_c2660_stepper.html#a0f6ee76b23deb7f6d5af711d9b9e2452" target="_top" xlink:title=" ">
<polygon fill="white" stroke="#666666" points="487.5,-56.25 368,-56.25 368,-37 487.5,-37 487.5,-56.25"/>
<text text-anchor="middle" x="427.75" y="-42.75" font-family="Helvetica,sans-Serif" font-size="10.00">TMC2660Stepper::rdsel</text>
</a>
</g>
</g>
<!-- Node2&#45;&gt;Node3 -->
<g id="edge2_Node000002_Node000003" class="edge">
<title>Node2&#45;&gt;Node3</title>
<g id="a_edge2_Node000002_Node000003"><a xlink:title=" ">
<path fill="none" stroke="#63b8ff" d="M315.24,-46.62C328.49,-46.62 342.66,-46.62 356.31,-46.62"/>
<polygon fill="#63b8ff" stroke="#63b8ff" points="356.1,-50.13 366.1,-46.63 356.1,-43.13 356.1,-50.13"/>
</a>
</g>
</g>
<!-- Node3&#45;&gt;Node3 -->
<g id="edge3_Node000003_Node000003" class="edge">
<title>Node3&#45;&gt;Node3</title>
<g id="a_edge3_Node000003_Node000003"><a xlink:title=" ">
<path fill="none" stroke="#63b8ff" d="M400.71,-56.54C388.37,-65.15 397.38,-74.25 427.75,-74.25 444.83,-74.25 455.16,-71.37 458.73,-67.32"/>
<polygon fill="#63b8ff" stroke="#63b8ff" points="462.03,-66.16 455.31,-57.96 455.45,-68.55 462.03,-66.16"/>
</a>
</g>
</g>
<!-- Node5 -->
<g id="Node000005" class="node">
<title>Node5</title>
<g id="a_Node000005"><a xlink:href="class_t_m_c2660_stepper.html#a63505ee4078e1f060a2ccecc30f228bd" target="_top" xlink:title=" ">
<polygon fill="white" stroke="#666666" points="504.75,-19.25 350.75,-19.25 350.75,0 504.75,0 504.75,-19.25"/>
<text text-anchor="middle" x="427.75" y="-5.75" font-family="Helvetica,sans-Serif" font-size="10.00">TMC2660Stepper::switchCSpin</text>
</a>
</g>
</g>
<!-- Node4&#45;&gt;Node5 -->
<g id="edge5_Node000004_Node000005" class="edge">
<title>Node4&#45;&gt;Node5</title>
<g id="a_edge5_Node000004_Node000005"><a xlink:title=" ">
<path fill="none" stroke="#63b8ff" d="M313.81,-9.62C322.02,-9.62 330.6,-9.62 339.22,-9.62"/>
<polygon fill="#63b8ff" stroke="#63b8ff" points="339.02,-13.13 349.02,-9.63 339.02,-6.13 339.02,-13.13"/>
</a>
</g>
</g>
</g>
</svg>
