<?xml version="1.0" encoding="UTF-8" standalone="no"?>
<!DOCTYPE svg PUBLIC "-//W3C//DTD SVG 1.1//EN"
 "http://www.w3.org/Graphics/SVG/1.1/DTD/svg11.dtd">
<!-- Generated by graphviz version 12.2.1 (20241206.2353)
 -->
<!-- Title: TMC2130Stepper::rndtf Pages: 1 -->
<svg width="280pt" height="45pt"
 viewBox="0.00 0.00 280.00 45.25" xmlns="http://www.w3.org/2000/svg" xmlns:xlink="http://www.w3.org/1999/xlink">
<g id="graph0" class="graph" transform="scale(1 1) rotate(0) translate(4 41.25)">
<title>TMC2130Stepper::rndtf</title>
<!-- Node1 -->
<g id="Node000001" class="node">
<title>Node1</title>
<g id="a_Node000001"><a xlink:title=" ">
<polygon fill="#999999" stroke="#666666" points="272,-19.25 154,-19.25 154,0 272,0 272,-19.25"/>
<text text-anchor="middle" x="213" y="-5.75" font-family="Helvetica,sans-Serif" font-size="10.00">TMC2130Stepper::rndtf</text>
</a>
</g>
</g>
<!-- Node1&#45;&gt;Node1 -->
<g id="edge2_Node000001_Node000001" class="edge">
<title>Node1&#45;&gt;Node1</title>
<g id="a_edge2_Node000001_Node000001"><a xlink:title=" ">
<path fill="none" stroke="#63b8ff" d="M240.61,-30.32C237.43,-34.37 228.23,-37.25 213,-37.25 185.93,-37.25 177.89,-28.15 188.89,-19.54"/>
<polygon fill="#63b8ff" stroke="#63b8ff" points="244,-29.41 237.58,-20.98 237.34,-31.57 244,-29.41"/>
</a>
</g>
</g>
<!-- Node2 -->
<g id="Node000002" class="node">
<title>Node2</title>
<g id="a_Node000002"><a xlink:href="class_t_m_c2130_stepper.html#a63df142506643ae8794abbedf3a30c1d" target="_top" xlink:title=" ">
<polygon fill="white" stroke="#666666" points="118,-19.25 0,-19.25 0,0 118,0 118,-19.25"/>
<text text-anchor="middle" x="59" y="-5.75" font-family="Helvetica,sans-Serif" font-size="10.00">TMC2130Stepper::rndtf</text>
</a>
</g>
</g>
<!-- Node1&#45;&gt;Node2 -->
<g id="edge1_Node000001_Node000002" class="edge">
<title>Node1&#45;&gt;Node2</title>
<g id="a_edge1_Node000001_Node000002"><a xlink:title=" ">
<path fill="none" stroke="#63b8ff" d="M142.43,-9.62C134.4,-9.62 126.28,-9.62 118.43,-9.62"/>
<polygon fill="#63b8ff" stroke="#63b8ff" points="142.15,-13.13 152.15,-9.63 142.15,-6.13 142.15,-13.13"/>
</a>
</g>
</g>
</g>
</svg>
