<?xml version="1.0" encoding="UTF-8" standalone="no"?>
<!DOCTYPE svg PUBLIC "-//W3C//DTD SVG 1.1//EN"
 "http://www.w3.org/Graphics/SVG/1.1/DTD/svg11.dtd">
<!-- Generated by graphviz version 12.2.1 (20241206.2353)
 -->
<!-- Title: TMC2240Stepper::iholddelay Pages: 1 -->
<svg width="328pt" height="45pt"
 viewBox="0.00 0.00 328.00 45.25" xmlns="http://www.w3.org/2000/svg" xmlns:xlink="http://www.w3.org/1999/xlink">
<g id="graph0" class="graph" transform="scale(1 1) rotate(0) translate(4 41.25)">
<title>TMC2240Stepper::iholddelay</title>
<!-- Node1 -->
<g id="Node000001" class="node">
<title>Node1</title>
<g id="a_Node000001"><a xlink:title=" ">
<polygon fill="#999999" stroke="#666666" points="320,-19.25 178,-19.25 178,0 320,0 320,-19.25"/>
<text text-anchor="middle" x="249" y="-5.75" font-family="Helvetica,sans-Serif" font-size="10.00">TMC2240Stepper::iholddelay</text>
</a>
</g>
</g>
<!-- Node1&#45;&gt;Node1 -->
<g id="edge2_Node000001_Node000001" class="edge">
<title>Node1&#45;&gt;Node1</title>
<g id="a_edge2_Node000001_Node000001"><a xlink:title=" ">
<path fill="none" stroke="#63b8ff" d="M281.21,-29.98C277.82,-34.21 267.09,-37.25 249,-37.25 217.71,-37.25 208.42,-28.15 221.13,-19.54"/>
<polygon fill="#63b8ff" stroke="#63b8ff" points="284.52,-28.82 277.45,-20.94 278.06,-31.51 284.52,-28.82"/>
</a>
</g>
</g>
<!-- Node2 -->
<g id="Node000002" class="node">
<title>Node2</title>
<g id="a_Node000002"><a xlink:href="class_t_m_c2240_stepper.html#a0d48f9ffd7aa5d2529ba3015bd9fc7cb" target="_top" xlink:title=" ">
<polygon fill="white" stroke="#666666" points="142,-19.25 0,-19.25 0,0 142,0 142,-19.25"/>
<text text-anchor="middle" x="71" y="-5.75" font-family="Helvetica,sans-Serif" font-size="10.00">TMC2240Stepper::iholddelay</text>
</a>
</g>
</g>
<!-- Node1&#45;&gt;Node2 -->
<g id="edge1_Node000001_Node000002" class="edge">
<title>Node1&#45;&gt;Node2</title>
<g id="a_edge1_Node000001_Node000002"><a xlink:title=" ">
<path fill="none" stroke="#63b8ff" d="M166.17,-9.62C158.26,-9.62 150.28,-9.62 142.49,-9.62"/>
<polygon fill="#63b8ff" stroke="#63b8ff" points="166.17,-13.13 176.17,-9.63 166.17,-6.13 166.17,-13.13"/>
</a>
</g>
</g>
</g>
</svg>
