<?xml version="1.0" encoding="UTF-8" standalone="no"?>
<!DOCTYPE svg PUBLIC "-//W3C//DTD SVG 1.1//EN"
 "http://www.w3.org/Graphics/SVG/1.1/DTD/svg11.dtd">
<!-- Generated by graphviz version 12.2.1 (20241206.2353)
 -->
<!-- Title: TMC2660Stepper::phb Pages: 1 -->
<svg width="435pt" height="45pt"
 viewBox="0.00 0.00 434.75 45.25" xmlns="http://www.w3.org/2000/svg" xmlns:xlink="http://www.w3.org/1999/xlink">
<g id="graph0" class="graph" transform="scale(1 1) rotate(0) translate(4 41.25)">
<title>TMC2660Stepper::phb</title>
<!-- Node1 -->
<g id="Node000001" class="node">
<title>Node1</title>
<g id="a_Node000001"><a xlink:title=" ">
<polygon fill="#999999" stroke="#666666" points="114.25,-19.25 0,-19.25 0,0 114.25,0 114.25,-19.25"/>
<text text-anchor="middle" x="57.12" y="-5.75" font-family="Helvetica,sans-Serif" font-size="10.00">TMC2660Stepper::phb</text>
</a>
</g>
</g>
<!-- Node1&#45;&gt;Node1 -->
<g id="edge1_Node000001_Node000001" class="edge">
<title>Node1&#45;&gt;Node1</title>
<g id="a_edge1_Node000001_Node000001"><a xlink:title=" ">
<path fill="none" stroke="#63b8ff" d="M33.13,-19.54C22.19,-28.15 30.19,-37.25 57.12,-37.25 72.28,-37.25 81.44,-34.37 84.6,-30.32"/>
<polygon fill="#63b8ff" stroke="#63b8ff" points="87.99,-29.42 81.58,-20.98 81.33,-31.57 87.99,-29.42"/>
</a>
</g>
</g>
<!-- Node2 -->
<g id="Node000002" class="node">
<title>Node2</title>
<g id="a_Node000002"><a xlink:href="class_t_m_c2660_stepper.html#aa20df51be5967e40cc23132a1d461275" target="_top" xlink:title=" ">
<polygon fill="white" stroke="#666666" points="270.5,-19.25 150.25,-19.25 150.25,0 270.5,0 270.5,-19.25"/>
<text text-anchor="middle" x="210.38" y="-5.75" font-family="Helvetica,sans-Serif" font-size="10.00">TMC2660Stepper::sdoff</text>
</a>
</g>
</g>
<!-- Node1&#45;&gt;Node2 -->
<g id="edge2_Node000001_Node000002" class="edge">
<title>Node1&#45;&gt;Node2</title>
<g id="a_edge2_Node000001_Node000002"><a xlink:title=" ">
<path fill="none" stroke="#63b8ff" d="M114.44,-9.62C122.32,-9.62 130.5,-9.62 138.6,-9.62"/>
<polygon fill="#63b8ff" stroke="#63b8ff" points="138.46,-13.13 148.46,-9.63 138.46,-6.13 138.46,-13.13"/>
</a>
</g>
</g>
<!-- Node3 -->
<g id="Node000003" class="node">
<title>Node3</title>
<g id="a_Node000003"><a xlink:href="class_t_m_c2660_stepper.html#af6b9772d151924e000c051ecff34d313" target="_top" xlink:title=" ">
<polygon fill="white" stroke="#666666" points="426.75,-19.25 306.5,-19.25 306.5,0 426.75,0 426.75,-19.25"/>
<text text-anchor="middle" x="366.62" y="-5.75" font-family="Helvetica,sans-Serif" font-size="10.00">TMC2660Stepper::sdoff</text>
</a>
</g>
</g>
<!-- Node2&#45;&gt;Node3 -->
<g id="edge3_Node000002_Node000003" class="edge">
<title>Node2&#45;&gt;Node3</title>
<g id="a_edge3_Node000002_Node000003"><a xlink:title=" ">
<path fill="none" stroke="#63b8ff" d="M270.57,-9.62C278.48,-9.62 286.66,-9.62 294.75,-9.62"/>
<polygon fill="#63b8ff" stroke="#63b8ff" points="294.56,-13.13 304.56,-9.63 294.56,-6.13 294.56,-13.13"/>
</a>
</g>
</g>
<!-- Node3&#45;&gt;Node3 -->
<g id="edge4_Node000003_Node000003" class="edge">
<title>Node3&#45;&gt;Node3</title>
<g id="a_edge4_Node000003_Node000003"><a xlink:title=" ">
<path fill="none" stroke="#63b8ff" d="M342.16,-19.54C331.01,-28.15 339.16,-37.25 366.62,-37.25 382.07,-37.25 391.41,-34.37 394.64,-30.32"/>
<polygon fill="#63b8ff" stroke="#63b8ff" points="398.02,-29.38 391.56,-20.98 391.37,-31.57 398.02,-29.38"/>
</a>
</g>
</g>
</g>
</svg>
