<?xml version="1.0" encoding="UTF-8" standalone="no"?>
<!DOCTYPE svg PUBLIC "-//W3C//DTD SVG 1.1//EN"
 "http://www.w3.org/Graphics/SVG/1.1/DTD/svg11.dtd">
<!-- Generated by graphviz version 12.2.1 (20241206.2353)
 -->
<!-- Title: TMC2660Stepper::sdoff Pages: 1 -->
<svg width="654pt" height="759pt"
 viewBox="0.00 0.00 654.00 758.77" xmlns="http://www.w3.org/2000/svg" xmlns:xlink="http://www.w3.org/1999/xlink">
<g id="graph0" class="graph" transform="scale(1 1) rotate(0) translate(4 754.77)">
<title>TMC2660Stepper::sdoff</title>
<!-- Node1 -->
<g id="Node000001" class="node">
<title>Node1</title>
<g id="a_Node000001"><a xlink:title=" ">
<polygon fill="#999999" stroke="#666666" points="646,-395.25 525.75,-395.25 525.75,-376 646,-376 646,-395.25"/>
<text text-anchor="middle" x="585.88" y="-381.75" font-family="Helvetica,sans-Serif" font-size="10.00">TMC2660Stepper::sdoff</text>
</a>
</g>
</g>
<!-- Node2 -->
<g id="Node000002" class="node">
<title>Node2</title>
<g id="a_Node000002"><a xlink:href="class_t_m_c2660_stepper.html#a90e88f991704c5fc7cdcb7212db59020" target="_top" xlink:title=" ">
<polygon fill="white" stroke="#666666" points="299.38,-724.25 190.38,-724.25 190.38,-705 299.38,-705 299.38,-724.25"/>
<text text-anchor="middle" x="244.88" y="-710.75" font-family="Helvetica,sans-Serif" font-size="10.00">TMC2660Stepper::ca</text>
</a>
</g>
</g>
<!-- Node1&#45;&gt;Node2 -->
<g id="edge1_Node000001_Node000002" class="edge">
<title>Node1&#45;&gt;Node2</title>
<g id="a_edge1_Node000001_Node000002"><a xlink:title=" ">
<path fill="none" stroke="#63b8ff" d="M582.2,-407.01C573.2,-475.05 541.68,-684.29 489.75,-723.62 424.23,-773.25 317.96,-742.49 270.33,-724.69"/>
<polygon fill="#63b8ff" stroke="#63b8ff" points="585.66,-407.57 583.46,-397.2 578.71,-406.67 585.66,-407.57"/>
</a>
</g>
</g>
<!-- Node3 -->
<g id="Node000003" class="node">
<title>Node3</title>
<g id="a_Node000003"><a xlink:href="class_t_m_c2660_stepper.html#a1a86dcdb6d9427c26ebe61f521f9b77b" target="_top" xlink:title=" ">
<polygon fill="white" stroke="#666666" points="471,-696.25 362,-696.25 362,-677 471,-677 471,-696.25"/>
<text text-anchor="middle" x="416.5" y="-682.75" font-family="Helvetica,sans-Serif" font-size="10.00">TMC2660Stepper::ca</text>
</a>
</g>
</g>
<!-- Node1&#45;&gt;Node3 -->
<g id="edge2_Node000001_Node000003" class="edge">
<title>Node1&#45;&gt;Node3</title>
<g id="a_edge2_Node000001_Node000003"><a xlink:title=" ">
<path fill="none" stroke="#63b8ff" d="M583.78,-406.78C579.98,-458.02 563.2,-589.91 489.75,-662.62 483.64,-668.67 475.98,-673.19 467.95,-676.57"/>
<polygon fill="#63b8ff" stroke="#63b8ff" points="587.25,-407.29 584.4,-397.09 580.27,-406.85 587.25,-407.29"/>
</a>
</g>
</g>
<!-- Node4 -->
<g id="Node000004" class="node">
<title>Node4</title>
<g id="a_Node000004"><a xlink:href="class_t_m_c2660_stepper.html#ada1f2c5c372e9aa434c72bc825ce769d" target="_top" xlink:title=" ">
<polygon fill="white" stroke="#666666" points="299.38,-630.25 190.38,-630.25 190.38,-611 299.38,-611 299.38,-630.25"/>
<text text-anchor="middle" x="244.88" y="-616.75" font-family="Helvetica,sans-Serif" font-size="10.00">TMC2660Stepper::cb</text>
</a>
</g>
</g>
<!-- Node1&#45;&gt;Node4 -->
<g id="edge5_Node000001_Node000004" class="edge">
<title>Node1&#45;&gt;Node4</title>
<g id="a_edge5_Node000001_Node000004"><a xlink:title=" ">
<path fill="none" stroke="#63b8ff" d="M584.06,-407.07C580.89,-456.45 565.39,-577.93 489.75,-629.62 422.59,-675.53 318.99,-647.51 271.39,-630.64"/>
<polygon fill="#63b8ff" stroke="#63b8ff" points="587.55,-407.34 584.57,-397.17 580.56,-406.97 587.55,-407.34"/>
</a>
</g>
</g>
<!-- Node5 -->
<g id="Node000005" class="node">
<title>Node5</title>
<g id="a_Node000005"><a xlink:href="class_t_m_c2660_stepper.html#a92d48c320fd7644e605aa660aa6f1b7d" target="_top" xlink:title=" ">
<polygon fill="white" stroke="#666666" points="471,-602.25 362,-602.25 362,-583 471,-583 471,-602.25"/>
<text text-anchor="middle" x="416.5" y="-588.75" font-family="Helvetica,sans-Serif" font-size="10.00">TMC2660Stepper::cb</text>
</a>
</g>
</g>
<!-- Node1&#45;&gt;Node5 -->
<g id="edge6_Node000001_Node000005" class="edge">
<title>Node1&#45;&gt;Node5</title>
<g id="a_edge6_Node000001_Node000005"><a xlink:title=" ">
<path fill="none" stroke="#63b8ff" d="M579.71,-406.27C569.21,-443.97 541.87,-524.18 489.75,-568.62 482.71,-574.63 474.12,-579.14 465.35,-582.53"/>
<polygon fill="#63b8ff" stroke="#63b8ff" points="582.96,-407.65 582.14,-397.08 576.19,-405.85 582.96,-407.65"/>
</a>
</g>
</g>
<!-- Node6 -->
<g id="Node000006" class="node">
<title>Node6</title>
<g id="a_Node000006"><a xlink:href="class_t_m_c2660_stepper.html#a42f53be2a3773280e12cf9499dd02265" target="_top" xlink:title=" ">
<polygon fill="white" stroke="#666666" points="307.25,-536.25 182.5,-536.25 182.5,-517 307.25,-517 307.25,-536.25"/>
<text text-anchor="middle" x="244.88" y="-522.75" font-family="Helvetica,sans-Serif" font-size="10.00">TMC2660Stepper::dedge</text>
</a>
</g>
</g>
<!-- Node1&#45;&gt;Node6 -->
<g id="edge9_Node000001_Node000006" class="edge">
<title>Node1&#45;&gt;Node6</title>
<g id="a_edge9_Node000001_Node000006"><a xlink:title=" ">
<path fill="none" stroke="#63b8ff" d="M578.89,-406.37C567.75,-440.59 540.29,-507.83 489.75,-535.62 420.51,-573.7 322.72,-551.52 274.73,-536.67"/>
<polygon fill="#63b8ff" stroke="#63b8ff" points="582.22,-407.42 581.82,-396.84 575.53,-405.37 582.22,-407.42"/>
</a>
</g>
</g>
<!-- Node7 -->
<g id="Node000007" class="node">
<title>Node7</title>
<g id="a_Node000007"><a xlink:href="class_t_m_c2660_stepper.html#a996a24f7f183a9589d01a5ebde701b03" target="_top" xlink:title=" ">
<polygon fill="white" stroke="#666666" points="478.88,-508.25 354.12,-508.25 354.12,-489 478.88,-489 478.88,-508.25"/>
<text text-anchor="middle" x="416.5" y="-494.75" font-family="Helvetica,sans-Serif" font-size="10.00">TMC2660Stepper::dedge</text>
</a>
</g>
</g>
<!-- Node1&#45;&gt;Node7 -->
<g id="edge10_Node000001_Node000007" class="edge">
<title>Node1&#45;&gt;Node7</title>
<g id="a_edge10_Node000001_Node000007"><a xlink:title=" ">
<path fill="none" stroke="#63b8ff" d="M571.05,-404.65C554.27,-426.35 523.93,-461.3 489.75,-480.62 484.12,-483.81 477.94,-486.43 471.63,-488.59"/>
<polygon fill="#63b8ff" stroke="#63b8ff" points="573.65,-407.03 576.87,-396.93 568.06,-402.82 573.65,-407.03"/>
</a>
</g>
</g>
<!-- Node8 -->
<g id="Node000008" class="node">
<title>Node8</title>
<g id="a_Node000008"><a xlink:href="class_t_m_c2660_stepper.html#a45ae40bd2b9b997b9cfedb13403e2387" target="_top" xlink:title=" ">
<polygon fill="white" stroke="#666666" points="489.75,-471.25 343.25,-471.25 343.25,-452 489.75,-452 489.75,-471.25"/>
<text text-anchor="middle" x="416.5" y="-457.75" font-family="Helvetica,sans-Serif" font-size="10.00">TMC2660Stepper::DRVCTRL</text>
</a>
</g>
</g>
<!-- Node1&#45;&gt;Node8 -->
<g id="edge13_Node000001_Node000008" class="edge">
<title>Node1&#45;&gt;Node8</title>
<g id="a_edge13_Node000001_Node000008"><a xlink:title=" ">
<path fill="none" stroke="#63b8ff" d="M558.97,-401.44C540.19,-412.49 513.95,-427.09 489.75,-437.62 477.75,-442.85 464.23,-447.62 452.15,-451.51"/>
<polygon fill="#63b8ff" stroke="#63b8ff" points="560.73,-404.46 567.53,-396.34 557.15,-398.45 560.73,-404.46"/>
</a>
</g>
</g>
<!-- Node9 -->
<g id="Node000009" class="node">
<title>Node9</title>
<g id="a_Node000009"><a xlink:href="class_t_m_c2660_stepper.html#a7b71f3e77039b9ec330b6123574f4fdc" target="_top" xlink:title=" ">
<polygon fill="white" stroke="#666666" points="304.62,-452.25 185.12,-452.25 185.12,-433 304.62,-433 304.62,-452.25"/>
<text text-anchor="middle" x="244.88" y="-438.75" font-family="Helvetica,sans-Serif" font-size="10.00">TMC2660Stepper::push</text>
</a>
</g>
</g>
<!-- Node1&#45;&gt;Node9 -->
<g id="edge34_Node000001_Node000009" class="edge">
<title>Node1&#45;&gt;Node9</title>
<g id="a_edge34_Node000001_Node000009"><a xlink:title=" ">
<path fill="none" stroke="#63b8ff" d="M525.44,-397.9C513.63,-400.23 501.31,-402.57 489.75,-404.62 426.68,-415.83 354.1,-426.91 304.63,-434.19"/>
<polygon fill="#63b8ff" stroke="#63b8ff" points="525.95,-401.37 535.07,-395.99 524.58,-394.5 525.95,-401.37"/>
</a>
</g>
</g>
<!-- Node10 -->
<g id="Node000010" class="node">
<title>Node10</title>
<g id="a_Node000010"><a xlink:href="class_t_m_c2660_stepper.html#a52b5e94e7a6a339f4c58f47edbf97f0b" target="_top" xlink:title=" ">
<polygon fill="white" stroke="#666666" points="489.75,-395.25 343.25,-395.25 343.25,-376 489.75,-376 489.75,-395.25"/>
<text text-anchor="middle" x="416.5" y="-381.75" font-family="Helvetica,sans-Serif" font-size="10.00">TMC2660Stepper::DRVCTRL</text>
</a>
</g>
</g>
<!-- Node1&#45;&gt;Node10 -->
<g id="edge15_Node000001_Node000010" class="edge">
<title>Node1&#45;&gt;Node10</title>
<g id="a_edge15_Node000001_Node000010"><a xlink:title=" ">
<path fill="none" stroke="#63b8ff" d="M513.93,-385.62C506.01,-385.62 497.92,-385.62 489.98,-385.62"/>
<polygon fill="#63b8ff" stroke="#63b8ff" points="513.88,-389.13 523.88,-385.63 513.88,-382.13 513.88,-389.13"/>
</a>
</g>
</g>
<!-- Node11 -->
<g id="Node000011" class="node">
<title>Node11</title>
<g id="a_Node000011"><a xlink:href="class_t_m_c2660_stepper.html#a75917a3c209b939392c44a2012287820" target="_top" xlink:title=" ">
<polygon fill="white" stroke="#666666" points="305.75,-329.25 184,-329.25 184,-310 305.75,-310 305.75,-329.25"/>
<text text-anchor="middle" x="244.88" y="-315.75" font-family="Helvetica,sans-Serif" font-size="10.00">TMC2660Stepper::intpol</text>
</a>
</g>
</g>
<!-- Node1&#45;&gt;Node11 -->
<g id="edge16_Node000001_Node000011" class="edge">
<title>Node1&#45;&gt;Node11</title>
<g id="a_edge16_Node000001_Node000011"><a xlink:title=" ">
<path fill="none" stroke="#63b8ff" d="M523.48,-373.3C512.26,-371.06 500.66,-368.77 489.75,-366.62 423.96,-353.71 348.11,-339.15 298.7,-329.7"/>
<polygon fill="#63b8ff" stroke="#63b8ff" points="522.56,-376.68 533.05,-375.21 523.93,-369.82 522.56,-376.68"/>
</a>
</g>
</g>
<!-- Node12 -->
<g id="Node000012" class="node">
<title>Node12</title>
<g id="a_Node000012"><a xlink:href="class_t_m_c2660_stepper.html#a01d9df97977bb8c12e3f562782adbe90" target="_top" xlink:title=" ">
<polygon fill="white" stroke="#666666" points="477.38,-301.25 355.62,-301.25 355.62,-282 477.38,-282 477.38,-301.25"/>
<text text-anchor="middle" x="416.5" y="-287.75" font-family="Helvetica,sans-Serif" font-size="10.00">TMC2660Stepper::intpol</text>
</a>
</g>
</g>
<!-- Node1&#45;&gt;Node12 -->
<g id="edge17_Node000001_Node000012" class="edge">
<title>Node1&#45;&gt;Node12</title>
<g id="a_edge17_Node000001_Node000012"><a xlink:title=" ">
<path fill="none" stroke="#63b8ff" d="M557.03,-369.99C522.43,-350.56 464.39,-317.96 435.28,-301.61"/>
<polygon fill="#63b8ff" stroke="#63b8ff" points="555.21,-372.98 565.64,-374.82 558.64,-366.88 555.21,-372.98"/>
</a>
</g>
</g>
<!-- Node13 -->
<g id="Node000013" class="node">
<title>Node13</title>
<g id="a_Node000013"><a xlink:href="class_t_m_c2660_stepper.html#a90c921e4f637bb688c5fadf491ee6f44" target="_top" xlink:title=" ">
<polygon fill="white" stroke="#666666" points="305,-235.25 184.75,-235.25 184.75,-216 305,-216 305,-235.25"/>
<text text-anchor="middle" x="244.88" y="-221.75" font-family="Helvetica,sans-Serif" font-size="10.00">TMC2660Stepper::mres</text>
</a>
</g>
</g>
<!-- Node1&#45;&gt;Node13 -->
<g id="edge20_Node000001_Node000013" class="edge">
<title>Node1&#45;&gt;Node13</title>
<g id="a_edge20_Node000001_Node000013"><a xlink:title=" ">
<path fill="none" stroke="#63b8ff" d="M574.18,-366.05C559,-340.25 528.65,-295.45 489.75,-272.62 459.16,-254.67 367.19,-240.39 305.35,-232.47"/>
<polygon fill="#63b8ff" stroke="#63b8ff" points="571.01,-367.55 579,-374.52 577.09,-364.09 571.01,-367.55"/>
</a>
</g>
</g>
<!-- Node16 -->
<g id="Node000016" class="node">
<title>Node16</title>
<g id="a_Node000016"><a xlink:href="class_t_m_c2660_stepper.html#a5d9b27273ae12ef452caf6552d5c6d7c" target="_top" xlink:title=" ">
<polygon fill="white" stroke="#666666" points="476.62,-207.25 356.38,-207.25 356.38,-188 476.62,-188 476.62,-207.25"/>
<text text-anchor="middle" x="416.5" y="-193.75" font-family="Helvetica,sans-Serif" font-size="10.00">TMC2660Stepper::mres</text>
</a>
</g>
</g>
<!-- Node1&#45;&gt;Node16 -->
<g id="edge23_Node000001_Node000016" class="edge">
<title>Node1&#45;&gt;Node16</title>
<g id="a_edge23_Node000001_Node000016"><a xlink:title=" ">
<path fill="none" stroke="#63b8ff" d="M575.58,-365.48C560.83,-335.2 529.61,-277.51 489.75,-239.62 475.45,-226.03 455.95,-215.03 440.81,-207.7"/>
<polygon fill="#63b8ff" stroke="#63b8ff" points="572.3,-366.74 579.76,-374.27 578.62,-363.74 572.3,-366.74"/>
</a>
</g>
</g>
<!-- Node17 -->
<g id="Node000017" class="node">
<title>Node17</title>
<g id="a_Node000017"><a xlink:href="class_t_m_c2660_stepper.html#ad50b2558c9585aa94f36c4b84c1fac50" target="_top" xlink:title=" ">
<polygon fill="white" stroke="#666666" points="302,-141.25 187.75,-141.25 187.75,-122 302,-122 302,-141.25"/>
<text text-anchor="middle" x="244.88" y="-127.75" font-family="Helvetica,sans-Serif" font-size="10.00">TMC2660Stepper::pha</text>
</a>
</g>
</g>
<!-- Node1&#45;&gt;Node17 -->
<g id="edge26_Node000001_Node000017" class="edge">
<title>Node1&#45;&gt;Node17</title>
<g id="a_edge26_Node000001_Node000017"><a xlink:title=" ">
<path fill="none" stroke="#63b8ff" d="M581.67,-364.57C574.04,-322.15 550.66,-226.41 489.75,-178.62 461.25,-156.27 365.13,-143.01 302.41,-136.54"/>
<polygon fill="#63b8ff" stroke="#63b8ff" points="578.21,-365.12 583.31,-374.41 585.12,-363.97 578.21,-365.12"/>
</a>
</g>
</g>
<!-- Node18 -->
<g id="Node000018" class="node">
<title>Node18</title>
<g id="a_Node000018"><a xlink:href="class_t_m_c2660_stepper.html#a34056dfd3ea3f75882fbbc854842e152" target="_top" xlink:title=" ">
<polygon fill="white" stroke="#666666" points="473.62,-113.25 359.38,-113.25 359.38,-94 473.62,-94 473.62,-113.25"/>
<text text-anchor="middle" x="416.5" y="-99.75" font-family="Helvetica,sans-Serif" font-size="10.00">TMC2660Stepper::pha</text>
</a>
</g>
</g>
<!-- Node1&#45;&gt;Node18 -->
<g id="edge27_Node000001_Node000018" class="edge">
<title>Node1&#45;&gt;Node18</title>
<g id="a_edge27_Node000001_Node000018"><a xlink:title=" ">
<path fill="none" stroke="#63b8ff" d="M581.35,-364.56C572.87,-319.59 547.63,-212.85 489.75,-145.62 477.44,-131.33 459.01,-120.72 443.84,-113.74"/>
<polygon fill="#63b8ff" stroke="#63b8ff" points="577.87,-365.02 583.08,-374.25 584.77,-363.79 577.87,-365.02"/>
</a>
</g>
</g>
<!-- Node19 -->
<g id="Node000019" class="node">
<title>Node19</title>
<g id="a_Node000019"><a xlink:href="class_t_m_c2660_stepper.html#ab3470fd014ef1f39c90c6f086d331921" target="_top" xlink:title=" ">
<polygon fill="white" stroke="#666666" points="302,-47.25 187.75,-47.25 187.75,-28 302,-28 302,-47.25"/>
<text text-anchor="middle" x="244.88" y="-33.75" font-family="Helvetica,sans-Serif" font-size="10.00">TMC2660Stepper::phb</text>
</a>
</g>
</g>
<!-- Node1&#45;&gt;Node19 -->
<g id="edge30_Node000001_Node000019" class="edge">
<title>Node1&#45;&gt;Node19</title>
<g id="a_edge30_Node000001_Node000019"><a xlink:title=" ">
<path fill="none" stroke="#63b8ff" d="M585.05,-364.24C584.28,-308.84 574.06,-159.7 489.75,-84.62 475.86,-72.26 369.96,-55.22 302.35,-45.42"/>
<polygon fill="#63b8ff" stroke="#63b8ff" points="581.55,-364.18 585.09,-374.16 588.55,-364.15 581.55,-364.18"/>
</a>
</g>
</g>
<!-- Node20 -->
<g id="Node000020" class="node">
<title>Node20</title>
<g id="a_Node000020"><a xlink:href="class_t_m_c2660_stepper.html#a92ae81a43023855f5d4ded8f372b2710" target="_top" xlink:title=" ">
<polygon fill="white" stroke="#666666" points="473.62,-19.25 359.38,-19.25 359.38,0 473.62,0 473.62,-19.25"/>
<text text-anchor="middle" x="416.5" y="-5.75" font-family="Helvetica,sans-Serif" font-size="10.00">TMC2660Stepper::phb</text>
</a>
</g>
</g>
<!-- Node1&#45;&gt;Node20 -->
<g id="edge31_Node000001_Node000020" class="edge">
<title>Node1&#45;&gt;Node20</title>
<g id="a_edge31_Node000001_Node000020"><a xlink:title=" ">
<path fill="none" stroke="#63b8ff" d="M584.17,-364.33C581.25,-307.55 566.31,-150.1 489.75,-51.62 478.35,-36.96 460.29,-26.46 445.08,-19.63"/>
<polygon fill="#63b8ff" stroke="#63b8ff" points="580.67,-364.34 584.59,-374.19 587.66,-364.04 580.67,-364.34"/>
</a>
</g>
</g>
<!-- Node3&#45;&gt;Node2 -->
<g id="edge3_Node000003_Node000002" class="edge">
<title>Node3&#45;&gt;Node2</title>
<g id="a_edge3_Node000003_Node000002"><a xlink:title=" ">
<path fill="none" stroke="#63b8ff" d="M350.93,-697.28C334.05,-700.07 316.04,-703.04 299.78,-705.73"/>
<polygon fill="#63b8ff" stroke="#63b8ff" points="351.04,-700.81 360.34,-695.73 349.9,-693.91 351.04,-700.81"/>
</a>
</g>
</g>
<!-- Node3&#45;&gt;Node3 -->
<g id="edge4_Node000003_Node000003" class="edge">
<title>Node3&#45;&gt;Node3</title>
<g id="a_edge4_Node000003_Node000003"><a xlink:title=" ">
<path fill="none" stroke="#63b8ff" d="M446.87,-707.32C443.37,-711.37 433.25,-714.25 416.5,-714.25 386.73,-714.25 377.89,-705.15 389.98,-696.54"/>
<polygon fill="#63b8ff" stroke="#63b8ff" points="450.19,-706.2 443.53,-697.96 443.6,-708.56 450.19,-706.2"/>
</a>
</g>
</g>
<!-- Node5&#45;&gt;Node4 -->
<g id="edge7_Node000005_Node000004" class="edge">
<title>Node5&#45;&gt;Node4</title>
<g id="a_edge7_Node000005_Node000004"><a xlink:title=" ">
<path fill="none" stroke="#63b8ff" d="M350.93,-603.28C334.05,-606.07 316.04,-609.04 299.78,-611.73"/>
<polygon fill="#63b8ff" stroke="#63b8ff" points="351.04,-606.81 360.34,-601.73 349.9,-599.91 351.04,-606.81"/>
</a>
</g>
</g>
<!-- Node5&#45;&gt;Node5 -->
<g id="edge8_Node000005_Node000005" class="edge">
<title>Node5&#45;&gt;Node5</title>
<g id="a_edge8_Node000005_Node000005"><a xlink:title=" ">
<path fill="none" stroke="#63b8ff" d="M446.87,-613.32C443.37,-617.37 433.25,-620.25 416.5,-620.25 386.73,-620.25 377.89,-611.15 389.98,-602.54"/>
<polygon fill="#63b8ff" stroke="#63b8ff" points="450.19,-612.2 443.53,-603.96 443.6,-614.56 450.19,-612.2"/>
</a>
</g>
</g>
<!-- Node7&#45;&gt;Node6 -->
<g id="edge11_Node000007_Node000006" class="edge">
<title>Node7&#45;&gt;Node6</title>
<g id="a_edge11_Node000007_Node000006"><a xlink:title=" ">
<path fill="none" stroke="#63b8ff" d="M342.93,-510.6C330.96,-512.58 318.67,-514.61 307.02,-516.53"/>
<polygon fill="#63b8ff" stroke="#63b8ff" points="343.47,-514.06 352.77,-508.98 342.33,-507.16 343.47,-514.06"/>
</a>
</g>
</g>
<!-- Node7&#45;&gt;Node7 -->
<g id="edge12_Node000007_Node000007" class="edge">
<title>Node7&#45;&gt;Node7</title>
<g id="a_edge12_Node000007_Node000007"><a xlink:title=" ">
<path fill="none" stroke="#63b8ff" d="M446.87,-519.32C443.37,-523.37 433.25,-526.25 416.5,-526.25 386.73,-526.25 377.89,-517.15 389.98,-508.54"/>
<polygon fill="#63b8ff" stroke="#63b8ff" points="450.19,-518.2 443.53,-509.96 443.6,-520.56 450.19,-518.2"/>
</a>
</g>
</g>
<!-- Node8&#45;&gt;Node9 -->
<g id="edge14_Node000008_Node000009" class="edge">
<title>Node8&#45;&gt;Node9</title>
<g id="a_edge14_Node000008_Node000009"><a xlink:title=" ">
<path fill="none" stroke="#63b8ff" d="M331.69,-452.24C322.68,-451.23 313.65,-450.22 305.02,-449.25"/>
<polygon fill="#63b8ff" stroke="#63b8ff" points="331.24,-455.71 341.57,-453.34 332.02,-448.75 331.24,-455.71"/>
</a>
</g>
</g>
<!-- Node12&#45;&gt;Node11 -->
<g id="edge18_Node000012_Node000011" class="edge">
<title>Node12&#45;&gt;Node11</title>
<g id="a_edge18_Node000012_Node000011"><a xlink:title=" ">
<path fill="none" stroke="#63b8ff" d="M343.86,-303.45C331.34,-305.52 318.43,-307.65 306.25,-309.66"/>
<polygon fill="#63b8ff" stroke="#63b8ff" points="344.43,-306.9 353.73,-301.82 343.29,-300 344.43,-306.9"/>
</a>
</g>
</g>
<!-- Node12&#45;&gt;Node12 -->
<g id="edge19_Node000012_Node000012" class="edge">
<title>Node12&#45;&gt;Node12</title>
<g id="a_edge19_Node000012_Node000012"><a xlink:title=" ">
<path fill="none" stroke="#63b8ff" d="M446.87,-312.32C443.37,-316.37 433.25,-319.25 416.5,-319.25 386.73,-319.25 377.89,-310.15 389.98,-301.54"/>
<polygon fill="#63b8ff" stroke="#63b8ff" points="450.19,-311.2 443.53,-302.96 443.6,-313.56 450.19,-311.2"/>
</a>
</g>
</g>
<!-- Node14 -->
<g id="Node000014" class="node">
<title>Node14</title>
<g id="a_Node000014"><a xlink:href="class_t_m_c2660_stepper.html#a03129d48b7b62071a217ad8d3d290148" target="_top" xlink:title=" ">
<polygon fill="white" stroke="#666666" points="146.5,-253.25 0,-253.25 0,-234 146.5,-234 146.5,-253.25"/>
<text text-anchor="middle" x="73.25" y="-239.75" font-family="Helvetica,sans-Serif" font-size="10.00">TMC2660Stepper::microsteps</text>
</a>
</g>
</g>
<!-- Node13&#45;&gt;Node14 -->
<g id="edge21_Node000013_Node000014" class="edge">
<title>Node13&#45;&gt;Node14</title>
<g id="a_edge21_Node000013_Node000014"><a xlink:title=" ">
<path fill="none" stroke="#63b8ff" d="M173.28,-233.12C164.59,-234.04 155.69,-234.98 146.97,-235.91"/>
<polygon fill="#63b8ff" stroke="#63b8ff" points="173.47,-236.62 183.04,-232.08 172.73,-229.66 173.47,-236.62"/>
</a>
</g>
</g>
<!-- Node15 -->
<g id="Node000015" class="node">
<title>Node15</title>
<g id="a_Node000015"><a xlink:href="class_t_m_c2660_stepper.html#a3e059fdcde034717773b2bba0d192390" target="_top" xlink:title=" ">
<polygon fill="white" stroke="#666666" points="146.5,-216.25 0,-216.25 0,-197 146.5,-197 146.5,-216.25"/>
<text text-anchor="middle" x="73.25" y="-202.75" font-family="Helvetica,sans-Serif" font-size="10.00">TMC2660Stepper::microsteps</text>
</a>
</g>
</g>
<!-- Node13&#45;&gt;Node15 -->
<g id="edge22_Node000013_Node000015" class="edge">
<title>Node13&#45;&gt;Node15</title>
<g id="a_edge22_Node000013_Node000015"><a xlink:title=" ">
<path fill="none" stroke="#63b8ff" d="M173.28,-217.72C164.59,-216.74 155.69,-215.75 146.97,-214.77"/>
<polygon fill="#63b8ff" stroke="#63b8ff" points="172.72,-221.18 183.04,-218.81 173.5,-214.22 172.72,-221.18"/>
</a>
</g>
</g>
<!-- Node16&#45;&gt;Node13 -->
<g id="edge24_Node000016_Node000013" class="edge">
<title>Node16&#45;&gt;Node13</title>
<g id="a_edge24_Node000016_Node000013"><a xlink:title=" ">
<path fill="none" stroke="#63b8ff" d="M344.82,-209.29C331.73,-211.45 318.18,-213.69 305.45,-215.79"/>
<polygon fill="#63b8ff" stroke="#63b8ff" points="345.38,-212.75 354.68,-207.66 344.24,-205.84 345.38,-212.75"/>
</a>
</g>
</g>
<!-- Node16&#45;&gt;Node16 -->
<g id="edge25_Node000016_Node000016" class="edge">
<title>Node16&#45;&gt;Node16</title>
<g id="a_edge25_Node000016_Node000016"><a xlink:title=" ">
<path fill="none" stroke="#63b8ff" d="M446.87,-218.32C443.37,-222.37 433.25,-225.25 416.5,-225.25 386.73,-225.25 377.89,-216.15 389.98,-207.54"/>
<polygon fill="#63b8ff" stroke="#63b8ff" points="450.19,-217.2 443.53,-208.96 443.6,-219.56 450.19,-217.2"/>
</a>
</g>
</g>
<!-- Node18&#45;&gt;Node17 -->
<g id="edge28_Node000018_Node000017" class="edge">
<title>Node18&#45;&gt;Node17</title>
<g id="a_edge28_Node000018_Node000017"><a xlink:title=" ">
<path fill="none" stroke="#63b8ff" d="M347.71,-114.82C332.68,-117.3 316.92,-119.9 302.4,-122.29"/>
<polygon fill="#63b8ff" stroke="#63b8ff" points="348.23,-118.28 357.52,-113.2 347.09,-111.37 348.23,-118.28"/>
</a>
</g>
</g>
<!-- Node18&#45;&gt;Node18 -->
<g id="edge29_Node000018_Node000018" class="edge">
<title>Node18&#45;&gt;Node18</title>
<g id="a_edge29_Node000018_Node000018"><a xlink:title=" ">
<path fill="none" stroke="#63b8ff" d="M446.87,-124.32C443.37,-128.37 433.25,-131.25 416.5,-131.25 386.73,-131.25 377.89,-122.15 389.98,-113.54"/>
<polygon fill="#63b8ff" stroke="#63b8ff" points="450.19,-123.2 443.53,-114.96 443.6,-125.56 450.19,-123.2"/>
</a>
</g>
</g>
<!-- Node20&#45;&gt;Node19 -->
<g id="edge32_Node000020_Node000019" class="edge">
<title>Node20&#45;&gt;Node19</title>
<g id="a_edge32_Node000020_Node000019"><a xlink:title=" ">
<path fill="none" stroke="#63b8ff" d="M347.71,-20.82C332.68,-23.3 316.92,-25.9 302.4,-28.29"/>
<polygon fill="#63b8ff" stroke="#63b8ff" points="348.23,-24.28 357.52,-19.2 347.09,-17.37 348.23,-24.28"/>
</a>
</g>
</g>
<!-- Node20&#45;&gt;Node20 -->
<g id="edge33_Node000020_Node000020" class="edge">
<title>Node20&#45;&gt;Node20</title>
<g id="a_edge33_Node000020_Node000020"><a xlink:title=" ">
<path fill="none" stroke="#63b8ff" d="M446.87,-30.32C443.37,-34.37 433.25,-37.25 416.5,-37.25 386.73,-37.25 377.89,-28.15 389.98,-19.54"/>
<polygon fill="#63b8ff" stroke="#63b8ff" points="450.19,-29.2 443.53,-20.96 443.6,-31.56 450.19,-29.2"/>
</a>
</g>
</g>
</g>
</svg>
