<?xml version="1.0" encoding="UTF-8" standalone="no"?>
<!DOCTYPE svg PUBLIC "-//W3C//DTD SVG 1.1//EN"
 "http://www.w3.org/Graphics/SVG/1.1/DTD/svg11.dtd">
<!-- Generated by graphviz version 12.2.1 (20241206.2353)
 -->
<!-- Title: TMC5160Stepper Pages: 1 -->
<svg width="191pt" height="269pt"
 viewBox="0.00 0.00 191.09 268.50" xmlns="http://www.w3.org/2000/svg" xmlns:xlink="http://www.w3.org/1999/xlink">

<svg id="main" version="1.1" xmlns="http://www.w3.org/2000/svg" xmlns:xlink="http://www.w3.org/1999/xlink" xml:space="preserve">

<style type="text/css"><![CDATA[
.node, .edge {opacity: 0.7;}
.node.selected, .edge.selected {opacity: 1;}
.edge:hover path { stroke: red; }
.edge:hover polygon { stroke: red; fill: red; }
]]></style>
<script type="application/ecmascript" xlink:href="svg.min.js"/>
<svg id="graph" class="graph">
<g id="graph0" class="graph" transform="scale(1 1) rotate(0) translate(4 264.5)">
<title>TMC5160Stepper</title>
<!-- Node1 -->
<g id="Node000001" class="node">
<title>Node1</title>
<g id="a_Node000001"><a xlink:title=" ">
<polygon fill="#999999" stroke="#666666" points="129,-19.25 36.5,-19.25 36.5,0 129,0 129,-19.25"/>
<text text-anchor="middle" x="82.75" y="-5.75" font-family="Helvetica,sans-Serif" font-size="10.00">TMC5160Stepper</text>
</a>
</g>
</g>
<!-- Node2 -->
<g id="Node000002" class="node">
<title>Node2</title>
<g id="a_Node000002"><a xlink:href="class_t_m_c5130_stepper.html" target="_top" xlink:title=" ">
<polygon fill="white" stroke="#666666" points="129,-75.5 36.5,-75.5 36.5,-56.25 129,-56.25 129,-75.5"/>
<text text-anchor="middle" x="82.75" y="-62" font-family="Helvetica,sans-Serif" font-size="10.00">TMC5130Stepper</text>
</a>
</g>
</g>
<!-- Node2&#45;&gt;Node1 -->
<g id="edge1_Node000001_Node000002" class="edge">
<title>Node2&#45;&gt;Node1</title>
<g id="a_edge1_Node000001_Node000002"><a xlink:title=" ">
<path fill="none" stroke="#63b8ff" d="M82.75,-44.69C82.75,-35.98 82.75,-26.24 82.75,-19.42"/>
<polygon fill="#63b8ff" stroke="#63b8ff" points="79.25,-44.4 82.75,-54.4 86.25,-44.4 79.25,-44.4"/>
</a>
</g>
</g>
<!-- Node3 -->
<g id="Node000003" class="node">
<title>Node3</title>
<g id="a_Node000003"><a xlink:href="class_t_m_c2160_stepper.html" target="_top" xlink:title=" ">
<polygon fill="white" stroke="#666666" points="129,-131.75 36.5,-131.75 36.5,-112.5 129,-112.5 129,-131.75"/>
<text text-anchor="middle" x="82.75" y="-118.25" font-family="Helvetica,sans-Serif" font-size="10.00">TMC2160Stepper</text>
</a>
</g>
</g>
<!-- Node3&#45;&gt;Node2 -->
<g id="edge2_Node000002_Node000003" class="edge">
<title>Node3&#45;&gt;Node2</title>
<g id="a_edge2_Node000002_Node000003"><a xlink:title=" ">
<path fill="none" stroke="#63b8ff" d="M82.75,-100.94C82.75,-92.23 82.75,-82.49 82.75,-75.67"/>
<polygon fill="#63b8ff" stroke="#63b8ff" points="79.25,-100.65 82.75,-110.65 86.25,-100.65 79.25,-100.65"/>
</a>
</g>
</g>
<!-- Node4 -->
<g id="Node000004" class="node">
<title>Node4</title>
<g id="a_Node000004"><a xlink:href="class_t_m_c2130_stepper.html" target="_top" xlink:title=" ">
<polygon fill="white" stroke="#666666" points="129,-188 36.5,-188 36.5,-168.75 129,-168.75 129,-188"/>
<text text-anchor="middle" x="82.75" y="-174.5" font-family="Helvetica,sans-Serif" font-size="10.00">TMC2130Stepper</text>
</a>
</g>
</g>
<!-- Node4&#45;&gt;Node3 -->
<g id="edge3_Node000003_Node000004" class="edge">
<title>Node4&#45;&gt;Node3</title>
<g id="a_edge3_Node000003_Node000004"><a xlink:title=" ">
<path fill="none" stroke="#63b8ff" d="M82.75,-157.19C82.75,-148.48 82.75,-138.74 82.75,-131.92"/>
<polygon fill="#63b8ff" stroke="#63b8ff" points="79.25,-156.9 82.75,-166.9 86.25,-156.9 79.25,-156.9"/>
</a>
</g>
</g>
<!-- Node5 -->
<g id="Node000005" class="node">
<title>Node5</title>
<g id="a_Node000005"><a xlink:href="class_t_m_c_stepper.html" target="_top" xlink:title=" ">
<polygon fill="white" stroke="#666666" points="71.5,-260.5 0,-260.5 0,-241.25 71.5,-241.25 71.5,-260.5"/>
<text text-anchor="middle" x="35.75" y="-247" font-family="Helvetica,sans-Serif" font-size="10.00">TMCStepper</text>
</a>
</g>
</g>
<!-- Node5&#45;&gt;Node4 -->
<g id="edge4_Node000004_Node000005" class="edge">
<title>Node5&#45;&gt;Node4</title>
<g id="a_edge4_Node000004_Node000005"><a xlink:title=" ">
<path fill="none" stroke="#63b8ff" d="M48.03,-231.45C57.26,-217.62 69.49,-199.27 76.7,-188.45"/>
<polygon fill="#63b8ff" stroke="#63b8ff" points="45.18,-229.42 42.54,-239.69 51,-233.31 45.18,-229.42"/>
</a>
</g>
</g>
<!-- Node6 -->
<g id="Node000006" class="node">
<title>Node6</title>
<g id="a_Node000006"><a xlink:href="class_s_w___s_p_i_class.html" target="_top" xlink:title=" ">
<polygon fill="white" stroke="#666666" points="169.62,-260.5 89.88,-260.5 89.88,-241.25 169.62,-241.25 169.62,-260.5"/>
<text text-anchor="middle" x="129.75" y="-247" font-family="Helvetica,sans-Serif" font-size="10.00">SW_SPIClass</text>
</a>
</g>
</g>
<!-- Node6&#45;&gt;Node4 -->
<g id="edge5_Node000004_Node000006" class="edge">
<title>Node6&#45;&gt;Node4</title>
<g id="a_edge5_Node000004_Node000006"><a xlink:title=" ">
<path fill="none" stroke="#9a32cd" stroke-dasharray="5,2" d="M117.47,-231.45C108.24,-217.62 96.01,-199.27 88.8,-188.45"/>
<polygon fill="#9a32cd" stroke="#9a32cd" points="114.5,-233.31 122.96,-239.69 120.32,-229.42 114.5,-233.31"/>
</a>
</g>
<text text-anchor="start" x="114.84" y="-210.75" font-family="Helvetica,sans-Serif" font-size="10.00" fill="grey">TMC_SW_SPI</text>
</g>
</g>
</svg>
</svg>

<style type='text/css'>
<![CDATA[
[data-mouse-over-selected='false'] { opacity: 0.7; }
[data-mouse-over-selected='true']  { opacity: 1.0; }
]]>
</style>
<script type="application/ecmascript"><![CDATA[
document.addEventListener('DOMContentLoaded', (event) => {
  highlightEdges();
  highlightAdjacentNodes();
});
]]></script>
</svg>
