<?xml version="1.0" encoding="UTF-8" standalone="no"?>
<!DOCTYPE svg PUBLIC "-//W3C//DTD SVG 1.1//EN"
 "http://www.w3.org/Graphics/SVG/1.1/DTD/svg11.dtd">
<!-- Generated by graphviz version 12.2.1 (20241206.2353)
 -->
<!-- Title: TMC2209Stepper::TCOOLTHRS Pages: 1 -->
<svg width="499pt" height="174pt"
 viewBox="0.00 0.00 499.25 173.88" xmlns="http://www.w3.org/2000/svg" xmlns:xlink="http://www.w3.org/1999/xlink">
<g id="graph0" class="graph" transform="scale(1 1) rotate(0) translate(4 169.88)">
<title>TMC2209Stepper::TCOOLTHRS</title>
<!-- Node1 -->
<g id="Node000001" class="node">
<title>Node1</title>
<g id="a_Node000001"><a xlink:title=" ">
<polygon fill="#999999" stroke="#666666" points="160,-97.88 0,-97.88 0,-78.62 160,-78.62 160,-97.88"/>
<text text-anchor="middle" x="80" y="-84.38" font-family="Helvetica,sans-Serif" font-size="10.00">TMC2209Stepper::TCOOLTHRS</text>
</a>
</g>
</g>
<!-- Node2 -->
<g id="Node000002" class="node">
<title>Node2</title>
<g id="a_Node000002"><a xlink:href="class_t_m_c2208_stepper.html#a142b14de8a4dcc6cf76b4a6ede9e1cea" target="_top" xlink:title=" ">
<polygon fill="white" stroke="#666666" points="315.5,-97.88 196,-97.88 196,-78.62 315.5,-78.62 315.5,-97.88"/>
<text text-anchor="middle" x="255.75" y="-84.38" font-family="Helvetica,sans-Serif" font-size="10.00">TMC2208Stepper::write</text>
</a>
</g>
</g>
<!-- Node1&#45;&gt;Node2 -->
<g id="edge1_Node000001_Node000002" class="edge">
<title>Node1&#45;&gt;Node2</title>
<g id="a_edge1_Node000001_Node000002"><a xlink:title=" ">
<path fill="none" stroke="#63b8ff" d="M160.25,-88.25C168.25,-88.25 176.33,-88.25 184.23,-88.25"/>
<polygon fill="#63b8ff" stroke="#63b8ff" points="184.12,-91.75 194.12,-88.25 184.12,-84.75 184.12,-91.75"/>
</a>
</g>
</g>
<!-- Node3 -->
<g id="Node000003" class="node">
<title>Node3</title>
<g id="a_Node000003"><a xlink:href="class_t_m_c2208_stepper.html#a409c19fa6b052a370a317d061bf9af4e" target="_top" xlink:title=" ">
<polygon fill="white" stroke="#666666" points="490.88,-165.88 351.88,-165.88 351.88,-146.62 490.88,-146.62 490.88,-165.88"/>
<text text-anchor="middle" x="421.38" y="-152.38" font-family="Helvetica,sans-Serif" font-size="10.00">TMC2208Stepper::calcCRC</text>
</a>
</g>
</g>
<!-- Node2&#45;&gt;Node3 -->
<g id="edge2_Node000002_Node000003" class="edge">
<title>Node2&#45;&gt;Node3</title>
<g id="a_edge2_Node000002_Node000003"><a xlink:title=" ">
<path fill="none" stroke="#63b8ff" d="M273.37,-98.2C291.91,-108.97 323.05,-126.11 351.5,-137.25 356.71,-139.29 362.22,-141.2 367.76,-142.96"/>
<polygon fill="#63b8ff" stroke="#63b8ff" points="366.36,-146.2 376.95,-145.73 368.38,-139.5 366.36,-146.2"/>
</a>
</g>
</g>
<!-- Node4 -->
<g id="Node000004" class="node">
<title>Node4</title>
<g id="a_Node000004"><a xlink:href="class_t_m_c2208_stepper.html#a5147cab1658f782b36b0ce7e951d4f4e" target="_top" xlink:title=" ">
<polygon fill="white" stroke="#666666" points="491.25,-128.5 351.5,-128.5 351.5,-98 491.25,-98 491.25,-128.5"/>
<text text-anchor="start" x="359.5" y="-115" font-family="Helvetica,sans-Serif" font-size="10.00">TMC2208Stepper::postWrite</text>
<text text-anchor="middle" x="421.38" y="-103.75" font-family="Helvetica,sans-Serif" font-size="10.00">Communication</text>
</a>
</g>
</g>
<!-- Node2&#45;&gt;Node4 -->
<g id="edge3_Node000002_Node000004" class="edge">
<title>Node2&#45;&gt;Node4</title>
<g id="a_edge3_Node000002_Node000004"><a xlink:title=" ">
<path fill="none" stroke="#63b8ff" d="M315.82,-97.28C323.6,-98.46 331.67,-99.7 339.73,-100.93"/>
<polygon fill="#63b8ff" stroke="#63b8ff" points="339.18,-104.38 349.59,-102.43 340.23,-97.46 339.18,-104.38"/>
</a>
</g>
</g>
<!-- Node5 -->
<g id="Node000005" class="node">
<title>Node5</title>
<g id="a_Node000005"><a xlink:href="class_t_m_c2208_stepper.html#a66e4f8694ee035432af8b61f14b35a92" target="_top" xlink:title=" ">
<polygon fill="white" stroke="#666666" points="488.62,-79.5 354.12,-79.5 354.12,-49 488.62,-49 488.62,-79.5"/>
<text text-anchor="start" x="362.12" y="-66" font-family="Helvetica,sans-Serif" font-size="10.00">TMC2208Stepper::preWrite</text>
<text text-anchor="middle" x="421.38" y="-54.75" font-family="Helvetica,sans-Serif" font-size="10.00">Communication</text>
</a>
</g>
</g>
<!-- Node2&#45;&gt;Node5 -->
<g id="edge4_Node000002_Node000005" class="edge">
<title>Node2&#45;&gt;Node5</title>
<g id="a_edge4_Node000002_Node000005"><a xlink:title=" ">
<path fill="none" stroke="#63b8ff" d="M315.82,-79.59C324.51,-78.31 333.57,-76.98 342.57,-75.66"/>
<polygon fill="#63b8ff" stroke="#63b8ff" points="343.01,-79.13 352.4,-74.22 342,-72.21 343.01,-79.13"/>
</a>
</g>
</g>
<!-- Node6 -->
<g id="Node000006" class="node">
<title>Node6</title>
<g id="a_Node000006"><a xlink:href="class_t_m_c2208_stepper.html#adb6243277ef84d2027b2b8bae6be5bd0" target="_top" xlink:title=" ">
<polygon fill="white" stroke="#666666" points="482.25,-30.5 360.5,-30.5 360.5,0 482.25,0 482.25,-30.5"/>
<text text-anchor="start" x="368.5" y="-17" font-family="Helvetica,sans-Serif" font-size="10.00">TMC2208Stepper::serial</text>
<text text-anchor="middle" x="421.38" y="-5.75" font-family="Helvetica,sans-Serif" font-size="10.00">_write</text>
</a>
</g>
</g>
<!-- Node2&#45;&gt;Node6 -->
<g id="edge5_Node000002_Node000006" class="edge">
<title>Node2&#45;&gt;Node6</title>
<g id="a_edge5_Node000002_Node000006"><a xlink:title=" ">
<path fill="none" stroke="#63b8ff" d="M274.95,-78.2C293.8,-67.99 324.25,-52.04 351.5,-40.25 355.59,-38.48 359.84,-36.73 364.15,-35.02"/>
<polygon fill="#63b8ff" stroke="#63b8ff" points="365.39,-38.29 373.46,-31.43 362.87,-31.76 365.39,-38.29"/>
</a>
</g>
</g>
</g>
</svg>
