<?xml version="1.0" encoding="UTF-8" standalone="no"?>
<!DOCTYPE svg PUBLIC "-//W3C//DTD SVG 1.1//EN"
 "http://www.w3.org/Graphics/SVG/1.1/DTD/svg11.dtd">
<!-- Generated by graphviz version 12.2.1 (20241206.2353)
 -->
<!-- Title: TMC5130Stepper::push Pages: 1 -->
<svg width="477pt" height="1161pt"
 viewBox="0.00 0.00 476.75 1161.25" xmlns="http://www.w3.org/2000/svg" xmlns:xlink="http://www.w3.org/1999/xlink">
<g id="graph0" class="graph" transform="scale(1 1) rotate(0) translate(4 1157.25)">
<title>TMC5130Stepper::push</title>
<!-- Node1 -->
<g id="Node000001" class="node">
<title>Node1</title>
<g id="a_Node000001"><a xlink:title=" ">
<polygon fill="#999999" stroke="#666666" points="119.5,-586.25 0,-586.25 0,-567 119.5,-567 119.5,-586.25"/>
<text text-anchor="middle" x="59.75" y="-572.75" font-family="Helvetica,sans-Serif" font-size="10.00">TMC5130Stepper::push</text>
</a>
</g>
</g>
<!-- Node2 -->
<g id="Node000002" class="node">
<title>Node2</title>
<g id="a_Node000002"><a xlink:href="class_t_m_c5130_stepper.html#a6cc10f2e47c0f2eadeb5e8e6cf42015d" target="_top" xlink:title=" ">
<polygon fill="white" stroke="#666666" points="290,-1153.25 181,-1153.25 181,-1134 290,-1134 290,-1153.25"/>
<text text-anchor="middle" x="235.5" y="-1139.75" font-family="Helvetica,sans-Serif" font-size="10.00">TMC5130Stepper::a1</text>
</a>
</g>
</g>
<!-- Node1&#45;&gt;Node2 -->
<g id="edge1_Node000001_Node000002" class="edge">
<title>Node1&#45;&gt;Node2</title>
<g id="a_edge1_Node000001_Node000002"><a xlink:title=" ">
<path fill="none" stroke="#63b8ff" d="M61.02,-586.7C63.02,-654.48 77.8,-1043.68 155.5,-1125.62 159.73,-1130.09 164.83,-1133.56 170.37,-1136.23"/>
<polygon fill="#63b8ff" stroke="#63b8ff" points="168.72,-1139.35 179.31,-1139.7 171.25,-1132.82 168.72,-1139.35"/>
</a>
</g>
</g>
<!-- Node3 -->
<g id="Node000003" class="node">
<title>Node3</title>
<g id="a_Node000003"><a xlink:href="class_t_m_c5130_stepper.html#a1d199eabd1b7da86c2518603c10bf8d9" target="_top" xlink:title=" ">
<polygon fill="white" stroke="#666666" points="299,-1116.25 172,-1116.25 172,-1097 299,-1097 299,-1116.25"/>
<text text-anchor="middle" x="235.5" y="-1102.75" font-family="Helvetica,sans-Serif" font-size="10.00">TMC5130Stepper::AMAX</text>
</a>
</g>
</g>
<!-- Node1&#45;&gt;Node3 -->
<g id="edge2_Node000001_Node000003" class="edge">
<title>Node1&#45;&gt;Node3</title>
<g id="a_edge2_Node000001_Node000003"><a xlink:title=" ">
<path fill="none" stroke="#63b8ff" d="M61.14,-586.44C63.91,-650.84 82.58,-1012.64 155.5,-1088.62 157.5,-1090.71 159.69,-1092.58 162.03,-1094.25"/>
<polygon fill="#63b8ff" stroke="#63b8ff" points="159.93,-1097.08 170.35,-1099.01 163.41,-1091.01 159.93,-1097.08"/>
</a>
</g>
</g>
<!-- Node4 -->
<g id="Node000004" class="node">
<title>Node4</title>
<g id="a_Node000004"><a xlink:href="class_t_m_c2130_stepper.html#a67541b27d97ce45f175e9f6e4a2d0bff" target="_top" xlink:title=" ">
<polygon fill="white" stroke="#666666" points="313.62,-1079.25 157.38,-1079.25 157.38,-1060 313.62,-1060 313.62,-1079.25"/>
<text text-anchor="middle" x="235.5" y="-1065.75" font-family="Helvetica,sans-Serif" font-size="10.00">TMC2130Stepper::CHOPCONF</text>
</a>
</g>
</g>
<!-- Node1&#45;&gt;Node4 -->
<g id="edge3_Node000001_Node000004" class="edge">
<title>Node1&#45;&gt;Node4</title>
<g id="a_edge3_Node000001_Node000004"><a xlink:title=" ">
<path fill="none" stroke="#63b8ff" d="M61.3,-586.52C64.93,-648.41 87.47,-981.72 155.5,-1051.62 155.88,-1052.02 156.27,-1052.4 156.66,-1052.77"/>
<polygon fill="#63b8ff" stroke="#63b8ff" points="154.43,-1055.48 164.53,-1058.69 158.64,-1049.88 154.43,-1055.48"/>
</a>
</g>
</g>
<!-- Node6 -->
<g id="Node000006" class="node">
<title>Node6</title>
<g id="a_Node000006"><a xlink:href="class_t_m_c2130_stepper.html#abc48be984238d94bb3b72ed3aa26f028" target="_top" xlink:title=" ">
<polygon fill="white" stroke="#666666" points="312.88,-1042.25 158.12,-1042.25 158.12,-1023 312.88,-1023 312.88,-1042.25"/>
<text text-anchor="middle" x="235.5" y="-1028.75" font-family="Helvetica,sans-Serif" font-size="10.00">TMC2130Stepper::COOLCONF</text>
</a>
</g>
</g>
<!-- Node1&#45;&gt;Node6 -->
<g id="edge5_Node000001_Node000006" class="edge">
<title>Node1&#45;&gt;Node6</title>
<g id="a_edge5_Node000001_Node000006"><a xlink:title=" ">
<path fill="none" stroke="#63b8ff" d="M61.48,-586.51C66.01,-645.52 92.31,-950.74 155.5,-1014.62 155.88,-1015.01 156.27,-1015.39 156.67,-1015.76"/>
<polygon fill="#63b8ff" stroke="#63b8ff" points="154.47,-1018.49 164.59,-1021.64 158.64,-1012.87 154.47,-1018.49"/>
</a>
</g>
</g>
<!-- Node7 -->
<g id="Node000007" class="node">
<title>Node7</title>
<g id="a_Node000007"><a xlink:href="class_t_m_c5130_stepper.html#a5536b9f5afbc254f3963ec2029b7e8e8" target="_top" xlink:title=" ">
<polygon fill="white" stroke="#666666" points="290,-1005.25 181,-1005.25 181,-986 290,-986 290,-1005.25"/>
<text text-anchor="middle" x="235.5" y="-991.75" font-family="Helvetica,sans-Serif" font-size="10.00">TMC5130Stepper::d1</text>
</a>
</g>
</g>
<!-- Node1&#45;&gt;Node7 -->
<g id="edge6_Node000001_Node000007" class="edge">
<title>Node1&#45;&gt;Node7</title>
<g id="a_edge6_Node000001_Node000007"><a xlink:title=" ">
<path fill="none" stroke="#63b8ff" d="M61.68,-586.4C67.16,-642.17 97.1,-919.69 155.5,-977.62 159.7,-981.79 164.65,-985.07 169.99,-987.65"/>
<polygon fill="#63b8ff" stroke="#63b8ff" points="168.65,-990.89 179.24,-991.24 171.18,-984.36 168.65,-990.89"/>
</a>
</g>
</g>
<!-- Node8 -->
<g id="Node000008" class="node">
<title>Node8</title>
<g id="a_Node000008"><a xlink:href="class_t_m_c2130_stepper.html#a1a90b2919efe61dd825552c2fbeca993" target="_top" xlink:title=" ">
<polygon fill="white" stroke="#666666" points="305.38,-968.25 165.62,-968.25 165.62,-949 305.38,-949 305.38,-968.25"/>
<text text-anchor="middle" x="235.5" y="-954.75" font-family="Helvetica,sans-Serif" font-size="10.00">TMC2130Stepper::DCCTRL</text>
</a>
</g>
</g>
<!-- Node1&#45;&gt;Node8 -->
<g id="edge7_Node000001_Node000008" class="edge">
<title>Node1&#45;&gt;Node8</title>
<g id="a_edge7_Node000001_Node000008"><a xlink:title=" ">
<path fill="none" stroke="#63b8ff" d="M61.94,-586.53C68.51,-639.47 101.94,-888.68 155.5,-940.62 156,-941.11 156.52,-941.59 157.05,-942.06"/>
<polygon fill="#63b8ff" stroke="#63b8ff" points="154.89,-944.82 165.08,-947.72 158.92,-939.1 154.89,-944.82"/>
</a>
</g>
</g>
<!-- Node9 -->
<g id="Node000009" class="node">
<title>Node9</title>
<g id="a_Node000009"><a xlink:href="class_t_m_c5130_stepper.html#a4ba4cbc9e54f1f43255ebeca609a3d7c" target="_top" xlink:title=" ">
<polygon fill="white" stroke="#666666" points="299.38,-931.25 171.62,-931.25 171.62,-912 299.38,-912 299.38,-931.25"/>
<text text-anchor="middle" x="235.5" y="-917.75" font-family="Helvetica,sans-Serif" font-size="10.00">TMC5130Stepper::DMAX</text>
</a>
</g>
</g>
<!-- Node1&#45;&gt;Node9 -->
<g id="edge9_Node000001_Node000009" class="edge">
<title>Node1&#45;&gt;Node9</title>
<g id="a_edge9_Node000001_Node000009"><a xlink:title=" ">
<path fill="none" stroke="#63b8ff" d="M60.3,-586.71C58.89,-631.36 59.42,-812.96 155.5,-903.62 157.37,-905.39 159.38,-906.99 161.49,-908.45"/>
<polygon fill="#63b8ff" stroke="#63b8ff" points="159.59,-911.4 170.03,-913.21 163,-905.29 159.59,-911.4"/>
</a>
</g>
</g>
<!-- Node10 -->
<g id="Node000010" class="node">
<title>Node10</title>
<g id="a_Node000010"><a xlink:href="class_t_m_c5130_stepper.html#adce396d6676a252e87507a30ba44c693" target="_top" xlink:title=" ">
<polygon fill="white" stroke="#666666" points="312.5,-894.25 158.5,-894.25 158.5,-875 312.5,-875 312.5,-894.25"/>
<text text-anchor="middle" x="235.5" y="-880.75" font-family="Helvetica,sans-Serif" font-size="10.00">TMC5130Stepper::DRV_CONF</text>
</a>
</g>
</g>
<!-- Node1&#45;&gt;Node10 -->
<g id="edge10_Node000001_Node000010" class="edge">
<title>Node1&#45;&gt;Node10</title>
<g id="a_edge10_Node000001_Node000010"><a xlink:title=" ">
<path fill="none" stroke="#63b8ff" d="M60.76,-586.64C61.4,-627.9 69.53,-786.33 155.5,-865.62 156.73,-866.76 158.02,-867.83 159.35,-868.84"/>
<polygon fill="#63b8ff" stroke="#63b8ff" points="157.14,-871.59 167.49,-873.87 160.82,-865.63 157.14,-871.59"/>
</a>
</g>
</g>
<!-- Node11 -->
<g id="Node000011" class="node">
<title>Node11</title>
<g id="a_Node000011"><a xlink:href="class_t_m_c5130_stepper.html#a5cf838fb4ec111c06714f666e8e1807b" target="_top" xlink:title=" ">
<polygon fill="white" stroke="#666666" points="295.62,-856.88 175.38,-856.88 175.38,-826.38 295.62,-826.38 295.62,-856.88"/>
<text text-anchor="start" x="183.38" y="-843.38" font-family="Helvetica,sans-Serif" font-size="10.00">TMC5130Stepper::ENC</text>
<text text-anchor="middle" x="235.5" y="-832.12" font-family="Helvetica,sans-Serif" font-size="10.00">_CONST</text>
</a>
</g>
</g>
<!-- Node1&#45;&gt;Node11 -->
<g id="edge11_Node000001_Node000011" class="edge">
<title>Node1&#45;&gt;Node11</title>
<g id="a_edge11_Node000001_Node000011"><a xlink:title=" ">
<path fill="none" stroke="#63b8ff" d="M61.63,-586.58C65.41,-623.12 83.49,-751.14 155.5,-817.62 158.43,-820.33 161.66,-822.74 165.09,-824.87"/>
<polygon fill="#63b8ff" stroke="#63b8ff" points="163.37,-827.92 173.85,-829.48 166.63,-821.72 163.37,-827.92"/>
</a>
</g>
</g>
<!-- Node12 -->
<g id="Node000012" class="node">
<title>Node12</title>
<g id="a_Node000012"><a xlink:href="class_t_m_c5130_stepper.html#ae9ccc393519579143c2afb67da9d02a3" target="_top" xlink:title=" ">
<polygon fill="white" stroke="#666666" points="315.5,-808.25 155.5,-808.25 155.5,-789 315.5,-789 315.5,-808.25"/>
<text text-anchor="middle" x="235.5" y="-794.75" font-family="Helvetica,sans-Serif" font-size="10.00">TMC5130Stepper::ENCM_CTRL</text>
</a>
</g>
</g>
<!-- Node1&#45;&gt;Node12 -->
<g id="edge12_Node000001_Node000012" class="edge">
<title>Node1&#45;&gt;Node12</title>
<g id="a_edge12_Node000001_Node000012"><a xlink:title=" ">
<path fill="none" stroke="#63b8ff" d="M62.24,-586.58C67.76,-619.83 90.22,-727.83 155.5,-780.62 156.48,-781.42 157.5,-782.18 158.54,-782.91"/>
<polygon fill="#63b8ff" stroke="#63b8ff" points="156.75,-785.92 167.16,-787.89 160.25,-779.86 156.75,-785.92"/>
</a>
</g>
</g>
<!-- Node13 -->
<g id="Node000013" class="node">
<title>Node13</title>
<g id="a_Node000013"><a xlink:href="class_t_m_c5130_stepper.html#a3c7840e9435d4332fc6a7742deeefa9f" target="_top" xlink:title=" ">
<polygon fill="white" stroke="#666666" points="310.62,-771.25 160.38,-771.25 160.38,-752 310.62,-752 310.62,-771.25"/>
<text text-anchor="middle" x="235.5" y="-757.75" font-family="Helvetica,sans-Serif" font-size="10.00">TMC5130Stepper::ENCMODE</text>
</a>
</g>
</g>
<!-- Node1&#45;&gt;Node13 -->
<g id="edge13_Node000001_Node000013" class="edge">
<title>Node1&#45;&gt;Node13</title>
<g id="a_edge13_Node000001_Node000013"><a xlink:title=" ">
<path fill="none" stroke="#63b8ff" d="M63.27,-586.4C71.29,-615.42 99.06,-701.66 155.5,-743.62 156.84,-744.62 158.23,-745.56 159.65,-746.46"/>
<polygon fill="#63b8ff" stroke="#63b8ff" points="157.71,-749.39 168.2,-750.93 160.96,-743.19 157.71,-749.39"/>
</a>
</g>
</g>
<!-- Node14 -->
<g id="Node000014" class="node">
<title>Node14</title>
<g id="a_Node000014"><a xlink:href="class_t_m_c2130_stepper.html#aee84a9abfc84b387c6ae5658f90bf684" target="_top" xlink:title=" ">
<polygon fill="white" stroke="#666666" points="302.75,-734.25 168.25,-734.25 168.25,-715 302.75,-715 302.75,-734.25"/>
<text text-anchor="middle" x="235.5" y="-720.75" font-family="Helvetica,sans-Serif" font-size="10.00">TMC2130Stepper::GCONF</text>
</a>
</g>
</g>
<!-- Node1&#45;&gt;Node14 -->
<g id="edge15_Node000001_Node000014" class="edge">
<title>Node1&#45;&gt;Node14</title>
<g id="a_edge15_Node000001_Node000014"><a xlink:title=" ">
<path fill="none" stroke="#63b8ff" d="M65,-586.66C76,-611.34 107.92,-675.28 155.5,-706.62 157.31,-707.81 159.18,-708.93 161.11,-709.97"/>
<polygon fill="#63b8ff" stroke="#63b8ff" points="159.2,-712.94 169.75,-713.94 162.13,-706.58 159.2,-712.94"/>
</a>
</g>
</g>
<!-- Node15 -->
<g id="Node000015" class="node">
<title>Node15</title>
<g id="a_Node000015"><a xlink:href="class_t_m_c_stepper.html#a597bc308bad0d1198b98c48a6ef34fc3" target="_top" xlink:title=" ">
<polygon fill="white" stroke="#666666" points="305,-697.25 166,-697.25 166,-678 305,-678 305,-697.25"/>
<text text-anchor="middle" x="235.5" y="-683.75" font-family="Helvetica,sans-Serif" font-size="10.00">TMCStepper::IHOLD_IRUN</text>
</a>
</g>
</g>
<!-- Node1&#45;&gt;Node15 -->
<g id="edge17_Node000001_Node000015" class="edge">
<title>Node1&#45;&gt;Node15</title>
<g id="a_edge17_Node000001_Node000015"><a xlink:title=" ">
<path fill="none" stroke="#63b8ff" d="M67.83,-586.57C82.08,-605.83 116.26,-648.19 155.5,-669.62 158.04,-671.01 160.68,-672.29 163.39,-673.47"/>
<polygon fill="#63b8ff" stroke="#63b8ff" points="162.11,-676.73 172.7,-677.02 164.6,-670.19 162.11,-676.73"/>
</a>
</g>
</g>
<!-- Node16 -->
<g id="Node000016" class="node">
<title>Node16</title>
<g id="a_Node000016"><a xlink:href="class_t_m_c5130_stepper.html#a357d105f7350a08dfad82c05a39042eb" target="_top" xlink:title=" ">
<polygon fill="white" stroke="#666666" points="311.38,-660.25 159.62,-660.25 159.62,-641 311.38,-641 311.38,-660.25"/>
<text text-anchor="middle" x="235.5" y="-646.75" font-family="Helvetica,sans-Serif" font-size="10.00">TMC5130Stepper::PWMCONF</text>
</a>
</g>
</g>
<!-- Node1&#45;&gt;Node16 -->
<g id="edge18_Node000001_Node000016" class="edge">
<title>Node1&#45;&gt;Node16</title>
<g id="a_edge18_Node000001_Node000016"><a xlink:title=" ">
<path fill="none" stroke="#63b8ff" d="M74.49,-586.61C92.31,-599.12 124.79,-620.4 155.5,-632.62 159.84,-634.35 164.38,-635.93 169,-637.38"/>
<polygon fill="#63b8ff" stroke="#63b8ff" points="167.82,-640.68 178.4,-640.09 169.76,-633.96 167.82,-640.68"/>
</a>
</g>
</g>
<!-- Node17 -->
<g id="Node000017" class="node">
<title>Node17</title>
<g id="a_Node000017"><a xlink:href="class_t_m_c5130_stepper.html#a020e6ae2a6abce1a92338345aab2ae7c" target="_top" xlink:title=" ">
<polygon fill="white" stroke="#666666" points="314.38,-623.25 156.62,-623.25 156.62,-604 314.38,-604 314.38,-623.25"/>
<text text-anchor="middle" x="235.5" y="-609.75" font-family="Helvetica,sans-Serif" font-size="10.00">TMC5130Stepper::RAMPMODE</text>
</a>
</g>
</g>
<!-- Node1&#45;&gt;Node17 -->
<g id="edge19_Node000001_Node000017" class="edge">
<title>Node1&#45;&gt;Node17</title>
<g id="a_edge19_Node000001_Node000017"><a xlink:title=" ">
<path fill="none" stroke="#63b8ff" d="M108.23,-586.74C129.11,-591.18 153.83,-596.45 175.85,-601.14"/>
<polygon fill="#63b8ff" stroke="#63b8ff" points="175.09,-604.55 185.6,-603.21 176.55,-597.71 175.09,-604.55"/>
</a>
</g>
</g>
<!-- Node18 -->
<g id="Node000018" class="node">
<title>Node18</title>
<g id="a_Node000018"><a xlink:href="class_t_m_c5130_stepper.html#acebb43936d46f78195486c79dc2cf75e" target="_top" xlink:title=" ">
<polygon fill="white" stroke="#666666" points="314.38,-586.25 156.62,-586.25 156.62,-567 314.38,-567 314.38,-586.25"/>
<text text-anchor="middle" x="235.5" y="-572.75" font-family="Helvetica,sans-Serif" font-size="10.00">TMC5130Stepper::SLAVECONF</text>
</a>
</g>
</g>
<!-- Node1&#45;&gt;Node18 -->
<g id="edge21_Node000001_Node000018" class="edge">
<title>Node1&#45;&gt;Node18</title>
<g id="a_edge21_Node000001_Node000018"><a xlink:title=" ">
<path fill="none" stroke="#63b8ff" d="M119.57,-576.62C127.79,-576.62 136.38,-576.62 145,-576.62"/>
<polygon fill="#63b8ff" stroke="#63b8ff" points="144.82,-580.13 154.82,-576.63 144.82,-573.13 144.82,-580.13"/>
</a>
</g>
</g>
<!-- Node19 -->
<g id="Node000019" class="node">
<title>Node19</title>
<g id="a_Node000019"><a xlink:href="class_t_m_c5130_stepper.html#af78bc5ec6076b4e7ac8006488b069413" target="_top" xlink:title=" ">
<polygon fill="white" stroke="#666666" points="310.62,-549.25 160.38,-549.25 160.38,-530 310.62,-530 310.62,-549.25"/>
<text text-anchor="middle" x="235.5" y="-535.75" font-family="Helvetica,sans-Serif" font-size="10.00">TMC5130Stepper::SW_MODE</text>
</a>
</g>
</g>
<!-- Node1&#45;&gt;Node19 -->
<g id="edge22_Node000001_Node000019" class="edge">
<title>Node1&#45;&gt;Node19</title>
<g id="a_edge22_Node000001_Node000019"><a xlink:title=" ">
<path fill="none" stroke="#63b8ff" d="M108.23,-566.51C129.11,-562.07 153.83,-556.8 175.85,-552.11"/>
<polygon fill="#63b8ff" stroke="#63b8ff" points="176.55,-555.54 185.6,-550.04 175.09,-548.7 176.55,-555.54"/>
</a>
</g>
</g>
<!-- Node20 -->
<g id="Node000020" class="node">
<title>Node20</title>
<g id="a_Node000020"><a xlink:href="class_t_m_c2130_stepper.html#a5db9c2e01d8c1994a5c58d0bf0b1d9b1" target="_top" xlink:title=" ">
<polygon fill="white" stroke="#666666" points="315.5,-512.25 155.5,-512.25 155.5,-493 315.5,-493 315.5,-512.25"/>
<text text-anchor="middle" x="235.5" y="-498.75" font-family="Helvetica,sans-Serif" font-size="10.00">TMC2130Stepper::TCOOLTHRS</text>
</a>
</g>
</g>
<!-- Node1&#45;&gt;Node20 -->
<g id="edge24_Node000001_Node000020" class="edge">
<title>Node1&#45;&gt;Node20</title>
<g id="a_edge24_Node000001_Node000020"><a xlink:title=" ">
<path fill="none" stroke="#63b8ff" d="M74.49,-566.64C92.31,-554.13 124.79,-532.85 155.5,-520.62 159.84,-518.9 164.38,-517.32 169,-515.87"/>
<polygon fill="#63b8ff" stroke="#63b8ff" points="169.76,-519.29 178.4,-513.16 167.82,-512.57 169.76,-519.29"/>
</a>
</g>
</g>
<!-- Node21 -->
<g id="Node000021" class="node">
<title>Node21</title>
<g id="a_Node000021"><a xlink:href="class_t_m_c2130_stepper.html#a8e7d22e8bc39e89b4a02ad1460e4cf25" target="_top" xlink:title=" ">
<polygon fill="white" stroke="#666666" points="300.5,-475.25 170.5,-475.25 170.5,-456 300.5,-456 300.5,-475.25"/>
<text text-anchor="middle" x="235.5" y="-461.75" font-family="Helvetica,sans-Serif" font-size="10.00">TMC2130Stepper::THIGH</text>
</a>
</g>
</g>
<!-- Node1&#45;&gt;Node21 -->
<g id="edge25_Node000001_Node000021" class="edge">
<title>Node1&#45;&gt;Node21</title>
<g id="a_edge25_Node000001_Node000021"><a xlink:title=" ">
<path fill="none" stroke="#63b8ff" d="M67.83,-566.68C82.08,-547.42 116.26,-505.06 155.5,-483.62 158.04,-482.24 160.68,-480.96 163.39,-479.78"/>
<polygon fill="#63b8ff" stroke="#63b8ff" points="164.6,-483.06 172.7,-476.23 162.11,-476.52 164.6,-483.06"/>
</a>
</g>
</g>
<!-- Node22 -->
<g id="Node000022" class="node">
<title>Node22</title>
<g id="a_Node000022"><a xlink:href="class_t_m_c5130_stepper.html#af8d19dd1bae46451e78573843d52cd36" target="_top" xlink:title=" ">
<polygon fill="white" stroke="#666666" points="295.62,-437.88 175.38,-437.88 175.38,-407.38 295.62,-407.38 295.62,-437.88"/>
<text text-anchor="start" x="183.38" y="-424.38" font-family="Helvetica,sans-Serif" font-size="10.00">TMC5130Stepper::TMC</text>
<text text-anchor="middle" x="235.5" y="-413.12" font-family="Helvetica,sans-Serif" font-size="10.00">_OUTPUT</text>
</a>
</g>
</g>
<!-- Node1&#45;&gt;Node22 -->
<g id="edge26_Node000001_Node000022" class="edge">
<title>Node1&#45;&gt;Node22</title>
<g id="a_edge26_Node000001_Node000022"><a xlink:title=" ">
<path fill="none" stroke="#63b8ff" d="M65.14,-566.8C76.47,-542.59 109.06,-479.63 155.5,-446.62 158.48,-444.51 161.65,-442.57 164.94,-440.81"/>
<polygon fill="#63b8ff" stroke="#63b8ff" points="166.2,-444.08 173.75,-436.65 163.21,-437.75 166.2,-444.08"/>
</a>
</g>
</g>
<!-- Node23 -->
<g id="Node000023" class="node">
<title>Node23</title>
<g id="a_Node000023"><a xlink:href="class_t_m_c_stepper.html#a66812c883dfbb6dedc046a011b2564be" target="_top" xlink:title=" ">
<polygon fill="white" stroke="#666666" points="312.5,-389.25 158.5,-389.25 158.5,-370 312.5,-370 312.5,-389.25"/>
<text text-anchor="middle" x="235.5" y="-375.75" font-family="Helvetica,sans-Serif" font-size="10.00">TMCStepper::TPOWERDOWN</text>
</a>
</g>
</g>
<!-- Node1&#45;&gt;Node23 -->
<g id="edge27_Node000001_Node000023" class="edge">
<title>Node1&#45;&gt;Node23</title>
<g id="a_edge27_Node000001_Node000023"><a xlink:title=" ">
<path fill="none" stroke="#63b8ff" d="M62.98,-566.68C70.35,-536.31 96.82,-444.06 155.5,-398.62 157.26,-397.26 159.1,-396 161,-394.82"/>
<polygon fill="#63b8ff" stroke="#63b8ff" points="162.38,-398.05 169.66,-390.35 159.17,-391.83 162.38,-398.05"/>
</a>
</g>
</g>
<!-- Node24 -->
<g id="Node000024" class="node">
<title>Node24</title>
<g id="a_Node000024"><a xlink:href="class_t_m_c_stepper.html#ac59a9305aafc64a63698a34cac404788" target="_top" xlink:title=" ">
<polygon fill="white" stroke="#666666" points="303.5,-352.25 167.5,-352.25 167.5,-333 303.5,-333 303.5,-352.25"/>
<text text-anchor="middle" x="235.5" y="-338.75" font-family="Helvetica,sans-Serif" font-size="10.00">TMCStepper::TPWMTHRS</text>
</a>
</g>
</g>
<!-- Node1&#45;&gt;Node24 -->
<g id="edge28_Node000001_Node000024" class="edge">
<title>Node1&#45;&gt;Node24</title>
<g id="a_edge28_Node000001_Node000024"><a xlink:title=" ">
<path fill="none" stroke="#63b8ff" d="M61.97,-566.58C66.74,-532.01 87.32,-416.98 155.5,-360.62 156.45,-359.84 157.42,-359.09 158.43,-358.37"/>
<polygon fill="#63b8ff" stroke="#63b8ff" points="159.89,-361.57 166.71,-353.47 156.32,-355.55 159.89,-361.57"/>
</a>
</g>
</g>
<!-- Node25 -->
<g id="Node000025" class="node">
<title>Node25</title>
<g id="a_Node000025"><a xlink:href="class_t_m_c5130_stepper.html#a3da5ddefeaea5e017d8e608e43269e1e" target="_top" xlink:title=" ">
<polygon fill="white" stroke="#666666" points="314,-315.25 157,-315.25 157,-296 314,-296 314,-315.25"/>
<text text-anchor="middle" x="235.5" y="-301.75" font-family="Helvetica,sans-Serif" font-size="10.00">TMC5130Stepper::TZEROWAIT</text>
</a>
</g>
</g>
<!-- Node1&#45;&gt;Node25 -->
<g id="edge29_Node000001_Node000025" class="edge">
<title>Node1&#45;&gt;Node25</title>
<g id="a_edge29_Node000001_Node000025"><a xlink:title=" ">
<path fill="none" stroke="#63b8ff" d="M61.27,-566.53C63.8,-528.32 78.16,-391.22 155.5,-323.62 156.29,-322.94 157.1,-322.27 157.92,-321.63"/>
<polygon fill="#63b8ff" stroke="#63b8ff" points="159.55,-324.75 166.15,-316.46 155.82,-318.82 159.55,-324.75"/>
</a>
</g>
</g>
<!-- Node26 -->
<g id="Node000026" class="node">
<title>Node26</title>
<g id="a_Node000026"><a xlink:href="class_t_m_c5130_stepper.html#aa77f4a440b8e61c4600b0b5190df2aed" target="_top" xlink:title=" ">
<polygon fill="white" stroke="#666666" points="290,-278.25 181,-278.25 181,-259 290,-259 290,-278.25"/>
<text text-anchor="middle" x="235.5" y="-264.75" font-family="Helvetica,sans-Serif" font-size="10.00">TMC5130Stepper::v1</text>
</a>
</g>
</g>
<!-- Node1&#45;&gt;Node26 -->
<g id="edge30_Node000001_Node000026" class="edge">
<title>Node1&#45;&gt;Node26</title>
<g id="a_edge30_Node000001_Node000026"><a xlink:title=" ">
<path fill="none" stroke="#63b8ff" d="M60.73,-566.55C61.21,-525.04 68.82,-365.69 155.5,-286.62 159.81,-282.7 164.79,-279.57 170.11,-277.08"/>
<polygon fill="#63b8ff" stroke="#63b8ff" points="171.18,-280.42 179.28,-273.6 168.69,-273.88 171.18,-280.42"/>
</a>
</g>
</g>
<!-- Node27 -->
<g id="Node000027" class="node">
<title>Node27</title>
<g id="a_Node000027"><a xlink:href="class_t_m_c2130_stepper.html#a4389f7f07c57d2267351b781c6031fb4" target="_top" xlink:title=" ">
<polygon fill="white" stroke="#666666" points="305,-241.25 166,-241.25 166,-222 305,-222 305,-241.25"/>
<text text-anchor="middle" x="235.5" y="-227.75" font-family="Helvetica,sans-Serif" font-size="10.00">TMC2130Stepper::VDCMIN</text>
</a>
</g>
</g>
<!-- Node1&#45;&gt;Node27 -->
<g id="edge31_Node000001_Node000027" class="edge">
<title>Node1&#45;&gt;Node27</title>
<g id="a_edge31_Node000001_Node000027"><a xlink:title=" ">
<path fill="none" stroke="#63b8ff" d="M60.3,-566.54C58.89,-521.89 59.42,-340.29 155.5,-249.62 156.13,-249.03 156.78,-248.45 157.44,-247.89"/>
<polygon fill="#63b8ff" stroke="#63b8ff" points="159.22,-250.91 165.53,-242.4 155.29,-245.12 159.22,-250.91"/>
</a>
</g>
</g>
<!-- Node28 -->
<g id="Node000028" class="node">
<title>Node28</title>
<g id="a_Node000028"><a xlink:href="class_t_m_c5130_stepper.html#aaa76fdd1c6e8e7f6bb886e0b0031a500" target="_top" xlink:title=" ">
<polygon fill="white" stroke="#666666" points="299,-204.25 172,-204.25 172,-185 299,-185 299,-204.25"/>
<text text-anchor="middle" x="235.5" y="-190.75" font-family="Helvetica,sans-Serif" font-size="10.00">TMC5130Stepper::VMAX</text>
</a>
</g>
</g>
<!-- Node1&#45;&gt;Node28 -->
<g id="edge32_Node000001_Node000028" class="edge">
<title>Node1&#45;&gt;Node28</title>
<g id="a_edge32_Node000001_Node000028"><a xlink:title=" ">
<path fill="none" stroke="#63b8ff" d="M61.94,-566.72C68.51,-513.78 101.94,-264.57 155.5,-212.62 157.53,-210.65 159.73,-208.88 162.06,-207.29"/>
<polygon fill="#63b8ff" stroke="#63b8ff" points="163.24,-210.64 170.29,-202.73 159.85,-204.52 163.24,-210.64"/>
</a>
</g>
</g>
<!-- Node29 -->
<g id="Node000029" class="node">
<title>Node29</title>
<g id="a_Node000029"><a xlink:href="class_t_m_c5130_stepper.html#a93bf8f37da496535e8c7313096051de7" target="_top" xlink:title=" ">
<polygon fill="white" stroke="#666666" points="304.25,-167.25 166.75,-167.25 166.75,-148 304.25,-148 304.25,-167.25"/>
<text text-anchor="middle" x="235.5" y="-153.75" font-family="Helvetica,sans-Serif" font-size="10.00">TMC5130Stepper::VSTART</text>
</a>
</g>
</g>
<!-- Node1&#45;&gt;Node29 -->
<g id="edge33_Node000001_Node000029" class="edge">
<title>Node1&#45;&gt;Node29</title>
<g id="a_edge33_Node000001_Node000029"><a xlink:title=" ">
<path fill="none" stroke="#63b8ff" d="M61.68,-566.85C67.16,-511.08 97.1,-233.56 155.5,-175.62 156.12,-175.01 156.75,-174.42 157.4,-173.84"/>
<polygon fill="#63b8ff" stroke="#63b8ff" points="159.2,-176.85 165.36,-168.23 155.17,-171.13 159.2,-176.85"/>
</a>
</g>
</g>
<!-- Node30 -->
<g id="Node000030" class="node">
<title>Node30</title>
<g id="a_Node000030"><a xlink:href="class_t_m_c5130_stepper.html#a7afed936cd9b037d460dc30433d89911" target="_top" xlink:title=" ">
<polygon fill="white" stroke="#666666" points="301.62,-130.25 169.38,-130.25 169.38,-111 301.62,-111 301.62,-130.25"/>
<text text-anchor="middle" x="235.5" y="-116.75" font-family="Helvetica,sans-Serif" font-size="10.00">TMC5130Stepper::VSTOP</text>
</a>
</g>
</g>
<!-- Node1&#45;&gt;Node30 -->
<g id="edge34_Node000001_Node000030" class="edge">
<title>Node1&#45;&gt;Node30</title>
<g id="a_edge34_Node000001_Node000030"><a xlink:title=" ">
<path fill="none" stroke="#63b8ff" d="M61.48,-566.74C66.01,-507.73 92.31,-202.51 155.5,-138.62 156.86,-137.25 158.3,-135.97 159.81,-134.78"/>
<polygon fill="#63b8ff" stroke="#63b8ff" points="161.26,-138 167.85,-129.71 157.53,-132.08 161.26,-138"/>
</a>
</g>
</g>
<!-- Node31 -->
<g id="Node000031" class="node">
<title>Node31</title>
<g id="a_Node000031"><a xlink:href="class_t_m_c5130_stepper.html#a694840324312e15515f3215c83565645" target="_top" xlink:title=" ">
<polygon fill="white" stroke="#666666" points="315.5,-93.25 155.5,-93.25 155.5,-74 315.5,-74 315.5,-93.25"/>
<text text-anchor="middle" x="235.5" y="-79.75" font-family="Helvetica,sans-Serif" font-size="10.00">TMC5130Stepper::X_COMPARE</text>
</a>
</g>
</g>
<!-- Node1&#45;&gt;Node31 -->
<g id="edge35_Node000001_Node000031" class="edge">
<title>Node1&#45;&gt;Node31</title>
<g id="a_edge35_Node000001_Node000031"><a xlink:title=" ">
<path fill="none" stroke="#63b8ff" d="M61.3,-566.73C64.93,-504.84 87.47,-171.53 155.5,-101.62 155.88,-101.23 156.27,-100.85 156.66,-100.48"/>
<polygon fill="#63b8ff" stroke="#63b8ff" points="158.64,-103.37 164.53,-94.56 154.43,-97.77 158.64,-103.37"/>
</a>
</g>
</g>
<!-- Node32 -->
<g id="Node000032" class="node">
<title>Node32</title>
<g id="a_Node000032"><a xlink:href="class_t_m_c5130_stepper.html#a7ddd27bea8034e6aec78ab2cf83cedd4" target="_top" xlink:title=" ">
<polygon fill="white" stroke="#666666" points="308,-56.25 163,-56.25 163,-37 308,-37 308,-56.25"/>
<text text-anchor="middle" x="235.5" y="-42.75" font-family="Helvetica,sans-Serif" font-size="10.00">TMC5130Stepper::XACTUAL</text>
</a>
</g>
</g>
<!-- Node1&#45;&gt;Node32 -->
<g id="edge36_Node000001_Node000032" class="edge">
<title>Node1&#45;&gt;Node32</title>
<g id="a_edge36_Node000001_Node000032"><a xlink:title=" ">
<path fill="none" stroke="#63b8ff" d="M61.14,-566.81C63.91,-502.41 82.58,-140.61 155.5,-64.62 155.88,-64.23 156.26,-63.85 156.65,-63.47"/>
<polygon fill="#63b8ff" stroke="#63b8ff" points="158.64,-66.36 164.49,-57.52 154.41,-60.78 158.64,-66.36"/>
</a>
</g>
</g>
<!-- Node33 -->
<g id="Node000033" class="node">
<title>Node33</title>
<g id="a_Node000033"><a xlink:href="class_t_m_c2130_stepper.html#af486cd4712be021c735fc3bcb8eee9f5" target="_top" xlink:title=" ">
<polygon fill="white" stroke="#666666" points="307.25,-19.25 163.75,-19.25 163.75,0 307.25,0 307.25,-19.25"/>
<text text-anchor="middle" x="235.5" y="-5.75" font-family="Helvetica,sans-Serif" font-size="10.00">TMC2130Stepper::XDIRECT</text>
</a>
</g>
</g>
<!-- Node1&#45;&gt;Node33 -->
<g id="edge38_Node000001_Node000033" class="edge">
<title>Node1&#45;&gt;Node33</title>
<g id="a_edge38_Node000001_Node000033"><a xlink:title=" ">
<path fill="none" stroke="#63b8ff" d="M61.02,-566.55C63.02,-498.77 77.8,-109.57 155.5,-27.62 155.88,-27.23 156.26,-26.84 156.65,-26.46"/>
<polygon fill="#63b8ff" stroke="#63b8ff" points="158.64,-29.34 164.45,-20.48 154.38,-23.79 158.64,-29.34"/>
</a>
</g>
</g>
<!-- Node5 -->
<g id="Node000005" class="node">
<title>Node5</title>
<g id="a_Node000005"><a xlink:href="class_t_m_c2130_stepper.html#aed0175bff6e80ebc14e0d2606283cbe0" target="_top" xlink:title=" ">
<polygon fill="white" stroke="#666666" points="468.75,-678.25 351.5,-678.25 351.5,-659 468.75,-659 468.75,-678.25"/>
<text text-anchor="middle" x="410.12" y="-664.75" font-family="Helvetica,sans-Serif" font-size="10.00">TMC2130Stepper::read</text>
</a>
</g>
</g>
<!-- Node4&#45;&gt;Node5 -->
<g id="edge4_Node000004_Node000005" class="edge">
<title>Node4&#45;&gt;Node5</title>
<g id="a_edge4_Node000004_Node000005"><a xlink:title=" ">
<path fill="none" stroke="#63b8ff" d="M304.74,-1059.65C308.65,-1057.43 312.29,-1054.78 315.5,-1051.62 368.19,-999.76 398.62,-762.69 406.84,-689.93"/>
<polygon fill="#63b8ff" stroke="#63b8ff" points="410.3,-690.5 407.92,-680.18 403.34,-689.73 410.3,-690.5"/>
</a>
</g>
</g>
<!-- Node8&#45;&gt;Node5 -->
<g id="edge8_Node000008_Node000005" class="edge">
<title>Node8&#45;&gt;Node5</title>
<g id="a_edge8_Node000008_Node000005"><a xlink:title=" ">
<path fill="none" stroke="#63b8ff" d="M304.04,-948.51C308.17,-946.33 312.05,-943.73 315.5,-940.62 391.04,-872.8 405.65,-741.19 408.46,-689.86"/>
<polygon fill="#63b8ff" stroke="#63b8ff" points="411.94,-690.28 408.88,-680.13 404.95,-689.97 411.94,-690.28"/>
</a>
</g>
</g>
<!-- Node13&#45;&gt;Node5 -->
<g id="edge14_Node000013_Node000005" class="edge">
<title>Node13&#45;&gt;Node5</title>
<g id="a_edge14_Node000013_Node000005"><a xlink:title=" ">
<path fill="none" stroke="#63b8ff" d="M294.5,-751.61C301.74,-749.44 308.91,-746.8 315.5,-743.62 345.48,-729.15 374.52,-703.51 392.11,-686.29"/>
<polygon fill="#63b8ff" stroke="#63b8ff" points="394.13,-689.23 398.71,-679.68 389.17,-684.29 394.13,-689.23"/>
</a>
</g>
</g>
<!-- Node14&#45;&gt;Node5 -->
<g id="edge16_Node000014_Node000005" class="edge">
<title>Node14&#45;&gt;Node5</title>
<g id="a_edge16_Node000014_Node000005"><a xlink:title=" ">
<path fill="none" stroke="#63b8ff" d="M286.56,-714.51C296.23,-712.19 306.24,-709.54 315.5,-706.62 336.29,-700.09 358.94,-690.95 376.76,-683.27"/>
<polygon fill="#63b8ff" stroke="#63b8ff" points="378.03,-686.54 385.79,-679.32 375.22,-680.12 378.03,-686.54"/>
</a>
</g>
</g>
<!-- Node17&#45;&gt;Node5 -->
<g id="edge20_Node000017_Node000005" class="edge">
<title>Node17&#45;&gt;Node5</title>
<g id="a_edge20_Node000017_Node000005"><a xlink:title=" ">
<path fill="none" stroke="#63b8ff" d="M286.11,-623.71C295.92,-626.05 306.09,-628.71 315.5,-631.62 335.96,-637.96 358.29,-646.71 376.01,-654.11"/>
<polygon fill="#63b8ff" stroke="#63b8ff" points="374.42,-657.24 385,-657.92 377.15,-650.79 374.42,-657.24"/>
</a>
</g>
</g>
<!-- Node19&#45;&gt;Node5 -->
<g id="edge23_Node000019_Node000005" class="edge">
<title>Node19&#45;&gt;Node5</title>
<g id="a_edge23_Node000019_Node000005"><a xlink:title=" ">
<path fill="none" stroke="#63b8ff" d="M298.83,-549.74C304.67,-551.88 310.33,-554.48 315.5,-557.62 353.01,-580.47 382.83,-623.63 398.05,-648.87"/>
<polygon fill="#63b8ff" stroke="#63b8ff" points="395,-650.6 403.06,-657.47 401.05,-647.07 395,-650.6"/>
</a>
</g>
</g>
<!-- Node32&#45;&gt;Node5 -->
<g id="edge37_Node000032_Node000005" class="edge">
<title>Node32&#45;&gt;Node5</title>
<g id="a_edge37_Node000032_Node000005"><a xlink:title=" ">
<path fill="none" stroke="#63b8ff" d="M305.77,-56.72C309.33,-58.93 312.62,-61.54 315.5,-64.62 396.78,-151.82 407.51,-551.19 408.91,-647.62"/>
<polygon fill="#63b8ff" stroke="#63b8ff" points="405.41,-647.47 409.04,-657.43 412.41,-647.38 405.41,-647.47"/>
</a>
</g>
</g>
<!-- Node33&#45;&gt;Node5 -->
<g id="edge39_Node000033_Node000005" class="edge">
<title>Node33&#45;&gt;Node5</title>
<g id="a_edge39_Node000033_Node000005"><a xlink:title=" ">
<path fill="none" stroke="#63b8ff" d="M305.8,-19.69C309.36,-21.91 312.64,-24.53 315.5,-27.62 401.6,-120.81 408.66,-547.6 409.12,-647.61"/>
<polygon fill="#63b8ff" stroke="#63b8ff" points="405.62,-647.32 409.15,-657.31 412.62,-647.3 405.62,-647.32"/>
</a>
</g>
</g>
</g>
</svg>
