<?xml version="1.0" encoding="UTF-8" standalone="no"?>
<!DOCTYPE svg PUBLIC "-//W3C//DTD SVG 1.1//EN"
 "http://www.w3.org/Graphics/SVG/1.1/DTD/svg11.dtd">
<!-- Generated by graphviz version 12.2.1 (20241206.2353)
 -->
<!-- Title: TMC2240Stepper::rms_current Pages: 1 -->
<!--zoomable 143 -->

<svg id="main" version="1.1" xmlns="http://www.w3.org/2000/svg" xmlns:xlink="http://www.w3.org/1999/xlink" xml:space="preserve" onload="init(evt)">

<style type="text/css"><![CDATA[
.node, .edge {opacity: 0.7;}
.node.selected, .edge.selected {opacity: 1;}
.edge:hover path { stroke: red; }
.edge:hover polygon { stroke: red; fill: red; }
]]></style>

<defs>
  <circle id="rim" cx="0" cy="0" r="7"/>
  <circle id="rim2" cx="0" cy="0" r="3.5"/>
  <g id="zoomPlus">
    <use xlink:href="#rim" fill="#404040"><set attributeName="fill" to="#808080" begin="zoomplus.mouseover" end="zoomplus.mouseout"/></use>
    <path d="M-4,0h8M0,-4v8" fill="none" stroke="white" stroke-width="1.5" pointer-events="none"/>
  </g>
  <g id="zoomMin">
    <use xlink:href="#rim" fill="#404040"><set attributeName="fill" to="#808080" begin="zoomminus.mouseover" end="zoomminus.mouseout"/></use>
    <path d="M-4,0h8" fill="none" stroke="white" stroke-width="1.5" pointer-events="none"/>
  </g>
  <g id="arrowUp" transform="translate(30 24)">
    <use xlink:href="#rim"/>
    <path pointer-events="none" fill="none" stroke="white" stroke-width="1.5" d="M0,-3.0v7 M-2.5,-0.5L0,-3.0L2.5,-0.5"/>
  </g>
  <g id="arrowRight" transform="rotate(90) translate(36 -43)">
    <use xlink:href="#rim"/>
    <path pointer-events="none" fill="none" stroke="white" stroke-width="1.5" d="M0,-3.0v7 M-2.5,-0.5L0,-3.0L2.5,-0.5"/>
  </g>
  <g id="arrowDown" transform="rotate(180) translate(-30 -48)">
    <use xlink:href="#rim"/>
    <path pointer-events="none" fill="none" stroke="white" stroke-width="1.5" d="M0,-3.0v7 M-2.5,-0.5L0,-3.0L2.5,-0.5"/>
  </g>
  <g id="arrowLeft" transform="rotate(270) translate(-36 17)">
    <use xlink:href="#rim"/>
    <path pointer-events="none" fill="none" stroke="white" stroke-width="1.5" d="M0,-3.0v7 M-2.5,-0.5L0,-3.0L2.5,-0.5"/>
  </g>
  <g id="resetDef">
    <use xlink:href="#rim2" fill="#404040"><set attributeName="fill" to="#808080" begin="reset.mouseover" end="reset.mouseout"/></use>
  </g>
</defs>
<script type="application/ecmascript">
var viewWidth = 614;
var viewHeight = 143;
var sectionId = 'dynsection-252';
</script>
<script type="application/ecmascript" xlink:href="svg.min.js"/>
<svg id="graph" class="graph">
<g id="viewport">
<title>TMC2240Stepper::rms_current</title>
<!-- Node1 -->
<g id="Node000001" class="node">
<title>Node1</title>
<g id="a_Node000001"><a xlink:title=" ">
<polygon fill="#999999" stroke="#666666" points="115,-54.88 0,-54.88 0,-24.38 115,-24.38 115,-54.88"/>
<text text-anchor="start" x="8" y="-41.38" font-family="Helvetica,sans-Serif" font-size="10.00">TMC2240Stepper::rms</text>
<text text-anchor="middle" x="57.5" y="-30.12" font-family="Helvetica,sans-Serif" font-size="10.00">_current</text>
</a>
</g>
</g>
<!-- Node2 -->
<g id="Node000002" class="node">
<title>Node2</title>
<g id="a_Node000002"><a xlink:href="class_t_m_c2240_stepper.html#a3e82f48545681b406fd103bd84f29e54" target="_top" xlink:title=" ">
<polygon fill="white" stroke="#666666" points="266,-54.88 151,-54.88 151,-24.38 266,-24.38 266,-54.88"/>
<text text-anchor="start" x="159" y="-41.38" font-family="Helvetica,sans-Serif" font-size="10.00">TMC2240Stepper::rms</text>
<text text-anchor="middle" x="208.5" y="-30.12" font-family="Helvetica,sans-Serif" font-size="10.00">_current</text>
</a>
</g>
</g>
<!-- Node1&#45;&gt;Node2 -->
<g id="edge1_Node000001_Node000002" class="edge">
<title>Node1&#45;&gt;Node2</title>
<g id="a_edge1_Node000001_Node000002"><a xlink:title=" ">
<path fill="none" stroke="#63b8ff" d="M115.26,-39.62C123.19,-39.62 131.42,-39.62 139.53,-39.62"/>
<polygon fill="#63b8ff" stroke="#63b8ff" points="139.39,-43.13 149.39,-39.63 139.39,-36.13 139.39,-43.13"/>
</a>
</g>
</g>
<!-- Node3 -->
<g id="Node000003" class="node">
<title>Node3</title>
<g id="a_Node000003"><a xlink:href="class_t_m_c2240_stepper.html#ab4e03600d1f0d733b042b7a2b57fa65f" target="_top" xlink:title=" ">
<polygon fill="white" stroke="#666666" points="432.75,-80.25 302,-80.25 302,-61 432.75,-61 432.75,-80.25"/>
<text text-anchor="middle" x="367.38" y="-66.75" font-family="Helvetica,sans-Serif" font-size="10.00">TMC2240Stepper::cs2rms</text>
</a>
</g>
</g>
<!-- Node2&#45;&gt;Node3 -->
<g id="edge2_Node000002_Node000003" class="edge">
<title>Node2&#45;&gt;Node3</title>
<g id="a_edge2_Node000002_Node000003"><a xlink:title=" ">
<path fill="none" stroke="#63b8ff" d="M266.14,-50.82C278.43,-53.25 291.51,-55.83 304.01,-58.3"/>
<polygon fill="#63b8ff" stroke="#63b8ff" points="303.32,-61.73 313.81,-60.24 304.68,-54.87 303.32,-61.73"/>
</a>
</g>
</g>
<!-- Node6 -->
<g id="Node000006" class="node">
<title>Node6</title>
<g id="a_Node000006"><a xlink:href="class_t_m_c2240_stepper.html#ad1639c4db3c0ddfcf16b96b77be71219" target="_top" xlink:title=" ">
<polygon fill="white" stroke="#666666" points="424.5,-31.25 310.25,-31.25 310.25,-12 424.5,-12 424.5,-31.25"/>
<text text-anchor="middle" x="367.38" y="-17.75" font-family="Helvetica,sans-Serif" font-size="10.00">TMC2240Stepper::irun</text>
</a>
</g>
</g>
<!-- Node2&#45;&gt;Node6 -->
<g id="edge5_Node000002_Node000006" class="edge">
<title>Node2&#45;&gt;Node6</title>
<g id="a_edge5_Node000002_Node000006"><a xlink:title=" ">
<path fill="none" stroke="#63b8ff" d="M266.14,-33.13C276.69,-31.92 287.81,-30.64 298.66,-29.4"/>
<polygon fill="#63b8ff" stroke="#63b8ff" points="298.78,-32.9 308.32,-28.29 297.99,-25.95 298.78,-32.9"/>
</a>
</g>
</g>
<!-- Node4 -->
<g id="Node000004" class="node">
<title>Node4</title>
<g id="a_Node000004"><a xlink:href="class_t_m_c2240_stepper.html#a8d9765a61d3bf90aa88ff933a29ad160" target="_top" xlink:title=" ">
<polygon fill="white" stroke="#666666" points="595.75,-134.88 479.25,-134.88 479.25,-104.38 595.75,-104.38 595.75,-134.88"/>
<text text-anchor="start" x="487.25" y="-121.38" font-family="Helvetica,sans-Serif" font-size="10.00">TMC2240Stepper::calc</text>
<text text-anchor="middle" x="537.5" y="-110.12" font-family="Helvetica,sans-Serif" font-size="10.00">_IFS_current_RMS</text>
</a>
</g>
</g>
<!-- Node3&#45;&gt;Node4 -->
<g id="edge3_Node000003_Node000004" class="edge">
<title>Node3&#45;&gt;Node4</title>
<g id="a_edge3_Node000003_Node000004"><a xlink:title=" ">
<path fill="none" stroke="#63b8ff" d="M402.8,-80.66C422.62,-86.44 448.18,-93.88 471.63,-100.72"/>
<polygon fill="#63b8ff" stroke="#63b8ff" points="470.55,-104.05 481.13,-103.49 472.51,-97.33 470.55,-104.05"/>
</a>
</g>
</g>
<!-- Node5 -->
<g id="Node000005" class="node">
<title>Node5</title>
<g id="a_Node000005"><a xlink:href="class_t_m_c2240_stepper.html#a0950aa99ecae81e9599a77563b1d2d97" target="_top" xlink:title=" ">
<polygon fill="white" stroke="#666666" points="606.25,-85.88 468.75,-85.88 468.75,-55.38 606.25,-55.38 606.25,-85.88"/>
<text text-anchor="start" x="476.75" y="-72.38" font-family="Helvetica,sans-Serif" font-size="10.00">TMC2240Stepper::GLOBAL</text>
<text text-anchor="middle" x="537.5" y="-61.12" font-family="Helvetica,sans-Serif" font-size="10.00">_SCALER</text>
</a>
</g>
</g>
<!-- Node3&#45;&gt;Node5 -->
<g id="edge4_Node000003_Node000005" class="edge">
<title>Node3&#45;&gt;Node5</title>
<g id="a_edge4_Node000003_Node000005"><a xlink:title=" ">
<path fill="none" stroke="#63b8ff" d="M432.9,-70.62C440.83,-70.62 449,-70.62 457.12,-70.62"/>
<polygon fill="#63b8ff" stroke="#63b8ff" points="457.01,-74.13 467.01,-70.63 457.01,-67.13 457.01,-74.13"/>
</a>
</g>
</g>
<!-- Node7 -->
<g id="Node000007" class="node">
<title>Node7</title>
<g id="a_Node000007"><a xlink:href="class_t_m_c2240_stepper.html#af64920dda2f277bed484e12d54a8d0d3" target="_top" xlink:title=" ">
<polygon fill="white" stroke="#666666" points="594.62,-19.25 480.38,-19.25 480.38,0 594.62,0 594.62,-19.25"/>
<text text-anchor="middle" x="537.5" y="-5.75" font-family="Helvetica,sans-Serif" font-size="10.00">TMC2240Stepper::irun</text>
</a>
</g>
</g>
<!-- Node6&#45;&gt;Node7 -->
<g id="edge6_Node000006_Node000007" class="edge">
<title>Node6&#45;&gt;Node7</title>
<g id="a_edge6_Node000006_Node000007"><a xlink:title=" ">
<path fill="none" stroke="#63b8ff" d="M424.83,-17.6C438.83,-16.6 453.98,-15.52 468.47,-14.48"/>
<polygon fill="#63b8ff" stroke="#63b8ff" points="468.68,-17.97 478.4,-13.77 468.18,-10.99 468.68,-17.97"/>
</a>
</g>
</g>
<!-- Node7&#45;&gt;Node7 -->
<g id="edge7_Node000007_Node000007" class="edge">
<title>Node7&#45;&gt;Node7</title>
<g id="a_edge7_Node000007_Node000007"><a xlink:title=" ">
<path fill="none" stroke="#63b8ff" d="M510.87,-19.54C498.72,-28.15 507.6,-37.25 537.5,-37.25 554.32,-37.25 564.49,-34.37 568.01,-30.32"/>
<polygon fill="#63b8ff" stroke="#63b8ff" points="571.32,-29.19 564.65,-20.96 564.73,-31.56 571.32,-29.19"/>
</a>
</g>
</g>
</g>
</svg>

<g id="navigator" transform="translate(0 0)" fill="#404254">
  <rect fill="#f2f5e9" fill-opacity="0.5" stroke="#606060" stroke-width=".5" x="0" y="0" width="60" height="60"/>
  <use id="zoomplus" xlink:href="#zoomPlus" x="17" y="9" onmousedown="handleZoom(evt,'in')"/>
  <use id="zoomminus" xlink:href="#zoomMin" x="42" y="9" onmousedown="handleZoom(evt,'out')"/>
  <use id="reset" xlink:href="#resetDef" x="30" y="36" onmousedown="handleReset()"/>
   <use id="arrowup" xlink:href="#arrowUp" x="0" y="0" onmousedown="handlePan(0,-1)"/>
  <use id="arrowright" xlink:href="#arrowRight" x="0" y="0" onmousedown="handlePan(1,0)"/>
  <use id="arrowdown" xlink:href="#arrowDown" x="0" y="0" onmousedown="handlePan(0,1)"/>
  <use id="arrowleft" xlink:href="#arrowLeft" x="0" y="0" onmousedown="handlePan(-1,0)"/>
</g>
<svg viewBox="0 0 15 15" width="100%" height="30px" preserveAspectRatio="xMaxYMin meet">
 <g id="arrow_out" transform="scale(0.3 0.3)">
  <a xlink:href="class_t_m_c2240_stepper_a54d1fadff69efefc479037e61a0052ee_cgraph_org.svg" target="_base">
   <rect id="button" ry="5" rx="5" y="6" x="6" height="38" width="38"
        fill="#f2f5e9" fill-opacity="0.5" stroke="#606060" stroke-width="1.0"/>
   <path id="arrow"
     d="M 11.500037,31.436501 C 11.940474,20.09759 22.043105,11.32322 32.158766,21.979434 L 37.068811,17.246167 C 37.068811,17.246167 37.088388,32 37.088388,32 L 22.160133,31.978069 C 22.160133,31.978069 26.997745,27.140456 26.997745,27.140456 C 18.528582,18.264221 13.291696,25.230495 11.500037,31.436501 z"
     style="fill:#404040;"/>
  </a>
 </g>
</svg>

<style type='text/css'>
<![CDATA[
[data-mouse-over-selected='false'] { opacity: 0.7; }
[data-mouse-over-selected='true']  { opacity: 1.0; }
]]>
</style>
<script type="application/ecmascript"><![CDATA[
document.addEventListener('DOMContentLoaded', (event) => {
  highlightEdges();
  highlightAdjacentNodes();
});
]]></script>
</svg>
