<?xml version="1.0" encoding="UTF-8" standalone="no"?>
<!DOCTYPE svg PUBLIC "-//W3C//DTD SVG 1.1//EN"
 "http://www.w3.org/Graphics/SVG/1.1/DTD/svg11.dtd">
<!-- Generated by graphviz version 12.2.1 (20241206.2353)
 -->
<!-- Title: TMC5160Stepper::enc_n_dco Pages: 1 -->
<svg width="288pt" height="51pt"
 viewBox="0.00 0.00 288.25 50.88" xmlns="http://www.w3.org/2000/svg" xmlns:xlink="http://www.w3.org/1999/xlink">
<g id="graph0" class="graph" transform="scale(1 1) rotate(0) translate(4 46.88)">
<title>TMC5160Stepper::enc_n_dco</title>
<!-- Node1 -->
<g id="Node000001" class="node">
<title>Node1</title>
<g id="a_Node000001"><a xlink:title=" ">
<polygon fill="#999999" stroke="#666666" points="114.25,-30.5 0,-30.5 0,0 114.25,0 114.25,-30.5"/>
<text text-anchor="start" x="8" y="-17" font-family="Helvetica,sans-Serif" font-size="10.00">TMC5160Stepper::enc</text>
<text text-anchor="middle" x="57.12" y="-5.75" font-family="Helvetica,sans-Serif" font-size="10.00">_n_dco</text>
</a>
</g>
</g>
<!-- Node2 -->
<g id="Node000002" class="node">
<title>Node2</title>
<g id="a_Node000002"><a xlink:href="class_t_m_c5130_stepper.html#a5b3fbb33c8d97d946b880e6c50dd0f73" target="_top" xlink:title=" ">
<polygon fill="white" stroke="#666666" points="280.25,-24.88 150.25,-24.88 150.25,-5.63 280.25,-5.63 280.25,-24.88"/>
<text text-anchor="middle" x="215.25" y="-11.38" font-family="Helvetica,sans-Serif" font-size="10.00">TMC5130Stepper::version</text>
</a>
</g>
</g>
<!-- Node1&#45;&gt;Node2 -->
<g id="edge1_Node000001_Node000002" class="edge">
<title>Node1&#45;&gt;Node2</title>
<g id="a_edge1_Node000001_Node000002"><a xlink:title=" ">
<path fill="none" stroke="#63b8ff" d="M114.49,-15.25C122.33,-15.25 130.48,-15.25 138.6,-15.25"/>
<polygon fill="#63b8ff" stroke="#63b8ff" points="138.5,-18.75 148.5,-15.25 138.5,-11.75 138.5,-18.75"/>
</a>
</g>
</g>
<!-- Node2&#45;&gt;Node2 -->
<g id="edge2_Node000002_Node000002" class="edge">
<title>Node2&#45;&gt;Node2</title>
<g id="a_edge2_Node000002_Node000002"><a xlink:title=" ">
<path fill="none" stroke="#63b8ff" d="M190.49,-25.16C179.2,-33.77 187.45,-42.88 215.25,-42.88 230.88,-42.88 240.34,-39.99 243.6,-35.94"/>
<polygon fill="#63b8ff" stroke="#63b8ff" points="246.97,-34.98 240.48,-26.6 240.33,-37.19 246.97,-34.98"/>
</a>
</g>
</g>
</g>
</svg>
