<?xml version="1.0" encoding="UTF-8" standalone="no"?>
<!DOCTYPE svg PUBLIC "-//W3C//DTD SVG 1.1//EN"
 "http://www.w3.org/Graphics/SVG/1.1/DTD/svg11.dtd">
<!-- Generated by graphviz version 12.2.1 (20241206.2353)
 -->
<!-- Title: TMC2208Stepper::write Pages: 1 -->
<!--zoomable 421 -->

<svg id="main" version="1.1" xmlns="http://www.w3.org/2000/svg" xmlns:xlink="http://www.w3.org/1999/xlink" xml:space="preserve" onload="init(evt)">

<style type="text/css"><![CDATA[
.node, .edge {opacity: 0.7;}
.node.selected, .edge.selected {opacity: 1;}
.edge:hover path { stroke: red; }
.edge:hover polygon { stroke: red; fill: red; }
]]></style>

<defs>
  <circle id="rim" cx="0" cy="0" r="7"/>
  <circle id="rim2" cx="0" cy="0" r="3.5"/>
  <g id="zoomPlus">
    <use xlink:href="#rim" fill="#404040"><set attributeName="fill" to="#808080" begin="zoomplus.mouseover" end="zoomplus.mouseout"/></use>
    <path d="M-4,0h8M0,-4v8" fill="none" stroke="white" stroke-width="1.5" pointer-events="none"/>
  </g>
  <g id="zoomMin">
    <use xlink:href="#rim" fill="#404040"><set attributeName="fill" to="#808080" begin="zoomminus.mouseover" end="zoomminus.mouseout"/></use>
    <path d="M-4,0h8" fill="none" stroke="white" stroke-width="1.5" pointer-events="none"/>
  </g>
  <g id="arrowUp" transform="translate(30 24)">
    <use xlink:href="#rim"/>
    <path pointer-events="none" fill="none" stroke="white" stroke-width="1.5" d="M0,-3.0v7 M-2.5,-0.5L0,-3.0L2.5,-0.5"/>
  </g>
  <g id="arrowRight" transform="rotate(90) translate(36 -43)">
    <use xlink:href="#rim"/>
    <path pointer-events="none" fill="none" stroke="white" stroke-width="1.5" d="M0,-3.0v7 M-2.5,-0.5L0,-3.0L2.5,-0.5"/>
  </g>
  <g id="arrowDown" transform="rotate(180) translate(-30 -48)">
    <use xlink:href="#rim"/>
    <path pointer-events="none" fill="none" stroke="white" stroke-width="1.5" d="M0,-3.0v7 M-2.5,-0.5L0,-3.0L2.5,-0.5"/>
  </g>
  <g id="arrowLeft" transform="rotate(270) translate(-36 17)">
    <use xlink:href="#rim"/>
    <path pointer-events="none" fill="none" stroke="white" stroke-width="1.5" d="M0,-3.0v7 M-2.5,-0.5L0,-3.0L2.5,-0.5"/>
  </g>
  <g id="resetDef">
    <use xlink:href="#rim2" fill="#404040"><set attributeName="fill" to="#808080" begin="reset.mouseover" end="reset.mouseout"/></use>
  </g>
</defs>
<script type="application/ecmascript">
var viewWidth = 519;
var viewHeight = 421;
var sectionId = 'dynsection-193';
</script>
<script type="application/ecmascript" xlink:href="svg.min.js"/>
<svg id="graph" class="graph">
<g id="viewport">
<title>TMC2208Stepper::write</title>
<!-- Node1 -->
<g id="Node000001" class="node">
<title>Node1</title>
<g id="a_Node000001"><a xlink:title=" ">
<polygon fill="#999999" stroke="#666666" points="510.75,-209.88 391.25,-209.88 391.25,-190.62 510.75,-190.62 510.75,-209.88"/>
<text text-anchor="middle" x="451" y="-196.38" font-family="Helvetica,sans-Serif" font-size="10.00">TMC2208Stepper::write</text>
</a>
</g>
</g>
<!-- Node2 -->
<g id="Node000002" class="node">
<title>Node2</title>
<g id="a_Node000002"><a xlink:href="class_t_m_c2208_stepper.html#ac7c979e2083f3a2b35bcaa0f4fd45cae" target="_top" xlink:title=" ">
<polygon fill="white" stroke="#666666" points="343.25,-400.88 187,-400.88 187,-381.62 343.25,-381.62 343.25,-400.88"/>
<text text-anchor="middle" x="265.12" y="-387.38" font-family="Helvetica,sans-Serif" font-size="10.00">TMC2208Stepper::CHOPCONF</text>
</a>
</g>
</g>
<!-- Node1&#45;&gt;Node2 -->
<g id="edge1_Node000001_Node000002" class="edge">
<title>Node1&#45;&gt;Node2</title>
<g id="a_edge1_Node000001_Node000002"><a xlink:title=" ">
<path fill="none" stroke="#63b8ff" d="M443.96,-221.3C432.63,-256.92 404.76,-328.91 355.25,-367.25 347.39,-373.33 338.12,-377.88 328.57,-381.27"/>
<polygon fill="#63b8ff" stroke="#63b8ff" points="447.29,-222.37 446.84,-211.79 440.59,-220.34 447.29,-222.37"/>
</a>
</g>
</g>
<!-- Node4 -->
<g id="Node000004" class="node">
<title>Node4</title>
<g id="a_Node000004"><a xlink:href="class_t_m_c2209_stepper.html#add1136accc0b089a157c95fdf8e1e685" target="_top" xlink:title=" ">
<polygon fill="white" stroke="#666666" points="342.5,-357.88 187.75,-357.88 187.75,-338.62 342.5,-338.62 342.5,-357.88"/>
<text text-anchor="middle" x="265.12" y="-344.38" font-family="Helvetica,sans-Serif" font-size="10.00">TMC2209Stepper::COOLCONF</text>
</a>
</g>
</g>
<!-- Node1&#45;&gt;Node4 -->
<g id="edge3_Node000001_Node000004" class="edge">
<title>Node1&#45;&gt;Node4</title>
<g id="a_edge3_Node000001_Node000004"><a xlink:title=" ">
<path fill="none" stroke="#63b8ff" d="M441.12,-220.6C427.25,-249.81 397.59,-303.1 355.25,-330.25 350.33,-333.4 344.98,-336.02 339.41,-338.19"/>
<polygon fill="#63b8ff" stroke="#63b8ff" points="444.2,-222.28 445.17,-211.73 437.83,-219.37 444.2,-222.28"/>
</a>
</g>
</g>
<!-- Node6 -->
<g id="Node000006" class="node">
<title>Node6</title>
<g id="a_Node000006"><a xlink:href="class_t_m_c2208_stepper.html#a97f0d743b9f5cf956637deb2e06d0145" target="_top" xlink:title=" ">
<polygon fill="white" stroke="#666666" points="355.25,-320.88 175,-320.88 175,-301.62 355.25,-301.62 355.25,-320.88"/>
<text text-anchor="middle" x="265.12" y="-307.38" font-family="Helvetica,sans-Serif" font-size="10.00">TMC2208Stepper::FACTORY_CONF</text>
</a>
</g>
</g>
<!-- Node1&#45;&gt;Node6 -->
<g id="edge5_Node000001_Node000006" class="edge">
<title>Node1&#45;&gt;Node6</title>
<g id="a_edge5_Node000001_Node000006"><a xlink:title=" ">
<path fill="none" stroke="#63b8ff" d="M436.08,-219.43C419.39,-240.94 389.35,-275.16 355.25,-293.25 349.25,-296.43 342.76,-299.05 336.1,-301.21"/>
<polygon fill="#63b8ff" stroke="#63b8ff" points="438.84,-221.59 442.06,-211.49 433.25,-217.38 438.84,-221.59"/>
</a>
</g>
</g>
<!-- Node8 -->
<g id="Node000008" class="node">
<title>Node8</title>
<g id="a_Node000008"><a xlink:href="class_t_m_c2208_stepper.html#ad920d81bde73173f5974a62a85b719e6" target="_top" xlink:title=" ">
<polygon fill="white" stroke="#666666" points="330.5,-283.88 199.75,-283.88 199.75,-264.62 330.5,-264.62 330.5,-283.88"/>
<text text-anchor="middle" x="265.12" y="-270.38" font-family="Helvetica,sans-Serif" font-size="10.00">TMC2208Stepper::fclktrim</text>
</a>
</g>
</g>
<!-- Node1&#45;&gt;Node8 -->
<g id="edge7_Node000001_Node000008" class="edge">
<title>Node1&#45;&gt;Node8</title>
<g id="a_edge7_Node000001_Node000008"><a xlink:title=" ">
<path fill="none" stroke="#63b8ff" d="M426.97,-216.85C408.44,-229.45 381.29,-246.25 355.25,-256.25 347.14,-259.36 338.41,-261.97 329.69,-264.14"/>
<polygon fill="#63b8ff" stroke="#63b8ff" points="428.85,-219.8 435.07,-211.22 424.86,-214.05 428.85,-219.8"/>
</a>
</g>
</g>
<!-- Node9 -->
<g id="Node000009" class="node">
<title>Node9</title>
<g id="a_Node000009"><a xlink:href="class_t_m_c2208_stepper.html#a20d275e1dba5fe4ab75fc405b2f46281" target="_top" xlink:title=" ">
<polygon fill="white" stroke="#666666" points="332.38,-246.88 197.88,-246.88 197.88,-227.62 332.38,-227.62 332.38,-246.88"/>
<text text-anchor="middle" x="265.12" y="-233.38" font-family="Helvetica,sans-Serif" font-size="10.00">TMC2208Stepper::GCONF</text>
</a>
</g>
</g>
<!-- Node1&#45;&gt;Node9 -->
<g id="edge8_Node000001_Node000009" class="edge">
<title>Node1&#45;&gt;Node9</title>
<g id="a_edge8_Node000001_Node000009"><a xlink:title=" ">
<path fill="none" stroke="#63b8ff" d="M388.51,-212.62C365.04,-217.35 338.6,-222.67 316.31,-227.15"/>
<polygon fill="#63b8ff" stroke="#63b8ff" points="389.16,-216.06 398.27,-210.66 387.78,-209.2 389.16,-216.06"/>
</a>
</g>
</g>
<!-- Node11 -->
<g id="Node000011" class="node">
<title>Node11</title>
<g id="a_Node000011"><a xlink:href="class_t_m_c2208_stepper.html#a755b2adec0990d6bfcf2f5f1daf9d692" target="_top" xlink:title=" ">
<polygon fill="white" stroke="#666666" points="341.75,-209.88 188.5,-209.88 188.5,-190.62 341.75,-190.62 341.75,-209.88"/>
<text text-anchor="middle" x="265.12" y="-196.38" font-family="Helvetica,sans-Serif" font-size="10.00">TMC2208Stepper::OTP_PROG</text>
</a>
</g>
</g>
<!-- Node1&#45;&gt;Node11 -->
<g id="edge10_Node000001_Node000011" class="edge">
<title>Node1&#45;&gt;Node11</title>
<g id="a_edge10_Node000001_Node000011"><a xlink:title=" ">
<path fill="none" stroke="#63b8ff" d="M379.3,-200.25C367.09,-200.25 354.35,-200.25 342.02,-200.25"/>
<polygon fill="#63b8ff" stroke="#63b8ff" points="379.3,-203.75 389.3,-200.25 379.3,-196.75 379.3,-203.75"/>
</a>
</g>
</g>
<!-- Node12 -->
<g id="Node000012" class="node">
<title>Node12</title>
<g id="a_Node000012"><a xlink:href="class_t_m_c2208_stepper.html#ae51fb40f4fba4aecb8f0763adddb8296" target="_top" xlink:title=" ">
<polygon fill="white" stroke="#666666" points="326.75,-172.88 203.5,-172.88 203.5,-153.62 326.75,-153.62 326.75,-172.88"/>
<text text-anchor="middle" x="265.12" y="-159.38" font-family="Helvetica,sans-Serif" font-size="10.00">TMC2208Stepper::ottrim</text>
</a>
</g>
</g>
<!-- Node1&#45;&gt;Node12 -->
<g id="edge11_Node000001_Node000012" class="edge">
<title>Node1&#45;&gt;Node12</title>
<g id="a_edge11_Node000001_Node000012"><a xlink:title=" ">
<path fill="none" stroke="#63b8ff" d="M388.51,-187.88C365.04,-183.15 338.6,-177.83 316.31,-173.35"/>
<polygon fill="#63b8ff" stroke="#63b8ff" points="387.78,-191.3 398.27,-189.84 389.16,-184.44 387.78,-191.3"/>
</a>
</g>
</g>
<!-- Node13 -->
<g id="Node000013" class="node">
<title>Node13</title>
<g id="a_Node000013"><a xlink:href="class_t_m_c2209_stepper.html#ac02a95cfd0f560a2705136717f50d957" target="_top" xlink:title=" ">
<polygon fill="white" stroke="#666666" points="335.38,-135.88 194.88,-135.88 194.88,-116.62 335.38,-116.62 335.38,-135.88"/>
<text text-anchor="middle" x="265.12" y="-122.38" font-family="Helvetica,sans-Serif" font-size="10.00">TMC2209Stepper::SGTHRS</text>
</a>
</g>
</g>
<!-- Node1&#45;&gt;Node13 -->
<g id="edge12_Node000001_Node000013" class="edge">
<title>Node1&#45;&gt;Node13</title>
<g id="a_edge12_Node000001_Node000013"><a xlink:title=" ">
<path fill="none" stroke="#63b8ff" d="M426.97,-183.65C408.44,-171.05 381.29,-154.25 355.25,-144.25 347.14,-141.14 338.41,-138.53 329.69,-136.36"/>
<polygon fill="#63b8ff" stroke="#63b8ff" points="424.86,-186.45 435.07,-189.28 428.85,-180.7 424.86,-186.45"/>
</a>
</g>
</g>
<!-- Node15 -->
<g id="Node000015" class="node">
<title>Node15</title>
<g id="a_Node000015"><a xlink:href="class_t_m_c2208_stepper.html#a62c4c6100151acdbae6de579009b9f0d" target="_top" xlink:title=" ">
<polygon fill="white" stroke="#666666" points="344,-98.88 186.25,-98.88 186.25,-79.62 344,-79.62 344,-98.88"/>
<text text-anchor="middle" x="265.12" y="-85.38" font-family="Helvetica,sans-Serif" font-size="10.00">TMC2208Stepper::SLAVECONF</text>
</a>
</g>
</g>
<!-- Node1&#45;&gt;Node15 -->
<g id="edge14_Node000001_Node000015" class="edge">
<title>Node1&#45;&gt;Node15</title>
<g id="a_edge14_Node000001_Node000015"><a xlink:title=" ">
<path fill="none" stroke="#63b8ff" d="M436.08,-181.07C419.39,-159.56 389.35,-125.34 355.25,-107.25 349.25,-104.07 342.76,-101.45 336.1,-99.29"/>
<polygon fill="#63b8ff" stroke="#63b8ff" points="433.25,-183.12 442.06,-189.01 438.84,-178.91 433.25,-183.12"/>
</a>
</g>
</g>
<!-- Node17 -->
<g id="Node000017" class="node">
<title>Node17</title>
<g id="a_Node000017"><a xlink:href="class_t_m_c2209_stepper.html#acc61f21e6584dc64bd9bd025fd7bc29a" target="_top" xlink:title=" ">
<polygon fill="white" stroke="#666666" points="345.12,-61.88 185.12,-61.88 185.12,-42.62 345.12,-42.62 345.12,-61.88"/>
<text text-anchor="middle" x="265.12" y="-48.38" font-family="Helvetica,sans-Serif" font-size="10.00">TMC2209Stepper::TCOOLTHRS</text>
</a>
</g>
</g>
<!-- Node1&#45;&gt;Node17 -->
<g id="edge16_Node000001_Node000017" class="edge">
<title>Node1&#45;&gt;Node17</title>
<g id="a_edge16_Node000001_Node000017"><a xlink:title=" ">
<path fill="none" stroke="#63b8ff" d="M441.12,-179.9C427.25,-150.69 397.59,-97.4 355.25,-70.25 350.33,-67.1 344.98,-64.48 339.41,-62.31"/>
<polygon fill="#63b8ff" stroke="#63b8ff" points="437.83,-181.13 445.17,-188.77 444.2,-178.22 437.83,-181.13"/>
</a>
</g>
</g>
<!-- Node18 -->
<g id="Node000018" class="node">
<title>Node18</title>
<g id="a_Node000018"><a xlink:href="class_t_m_c2208_stepper.html#a9e9792fafdbbf0681daf613b2a5f507a" target="_top" xlink:title=" ">
<polygon fill="white" stroke="#666666" points="336.88,-24.88 193.38,-24.88 193.38,-5.63 336.88,-5.63 336.88,-24.88"/>
<text text-anchor="middle" x="265.12" y="-11.38" font-family="Helvetica,sans-Serif" font-size="10.00">TMC2208Stepper::VACTUAL</text>
</a>
</g>
</g>
<!-- Node1&#45;&gt;Node18 -->
<g id="edge17_Node000001_Node000018" class="edge">
<title>Node1&#45;&gt;Node18</title>
<g id="a_edge17_Node000001_Node000018"><a xlink:title=" ">
<path fill="none" stroke="#63b8ff" d="M444.37,-179.37C433.53,-143.43 406.2,-70.16 355.25,-33.25 349.75,-29.27 343.59,-26.12 337.14,-23.63"/>
<polygon fill="#63b8ff" stroke="#63b8ff" points="440.99,-180.3 447.11,-188.95 447.72,-178.38 440.99,-180.3"/>
</a>
</g>
</g>
<!-- Node3 -->
<g id="Node000003" class="node">
<title>Node3</title>
<g id="a_Node000003"><a xlink:href="class_t_m_c2208_stepper.html#abe6a8d3594e4a6f7871fadc7d2dbdcb0" target="_top" xlink:title=" ">
<polygon fill="white" stroke="#666666" points="139,-412.5 0,-412.5 0,-382 139,-382 139,-412.5"/>
<text text-anchor="start" x="8" y="-399" font-family="Helvetica,sans-Serif" font-size="10.00">TMC2208Stepper::INIT2208</text>
<text text-anchor="middle" x="69.5" y="-387.75" font-family="Helvetica,sans-Serif" font-size="10.00">_REGISTER</text>
</a>
</g>
</g>
<!-- Node2&#45;&gt;Node3 -->
<g id="edge2_Node000002_Node000003" class="edge">
<title>Node2&#45;&gt;Node3</title>
<g id="a_edge2_Node000002_Node000003"><a xlink:title=" ">
<path fill="none" stroke="#63b8ff" d="M175.26,-394C163.18,-394.38 150.94,-394.76 139.29,-395.12"/>
<polygon fill="#63b8ff" stroke="#63b8ff" points="175.36,-397.5 185.25,-393.69 175.15,-390.51 175.36,-397.5"/>
</a>
</g>
</g>
<!-- Node5 -->
<g id="Node000005" class="node">
<title>Node5</title>
<g id="a_Node000005"><a xlink:href="class_t_m_c2209_stepper.html#a64221bf459b0dea397baba27b7a54e10" target="_top" xlink:title=" ">
<polygon fill="white" stroke="#666666" points="139,-363.5 0,-363.5 0,-333 139,-333 139,-363.5"/>
<text text-anchor="start" x="8" y="-350" font-family="Helvetica,sans-Serif" font-size="10.00">TMC2209Stepper::INIT2209</text>
<text text-anchor="middle" x="69.5" y="-338.75" font-family="Helvetica,sans-Serif" font-size="10.00">_REGISTER</text>
</a>
</g>
</g>
<!-- Node4&#45;&gt;Node5 -->
<g id="edge4_Node000004_Node000005" class="edge">
<title>Node4&#45;&gt;Node5</title>
<g id="a_edge4_Node000004_Node000005"><a xlink:title=" ">
<path fill="none" stroke="#63b8ff" d="M176.09,-348.25C163.77,-348.25 151.26,-348.25 139.36,-348.25"/>
<polygon fill="#63b8ff" stroke="#63b8ff" points="175.81,-351.75 185.81,-348.25 175.81,-344.75 175.81,-351.75"/>
</a>
</g>
</g>
<!-- Node7 -->
<g id="Node000007" class="node">
<title>Node7</title>
<g id="a_Node000007"><a xlink:href="class_t_m_c2208_stepper.html#a4ea75e20279003cc3c509299572d4c77" target="_top" xlink:title=" ">
<polygon fill="white" stroke="#666666" points="128.5,-314.5 10.5,-314.5 10.5,-284 128.5,-284 128.5,-314.5"/>
<text text-anchor="start" x="18.5" y="-301" font-family="Helvetica,sans-Serif" font-size="10.00">TMC2208Stepper::INIT</text>
<text text-anchor="middle" x="69.5" y="-289.75" font-family="Helvetica,sans-Serif" font-size="10.00">_REGISTER</text>
</a>
</g>
</g>
<!-- Node6&#45;&gt;Node7 -->
<g id="edge6_Node000006_Node000007" class="edge">
<title>Node6&#45;&gt;Node7</title>
<g id="a_edge6_Node000006_Node000007"><a xlink:title=" ">
<path fill="none" stroke="#63b8ff" d="M163.36,-305C151.54,-304.27 139.81,-303.55 128.86,-302.87"/>
<polygon fill="#63b8ff" stroke="#63b8ff" points="162.97,-308.49 173.17,-305.61 163.41,-301.5 162.97,-308.49"/>
</a>
</g>
</g>
<!-- Node10 -->
<g id="Node000010" class="node">
<title>Node10</title>
<g id="a_Node000010"><a xlink:href="class_t_m_c2208_stepper.html#ae9305335bf7c7fca557b3900de8e9cda" target="_top" xlink:title=" ">
<polygon fill="white" stroke="#666666" points="139,-252.5 0,-252.5 0,-222 139,-222 139,-252.5"/>
<text text-anchor="start" x="8" y="-239" font-family="Helvetica,sans-Serif" font-size="10.00">TMC2208Stepper::INIT2208</text>
<text text-anchor="middle" x="69.5" y="-227.75" font-family="Helvetica,sans-Serif" font-size="10.00">_REGISTER</text>
</a>
</g>
</g>
<!-- Node9&#45;&gt;Node10 -->
<g id="edge9_Node000009_Node000010" class="edge">
<title>Node9&#45;&gt;Node10</title>
<g id="a_edge9_Node000009_Node000010"><a xlink:title=" ">
<path fill="none" stroke="#63b8ff" d="M186.3,-237.25C170.72,-237.25 154.47,-237.25 139.23,-237.25"/>
<polygon fill="#63b8ff" stroke="#63b8ff" points="185.98,-240.75 195.98,-237.25 185.98,-233.75 185.98,-240.75"/>
</a>
</g>
</g>
<!-- Node14 -->
<g id="Node000014" class="node">
<title>Node14</title>
<g id="a_Node000014"><a xlink:href="class_t_m_c2209_stepper.html#ade36c1462edb9fdb4afcc354ae1f6d2a" target="_top" xlink:title=" ">
<polygon fill="white" stroke="#666666" points="139,-147.5 0,-147.5 0,-117 139,-117 139,-147.5"/>
<text text-anchor="start" x="8" y="-134" font-family="Helvetica,sans-Serif" font-size="10.00">TMC2209Stepper::INIT2209</text>
<text text-anchor="middle" x="69.5" y="-122.75" font-family="Helvetica,sans-Serif" font-size="10.00">_REGISTER</text>
</a>
</g>
</g>
<!-- Node13&#45;&gt;Node14 -->
<g id="edge13_Node000013_Node000014" class="edge">
<title>Node13&#45;&gt;Node14</title>
<g id="a_edge13_Node000013_Node000014"><a xlink:title=" ">
<path fill="none" stroke="#63b8ff" d="M183.38,-128.75C168.69,-129.21 153.49,-129.68 139.19,-130.12"/>
<polygon fill="#63b8ff" stroke="#63b8ff" points="183.1,-132.26 192.98,-128.45 182.88,-125.27 183.1,-132.26"/>
</a>
</g>
</g>
<!-- Node16 -->
<g id="Node000016" class="node">
<title>Node16</title>
<g id="a_Node000016"><a xlink:href="class_t_m_c2208_stepper.html#a6a203b25b832b19826d2fa5a54e73e01" target="_top" xlink:title=" ">
<polygon fill="white" stroke="#666666" points="128.5,-98.5 10.5,-98.5 10.5,-68 128.5,-68 128.5,-98.5"/>
<text text-anchor="start" x="18.5" y="-85" font-family="Helvetica,sans-Serif" font-size="10.00">TMC2208Stepper::INIT</text>
<text text-anchor="middle" x="69.5" y="-73.75" font-family="Helvetica,sans-Serif" font-size="10.00">_REGISTER</text>
</a>
</g>
</g>
<!-- Node15&#45;&gt;Node16 -->
<g id="edge15_Node000015_Node000016" class="edge">
<title>Node15&#45;&gt;Node16</title>
<g id="a_edge15_Node000015_Node000016"><a xlink:title=" ">
<path fill="none" stroke="#63b8ff" d="M174.64,-86.48C159.05,-85.99 143.21,-85.5 128.74,-85.05"/>
<polygon fill="#63b8ff" stroke="#63b8ff" points="174.31,-89.97 184.42,-86.78 174.53,-82.97 174.31,-89.97"/>
</a>
</g>
</g>
<!-- Node19 -->
<g id="Node000019" class="node">
<title>Node19</title>
<g id="a_Node000019"><a xlink:href="class_t_m_c2208_stepper.html#aa0478c83baba97df3d716c42b5d0ea0f" target="_top" xlink:title=" ">
<polygon fill="white" stroke="#666666" points="139,-30.5 0,-30.5 0,0 139,0 139,-30.5"/>
<text text-anchor="start" x="8" y="-17" font-family="Helvetica,sans-Serif" font-size="10.00">TMC2208Stepper::INIT2208</text>
<text text-anchor="middle" x="69.5" y="-5.75" font-family="Helvetica,sans-Serif" font-size="10.00">_REGISTER</text>
</a>
</g>
</g>
<!-- Node18&#45;&gt;Node19 -->
<g id="edge18_Node000018_Node000019" class="edge">
<title>Node18&#45;&gt;Node19</title>
<g id="a_edge18_Node000018_Node000019"><a xlink:title=" ">
<path fill="none" stroke="#63b8ff" d="M181.85,-15.25C167.65,-15.25 153.03,-15.25 139.23,-15.25"/>
<polygon fill="#63b8ff" stroke="#63b8ff" points="181.61,-18.75 191.61,-15.25 181.61,-11.75 181.61,-18.75"/>
</a>
</g>
</g>
</g>
</svg>

<g id="navigator" transform="translate(0 0)" fill="#404254">
  <rect fill="#f2f5e9" fill-opacity="0.5" stroke="#606060" stroke-width=".5" x="0" y="0" width="60" height="60"/>
  <use id="zoomplus" xlink:href="#zoomPlus" x="17" y="9" onmousedown="handleZoom(evt,'in')"/>
  <use id="zoomminus" xlink:href="#zoomMin" x="42" y="9" onmousedown="handleZoom(evt,'out')"/>
  <use id="reset" xlink:href="#resetDef" x="30" y="36" onmousedown="handleReset()"/>
   <use id="arrowup" xlink:href="#arrowUp" x="0" y="0" onmousedown="handlePan(0,-1)"/>
  <use id="arrowright" xlink:href="#arrowRight" x="0" y="0" onmousedown="handlePan(1,0)"/>
  <use id="arrowdown" xlink:href="#arrowDown" x="0" y="0" onmousedown="handlePan(0,1)"/>
  <use id="arrowleft" xlink:href="#arrowLeft" x="0" y="0" onmousedown="handlePan(-1,0)"/>
</g>
<svg viewBox="0 0 15 15" width="100%" height="30px" preserveAspectRatio="xMaxYMin meet">
 <g id="arrow_out" transform="scale(0.3 0.3)">
  <a xlink:href="class_t_m_c2208_stepper_a142b14de8a4dcc6cf76b4a6ede9e1cea_icgraph_org.svg" target="_base">
   <rect id="button" ry="5" rx="5" y="6" x="6" height="38" width="38"
        fill="#f2f5e9" fill-opacity="0.5" stroke="#606060" stroke-width="1.0"/>
   <path id="arrow"
     d="M 11.500037,31.436501 C 11.940474,20.09759 22.043105,11.32322 32.158766,21.979434 L 37.068811,17.246167 C 37.068811,17.246167 37.088388,32 37.088388,32 L 22.160133,31.978069 C 22.160133,31.978069 26.997745,27.140456 26.997745,27.140456 C 18.528582,18.264221 13.291696,25.230495 11.500037,31.436501 z"
     style="fill:#404040;"/>
  </a>
 </g>
</svg>

<style type='text/css'>
<![CDATA[
[data-mouse-over-selected='false'] { opacity: 0.7; }
[data-mouse-over-selected='true']  { opacity: 1.0; }
]]>
</style>
<script type="application/ecmascript"><![CDATA[
document.addEventListener('DOMContentLoaded', (event) => {
  highlightEdges();
  highlightAdjacentNodes();
});
]]></script>
</svg>
