<?xml version="1.0" encoding="UTF-8" standalone="no"?>
<!DOCTYPE svg PUBLIC "-//W3C//DTD SVG 1.1//EN"
 "http://www.w3.org/Graphics/SVG/1.1/DTD/svg11.dtd">
<!-- Generated by graphviz version 12.2.1 (20241206.2353)
 -->
<!-- Title: TMC5130Stepper::XACTUAL Pages: 1 -->
<svg width="311pt" height="150pt"
 viewBox="0.00 0.00 310.75 150.25" xmlns="http://www.w3.org/2000/svg" xmlns:xlink="http://www.w3.org/1999/xlink">
<g id="graph0" class="graph" transform="scale(1 1) rotate(0) translate(4 146.25)">
<title>TMC5130Stepper::XACTUAL</title>
<!-- Node1 -->
<g id="Node000001" class="node">
<title>Node1</title>
<g id="a_Node000001"><a xlink:title=" ">
<polygon fill="#999999" stroke="#666666" points="302.75,-77.25 157.75,-77.25 157.75,-58 302.75,-58 302.75,-77.25"/>
<text text-anchor="middle" x="230.25" y="-63.75" font-family="Helvetica,sans-Serif" font-size="10.00">TMC5130Stepper::XACTUAL</text>
</a>
</g>
</g>
<!-- Node2 -->
<g id="Node000002" class="node">
<title>Node2</title>
<g id="a_Node000002"><a xlink:href="class_t_m_c5130_stepper.html#a897212f81817cdaee4536d642badc149" target="_top" xlink:title=" ">
<polygon fill="white" stroke="#666666" points="121.75,-142.25 0,-142.25 0,-123 121.75,-123 121.75,-142.25"/>
<text text-anchor="middle" x="60.88" y="-128.75" font-family="Helvetica,sans-Serif" font-size="10.00">TMC5130Stepper::begin</text>
</a>
</g>
</g>
<!-- Node1&#45;&gt;Node2 -->
<g id="edge1_Node000001_Node000002" class="edge">
<title>Node1&#45;&gt;Node2</title>
<g id="a_edge1_Node000001_Node000002"><a xlink:title=" ">
<path fill="none" stroke="#63b8ff" d="M197.31,-82.26C176.1,-91.74 147.51,-104.05 121.75,-113.62 113.37,-116.74 104.21,-119.81 95.64,-122.54"/>
<polygon fill="#63b8ff" stroke="#63b8ff" points="198.61,-85.51 206.3,-78.21 195.74,-79.13 198.61,-85.51"/>
</a>
</g>
</g>
<!-- Node3 -->
<g id="Node000003" class="node">
<title>Node3</title>
<g id="a_Node000003"><a xlink:href="class_t_m_c5130_stepper.html#a86dfe0b25b96655a501f4180fcfbb954" target="_top" xlink:title=" ">
<polygon fill="white" stroke="#666666" points="119.88,-104.88 1.88,-104.88 1.88,-74.38 119.88,-74.38 119.88,-104.88"/>
<text text-anchor="start" x="9.88" y="-91.38" font-family="Helvetica,sans-Serif" font-size="10.00">TMC5130Stepper::INIT</text>
<text text-anchor="middle" x="60.88" y="-80.12" font-family="Helvetica,sans-Serif" font-size="10.00">_REGISTER</text>
</a>
</g>
</g>
<!-- Node1&#45;&gt;Node3 -->
<g id="edge2_Node000001_Node000003" class="edge">
<title>Node1&#45;&gt;Node3</title>
<g id="a_edge2_Node000001_Node000003"><a xlink:title=" ">
<path fill="none" stroke="#63b8ff" d="M145.89,-78.58C137.19,-79.73 128.48,-80.87 120.15,-81.97"/>
<polygon fill="#63b8ff" stroke="#63b8ff" points="146.34,-82.05 155.8,-77.28 145.43,-75.11 146.34,-82.05"/>
</a>
</g>
</g>
<!-- Node4 -->
<g id="Node000004" class="node">
<title>Node4</title>
<g id="a_Node000004"><a xlink:href="class_t_m_c5130_stepper.html#a55e61f5181d74f26c9d35c54e4436d7a" target="_top" xlink:title=" ">
<polygon fill="white" stroke="#666666" points="120.62,-56.25 1.13,-56.25 1.13,-37 120.62,-37 120.62,-56.25"/>
<text text-anchor="middle" x="60.88" y="-42.75" font-family="Helvetica,sans-Serif" font-size="10.00">TMC5130Stepper::push</text>
</a>
</g>
</g>
<!-- Node1&#45;&gt;Node4 -->
<g id="edge3_Node000001_Node000004" class="edge">
<title>Node1&#45;&gt;Node4</title>
<g id="a_edge3_Node000001_Node000004"><a xlink:title=" ">
<path fill="none" stroke="#63b8ff" d="M146.14,-57.2C137.62,-56.13 129.1,-55.06 120.92,-54.03"/>
<polygon fill="#63b8ff" stroke="#63b8ff" points="145.44,-60.64 155.79,-58.41 146.31,-53.69 145.44,-60.64"/>
</a>
</g>
</g>
<!-- Node5 -->
<g id="Node000005" class="node">
<title>Node5</title>
<g id="a_Node000005"><a xlink:href="class_t_m_c5160_stepper.html#a5a12974304588f9d01898d91ba854b87" target="_top" xlink:title=" ">
<polygon fill="white" stroke="#666666" points="120.62,-19.25 1.13,-19.25 1.13,0 120.62,0 120.62,-19.25"/>
<text text-anchor="middle" x="60.88" y="-5.75" font-family="Helvetica,sans-Serif" font-size="10.00">TMC5160Stepper::push</text>
</a>
</g>
</g>
<!-- Node1&#45;&gt;Node5 -->
<g id="edge4_Node000001_Node000005" class="edge">
<title>Node1&#45;&gt;Node5</title>
<g id="a_edge4_Node000001_Node000005"><a xlink:title=" ">
<path fill="none" stroke="#63b8ff" d="M193.2,-53.55C172.43,-45.61 145.75,-35.69 121.75,-27.62 113.72,-24.93 105.03,-22.2 96.82,-19.72"/>
<polygon fill="#63b8ff" stroke="#63b8ff" points="191.78,-56.76 202.37,-57.08 194.29,-50.22 191.78,-56.76"/>
</a>
</g>
</g>
</g>
</svg>
