<?xml version="1.0" encoding="UTF-8" standalone="no"?>
<!DOCTYPE svg PUBLIC "-//W3C//DTD SVG 1.1//EN"
 "http://www.w3.org/Graphics/SVG/1.1/DTD/svg11.dtd">
<!-- Generated by graphviz version 12.2.1 (20241206.2353)
 -->
<!-- Title: TMC2208Stepper::INIT_REGISTER Pages: 1 -->
<svg width="674pt" height="174pt"
 viewBox="0.00 0.00 673.50 173.88" xmlns="http://www.w3.org/2000/svg" xmlns:xlink="http://www.w3.org/1999/xlink">
<g id="graph0" class="graph" transform="scale(1 1) rotate(0) translate(4 169.88)">
<title>TMC2208Stepper::INIT_REGISTER</title>
<!-- Node1 -->
<g id="Node000001" class="node">
<title>Node1</title>
<g id="a_Node000001"><a xlink:title=" ">
<polygon fill="#999999" stroke="#666666" points="118,-103.5 0,-103.5 0,-73 118,-73 118,-103.5"/>
<text text-anchor="start" x="8" y="-90" font-family="Helvetica,sans-Serif" font-size="10.00">TMC2208Stepper::INIT</text>
<text text-anchor="middle" x="59" y="-78.75" font-family="Helvetica,sans-Serif" font-size="10.00">_REGISTER</text>
</a>
</g>
</g>
<!-- Node2 -->
<g id="Node000002" class="node">
<title>Node2</title>
<g id="a_Node000002"><a xlink:href="class_t_m_c2208_stepper.html#a97f0d743b9f5cf956637deb2e06d0145" target="_top" xlink:title=" ">
<polygon fill="white" stroke="#666666" points="334.25,-97.88 154,-97.88 154,-78.62 334.25,-78.62 334.25,-97.88"/>
<text text-anchor="middle" x="244.12" y="-84.38" font-family="Helvetica,sans-Serif" font-size="10.00">TMC2208Stepper::FACTORY_CONF</text>
</a>
</g>
</g>
<!-- Node1&#45;&gt;Node2 -->
<g id="edge1_Node000001_Node000002" class="edge">
<title>Node1&#45;&gt;Node2</title>
<g id="a_edge1_Node000001_Node000002"><a xlink:title=" ">
<path fill="none" stroke="#63b8ff" d="M118.45,-88.25C126.06,-88.25 134.02,-88.25 142.09,-88.25"/>
<polygon fill="#63b8ff" stroke="#63b8ff" points="142.02,-91.75 152.02,-88.25 142.02,-84.75 142.02,-91.75"/>
</a>
</g>
</g>
<!-- Node3 -->
<g id="Node000003" class="node">
<title>Node3</title>
<g id="a_Node000003"><a xlink:href="class_t_m_c2208_stepper.html#a142b14de8a4dcc6cf76b4a6ede9e1cea" target="_top" xlink:title=" ">
<polygon fill="white" stroke="#666666" points="489.75,-97.88 370.25,-97.88 370.25,-78.62 489.75,-78.62 489.75,-97.88"/>
<text text-anchor="middle" x="430" y="-84.38" font-family="Helvetica,sans-Serif" font-size="10.00">TMC2208Stepper::write</text>
</a>
</g>
</g>
<!-- Node2&#45;&gt;Node3 -->
<g id="edge2_Node000002_Node000003" class="edge">
<title>Node2&#45;&gt;Node3</title>
<g id="a_edge2_Node000002_Node000003"><a xlink:title=" ">
<path fill="none" stroke="#63b8ff" d="M334.64,-88.25C342.68,-88.25 350.74,-88.25 358.58,-88.25"/>
<polygon fill="#63b8ff" stroke="#63b8ff" points="358.37,-91.75 368.37,-88.25 358.37,-84.75 358.37,-91.75"/>
</a>
</g>
</g>
<!-- Node4 -->
<g id="Node000004" class="node">
<title>Node4</title>
<g id="a_Node000004"><a xlink:href="class_t_m_c2208_stepper.html#a409c19fa6b052a370a317d061bf9af4e" target="_top" xlink:title=" ">
<polygon fill="white" stroke="#666666" points="665.12,-165.88 526.12,-165.88 526.12,-146.62 665.12,-146.62 665.12,-165.88"/>
<text text-anchor="middle" x="595.62" y="-152.38" font-family="Helvetica,sans-Serif" font-size="10.00">TMC2208Stepper::calcCRC</text>
</a>
</g>
</g>
<!-- Node3&#45;&gt;Node4 -->
<g id="edge3_Node000003_Node000004" class="edge">
<title>Node3&#45;&gt;Node4</title>
<g id="a_edge3_Node000003_Node000004"><a xlink:title=" ">
<path fill="none" stroke="#63b8ff" d="M447.62,-98.2C466.16,-108.97 497.3,-126.11 525.75,-137.25 530.96,-139.29 536.47,-141.2 542.01,-142.96"/>
<polygon fill="#63b8ff" stroke="#63b8ff" points="540.61,-146.2 551.2,-145.73 542.63,-139.5 540.61,-146.2"/>
</a>
</g>
</g>
<!-- Node5 -->
<g id="Node000005" class="node">
<title>Node5</title>
<g id="a_Node000005"><a xlink:href="class_t_m_c2208_stepper.html#a5147cab1658f782b36b0ce7e951d4f4e" target="_top" xlink:title=" ">
<polygon fill="white" stroke="#666666" points="665.5,-128.5 525.75,-128.5 525.75,-98 665.5,-98 665.5,-128.5"/>
<text text-anchor="start" x="533.75" y="-115" font-family="Helvetica,sans-Serif" font-size="10.00">TMC2208Stepper::postWrite</text>
<text text-anchor="middle" x="595.62" y="-103.75" font-family="Helvetica,sans-Serif" font-size="10.00">Communication</text>
</a>
</g>
</g>
<!-- Node3&#45;&gt;Node5 -->
<g id="edge4_Node000003_Node000005" class="edge">
<title>Node3&#45;&gt;Node5</title>
<g id="a_edge4_Node000003_Node000005"><a xlink:title=" ">
<path fill="none" stroke="#63b8ff" d="M490.07,-97.28C497.85,-98.46 505.92,-99.7 513.98,-100.93"/>
<polygon fill="#63b8ff" stroke="#63b8ff" points="513.43,-104.38 523.84,-102.43 514.48,-97.46 513.43,-104.38"/>
</a>
</g>
</g>
<!-- Node6 -->
<g id="Node000006" class="node">
<title>Node6</title>
<g id="a_Node000006"><a xlink:href="class_t_m_c2208_stepper.html#a66e4f8694ee035432af8b61f14b35a92" target="_top" xlink:title=" ">
<polygon fill="white" stroke="#666666" points="662.88,-79.5 528.38,-79.5 528.38,-49 662.88,-49 662.88,-79.5"/>
<text text-anchor="start" x="536.38" y="-66" font-family="Helvetica,sans-Serif" font-size="10.00">TMC2208Stepper::preWrite</text>
<text text-anchor="middle" x="595.62" y="-54.75" font-family="Helvetica,sans-Serif" font-size="10.00">Communication</text>
</a>
</g>
</g>
<!-- Node3&#45;&gt;Node6 -->
<g id="edge5_Node000003_Node000006" class="edge">
<title>Node3&#45;&gt;Node6</title>
<g id="a_edge5_Node000003_Node000006"><a xlink:title=" ">
<path fill="none" stroke="#63b8ff" d="M490.07,-79.59C498.76,-78.31 507.82,-76.98 516.82,-75.66"/>
<polygon fill="#63b8ff" stroke="#63b8ff" points="517.26,-79.13 526.65,-74.22 516.25,-72.21 517.26,-79.13"/>
</a>
</g>
</g>
<!-- Node7 -->
<g id="Node000007" class="node">
<title>Node7</title>
<g id="a_Node000007"><a xlink:href="class_t_m_c2208_stepper.html#adb6243277ef84d2027b2b8bae6be5bd0" target="_top" xlink:title=" ">
<polygon fill="white" stroke="#666666" points="656.5,-30.5 534.75,-30.5 534.75,0 656.5,0 656.5,-30.5"/>
<text text-anchor="start" x="542.75" y="-17" font-family="Helvetica,sans-Serif" font-size="10.00">TMC2208Stepper::serial</text>
<text text-anchor="middle" x="595.62" y="-5.75" font-family="Helvetica,sans-Serif" font-size="10.00">_write</text>
</a>
</g>
</g>
<!-- Node3&#45;&gt;Node7 -->
<g id="edge6_Node000003_Node000007" class="edge">
<title>Node3&#45;&gt;Node7</title>
<g id="a_edge6_Node000003_Node000007"><a xlink:title=" ">
<path fill="none" stroke="#63b8ff" d="M449.2,-78.2C468.05,-67.99 498.5,-52.04 525.75,-40.25 529.84,-38.48 534.09,-36.73 538.4,-35.02"/>
<polygon fill="#63b8ff" stroke="#63b8ff" points="539.64,-38.29 547.71,-31.43 537.12,-31.76 539.64,-38.29"/>
</a>
</g>
</g>
</g>
</svg>
