<?xml version="1.0" encoding="UTF-8" standalone="no"?>
<!DOCTYPE svg PUBLIC "-//W3C//DTD SVG 1.1//EN"
 "http://www.w3.org/Graphics/SVG/1.1/DTD/svg11.dtd">
<!-- Generated by graphviz version 12.2.1 (20241206.2353)
 -->
<!-- Title: TMC2160Stepper::begin Pages: 1 -->
<svg width="475pt" height="299pt"
 viewBox="0.00 0.00 475.25 299.25" xmlns="http://www.w3.org/2000/svg" xmlns:xlink="http://www.w3.org/1999/xlink">
<g id="graph0" class="graph" transform="scale(1 1) rotate(0) translate(4 295.25)">
<title>TMC2160Stepper::begin</title>
<!-- Node1 -->
<g id="Node000001" class="node">
<title>Node1</title>
<g id="a_Node000001"><a xlink:title=" ">
<polygon fill="#999999" stroke="#666666" points="121.75,-161.25 0,-161.25 0,-142 121.75,-142 121.75,-161.25"/>
<text text-anchor="middle" x="60.88" y="-147.75" font-family="Helvetica,sans-Serif" font-size="10.00">TMC2160Stepper::begin</text>
</a>
</g>
</g>
<!-- Node2 -->
<g id="Node000002" class="node">
<title>Node2</title>
<g id="a_Node000002"><a xlink:href="class_t_m_c2130_stepper.html#a67541b27d97ce45f175e9f6e4a2d0bff" target="_top" xlink:title=" ">
<polygon fill="white" stroke="#666666" points="314,-291.25 157.75,-291.25 157.75,-272 314,-272 314,-291.25"/>
<text text-anchor="middle" x="235.88" y="-277.75" font-family="Helvetica,sans-Serif" font-size="10.00">TMC2130Stepper::CHOPCONF</text>
</a>
</g>
</g>
<!-- Node1&#45;&gt;Node2 -->
<g id="edge1_Node000001_Node000002" class="edge">
<title>Node1&#45;&gt;Node2</title>
<g id="a_edge1_Node000001_Node000002"><a xlink:title=" ">
<path fill="none" stroke="#63b8ff" d="M67.35,-161.54C80.09,-183.63 114,-237.04 157.75,-263.62 159.77,-264.85 161.87,-266 164.02,-267.06"/>
<polygon fill="#63b8ff" stroke="#63b8ff" points="162.47,-270.21 173.05,-270.91 165.22,-263.77 162.47,-270.21"/>
</a>
</g>
</g>
<!-- Node4 -->
<g id="Node000004" class="node">
<title>Node4</title>
<g id="a_Node000004"><a xlink:href="class_t_m_c2130_stepper.html#abc48be984238d94bb3b72ed3aa26f028" target="_top" xlink:title=" ">
<polygon fill="white" stroke="#666666" points="313.25,-254.25 158.5,-254.25 158.5,-235 313.25,-235 313.25,-254.25"/>
<text text-anchor="middle" x="235.88" y="-240.75" font-family="Helvetica,sans-Serif" font-size="10.00">TMC2130Stepper::COOLCONF</text>
</a>
</g>
</g>
<!-- Node1&#45;&gt;Node4 -->
<g id="edge3_Node000001_Node000004" class="edge">
<title>Node1&#45;&gt;Node4</title>
<g id="a_edge3_Node000001_Node000004"><a xlink:title=" ">
<path fill="none" stroke="#63b8ff" d="M71.51,-161.57C87.75,-177.75 122.3,-209.65 157.75,-226.62 161.04,-228.2 164.47,-229.64 167.98,-230.96"/>
<polygon fill="#63b8ff" stroke="#63b8ff" points="166.67,-234.21 177.26,-234.07 168.9,-227.57 166.67,-234.21"/>
</a>
</g>
</g>
<!-- Node5 -->
<g id="Node000005" class="node">
<title>Node5</title>
<g id="a_Node000005"><a xlink:href="class_t_m_c2130_stepper.html#aee84a9abfc84b387c6ae5658f90bf684" target="_top" xlink:title=" ">
<polygon fill="white" stroke="#666666" points="303.12,-217.25 168.62,-217.25 168.62,-198 303.12,-198 303.12,-217.25"/>
<text text-anchor="middle" x="235.88" y="-203.75" font-family="Helvetica,sans-Serif" font-size="10.00">TMC2130Stepper::GCONF</text>
</a>
</g>
</g>
<!-- Node1&#45;&gt;Node5 -->
<g id="edge4_Node000001_Node000005" class="edge">
<title>Node1&#45;&gt;Node5</title>
<g id="a_edge4_Node000001_Node000005"><a xlink:title=" ">
<path fill="none" stroke="#63b8ff" d="M84.39,-161.65C103.61,-169.94 132.12,-181.6 157.75,-189.62 163.57,-191.45 169.69,-193.18 175.84,-194.8"/>
<polygon fill="#63b8ff" stroke="#63b8ff" points="174.83,-198.15 185.39,-197.21 176.55,-191.37 174.83,-198.15"/>
</a>
</g>
</g>
<!-- Node6 -->
<g id="Node000006" class="node">
<title>Node6</title>
<g id="a_Node000006"><a xlink:href="class_t_m_c_stepper.html#a597bc308bad0d1198b98c48a6ef34fc3" target="_top" xlink:title=" ">
<polygon fill="white" stroke="#666666" points="305.38,-180.25 166.38,-180.25 166.38,-161 305.38,-161 305.38,-180.25"/>
<text text-anchor="middle" x="235.88" y="-166.75" font-family="Helvetica,sans-Serif" font-size="10.00">TMCStepper::IHOLD_IRUN</text>
</a>
</g>
</g>
<!-- Node1&#45;&gt;Node6 -->
<g id="edge6_Node000001_Node000006" class="edge">
<title>Node1&#45;&gt;Node6</title>
<g id="a_edge6_Node000001_Node000006"><a xlink:title=" ">
<path fill="none" stroke="#63b8ff" d="M121.9,-158.22C132.47,-159.38 143.63,-160.6 154.65,-161.81"/>
<polygon fill="#63b8ff" stroke="#63b8ff" points="154.23,-165.29 164.56,-162.9 155,-158.33 154.23,-165.29"/>
</a>
</g>
</g>
<!-- Node7 -->
<g id="Node000007" class="node">
<title>Node7</title>
<g id="a_Node000007"><a xlink:href="class_t_m_c2160_stepper.html#ae59c6240979e95e7b05074e20f3600de" target="_top" xlink:title=" ">
<polygon fill="white" stroke="#666666" points="311.75,-143.25 160,-143.25 160,-124 311.75,-124 311.75,-143.25"/>
<text text-anchor="middle" x="235.88" y="-129.75" font-family="Helvetica,sans-Serif" font-size="10.00">TMC2160Stepper::PWMCONF</text>
</a>
</g>
</g>
<!-- Node1&#45;&gt;Node7 -->
<g id="edge7_Node000001_Node000007" class="edge">
<title>Node1&#45;&gt;Node7</title>
<g id="a_edge7_Node000001_Node000007"><a xlink:title=" ">
<path fill="none" stroke="#63b8ff" d="M121.9,-145.38C130.47,-144.49 139.44,-143.56 148.4,-142.62"/>
<polygon fill="#63b8ff" stroke="#63b8ff" points="148.63,-146.12 158.21,-141.6 147.91,-139.16 148.63,-146.12"/>
</a>
</g>
</g>
<!-- Node8 -->
<g id="Node000008" class="node">
<title>Node8</title>
<g id="a_Node000008"><a xlink:href="class_t_m_c2130_stepper.html#aed8aa4583943e649dbf3bb1c1da90d63" target="_top" xlink:title=" ">
<polygon fill="white" stroke="#666666" points="312.88,-106.25 158.88,-106.25 158.88,-87 312.88,-87 312.88,-106.25"/>
<text text-anchor="middle" x="235.88" y="-92.75" font-family="Helvetica,sans-Serif" font-size="10.00">TMC2130Stepper::switchCSpin</text>
</a>
</g>
</g>
<!-- Node1&#45;&gt;Node8 -->
<g id="edge8_Node000001_Node000008" class="edge">
<title>Node1&#45;&gt;Node8</title>
<g id="a_edge8_Node000001_Node000008"><a xlink:title=" ">
<path fill="none" stroke="#63b8ff" d="M85.19,-141.58C104.41,-133.55 132.51,-122.4 157.75,-114.62 163.58,-112.83 169.71,-111.11 175.85,-109.51"/>
<polygon fill="#63b8ff" stroke="#63b8ff" points="176.56,-112.94 185.41,-107.11 174.85,-106.15 176.56,-112.94"/>
</a>
</g>
</g>
<!-- Node9 -->
<g id="Node000009" class="node">
<title>Node9</title>
<g id="a_Node000009"><a xlink:href="class_t_m_c2130_stepper.html#ae54d816846ca2103976f490c5ab8e887" target="_top" xlink:title=" ">
<polygon fill="white" stroke="#666666" points="290.38,-69.25 181.38,-69.25 181.38,-50 290.38,-50 290.38,-69.25"/>
<text text-anchor="middle" x="235.88" y="-55.75" font-family="Helvetica,sans-Serif" font-size="10.00">TMC2130Stepper::tbl</text>
</a>
</g>
</g>
<!-- Node1&#45;&gt;Node9 -->
<g id="edge9_Node000001_Node000009" class="edge">
<title>Node1&#45;&gt;Node9</title>
<g id="a_edge9_Node000001_Node000009"><a xlink:title=" ">
<path fill="none" stroke="#63b8ff" d="M71.8,-141.56C88.19,-125.53 122.61,-94.31 157.75,-77.62 161.76,-75.72 165.98,-74.01 170.3,-72.48"/>
<polygon fill="#63b8ff" stroke="#63b8ff" points="171.26,-75.85 179.73,-69.48 169.14,-69.18 171.26,-75.85"/>
</a>
</g>
</g>
<!-- Node11 -->
<g id="Node000011" class="node">
<title>Node11</title>
<g id="a_Node000011"><a xlink:href="class_t_m_c2130_stepper.html#ac34bf4add4f669e935f2a91e1b42817c" target="_top" xlink:title=" ">
<polygon fill="white" stroke="#666666" points="292.25,-28.25 179.5,-28.25 179.5,-9 292.25,-9 292.25,-28.25"/>
<text text-anchor="middle" x="235.88" y="-14.75" font-family="Helvetica,sans-Serif" font-size="10.00">TMC2130Stepper::toff</text>
</a>
</g>
</g>
<!-- Node1&#45;&gt;Node11 -->
<g id="edge12_Node000001_Node000011" class="edge">
<title>Node1&#45;&gt;Node11</title>
<g id="a_edge12_Node000001_Node000011"><a xlink:title=" ">
<path fill="none" stroke="#63b8ff" d="M67.66,-141.62C80.8,-119.84 115.04,-67.89 157.75,-40.62 162.54,-37.57 167.77,-34.92 173.17,-32.64"/>
<polygon fill="#63b8ff" stroke="#63b8ff" points="174.15,-36.01 182.27,-29.22 171.68,-29.46 174.15,-36.01"/>
</a>
</g>
</g>
<!-- Node3 -->
<g id="Node000003" class="node">
<title>Node3</title>
<g id="a_Node000003"><a xlink:href="class_t_m_c2130_stepper.html#aed0175bff6e80ebc14e0d2606283cbe0" target="_top" xlink:title=" ">
<polygon fill="white" stroke="#666666" points="467.25,-254.25 350,-254.25 350,-235 467.25,-235 467.25,-254.25"/>
<text text-anchor="middle" x="408.62" y="-240.75" font-family="Helvetica,sans-Serif" font-size="10.00">TMC2130Stepper::read</text>
</a>
</g>
</g>
<!-- Node2&#45;&gt;Node3 -->
<g id="edge2_Node000002_Node000003" class="edge">
<title>Node2&#45;&gt;Node3</title>
<g id="a_edge2_Node000002_Node000003"><a xlink:title=" ">
<path fill="none" stroke="#63b8ff" d="M283.53,-271.51C304.05,-267.07 328.35,-261.8 349.99,-257.11"/>
<polygon fill="#63b8ff" stroke="#63b8ff" points="350.51,-260.58 359.54,-255.04 349.03,-253.74 350.51,-260.58"/>
</a>
</g>
</g>
<!-- Node5&#45;&gt;Node3 -->
<g id="edge5_Node000005_Node000003" class="edge">
<title>Node5&#45;&gt;Node3</title>
<g id="a_edge5_Node000005_Node000003"><a xlink:title=" ">
<path fill="none" stroke="#63b8ff" d="M283.53,-217.74C304.05,-222.18 328.35,-227.45 349.99,-232.14"/>
<polygon fill="#63b8ff" stroke="#63b8ff" points="349.03,-235.51 359.54,-234.21 350.51,-228.67 349.03,-235.51"/>
</a>
</g>
</g>
<!-- Node10 -->
<g id="Node000010" class="node">
<title>Node10</title>
<g id="a_Node000010"><a xlink:href="class_t_m_c2130_stepper.html#ac197c45a9104c0099f523f500080a592" target="_top" xlink:title=" ">
<polygon fill="white" stroke="#666666" points="463.12,-74.25 354.12,-74.25 354.12,-55 463.12,-55 463.12,-74.25"/>
<text text-anchor="middle" x="408.62" y="-60.75" font-family="Helvetica,sans-Serif" font-size="10.00">TMC2130Stepper::tbl</text>
</a>
</g>
</g>
<!-- Node9&#45;&gt;Node10 -->
<g id="edge10_Node000009_Node000010" class="edge">
<title>Node9&#45;&gt;Node10</title>
<g id="a_edge10_Node000009_Node000010"><a xlink:title=" ">
<path fill="none" stroke="#63b8ff" d="M290.43,-61.19C306.96,-61.68 325.34,-62.22 342.56,-62.72"/>
<polygon fill="#63b8ff" stroke="#63b8ff" points="342.06,-66.21 352.16,-63 342.26,-59.21 342.06,-66.21"/>
</a>
</g>
</g>
<!-- Node10&#45;&gt;Node10 -->
<g id="edge11_Node000010_Node000010" class="edge">
<title>Node10&#45;&gt;Node10</title>
<g id="a_edge11_Node000010_Node000010"><a xlink:title=" ">
<path fill="none" stroke="#63b8ff" d="M381.58,-74.54C369.24,-83.15 378.26,-92.25 408.62,-92.25 425.71,-92.25 436.03,-89.37 439.6,-85.32"/>
<polygon fill="#63b8ff" stroke="#63b8ff" points="442.9,-84.16 436.19,-75.96 436.33,-86.55 442.9,-84.16"/>
</a>
</g>
</g>
<!-- Node12 -->
<g id="Node000012" class="node">
<title>Node12</title>
<g id="a_Node000012"><a xlink:href="class_t_m_c2130_stepper.html#a5c38cecab1bea081e85481f6ea107d42" target="_top" xlink:title=" ">
<polygon fill="white" stroke="#666666" points="465,-19.25 352.25,-19.25 352.25,0 465,0 465,-19.25"/>
<text text-anchor="middle" x="408.62" y="-5.75" font-family="Helvetica,sans-Serif" font-size="10.00">TMC2130Stepper::toff</text>
</a>
</g>
</g>
<!-- Node11&#45;&gt;Node12 -->
<g id="edge13_Node000011_Node000012" class="edge">
<title>Node11&#45;&gt;Node12</title>
<g id="a_edge13_Node000011_Node000012"><a xlink:title=" ">
<path fill="none" stroke="#63b8ff" d="M292.31,-15.7C307.67,-14.89 324.51,-14.01 340.46,-13.17"/>
<polygon fill="#63b8ff" stroke="#63b8ff" points="340.57,-16.66 350.37,-12.64 340.2,-9.67 340.57,-16.66"/>
</a>
</g>
</g>
<!-- Node12&#45;&gt;Node12 -->
<g id="edge14_Node000012_Node000012" class="edge">
<title>Node12&#45;&gt;Node12</title>
<g id="a_edge14_Node000012_Node000012"><a xlink:title=" ">
<path fill="none" stroke="#63b8ff" d="M381.58,-19.54C369.24,-28.15 378.26,-37.25 408.62,-37.25 425.71,-37.25 436.03,-34.37 439.6,-30.32"/>
<polygon fill="#63b8ff" stroke="#63b8ff" points="442.9,-29.16 436.19,-20.96 436.33,-31.55 442.9,-29.16"/>
</a>
</g>
</g>
</g>
</svg>
