<?xml version="1.0" encoding="UTF-8" standalone="no"?>
<!DOCTYPE svg PUBLIC "-//W3C//DTD SVG 1.1//EN"
 "http://www.w3.org/Graphics/SVG/1.1/DTD/svg11.dtd">
<!-- Generated by graphviz version 12.2.1 (20241206.2353)
 -->
<!-- Title: TMC2240Stepper::current_range Pages: 1 -->
<svg width="301pt" height="57pt"
 viewBox="0.00 0.00 301.00 56.50" xmlns="http://www.w3.org/2000/svg" xmlns:xlink="http://www.w3.org/1999/xlink">
<g id="graph0" class="graph" transform="scale(1 1) rotate(0) translate(4 52.5)">
<title>TMC2240Stepper::current_range</title>
<!-- Node1 -->
<g id="Node000001" class="node">
<title>Node1</title>
<g id="a_Node000001"><a xlink:title=" ">
<polygon fill="#999999" stroke="#666666" points="293,-30.5 164.5,-30.5 164.5,0 293,0 293,-30.5"/>
<text text-anchor="start" x="172.5" y="-17" font-family="Helvetica,sans-Serif" font-size="10.00">TMC2240Stepper::current</text>
<text text-anchor="middle" x="228.75" y="-5.75" font-family="Helvetica,sans-Serif" font-size="10.00">_range</text>
</a>
</g>
</g>
<!-- Node1&#45;&gt;Node1 -->
<g id="edge2_Node000001_Node000001" class="edge">
<title>Node1&#45;&gt;Node1</title>
<g id="a_edge2_Node000001_Node000001"><a xlink:title=" ">
<path fill="none" stroke="#63b8ff" d="M256.34,-42.2C251.83,-45.97 242.63,-48.5 228.75,-48.5 203.37,-48.5 193.65,-40.06 199.6,-30.99"/>
<polygon fill="#63b8ff" stroke="#63b8ff" points="259.78,-42.87 257.69,-32.48 252.84,-41.91 259.78,-42.87"/>
</a>
</g>
</g>
<!-- Node2 -->
<g id="Node000002" class="node">
<title>Node2</title>
<g id="a_Node000002"><a xlink:href="class_t_m_c2240_stepper.html#a21b038637466620f5b002f57f5599289" target="_top" xlink:title=" ">
<polygon fill="white" stroke="#666666" points="128.5,-30.5 0,-30.5 0,0 128.5,0 128.5,-30.5"/>
<text text-anchor="start" x="8" y="-17" font-family="Helvetica,sans-Serif" font-size="10.00">TMC2240Stepper::current</text>
<text text-anchor="middle" x="64.25" y="-5.75" font-family="Helvetica,sans-Serif" font-size="10.00">_range</text>
</a>
</g>
</g>
<!-- Node1&#45;&gt;Node2 -->
<g id="edge1_Node000001_Node000002" class="edge">
<title>Node1&#45;&gt;Node2</title>
<g id="a_edge1_Node000001_Node000002"><a xlink:title=" ">
<path fill="none" stroke="#63b8ff" d="M153.11,-15.25C145.02,-15.25 136.85,-15.25 128.9,-15.25"/>
<polygon fill="#63b8ff" stroke="#63b8ff" points="152.94,-18.75 162.94,-15.25 152.94,-11.75 152.94,-18.75"/>
</a>
</g>
</g>
</g>
</svg>
