<?xml version="1.0" encoding="UTF-8" standalone="no"?>
<!DOCTYPE svg PUBLIC "-//W3C//DTD SVG 1.1//EN"
 "http://www.w3.org/Graphics/SVG/1.1/DTD/svg11.dtd">
<!-- Generated by graphviz version 12.2.1 (20241206.2353)
 -->
<!-- Title: TMC2160Stepper::GLOBAL_SCALER Pages: 1 -->
<svg width="614pt" height="193pt"
 viewBox="0.00 0.00 614.25 192.50" xmlns="http://www.w3.org/2000/svg" xmlns:xlink="http://www.w3.org/1999/xlink">
<g id="graph0" class="graph" transform="scale(1 1) rotate(0) translate(4 188.5)">
<title>TMC2160Stepper::GLOBAL_SCALER</title>
<!-- Node1 -->
<g id="Node000001" class="node">
<title>Node1</title>
<g id="a_Node000001"><a xlink:title=" ">
<polygon fill="#999999" stroke="#666666" points="606.25,-73.5 468.75,-73.5 468.75,-43 606.25,-43 606.25,-73.5"/>
<text text-anchor="start" x="476.75" y="-60" font-family="Helvetica,sans-Serif" font-size="10.00">TMC2160Stepper::GLOBAL</text>
<text text-anchor="middle" x="537.5" y="-48.75" font-family="Helvetica,sans-Serif" font-size="10.00">_SCALER</text>
</a>
</g>
</g>
<!-- Node2 -->
<g id="Node000002" class="node">
<title>Node2</title>
<g id="a_Node000002"><a xlink:href="class_t_m_c2160_stepper.html#a6c84af7f87af2c616de8a6a288309ecb" target="_top" xlink:title=" ">
<polygon fill="white" stroke="#666666" points="432.75,-104.88 302,-104.88 302,-85.62 432.75,-85.62 432.75,-104.88"/>
<text text-anchor="middle" x="367.38" y="-91.38" font-family="Helvetica,sans-Serif" font-size="10.00">TMC2160Stepper::cs2rms</text>
</a>
</g>
</g>
<!-- Node1&#45;&gt;Node2 -->
<g id="edge1_Node000001_Node000002" class="edge">
<title>Node1&#45;&gt;Node2</title>
<g id="a_edge1_Node000001_Node000002"><a xlink:title=" ">
<path fill="none" stroke="#63b8ff" d="M457.39,-75.66C442.65,-78.9 427.7,-82.19 414.36,-85.13"/>
<polygon fill="#63b8ff" stroke="#63b8ff" points="458.11,-79.09 467.12,-73.52 456.6,-72.25 458.11,-79.09"/>
</a>
</g>
</g>
<!-- Node8 -->
<g id="Node000008" class="node">
<title>Node8</title>
<g id="a_Node000008"><a xlink:href="class_t_m_c2160_stepper.html#ae8035a0cb8151d5227d8528e540e637d" target="_top" xlink:title=" ">
<polygon fill="white" stroke="#666666" points="427.12,-67.88 307.62,-67.88 307.62,-48.62 427.12,-48.62 427.12,-67.88"/>
<text text-anchor="middle" x="367.38" y="-54.38" font-family="Helvetica,sans-Serif" font-size="10.00">TMC2160Stepper::push</text>
</a>
</g>
</g>
<!-- Node1&#45;&gt;Node8 -->
<g id="edge7_Node000001_Node000008" class="edge">
<title>Node1&#45;&gt;Node8</title>
<g id="a_edge7_Node000001_Node000008"><a xlink:title=" ">
<path fill="none" stroke="#63b8ff" d="M457.36,-58.25C447.34,-58.25 437.23,-58.25 427.6,-58.25"/>
<polygon fill="#63b8ff" stroke="#63b8ff" points="457.09,-61.75 467.09,-58.25 457.09,-54.75 457.09,-61.75"/>
</a>
</g>
</g>
<!-- Node9 -->
<g id="Node000009" class="node">
<title>Node9</title>
<g id="a_Node000009"><a xlink:href="class_t_m_c2160_stepper.html#a90a23ccb351310ef8f74a6a9f7953042" target="_top" xlink:title=" ">
<polygon fill="white" stroke="#666666" points="424.88,-30.5 309.88,-30.5 309.88,0 424.88,0 424.88,-30.5"/>
<text text-anchor="start" x="317.88" y="-17" font-family="Helvetica,sans-Serif" font-size="10.00">TMC2160Stepper::rms</text>
<text text-anchor="middle" x="367.38" y="-5.75" font-family="Helvetica,sans-Serif" font-size="10.00">_current</text>
</a>
</g>
</g>
<!-- Node1&#45;&gt;Node9 -->
<g id="edge8_Node000001_Node000009" class="edge">
<title>Node1&#45;&gt;Node9</title>
<g id="a_edge8_Node000001_Node000009"><a xlink:title=" ">
<path fill="none" stroke="#63b8ff" d="M464.46,-39.82C451.37,-36.48 437.88,-33.03 425.31,-29.81"/>
<polygon fill="#63b8ff" stroke="#63b8ff" points="463.31,-43.14 473.86,-42.23 465.04,-36.36 463.31,-43.14"/>
</a>
</g>
</g>
<!-- Node3 -->
<g id="Node000003" class="node">
<title>Node3</title>
<g id="a_Node000003"><a xlink:href="class_t_m_c2160_stepper.html#a05142aa741a7ebd105a13df39fba9d91" target="_top" xlink:title=" ">
<polygon fill="white" stroke="#666666" points="266,-110.5 151,-110.5 151,-80 266,-80 266,-110.5"/>
<text text-anchor="start" x="159" y="-97" font-family="Helvetica,sans-Serif" font-size="10.00">TMC2160Stepper::rms</text>
<text text-anchor="middle" x="208.5" y="-85.75" font-family="Helvetica,sans-Serif" font-size="10.00">_current</text>
</a>
</g>
</g>
<!-- Node2&#45;&gt;Node3 -->
<g id="edge2_Node000002_Node000003" class="edge">
<title>Node2&#45;&gt;Node3</title>
<g id="a_edge2_Node000002_Node000003"><a xlink:title=" ">
<path fill="none" stroke="#63b8ff" d="M290.21,-95.25C282.07,-95.25 273.9,-95.25 266.05,-95.25"/>
<polygon fill="#63b8ff" stroke="#63b8ff" points="290.15,-98.75 300.15,-95.25 290.15,-91.75 290.15,-98.75"/>
</a>
</g>
</g>
<!-- Node4 -->
<g id="Node000004" class="node">
<title>Node4</title>
<g id="a_Node000004"><a xlink:href="class_t_m_c2160_stepper.html#ae0ad4338d65b9a91e1c1c39ffaff8931" target="_top" xlink:title=" ">
<polygon fill="white" stroke="#666666" points="115,-184.5 0,-184.5 0,-154 115,-154 115,-184.5"/>
<text text-anchor="start" x="8" y="-171" font-family="Helvetica,sans-Serif" font-size="10.00">TMC2160Stepper::rms</text>
<text text-anchor="middle" x="57.5" y="-159.75" font-family="Helvetica,sans-Serif" font-size="10.00">_current</text>
</a>
</g>
</g>
<!-- Node3&#45;&gt;Node4 -->
<g id="edge3_Node000003_Node000004" class="edge">
<title>Node3&#45;&gt;Node4</title>
<g id="a_edge3_Node000003_Node000004"><a xlink:title=" ">
<path fill="none" stroke="#63b8ff" d="M169.54,-116.13C152.94,-125.07 133.14,-135.44 115,-144.25 108.53,-147.39 101.58,-150.6 94.84,-153.62"/>
<polygon fill="#63b8ff" stroke="#63b8ff" points="170.97,-119.34 178.1,-111.5 167.63,-113.19 170.97,-119.34"/>
</a>
</g>
</g>
<!-- Node5 -->
<g id="Node000005" class="node">
<title>Node5</title>
<g id="a_Node000005"><a xlink:href="class_t_m_c5160_stepper.html#a9f6a380188fef3b4f8360744cf0e9bab" target="_top" xlink:title=" ">
<polygon fill="white" stroke="#666666" points="115,-135.5 0,-135.5 0,-105 115,-105 115,-135.5"/>
<text text-anchor="start" x="8" y="-122" font-family="Helvetica,sans-Serif" font-size="10.00">TMC5160Stepper::rms</text>
<text text-anchor="middle" x="57.5" y="-110.75" font-family="Helvetica,sans-Serif" font-size="10.00">_current</text>
</a>
</g>
</g>
<!-- Node3&#45;&gt;Node5 -->
<g id="edge4_Node000003_Node000005" class="edge">
<title>Node3&#45;&gt;Node5</title>
<g id="a_edge4_Node000003_Node000005"><a xlink:title=" ">
<path fill="none" stroke="#63b8ff" d="M139.65,-106.63C131.44,-108.01 123.12,-109.41 115.1,-110.75"/>
<polygon fill="#63b8ff" stroke="#63b8ff" points="139.97,-110.13 149.25,-105.02 138.81,-103.23 139.97,-110.13"/>
</a>
</g>
</g>
<!-- Node6 -->
<g id="Node000006" class="node">
<title>Node6</title>
<g id="a_Node000006"><a xlink:href="class_t_m_c5160_stepper.html#a0ab41c6b35c37c0948b5ebb1d6aa1ba6" target="_top" xlink:title=" ">
<polygon fill="white" stroke="#666666" points="115,-86.5 0,-86.5 0,-56 115,-56 115,-86.5"/>
<text text-anchor="start" x="8" y="-73" font-family="Helvetica,sans-Serif" font-size="10.00">TMC5160Stepper::rms</text>
<text text-anchor="middle" x="57.5" y="-61.75" font-family="Helvetica,sans-Serif" font-size="10.00">_current</text>
</a>
</g>
</g>
<!-- Node3&#45;&gt;Node6 -->
<g id="edge5_Node000003_Node000006" class="edge">
<title>Node3&#45;&gt;Node6</title>
<g id="a_edge5_Node000003_Node000006"><a xlink:title=" ">
<path fill="none" stroke="#63b8ff" d="M139.65,-84.32C131.44,-83 123.12,-81.66 115.1,-80.37"/>
<polygon fill="#63b8ff" stroke="#63b8ff" points="138.82,-87.73 149.25,-85.87 139.93,-80.82 138.82,-87.73"/>
</a>
</g>
</g>
<!-- Node7 -->
<g id="Node000007" class="node">
<title>Node7</title>
<g id="a_Node000007"><a xlink:href="class_t_m_c5160_stepper.html#af3dbae2b21002c091e1c786f2f3df6a4" target="_top" xlink:title=" ">
<polygon fill="white" stroke="#666666" points="115,-37.5 0,-37.5 0,-7 115,-7 115,-37.5"/>
<text text-anchor="start" x="8" y="-24" font-family="Helvetica,sans-Serif" font-size="10.00">TMC5160Stepper::rms</text>
<text text-anchor="middle" x="57.5" y="-12.75" font-family="Helvetica,sans-Serif" font-size="10.00">_current</text>
</a>
</g>
</g>
<!-- Node3&#45;&gt;Node7 -->
<g id="edge6_Node000003_Node000007" class="edge">
<title>Node3&#45;&gt;Node7</title>
<g id="a_edge6_Node000003_Node000007"><a xlink:title=" ">
<path fill="none" stroke="#63b8ff" d="M168.75,-74.46C152.3,-65.81 132.83,-55.81 115,-47.25 108.52,-44.14 101.56,-40.94 94.82,-37.92"/>
<polygon fill="#63b8ff" stroke="#63b8ff" points="166.76,-77.37 177.23,-78.94 170.03,-71.18 166.76,-77.37"/>
</a>
</g>
</g>
</g>
</svg>
