<?xml version="1.0" encoding="UTF-8" standalone="no"?>
<!DOCTYPE svg PUBLIC "-//W3C//DTD SVG 1.1//EN"
 "http://www.w3.org/Graphics/SVG/1.1/DTD/svg11.dtd">
<!-- Generated by graphviz version 12.2.1 (20241206.2353)
 -->
<!-- Title: TMC2660Stepper::DRV_STATUS Pages: 1 -->
<svg width="669pt" height="82pt"
 viewBox="0.00 0.00 669.00 82.25" xmlns="http://www.w3.org/2000/svg" xmlns:xlink="http://www.w3.org/1999/xlink">
<g id="graph0" class="graph" transform="scale(1 1) rotate(0) translate(4 78.25)">
<title>TMC2660Stepper::DRV_STATUS</title>
<!-- Node1 -->
<g id="Node000001" class="node">
<title>Node1</title>
<g id="a_Node000001"><a xlink:title=" ">
<polygon fill="#999999" stroke="#666666" points="120.25,-42.88 0,-42.88 0,-12.37 120.25,-12.37 120.25,-42.88"/>
<text text-anchor="start" x="8" y="-29.38" font-family="Helvetica,sans-Serif" font-size="10.00">TMC2660Stepper::DRV</text>
<text text-anchor="middle" x="60.12" y="-18.12" font-family="Helvetica,sans-Serif" font-size="10.00">_STATUS</text>
</a>
</g>
</g>
<!-- Node2 -->
<g id="Node000002" class="node">
<title>Node2</title>
<g id="a_Node000002"><a xlink:href="class_t_m_c2660_stepper.html#a124bab76346c3c6c17f812e8c4ad7a5c" target="_top" xlink:title=" ">
<polygon fill="white" stroke="#666666" points="315.5,-37.25 156.25,-37.25 156.25,-18 315.5,-18 315.5,-37.25"/>
<text text-anchor="middle" x="235.88" y="-23.75" font-family="Helvetica,sans-Serif" font-size="10.00">TMC2660Stepper::DRVSTATUS</text>
</a>
</g>
</g>
<!-- Node1&#45;&gt;Node2 -->
<g id="edge1_Node000001_Node000002" class="edge">
<title>Node1&#45;&gt;Node2</title>
<g id="a_edge1_Node000001_Node000002"><a xlink:title=" ">
<path fill="none" stroke="#63b8ff" d="M120.43,-27.62C128.18,-27.62 136.26,-27.62 144.38,-27.62"/>
<polygon fill="#63b8ff" stroke="#63b8ff" points="144.35,-31.13 154.35,-27.63 144.35,-24.13 144.35,-31.13"/>
</a>
</g>
</g>
<!-- Node3 -->
<g id="Node000003" class="node">
<title>Node3</title>
<g id="a_Node000003"><a xlink:href="class_t_m_c2660_stepper.html#a4fa131ecb1e0e0436abff079c44eee5b" target="_top" xlink:title=" ">
<polygon fill="white" stroke="#666666" points="471,-56.25 351.5,-56.25 351.5,-37 471,-37 471,-56.25"/>
<text text-anchor="middle" x="411.25" y="-42.75" font-family="Helvetica,sans-Serif" font-size="10.00">TMC2660Stepper::rdsel</text>
</a>
</g>
</g>
<!-- Node2&#45;&gt;Node3 -->
<g id="edge2_Node000002_Node000003" class="edge">
<title>Node2&#45;&gt;Node3</title>
<g id="a_edge2_Node000002_Node000003"><a xlink:title=" ">
<path fill="none" stroke="#63b8ff" d="M315.95,-36.29C323.87,-37.16 331.88,-38.04 339.7,-38.89"/>
<polygon fill="#63b8ff" stroke="#63b8ff" points="339.18,-42.36 349.5,-39.97 339.94,-35.4 339.18,-42.36"/>
</a>
</g>
</g>
<!-- Node5 -->
<g id="Node000005" class="node">
<title>Node5</title>
<g id="a_Node000005"><a xlink:href="class_t_m_c2660_stepper.html#aba43e2af829abee9e029bdd43bde5f61" target="_top" xlink:title=" ">
<polygon fill="white" stroke="#666666" points="469.88,-19.25 352.62,-19.25 352.62,0 469.88,0 469.88,-19.25"/>
<text text-anchor="middle" x="411.25" y="-5.75" font-family="Helvetica,sans-Serif" font-size="10.00">TMC2660Stepper::read</text>
</a>
</g>
</g>
<!-- Node2&#45;&gt;Node5 -->
<g id="edge5_Node000002_Node000005" class="edge">
<title>Node2&#45;&gt;Node5</title>
<g id="a_edge5_Node000002_Node000005"><a xlink:title=" ">
<path fill="none" stroke="#63b8ff" d="M315.95,-19.42C324.27,-18.55 332.68,-17.68 340.87,-16.83"/>
<polygon fill="#63b8ff" stroke="#63b8ff" points="341.19,-20.31 350.78,-15.8 340.47,-13.35 341.19,-20.31"/>
</a>
</g>
</g>
<!-- Node4 -->
<g id="Node000004" class="node">
<title>Node4</title>
<g id="a_Node000004"><a xlink:href="class_t_m_c2660_stepper.html#a0f6ee76b23deb7f6d5af711d9b9e2452" target="_top" xlink:title=" ">
<polygon fill="white" stroke="#666666" points="643.75,-56.25 524.25,-56.25 524.25,-37 643.75,-37 643.75,-56.25"/>
<text text-anchor="middle" x="584" y="-42.75" font-family="Helvetica,sans-Serif" font-size="10.00">TMC2660Stepper::rdsel</text>
</a>
</g>
</g>
<!-- Node3&#45;&gt;Node4 -->
<g id="edge3_Node000003_Node000004" class="edge">
<title>Node3&#45;&gt;Node4</title>
<g id="a_edge3_Node000003_Node000004"><a xlink:title=" ">
<path fill="none" stroke="#63b8ff" d="M471.49,-46.62C484.74,-46.62 498.91,-46.62 512.56,-46.62"/>
<polygon fill="#63b8ff" stroke="#63b8ff" points="512.35,-50.13 522.35,-46.63 512.35,-43.13 512.35,-50.13"/>
</a>
</g>
</g>
<!-- Node4&#45;&gt;Node4 -->
<g id="edge4_Node000004_Node000004" class="edge">
<title>Node4&#45;&gt;Node4</title>
<g id="a_edge4_Node000004_Node000004"><a xlink:title=" ">
<path fill="none" stroke="#63b8ff" d="M556.96,-56.54C544.62,-65.15 553.63,-74.25 584,-74.25 601.08,-74.25 611.41,-71.37 614.98,-67.32"/>
<polygon fill="#63b8ff" stroke="#63b8ff" points="618.28,-66.16 611.56,-57.96 611.7,-68.55 618.28,-66.16"/>
</a>
</g>
</g>
<!-- Node6 -->
<g id="Node000006" class="node">
<title>Node6</title>
<g id="a_Node000006"><a xlink:href="class_t_m_c2660_stepper.html#a63505ee4078e1f060a2ccecc30f228bd" target="_top" xlink:title=" ">
<polygon fill="white" stroke="#666666" points="661,-19.25 507,-19.25 507,0 661,0 661,-19.25"/>
<text text-anchor="middle" x="584" y="-5.75" font-family="Helvetica,sans-Serif" font-size="10.00">TMC2660Stepper::switchCSpin</text>
</a>
</g>
</g>
<!-- Node5&#45;&gt;Node6 -->
<g id="edge6_Node000005_Node000006" class="edge">
<title>Node5&#45;&gt;Node6</title>
<g id="a_edge6_Node000005_Node000006"><a xlink:title=" ">
<path fill="none" stroke="#63b8ff" d="M470.06,-9.62C478.27,-9.62 486.85,-9.62 495.47,-9.62"/>
<polygon fill="#63b8ff" stroke="#63b8ff" points="495.27,-13.13 505.27,-9.63 495.27,-6.13 495.27,-13.13"/>
</a>
</g>
</g>
</g>
</svg>
