<?xml version="1.0" encoding="UTF-8" standalone="no"?>
<!DOCTYPE svg PUBLIC "-//W3C//DTD SVG 1.1//EN"
 "http://www.w3.org/Graphics/SVG/1.1/DTD/svg11.dtd">
<!-- Generated by graphviz version 12.2.1 (20241206.2353)
 -->
<!-- Title: TMC2240Stepper::write Pages: 1 -->
<svg width="514pt" height="811pt"
 viewBox="0.00 0.00 513.50 810.88" xmlns="http://www.w3.org/2000/svg" xmlns:xlink="http://www.w3.org/1999/xlink">
<g id="graph0" class="graph" transform="scale(1 1) rotate(0) translate(4 806.88)">
<title>TMC2240Stepper::write</title>
<!-- Node1 -->
<g id="Node000001" class="node">
<title>Node1</title>
<g id="a_Node000001"><a xlink:title=" ">
<polygon fill="#999999" stroke="#666666" points="505.5,-404.25 386,-404.25 386,-385 505.5,-385 505.5,-404.25"/>
<text text-anchor="middle" x="445.75" y="-390.75" font-family="Helvetica,sans-Serif" font-size="10.00">TMC2240Stepper::write</text>
</a>
</g>
</g>
<!-- Node2 -->
<g id="Node000002" class="node">
<title>Node2</title>
<g id="a_Node000002"><a xlink:href="class_t_m_c2240_stepper.html#ac8fbea3ed1dca04498e80ce46ed1448c" target="_top" xlink:title=" ">
<polygon fill="white" stroke="#666666" points="340.62,-791.25 184.38,-791.25 184.38,-772 340.62,-772 340.62,-791.25"/>
<text text-anchor="middle" x="262.5" y="-777.75" font-family="Helvetica,sans-Serif" font-size="10.00">TMC2240Stepper::CHOPCONF</text>
</a>
</g>
</g>
<!-- Node1&#45;&gt;Node2 -->
<g id="edge1_Node000001_Node000002" class="edge">
<title>Node1&#45;&gt;Node2</title>
<g id="a_edge1_Node000001_Node000002"><a xlink:title=" ">
<path fill="none" stroke="#63b8ff" d="M445.55,-415.86C446.66,-476.61 441.43,-653.12 350,-751.62 341.46,-760.83 329.95,-767.21 318.12,-771.63"/>
<polygon fill="#63b8ff" stroke="#63b8ff" points="449.06,-416.13 445.29,-406.23 442.06,-416.32 449.06,-416.13"/>
</a>
</g>
</g>
<!-- Node4 -->
<g id="Node000004" class="node">
<title>Node4</title>
<g id="a_Node000004"><a xlink:href="class_t_m_c2240_stepper.html#addfe2192ef83904c049c7e93d5b5fd32" target="_top" xlink:title=" ">
<polygon fill="white" stroke="#666666" points="339.5,-742.25 185.5,-742.25 185.5,-723 339.5,-723 339.5,-742.25"/>
<text text-anchor="middle" x="262.5" y="-728.75" font-family="Helvetica,sans-Serif" font-size="10.00">TMC2240Stepper::DRV_CONF</text>
</a>
</g>
</g>
<!-- Node1&#45;&gt;Node4 -->
<g id="edge3_Node000001_Node000004" class="edge">
<title>Node1&#45;&gt;Node4</title>
<g id="a_edge3_Node000001_Node000004"><a xlink:title=" ">
<path fill="none" stroke="#63b8ff" d="M444.7,-415.8C443.41,-471.4 432.1,-622.96 350,-705.62 342.46,-713.22 332.82,-718.68 322.74,-722.61"/>
<polygon fill="#63b8ff" stroke="#63b8ff" points="448.2,-416.19 444.83,-406.14 441.2,-416.1 448.2,-416.19"/>
</a>
</g>
</g>
<!-- Node6 -->
<g id="Node000006" class="node">
<title>Node6</title>
<g id="a_Node000006"><a xlink:href="class_t_m_c2240_stepper.html#af14b21952c179e34ef44de119a12826a" target="_top" xlink:title=" ">
<polygon fill="white" stroke="#666666" points="329.75,-696.25 195.25,-696.25 195.25,-677 329.75,-677 329.75,-696.25"/>
<text text-anchor="middle" x="262.5" y="-682.75" font-family="Helvetica,sans-Serif" font-size="10.00">TMC2240Stepper::GCONF</text>
</a>
</g>
</g>
<!-- Node1&#45;&gt;Node6 -->
<g id="edge5_Node000001_Node000006" class="edge">
<title>Node1&#45;&gt;Node6</title>
<g id="a_edge5_Node000001_Node000006"><a xlink:title=" ">
<path fill="none" stroke="#63b8ff" d="M443.81,-415.91C440.36,-466.86 424.33,-596.59 350,-664.62 344.17,-669.96 337.23,-674.04 329.85,-677.16"/>
<polygon fill="#63b8ff" stroke="#63b8ff" points="447.3,-416.19 444.37,-406.01 440.31,-415.79 447.3,-416.19"/>
</a>
</g>
</g>
<!-- Node8 -->
<g id="Node000008" class="node">
<title>Node8</title>
<g id="a_Node000008"><a xlink:href="class_t_m_c2240_stepper.html#a6b2ad33234efd82e0b6d7334e3edc94d" target="_top" xlink:title=" ">
<polygon fill="white" stroke="#666666" points="331.25,-655.88 193.75,-655.88 193.75,-625.38 331.25,-625.38 331.25,-655.88"/>
<text text-anchor="start" x="201.75" y="-642.38" font-family="Helvetica,sans-Serif" font-size="10.00">TMC2240Stepper::GLOBAL</text>
<text text-anchor="middle" x="262.5" y="-631.12" font-family="Helvetica,sans-Serif" font-size="10.00">_SCALER</text>
</a>
</g>
</g>
<!-- Node1&#45;&gt;Node8 -->
<g id="edge7_Node000001_Node000008" class="edge">
<title>Node1&#45;&gt;Node8</title>
<g id="a_edge7_Node000001_Node000008"><a xlink:title=" ">
<path fill="none" stroke="#63b8ff" d="M441.92,-415.56C434.86,-459.58 412.28,-562.11 350,-616.62 344.61,-621.35 338.36,-625.15 331.74,-628.2"/>
<polygon fill="#63b8ff" stroke="#63b8ff" points="445.36,-416.24 443.37,-405.84 438.44,-415.22 445.36,-416.24"/>
</a>
</g>
</g>
<!-- Node10 -->
<g id="Node000010" class="node">
<title>Node10</title>
<g id="a_Node000010"><a xlink:href="class_t_m_c2240_stepper.html#aa4ee4f883166d02611a101ef05a033ac" target="_top" xlink:title=" ">
<polygon fill="white" stroke="#666666" points="327.88,-607.25 197.12,-607.25 197.12,-588 327.88,-588 327.88,-607.25"/>
<text text-anchor="middle" x="262.5" y="-593.75" font-family="Helvetica,sans-Serif" font-size="10.00">TMC2240Stepper::GSTAT</text>
</a>
</g>
</g>
<!-- Node1&#45;&gt;Node10 -->
<g id="edge9_Node000001_Node000010" class="edge">
<title>Node1&#45;&gt;Node10</title>
<g id="a_edge9_Node000001_Node000010"><a xlink:title=" ">
<path fill="none" stroke="#63b8ff" d="M440.24,-415.79C430.79,-454.75 405.04,-537.67 350,-579.62 343.53,-584.55 336.04,-588.21 328.22,-590.92"/>
<polygon fill="#63b8ff" stroke="#63b8ff" points="443.65,-416.59 442.47,-406.06 436.83,-415.03 443.65,-416.59"/>
</a>
</g>
</g>
<!-- Node12 -->
<g id="Node000012" class="node">
<title>Node12</title>
<g id="a_Node000012"><a xlink:href="class_t_m_c2240_stepper.html#a1354d44a726598d415b636ae77527edb" target="_top" xlink:title=" ">
<polygon fill="white" stroke="#666666" points="342.5,-570.25 182.5,-570.25 182.5,-551 342.5,-551 342.5,-570.25"/>
<text text-anchor="middle" x="262.5" y="-556.75" font-family="Helvetica,sans-Serif" font-size="10.00">TMC2240Stepper::IHOLD_IRUN</text>
</a>
</g>
</g>
<!-- Node1&#45;&gt;Node12 -->
<g id="edge11_Node000001_Node000012" class="edge">
<title>Node1&#45;&gt;Node12</title>
<g id="a_edge11_Node000001_Node000012"><a xlink:title=" ">
<path fill="none" stroke="#63b8ff" d="M437.7,-414.94C425.34,-447.4 396.54,-510.56 350,-542.62 345.45,-545.76 340.47,-548.37 335.27,-550.53"/>
<polygon fill="#63b8ff" stroke="#63b8ff" points="440.86,-416.5 441,-405.91 434.28,-414.1 440.86,-416.5"/>
</a>
</g>
</g>
<!-- Node14 -->
<g id="Node000014" class="node">
<title>Node14</title>
<g id="a_Node000014"><a xlink:href="class_t_m_c2240_stepper.html#a2c51f71f9dc18e1d5394578136cc2a8b" target="_top" xlink:title=" ">
<polygon fill="white" stroke="#666666" points="340.62,-533.25 184.38,-533.25 184.38,-514 340.62,-514 340.62,-533.25"/>
<text text-anchor="middle" x="262.5" y="-519.75" font-family="Helvetica,sans-Serif" font-size="10.00">TMC2240Stepper::NODECONF</text>
</a>
</g>
</g>
<!-- Node1&#45;&gt;Node14 -->
<g id="edge13_Node000001_Node000014" class="edge">
<title>Node1&#45;&gt;Node14</title>
<g id="a_edge13_Node000001_Node000014"><a xlink:title=" ">
<path fill="none" stroke="#63b8ff" d="M433.44,-414.28C417.94,-439.35 387.69,-482.14 350,-504.62 343.93,-508.25 337.24,-511.18 330.36,-513.56"/>
<polygon fill="#63b8ff" stroke="#63b8ff" points="436.24,-416.41 438.38,-406.03 430.24,-412.81 436.24,-416.41"/>
</a>
</g>
</g>
<!-- Node16 -->
<g id="Node000016" class="node">
<title>Node16</title>
<g id="a_Node000016"><a xlink:href="class_t_m_c2240_stepper.html#ae6127c0784a607b28b2ca9b2090d105c" target="_top" xlink:title=" ">
<polygon fill="white" stroke="#666666" points="323.38,-495.88 201.62,-495.88 201.62,-465.38 323.38,-465.38 323.38,-495.88"/>
<text text-anchor="start" x="209.62" y="-482.38" font-family="Helvetica,sans-Serif" font-size="10.00">TMC2240Stepper::OTW</text>
<text text-anchor="middle" x="262.5" y="-471.12" font-family="Helvetica,sans-Serif" font-size="10.00">_OV_VTH</text>
</a>
</g>
</g>
<!-- Node1&#45;&gt;Node16 -->
<g id="edge15_Node000001_Node000016" class="edge">
<title>Node1&#45;&gt;Node16</title>
<g id="a_edge15_Node000001_Node000016"><a xlink:title=" ">
<path fill="none" stroke="#63b8ff" d="M423.3,-411.45C404.79,-425.26 376.87,-444.46 350,-456.62 341.62,-460.42 332.51,-463.74 323.45,-466.6"/>
<polygon fill="#63b8ff" stroke="#63b8ff" points="425.26,-414.35 431.1,-405.51 421.02,-408.78 425.26,-414.35"/>
</a>
</g>
</g>
<!-- Node17 -->
<g id="Node000017" class="node">
<title>Node17</title>
<g id="a_Node000017"><a xlink:href="class_t_m_c2240_stepper.html#adf383c51bd00c42884ffb5b9677636c4" target="_top" xlink:title=" ">
<polygon fill="white" stroke="#666666" points="338.38,-447.25 186.62,-447.25 186.62,-428 338.38,-428 338.38,-447.25"/>
<text text-anchor="middle" x="262.5" y="-433.75" font-family="Helvetica,sans-Serif" font-size="10.00">TMC2240Stepper::PWMCONF</text>
</a>
</g>
</g>
<!-- Node1&#45;&gt;Node17 -->
<g id="edge16_Node000001_Node000017" class="edge">
<title>Node1&#45;&gt;Node17</title>
<g id="a_edge16_Node000001_Node000017"><a xlink:title=" ">
<path fill="none" stroke="#63b8ff" d="M395.28,-407.47C380.72,-411.17 364.74,-415.14 350,-418.62 337.28,-421.63 323.47,-424.74 310.7,-427.54"/>
<polygon fill="#63b8ff" stroke="#63b8ff" points="395.8,-410.95 404.63,-405.09 394.07,-404.17 395.8,-410.95"/>
</a>
</g>
</g>
<!-- Node19 -->
<g id="Node000019" class="node">
<title>Node19</title>
<g id="a_Node000019"><a xlink:href="class_t_m_c2240_stepper.html#a63df54b3cd20b3b25b7aa832c9ace4d9" target="_top" xlink:title=" ">
<polygon fill="white" stroke="#666666" points="331.25,-409.88 193.75,-409.88 193.75,-379.38 331.25,-379.38 331.25,-409.88"/>
<text text-anchor="start" x="201.75" y="-396.38" font-family="Helvetica,sans-Serif" font-size="10.00">TMC2240Stepper::set</text>
<text text-anchor="middle" x="262.5" y="-385.12" font-family="Helvetica,sans-Serif" font-size="10.00">_overtemp_prewarn_celsius</text>
</a>
</g>
</g>
<!-- Node1&#45;&gt;Node19 -->
<g id="edge18_Node000001_Node000019" class="edge">
<title>Node1&#45;&gt;Node19</title>
<g id="a_edge18_Node000001_Node000019"><a xlink:title=" ">
<path fill="none" stroke="#63b8ff" d="M374.53,-394.62C360.44,-394.62 345.66,-394.62 331.64,-394.62"/>
<polygon fill="#63b8ff" stroke="#63b8ff" points="374.14,-398.13 384.14,-394.63 374.14,-391.13 374.14,-398.13"/>
</a>
</g>
</g>
<!-- Node20 -->
<g id="Node000020" class="node">
<title>Node20</title>
<g id="a_Node000020"><a xlink:href="class_t_m_c2240_stepper.html#a5c1c69f365c8980031a747fd84787db0" target="_top" xlink:title=" ">
<polygon fill="white" stroke="#666666" points="320.75,-361.5 204.25,-361.5 204.25,-319.75 320.75,-319.75 320.75,-361.5"/>
<text text-anchor="start" x="212.25" y="-348" font-family="Helvetica,sans-Serif" font-size="10.00">TMC2240Stepper::set</text>
<text text-anchor="start" x="212.25" y="-336.75" font-family="Helvetica,sans-Serif" font-size="10.00">_overvoltage_threshold</text>
<text text-anchor="middle" x="262.5" y="-325.5" font-family="Helvetica,sans-Serif" font-size="10.00">_voltage</text>
</a>
</g>
</g>
<!-- Node1&#45;&gt;Node20 -->
<g id="edge19_Node000001_Node000020" class="edge">
<title>Node1&#45;&gt;Node20</title>
<g id="a_edge19_Node000001_Node000020"><a xlink:title=" ">
<path fill="none" stroke="#63b8ff" d="M400.24,-381.36C376.42,-374.27 346.8,-365.44 321.22,-357.82"/>
<polygon fill="#63b8ff" stroke="#63b8ff" points="399.05,-384.66 409.63,-384.16 401.05,-377.95 399.05,-384.66"/>
</a>
</g>
</g>
<!-- Node21 -->
<g id="Node000021" class="node">
<title>Node21</title>
<g id="a_Node000021"><a xlink:href="class_t_m_c2240_stepper.html#afabf4720fd8be26612760f5a704c4a58" target="_top" xlink:title=" ">
<polygon fill="white" stroke="#666666" points="319.62,-301.88 205.38,-301.88 205.38,-271.38 319.62,-271.38 319.62,-301.88"/>
<text text-anchor="start" x="213.38" y="-288.38" font-family="Helvetica,sans-Serif" font-size="10.00">TMC2240Stepper::sg4</text>
<text text-anchor="middle" x="262.5" y="-277.12" font-family="Helvetica,sans-Serif" font-size="10.00">_angle_offset</text>
</a>
</g>
</g>
<!-- Node1&#45;&gt;Node21 -->
<g id="edge20_Node000001_Node000021" class="edge">
<title>Node1&#45;&gt;Node21</title>
<g id="a_edge20_Node000001_Node000021"><a xlink:title=" ">
<path fill="none" stroke="#63b8ff" d="M428.88,-376.3C411.39,-357.22 381.53,-327.77 350,-310.62 340.69,-305.56 330.22,-301.5 319.87,-298.25"/>
<polygon fill="#63b8ff" stroke="#63b8ff" points="426.14,-378.48 435.41,-383.6 431.35,-373.82 426.14,-378.48"/>
</a>
</g>
</g>
<!-- Node22 -->
<g id="Node000022" class="node">
<title>Node22</title>
<g id="a_Node000022"><a xlink:href="class_t_m_c2240_stepper.html#aa60e597f277466d4aa77ccf5d2d3003f" target="_top" xlink:title=" ">
<polygon fill="white" stroke="#666666" points="319.62,-252.88 205.38,-252.88 205.38,-222.38 319.62,-222.38 319.62,-252.88"/>
<text text-anchor="start" x="213.38" y="-239.38" font-family="Helvetica,sans-Serif" font-size="10.00">TMC2240Stepper::sg4</text>
<text text-anchor="middle" x="262.5" y="-228.12" font-family="Helvetica,sans-Serif" font-size="10.00">_filt_en</text>
</a>
</g>
</g>
<!-- Node1&#45;&gt;Node22 -->
<g id="edge21_Node000001_Node000022" class="edge">
<title>Node1&#45;&gt;Node22</title>
<g id="a_edge21_Node000001_Node000022"><a xlink:title=" ">
<path fill="none" stroke="#63b8ff" d="M435.65,-374.42C421.5,-345.33 391.5,-291.93 350,-262.62 341.06,-256.31 330.54,-251.58 319.98,-248.04"/>
<polygon fill="#63b8ff" stroke="#63b8ff" points="432.37,-375.67 439.79,-383.24 438.7,-372.7 432.37,-375.67"/>
</a>
</g>
</g>
<!-- Node23 -->
<g id="Node000023" class="node">
<title>Node23</title>
<g id="a_Node000023"><a xlink:href="class_t_m_c2240_stepper.html#a9301310096aab8b02fb3f727863a89ad" target="_top" xlink:title=" ">
<polygon fill="white" stroke="#666666" points="338,-204.25 187,-204.25 187,-185 338,-185 338,-204.25"/>
<text text-anchor="middle" x="262.5" y="-190.75" font-family="Helvetica,sans-Serif" font-size="10.00">TMC2240Stepper::SG4_THRS</text>
</a>
</g>
</g>
<!-- Node1&#45;&gt;Node23 -->
<g id="edge22_Node000001_Node000023" class="edge">
<title>Node1&#45;&gt;Node23</title>
<g id="a_edge22_Node000001_Node000023"><a xlink:title=" ">
<path fill="none" stroke="#63b8ff" d="M440,-373.72C430.18,-335.57 403.94,-254.83 350,-213.62 345.24,-209.98 339.91,-207.01 334.32,-204.59"/>
<polygon fill="#63b8ff" stroke="#63b8ff" points="436.59,-374.54 442.35,-383.43 443.4,-372.89 436.59,-374.54"/>
</a>
</g>
</g>
<!-- Node24 -->
<g id="Node000024" class="node">
<title>Node24</title>
<g id="a_Node000024"><a xlink:href="class_t_m_c2240_stepper.html#adf6736a28f5c7aa7c1349d6e114ab5f9" target="_top" xlink:title=" ">
<polygon fill="white" stroke="#666666" points="330.5,-167.25 194.5,-167.25 194.5,-148 330.5,-148 330.5,-167.25"/>
<text text-anchor="middle" x="262.5" y="-153.75" font-family="Helvetica,sans-Serif" font-size="10.00">TMC2240Stepper::sg4_thrs</text>
</a>
</g>
</g>
<!-- Node1&#45;&gt;Node24 -->
<g id="edge23_Node000001_Node000024" class="edge">
<title>Node1&#45;&gt;Node24</title>
<g id="a_edge23_Node000001_Node000024"><a xlink:title=" ">
<path fill="none" stroke="#63b8ff" d="M442.1,-373.64C435.38,-329.6 413.42,-227.31 350,-175.62 344.29,-170.97 337.68,-167.43 330.71,-164.75"/>
<polygon fill="#63b8ff" stroke="#63b8ff" points="438.61,-373.96 443.47,-383.38 445.55,-372.99 438.61,-373.96"/>
</a>
</g>
</g>
<!-- Node25 -->
<g id="Node000025" class="node">
<title>Node25</title>
<g id="a_Node000025"><a xlink:href="class_t_m_c2240_stepper.html#a4b1ff70f7bd8fc68959cd27d14349a2d" target="_top" xlink:title=" ">
<polygon fill="white" stroke="#666666" points="342.5,-130.25 182.5,-130.25 182.5,-111 342.5,-111 342.5,-130.25"/>
<text text-anchor="middle" x="262.5" y="-116.75" font-family="Helvetica,sans-Serif" font-size="10.00">TMC2240Stepper::TCOOLTHRS</text>
</a>
</g>
</g>
<!-- Node1&#45;&gt;Node25 -->
<g id="edge24_Node000001_Node000025" class="edge">
<title>Node1&#45;&gt;Node25</title>
<g id="a_edge24_Node000001_Node000025"><a xlink:title=" ">
<path fill="none" stroke="#63b8ff" d="M443.54,-373.22C439.52,-323.75 422.37,-200.92 350,-138.62 346.4,-135.52 342.4,-132.91 338.15,-130.71"/>
<polygon fill="#63b8ff" stroke="#63b8ff" points="440.04,-373.39 444.22,-383.13 447.02,-372.91 440.04,-373.39"/>
</a>
</g>
</g>
<!-- Node26 -->
<g id="Node000026" class="node">
<title>Node26</title>
<g id="a_Node000026"><a xlink:href="class_t_m_c2240_stepper.html#aec3ba321eac3a8461ce5f33a9a7f1741" target="_top" xlink:title=" ">
<polygon fill="white" stroke="#666666" points="327.5,-93.25 197.5,-93.25 197.5,-74 327.5,-74 327.5,-93.25"/>
<text text-anchor="middle" x="262.5" y="-79.75" font-family="Helvetica,sans-Serif" font-size="10.00">TMC2240Stepper::THIGH</text>
</a>
</g>
</g>
<!-- Node1&#45;&gt;Node26 -->
<g id="edge25_Node000001_Node000026" class="edge">
<title>Node1&#45;&gt;Node26</title>
<g id="a_edge25_Node000001_Node000026"><a xlink:title=" ">
<path fill="none" stroke="#63b8ff" d="M444.69,-373.5C443.31,-319.42 431.76,-175.03 350,-101.62 343.61,-95.89 335.87,-91.8 327.69,-88.91"/>
<polygon fill="#63b8ff" stroke="#63b8ff" points="441.18,-373.23 444.83,-383.18 448.18,-373.12 441.18,-373.23"/>
</a>
</g>
</g>
<!-- Node27 -->
<g id="Node000027" class="node">
<title>Node27</title>
<g id="a_Node000027"><a xlink:href="class_t_m_c2240_stepper.html#adc9a1f5afef2500c9edc16209574275f" target="_top" xlink:title=" ">
<polygon fill="white" stroke="#666666" points="350,-56.25 175,-56.25 175,-37 350,-37 350,-56.25"/>
<text text-anchor="middle" x="262.5" y="-42.75" font-family="Helvetica,sans-Serif" font-size="10.00">TMC2240Stepper::TPOWERDOWN</text>
</a>
</g>
</g>
<!-- Node1&#45;&gt;Node27 -->
<g id="edge26_Node000001_Node000027" class="edge">
<title>Node1&#45;&gt;Node27</title>
<g id="a_edge26_Node000001_Node000027"><a xlink:title=" ">
<path fill="none" stroke="#63b8ff" d="M445.59,-373.28C446.64,-314.5 440.98,-149.07 350,-64.62 346.63,-61.49 342.86,-58.85 338.83,-56.62"/>
<polygon fill="#63b8ff" stroke="#63b8ff" points="442.09,-373.1 445.31,-383.19 449.09,-373.29 442.09,-373.1"/>
</a>
</g>
</g>
<!-- Node28 -->
<g id="Node000028" class="node">
<title>Node28</title>
<g id="a_Node000028"><a xlink:href="class_t_m_c2240_stepper.html#a96b42c0c9fc4adc53f93cf00862b77f4" target="_top" xlink:title=" ">
<polygon fill="white" stroke="#666666" points="341,-19.25 184,-19.25 184,0 341,0 341,-19.25"/>
<text text-anchor="middle" x="262.5" y="-5.75" font-family="Helvetica,sans-Serif" font-size="10.00">TMC2240Stepper::TPWMTHRS</text>
</a>
</g>
</g>
<!-- Node1&#45;&gt;Node28 -->
<g id="edge27_Node000001_Node000028" class="edge">
<title>Node1&#45;&gt;Node28</title>
<g id="a_edge27_Node000001_Node000028"><a xlink:title=" ">
<path fill="none" stroke="#63b8ff" d="M442.19,-373.27C433.26,-302.35 401.22,-76.47 350,-27.62 346.78,-24.56 343.18,-21.95 339.33,-19.74"/>
<polygon fill="#63b8ff" stroke="#63b8ff" points="438.71,-373.63 443.4,-383.12 445.66,-372.77 438.71,-373.63"/>
</a>
</g>
</g>
<!-- Node3 -->
<g id="Node000003" class="node">
<title>Node3</title>
<g id="a_Node000003"><a xlink:href="class_t_m_c2240_stepper.html#a4942beaeb5d02f5152648056c244dcbe" target="_top" xlink:title=" ">
<polygon fill="white" stroke="#666666" points="139,-802.88 0,-802.88 0,-772.38 139,-772.38 139,-802.88"/>
<text text-anchor="start" x="8" y="-789.38" font-family="Helvetica,sans-Serif" font-size="10.00">TMC2240Stepper::INIT2240</text>
<text text-anchor="middle" x="69.5" y="-778.12" font-family="Helvetica,sans-Serif" font-size="10.00">_REGISTER</text>
</a>
</g>
</g>
<!-- Node2&#45;&gt;Node3 -->
<g id="edge2_Node000002_Node000003" class="edge">
<title>Node2&#45;&gt;Node3</title>
<g id="a_edge2_Node000002_Node000003"><a xlink:title=" ">
<path fill="none" stroke="#63b8ff" d="M172.91,-784.41C161.66,-784.76 150.29,-785.12 139.41,-785.46"/>
<polygon fill="#63b8ff" stroke="#63b8ff" points="172.69,-787.92 182.58,-784.1 172.47,-780.92 172.69,-787.92"/>
</a>
</g>
</g>
<!-- Node5 -->
<g id="Node000005" class="node">
<title>Node5</title>
<g id="a_Node000005"><a xlink:href="class_t_m_c2240_stepper.html#a78e32276fefcafa3fe0e69aecd03f06e" target="_top" xlink:title=" ">
<polygon fill="white" stroke="#666666" points="139,-753.88 0,-753.88 0,-723.38 139,-723.38 139,-753.88"/>
<text text-anchor="start" x="8" y="-740.38" font-family="Helvetica,sans-Serif" font-size="10.00">TMC2240Stepper::INIT2240</text>
<text text-anchor="middle" x="69.5" y="-729.12" font-family="Helvetica,sans-Serif" font-size="10.00">_REGISTER</text>
</a>
</g>
</g>
<!-- Node4&#45;&gt;Node5 -->
<g id="edge4_Node000004_Node000005" class="edge">
<title>Node4&#45;&gt;Node5</title>
<g id="a_edge4_Node000004_Node000005"><a xlink:title=" ">
<path fill="none" stroke="#63b8ff" d="M173.71,-735.38C162.15,-735.75 150.45,-736.11 139.27,-736.46"/>
<polygon fill="#63b8ff" stroke="#63b8ff" points="173.79,-738.88 183.68,-735.07 173.57,-731.89 173.79,-738.88"/>
</a>
</g>
</g>
<!-- Node7 -->
<g id="Node000007" class="node">
<title>Node7</title>
<g id="a_Node000007"><a xlink:href="class_t_m_c2240_stepper.html#a4346b860df2f2cf8aec3ba84bc95d383" target="_top" xlink:title=" ">
<polygon fill="white" stroke="#666666" points="139,-704.88 0,-704.88 0,-674.38 139,-674.38 139,-704.88"/>
<text text-anchor="start" x="8" y="-691.38" font-family="Helvetica,sans-Serif" font-size="10.00">TMC2240Stepper::INIT2240</text>
<text text-anchor="middle" x="69.5" y="-680.12" font-family="Helvetica,sans-Serif" font-size="10.00">_REGISTER</text>
</a>
</g>
</g>
<!-- Node6&#45;&gt;Node7 -->
<g id="edge6_Node000006_Node000007" class="edge">
<title>Node6&#45;&gt;Node7</title>
<g id="a_edge6_Node000006_Node000007"><a xlink:title=" ">
<path fill="none" stroke="#63b8ff" d="M183.85,-687.84C169.12,-688.08 153.82,-688.32 139.39,-688.54"/>
<polygon fill="#63b8ff" stroke="#63b8ff" points="183.51,-691.35 193.45,-687.69 183.4,-684.35 183.51,-691.35"/>
</a>
</g>
</g>
<!-- Node9 -->
<g id="Node000009" class="node">
<title>Node9</title>
<g id="a_Node000009"><a xlink:href="class_t_m_c2240_stepper.html#ac362e4c12113e5a53e26eface1fd60be" target="_top" xlink:title=" ">
<polygon fill="white" stroke="#666666" points="139,-655.88 0,-655.88 0,-625.38 139,-625.38 139,-655.88"/>
<text text-anchor="start" x="8" y="-642.38" font-family="Helvetica,sans-Serif" font-size="10.00">TMC2240Stepper::INIT2240</text>
<text text-anchor="middle" x="69.5" y="-631.12" font-family="Helvetica,sans-Serif" font-size="10.00">_REGISTER</text>
</a>
</g>
</g>
<!-- Node8&#45;&gt;Node9 -->
<g id="edge8_Node000008_Node000009" class="edge">
<title>Node8&#45;&gt;Node9</title>
<g id="a_edge8_Node000008_Node000009"><a xlink:title=" ">
<path fill="none" stroke="#63b8ff" d="M182.08,-640.62C167.86,-640.62 153.15,-640.62 139.26,-640.62"/>
<polygon fill="#63b8ff" stroke="#63b8ff" points="181.84,-644.13 191.84,-640.63 181.84,-637.13 181.84,-644.13"/>
</a>
</g>
</g>
<!-- Node11 -->
<g id="Node000011" class="node">
<title>Node11</title>
<g id="a_Node000011"><a xlink:href="class_t_m_c2240_stepper.html#afaac3839e285084d4b7ed0e22c8cbba9" target="_top" xlink:title=" ">
<polygon fill="white" stroke="#666666" points="139,-606.88 0,-606.88 0,-576.38 139,-576.38 139,-606.88"/>
<text text-anchor="start" x="8" y="-593.38" font-family="Helvetica,sans-Serif" font-size="10.00">TMC2240Stepper::INIT2240</text>
<text text-anchor="middle" x="69.5" y="-582.12" font-family="Helvetica,sans-Serif" font-size="10.00">_REGISTER</text>
</a>
</g>
</g>
<!-- Node10&#45;&gt;Node11 -->
<g id="edge10_Node000010_Node000011" class="edge">
<title>Node10&#45;&gt;Node11</title>
<g id="a_edge10_Node000010_Node000011"><a xlink:title=" ">
<path fill="none" stroke="#63b8ff" d="M185.37,-595.23C170.17,-594.76 154.28,-594.26 139.35,-593.79"/>
<polygon fill="#63b8ff" stroke="#63b8ff" points="185.22,-598.73 195.32,-595.55 185.44,-591.73 185.22,-598.73"/>
</a>
</g>
</g>
<!-- Node13 -->
<g id="Node000013" class="node">
<title>Node13</title>
<g id="a_Node000013"><a xlink:href="class_t_m_c2240_stepper.html#a6c63fe9b07dd1dc05639e0a48422b566" target="_top" xlink:title=" ">
<polygon fill="white" stroke="#666666" points="139,-557.88 0,-557.88 0,-527.38 139,-527.38 139,-557.88"/>
<text text-anchor="start" x="8" y="-544.38" font-family="Helvetica,sans-Serif" font-size="10.00">TMC2240Stepper::INIT2240</text>
<text text-anchor="middle" x="69.5" y="-533.12" font-family="Helvetica,sans-Serif" font-size="10.00">_REGISTER</text>
</a>
</g>
</g>
<!-- Node12&#45;&gt;Node13 -->
<g id="edge12_Node000012_Node000013" class="edge">
<title>Node12&#45;&gt;Node13</title>
<g id="a_edge12_Node000012_Node000013"><a xlink:title=" ">
<path fill="none" stroke="#63b8ff" d="M170.73,-552.07C160.14,-551.07 149.47,-550.07 139.25,-549.1"/>
<polygon fill="#63b8ff" stroke="#63b8ff" points="170.37,-555.55 180.65,-553.01 171.02,-548.58 170.37,-555.55"/>
</a>
</g>
</g>
<!-- Node15 -->
<g id="Node000015" class="node">
<title>Node15</title>
<g id="a_Node000015"><a xlink:href="class_t_m_c2240_stepper.html#a35bce999a45ad0cc40510f0fd10a698f" target="_top" xlink:title=" ">
<polygon fill="white" stroke="#666666" points="139,-508.88 0,-508.88 0,-478.38 139,-478.38 139,-508.88"/>
<text text-anchor="start" x="8" y="-495.38" font-family="Helvetica,sans-Serif" font-size="10.00">TMC2240Stepper::INIT2240</text>
<text text-anchor="middle" x="69.5" y="-484.12" font-family="Helvetica,sans-Serif" font-size="10.00">_REGISTER</text>
</a>
</g>
</g>
<!-- Node14&#45;&gt;Node15 -->
<g id="edge14_Node000014_Node000015" class="edge">
<title>Node14&#45;&gt;Node15</title>
<g id="a_edge14_Node000014_Node000015"><a xlink:title=" ">
<path fill="none" stroke="#63b8ff" d="M186.01,-511.77C170.56,-509.34 154.39,-506.8 139.2,-504.41"/>
<polygon fill="#63b8ff" stroke="#63b8ff" points="185.19,-515.18 195.61,-513.28 186.27,-508.27 185.19,-515.18"/>
</a>
</g>
</g>
<!-- Node18 -->
<g id="Node000018" class="node">
<title>Node18</title>
<g id="a_Node000018"><a xlink:href="class_t_m_c2240_stepper.html#a5debe82569e4828bc0923e2abd84ca2b" target="_top" xlink:title=" ">
<polygon fill="white" stroke="#666666" points="139,-452.88 0,-452.88 0,-422.38 139,-422.38 139,-452.88"/>
<text text-anchor="start" x="8" y="-439.38" font-family="Helvetica,sans-Serif" font-size="10.00">TMC2240Stepper::INIT2240</text>
<text text-anchor="middle" x="69.5" y="-428.12" font-family="Helvetica,sans-Serif" font-size="10.00">_REGISTER</text>
</a>
</g>
</g>
<!-- Node17&#45;&gt;Node18 -->
<g id="edge17_Node000017_Node000018" class="edge">
<title>Node17&#45;&gt;Node18</title>
<g id="a_edge17_Node000017_Node000018"><a xlink:title=" ">
<path fill="none" stroke="#63b8ff" d="M174.95,-437.62C163.05,-437.62 150.96,-437.62 139.43,-437.62"/>
<polygon fill="#63b8ff" stroke="#63b8ff" points="174.77,-441.13 184.77,-437.63 174.77,-434.13 174.77,-441.13"/>
</a>
</g>
</g>
</g>
</svg>
