<?xml version="1.0" encoding="UTF-8" standalone="no"?>
<!DOCTYPE svg PUBLIC "-//W3C//DTD SVG 1.1//EN"
 "http://www.w3.org/Graphics/SVG/1.1/DTD/svg11.dtd">
<!-- Generated by graphviz version 12.2.1 (20241206.2353)
 -->
<!-- Title: TMCStepper::TPWMTHRS Pages: 1 -->
<svg width="334pt" height="249pt"
 viewBox="0.00 0.00 334.00 249.25" xmlns="http://www.w3.org/2000/svg" xmlns:xlink="http://www.w3.org/1999/xlink">

<svg id="main" version="1.1" xmlns="http://www.w3.org/2000/svg" xmlns:xlink="http://www.w3.org/1999/xlink" xml:space="preserve">

<style type="text/css"><![CDATA[
.node, .edge {opacity: 0.7;}
.node.selected, .edge.selected {opacity: 1;}
.edge:hover path { stroke: red; }
.edge:hover polygon { stroke: red; fill: red; }
]]></style>
<script type="application/ecmascript" xlink:href="svg.min.js"/>
<svg id="graph" class="graph">
<g id="graph0" class="graph" transform="scale(1 1) rotate(0) translate(4 245.25)">
<title>TMCStepper::TPWMTHRS</title>
<!-- Node1 -->
<g id="Node000001" class="node">
<title>Node1</title>
<g id="a_Node000001"><a xlink:title=" ">
<polygon fill="#999999" stroke="#666666" points="326,-130.25 190,-130.25 190,-111 326,-111 326,-130.25"/>
<text text-anchor="middle" x="258" y="-116.75" font-family="Helvetica,sans-Serif" font-size="10.00">TMCStepper::TPWMTHRS</text>
</a>
</g>
</g>
<!-- Node2 -->
<g id="Node000002" class="node">
<title>Node2</title>
<g id="a_Node000002"><a xlink:href="class_t_m_c_stepper.html#aadeca5447ab581cc1db05dc0f0c59260" target="_top" xlink:title=" ">
<polygon fill="white" stroke="#666666" points="154,-241.25 0,-241.25 0,-222 154,-222 154,-241.25"/>
<text text-anchor="middle" x="77" y="-227.75" font-family="Helvetica,sans-Serif" font-size="10.00">TMCStepper::INIT_REGISTER</text>
</a>
</g>
</g>
<!-- Node1&#45;&gt;Node2 -->
<g id="edge1_Node000001_Node000002" class="edge">
<title>Node1&#45;&gt;Node2</title>
<g id="a_edge1_Node000001_Node000002"><a xlink:title=" ">
<path fill="none" stroke="#63b8ff" d="M241.64,-139.28C223.09,-160.54 189.89,-194.78 154,-213.62 148,-216.78 141.44,-219.38 134.77,-221.54"/>
<polygon fill="#63b8ff" stroke="#63b8ff" points="244.29,-141.56 248.1,-131.68 238.96,-137.03 244.29,-141.56"/>
</a>
</g>
</g>
<!-- Node3 -->
<g id="Node000003" class="node">
<title>Node3</title>
<g id="a_Node000003"><a xlink:href="class_t_m_c2130_stepper.html#ac62d32ad08be0a34b411bdd5a8489246" target="_top" xlink:title=" ">
<polygon fill="white" stroke="#666666" points="136.75,-204.25 17.25,-204.25 17.25,-185 136.75,-185 136.75,-204.25"/>
<text text-anchor="middle" x="77" y="-190.75" font-family="Helvetica,sans-Serif" font-size="10.00">TMC2130Stepper::push</text>
</a>
</g>
</g>
<!-- Node1&#45;&gt;Node3 -->
<g id="edge2_Node000001_Node000003" class="edge">
<title>Node1&#45;&gt;Node3</title>
<g id="a_edge2_Node000001_Node000003"><a xlink:title=" ">
<path fill="none" stroke="#63b8ff" d="M231.86,-136.76C211.54,-149.18 181.85,-165.98 154,-176.62 146.02,-179.68 137.37,-182.32 128.85,-184.56"/>
<polygon fill="#63b8ff" stroke="#63b8ff" points="233.64,-139.77 240.29,-131.52 229.95,-133.83 233.64,-139.77"/>
</a>
</g>
</g>
<!-- Node4 -->
<g id="Node000004" class="node">
<title>Node4</title>
<g id="a_Node000004"><a xlink:href="class_t_m_c2160_stepper.html#ae8035a0cb8151d5227d8528e540e637d" target="_top" xlink:title=" ">
<polygon fill="white" stroke="#666666" points="136.75,-167.25 17.25,-167.25 17.25,-148 136.75,-148 136.75,-167.25"/>
<text text-anchor="middle" x="77" y="-153.75" font-family="Helvetica,sans-Serif" font-size="10.00">TMC2160Stepper::push</text>
</a>
</g>
</g>
<!-- Node1&#45;&gt;Node4 -->
<g id="edge3_Node000001_Node000004" class="edge">
<title>Node1&#45;&gt;Node4</title>
<g id="a_edge3_Node000001_Node000004"><a xlink:title=" ">
<path fill="none" stroke="#63b8ff" d="M196.83,-133.06C174.06,-137.77 148.45,-143.06 126.85,-147.53"/>
<polygon fill="#63b8ff" stroke="#63b8ff" points="197.52,-136.49 206.61,-131.04 196.1,-129.64 197.52,-136.49"/>
</a>
</g>
</g>
<!-- Node5 -->
<g id="Node000005" class="node">
<title>Node5</title>
<g id="a_Node000005"><a xlink:href="class_t_m_c2208_stepper.html#a8eb0d71fbfeeb24c9092328c44fab7e5" target="_top" xlink:title=" ">
<polygon fill="white" stroke="#666666" points="136.75,-130.25 17.25,-130.25 17.25,-111 136.75,-111 136.75,-130.25"/>
<text text-anchor="middle" x="77" y="-116.75" font-family="Helvetica,sans-Serif" font-size="10.00">TMC2208Stepper::push</text>
</a>
</g>
</g>
<!-- Node1&#45;&gt;Node5 -->
<g id="edge4_Node000001_Node000005" class="edge">
<title>Node1&#45;&gt;Node5</title>
<g id="a_edge4_Node000001_Node000005"><a xlink:title=" ">
<path fill="none" stroke="#63b8ff" d="M178.13,-120.62C164.36,-120.62 150.25,-120.62 137.14,-120.62"/>
<polygon fill="#63b8ff" stroke="#63b8ff" points="178.07,-124.13 188.07,-120.63 178.07,-117.13 178.07,-124.13"/>
</a>
</g>
</g>
<!-- Node6 -->
<g id="Node000006" class="node">
<title>Node6</title>
<g id="a_Node000006"><a xlink:href="class_t_m_c2209_stepper.html#a180f4b9a78e526592d946ec12f71982e" target="_top" xlink:title=" ">
<polygon fill="white" stroke="#666666" points="136.75,-93.25 17.25,-93.25 17.25,-74 136.75,-74 136.75,-93.25"/>
<text text-anchor="middle" x="77" y="-79.75" font-family="Helvetica,sans-Serif" font-size="10.00">TMC2209Stepper::push</text>
</a>
</g>
</g>
<!-- Node1&#45;&gt;Node6 -->
<g id="edge5_Node000001_Node000006" class="edge">
<title>Node1&#45;&gt;Node6</title>
<g id="a_edge5_Node000001_Node000006"><a xlink:title=" ">
<path fill="none" stroke="#63b8ff" d="M196.83,-108.19C174.06,-103.48 148.45,-98.19 126.85,-93.72"/>
<polygon fill="#63b8ff" stroke="#63b8ff" points="196.1,-111.61 206.61,-110.21 197.52,-104.76 196.1,-111.61"/>
</a>
</g>
</g>
<!-- Node7 -->
<g id="Node000007" class="node">
<title>Node7</title>
<g id="a_Node000007"><a xlink:href="class_t_m_c5130_stepper.html#a55e61f5181d74f26c9d35c54e4436d7a" target="_top" xlink:title=" ">
<polygon fill="white" stroke="#666666" points="136.75,-56.25 17.25,-56.25 17.25,-37 136.75,-37 136.75,-56.25"/>
<text text-anchor="middle" x="77" y="-42.75" font-family="Helvetica,sans-Serif" font-size="10.00">TMC5130Stepper::push</text>
</a>
</g>
</g>
<!-- Node1&#45;&gt;Node7 -->
<g id="edge6_Node000001_Node000007" class="edge">
<title>Node1&#45;&gt;Node7</title>
<g id="a_edge6_Node000001_Node000007"><a xlink:title=" ">
<path fill="none" stroke="#63b8ff" d="M231.86,-104.49C211.54,-92.07 181.85,-75.27 154,-64.62 146.02,-61.57 137.37,-58.93 128.85,-56.69"/>
<polygon fill="#63b8ff" stroke="#63b8ff" points="229.95,-107.42 240.29,-109.73 233.64,-101.48 229.95,-107.42"/>
</a>
</g>
</g>
<!-- Node8 -->
<g id="Node000008" class="node">
<title>Node8</title>
<g id="a_Node000008"><a xlink:href="class_t_m_c5160_stepper.html#a5a12974304588f9d01898d91ba854b87" target="_top" xlink:title=" ">
<polygon fill="white" stroke="#666666" points="136.75,-19.25 17.25,-19.25 17.25,0 136.75,0 136.75,-19.25"/>
<text text-anchor="middle" x="77" y="-5.75" font-family="Helvetica,sans-Serif" font-size="10.00">TMC5160Stepper::push</text>
</a>
</g>
</g>
<!-- Node1&#45;&gt;Node8 -->
<g id="edge7_Node000001_Node000008" class="edge">
<title>Node1&#45;&gt;Node8</title>
<g id="a_edge7_Node000001_Node000008"><a xlink:title=" ">
<path fill="none" stroke="#63b8ff" d="M241.64,-101.97C223.09,-80.71 189.89,-46.47 154,-27.62 148,-24.47 141.44,-21.87 134.77,-19.71"/>
<polygon fill="#63b8ff" stroke="#63b8ff" points="238.96,-104.22 248.1,-109.57 244.29,-99.69 238.96,-104.22"/>
</a>
</g>
</g>
</g>
</svg>
</svg>

<style type='text/css'>
<![CDATA[
[data-mouse-over-selected='false'] { opacity: 0.7; }
[data-mouse-over-selected='true']  { opacity: 1.0; }
]]>
</style>
<script type="application/ecmascript"><![CDATA[
document.addEventListener('DOMContentLoaded', (event) => {
  highlightEdges();
  highlightAdjacentNodes();
});
]]></script>
</svg>
