<?xml version="1.0" encoding="UTF-8" standalone="no"?>
<!DOCTYPE svg PUBLIC "-//W3C//DTD SVG 1.1//EN"
 "http://www.w3.org/Graphics/SVG/1.1/DTD/svg11.dtd">
<!-- Generated by graphviz version 12.2.1 (20241206.2353)
 -->
<!-- Title: TMC2660Stepper::phb Pages: 1 -->
<svg width="585pt" height="64pt"
 viewBox="0.00 0.00 585.00 64.25" xmlns="http://www.w3.org/2000/svg" xmlns:xlink="http://www.w3.org/1999/xlink">
<g id="graph0" class="graph" transform="scale(1 1) rotate(0) translate(4 60.25)">
<title>TMC2660Stepper::phb</title>
<!-- Node1 -->
<g id="Node000001" class="node">
<title>Node1</title>
<g id="a_Node000001"><a xlink:title=" ">
<polygon fill="#999999" stroke="#666666" points="114.25,-19.25 0,-19.25 0,0 114.25,0 114.25,-19.25"/>
<text text-anchor="middle" x="57.12" y="-5.75" font-family="Helvetica,sans-Serif" font-size="10.00">TMC2660Stepper::phb</text>
</a>
</g>
</g>
<!-- Node2 -->
<g id="Node000002" class="node">
<title>Node2</title>
<g id="a_Node000002"><a xlink:href="class_t_m_c2660_stepper.html#a92ae81a43023855f5d4ded8f372b2710" target="_top" xlink:title=" ">
<polygon fill="white" stroke="#666666" points="264.5,-38.25 150.25,-38.25 150.25,-19 264.5,-19 264.5,-38.25"/>
<text text-anchor="middle" x="207.38" y="-24.75" font-family="Helvetica,sans-Serif" font-size="10.00">TMC2660Stepper::phb</text>
</a>
</g>
</g>
<!-- Node1&#45;&gt;Node2 -->
<g id="edge1_Node000001_Node000002" class="edge">
<title>Node1&#45;&gt;Node2</title>
<g id="a_edge1_Node000001_Node000002"><a xlink:title=" ">
<path fill="none" stroke="#63b8ff" d="M114.59,-16.86C122.49,-17.87 130.67,-18.92 138.75,-19.96"/>
<polygon fill="#63b8ff" stroke="#63b8ff" points="138.2,-23.42 148.56,-21.22 139.09,-16.47 138.2,-23.42"/>
</a>
</g>
</g>
<!-- Node3 -->
<g id="Node000003" class="node">
<title>Node3</title>
<g id="a_Node000003"><a xlink:href="class_t_m_c2660_stepper.html#aa20df51be5967e40cc23132a1d461275" target="_top" xlink:title=" ">
<polygon fill="white" stroke="#666666" points="420.75,-19.25 300.5,-19.25 300.5,0 420.75,0 420.75,-19.25"/>
<text text-anchor="middle" x="360.62" y="-5.75" font-family="Helvetica,sans-Serif" font-size="10.00">TMC2660Stepper::sdoff</text>
</a>
</g>
</g>
<!-- Node1&#45;&gt;Node3 -->
<g id="edge6_Node000001_Node000003" class="edge">
<title>Node1&#45;&gt;Node3</title>
<g id="a_edge6_Node000001_Node000003"><a xlink:title=" ">
<path fill="none" stroke="#63b8ff" d="M114.48,-9.62C163.78,-9.62 235.63,-9.62 288.81,-9.62"/>
<polygon fill="#63b8ff" stroke="#63b8ff" points="288.68,-13.13 298.68,-9.63 288.68,-6.13 288.68,-13.13"/>
</a>
</g>
</g>
<!-- Node2&#45;&gt;Node2 -->
<g id="edge2_Node000002_Node000002" class="edge">
<title>Node2&#45;&gt;Node2</title>
<g id="a_edge2_Node000002_Node000002"><a xlink:title=" ">
<path fill="none" stroke="#63b8ff" d="M183.85,-38.54C173.12,-47.15 180.96,-56.25 207.38,-56.25 222.23,-56.25 231.21,-53.37 234.32,-49.32"/>
<polygon fill="#63b8ff" stroke="#63b8ff" points="237.71,-48.45 231.36,-39.98 231.04,-50.57 237.71,-48.45"/>
</a>
</g>
</g>
<!-- Node2&#45;&gt;Node3 -->
<g id="edge3_Node000002_Node000003" class="edge">
<title>Node2&#45;&gt;Node3</title>
<g id="a_edge3_Node000002_Node000003"><a xlink:title=" ">
<path fill="none" stroke="#63b8ff" d="M264.69,-21.55C272.57,-20.56 280.75,-19.53 288.85,-18.52"/>
<polygon fill="#63b8ff" stroke="#63b8ff" points="289.23,-22 298.72,-17.28 288.36,-15.05 289.23,-22"/>
</a>
</g>
</g>
<!-- Node4 -->
<g id="Node000004" class="node">
<title>Node4</title>
<g id="a_Node000004"><a xlink:href="class_t_m_c2660_stepper.html#af6b9772d151924e000c051ecff34d313" target="_top" xlink:title=" ">
<polygon fill="white" stroke="#666666" points="577,-19.25 456.75,-19.25 456.75,0 577,0 577,-19.25"/>
<text text-anchor="middle" x="516.88" y="-5.75" font-family="Helvetica,sans-Serif" font-size="10.00">TMC2660Stepper::sdoff</text>
</a>
</g>
</g>
<!-- Node3&#45;&gt;Node4 -->
<g id="edge4_Node000003_Node000004" class="edge">
<title>Node3&#45;&gt;Node4</title>
<g id="a_edge4_Node000003_Node000004"><a xlink:title=" ">
<path fill="none" stroke="#63b8ff" d="M420.82,-9.62C428.73,-9.62 436.91,-9.62 445,-9.62"/>
<polygon fill="#63b8ff" stroke="#63b8ff" points="444.81,-13.13 454.81,-9.63 444.81,-6.13 444.81,-13.13"/>
</a>
</g>
</g>
<!-- Node4&#45;&gt;Node4 -->
<g id="edge5_Node000004_Node000004" class="edge">
<title>Node4&#45;&gt;Node4</title>
<g id="a_edge5_Node000004_Node000004"><a xlink:title=" ">
<path fill="none" stroke="#63b8ff" d="M492.41,-19.54C481.26,-28.15 489.41,-37.25 516.88,-37.25 532.32,-37.25 541.66,-34.37 544.89,-30.32"/>
<polygon fill="#63b8ff" stroke="#63b8ff" points="548.27,-29.38 541.81,-20.98 541.62,-31.57 548.27,-29.38"/>
</a>
</g>
</g>
</g>
</svg>
