<?xml version="1.0" encoding="UTF-8" standalone="no"?>
<!DOCTYPE svg PUBLIC "-//W3C//DTD SVG 1.1//EN"
 "http://www.w3.org/Graphics/SVG/1.1/DTD/svg11.dtd">
<!-- Generated by graphviz version 12.2.1 (20241206.2353)
 -->
<!-- Title: TMC2208Stepper::CHOPCONF Pages: 1 -->
<svg width="496pt" height="174pt"
 viewBox="0.00 0.00 495.50 173.88" xmlns="http://www.w3.org/2000/svg" xmlns:xlink="http://www.w3.org/1999/xlink">
<g id="graph0" class="graph" transform="scale(1 1) rotate(0) translate(4 169.88)">
<title>TMC2208Stepper::CHOPCONF</title>
<!-- Node1 -->
<g id="Node000001" class="node">
<title>Node1</title>
<g id="a_Node000001"><a xlink:title=" ">
<polygon fill="#999999" stroke="#666666" points="156.25,-97.88 0,-97.88 0,-78.62 156.25,-78.62 156.25,-97.88"/>
<text text-anchor="middle" x="78.12" y="-84.38" font-family="Helvetica,sans-Serif" font-size="10.00">TMC2208Stepper::CHOPCONF</text>
</a>
</g>
</g>
<!-- Node2 -->
<g id="Node000002" class="node">
<title>Node2</title>
<g id="a_Node000002"><a xlink:href="class_t_m_c2208_stepper.html#a142b14de8a4dcc6cf76b4a6ede9e1cea" target="_top" xlink:title=" ">
<polygon fill="white" stroke="#666666" points="311.75,-97.88 192.25,-97.88 192.25,-78.62 311.75,-78.62 311.75,-97.88"/>
<text text-anchor="middle" x="252" y="-84.38" font-family="Helvetica,sans-Serif" font-size="10.00">TMC2208Stepper::write</text>
</a>
</g>
</g>
<!-- Node1&#45;&gt;Node2 -->
<g id="edge1_Node000001_Node000002" class="edge">
<title>Node1&#45;&gt;Node2</title>
<g id="a_edge1_Node000001_Node000002"><a xlink:title=" ">
<path fill="none" stroke="#63b8ff" d="M156.51,-88.25C164.48,-88.25 172.54,-88.25 180.42,-88.25"/>
<polygon fill="#63b8ff" stroke="#63b8ff" points="180.3,-91.75 190.3,-88.25 180.3,-84.75 180.3,-91.75"/>
</a>
</g>
</g>
<!-- Node3 -->
<g id="Node000003" class="node">
<title>Node3</title>
<g id="a_Node000003"><a xlink:href="class_t_m_c2208_stepper.html#a409c19fa6b052a370a317d061bf9af4e" target="_top" xlink:title=" ">
<polygon fill="white" stroke="#666666" points="487.12,-165.88 348.12,-165.88 348.12,-146.62 487.12,-146.62 487.12,-165.88"/>
<text text-anchor="middle" x="417.62" y="-152.38" font-family="Helvetica,sans-Serif" font-size="10.00">TMC2208Stepper::calcCRC</text>
</a>
</g>
</g>
<!-- Node2&#45;&gt;Node3 -->
<g id="edge2_Node000002_Node000003" class="edge">
<title>Node2&#45;&gt;Node3</title>
<g id="a_edge2_Node000002_Node000003"><a xlink:title=" ">
<path fill="none" stroke="#63b8ff" d="M269.62,-98.2C288.16,-108.97 319.3,-126.11 347.75,-137.25 352.96,-139.29 358.47,-141.2 364.01,-142.96"/>
<polygon fill="#63b8ff" stroke="#63b8ff" points="362.61,-146.2 373.2,-145.73 364.63,-139.5 362.61,-146.2"/>
</a>
</g>
</g>
<!-- Node4 -->
<g id="Node000004" class="node">
<title>Node4</title>
<g id="a_Node000004"><a xlink:href="class_t_m_c2208_stepper.html#a5147cab1658f782b36b0ce7e951d4f4e" target="_top" xlink:title=" ">
<polygon fill="white" stroke="#666666" points="487.5,-128.5 347.75,-128.5 347.75,-98 487.5,-98 487.5,-128.5"/>
<text text-anchor="start" x="355.75" y="-115" font-family="Helvetica,sans-Serif" font-size="10.00">TMC2208Stepper::postWrite</text>
<text text-anchor="middle" x="417.62" y="-103.75" font-family="Helvetica,sans-Serif" font-size="10.00">Communication</text>
</a>
</g>
</g>
<!-- Node2&#45;&gt;Node4 -->
<g id="edge3_Node000002_Node000004" class="edge">
<title>Node2&#45;&gt;Node4</title>
<g id="a_edge3_Node000002_Node000004"><a xlink:title=" ">
<path fill="none" stroke="#63b8ff" d="M312.07,-97.28C319.85,-98.46 327.92,-99.7 335.98,-100.93"/>
<polygon fill="#63b8ff" stroke="#63b8ff" points="335.43,-104.38 345.84,-102.43 336.48,-97.46 335.43,-104.38"/>
</a>
</g>
</g>
<!-- Node5 -->
<g id="Node000005" class="node">
<title>Node5</title>
<g id="a_Node000005"><a xlink:href="class_t_m_c2208_stepper.html#a66e4f8694ee035432af8b61f14b35a92" target="_top" xlink:title=" ">
<polygon fill="white" stroke="#666666" points="484.88,-79.5 350.38,-79.5 350.38,-49 484.88,-49 484.88,-79.5"/>
<text text-anchor="start" x="358.38" y="-66" font-family="Helvetica,sans-Serif" font-size="10.00">TMC2208Stepper::preWrite</text>
<text text-anchor="middle" x="417.62" y="-54.75" font-family="Helvetica,sans-Serif" font-size="10.00">Communication</text>
</a>
</g>
</g>
<!-- Node2&#45;&gt;Node5 -->
<g id="edge4_Node000002_Node000005" class="edge">
<title>Node2&#45;&gt;Node5</title>
<g id="a_edge4_Node000002_Node000005"><a xlink:title=" ">
<path fill="none" stroke="#63b8ff" d="M312.07,-79.59C320.76,-78.31 329.82,-76.98 338.82,-75.66"/>
<polygon fill="#63b8ff" stroke="#63b8ff" points="339.26,-79.13 348.65,-74.22 338.25,-72.21 339.26,-79.13"/>
</a>
</g>
</g>
<!-- Node6 -->
<g id="Node000006" class="node">
<title>Node6</title>
<g id="a_Node000006"><a xlink:href="class_t_m_c2208_stepper.html#adb6243277ef84d2027b2b8bae6be5bd0" target="_top" xlink:title=" ">
<polygon fill="white" stroke="#666666" points="478.5,-30.5 356.75,-30.5 356.75,0 478.5,0 478.5,-30.5"/>
<text text-anchor="start" x="364.75" y="-17" font-family="Helvetica,sans-Serif" font-size="10.00">TMC2208Stepper::serial</text>
<text text-anchor="middle" x="417.62" y="-5.75" font-family="Helvetica,sans-Serif" font-size="10.00">_write</text>
</a>
</g>
</g>
<!-- Node2&#45;&gt;Node6 -->
<g id="edge5_Node000002_Node000006" class="edge">
<title>Node2&#45;&gt;Node6</title>
<g id="a_edge5_Node000002_Node000006"><a xlink:title=" ">
<path fill="none" stroke="#63b8ff" d="M271.2,-78.2C290.05,-67.99 320.5,-52.04 347.75,-40.25 351.84,-38.48 356.09,-36.73 360.4,-35.02"/>
<polygon fill="#63b8ff" stroke="#63b8ff" points="361.64,-38.29 369.71,-31.43 359.12,-31.76 361.64,-38.29"/>
</a>
</g>
</g>
</g>
</svg>
