<?xml version="1.0" encoding="UTF-8" standalone="no"?>
<!DOCTYPE svg PUBLIC "-//W3C//DTD SVG 1.1//EN"
 "http://www.w3.org/Graphics/SVG/1.1/DTD/svg11.dtd">
<!-- Generated by graphviz version 12.2.1 (20241206.2353)
 -->
<!-- Title: TMC2160Stepper Pages: 1 -->
<svg width="191pt" height="156pt"
 viewBox="0.00 0.00 191.09 156.00" xmlns="http://www.w3.org/2000/svg" xmlns:xlink="http://www.w3.org/1999/xlink">
<g id="graph0" class="graph" transform="scale(1 1) rotate(0) translate(4 152)">
<title>TMC2160Stepper</title>
<!-- Node1 -->
<g id="Node000001" class="node">
<title>Node1</title>
<g id="a_Node000001"><a xlink:title=" ">
<polygon fill="#999999" stroke="#666666" points="129,-19.25 36.5,-19.25 36.5,0 129,0 129,-19.25"/>
<text text-anchor="middle" x="82.75" y="-5.75" font-family="Helvetica,sans-Serif" font-size="10.00">TMC2160Stepper</text>
</a>
</g>
</g>
<!-- Node2 -->
<g id="Node000002" class="node">
<title>Node2</title>
<g id="a_Node000002"><a xlink:href="class_t_m_c2130_stepper.html" target="_top" xlink:title=" ">
<polygon fill="white" stroke="#666666" points="129,-75.5 36.5,-75.5 36.5,-56.25 129,-56.25 129,-75.5"/>
<text text-anchor="middle" x="82.75" y="-62" font-family="Helvetica,sans-Serif" font-size="10.00">TMC2130Stepper</text>
</a>
</g>
</g>
<!-- Node2&#45;&gt;Node1 -->
<g id="edge1_Node000001_Node000002" class="edge">
<title>Node2&#45;&gt;Node1</title>
<g id="a_edge1_Node000001_Node000002"><a xlink:title=" ">
<path fill="none" stroke="#63b8ff" d="M82.75,-44.69C82.75,-35.98 82.75,-26.24 82.75,-19.42"/>
<polygon fill="#63b8ff" stroke="#63b8ff" points="79.25,-44.4 82.75,-54.4 86.25,-44.4 79.25,-44.4"/>
</a>
</g>
</g>
<!-- Node3 -->
<g id="Node000003" class="node">
<title>Node3</title>
<g id="a_Node000003"><a xlink:href="class_t_m_c_stepper.html" target="_top" xlink:title=" ">
<polygon fill="white" stroke="#666666" points="71.5,-148 0,-148 0,-128.75 71.5,-128.75 71.5,-148"/>
<text text-anchor="middle" x="35.75" y="-134.5" font-family="Helvetica,sans-Serif" font-size="10.00">TMCStepper</text>
</a>
</g>
</g>
<!-- Node3&#45;&gt;Node2 -->
<g id="edge2_Node000002_Node000003" class="edge">
<title>Node3&#45;&gt;Node2</title>
<g id="a_edge2_Node000002_Node000003"><a xlink:title=" ">
<path fill="none" stroke="#63b8ff" d="M48.03,-118.95C57.26,-105.12 69.49,-86.77 76.7,-75.95"/>
<polygon fill="#63b8ff" stroke="#63b8ff" points="45.18,-116.92 42.54,-127.19 51,-120.81 45.18,-116.92"/>
</a>
</g>
</g>
<!-- Node4 -->
<g id="Node000004" class="node">
<title>Node4</title>
<g id="a_Node000004"><a xlink:href="class_s_w___s_p_i_class.html" target="_top" xlink:title=" ">
<polygon fill="white" stroke="#666666" points="169.62,-148 89.88,-148 89.88,-128.75 169.62,-128.75 169.62,-148"/>
<text text-anchor="middle" x="129.75" y="-134.5" font-family="Helvetica,sans-Serif" font-size="10.00">SW_SPIClass</text>
</a>
</g>
</g>
<!-- Node4&#45;&gt;Node2 -->
<g id="edge3_Node000002_Node000004" class="edge">
<title>Node4&#45;&gt;Node2</title>
<g id="a_edge3_Node000002_Node000004"><a xlink:title=" ">
<path fill="none" stroke="#9a32cd" stroke-dasharray="5,2" d="M117.47,-118.95C108.24,-105.12 96.01,-86.77 88.8,-75.95"/>
<polygon fill="#9a32cd" stroke="#9a32cd" points="114.5,-120.81 122.96,-127.19 120.32,-116.92 114.5,-120.81"/>
</a>
</g>
<text text-anchor="start" x="114.84" y="-98.25" font-family="Helvetica,sans-Serif" font-size="10.00" fill="grey">TMC_SW_SPI</text>
</g>
</g>
</svg>
