<?xml version="1.0" encoding="UTF-8" standalone="no"?>
<!DOCTYPE svg PUBLIC "-//W3C//DTD SVG 1.1//EN"
 "http://www.w3.org/Graphics/SVG/1.1/DTD/svg11.dtd">
<!-- Generated by graphviz version 12.2.1 (20241206.2353)
 -->
<!-- Title: TMC2208Stepper::OTP_PROG Pages: 1 -->
<svg width="493pt" height="174pt"
 viewBox="0.00 0.00 492.50 173.88" xmlns="http://www.w3.org/2000/svg" xmlns:xlink="http://www.w3.org/1999/xlink">

<svg id="main" version="1.1" xmlns="http://www.w3.org/2000/svg" xmlns:xlink="http://www.w3.org/1999/xlink" xml:space="preserve">

<style type="text/css"><![CDATA[
.node, .edge {opacity: 0.7;}
.node.selected, .edge.selected {opacity: 1;}
.edge:hover path { stroke: red; }
.edge:hover polygon { stroke: red; fill: red; }
]]></style>
<script type="application/ecmascript" xlink:href="svg.min.js"/>
<svg id="graph" class="graph">
<g id="graph0" class="graph" transform="scale(1 1) rotate(0) translate(4 169.88)">
<title>TMC2208Stepper::OTP_PROG</title>
<!-- Node1 -->
<g id="Node000001" class="node">
<title>Node1</title>
<g id="a_Node000001"><a xlink:title=" ">
<polygon fill="#999999" stroke="#666666" points="153.25,-97.88 0,-97.88 0,-78.62 153.25,-78.62 153.25,-97.88"/>
<text text-anchor="middle" x="76.62" y="-84.38" font-family="Helvetica,sans-Serif" font-size="10.00">TMC2208Stepper::OTP_PROG</text>
</a>
</g>
</g>
<!-- Node2 -->
<g id="Node000002" class="node">
<title>Node2</title>
<g id="a_Node000002"><a xlink:href="class_t_m_c2208_stepper.html#a142b14de8a4dcc6cf76b4a6ede9e1cea" target="_top" xlink:title=" ">
<polygon fill="white" stroke="#666666" points="308.75,-97.88 189.25,-97.88 189.25,-78.62 308.75,-78.62 308.75,-97.88"/>
<text text-anchor="middle" x="249" y="-84.38" font-family="Helvetica,sans-Serif" font-size="10.00">TMC2208Stepper::write</text>
</a>
</g>
</g>
<!-- Node1&#45;&gt;Node2 -->
<g id="edge1_Node000001_Node000002" class="edge">
<title>Node1&#45;&gt;Node2</title>
<g id="a_edge1_Node000001_Node000002"><a xlink:title=" ">
<path fill="none" stroke="#63b8ff" d="M153.35,-88.25C161.35,-88.25 169.46,-88.25 177.4,-88.25"/>
<polygon fill="#63b8ff" stroke="#63b8ff" points="177.36,-91.75 187.36,-88.25 177.36,-84.75 177.36,-91.75"/>
</a>
</g>
</g>
<!-- Node3 -->
<g id="Node000003" class="node">
<title>Node3</title>
<g id="a_Node000003"><a xlink:href="class_t_m_c2208_stepper.html#a409c19fa6b052a370a317d061bf9af4e" target="_top" xlink:title=" ">
<polygon fill="white" stroke="#666666" points="484.12,-165.88 345.12,-165.88 345.12,-146.62 484.12,-146.62 484.12,-165.88"/>
<text text-anchor="middle" x="414.62" y="-152.38" font-family="Helvetica,sans-Serif" font-size="10.00">TMC2208Stepper::calcCRC</text>
</a>
</g>
</g>
<!-- Node2&#45;&gt;Node3 -->
<g id="edge2_Node000002_Node000003" class="edge">
<title>Node2&#45;&gt;Node3</title>
<g id="a_edge2_Node000002_Node000003"><a xlink:title=" ">
<path fill="none" stroke="#63b8ff" d="M266.62,-98.2C285.16,-108.97 316.3,-126.11 344.75,-137.25 349.96,-139.29 355.47,-141.2 361.01,-142.96"/>
<polygon fill="#63b8ff" stroke="#63b8ff" points="359.61,-146.2 370.2,-145.73 361.63,-139.5 359.61,-146.2"/>
</a>
</g>
</g>
<!-- Node4 -->
<g id="Node000004" class="node">
<title>Node4</title>
<g id="a_Node000004"><a xlink:href="class_t_m_c2208_stepper.html#a5147cab1658f782b36b0ce7e951d4f4e" target="_top" xlink:title=" ">
<polygon fill="white" stroke="#666666" points="484.5,-128.5 344.75,-128.5 344.75,-98 484.5,-98 484.5,-128.5"/>
<text text-anchor="start" x="352.75" y="-115" font-family="Helvetica,sans-Serif" font-size="10.00">TMC2208Stepper::postWrite</text>
<text text-anchor="middle" x="414.62" y="-103.75" font-family="Helvetica,sans-Serif" font-size="10.00">Communication</text>
</a>
</g>
</g>
<!-- Node2&#45;&gt;Node4 -->
<g id="edge3_Node000002_Node000004" class="edge">
<title>Node2&#45;&gt;Node4</title>
<g id="a_edge3_Node000002_Node000004"><a xlink:title=" ">
<path fill="none" stroke="#63b8ff" d="M309.07,-97.28C316.85,-98.46 324.92,-99.7 332.98,-100.93"/>
<polygon fill="#63b8ff" stroke="#63b8ff" points="332.43,-104.38 342.84,-102.43 333.48,-97.46 332.43,-104.38"/>
</a>
</g>
</g>
<!-- Node5 -->
<g id="Node000005" class="node">
<title>Node5</title>
<g id="a_Node000005"><a xlink:href="class_t_m_c2208_stepper.html#a66e4f8694ee035432af8b61f14b35a92" target="_top" xlink:title=" ">
<polygon fill="white" stroke="#666666" points="481.88,-79.5 347.38,-79.5 347.38,-49 481.88,-49 481.88,-79.5"/>
<text text-anchor="start" x="355.38" y="-66" font-family="Helvetica,sans-Serif" font-size="10.00">TMC2208Stepper::preWrite</text>
<text text-anchor="middle" x="414.62" y="-54.75" font-family="Helvetica,sans-Serif" font-size="10.00">Communication</text>
</a>
</g>
</g>
<!-- Node2&#45;&gt;Node5 -->
<g id="edge4_Node000002_Node000005" class="edge">
<title>Node2&#45;&gt;Node5</title>
<g id="a_edge4_Node000002_Node000005"><a xlink:title=" ">
<path fill="none" stroke="#63b8ff" d="M309.07,-79.59C317.76,-78.31 326.82,-76.98 335.82,-75.66"/>
<polygon fill="#63b8ff" stroke="#63b8ff" points="336.26,-79.13 345.65,-74.22 335.25,-72.21 336.26,-79.13"/>
</a>
</g>
</g>
<!-- Node6 -->
<g id="Node000006" class="node">
<title>Node6</title>
<g id="a_Node000006"><a xlink:href="class_t_m_c2208_stepper.html#adb6243277ef84d2027b2b8bae6be5bd0" target="_top" xlink:title=" ">
<polygon fill="white" stroke="#666666" points="475.5,-30.5 353.75,-30.5 353.75,0 475.5,0 475.5,-30.5"/>
<text text-anchor="start" x="361.75" y="-17" font-family="Helvetica,sans-Serif" font-size="10.00">TMC2208Stepper::serial</text>
<text text-anchor="middle" x="414.62" y="-5.75" font-family="Helvetica,sans-Serif" font-size="10.00">_write</text>
</a>
</g>
</g>
<!-- Node2&#45;&gt;Node6 -->
<g id="edge5_Node000002_Node000006" class="edge">
<title>Node2&#45;&gt;Node6</title>
<g id="a_edge5_Node000002_Node000006"><a xlink:title=" ">
<path fill="none" stroke="#63b8ff" d="M268.2,-78.2C287.05,-67.99 317.5,-52.04 344.75,-40.25 348.84,-38.48 353.09,-36.73 357.4,-35.02"/>
<polygon fill="#63b8ff" stroke="#63b8ff" points="358.64,-38.29 366.71,-31.43 356.12,-31.76 358.64,-38.29"/>
</a>
</g>
</g>
</g>
</svg>
</svg>

<style type='text/css'>
<![CDATA[
[data-mouse-over-selected='false'] { opacity: 0.7; }
[data-mouse-over-selected='true']  { opacity: 1.0; }
]]>
</style>
<script type="application/ecmascript"><![CDATA[
document.addEventListener('DOMContentLoaded', (event) => {
  highlightEdges();
  highlightAdjacentNodes();
});
]]></script>
</svg>
