<?xml version="1.0" encoding="UTF-8" standalone="no"?>
<!DOCTYPE svg PUBLIC "-//W3C//DTD SVG 1.1//EN"
 "http://www.w3.org/Graphics/SVG/1.1/DTD/svg11.dtd">
<!-- Generated by graphviz version 12.2.1 (20241206.2353)
 -->
<!-- Title: TMC2240Stepper::read Pages: 1 -->
<svg width="493pt" height="1078pt"
 viewBox="0.00 0.00 492.50 1077.50" xmlns="http://www.w3.org/2000/svg" xmlns:xlink="http://www.w3.org/1999/xlink">
<g id="graph0" class="graph" transform="scale(1 1) rotate(0) translate(4 1073.5)">
<title>TMC2240Stepper::read</title>
<!-- Node1 -->
<g id="Node000001" class="node">
<title>Node1</title>
<g id="a_Node000001"><a xlink:title=" ">
<polygon fill="#999999" stroke="#666666" points="484.5,-651.88 367.25,-651.88 367.25,-632.62 484.5,-632.62 484.5,-651.88"/>
<text text-anchor="middle" x="425.88" y="-638.38" font-family="Helvetica,sans-Serif" font-size="10.00">TMC2240Stepper::read</text>
</a>
</g>
</g>
<!-- Node2 -->
<g id="Node000002" class="node">
<title>Node2</title>
<g id="a_Node000002"><a xlink:href="class_t_m_c2240_stepper.html#ad355bf396c8a7c38ba21e368917ae5d6" target="_top" xlink:title=" ">
<polygon fill="white" stroke="#666666" points="329.75,-1035.88 176.5,-1035.88 176.5,-1016.62 329.75,-1016.62 329.75,-1035.88"/>
<text text-anchor="middle" x="253.12" y="-1022.38" font-family="Helvetica,sans-Serif" font-size="10.00">TMC2240Stepper::ADC_TEMP</text>
</a>
</g>
</g>
<!-- Node1&#45;&gt;Node2 -->
<g id="edge1_Node000001_Node000002" class="edge">
<title>Node1&#45;&gt;Node2</title>
<g id="a_edge1_Node000001_Node000002"><a xlink:title=" ">
<path fill="none" stroke="#63b8ff" d="M424.3,-663.74C421.71,-721.07 407.65,-880.09 331.25,-980.25 318.58,-996.86 298.04,-1008.69 281.35,-1016.18"/>
<polygon fill="#63b8ff" stroke="#63b8ff" points="427.79,-663.9 424.66,-653.78 420.8,-663.65 427.79,-663.9"/>
</a>
</g>
</g>
<!-- Node4 -->
<g id="Node000004" class="node">
<title>Node4</title>
<g id="a_Node000004"><a xlink:href="class_t_m_c2240_stepper.html#a499f0ea19c5584117c95f89f3805aab4" target="_top" xlink:title=" ">
<polygon fill="white" stroke="#666666" points="313.25,-971.5 193,-971.5 193,-941 313.25,-941 313.25,-971.5"/>
<text text-anchor="start" x="201" y="-958" font-family="Helvetica,sans-Serif" font-size="10.00">TMC2240Stepper::ADC</text>
<text text-anchor="middle" x="253.12" y="-946.75" font-family="Helvetica,sans-Serif" font-size="10.00">_VSUPPLY_AIN</text>
</a>
</g>
</g>
<!-- Node1&#45;&gt;Node4 -->
<g id="edge3_Node000001_Node000004" class="edge">
<title>Node1&#45;&gt;Node4</title>
<g id="a_edge3_Node000001_Node000004"><a xlink:title=" ">
<path fill="none" stroke="#63b8ff" d="M422.67,-663.76C416.58,-713.19 395.52,-836.55 331.25,-913.25 321.5,-924.88 307.76,-933.95 294.57,-940.69"/>
<polygon fill="#63b8ff" stroke="#63b8ff" points="426.14,-664.19 423.79,-653.86 419.19,-663.41 426.14,-664.19"/>
</a>
</g>
</g>
<!-- Node7 -->
<g id="Node000007" class="node">
<title>Node7</title>
<g id="a_Node000007"><a xlink:href="class_t_m_c2240_stepper.html#a01b6a378664e99c8fb7c2ffbffa03c2c" target="_top" xlink:title=" ">
<polygon fill="white" stroke="#666666" points="331.25,-866.88 175,-866.88 175,-847.62 331.25,-847.62 331.25,-866.88"/>
<text text-anchor="middle" x="253.12" y="-853.38" font-family="Helvetica,sans-Serif" font-size="10.00">TMC2240Stepper::CHOPCONF</text>
</a>
</g>
</g>
<!-- Node1&#45;&gt;Node7 -->
<g id="edge6_Node000001_Node000007" class="edge">
<title>Node1&#45;&gt;Node7</title>
<g id="a_edge6_Node000001_Node000007"><a xlink:title=" ">
<path fill="none" stroke="#63b8ff" d="M418.86,-662.71C407.32,-698.8 378.91,-774.32 331.25,-820.25 318.63,-832.41 301.26,-841.22 286.2,-847.19"/>
<polygon fill="#63b8ff" stroke="#63b8ff" points="422.09,-664.11 421.69,-653.52 415.4,-662.05 422.09,-664.11"/>
</a>
</g>
</g>
<!-- Node10 -->
<g id="Node000010" class="node">
<title>Node10</title>
<g id="a_Node000010"><a xlink:href="class_t_m_c2240_stepper.html#aeb10fe740ff7d6e970ebdb3db5a775c1" target="_top" xlink:title=" ">
<polygon fill="white" stroke="#666666" points="313.25,-811.5 193,-811.5 193,-781 313.25,-781 313.25,-811.5"/>
<text text-anchor="start" x="201" y="-798" font-family="Helvetica,sans-Serif" font-size="10.00">TMC2240Stepper::DRV</text>
<text text-anchor="middle" x="253.12" y="-786.75" font-family="Helvetica,sans-Serif" font-size="10.00">_STATUS</text>
</a>
</g>
</g>
<!-- Node1&#45;&gt;Node10 -->
<g id="edge9_Node000001_Node000010" class="edge">
<title>Node1&#45;&gt;Node10</title>
<g id="a_edge9_Node000001_Node000010"><a xlink:title=" ">
<path fill="none" stroke="#63b8ff" d="M407.9,-660.29C389.56,-679.48 359.21,-710.44 331.25,-735.25 312.99,-751.45 291.06,-768.59 275.27,-780.56"/>
<polygon fill="#63b8ff" stroke="#63b8ff" points="410.26,-662.88 414.61,-653.22 405.18,-658.06 410.26,-662.88"/>
</a>
</g>
</g>
<!-- Node12 -->
<g id="Node000012" class="node">
<title>Node12</title>
<g id="a_Node000012"><a xlink:href="class_t_m_c2240_stepper.html#a10bd310325636c2839b49a05eba924d9" target="_top" xlink:title=" ">
<polygon fill="white" stroke="#666666" points="320.38,-903.88 185.88,-903.88 185.88,-884.62 320.38,-884.62 320.38,-903.88"/>
<text text-anchor="middle" x="253.12" y="-890.38" font-family="Helvetica,sans-Serif" font-size="10.00">TMC2240Stepper::GCONF</text>
</a>
</g>
</g>
<!-- Node1&#45;&gt;Node12 -->
<g id="edge11_Node000001_Node000012" class="edge">
<title>Node1&#45;&gt;Node12</title>
<g id="a_edge11_Node000001_Node000012"><a xlink:title=" ">
<path fill="none" stroke="#63b8ff" d="M422.82,-663.58C417.2,-709.8 397.24,-819.56 331.25,-876.25 327.6,-879.39 323.51,-882 319.16,-884.18"/>
<polygon fill="#63b8ff" stroke="#63b8ff" points="426.28,-664.15 423.89,-653.83 419.32,-663.39 426.28,-664.15"/>
</a>
</g>
</g>
<!-- Node13 -->
<g id="Node000013" class="node">
<title>Node13</title>
<g id="a_Node000013"><a xlink:href="class_t_m_c2240_stepper.html#a1bf39bb8228d09c92e264de83124f788" target="_top" xlink:title=" ">
<polygon fill="white" stroke="#666666" points="318.5,-725.88 187.75,-725.88 187.75,-706.62 318.5,-706.62 318.5,-725.88"/>
<text text-anchor="middle" x="253.12" y="-712.38" font-family="Helvetica,sans-Serif" font-size="10.00">TMC2240Stepper::GSTAT</text>
</a>
</g>
</g>
<!-- Node1&#45;&gt;Node13 -->
<g id="edge14_Node000001_Node000013" class="edge">
<title>Node1&#45;&gt;Node13</title>
<g id="a_edge14_Node000001_Node000013"><a xlink:title=" ">
<path fill="none" stroke="#63b8ff" d="M402.06,-658.65C383.72,-671.14 356.88,-687.89 331.25,-698.25 323.6,-701.34 315.3,-703.97 307.08,-706.19"/>
<polygon fill="#63b8ff" stroke="#63b8ff" points="403.86,-661.67 410.07,-653.08 399.86,-655.92 403.86,-661.67"/>
</a>
</g>
</g>
<!-- Node19 -->
<g id="Node000019" class="node">
<title>Node19</title>
<g id="a_Node000019"><a xlink:href="class_t_m_c2240_stepper.html#a38f512ee00e8045ac2a0d2af62624709" target="_top" xlink:title=" ">
<polygon fill="white" stroke="#666666" points="317.38,-688.88 188.88,-688.88 188.88,-669.62 317.38,-669.62 317.38,-688.88"/>
<text text-anchor="middle" x="253.12" y="-675.38" font-family="Helvetica,sans-Serif" font-size="10.00">TMC2240Stepper::IFCNT</text>
</a>
</g>
</g>
<!-- Node1&#45;&gt;Node19 -->
<g id="edge20_Node000001_Node000019" class="edge">
<title>Node1&#45;&gt;Node19</title>
<g id="a_edge20_Node000001_Node000019"><a xlink:title=" ">
<path fill="none" stroke="#63b8ff" d="M367.18,-654.75C345.54,-659.44 321.24,-664.71 300.73,-669.15"/>
<polygon fill="#63b8ff" stroke="#63b8ff" points="367.71,-658.22 376.74,-652.68 366.22,-651.38 367.71,-658.22"/>
</a>
</g>
</g>
<!-- Node20 -->
<g id="Node000020" class="node">
<title>Node20</title>
<g id="a_Node000020"><a xlink:href="class_t_m_c2240_stepper.html#af095e5b639060acb4a1d71c7e8e60df5" target="_top" xlink:title=" ">
<polygon fill="white" stroke="#666666" points="312.88,-651.88 193.38,-651.88 193.38,-632.62 312.88,-632.62 312.88,-651.88"/>
<text text-anchor="middle" x="253.12" y="-638.38" font-family="Helvetica,sans-Serif" font-size="10.00">TMC2240Stepper::IOIN</text>
</a>
</g>
</g>
<!-- Node1&#45;&gt;Node20 -->
<g id="edge21_Node000001_Node000020" class="edge">
<title>Node1&#45;&gt;Node20</title>
<g id="a_edge21_Node000001_Node000020"><a xlink:title=" ">
<path fill="none" stroke="#63b8ff" d="M355.91,-642.25C341.8,-642.25 327.06,-642.25 313.33,-642.25"/>
<polygon fill="#63b8ff" stroke="#63b8ff" points="355.55,-645.75 365.55,-642.25 355.55,-638.75 355.55,-645.75"/>
</a>
</g>
</g>
<!-- Node21 -->
<g id="Node000021" class="node">
<title>Node21</title>
<g id="a_Node000021"><a xlink:href="class_t_m_c2240_stepper.html#a2add2e251038496a19a0200b6ab439ad" target="_top" xlink:title=" ">
<polygon fill="white" stroke="#666666" points="320.38,-614.88 185.88,-614.88 185.88,-595.62 320.38,-595.62 320.38,-614.88"/>
<text text-anchor="middle" x="253.12" y="-601.38" font-family="Helvetica,sans-Serif" font-size="10.00">TMC2240Stepper::MSCNT</text>
</a>
</g>
</g>
<!-- Node1&#45;&gt;Node21 -->
<g id="edge22_Node000001_Node000021" class="edge">
<title>Node1&#45;&gt;Node21</title>
<g id="a_edge22_Node000001_Node000021"><a xlink:title=" ">
<path fill="none" stroke="#63b8ff" d="M367.18,-629.75C345.54,-625.06 321.24,-619.79 300.73,-615.35"/>
<polygon fill="#63b8ff" stroke="#63b8ff" points="366.22,-633.12 376.74,-631.82 367.71,-626.28 366.22,-633.12"/>
</a>
</g>
</g>
<!-- Node22 -->
<g id="Node000022" class="node">
<title>Node22</title>
<g id="a_Node000022"><a xlink:href="class_t_m_c2240_stepper.html#a878092beebee08e1410ef7071ea6ae8f" target="_top" xlink:title=" ">
<polygon fill="white" stroke="#666666" points="331.25,-577.88 175,-577.88 175,-558.62 331.25,-558.62 331.25,-577.88"/>
<text text-anchor="middle" x="253.12" y="-564.38" font-family="Helvetica,sans-Serif" font-size="10.00">TMC2240Stepper::MSCURACT</text>
</a>
</g>
</g>
<!-- Node1&#45;&gt;Node22 -->
<g id="edge23_Node000001_Node000022" class="edge">
<title>Node1&#45;&gt;Node22</title>
<g id="a_edge23_Node000001_Node000022"><a xlink:title=" ">
<path fill="none" stroke="#63b8ff" d="M402.06,-625.85C383.72,-613.36 356.88,-596.61 331.25,-586.25 323.6,-583.16 315.3,-580.53 307.08,-578.31"/>
<polygon fill="#63b8ff" stroke="#63b8ff" points="399.86,-628.58 410.07,-631.42 403.86,-622.83 399.86,-628.58"/>
</a>
</g>
</g>
<!-- Node25 -->
<g id="Node000025" class="node">
<title>Node25</title>
<g id="a_Node000025"><a xlink:href="class_t_m_c2240_stepper.html#a13db85a1f13aa657e656cffe6ca32443" target="_top" xlink:title=" ">
<polygon fill="white" stroke="#666666" points="314,-447.5 192.25,-447.5 192.25,-417 314,-417 314,-447.5"/>
<text text-anchor="start" x="200.25" y="-434" font-family="Helvetica,sans-Serif" font-size="10.00">TMC2240Stepper::OTW</text>
<text text-anchor="middle" x="253.12" y="-422.75" font-family="Helvetica,sans-Serif" font-size="10.00">_OV_VTH</text>
</a>
</g>
</g>
<!-- Node1&#45;&gt;Node25 -->
<g id="edge26_Node000001_Node000025" class="edge">
<title>Node1&#45;&gt;Node25</title>
<g id="a_edge26_Node000001_Node000025"><a xlink:title=" ">
<path fill="none" stroke="#63b8ff" d="M409.81,-623.72C376.59,-582.86 297.54,-485.65 266.73,-447.75"/>
<polygon fill="#63b8ff" stroke="#63b8ff" points="406.89,-625.68 415.91,-631.23 412.32,-621.26 406.89,-625.68"/>
</a>
</g>
</g>
<!-- Node31 -->
<g id="Node000031" class="node">
<title>Node31</title>
<g id="a_Node000031"><a xlink:href="class_t_m_c2240_stepper.html#aa70915a82c2989ae9747206c872eaa12" target="_top" xlink:title=" ">
<polygon fill="white" stroke="#666666" points="331.25,-257.88 175,-257.88 175,-238.62 331.25,-238.62 331.25,-257.88"/>
<text text-anchor="middle" x="253.12" y="-244.38" font-family="Helvetica,sans-Serif" font-size="10.00">TMC2240Stepper::PWM_AUTO</text>
</a>
</g>
</g>
<!-- Node1&#45;&gt;Node31 -->
<g id="edge32_Node000001_Node000031" class="edge">
<title>Node1&#45;&gt;Node31</title>
<g id="a_edge32_Node000001_Node000031"><a xlink:title=" ">
<path fill="none" stroke="#63b8ff" d="M417.17,-621.62C401.72,-580.61 365.53,-486.08 331.25,-408.25 305.89,-350.68 271.97,-283.26 259.24,-258.25"/>
<polygon fill="#63b8ff" stroke="#63b8ff" points="413.87,-622.79 420.66,-630.92 420.42,-620.33 413.87,-622.79"/>
</a>
</g>
</g>
<!-- Node34 -->
<g id="Node000034" class="node">
<title>Node34</title>
<g id="a_Node000034"><a xlink:href="class_t_m_c2240_stepper.html#a3336ea25546499f2ff8426a66ed4bf9f" target="_top" xlink:title=" ">
<polygon fill="white" stroke="#666666" points="314.75,-165.5 191.5,-165.5 191.5,-135 314.75,-135 314.75,-165.5"/>
<text text-anchor="start" x="199.5" y="-152" font-family="Helvetica,sans-Serif" font-size="10.00">TMC2240Stepper::PWM</text>
<text text-anchor="middle" x="253.12" y="-140.75" font-family="Helvetica,sans-Serif" font-size="10.00">_SCALE</text>
</a>
</g>
</g>
<!-- Node1&#45;&gt;Node34 -->
<g id="edge35_Node000001_Node000034" class="edge">
<title>Node1&#45;&gt;Node34</title>
<g id="a_edge35_Node000001_Node000034"><a xlink:title=" ">
<path fill="none" stroke="#63b8ff" d="M424.08,-621.05C420.91,-557.66 405.36,-365.5 331.25,-229.25 317.24,-203.49 292.43,-180.3 274.73,-165.81"/>
<polygon fill="#63b8ff" stroke="#63b8ff" points="420.57,-620.91 424.51,-630.75 427.57,-620.6 420.57,-620.91"/>
</a>
</g>
</g>
<!-- Node37 -->
<g id="Node000037" class="node">
<title>Node37</title>
<g id="a_Node000037"><a xlink:href="class_t_m_c2240_stepper.html#a2182af8d874bb958d0ed4f84a9557a7a" target="_top" xlink:title=" ">
<polygon fill="white" stroke="#666666" points="312.12,-95.5 194.12,-95.5 194.12,-65 312.12,-65 312.12,-95.5"/>
<text text-anchor="start" x="202.12" y="-82" font-family="Helvetica,sans-Serif" font-size="10.00">TMC2240Stepper::SG4</text>
<text text-anchor="middle" x="253.12" y="-70.75" font-family="Helvetica,sans-Serif" font-size="10.00">_RESULT</text>
</a>
</g>
</g>
<!-- Node1&#45;&gt;Node37 -->
<g id="edge38_Node000001_Node000037" class="edge">
<title>Node1&#45;&gt;Node37</title>
<g id="a_edge38_Node000001_Node000037"><a xlink:title=" ">
<path fill="none" stroke="#63b8ff" d="M423.33,-620.76C416.74,-533.84 388.61,-208.98 331.25,-126.25 322.19,-113.18 308.1,-103.22 294.44,-95.97"/>
<polygon fill="#63b8ff" stroke="#63b8ff" points="419.84,-620.98 424.07,-630.69 426.82,-620.46 419.84,-620.98"/>
</a>
</g>
</g>
<!-- Node40 -->
<g id="Node000040" class="node">
<title>Node40</title>
<g id="a_Node000040"><a xlink:href="class_t_m_c2240_stepper.html#a629f19aff6fa3d08adfef3d0ebf61aac" target="_top" xlink:title=" ">
<polygon fill="white" stroke="#666666" points="318.5,-46.88 187.75,-46.88 187.75,-27.62 318.5,-27.62 318.5,-46.88"/>
<text text-anchor="middle" x="253.12" y="-33.38" font-family="Helvetica,sans-Serif" font-size="10.00">TMC2240Stepper::TSTEP</text>
</a>
</g>
</g>
<!-- Node1&#45;&gt;Node40 -->
<g id="edge41_Node000001_Node000040" class="edge">
<title>Node1&#45;&gt;Node40</title>
<g id="a_edge41_Node000001_Node000040"><a xlink:title=" ">
<path fill="none" stroke="#63b8ff" d="M424.51,-621.01C422.46,-526.02 409.37,-141.15 331.25,-56.25 327.7,-52.39 323.51,-49.26 318.94,-46.73"/>
<polygon fill="#63b8ff" stroke="#63b8ff" points="421.01,-620.98 424.71,-630.91 428.01,-620.85 421.01,-620.98"/>
</a>
</g>
</g>
<!-- Node3 -->
<g id="Node000003" class="node">
<title>Node3</title>
<g id="a_Node000003"><a xlink:href="class_t_m_c2240_stepper.html#a2c51e1e665d17cf57cdbfe9abec37301" target="_top" xlink:title=" ">
<polygon fill="white" stroke="#666666" points="125.5,-1069.5 13.5,-1069.5 13.5,-1039 125.5,-1039 125.5,-1069.5"/>
<text text-anchor="start" x="21.5" y="-1056" font-family="Helvetica,sans-Serif" font-size="10.00">TMC2240Stepper::get</text>
<text text-anchor="middle" x="69.5" y="-1044.75" font-family="Helvetica,sans-Serif" font-size="10.00">_chip_temperature</text>
</a>
</g>
</g>
<!-- Node2&#45;&gt;Node3 -->
<g id="edge2_Node000002_Node000003" class="edge">
<title>Node2&#45;&gt;Node3</title>
<g id="a_edge2_Node000002_Node000003"><a xlink:title=" ">
<path fill="none" stroke="#63b8ff" d="M175.19,-1038.11C158.6,-1040.67 141.37,-1043.32 125.79,-1045.73"/>
<polygon fill="#63b8ff" stroke="#63b8ff" points="175.71,-1041.57 185.06,-1036.59 174.64,-1034.65 175.71,-1041.57"/>
</a>
</g>
</g>
<!-- Node5 -->
<g id="Node000005" class="node">
<title>Node5</title>
<g id="a_Node000005"><a xlink:href="class_t_m_c2240_stepper.html#af17e3b426eca04ecaac5a3f57944d8e6" target="_top" xlink:title=" ">
<polygon fill="white" stroke="#666666" points="125.5,-1020.5 13.5,-1020.5 13.5,-990 125.5,-990 125.5,-1020.5"/>
<text text-anchor="start" x="21.5" y="-1007" font-family="Helvetica,sans-Serif" font-size="10.00">TMC2240Stepper::get</text>
<text text-anchor="middle" x="69.5" y="-995.75" font-family="Helvetica,sans-Serif" font-size="10.00">_ain_voltage</text>
</a>
</g>
</g>
<!-- Node4&#45;&gt;Node5 -->
<g id="edge4_Node000004_Node000005" class="edge">
<title>Node4&#45;&gt;Node5</title>
<g id="a_edge4_Node000004_Node000005"><a xlink:title=" ">
<path fill="none" stroke="#63b8ff" d="M182.98,-974.91C164.11,-980 143.91,-985.44 125.91,-990.3"/>
<polygon fill="#63b8ff" stroke="#63b8ff" points="183.7,-978.33 192.45,-972.35 181.88,-971.58 183.7,-978.33"/>
</a>
</g>
</g>
<!-- Node6 -->
<g id="Node000006" class="node">
<title>Node6</title>
<g id="a_Node000006"><a xlink:href="class_t_m_c2240_stepper.html#abe6bd3c16570a56b3cb3b64f69df2686" target="_top" xlink:title=" ">
<polygon fill="white" stroke="#666666" points="125.5,-971.5 13.5,-971.5 13.5,-941 125.5,-941 125.5,-971.5"/>
<text text-anchor="start" x="21.5" y="-958" font-family="Helvetica,sans-Serif" font-size="10.00">TMC2240Stepper::get</text>
<text text-anchor="middle" x="69.5" y="-946.75" font-family="Helvetica,sans-Serif" font-size="10.00">_vsupply_voltage</text>
</a>
</g>
</g>
<!-- Node4&#45;&gt;Node6 -->
<g id="edge5_Node000004_Node000006" class="edge">
<title>Node4&#45;&gt;Node6</title>
<g id="a_edge5_Node000004_Node000006"><a xlink:title=" ">
<path fill="none" stroke="#63b8ff" d="M181.35,-956.25C162.91,-956.25 143.31,-956.25 125.79,-956.25"/>
<polygon fill="#63b8ff" stroke="#63b8ff" points="181.14,-959.75 191.14,-956.25 181.14,-952.75 181.14,-959.75"/>
</a>
</g>
</g>
<!-- Node8 -->
<g id="Node000008" class="node">
<title>Node8</title>
<g id="a_Node000008"><a xlink:href="class_t_m_c2240_stepper.html#a72da25686a74f8d3a87c4f01b9301ce7" target="_top" xlink:title=" ">
<polygon fill="white" stroke="#666666" points="130.38,-922.88 8.62,-922.88 8.62,-903.62 130.38,-903.62 130.38,-922.88"/>
<text text-anchor="middle" x="69.5" y="-909.38" font-family="Helvetica,sans-Serif" font-size="10.00">TMC2240Stepper::begin</text>
</a>
</g>
</g>
<!-- Node7&#45;&gt;Node8 -->
<g id="edge7_Node000007_Node000008" class="edge">
<title>Node7&#45;&gt;Node8</title>
<g id="a_edge7_Node000007_Node000008"><a xlink:title=" ">
<path fill="none" stroke="#63b8ff" d="M189.31,-870.35C184.42,-871.85 179.6,-873.48 175,-875.25 157.92,-881.84 155.98,-888.43 139,-895.25 131.47,-898.28 123.27,-900.94 115.24,-903.22"/>
<polygon fill="#63b8ff" stroke="#63b8ff" points="189.96,-873.81 198.63,-867.72 188.05,-867.07 189.96,-873.81"/>
</a>
</g>
</g>
<!-- Node9 -->
<g id="Node000009" class="node">
<title>Node9</title>
<g id="a_Node000009"><a xlink:href="class_t_m_c2240_stepper.html#ad3dceab3734fad6678234e177bca6c11" target="_top" xlink:title=" ">
<polygon fill="white" stroke="#666666" points="129.25,-885.88 9.75,-885.88 9.75,-866.62 129.25,-866.62 129.25,-885.88"/>
<text text-anchor="middle" x="69.5" y="-872.38" font-family="Helvetica,sans-Serif" font-size="10.00">TMC2240Stepper::push</text>
</a>
</g>
</g>
<!-- Node7&#45;&gt;Node9 -->
<g id="edge8_Node000007_Node000009" class="edge">
<title>Node7&#45;&gt;Node9</title>
<g id="a_edge8_Node000007_Node000009"><a xlink:title=" ">
<path fill="none" stroke="#63b8ff" d="M163.23,-866.55C151.84,-867.74 140.41,-868.94 129.66,-870.06"/>
<polygon fill="#63b8ff" stroke="#63b8ff" points="163.49,-870.04 173.07,-865.52 162.76,-863.08 163.49,-870.04"/>
</a>
</g>
</g>
<!-- Node11 -->
<g id="Node000011" class="node">
<title>Node11</title>
<g id="a_Node000011"><a xlink:href="class_t_m_c2240_stepper.html#ae4842c99bfe3fc73c990a056cfc25005" target="_top" xlink:title=" ">
<polygon fill="white" stroke="#666666" points="127,-848.5 12,-848.5 12,-818 127,-818 127,-848.5"/>
<text text-anchor="start" x="20" y="-835" font-family="Helvetica,sans-Serif" font-size="10.00">TMC2240Stepper::test</text>
<text text-anchor="middle" x="69.5" y="-823.75" font-family="Helvetica,sans-Serif" font-size="10.00">_connection</text>
</a>
</g>
</g>
<!-- Node10&#45;&gt;Node11 -->
<g id="edge10_Node000010_Node000011" class="edge">
<title>Node10&#45;&gt;Node11</title>
<g id="a_edge10_Node000010_Node000011"><a xlink:title=" ">
<path fill="none" stroke="#63b8ff" d="M181.63,-810.61C163.64,-814.28 144.53,-818.17 127.33,-821.67"/>
<polygon fill="#63b8ff" stroke="#63b8ff" points="182.07,-814.09 191.17,-808.67 180.67,-807.23 182.07,-814.09"/>
</a>
</g>
</g>
<!-- Node12&#45;&gt;Node8 -->
<g id="edge12_Node000012_Node000008" class="edge">
<title>Node12&#45;&gt;Node8</title>
<g id="a_edge12_Node000012_Node000008"><a xlink:title=" ">
<path fill="none" stroke="#63b8ff" d="M174.46,-902.37C159.85,-903.9 144.76,-905.48 130.78,-906.94"/>
<polygon fill="#63b8ff" stroke="#63b8ff" points="174.44,-905.9 184.02,-901.37 173.71,-898.93 174.44,-905.9"/>
</a>
</g>
</g>
<!-- Node12&#45;&gt;Node9 -->
<g id="edge13_Node000012_Node000009" class="edge">
<title>Node12&#45;&gt;Node9</title>
<g id="a_edge13_Node000012_Node000009"><a xlink:title=" ">
<path fill="none" stroke="#63b8ff" d="M174.21,-886.53C159.26,-885.05 143.83,-883.52 129.59,-882.11"/>
<polygon fill="#63b8ff" stroke="#63b8ff" points="173.72,-890 184.02,-887.5 174.41,-883.03 173.72,-890"/>
</a>
</g>
</g>
<!-- Node14 -->
<g id="Node000014" class="node">
<title>Node14</title>
<g id="a_Node000014"><a xlink:href="class_t_m_c2240_stepper.html#ade0b355ce1ed9bc526d77fe9054a4315" target="_top" xlink:title=" ">
<polygon fill="white" stroke="#666666" points="133.75,-725.88 5.25,-725.88 5.25,-706.62 133.75,-706.62 133.75,-725.88"/>
<text text-anchor="middle" x="69.5" y="-712.38" font-family="Helvetica,sans-Serif" font-size="10.00">TMC2240Stepper::drv_err</text>
</a>
</g>
</g>
<!-- Node13&#45;&gt;Node14 -->
<g id="edge15_Node000013_Node000014" class="edge">
<title>Node13&#45;&gt;Node14</title>
<g id="a_edge15_Node000013_Node000014"><a xlink:title=" ">
<path fill="none" stroke="#63b8ff" d="M176.21,-716.25C162.18,-716.25 147.67,-716.25 134.06,-716.25"/>
<polygon fill="#63b8ff" stroke="#63b8ff" points="175.81,-719.75 185.81,-716.25 175.81,-712.75 175.81,-719.75"/>
</a>
</g>
</g>
<!-- Node15 -->
<g id="Node000015" class="node">
<title>Node15</title>
<g id="a_Node000015"><a xlink:href="class_t_m_c2240_stepper.html#a1c9dfc39f0223341e743d3596917d85e" target="_top" xlink:title=" ">
<polygon fill="white" stroke="#666666" points="134.88,-688.5 4.12,-688.5 4.12,-658 134.88,-658 134.88,-688.5"/>
<text text-anchor="start" x="12.12" y="-675" font-family="Helvetica,sans-Serif" font-size="10.00">TMC2240Stepper::register</text>
<text text-anchor="middle" x="69.5" y="-663.75" font-family="Helvetica,sans-Serif" font-size="10.00">_reset</text>
</a>
</g>
</g>
<!-- Node13&#45;&gt;Node15 -->
<g id="edge16_Node000013_Node000015" class="edge">
<title>Node13&#45;&gt;Node15</title>
<g id="a_edge16_Node000013_Node000015"><a xlink:title=" ">
<path fill="none" stroke="#63b8ff" d="M197.8,-703.61C190.14,-701.82 182.37,-699.99 175,-698.25 162.11,-695.2 148.33,-691.92 135.15,-688.78"/>
<polygon fill="#63b8ff" stroke="#63b8ff" points="196.87,-706.99 207.4,-705.86 198.46,-700.17 196.87,-706.99"/>
</a>
</g>
</g>
<!-- Node16 -->
<g id="Node000016" class="node">
<title>Node16</title>
<g id="a_Node000016"><a xlink:href="class_t_m_c2240_stepper.html#a93f4756713b780af23557f2b635ebd36" target="_top" xlink:title=" ">
<polygon fill="white" stroke="#666666" points="129.62,-639.88 9.38,-639.88 9.38,-620.62 129.62,-620.62 129.62,-639.88"/>
<text text-anchor="middle" x="69.5" y="-626.38" font-family="Helvetica,sans-Serif" font-size="10.00">TMC2240Stepper::reset</text>
</a>
</g>
</g>
<!-- Node13&#45;&gt;Node16 -->
<g id="edge17_Node000013_Node000016" class="edge">
<title>Node13&#45;&gt;Node16</title>
<g id="a_edge17_Node000013_Node000016"><a xlink:title=" ">
<path fill="none" stroke="#63b8ff" d="M180.62,-701.6C178.68,-700.56 176.81,-699.44 175,-698.25 152.44,-683.37 161.24,-664.59 139,-649.25 133.72,-645.61 127.75,-642.66 121.61,-640.27"/>
<polygon fill="#63b8ff" stroke="#63b8ff" points="178.73,-704.58 189.28,-705.58 181.65,-698.22 178.73,-704.58"/>
</a>
</g>
</g>
<!-- Node17 -->
<g id="Node000017" class="node">
<title>Node17</title>
<g id="a_Node000017"><a xlink:href="class_t_m_c2240_stepper.html#a6bc17bc54f431115ad5d92274eb450fe" target="_top" xlink:title=" ">
<polygon fill="white" stroke="#666666" points="131.88,-799.88 7.13,-799.88 7.13,-780.62 131.88,-780.62 131.88,-799.88"/>
<text text-anchor="middle" x="69.5" y="-786.38" font-family="Helvetica,sans-Serif" font-size="10.00">TMC2240Stepper::uv_cp</text>
</a>
</g>
</g>
<!-- Node13&#45;&gt;Node17 -->
<g id="edge18_Node000013_Node000017" class="edge">
<title>Node13&#45;&gt;Node17</title>
<g id="a_edge18_Node000013_Node000017"><a xlink:title=" ">
<path fill="none" stroke="#63b8ff" d="M224.76,-731.76C202.27,-744.02 169.3,-760.9 139,-772.25 131.17,-775.18 122.67,-777.83 114.4,-780.13"/>
<polygon fill="#63b8ff" stroke="#63b8ff" points="226.21,-734.96 233.27,-727.06 222.83,-728.83 226.21,-734.96"/>
</a>
</g>
</g>
<!-- Node18 -->
<g id="Node000018" class="node">
<title>Node18</title>
<g id="a_Node000018"><a xlink:href="class_t_m_c2240_stepper.html#a28b2731c02d029b3a32097cfec614adf" target="_top" xlink:title=" ">
<polygon fill="white" stroke="#666666" points="137.12,-762.88 1.88,-762.88 1.88,-743.62 137.12,-743.62 137.12,-762.88"/>
<text text-anchor="middle" x="69.5" y="-749.38" font-family="Helvetica,sans-Serif" font-size="10.00">TMC2240Stepper::vm_uvlo</text>
</a>
</g>
</g>
<!-- Node13&#45;&gt;Node18 -->
<g id="edge19_Node000013_Node000018" class="edge">
<title>Node13&#45;&gt;Node18</title>
<g id="a_edge19_Node000013_Node000018"><a xlink:title=" ">
<path fill="none" stroke="#63b8ff" d="M191.39,-728.62C168.21,-733.35 142.09,-738.67 120.07,-743.15"/>
<polygon fill="#63b8ff" stroke="#63b8ff" points="191.91,-732.09 201.01,-726.66 190.51,-725.23 191.91,-732.09"/>
</a>
</g>
</g>
<!-- Node23 -->
<g id="Node000023" class="node">
<title>Node23</title>
<g id="a_Node000023"><a xlink:href="class_t_m_c2240_stepper.html#a90d6e76948e23d4e03b702a871439a97" target="_top" xlink:title=" ">
<polygon fill="white" stroke="#666666" points="130.75,-602.88 8.25,-602.88 8.25,-583.62 130.75,-583.62 130.75,-602.88"/>
<text text-anchor="middle" x="69.5" y="-589.38" font-family="Helvetica,sans-Serif" font-size="10.00">TMC2240Stepper::cur_a</text>
</a>
</g>
</g>
<!-- Node22&#45;&gt;Node23 -->
<g id="edge24_Node000022_Node000023" class="edge">
<title>Node22&#45;&gt;Node23</title>
<g id="a_edge24_Node000022_Node000023"><a xlink:title=" ">
<path fill="none" stroke="#63b8ff" d="M167.53,-579.89C155.22,-581.59 142.75,-583.3 131.04,-584.92"/>
<polygon fill="#63b8ff" stroke="#63b8ff" points="167.85,-583.38 177.28,-578.55 166.89,-576.45 167.85,-583.38"/>
</a>
</g>
</g>
<!-- Node24 -->
<g id="Node000024" class="node">
<title>Node24</title>
<g id="a_Node000024"><a xlink:href="class_t_m_c2240_stepper.html#ac6cc53b250fbb11c6149d5177ef7c56c" target="_top" xlink:title=" ">
<polygon fill="white" stroke="#666666" points="130.75,-565.88 8.25,-565.88 8.25,-546.62 130.75,-546.62 130.75,-565.88"/>
<text text-anchor="middle" x="69.5" y="-552.38" font-family="Helvetica,sans-Serif" font-size="10.00">TMC2240Stepper::cur_b</text>
</a>
</g>
</g>
<!-- Node22&#45;&gt;Node24 -->
<g id="edge25_Node000022_Node000024" class="edge">
<title>Node22&#45;&gt;Node24</title>
<g id="a_edge25_Node000022_Node000024"><a xlink:title=" ">
<path fill="none" stroke="#63b8ff" d="M163.25,-562.38C152.34,-561.66 141.39,-560.93 131.04,-560.25"/>
<polygon fill="#63b8ff" stroke="#63b8ff" points="162.85,-565.86 173.06,-563.03 163.32,-558.87 162.85,-565.86"/>
</a>
</g>
</g>
<!-- Node26 -->
<g id="Node000026" class="node">
<title>Node26</title>
<g id="a_Node000026"><a xlink:href="class_t_m_c2240_stepper.html#ac56ac254b4d745b52c282c090972efd9" target="_top" xlink:title=" ">
<polygon fill="white" stroke="#666666" points="138.25,-420.5 0.75,-420.5 0.75,-390 138.25,-390 138.25,-420.5"/>
<text text-anchor="start" x="8.75" y="-407" font-family="Helvetica,sans-Serif" font-size="10.00">TMC2240Stepper::get</text>
<text text-anchor="middle" x="69.5" y="-395.75" font-family="Helvetica,sans-Serif" font-size="10.00">_overtemp_prewarn_celsius</text>
</a>
</g>
</g>
<!-- Node25&#45;&gt;Node26 -->
<g id="edge27_Node000025_Node000026" class="edge">
<title>Node25&#45;&gt;Node26</title>
<g id="a_edge27_Node000025_Node000026"><a xlink:title=" ">
<path fill="none" stroke="#63b8ff" d="M180.51,-421.6C166.75,-419.56 152.37,-417.42 138.72,-415.39"/>
<polygon fill="#63b8ff" stroke="#63b8ff" points="180,-425.07 190.4,-423.07 181.03,-418.14 180,-425.07"/>
</a>
</g>
</g>
<!-- Node27 -->
<g id="Node000027" class="node">
<title>Node27</title>
<g id="a_Node000027"><a xlink:href="class_t_m_c2240_stepper.html#adcc4883716f3edfbd2b165edb958bd42" target="_top" xlink:title=" ">
<polygon fill="white" stroke="#666666" points="127.75,-372.12 11.25,-372.12 11.25,-330.38 127.75,-330.38 127.75,-372.12"/>
<text text-anchor="start" x="19.25" y="-358.62" font-family="Helvetica,sans-Serif" font-size="10.00">TMC2240Stepper::get</text>
<text text-anchor="start" x="19.25" y="-347.38" font-family="Helvetica,sans-Serif" font-size="10.00">_overvoltage_threshold</text>
<text text-anchor="middle" x="69.5" y="-336.12" font-family="Helvetica,sans-Serif" font-size="10.00">_voltage</text>
</a>
</g>
</g>
<!-- Node25&#45;&gt;Node27 -->
<g id="edge28_Node000025_Node000027" class="edge">
<title>Node25&#45;&gt;Node27</title>
<g id="a_edge28_Node000025_Node000027"><a xlink:title=" ">
<path fill="none" stroke="#63b8ff" d="M207.1,-411.82C186.38,-402.45 161.46,-391.23 139,-381.25 132.59,-378.4 125.84,-375.42 119.18,-372.49"/>
<polygon fill="#63b8ff" stroke="#63b8ff" points="205.58,-414.97 216.13,-415.9 208.46,-408.59 205.58,-414.97"/>
</a>
</g>
</g>
<!-- Node28 -->
<g id="Node000028" class="node">
<title>Node28</title>
<g id="a_Node000028"><a xlink:href="class_t_m_c2240_stepper.html#a14f7770c1bd7fcfed40e40c29e3a4312" target="_top" xlink:title=" ">
<polygon fill="white" stroke="#666666" points="139,-312.5 0,-312.5 0,-282 139,-282 139,-312.5"/>
<text text-anchor="start" x="8" y="-299" font-family="Helvetica,sans-Serif" font-size="10.00">TMC2240Stepper::INIT2240</text>
<text text-anchor="middle" x="69.5" y="-287.75" font-family="Helvetica,sans-Serif" font-size="10.00">_REGISTER</text>
</a>
</g>
</g>
<!-- Node25&#45;&gt;Node28 -->
<g id="edge29_Node000025_Node000028" class="edge">
<title>Node25&#45;&gt;Node28</title>
<g id="a_edge29_Node000025_Node000028"><a xlink:title=" ">
<path fill="none" stroke="#63b8ff" d="M232.98,-407.99C212.21,-383.12 176.91,-344.83 139,-321.25 133.97,-318.12 128.48,-315.33 122.87,-312.87"/>
<polygon fill="#63b8ff" stroke="#63b8ff" points="230.2,-410.12 239.25,-415.64 235.62,-405.68 230.2,-410.12"/>
</a>
</g>
</g>
<!-- Node29 -->
<g id="Node000029" class="node">
<title>Node29</title>
<g id="a_Node000029"><a xlink:href="class_t_m_c2240_stepper.html#a63df54b3cd20b3b25b7aa832c9ace4d9" target="_top" xlink:title=" ">
<polygon fill="white" stroke="#666666" points="138.25,-528.5 0.75,-528.5 0.75,-498 138.25,-498 138.25,-528.5"/>
<text text-anchor="start" x="8.75" y="-515" font-family="Helvetica,sans-Serif" font-size="10.00">TMC2240Stepper::set</text>
<text text-anchor="middle" x="69.5" y="-503.75" font-family="Helvetica,sans-Serif" font-size="10.00">_overtemp_prewarn_celsius</text>
</a>
</g>
</g>
<!-- Node25&#45;&gt;Node29 -->
<g id="edge30_Node000025_Node000029" class="edge">
<title>Node25&#45;&gt;Node29</title>
<g id="a_edge30_Node000025_Node000029"><a xlink:title=" ">
<path fill="none" stroke="#63b8ff" d="M213.69,-453.18C192.07,-464.55 164.39,-478.46 139,-489.25 132.27,-492.11 125.08,-494.9 117.97,-497.52"/>
<polygon fill="#63b8ff" stroke="#63b8ff" points="215.25,-456.31 222.45,-448.53 211.97,-450.13 215.25,-456.31"/>
</a>
</g>
</g>
<!-- Node30 -->
<g id="Node000030" class="node">
<title>Node30</title>
<g id="a_Node000030"><a xlink:href="class_t_m_c2240_stepper.html#a5c1c69f365c8980031a747fd84787db0" target="_top" xlink:title=" ">
<polygon fill="white" stroke="#666666" points="127.75,-480.12 11.25,-480.12 11.25,-438.38 127.75,-438.38 127.75,-480.12"/>
<text text-anchor="start" x="19.25" y="-466.62" font-family="Helvetica,sans-Serif" font-size="10.00">TMC2240Stepper::set</text>
<text text-anchor="start" x="19.25" y="-455.38" font-family="Helvetica,sans-Serif" font-size="10.00">_overvoltage_threshold</text>
<text text-anchor="middle" x="69.5" y="-444.12" font-family="Helvetica,sans-Serif" font-size="10.00">_voltage</text>
</a>
</g>
</g>
<!-- Node25&#45;&gt;Node30 -->
<g id="edge31_Node000025_Node000030" class="edge">
<title>Node25&#45;&gt;Node30</title>
<g id="a_edge31_Node000025_Node000030"><a xlink:title=" ">
<path fill="none" stroke="#63b8ff" d="M180.62,-442.88C163.2,-445.47 144.78,-448.21 128.1,-450.69"/>
<polygon fill="#63b8ff" stroke="#63b8ff" points="181.03,-446.36 190.4,-441.43 180,-439.43 181.03,-446.36"/>
</a>
</g>
</g>
<!-- Node32 -->
<g id="Node000032" class="node">
<title>Node32</title>
<g id="a_Node000032"><a xlink:href="class_t_m_c2240_stepper.html#ad4baa6d90db647bac47ad9f809a05273" target="_top" xlink:title=" ">
<polygon fill="white" stroke="#666666" points="129.25,-263.5 9.75,-263.5 9.75,-233 129.25,-233 129.25,-263.5"/>
<text text-anchor="start" x="17.75" y="-250" font-family="Helvetica,sans-Serif" font-size="10.00">TMC2240Stepper::pwm</text>
<text text-anchor="middle" x="69.5" y="-238.75" font-family="Helvetica,sans-Serif" font-size="10.00">_grad_auto</text>
</a>
</g>
</g>
<!-- Node31&#45;&gt;Node32 -->
<g id="edge33_Node000031_Node000032" class="edge">
<title>Node31&#45;&gt;Node32</title>
<g id="a_edge33_Node000031_Node000032"><a xlink:title=" ">
<path fill="none" stroke="#63b8ff" d="M163.23,-248.25C151.84,-248.25 140.41,-248.25 129.66,-248.25"/>
<polygon fill="#63b8ff" stroke="#63b8ff" points="163.06,-251.75 173.06,-248.25 163.06,-244.75 163.06,-251.75"/>
</a>
</g>
</g>
<!-- Node33 -->
<g id="Node000033" class="node">
<title>Node33</title>
<g id="a_Node000033"><a xlink:href="class_t_m_c2240_stepper.html#a2606a91e1fa82e4be294650641851108" target="_top" xlink:title=" ">
<polygon fill="white" stroke="#666666" points="129.25,-214.5 9.75,-214.5 9.75,-184 129.25,-184 129.25,-214.5"/>
<text text-anchor="start" x="17.75" y="-201" font-family="Helvetica,sans-Serif" font-size="10.00">TMC2240Stepper::pwm</text>
<text text-anchor="middle" x="69.5" y="-189.75" font-family="Helvetica,sans-Serif" font-size="10.00">_ofs_auto</text>
</a>
</g>
</g>
<!-- Node31&#45;&gt;Node33 -->
<g id="edge34_Node000031_Node000033" class="edge">
<title>Node31&#45;&gt;Node33</title>
<g id="a_edge34_Node000031_Node000033"><a xlink:title=" ">
<path fill="none" stroke="#63b8ff" d="M204.01,-235.27C180.91,-229.04 153.03,-221.52 128.74,-214.96"/>
<polygon fill="#63b8ff" stroke="#63b8ff" points="202.9,-238.6 213.47,-237.82 204.73,-231.84 202.9,-238.6"/>
</a>
</g>
</g>
<!-- Node35 -->
<g id="Node000035" class="node">
<title>Node35</title>
<g id="a_Node000035"><a xlink:href="class_t_m_c2240_stepper.html#adf41d39fbdfc6b0aee70f52fa3c4d0d3" target="_top" xlink:title=" ">
<polygon fill="white" stroke="#666666" points="129.25,-165.5 9.75,-165.5 9.75,-135 129.25,-135 129.25,-165.5"/>
<text text-anchor="start" x="17.75" y="-152" font-family="Helvetica,sans-Serif" font-size="10.00">TMC2240Stepper::pwm</text>
<text text-anchor="middle" x="69.5" y="-140.75" font-family="Helvetica,sans-Serif" font-size="10.00">_scale_auto</text>
</a>
</g>
</g>
<!-- Node34&#45;&gt;Node35 -->
<g id="edge36_Node000034_Node000035" class="edge">
<title>Node34&#45;&gt;Node35</title>
<g id="a_edge36_Node000034_Node000035"><a xlink:title=" ">
<path fill="none" stroke="#63b8ff" d="M179.76,-150.25C163.07,-150.25 145.51,-150.25 129.48,-150.25"/>
<polygon fill="#63b8ff" stroke="#63b8ff" points="179.63,-153.75 189.63,-150.25 179.63,-146.75 179.63,-153.75"/>
</a>
</g>
</g>
<!-- Node36 -->
<g id="Node000036" class="node">
<title>Node36</title>
<g id="a_Node000036"><a xlink:href="class_t_m_c2240_stepper.html#a3f8b5b5fccf3dd4e210062ed4a7a199b" target="_top" xlink:title=" ">
<polygon fill="white" stroke="#666666" points="129.25,-116.5 9.75,-116.5 9.75,-86 129.25,-86 129.25,-116.5"/>
<text text-anchor="start" x="17.75" y="-103" font-family="Helvetica,sans-Serif" font-size="10.00">TMC2240Stepper::pwm</text>
<text text-anchor="middle" x="69.5" y="-91.75" font-family="Helvetica,sans-Serif" font-size="10.00">_scale_sum</text>
</a>
</g>
</g>
<!-- Node34&#45;&gt;Node36 -->
<g id="edge37_Node000034_Node000036" class="edge">
<title>Node34&#45;&gt;Node36</title>
<g id="a_edge37_Node000034_Node000036"><a xlink:title=" ">
<path fill="none" stroke="#63b8ff" d="M182.95,-131.59C165.05,-126.76 145.97,-121.61 128.7,-116.95"/>
<polygon fill="#63b8ff" stroke="#63b8ff" points="181.88,-134.92 192.45,-134.15 183.7,-128.17 181.88,-134.92"/>
</a>
</g>
</g>
<!-- Node38 -->
<g id="Node000038" class="node">
<title>Node38</title>
<g id="a_Node000038"><a xlink:href="class_t_m_c2240_stepper.html#a9c6c232485bb7305538ddb52c972c88c" target="_top" xlink:title=" ">
<polygon fill="white" stroke="#666666" points="126.62,-67.88 12.37,-67.88 12.37,-48.62 126.62,-48.62 126.62,-67.88"/>
<text text-anchor="middle" x="69.5" y="-54.38" font-family="Helvetica,sans-Serif" font-size="10.00">TMC2240Stepper::sg4</text>
</a>
</g>
</g>
<!-- Node37&#45;&gt;Node38 -->
<g id="edge39_Node000037_Node000038" class="edge">
<title>Node37&#45;&gt;Node38</title>
<g id="a_edge39_Node000037_Node000038"><a xlink:title=" ">
<path fill="none" stroke="#63b8ff" d="M182.43,-71.81C164.09,-69.59 144.54,-67.22 127,-65.09"/>
<polygon fill="#63b8ff" stroke="#63b8ff" points="181.81,-75.26 192.16,-72.99 182.65,-68.31 181.81,-75.26"/>
</a>
</g>
</g>
<!-- Node39 -->
<g id="Node000039" class="node">
<title>Node39</title>
<g id="a_Node000039"><a xlink:href="class_t_m_c2240_stepper.html#aff1104b5ea9f9230dc7591d334cce9fc" target="_top" xlink:title=" ">
<polygon fill="white" stroke="#666666" points="126.62,-30.5 12.37,-30.5 12.37,0 126.62,0 126.62,-30.5"/>
<text text-anchor="start" x="20.38" y="-17" font-family="Helvetica,sans-Serif" font-size="10.00">TMC2240Stepper::sg4</text>
<text text-anchor="middle" x="69.5" y="-5.75" font-family="Helvetica,sans-Serif" font-size="10.00">_result</text>
</a>
</g>
</g>
<!-- Node37&#45;&gt;Node39 -->
<g id="edge40_Node000037_Node000039" class="edge">
<title>Node37&#45;&gt;Node39</title>
<g id="a_edge40_Node000037_Node000039"><a xlink:title=" ">
<path fill="none" stroke="#63b8ff" d="M187.58,-60.9C183.3,-59.39 179.07,-57.84 175,-56.25 158.51,-49.83 155.37,-45.96 139,-39.25 132,-36.38 124.53,-33.54 117.17,-30.87"/>
<polygon fill="#63b8ff" stroke="#63b8ff" points="186.24,-64.14 196.84,-64.06 188.5,-57.52 186.24,-64.14"/>
</a>
</g>
</g>
</g>
</svg>
