<?xml version="1.0" encoding="UTF-8" standalone="no"?>
<!DOCTYPE svg PUBLIC "-//W3C//DTD SVG 1.1//EN"
 "http://www.w3.org/Graphics/SVG/1.1/DTD/svg11.dtd">
<!-- Generated by graphviz version 12.2.1 (20241206.2353)
 -->
<!-- Title: TMC2160Stepper::INIT_REGISTER Pages: 1 -->
<svg width="472pt" height="39pt"
 viewBox="0.00 0.00 471.50 38.50" xmlns="http://www.w3.org/2000/svg" xmlns:xlink="http://www.w3.org/1999/xlink">
<g id="graph0" class="graph" transform="scale(1 1) rotate(0) translate(4 34.5)">
<title>TMC2160Stepper::INIT_REGISTER</title>
<!-- Node1 -->
<g id="Node000001" class="node">
<title>Node1</title>
<g id="a_Node000001"><a xlink:title=" ">
<polygon fill="#999999" stroke="#666666" points="118,-30.5 0,-30.5 0,0 118,0 118,-30.5"/>
<text text-anchor="start" x="8" y="-17" font-family="Helvetica,sans-Serif" font-size="10.00">TMC2160Stepper::INIT</text>
<text text-anchor="middle" x="59" y="-5.75" font-family="Helvetica,sans-Serif" font-size="10.00">_REGISTER</text>
</a>
</g>
</g>
<!-- Node2 -->
<g id="Node000002" class="node">
<title>Node2</title>
<g id="a_Node000002"><a xlink:href="class_t_m_c2160_stepper.html#a6aec416cc563c9a195929bfd36e1707a" target="_top" xlink:title=" ">
<polygon fill="white" stroke="#666666" points="308,-24.88 154,-24.88 154,-5.63 308,-5.63 308,-24.88"/>
<text text-anchor="middle" x="231" y="-11.38" font-family="Helvetica,sans-Serif" font-size="10.00">TMC2160Stepper::DRV_CONF</text>
</a>
</g>
</g>
<!-- Node1&#45;&gt;Node2 -->
<g id="edge1_Node000001_Node000002" class="edge">
<title>Node1&#45;&gt;Node2</title>
<g id="a_edge1_Node000001_Node000002"><a xlink:title=" ">
<path fill="none" stroke="#63b8ff" d="M118.03,-15.25C125.9,-15.25 134.11,-15.25 142.36,-15.25"/>
<polygon fill="#63b8ff" stroke="#63b8ff" points="142.08,-18.75 152.08,-15.25 142.08,-11.75 142.08,-18.75"/>
</a>
</g>
</g>
<!-- Node3 -->
<g id="Node000003" class="node">
<title>Node3</title>
<g id="a_Node000003"><a xlink:href="class_t_m_c2130_stepper.html#a1f26f0ea072d38c0afd20f27563ebb64" target="_top" xlink:title=" ">
<polygon fill="white" stroke="#666666" points="463.5,-24.88 344,-24.88 344,-5.63 463.5,-5.63 463.5,-24.88"/>
<text text-anchor="middle" x="403.75" y="-11.38" font-family="Helvetica,sans-Serif" font-size="10.00">TMC2130Stepper::write</text>
</a>
</g>
</g>
<!-- Node2&#45;&gt;Node3 -->
<g id="edge2_Node000002_Node000003" class="edge">
<title>Node2&#45;&gt;Node3</title>
<g id="a_edge2_Node000002_Node000003"><a xlink:title=" ">
<path fill="none" stroke="#63b8ff" d="M308.39,-15.25C316.32,-15.25 324.36,-15.25 332.23,-15.25"/>
<polygon fill="#63b8ff" stroke="#63b8ff" points="332.08,-18.75 342.08,-15.25 332.08,-11.75 332.08,-18.75"/>
</a>
</g>
</g>
</g>
</svg>
