<?xml version="1.0" encoding="UTF-8" standalone="no"?>
<!DOCTYPE svg PUBLIC "-//W3C//DTD SVG 1.1//EN"
 "http://www.w3.org/Graphics/SVG/1.1/DTD/svg11.dtd">
<!-- Generated by graphviz version 12.2.1 (20241206.2353)
 -->
<!-- Title: TMC2208Stepper::mstep_reg_select Pages: 1 -->
<svg width="295pt" height="57pt"
 viewBox="0.00 0.00 295.00 56.50" xmlns="http://www.w3.org/2000/svg" xmlns:xlink="http://www.w3.org/1999/xlink">
<g id="graph0" class="graph" transform="scale(1 1) rotate(0) translate(4 52.5)">
<title>TMC2208Stepper::mstep_reg_select</title>
<!-- Node1 -->
<g id="Node000001" class="node">
<title>Node1</title>
<g id="a_Node000001"><a xlink:title=" ">
<polygon fill="#999999" stroke="#666666" points="125.5,-30.5 0,-30.5 0,0 125.5,0 125.5,-30.5"/>
<text text-anchor="start" x="8" y="-17" font-family="Helvetica,sans-Serif" font-size="10.00">TMC2208Stepper::mstep</text>
<text text-anchor="middle" x="62.75" y="-5.75" font-family="Helvetica,sans-Serif" font-size="10.00">_reg_select</text>
</a>
</g>
</g>
<!-- Node2 -->
<g id="Node000002" class="node">
<title>Node2</title>
<g id="a_Node000002"><a xlink:href="class_t_m_c2208_stepper.html#afb391fd21b77113e5651ebaa9af1c22e" target="_top" xlink:title=" ">
<polygon fill="white" stroke="#666666" points="287,-30.5 161.5,-30.5 161.5,0 287,0 287,-30.5"/>
<text text-anchor="start" x="169.5" y="-17" font-family="Helvetica,sans-Serif" font-size="10.00">TMC2208Stepper::mstep</text>
<text text-anchor="middle" x="224.25" y="-5.75" font-family="Helvetica,sans-Serif" font-size="10.00">_reg_select</text>
</a>
</g>
</g>
<!-- Node1&#45;&gt;Node2 -->
<g id="edge1_Node000001_Node000002" class="edge">
<title>Node1&#45;&gt;Node2</title>
<g id="a_edge1_Node000001_Node000002"><a xlink:title=" ">
<path fill="none" stroke="#63b8ff" d="M125.87,-15.25C133.63,-15.25 141.62,-15.25 149.54,-15.25"/>
<polygon fill="#63b8ff" stroke="#63b8ff" points="149.52,-18.75 159.52,-15.25 149.52,-11.75 149.52,-18.75"/>
</a>
</g>
</g>
<!-- Node2&#45;&gt;Node2 -->
<g id="edge2_Node000002_Node000002" class="edge">
<title>Node2&#45;&gt;Node2</title>
<g id="a_edge2_Node000002_Node000002"><a xlink:title=" ">
<path fill="none" stroke="#63b8ff" d="M195.63,-30.99C189.79,-40.06 199.33,-48.5 224.25,-48.5 237.88,-48.5 246.91,-45.97 251.33,-42.2"/>
<polygon fill="#63b8ff" stroke="#63b8ff" points="254.78,-42.87 252.66,-32.49 247.84,-41.92 254.78,-42.87"/>
</a>
</g>
</g>
</g>
</svg>
