<?xml version="1.0" encoding="UTF-8" standalone="no"?>
<!DOCTYPE svg PUBLIC "-//W3C//DTD SVG 1.1//EN"
 "http://www.w3.org/Graphics/SVG/1.1/DTD/svg11.dtd">
<!-- Generated by graphviz version 12.2.1 (20241206.2353)
 -->
<!-- Title: TMC2208Stepper::fclktrim Pages: 1 -->
<svg width="930pt" height="187pt"
 viewBox="0.00 0.00 929.50 187.25" xmlns="http://www.w3.org/2000/svg" xmlns:xlink="http://www.w3.org/1999/xlink">
<g id="graph0" class="graph" transform="scale(1 1) rotate(0) translate(4 183.25)">
<title>TMC2208Stepper::fclktrim</title>
<!-- Node1 -->
<g id="Node000001" class="node">
<title>Node1</title>
<g id="a_Node000001"><a xlink:title=" ">
<polygon fill="#999999" stroke="#666666" points="130.75,-83.25 0,-83.25 0,-64 130.75,-64 130.75,-83.25"/>
<text text-anchor="middle" x="65.38" y="-69.75" font-family="Helvetica,sans-Serif" font-size="10.00">TMC2208Stepper::fclktrim</text>
</a>
</g>
</g>
<!-- Node2 -->
<g id="Node000002" class="node">
<title>Node2</title>
<g id="a_Node000002"><a xlink:href="class_t_m_c2208_stepper.html#a64c51922eb2029e4bbcd4f8a51b6a6ae" target="_top" xlink:title=" ">
<polygon fill="white" stroke="#666666" points="347,-83.25 166.75,-83.25 166.75,-64 347,-64 347,-83.25"/>
<text text-anchor="middle" x="256.88" y="-69.75" font-family="Helvetica,sans-Serif" font-size="10.00">TMC2208Stepper::FACTORY_CONF</text>
</a>
</g>
</g>
<!-- Node1&#45;&gt;Node2 -->
<g id="edge1_Node000001_Node000002" class="edge">
<title>Node1&#45;&gt;Node2</title>
<g id="a_edge1_Node000001_Node000002"><a xlink:title=" ">
<path fill="none" stroke="#63b8ff" d="M131.06,-73.62C138.79,-73.62 146.81,-73.62 154.89,-73.62"/>
<polygon fill="#63b8ff" stroke="#63b8ff" points="154.82,-77.13 164.82,-73.63 154.82,-70.13 154.82,-77.13"/>
</a>
</g>
</g>
<!-- Node3 -->
<g id="Node000003" class="node">
<title>Node3</title>
<g id="a_Node000003"><a xlink:href="class_t_m_c2208_stepper.html#a2fae2050849c3ab7968012def8ea1cc5" target="_top" xlink:title=" ">
<polygon fill="white" stroke="#666666" points="500.25,-83.25 383,-83.25 383,-64 500.25,-64 500.25,-83.25"/>
<text text-anchor="middle" x="441.62" y="-69.75" font-family="Helvetica,sans-Serif" font-size="10.00">TMC2208Stepper::read</text>
</a>
</g>
</g>
<!-- Node2&#45;&gt;Node3 -->
<g id="edge2_Node000002_Node000003" class="edge">
<title>Node2&#45;&gt;Node3</title>
<g id="a_edge2_Node000002_Node000003"><a xlink:title=" ">
<path fill="none" stroke="#63b8ff" d="M347.38,-73.62C355.4,-73.62 363.44,-73.62 371.25,-73.62"/>
<polygon fill="#63b8ff" stroke="#63b8ff" points="370.99,-77.13 380.99,-73.63 370.99,-70.13 370.99,-77.13"/>
</a>
</g>
</g>
<!-- Node4 -->
<g id="Node000004" class="node">
<title>Node4</title>
<g id="a_Node000004"><a xlink:href="class_t_m_c2208_stepper.html#a321ad81155b7a20c0858920d32d0b074" target="_top" xlink:title=" ">
<polygon fill="white" stroke="#666666" points="721.75,-142.25 554.25,-142.25 554.25,-123 721.75,-123 721.75,-142.25"/>
<text text-anchor="middle" x="638" y="-128.75" font-family="Helvetica,sans-Serif" font-size="10.00">TMC2208Stepper::_sendDatagram</text>
</a>
</g>
</g>
<!-- Node3&#45;&gt;Node4 -->
<g id="edge3_Node000003_Node000004" class="edge">
<title>Node3&#45;&gt;Node4</title>
<g id="a_edge3_Node000003_Node000004"><a xlink:title=" ">
<path fill="none" stroke="#63b8ff" d="M461.84,-83.65C480.42,-92.94 509.59,-106.53 536.25,-114.62 542.89,-116.64 549.85,-118.46 556.87,-120.1"/>
<polygon fill="#63b8ff" stroke="#63b8ff" points="555.93,-123.47 566.45,-122.2 557.43,-116.64 555.93,-123.47"/>
</a>
</g>
</g>
<!-- Node8 -->
<g id="Node000008" class="node">
<title>Node8</title>
<g id="a_Node000008"><a xlink:href="class_t_m_c2208_stepper.html#a409c19fa6b052a370a317d061bf9af4e" target="_top" xlink:title=" ">
<polygon fill="white" stroke="#666666" points="707.5,-105.25 568.5,-105.25 568.5,-86 707.5,-86 707.5,-105.25"/>
<text text-anchor="middle" x="638" y="-91.75" font-family="Helvetica,sans-Serif" font-size="10.00">TMC2208Stepper::calcCRC</text>
</a>
</g>
</g>
<!-- Node3&#45;&gt;Node8 -->
<g id="edge7_Node000003_Node000008" class="edge">
<title>Node3&#45;&gt;Node8</title>
<g id="a_edge7_Node000003_Node000008"><a xlink:title=" ">
<path fill="none" stroke="#63b8ff" d="M500.68,-80.2C518.37,-82.2 538.12,-84.43 556.99,-86.57"/>
<polygon fill="#63b8ff" stroke="#63b8ff" points="556.45,-90.03 566.78,-87.68 557.24,-83.07 556.45,-90.03"/>
</a>
</g>
</g>
<!-- Node9 -->
<g id="Node000009" class="node">
<title>Node9</title>
<g id="a_Node000009"><a xlink:href="class_t_m_c2208_stepper.html#ab3d186b27f45ec47c1cf0bf15ed4cd2e" target="_top" xlink:title=" ">
<polygon fill="white" stroke="#666666" points="708.25,-67.88 567.75,-67.88 567.75,-37.38 708.25,-37.38 708.25,-67.88"/>
<text text-anchor="start" x="575.75" y="-54.38" font-family="Helvetica,sans-Serif" font-size="10.00">TMC2208Stepper::postRead</text>
<text text-anchor="middle" x="638" y="-43.12" font-family="Helvetica,sans-Serif" font-size="10.00">Communication</text>
</a>
</g>
</g>
<!-- Node3&#45;&gt;Node9 -->
<g id="edge8_Node000003_Node000009" class="edge">
<title>Node3&#45;&gt;Node9</title>
<g id="a_edge8_Node000003_Node000009"><a xlink:title=" ">
<path fill="none" stroke="#63b8ff" d="M500.68,-67.35C518.18,-65.46 537.71,-63.35 556.4,-61.33"/>
<polygon fill="#63b8ff" stroke="#63b8ff" points="556.52,-64.84 566.08,-60.29 555.76,-57.88 556.52,-64.84"/>
</a>
</g>
</g>
<!-- Node10 -->
<g id="Node000010" class="node">
<title>Node10</title>
<g id="a_Node000010"><a xlink:href="class_t_m_c2208_stepper.html#a8c4f3ce4a964c9a03a1e14f47bf5bec3" target="_top" xlink:title=" ">
<polygon fill="white" stroke="#666666" points="739.75,-19.25 536.25,-19.25 536.25,0 739.75,0 739.75,-19.25"/>
<text text-anchor="middle" x="638" y="-5.75" font-family="Helvetica,sans-Serif" font-size="10.00">TMC2208Stepper::preReadCommunication</text>
</a>
</g>
</g>
<!-- Node3&#45;&gt;Node10 -->
<g id="edge9_Node000003_Node000010" class="edge">
<title>Node3&#45;&gt;Node10</title>
<g id="a_edge9_Node000003_Node000010"><a xlink:title=" ">
<path fill="none" stroke="#63b8ff" d="M460,-63.57C478.37,-53.34 508.49,-37.74 536.25,-28.62 543.55,-26.23 551.25,-24.1 559.01,-22.22"/>
<polygon fill="#63b8ff" stroke="#63b8ff" points="559.54,-25.69 568.51,-20.05 557.98,-18.86 559.54,-25.69"/>
</a>
</g>
</g>
<!-- Node5 -->
<g id="Node000005" class="node">
<title>Node5</title>
<g id="a_Node000005"><a xlink:href="class_t_m_c2208_stepper.html#aef33fe13c1d9c19e9ec9abc159147a5d" target="_top" xlink:title=" ">
<polygon fill="white" stroke="#666666" points="917,-179.25 780.25,-179.25 780.25,-160 917,-160 917,-179.25"/>
<text text-anchor="middle" x="848.62" y="-165.75" font-family="Helvetica,sans-Serif" font-size="10.00">TMC2208Stepper::available</text>
</a>
</g>
</g>
<!-- Node4&#45;&gt;Node5 -->
<g id="edge4_Node000004_Node000005" class="edge">
<title>Node4&#45;&gt;Node5</title>
<g id="a_edge4_Node000004_Node000005"><a xlink:title=" ">
<path fill="none" stroke="#63b8ff" d="M696.01,-142.74C721.77,-147.3 752.41,-152.74 779.38,-157.52"/>
<polygon fill="#63b8ff" stroke="#63b8ff" points="778.74,-160.96 789.2,-159.26 779.96,-154.07 778.74,-160.96"/>
</a>
</g>
</g>
<!-- Node6 -->
<g id="Node000006" class="node">
<title>Node6</title>
<g id="a_Node000006"><a xlink:href="class_t_m_c2208_stepper.html#a8214f87693050e222fc24be979f468e2" target="_top" xlink:title=" ">
<polygon fill="white" stroke="#666666" points="921.5,-142.25 775.75,-142.25 775.75,-123 921.5,-123 921.5,-142.25"/>
<text text-anchor="middle" x="848.62" y="-128.75" font-family="Helvetica,sans-Serif" font-size="10.00">TMC2208Stepper::serial_read</text>
</a>
</g>
</g>
<!-- Node4&#45;&gt;Node6 -->
<g id="edge5_Node000004_Node000006" class="edge">
<title>Node4&#45;&gt;Node6</title>
<g id="a_edge5_Node000004_Node000006"><a xlink:title=" ">
<path fill="none" stroke="#63b8ff" d="M722.05,-132.62C735.81,-132.62 750.09,-132.62 763.87,-132.62"/>
<polygon fill="#63b8ff" stroke="#63b8ff" points="763.79,-136.13 773.79,-132.63 763.79,-129.13 763.79,-136.13"/>
</a>
</g>
</g>
<!-- Node7 -->
<g id="Node000007" class="node">
<title>Node7</title>
<g id="a_Node000007"><a xlink:href="class_t_m_c2208_stepper.html#adb6243277ef84d2027b2b8bae6be5bd0" target="_top" xlink:title=" ">
<polygon fill="white" stroke="#666666" points="909.5,-104.88 787.75,-104.88 787.75,-74.38 909.5,-74.38 909.5,-104.88"/>
<text text-anchor="start" x="795.75" y="-91.38" font-family="Helvetica,sans-Serif" font-size="10.00">TMC2208Stepper::serial</text>
<text text-anchor="middle" x="848.62" y="-80.12" font-family="Helvetica,sans-Serif" font-size="10.00">_write</text>
</a>
</g>
</g>
<!-- Node4&#45;&gt;Node7 -->
<g id="edge6_Node000004_Node000007" class="edge">
<title>Node4&#45;&gt;Node7</title>
<g id="a_edge6_Node000004_Node000007"><a xlink:title=" ">
<path fill="none" stroke="#63b8ff" d="M698.5,-122.51C712.08,-120.06 726.43,-117.36 739.75,-114.62 751.57,-112.2 764.09,-109.46 776.24,-106.71"/>
<polygon fill="#63b8ff" stroke="#63b8ff" points="776.82,-110.16 785.79,-104.52 775.26,-103.34 776.82,-110.16"/>
</a>
</g>
</g>
</g>
</svg>
