<?xml version="1.0" encoding="UTF-8" standalone="no"?>
<!DOCTYPE svg PUBLIC "-//W3C//DTD SVG 1.1//EN"
 "http://www.w3.org/Graphics/SVG/1.1/DTD/svg11.dtd">
<!-- Generated by graphviz version 12.2.1 (20241206.2353)
 -->
<!-- Title: TMC2130Stepper::tbl Pages: 1 -->
<svg width="578pt" height="45pt"
 viewBox="0.00 0.00 577.50 45.25" xmlns="http://www.w3.org/2000/svg" xmlns:xlink="http://www.w3.org/1999/xlink">
<g id="graph0" class="graph" transform="scale(1 1) rotate(0) translate(4 41.25)">
<title>TMC2130Stepper::tbl</title>
<!-- Node1 -->
<g id="Node000001" class="node">
<title>Node1</title>
<g id="a_Node000001"><a xlink:title=" ">
<polygon fill="#999999" stroke="#666666" points="569.5,-19.25 460.5,-19.25 460.5,0 569.5,0 569.5,-19.25"/>
<text text-anchor="middle" x="515" y="-5.75" font-family="Helvetica,sans-Serif" font-size="10.00">TMC2130Stepper::tbl</text>
</a>
</g>
</g>
<!-- Node1&#45;&gt;Node1 -->
<g id="edge4_Node000001_Node000001" class="edge">
<title>Node1&#45;&gt;Node1</title>
<g id="a_edge4_Node000001_Node000001"><a xlink:title=" ">
<path fill="none" stroke="#63b8ff" d="M541,-30.32C538,-34.37 529.34,-37.25 515,-37.25 489.51,-37.25 481.94,-28.15 492.3,-19.54"/>
<polygon fill="#63b8ff" stroke="#63b8ff" points="544.42,-29.52 538.14,-20.99 537.72,-31.57 544.42,-29.52"/>
</a>
</g>
</g>
<!-- Node2 -->
<g id="Node000002" class="node">
<title>Node2</title>
<g id="a_Node000002"><a xlink:href="class_t_m_c2130_stepper.html#ae54d816846ca2103976f490c5ab8e887" target="_top" xlink:title=" ">
<polygon fill="white" stroke="#666666" points="424.5,-19.25 315.5,-19.25 315.5,0 424.5,0 424.5,-19.25"/>
<text text-anchor="middle" x="370" y="-5.75" font-family="Helvetica,sans-Serif" font-size="10.00">TMC2130Stepper::tbl</text>
</a>
</g>
</g>
<!-- Node1&#45;&gt;Node2 -->
<g id="edge1_Node000001_Node000002" class="edge">
<title>Node1&#45;&gt;Node2</title>
<g id="a_edge1_Node000001_Node000002"><a xlink:title=" ">
<path fill="none" stroke="#63b8ff" d="M449.06,-9.62C441,-9.62 432.83,-9.62 424.96,-9.62"/>
<polygon fill="#63b8ff" stroke="#63b8ff" points="448.83,-13.13 458.83,-9.63 448.83,-6.13 448.83,-13.13"/>
</a>
</g>
</g>
<!-- Node3 -->
<g id="Node000003" class="node">
<title>Node3</title>
<g id="a_Node000003"><a xlink:href="class_t_m_c2160_stepper.html#a7ee48b042245ef5b3968b82029d1404c" target="_top" xlink:title=" ">
<polygon fill="white" stroke="#666666" points="279.5,-19.25 157.75,-19.25 157.75,0 279.5,0 279.5,-19.25"/>
<text text-anchor="middle" x="218.62" y="-5.75" font-family="Helvetica,sans-Serif" font-size="10.00">TMC2160Stepper::begin</text>
</a>
</g>
</g>
<!-- Node2&#45;&gt;Node3 -->
<g id="edge2_Node000002_Node000003" class="edge">
<title>Node2&#45;&gt;Node3</title>
<g id="a_edge2_Node000002_Node000003"><a xlink:title=" ">
<path fill="none" stroke="#63b8ff" d="M303.62,-9.62C295.7,-9.62 287.64,-9.62 279.8,-9.62"/>
<polygon fill="#63b8ff" stroke="#63b8ff" points="303.56,-13.13 313.56,-9.63 303.56,-6.13 303.56,-13.13"/>
</a>
</g>
</g>
<!-- Node4 -->
<g id="Node000004" class="node">
<title>Node4</title>
<g id="a_Node000004"><a xlink:href="class_t_m_c5130_stepper.html#a897212f81817cdaee4536d642badc149" target="_top" xlink:title=" ">
<polygon fill="white" stroke="#666666" points="121.75,-19.25 0,-19.25 0,0 121.75,0 121.75,-19.25"/>
<text text-anchor="middle" x="60.88" y="-5.75" font-family="Helvetica,sans-Serif" font-size="10.00">TMC5130Stepper::begin</text>
</a>
</g>
</g>
<!-- Node3&#45;&gt;Node4 -->
<g id="edge3_Node000003_Node000004" class="edge">
<title>Node3&#45;&gt;Node4</title>
<g id="a_edge3_Node000003_Node000004"><a xlink:title=" ">
<path fill="none" stroke="#63b8ff" d="M146.17,-9.62C138.15,-9.62 130.05,-9.62 122.19,-9.62"/>
<polygon fill="#63b8ff" stroke="#63b8ff" points="145.89,-13.13 155.89,-9.63 145.89,-6.13 145.89,-13.13"/>
</a>
</g>
</g>
</g>
</svg>
