<?xml version="1.0" encoding="UTF-8" standalone="no"?>
<!DOCTYPE svg PUBLIC "-//W3C//DTD SVG 1.1//EN"
 "http://www.w3.org/Graphics/SVG/1.1/DTD/svg11.dtd">
<!-- Generated by graphviz version 12.2.1 (20241206.2353)
 -->
<!-- Title: TMC2130Stepper Pages: 1 -->
<svg width="191pt" height="100pt"
 viewBox="0.00 0.00 191.09 99.75" xmlns="http://www.w3.org/2000/svg" xmlns:xlink="http://www.w3.org/1999/xlink">
<g id="graph0" class="graph" transform="scale(1 1) rotate(0) translate(4 95.75)">
<title>TMC2130Stepper</title>
<!-- Node1 -->
<g id="Node000001" class="node">
<title>Node1</title>
<g id="a_Node000001"><a xlink:title=" ">
<polygon fill="#999999" stroke="#666666" points="129,-19.25 36.5,-19.25 36.5,0 129,0 129,-19.25"/>
<text text-anchor="middle" x="82.75" y="-5.75" font-family="Helvetica,sans-Serif" font-size="10.00">TMC2130Stepper</text>
</a>
</g>
</g>
<!-- Node2 -->
<g id="Node000002" class="node">
<title>Node2</title>
<g id="a_Node000002"><a xlink:href="class_t_m_c_stepper.html" target="_top" xlink:title=" ">
<polygon fill="white" stroke="#666666" points="71.5,-91.75 0,-91.75 0,-72.5 71.5,-72.5 71.5,-91.75"/>
<text text-anchor="middle" x="35.75" y="-78.25" font-family="Helvetica,sans-Serif" font-size="10.00">TMCStepper</text>
</a>
</g>
</g>
<!-- Node2&#45;&gt;Node1 -->
<g id="edge1_Node000001_Node000002" class="edge">
<title>Node2&#45;&gt;Node1</title>
<g id="a_edge1_Node000001_Node000002"><a xlink:title=" ">
<path fill="none" stroke="#63b8ff" d="M48.03,-62.7C57.26,-48.87 69.49,-30.52 76.7,-19.7"/>
<polygon fill="#63b8ff" stroke="#63b8ff" points="45.18,-60.67 42.54,-70.94 51,-64.56 45.18,-60.67"/>
</a>
</g>
</g>
<!-- Node3 -->
<g id="Node000003" class="node">
<title>Node3</title>
<g id="a_Node000003"><a xlink:href="class_s_w___s_p_i_class.html" target="_top" xlink:title=" ">
<polygon fill="white" stroke="#666666" points="169.62,-91.75 89.88,-91.75 89.88,-72.5 169.62,-72.5 169.62,-91.75"/>
<text text-anchor="middle" x="129.75" y="-78.25" font-family="Helvetica,sans-Serif" font-size="10.00">SW_SPIClass</text>
</a>
</g>
</g>
<!-- Node3&#45;&gt;Node1 -->
<g id="edge2_Node000001_Node000003" class="edge">
<title>Node3&#45;&gt;Node1</title>
<g id="a_edge2_Node000001_Node000003"><a xlink:title=" ">
<path fill="none" stroke="#9a32cd" stroke-dasharray="5,2" d="M117.47,-62.7C108.24,-48.87 96.01,-30.52 88.8,-19.7"/>
<polygon fill="#9a32cd" stroke="#9a32cd" points="114.5,-64.56 122.96,-70.94 120.32,-60.67 114.5,-64.56"/>
</a>
</g>
<text text-anchor="start" x="114.84" y="-42" font-family="Helvetica,sans-Serif" font-size="10.00" fill="grey">TMC_SW_SPI</text>
</g>
</g>
</svg>
