<?xml version="1.0" encoding="UTF-8" standalone="no"?>
<!DOCTYPE svg PUBLIC "-//W3C//DTD SVG 1.1//EN"
 "http://www.w3.org/Graphics/SVG/1.1/DTD/svg11.dtd">
<!-- Generated by graphviz version 12.2.1 (20241206.2353)
 -->
<!-- Title: TMC2208Stepper::ottrim Pages: 1 -->
<svg width="922pt" height="187pt"
 viewBox="0.00 0.00 922.00 187.25" xmlns="http://www.w3.org/2000/svg" xmlns:xlink="http://www.w3.org/1999/xlink">
<g id="graph0" class="graph" transform="scale(1 1) rotate(0) translate(4 183.25)">
<title>TMC2208Stepper::ottrim</title>
<!-- Node1 -->
<g id="Node000001" class="node">
<title>Node1</title>
<g id="a_Node000001"><a xlink:title=" ">
<polygon fill="#999999" stroke="#666666" points="123.25,-83.25 0,-83.25 0,-64 123.25,-64 123.25,-83.25"/>
<text text-anchor="middle" x="61.62" y="-69.75" font-family="Helvetica,sans-Serif" font-size="10.00">TMC2208Stepper::ottrim</text>
</a>
</g>
</g>
<!-- Node2 -->
<g id="Node000002" class="node">
<title>Node2</title>
<g id="a_Node000002"><a xlink:href="class_t_m_c2208_stepper.html#a64c51922eb2029e4bbcd4f8a51b6a6ae" target="_top" xlink:title=" ">
<polygon fill="white" stroke="#666666" points="339.5,-83.25 159.25,-83.25 159.25,-64 339.5,-64 339.5,-83.25"/>
<text text-anchor="middle" x="249.38" y="-69.75" font-family="Helvetica,sans-Serif" font-size="10.00">TMC2208Stepper::FACTORY_CONF</text>
</a>
</g>
</g>
<!-- Node1&#45;&gt;Node2 -->
<g id="edge1_Node000001_Node000002" class="edge">
<title>Node1&#45;&gt;Node2</title>
<g id="a_edge1_Node000001_Node000002"><a xlink:title=" ">
<path fill="none" stroke="#63b8ff" d="M123.7,-73.62C131.39,-73.62 139.41,-73.62 147.52,-73.62"/>
<polygon fill="#63b8ff" stroke="#63b8ff" points="147.49,-77.13 157.49,-73.63 147.49,-70.13 147.49,-77.13"/>
</a>
</g>
</g>
<!-- Node3 -->
<g id="Node000003" class="node">
<title>Node3</title>
<g id="a_Node000003"><a xlink:href="class_t_m_c2208_stepper.html#a2fae2050849c3ab7968012def8ea1cc5" target="_top" xlink:title=" ">
<polygon fill="white" stroke="#666666" points="492.75,-83.25 375.5,-83.25 375.5,-64 492.75,-64 492.75,-83.25"/>
<text text-anchor="middle" x="434.12" y="-69.75" font-family="Helvetica,sans-Serif" font-size="10.00">TMC2208Stepper::read</text>
</a>
</g>
</g>
<!-- Node2&#45;&gt;Node3 -->
<g id="edge2_Node000002_Node000003" class="edge">
<title>Node2&#45;&gt;Node3</title>
<g id="a_edge2_Node000002_Node000003"><a xlink:title=" ">
<path fill="none" stroke="#63b8ff" d="M339.88,-73.62C347.9,-73.62 355.94,-73.62 363.75,-73.62"/>
<polygon fill="#63b8ff" stroke="#63b8ff" points="363.49,-77.13 373.49,-73.63 363.49,-70.13 363.49,-77.13"/>
</a>
</g>
</g>
<!-- Node4 -->
<g id="Node000004" class="node">
<title>Node4</title>
<g id="a_Node000004"><a xlink:href="class_t_m_c2208_stepper.html#a321ad81155b7a20c0858920d32d0b074" target="_top" xlink:title=" ">
<polygon fill="white" stroke="#666666" points="714.25,-142.25 546.75,-142.25 546.75,-123 714.25,-123 714.25,-142.25"/>
<text text-anchor="middle" x="630.5" y="-128.75" font-family="Helvetica,sans-Serif" font-size="10.00">TMC2208Stepper::_sendDatagram</text>
</a>
</g>
</g>
<!-- Node3&#45;&gt;Node4 -->
<g id="edge3_Node000003_Node000004" class="edge">
<title>Node3&#45;&gt;Node4</title>
<g id="a_edge3_Node000003_Node000004"><a xlink:title=" ">
<path fill="none" stroke="#63b8ff" d="M454.34,-83.65C472.92,-92.94 502.09,-106.53 528.75,-114.62 535.39,-116.64 542.35,-118.46 549.37,-120.1"/>
<polygon fill="#63b8ff" stroke="#63b8ff" points="548.43,-123.47 558.95,-122.2 549.93,-116.64 548.43,-123.47"/>
</a>
</g>
</g>
<!-- Node8 -->
<g id="Node000008" class="node">
<title>Node8</title>
<g id="a_Node000008"><a xlink:href="class_t_m_c2208_stepper.html#a409c19fa6b052a370a317d061bf9af4e" target="_top" xlink:title=" ">
<polygon fill="white" stroke="#666666" points="700,-105.25 561,-105.25 561,-86 700,-86 700,-105.25"/>
<text text-anchor="middle" x="630.5" y="-91.75" font-family="Helvetica,sans-Serif" font-size="10.00">TMC2208Stepper::calcCRC</text>
</a>
</g>
</g>
<!-- Node3&#45;&gt;Node8 -->
<g id="edge7_Node000003_Node000008" class="edge">
<title>Node3&#45;&gt;Node8</title>
<g id="a_edge7_Node000003_Node000008"><a xlink:title=" ">
<path fill="none" stroke="#63b8ff" d="M493.18,-80.2C510.87,-82.2 530.62,-84.43 549.49,-86.57"/>
<polygon fill="#63b8ff" stroke="#63b8ff" points="548.95,-90.03 559.28,-87.68 549.74,-83.07 548.95,-90.03"/>
</a>
</g>
</g>
<!-- Node9 -->
<g id="Node000009" class="node">
<title>Node9</title>
<g id="a_Node000009"><a xlink:href="class_t_m_c2208_stepper.html#ab3d186b27f45ec47c1cf0bf15ed4cd2e" target="_top" xlink:title=" ">
<polygon fill="white" stroke="#666666" points="700.75,-67.88 560.25,-67.88 560.25,-37.38 700.75,-37.38 700.75,-67.88"/>
<text text-anchor="start" x="568.25" y="-54.38" font-family="Helvetica,sans-Serif" font-size="10.00">TMC2208Stepper::postRead</text>
<text text-anchor="middle" x="630.5" y="-43.12" font-family="Helvetica,sans-Serif" font-size="10.00">Communication</text>
</a>
</g>
</g>
<!-- Node3&#45;&gt;Node9 -->
<g id="edge8_Node000003_Node000009" class="edge">
<title>Node3&#45;&gt;Node9</title>
<g id="a_edge8_Node000003_Node000009"><a xlink:title=" ">
<path fill="none" stroke="#63b8ff" d="M493.18,-67.35C510.68,-65.46 530.21,-63.35 548.9,-61.33"/>
<polygon fill="#63b8ff" stroke="#63b8ff" points="549.02,-64.84 558.58,-60.29 548.26,-57.88 549.02,-64.84"/>
</a>
</g>
</g>
<!-- Node10 -->
<g id="Node000010" class="node">
<title>Node10</title>
<g id="a_Node000010"><a xlink:href="class_t_m_c2208_stepper.html#a8c4f3ce4a964c9a03a1e14f47bf5bec3" target="_top" xlink:title=" ">
<polygon fill="white" stroke="#666666" points="732.25,-19.25 528.75,-19.25 528.75,0 732.25,0 732.25,-19.25"/>
<text text-anchor="middle" x="630.5" y="-5.75" font-family="Helvetica,sans-Serif" font-size="10.00">TMC2208Stepper::preReadCommunication</text>
</a>
</g>
</g>
<!-- Node3&#45;&gt;Node10 -->
<g id="edge9_Node000003_Node000010" class="edge">
<title>Node3&#45;&gt;Node10</title>
<g id="a_edge9_Node000003_Node000010"><a xlink:title=" ">
<path fill="none" stroke="#63b8ff" d="M452.5,-63.57C470.87,-53.34 500.99,-37.74 528.75,-28.62 536.05,-26.23 543.75,-24.1 551.51,-22.22"/>
<polygon fill="#63b8ff" stroke="#63b8ff" points="552.04,-25.69 561.01,-20.05 550.48,-18.86 552.04,-25.69"/>
</a>
</g>
</g>
<!-- Node5 -->
<g id="Node000005" class="node">
<title>Node5</title>
<g id="a_Node000005"><a xlink:href="class_t_m_c2208_stepper.html#aef33fe13c1d9c19e9ec9abc159147a5d" target="_top" xlink:title=" ">
<polygon fill="white" stroke="#666666" points="909.5,-179.25 772.75,-179.25 772.75,-160 909.5,-160 909.5,-179.25"/>
<text text-anchor="middle" x="841.12" y="-165.75" font-family="Helvetica,sans-Serif" font-size="10.00">TMC2208Stepper::available</text>
</a>
</g>
</g>
<!-- Node4&#45;&gt;Node5 -->
<g id="edge4_Node000004_Node000005" class="edge">
<title>Node4&#45;&gt;Node5</title>
<g id="a_edge4_Node000004_Node000005"><a xlink:title=" ">
<path fill="none" stroke="#63b8ff" d="M688.51,-142.74C714.27,-147.3 744.91,-152.74 771.88,-157.52"/>
<polygon fill="#63b8ff" stroke="#63b8ff" points="771.24,-160.96 781.7,-159.26 772.46,-154.07 771.24,-160.96"/>
</a>
</g>
</g>
<!-- Node6 -->
<g id="Node000006" class="node">
<title>Node6</title>
<g id="a_Node000006"><a xlink:href="class_t_m_c2208_stepper.html#a8214f87693050e222fc24be979f468e2" target="_top" xlink:title=" ">
<polygon fill="white" stroke="#666666" points="914,-142.25 768.25,-142.25 768.25,-123 914,-123 914,-142.25"/>
<text text-anchor="middle" x="841.12" y="-128.75" font-family="Helvetica,sans-Serif" font-size="10.00">TMC2208Stepper::serial_read</text>
</a>
</g>
</g>
<!-- Node4&#45;&gt;Node6 -->
<g id="edge5_Node000004_Node000006" class="edge">
<title>Node4&#45;&gt;Node6</title>
<g id="a_edge5_Node000004_Node000006"><a xlink:title=" ">
<path fill="none" stroke="#63b8ff" d="M714.55,-132.62C728.31,-132.62 742.59,-132.62 756.37,-132.62"/>
<polygon fill="#63b8ff" stroke="#63b8ff" points="756.29,-136.13 766.29,-132.63 756.29,-129.13 756.29,-136.13"/>
</a>
</g>
</g>
<!-- Node7 -->
<g id="Node000007" class="node">
<title>Node7</title>
<g id="a_Node000007"><a xlink:href="class_t_m_c2208_stepper.html#adb6243277ef84d2027b2b8bae6be5bd0" target="_top" xlink:title=" ">
<polygon fill="white" stroke="#666666" points="902,-104.88 780.25,-104.88 780.25,-74.38 902,-74.38 902,-104.88"/>
<text text-anchor="start" x="788.25" y="-91.38" font-family="Helvetica,sans-Serif" font-size="10.00">TMC2208Stepper::serial</text>
<text text-anchor="middle" x="841.12" y="-80.12" font-family="Helvetica,sans-Serif" font-size="10.00">_write</text>
</a>
</g>
</g>
<!-- Node4&#45;&gt;Node7 -->
<g id="edge6_Node000004_Node000007" class="edge">
<title>Node4&#45;&gt;Node7</title>
<g id="a_edge6_Node000004_Node000007"><a xlink:title=" ">
<path fill="none" stroke="#63b8ff" d="M691,-122.51C704.58,-120.06 718.93,-117.36 732.25,-114.62 744.07,-112.2 756.59,-109.46 768.74,-106.71"/>
<polygon fill="#63b8ff" stroke="#63b8ff" points="769.32,-110.16 778.29,-104.52 767.76,-103.34 769.32,-110.16"/>
</a>
</g>
</g>
</g>
</svg>
