<?xml version="1.0" encoding="UTF-8" standalone="no"?>
<!DOCTYPE svg PUBLIC "-//W3C//DTD SVG 1.1//EN"
 "http://www.w3.org/Graphics/SVG/1.1/DTD/svg11.dtd">
<!-- Generated by graphviz version 12.2.1 (20241206.2353)
 -->
<!-- Title: TMC2208Stepper::GCONF Pages: 1 -->
<svg width="298pt" height="64pt"
 viewBox="0.00 0.00 298.00 64.25" xmlns="http://www.w3.org/2000/svg" xmlns:xlink="http://www.w3.org/1999/xlink">
<g id="graph0" class="graph" transform="scale(1 1) rotate(0) translate(4 60.25)">
<title>TMC2208Stepper::GCONF</title>
<!-- Node1 -->
<g id="Node000001" class="node">
<title>Node1</title>
<g id="a_Node000001"><a xlink:title=" ">
<polygon fill="#999999" stroke="#666666" points="290,-37.25 155.5,-37.25 155.5,-18 290,-18 290,-37.25"/>
<text text-anchor="middle" x="222.75" y="-23.75" font-family="Helvetica,sans-Serif" font-size="10.00">TMC2208Stepper::GCONF</text>
</a>
</g>
</g>
<!-- Node2 -->
<g id="Node000002" class="node">
<title>Node2</title>
<g id="a_Node000002"><a xlink:href="class_t_m_c2208_stepper.html#a8eb0d71fbfeeb24c9092328c44fab7e5" target="_top" xlink:title=" ">
<polygon fill="white" stroke="#666666" points="119.5,-56.25 0,-56.25 0,-37 119.5,-37 119.5,-56.25"/>
<text text-anchor="middle" x="59.75" y="-42.75" font-family="Helvetica,sans-Serif" font-size="10.00">TMC2208Stepper::push</text>
</a>
</g>
</g>
<!-- Node1&#45;&gt;Node2 -->
<g id="edge1_Node000001_Node000002" class="edge">
<title>Node1&#45;&gt;Node2</title>
<g id="a_edge1_Node000001_Node000002"><a xlink:title=" ">
<path fill="none" stroke="#63b8ff" d="M143.92,-36.81C135.81,-37.77 127.66,-38.73 119.8,-39.66"/>
<polygon fill="#63b8ff" stroke="#63b8ff" points="144.31,-40.29 153.83,-35.64 143.49,-33.34 144.31,-40.29"/>
</a>
</g>
</g>
<!-- Node3 -->
<g id="Node000003" class="node">
<title>Node3</title>
<g id="a_Node000003"><a xlink:href="class_t_m_c2209_stepper.html#a180f4b9a78e526592d946ec12f71982e" target="_top" xlink:title=" ">
<polygon fill="white" stroke="#666666" points="119.5,-19.25 0,-19.25 0,0 119.5,0 119.5,-19.25"/>
<text text-anchor="middle" x="59.75" y="-5.75" font-family="Helvetica,sans-Serif" font-size="10.00">TMC2209Stepper::push</text>
</a>
</g>
</g>
<!-- Node1&#45;&gt;Node3 -->
<g id="edge2_Node000001_Node000003" class="edge">
<title>Node1&#45;&gt;Node3</title>
<g id="a_edge2_Node000001_Node000003"><a xlink:title=" ">
<path fill="none" stroke="#63b8ff" d="M143.92,-18.92C135.81,-18.02 127.66,-17.11 119.8,-16.23"/>
<polygon fill="#63b8ff" stroke="#63b8ff" points="143.5,-22.4 153.83,-20.03 144.28,-15.44 143.5,-22.4"/>
</a>
</g>
</g>
</g>
</svg>
