<?xml version="1.0" encoding="UTF-8" standalone="no"?>
<!DOCTYPE svg PUBLIC "-//W3C//DTD SVG 1.1//EN"
 "http://www.w3.org/Graphics/SVG/1.1/DTD/svg11.dtd">
<!-- Generated by graphviz version 12.2.1 (20241206.2353)
 -->
<!-- Title: TMC2660Stepper::cs Pages: 1 -->
<svg width="268pt" height="88pt"
 viewBox="0.00 0.00 268.00 87.50" xmlns="http://www.w3.org/2000/svg" xmlns:xlink="http://www.w3.org/1999/xlink">
<g id="graph0" class="graph" transform="scale(1 1) rotate(0) translate(4 83.5)">
<title>TMC2660Stepper::cs</title>
<!-- Node1 -->
<g id="Node000001" class="node">
<title>Node1</title>
<g id="a_Node000001"><a xlink:title=" ">
<polygon fill="#999999" stroke="#666666" points="260,-48.88 151,-48.88 151,-29.62 260,-29.62 260,-48.88"/>
<text text-anchor="middle" x="205.5" y="-35.38" font-family="Helvetica,sans-Serif" font-size="10.00">TMC2660Stepper::cs</text>
</a>
</g>
</g>
<!-- Node2 -->
<g id="Node000002" class="node">
<title>Node2</title>
<g id="a_Node000002"><a xlink:href="class_t_m_c2660_stepper.html#a5a4a17c80ceb1bc88be8588b1c34fb77" target="_top" xlink:title=" ">
<polygon fill="white" stroke="#666666" points="115,-79.5 0,-79.5 0,-49 115,-49 115,-79.5"/>
<text text-anchor="start" x="8" y="-66" font-family="Helvetica,sans-Serif" font-size="10.00">TMC2660Stepper::rms</text>
<text text-anchor="middle" x="57.5" y="-54.75" font-family="Helvetica,sans-Serif" font-size="10.00">_current</text>
</a>
</g>
</g>
<!-- Node1&#45;&gt;Node2 -->
<g id="edge1_Node000001_Node000002" class="edge">
<title>Node1&#45;&gt;Node2</title>
<g id="a_edge1_Node000001_Node000002"><a xlink:title=" ">
<path fill="none" stroke="#63b8ff" d="M139.3,-50.41C131.25,-51.79 123.07,-53.19 115.16,-54.55"/>
<polygon fill="#63b8ff" stroke="#63b8ff" points="139.79,-53.88 149.06,-48.74 138.61,-46.98 139.79,-53.88"/>
</a>
</g>
</g>
<!-- Node3 -->
<g id="Node000003" class="node">
<title>Node3</title>
<g id="a_Node000003"><a xlink:href="class_t_m_c2660_stepper.html#a95bdde91a19aeb7bb5ee09e6df8ca065" target="_top" xlink:title=" ">
<polygon fill="white" stroke="#666666" points="115,-30.5 0,-30.5 0,0 115,0 115,-30.5"/>
<text text-anchor="start" x="8" y="-17" font-family="Helvetica,sans-Serif" font-size="10.00">TMC2660Stepper::rms</text>
<text text-anchor="middle" x="57.5" y="-5.75" font-family="Helvetica,sans-Serif" font-size="10.00">_current</text>
</a>
</g>
</g>
<!-- Node1&#45;&gt;Node3 -->
<g id="edge2_Node000001_Node000003" class="edge">
<title>Node1&#45;&gt;Node3</title>
<g id="a_edge2_Node000001_Node000003"><a xlink:title=" ">
<path fill="none" stroke="#63b8ff" d="M139.3,-28.53C131.25,-27.21 123.07,-25.86 115.16,-24.56"/>
<polygon fill="#63b8ff" stroke="#63b8ff" points="138.62,-31.97 149.06,-30.14 139.76,-25.06 138.62,-31.97"/>
</a>
</g>
</g>
</g>
</svg>
