<?xml version="1.0" encoding="UTF-8" standalone="no"?>
<!DOCTYPE svg PUBLIC "-//W3C//DTD SVG 1.1//EN"
 "http://www.w3.org/Graphics/SVG/1.1/DTD/svg11.dtd">
<!-- Generated by graphviz version 12.2.1 (20241206.2353)
 -->
<!-- Title: TMC2240Stepper::rms_current Pages: 1 -->
<svg width="451pt" height="162pt"
 viewBox="0.00 0.00 451.25 161.50" xmlns="http://www.w3.org/2000/svg" xmlns:xlink="http://www.w3.org/1999/xlink">

<svg id="main" version="1.1" xmlns="http://www.w3.org/2000/svg" xmlns:xlink="http://www.w3.org/1999/xlink" xml:space="preserve">

<style type="text/css"><![CDATA[
.node, .edge {opacity: 0.7;}
.node.selected, .edge.selected {opacity: 1;}
.edge:hover path { stroke: red; }
.edge:hover polygon { stroke: red; fill: red; }
]]></style>
<script type="application/ecmascript" xlink:href="svg.min.js"/>
<svg id="graph" class="graph">
<g id="graph0" class="graph" transform="scale(1 1) rotate(0) translate(4 157.5)">
<title>TMC2240Stepper::rms_current</title>
<!-- Node1 -->
<g id="Node000001" class="node">
<title>Node1</title>
<g id="a_Node000001"><a xlink:title=" ">
<polygon fill="#999999" stroke="#666666" points="115,-91.5 0,-91.5 0,-61 115,-61 115,-91.5"/>
<text text-anchor="start" x="8" y="-78" font-family="Helvetica,sans-Serif" font-size="10.00">TMC2240Stepper::rms</text>
<text text-anchor="middle" x="57.5" y="-66.75" font-family="Helvetica,sans-Serif" font-size="10.00">_current</text>
</a>
</g>
</g>
<!-- Node2 -->
<g id="Node000002" class="node">
<title>Node2</title>
<g id="a_Node000002"><a xlink:href="class_t_m_c2240_stepper.html#a8d9765a61d3bf90aa88ff933a29ad160" target="_top" xlink:title=" ">
<polygon fill="white" stroke="#666666" points="268.62,-153.5 152.12,-153.5 152.12,-123 268.62,-123 268.62,-153.5"/>
<text text-anchor="start" x="160.12" y="-140" font-family="Helvetica,sans-Serif" font-size="10.00">TMC2240Stepper::calc</text>
<text text-anchor="middle" x="210.38" y="-128.75" font-family="Helvetica,sans-Serif" font-size="10.00">_IFS_current_RMS</text>
</a>
</g>
</g>
<!-- Node1&#45;&gt;Node2 -->
<g id="edge1_Node000001_Node000002" class="edge">
<title>Node1&#45;&gt;Node2</title>
<g id="a_edge1_Node000001_Node000002"><a xlink:title=" ">
<path fill="none" stroke="#63b8ff" d="M96.57,-91.9C115.97,-99.87 139.79,-109.65 160.53,-118.18"/>
<polygon fill="#63b8ff" stroke="#63b8ff" points="159.07,-121.36 169.65,-121.93 161.73,-114.89 159.07,-121.36"/>
</a>
</g>
</g>
<!-- Node3 -->
<g id="Node000003" class="node">
<title>Node3</title>
<g id="a_Node000003"><a xlink:href="class_t_m_c2240_stepper.html#a1c9ab690ef294eee252ccb1c8cf4badc" target="_top" xlink:title=" ">
<polygon fill="white" stroke="#666666" points="269.75,-104.88 151,-104.88 151,-85.62 269.75,-85.62 269.75,-104.88"/>
<text text-anchor="middle" x="210.38" y="-91.38" font-family="Helvetica,sans-Serif" font-size="10.00">TMC2240Stepper::ihold</text>
</a>
</g>
</g>
<!-- Node1&#45;&gt;Node3 -->
<g id="edge2_Node000001_Node000003" class="edge">
<title>Node1&#45;&gt;Node3</title>
<g id="a_edge2_Node000001_Node000003"><a xlink:title=" ">
<path fill="none" stroke="#63b8ff" d="M115.11,-83.38C123.01,-84.37 131.2,-85.41 139.31,-86.43"/>
<polygon fill="#63b8ff" stroke="#63b8ff" points="138.83,-89.89 149.18,-87.67 139.7,-82.95 138.83,-89.89"/>
</a>
</g>
</g>
<!-- Node5 -->
<g id="Node000005" class="node">
<title>Node5</title>
<g id="a_Node000005"><a xlink:href="class_t_m_c2240_stepper.html#ad1639c4db3c0ddfcf16b96b77be71219" target="_top" xlink:title=" ">
<polygon fill="white" stroke="#666666" points="267.5,-67.88 153.25,-67.88 153.25,-48.62 267.5,-48.62 267.5,-67.88"/>
<text text-anchor="middle" x="210.38" y="-54.38" font-family="Helvetica,sans-Serif" font-size="10.00">TMC2240Stepper::irun</text>
</a>
</g>
</g>
<!-- Node1&#45;&gt;Node5 -->
<g id="edge5_Node000001_Node000005" class="edge">
<title>Node1&#45;&gt;Node5</title>
<g id="a_edge5_Node000001_Node000005"><a xlink:title=" ">
<path fill="none" stroke="#63b8ff" d="M115.11,-69.5C123.81,-68.46 132.87,-67.38 141.78,-66.31"/>
<polygon fill="#63b8ff" stroke="#63b8ff" points="141.93,-69.82 151.45,-65.16 141.1,-62.87 141.93,-69.82"/>
</a>
</g>
</g>
<!-- Node7 -->
<g id="Node000007" class="node">
<title>Node7</title>
<g id="a_Node000007"><a xlink:href="class_t_m_c2240_stepper.html#a6c7890ad00371779ff777dee0d00544b" target="_top" xlink:title=" ">
<polygon fill="white" stroke="#666666" points="266.38,-30.5 154.38,-30.5 154.38,0 266.38,0 266.38,-30.5"/>
<text text-anchor="start" x="162.38" y="-17" font-family="Helvetica,sans-Serif" font-size="10.00">TMC2240Stepper::set</text>
<text text-anchor="middle" x="210.38" y="-5.75" font-family="Helvetica,sans-Serif" font-size="10.00">_globalscaler</text>
</a>
</g>
</g>
<!-- Node1&#45;&gt;Node7 -->
<g id="edge8_Node000001_Node000007" class="edge">
<title>Node1&#45;&gt;Node7</title>
<g id="a_edge8_Node000001_Node000007"><a xlink:title=" ">
<path fill="none" stroke="#63b8ff" d="M97.35,-60.54C116.45,-52.82 139.67,-43.43 160.01,-35.21"/>
<polygon fill="#63b8ff" stroke="#63b8ff" points="161.29,-38.47 169.25,-31.47 158.67,-31.98 161.29,-38.47"/>
</a>
</g>
</g>
<!-- Node4 -->
<g id="Node000004" class="node">
<title>Node4</title>
<g id="a_Node000004"><a xlink:href="class_t_m_c2240_stepper.html#a261d189729afe54f758d7a8cd2f599c8" target="_top" xlink:title=" ">
<polygon fill="white" stroke="#666666" points="433.88,-122.88 315.12,-122.88 315.12,-103.62 433.88,-103.62 433.88,-122.88"/>
<text text-anchor="middle" x="374.5" y="-109.38" font-family="Helvetica,sans-Serif" font-size="10.00">TMC2240Stepper::ihold</text>
</a>
</g>
</g>
<!-- Node3&#45;&gt;Node4 -->
<g id="edge3_Node000003_Node000004" class="edge">
<title>Node3&#45;&gt;Node4</title>
<g id="a_edge3_Node000003_Node000004"><a xlink:title=" ">
<path fill="none" stroke="#63b8ff" d="M269.91,-101.75C280.86,-102.96 292.41,-104.25 303.66,-105.5"/>
<polygon fill="#63b8ff" stroke="#63b8ff" points="302.95,-108.94 313.28,-106.56 303.73,-101.98 302.95,-108.94"/>
</a>
</g>
</g>
<!-- Node4&#45;&gt;Node4 -->
<g id="edge4_Node000004_Node000004" class="edge">
<title>Node4&#45;&gt;Node4</title>
<g id="a_edge4_Node000004_Node000004"><a xlink:title=" ">
<path fill="none" stroke="#63b8ff" d="M348.81,-123.16C337.09,-131.77 345.65,-140.88 374.5,-140.88 390.73,-140.88 400.54,-137.99 403.93,-133.94"/>
<polygon fill="#63b8ff" stroke="#63b8ff" points="407.27,-132.9 400.69,-124.59 400.66,-135.19 407.27,-132.9"/>
</a>
</g>
</g>
<!-- Node6 -->
<g id="Node000006" class="node">
<title>Node6</title>
<g id="a_Node000006"><a xlink:href="class_t_m_c2240_stepper.html#af64920dda2f277bed484e12d54a8d0d3" target="_top" xlink:title=" ">
<polygon fill="white" stroke="#666666" points="431.62,-67.88 317.38,-67.88 317.38,-48.62 431.62,-48.62 431.62,-67.88"/>
<text text-anchor="middle" x="374.5" y="-54.38" font-family="Helvetica,sans-Serif" font-size="10.00">TMC2240Stepper::irun</text>
</a>
</g>
</g>
<!-- Node5&#45;&gt;Node6 -->
<g id="edge6_Node000005_Node000006" class="edge">
<title>Node5&#45;&gt;Node6</title>
<g id="a_edge6_Node000005_Node000006"><a xlink:title=" ">
<path fill="none" stroke="#63b8ff" d="M267.62,-58.25C279.88,-58.25 292.97,-58.25 305.62,-58.25"/>
<polygon fill="#63b8ff" stroke="#63b8ff" points="305.56,-61.75 315.56,-58.25 305.56,-54.75 305.56,-61.75"/>
</a>
</g>
</g>
<!-- Node6&#45;&gt;Node6 -->
<g id="edge7_Node000006_Node000006" class="edge">
<title>Node6&#45;&gt;Node6</title>
<g id="a_edge7_Node000006_Node000006"><a xlink:title=" ">
<path fill="none" stroke="#63b8ff" d="M348.81,-68.16C337.09,-76.77 345.65,-85.88 374.5,-85.88 390.73,-85.88 400.54,-82.99 403.93,-78.94"/>
<polygon fill="#63b8ff" stroke="#63b8ff" points="407.27,-77.9 400.69,-69.59 400.66,-80.19 407.27,-77.9"/>
</a>
</g>
</g>
<!-- Node8 -->
<g id="Node000008" class="node">
<title>Node8</title>
<g id="a_Node000008"><a xlink:href="class_t_m_c2240_stepper.html#a0950aa99ecae81e9599a77563b1d2d97" target="_top" xlink:title=" ">
<polygon fill="white" stroke="#666666" points="443.25,-30.5 305.75,-30.5 305.75,0 443.25,0 443.25,-30.5"/>
<text text-anchor="start" x="313.75" y="-17" font-family="Helvetica,sans-Serif" font-size="10.00">TMC2240Stepper::GLOBAL</text>
<text text-anchor="middle" x="374.5" y="-5.75" font-family="Helvetica,sans-Serif" font-size="10.00">_SCALER</text>
</a>
</g>
</g>
<!-- Node7&#45;&gt;Node8 -->
<g id="edge9_Node000007_Node000008" class="edge">
<title>Node7&#45;&gt;Node8</title>
<g id="a_edge9_Node000007_Node000008"><a xlink:title=" ">
<path fill="none" stroke="#63b8ff" d="M266.72,-15.25C275.59,-15.25 284.91,-15.25 294.21,-15.25"/>
<polygon fill="#63b8ff" stroke="#63b8ff" points="293.99,-18.75 303.99,-15.25 293.99,-11.75 293.99,-18.75"/>
</a>
</g>
</g>
</g>
</svg>
</svg>

<style type='text/css'>
<![CDATA[
[data-mouse-over-selected='false'] { opacity: 0.7; }
[data-mouse-over-selected='true']  { opacity: 1.0; }
]]>
</style>
<script type="application/ecmascript"><![CDATA[
document.addEventListener('DOMContentLoaded', (event) => {
  highlightEdges();
  highlightAdjacentNodes();
});
]]></script>
</svg>
