<?xml version="1.0" encoding="UTF-8" standalone="no"?>
<!DOCTYPE svg PUBLIC "-//W3C//DTD SVG 1.1//EN"
 "http://www.w3.org/Graphics/SVG/1.1/DTD/svg11.dtd">
<!-- Generated by graphviz version 12.2.1 (20241206.2353)
 -->
<!-- Title: TMC2160Stepper::rms_current Pages: 1 -->
<svg width="614pt" height="94pt"
 viewBox="0.00 0.00 614.25 93.88" xmlns="http://www.w3.org/2000/svg" xmlns:xlink="http://www.w3.org/1999/xlink">
<g id="graph0" class="graph" transform="scale(1 1) rotate(0) translate(4 89.88)">
<title>TMC2160Stepper::rms_current</title>
<!-- Node1 -->
<g id="Node000001" class="node">
<title>Node1</title>
<g id="a_Node000001"><a xlink:title=" ">
<polygon fill="#999999" stroke="#666666" points="115,-54.88 0,-54.88 0,-24.38 115,-24.38 115,-54.88"/>
<text text-anchor="start" x="8" y="-41.38" font-family="Helvetica,sans-Serif" font-size="10.00">TMC2160Stepper::rms</text>
<text text-anchor="middle" x="57.5" y="-30.12" font-family="Helvetica,sans-Serif" font-size="10.00">_current</text>
</a>
</g>
</g>
<!-- Node2 -->
<g id="Node000002" class="node">
<title>Node2</title>
<g id="a_Node000002"><a xlink:href="class_t_m_c2160_stepper.html#a05142aa741a7ebd105a13df39fba9d91" target="_top" xlink:title=" ">
<polygon fill="white" stroke="#666666" points="266,-54.88 151,-54.88 151,-24.38 266,-24.38 266,-54.88"/>
<text text-anchor="start" x="159" y="-41.38" font-family="Helvetica,sans-Serif" font-size="10.00">TMC2160Stepper::rms</text>
<text text-anchor="middle" x="208.5" y="-30.12" font-family="Helvetica,sans-Serif" font-size="10.00">_current</text>
</a>
</g>
</g>
<!-- Node1&#45;&gt;Node2 -->
<g id="edge1_Node000001_Node000002" class="edge">
<title>Node1&#45;&gt;Node2</title>
<g id="a_edge1_Node000001_Node000002"><a xlink:title=" ">
<path fill="none" stroke="#63b8ff" d="M115.26,-39.62C123.19,-39.62 131.42,-39.62 139.53,-39.62"/>
<polygon fill="#63b8ff" stroke="#63b8ff" points="139.39,-43.13 149.39,-39.63 139.39,-36.13 139.39,-43.13"/>
</a>
</g>
</g>
<!-- Node3 -->
<g id="Node000003" class="node">
<title>Node3</title>
<g id="a_Node000003"><a xlink:href="class_t_m_c2160_stepper.html#a6c84af7f87af2c616de8a6a288309ecb" target="_top" xlink:title=" ">
<polygon fill="white" stroke="#666666" points="432.75,-74.25 302,-74.25 302,-55 432.75,-55 432.75,-74.25"/>
<text text-anchor="middle" x="367.38" y="-60.75" font-family="Helvetica,sans-Serif" font-size="10.00">TMC2160Stepper::cs2rms</text>
</a>
</g>
</g>
<!-- Node2&#45;&gt;Node3 -->
<g id="edge2_Node000002_Node000003" class="edge">
<title>Node2&#45;&gt;Node3</title>
<g id="a_edge2_Node000002_Node000003"><a xlink:title=" ">
<path fill="none" stroke="#63b8ff" d="M266.14,-48.65C274.43,-49.97 283.09,-51.35 291.68,-52.72"/>
<polygon fill="#63b8ff" stroke="#63b8ff" points="290.99,-56.15 301.41,-54.27 292.09,-49.24 290.99,-56.15"/>
</a>
</g>
</g>
<!-- Node5 -->
<g id="Node000005" class="node">
<title>Node5</title>
<g id="a_Node000005"><a xlink:href="class_t_m_c_stepper.html#a89f965f7d005e189ef27951f37e699f2" target="_top" xlink:title=" ">
<polygon fill="white" stroke="#666666" points="414,-31.25 320.75,-31.25 320.75,-12 414,-12 414,-31.25"/>
<text text-anchor="middle" x="367.38" y="-17.75" font-family="Helvetica,sans-Serif" font-size="10.00">TMCStepper::irun</text>
</a>
</g>
</g>
<!-- Node2&#45;&gt;Node5 -->
<g id="edge4_Node000002_Node000005" class="edge">
<title>Node2&#45;&gt;Node5</title>
<g id="a_edge4_Node000002_Node000005"><a xlink:title=" ">
<path fill="none" stroke="#63b8ff" d="M266.14,-33.13C280.19,-31.51 295.27,-29.78 309.34,-28.17"/>
<polygon fill="#63b8ff" stroke="#63b8ff" points="309.34,-31.69 318.88,-27.08 308.54,-24.74 309.34,-31.69"/>
</a>
</g>
</g>
<!-- Node4 -->
<g id="Node000004" class="node">
<title>Node4</title>
<g id="a_Node000004"><a xlink:href="class_t_m_c2160_stepper.html#a4dc485fd467892f35f98ad6ea30b6d21" target="_top" xlink:title=" ">
<polygon fill="white" stroke="#666666" points="606.25,-85.88 468.75,-85.88 468.75,-55.38 606.25,-55.38 606.25,-85.88"/>
<text text-anchor="start" x="476.75" y="-72.38" font-family="Helvetica,sans-Serif" font-size="10.00">TMC2160Stepper::GLOBAL</text>
<text text-anchor="middle" x="537.5" y="-61.12" font-family="Helvetica,sans-Serif" font-size="10.00">_SCALER</text>
</a>
</g>
</g>
<!-- Node3&#45;&gt;Node4 -->
<g id="edge3_Node000003_Node000004" class="edge">
<title>Node3&#45;&gt;Node4</title>
<g id="a_edge3_Node000003_Node000004"><a xlink:title=" ">
<path fill="none" stroke="#63b8ff" d="M432.9,-66.93C440.83,-67.21 449,-67.5 457.12,-67.79"/>
<polygon fill="#63b8ff" stroke="#63b8ff" points="456.89,-71.29 467.01,-68.15 457.14,-64.29 456.89,-71.29"/>
</a>
</g>
</g>
<!-- Node6 -->
<g id="Node000006" class="node">
<title>Node6</title>
<g id="a_Node000006"><a xlink:href="class_t_m_c_stepper.html#aa82391a803e3103b03fadd9bb597d532" target="_top" xlink:title=" ">
<polygon fill="white" stroke="#666666" points="584.12,-19.25 490.88,-19.25 490.88,0 584.12,0 584.12,-19.25"/>
<text text-anchor="middle" x="537.5" y="-5.75" font-family="Helvetica,sans-Serif" font-size="10.00">TMCStepper::irun</text>
</a>
</g>
</g>
<!-- Node5&#45;&gt;Node6 -->
<g id="edge5_Node000005_Node000006" class="edge">
<title>Node5&#45;&gt;Node6</title>
<g id="a_edge5_Node000005_Node000006"><a xlink:title=" ">
<path fill="none" stroke="#63b8ff" d="M414.32,-18.35C434.33,-16.92 458.01,-15.23 479.16,-13.72"/>
<polygon fill="#63b8ff" stroke="#63b8ff" points="479.38,-17.21 489.1,-13.01 478.88,-10.23 479.38,-17.21"/>
</a>
</g>
</g>
<!-- Node6&#45;&gt;Node6 -->
<g id="edge6_Node000006_Node000006" class="edge">
<title>Node6&#45;&gt;Node6</title>
<g id="a_edge6_Node000006_Node000006"><a xlink:title=" ">
<path fill="none" stroke="#63b8ff" d="M510.87,-19.54C498.72,-28.15 507.6,-37.25 537.5,-37.25 554.32,-37.25 564.49,-34.37 568.01,-30.32"/>
<polygon fill="#63b8ff" stroke="#63b8ff" points="571.32,-29.19 564.65,-20.96 564.73,-31.56 571.32,-29.19"/>
</a>
</g>
</g>
</g>
</svg>
