<?xml version="1.0" encoding="UTF-8" standalone="no"?>
<!DOCTYPE svg PUBLIC "-//W3C//DTD SVG 1.1//EN"
 "http://www.w3.org/Graphics/SVG/1.1/DTD/svg11.dtd">
<!-- Generated by graphviz version 12.2.1 (20241206.2353)
 -->
<!-- Title: TMC5160Stepper::tpfd Pages: 1 -->
<svg width="274pt" height="45pt"
 viewBox="0.00 0.00 274.00 45.25" xmlns="http://www.w3.org/2000/svg" xmlns:xlink="http://www.w3.org/1999/xlink">
<g id="graph0" class="graph" transform="scale(1 1) rotate(0) translate(4 41.25)">
<title>TMC5160Stepper::tpfd</title>
<!-- Node1 -->
<g id="Node000001" class="node">
<title>Node1</title>
<g id="a_Node000001"><a xlink:title=" ">
<polygon fill="#999999" stroke="#666666" points="115,-19.25 0,-19.25 0,0 115,0 115,-19.25"/>
<text text-anchor="middle" x="57.5" y="-5.75" font-family="Helvetica,sans-Serif" font-size="10.00">TMC5160Stepper::tpfd</text>
</a>
</g>
</g>
<!-- Node2 -->
<g id="Node000002" class="node">
<title>Node2</title>
<g id="a_Node000002"><a xlink:href="class_t_m_c5160_stepper.html#a19fc280a63f1b02a10cbb856ad234042" target="_top" xlink:title=" ">
<polygon fill="white" stroke="#666666" points="266,-19.25 151,-19.25 151,0 266,0 266,-19.25"/>
<text text-anchor="middle" x="208.5" y="-5.75" font-family="Helvetica,sans-Serif" font-size="10.00">TMC5160Stepper::tpfd</text>
</a>
</g>
</g>
<!-- Node1&#45;&gt;Node2 -->
<g id="edge1_Node000001_Node000002" class="edge">
<title>Node1&#45;&gt;Node2</title>
<g id="a_edge1_Node000001_Node000002"><a xlink:title=" ">
<path fill="none" stroke="#63b8ff" d="M115.26,-9.62C123.19,-9.62 131.42,-9.62 139.53,-9.62"/>
<polygon fill="#63b8ff" stroke="#63b8ff" points="139.39,-13.13 149.39,-9.63 139.39,-6.13 139.39,-13.13"/>
</a>
</g>
</g>
<!-- Node2&#45;&gt;Node2 -->
<g id="edge2_Node000002_Node000002" class="edge">
<title>Node2&#45;&gt;Node2</title>
<g id="a_edge2_Node000002_Node000002"><a xlink:title=" ">
<path fill="none" stroke="#63b8ff" d="M184.86,-19.54C174.08,-28.15 181.96,-37.25 208.5,-37.25 223.43,-37.25 232.46,-34.37 235.58,-30.32"/>
<polygon fill="#63b8ff" stroke="#63b8ff" points="238.97,-29.44 232.6,-20.98 232.3,-31.57 238.97,-29.44"/>
</a>
</g>
</g>
</g>
</svg>
