<?xml version="1.0" encoding="UTF-8" standalone="no"?>
<!DOCTYPE svg PUBLIC "-//W3C//DTD SVG 1.1//EN"
 "http://www.w3.org/Graphics/SVG/1.1/DTD/svg11.dtd">
<!-- Generated by graphviz version 12.2.1 (20241206.2353)
 -->
<!-- Title: TMC2660Stepper::ca Pages: 1 -->
<svg width="575pt" height="64pt"
 viewBox="0.00 0.00 574.50 64.25" xmlns="http://www.w3.org/2000/svg" xmlns:xlink="http://www.w3.org/1999/xlink">
<g id="graph0" class="graph" transform="scale(1 1) rotate(0) translate(4 60.25)">
<title>TMC2660Stepper::ca</title>
<!-- Node1 -->
<g id="Node000001" class="node">
<title>Node1</title>
<g id="a_Node000001"><a xlink:title=" ">
<polygon fill="#999999" stroke="#666666" points="109,-19.25 0,-19.25 0,0 109,0 109,-19.25"/>
<text text-anchor="middle" x="54.5" y="-5.75" font-family="Helvetica,sans-Serif" font-size="10.00">TMC2660Stepper::ca</text>
</a>
</g>
</g>
<!-- Node2 -->
<g id="Node000002" class="node">
<title>Node2</title>
<g id="a_Node000002"><a xlink:href="class_t_m_c2660_stepper.html#a1a86dcdb6d9427c26ebe61f521f9b77b" target="_top" xlink:title=" ">
<polygon fill="white" stroke="#666666" points="254,-38.25 145,-38.25 145,-19 254,-19 254,-38.25"/>
<text text-anchor="middle" x="199.5" y="-24.75" font-family="Helvetica,sans-Serif" font-size="10.00">TMC2660Stepper::ca</text>
</a>
</g>
</g>
<!-- Node1&#45;&gt;Node2 -->
<g id="edge1_Node000001_Node000002" class="edge">
<title>Node1&#45;&gt;Node2</title>
<g id="a_edge1_Node000001_Node000002"><a xlink:title=" ">
<path fill="none" stroke="#63b8ff" d="M109.15,-16.75C117.02,-17.8 125.19,-18.88 133.26,-19.96"/>
<polygon fill="#63b8ff" stroke="#63b8ff" points="132.67,-23.41 143.04,-21.26 133.59,-16.47 132.67,-23.41"/>
</a>
</g>
</g>
<!-- Node3 -->
<g id="Node000003" class="node">
<title>Node3</title>
<g id="a_Node000003"><a xlink:href="class_t_m_c2660_stepper.html#aa20df51be5967e40cc23132a1d461275" target="_top" xlink:title=" ">
<polygon fill="white" stroke="#666666" points="410.25,-19.25 290,-19.25 290,0 410.25,0 410.25,-19.25"/>
<text text-anchor="middle" x="350.12" y="-5.75" font-family="Helvetica,sans-Serif" font-size="10.00">TMC2660Stepper::sdoff</text>
</a>
</g>
</g>
<!-- Node1&#45;&gt;Node3 -->
<g id="edge6_Node000001_Node000003" class="edge">
<title>Node1&#45;&gt;Node3</title>
<g id="a_edge6_Node000001_Node000003"><a xlink:title=" ">
<path fill="none" stroke="#63b8ff" d="M109.36,-9.62C156.76,-9.62 226.14,-9.62 278.08,-9.62"/>
<polygon fill="#63b8ff" stroke="#63b8ff" points="278.04,-13.13 288.04,-9.63 278.04,-6.13 278.04,-13.13"/>
</a>
</g>
</g>
<!-- Node2&#45;&gt;Node2 -->
<g id="edge2_Node000002_Node000002" class="edge">
<title>Node2&#45;&gt;Node2</title>
<g id="a_edge2_Node000002_Node000002"><a xlink:title=" ">
<path fill="none" stroke="#63b8ff" d="M176.8,-38.54C166.44,-47.15 174.01,-56.25 199.5,-56.25 213.84,-56.25 222.5,-53.37 225.5,-49.32"/>
<polygon fill="#63b8ff" stroke="#63b8ff" points="228.92,-48.52 222.64,-39.99 222.22,-50.57 228.92,-48.52"/>
</a>
</g>
</g>
<!-- Node2&#45;&gt;Node3 -->
<g id="edge3_Node000002_Node000003" class="edge">
<title>Node2&#45;&gt;Node3</title>
<g id="a_edge3_Node000002_Node000003"><a xlink:title=" ">
<path fill="none" stroke="#63b8ff" d="M254.16,-21.77C261.96,-20.77 270.08,-19.73 278.16,-18.7"/>
<polygon fill="#63b8ff" stroke="#63b8ff" points="278.53,-22.18 288,-17.44 277.64,-15.24 278.53,-22.18"/>
</a>
</g>
</g>
<!-- Node4 -->
<g id="Node000004" class="node">
<title>Node4</title>
<g id="a_Node000004"><a xlink:href="class_t_m_c2660_stepper.html#af6b9772d151924e000c051ecff34d313" target="_top" xlink:title=" ">
<polygon fill="white" stroke="#666666" points="566.5,-19.25 446.25,-19.25 446.25,0 566.5,0 566.5,-19.25"/>
<text text-anchor="middle" x="506.38" y="-5.75" font-family="Helvetica,sans-Serif" font-size="10.00">TMC2660Stepper::sdoff</text>
</a>
</g>
</g>
<!-- Node3&#45;&gt;Node4 -->
<g id="edge4_Node000003_Node000004" class="edge">
<title>Node3&#45;&gt;Node4</title>
<g id="a_edge4_Node000003_Node000004"><a xlink:title=" ">
<path fill="none" stroke="#63b8ff" d="M410.32,-9.62C418.23,-9.62 426.41,-9.62 434.5,-9.62"/>
<polygon fill="#63b8ff" stroke="#63b8ff" points="434.31,-13.13 444.31,-9.63 434.31,-6.13 434.31,-13.13"/>
</a>
</g>
</g>
<!-- Node4&#45;&gt;Node4 -->
<g id="edge5_Node000004_Node000004" class="edge">
<title>Node4&#45;&gt;Node4</title>
<g id="a_edge5_Node000004_Node000004"><a xlink:title=" ">
<path fill="none" stroke="#63b8ff" d="M481.91,-19.54C470.76,-28.15 478.91,-37.25 506.38,-37.25 521.82,-37.25 531.16,-34.37 534.39,-30.32"/>
<polygon fill="#63b8ff" stroke="#63b8ff" points="537.77,-29.38 531.31,-20.98 531.12,-31.57 537.77,-29.38"/>
</a>
</g>
</g>
</g>
</svg>
