<?xml version="1.0" encoding="UTF-8" standalone="no"?>
<!DOCTYPE svg PUBLIC "-//W3C//DTD SVG 1.1//EN"
 "http://www.w3.org/Graphics/SVG/1.1/DTD/svg11.dtd">
<!-- Generated by graphviz version 12.2.1 (20241206.2353)
 -->
<!-- Title: TMC2240Stepper::pwm_freq Pages: 1 -->
<svg width="327pt" height="45pt"
 viewBox="0.00 0.00 326.50 45.25" xmlns="http://www.w3.org/2000/svg" xmlns:xlink="http://www.w3.org/1999/xlink">
<g id="graph0" class="graph" transform="scale(1 1) rotate(0) translate(4 41.25)">
<title>TMC2240Stepper::pwm_freq</title>
<!-- Node1 -->
<g id="Node000001" class="node">
<title>Node1</title>
<g id="a_Node000001"><a xlink:title=" ">
<polygon fill="#999999" stroke="#666666" points="318.5,-19.25 177.25,-19.25 177.25,0 318.5,0 318.5,-19.25"/>
<text text-anchor="middle" x="247.88" y="-5.75" font-family="Helvetica,sans-Serif" font-size="10.00">TMC2240Stepper::pwm_freq</text>
</a>
</g>
</g>
<!-- Node1&#45;&gt;Node1 -->
<g id="edge2_Node000001_Node000001" class="edge">
<title>Node1&#45;&gt;Node1</title>
<g id="a_edge2_Node000001_Node000001"><a xlink:title=" ">
<path fill="none" stroke="#63b8ff" d="M279.66,-30.32C276,-34.37 265.4,-37.25 247.88,-37.25 216.72,-37.25 207.47,-28.15 220.13,-19.54"/>
<polygon fill="#63b8ff" stroke="#63b8ff" points="282.94,-29.09 276.15,-20.96 276.38,-31.55 282.94,-29.09"/>
</a>
</g>
</g>
<!-- Node2 -->
<g id="Node000002" class="node">
<title>Node2</title>
<g id="a_Node000002"><a xlink:href="class_t_m_c2240_stepper.html#a7bb2c777bf6042d000c1fa270a4e8154" target="_top" xlink:title=" ">
<polygon fill="white" stroke="#666666" points="141.25,-19.25 0,-19.25 0,0 141.25,0 141.25,-19.25"/>
<text text-anchor="middle" x="70.62" y="-5.75" font-family="Helvetica,sans-Serif" font-size="10.00">TMC2240Stepper::pwm_freq</text>
</a>
</g>
</g>
<!-- Node1&#45;&gt;Node2 -->
<g id="edge1_Node000001_Node000002" class="edge">
<title>Node1&#45;&gt;Node2</title>
<g id="a_edge1_Node000001_Node000002"><a xlink:title=" ">
<path fill="none" stroke="#63b8ff" d="M165.57,-9.62C157.54,-9.62 149.44,-9.62 141.53,-9.62"/>
<polygon fill="#63b8ff" stroke="#63b8ff" points="165.34,-13.13 175.34,-9.63 165.34,-6.13 165.34,-13.13"/>
</a>
</g>
</g>
</g>
</svg>
