<?xml version="1.0" encoding="UTF-8" standalone="no"?>
<!DOCTYPE svg PUBLIC "-//W3C//DTD SVG 1.1//EN"
 "http://www.w3.org/Graphics/SVG/1.1/DTD/svg11.dtd">
<!-- Generated by graphviz version 12.2.1 (20241206.2353)
 -->
<!-- Title: TMC2130Stepper::sfilt Pages: 1 -->
<svg width="273pt" height="45pt"
 viewBox="0.00 0.00 272.50 45.25" xmlns="http://www.w3.org/2000/svg" xmlns:xlink="http://www.w3.org/1999/xlink">
<g id="graph0" class="graph" transform="scale(1 1) rotate(0) translate(4 41.25)">
<title>TMC2130Stepper::sfilt</title>
<!-- Node1 -->
<g id="Node000001" class="node">
<title>Node1</title>
<g id="a_Node000001"><a xlink:title=" ">
<polygon fill="#999999" stroke="#666666" points="264.5,-19.25 150.25,-19.25 150.25,0 264.5,0 264.5,-19.25"/>
<text text-anchor="middle" x="207.38" y="-5.75" font-family="Helvetica,sans-Serif" font-size="10.00">TMC2130Stepper::sfilt</text>
</a>
</g>
</g>
<!-- Node1&#45;&gt;Node1 -->
<g id="edge2_Node000001_Node000001" class="edge">
<title>Node1&#45;&gt;Node1</title>
<g id="a_edge2_Node000001_Node000001"><a xlink:title=" ">
<path fill="none" stroke="#63b8ff" d="M234.32,-30.32C231.21,-34.37 222.23,-37.25 207.38,-37.25 180.96,-37.25 173.12,-28.15 183.85,-19.54"/>
<polygon fill="#63b8ff" stroke="#63b8ff" points="237.71,-29.45 231.36,-20.98 231.04,-31.57 237.71,-29.45"/>
</a>
</g>
</g>
<!-- Node2 -->
<g id="Node000002" class="node">
<title>Node2</title>
<g id="a_Node000002"><a xlink:href="class_t_m_c2130_stepper.html#a7b574d88a361e26715a029d5d77acc15" target="_top" xlink:title=" ">
<polygon fill="white" stroke="#666666" points="114.25,-19.25 0,-19.25 0,0 114.25,0 114.25,-19.25"/>
<text text-anchor="middle" x="57.13" y="-5.75" font-family="Helvetica,sans-Serif" font-size="10.00">TMC2130Stepper::sfilt</text>
</a>
</g>
</g>
<!-- Node1&#45;&gt;Node2 -->
<g id="edge1_Node000001_Node000002" class="edge">
<title>Node1&#45;&gt;Node2</title>
<g id="a_edge1_Node000001_Node000002"><a xlink:title=" ">
<path fill="none" stroke="#63b8ff" d="M138.59,-9.62C130.51,-9.62 122.33,-9.62 114.44,-9.62"/>
<polygon fill="#63b8ff" stroke="#63b8ff" points="138.39,-13.13 148.39,-9.63 138.39,-6.13 138.39,-13.13"/>
</a>
</g>
</g>
</g>
</svg>
