<?xml version="1.0" encoding="UTF-8" standalone="no"?>
<!DOCTYPE svg PUBLIC "-//W3C//DTD SVG 1.1//EN"
 "http://www.w3.org/Graphics/SVG/1.1/DTD/svg11.dtd">
<!-- Generated by graphviz version 12.2.1 (20241206.2353)
 -->
<!-- Title: TMC5160Stepper::TMC5160Stepper Pages: 1 -->
<svg width="985pt" height="118pt"
 viewBox="0.00 0.00 985.00 118.25" xmlns="http://www.w3.org/2000/svg" xmlns:xlink="http://www.w3.org/1999/xlink">
<g id="graph0" class="graph" transform="scale(1 1) rotate(0) translate(4 114.25)">
<title>TMC5160Stepper::TMC5160Stepper</title>
<!-- Node1 -->
<g id="Node000001" class="node">
<title>Node1</title>
<g id="a_Node000001"><a xlink:title=" ">
<polygon fill="#999999" stroke="#666666" points="175,-91.25 0,-91.25 0,-72 175,-72 175,-91.25"/>
<text text-anchor="middle" x="87.5" y="-77.75" font-family="Helvetica,sans-Serif" font-size="10.00">TMC5160Stepper::TMC5160Stepper</text>
</a>
</g>
</g>
<!-- Node2 -->
<g id="Node000002" class="node">
<title>Node2</title>
<g id="a_Node000002"><a xlink:href="class_t_m_c5160_stepper.html#a2b9b72c13c1f667d274927e1d56d2298" target="_top" xlink:title=" ">
<polygon fill="white" stroke="#666666" points="365,-110.25 232,-110.25 232,-91 365,-91 365,-110.25"/>
<text text-anchor="middle" x="298.5" y="-96.75" font-family="Helvetica,sans-Serif" font-size="10.00">TMC5160Stepper::defaults</text>
</a>
</g>
</g>
<!-- Node1&#45;&gt;Node2 -->
<g id="edge1_Node000001_Node000002" class="edge">
<title>Node1&#45;&gt;Node2</title>
<g id="a_edge1_Node000001_Node000002"><a xlink:title=" ">
<path fill="none" stroke="#63b8ff" d="M175.32,-89.52C190.33,-90.88 205.85,-92.29 220.58,-93.63"/>
<polygon fill="#63b8ff" stroke="#63b8ff" points="219.88,-97.08 230.16,-94.5 220.52,-90.11 219.88,-97.08"/>
</a>
</g>
</g>
<!-- Node3 -->
<g id="Node000003" class="node">
<title>Node3</title>
<g id="a_Node000003"><a xlink:href="class_t_m_c5130_stepper.html#a088aeda9ef66db632a4ede6ce0ac98b4" target="_top" xlink:title=" ">
<polygon fill="white" stroke="#666666" points="386,-73.25 211,-73.25 211,-54 386,-54 386,-73.25"/>
<text text-anchor="middle" x="298.5" y="-59.75" font-family="Helvetica,sans-Serif" font-size="10.00">TMC5130Stepper::TMC5130Stepper</text>
</a>
</g>
</g>
<!-- Node1&#45;&gt;Node3 -->
<g id="edge2_Node000001_Node000003" class="edge">
<title>Node1&#45;&gt;Node3</title>
<g id="a_edge2_Node000001_Node000003"><a xlink:title=" ">
<path fill="none" stroke="#63b8ff" d="M175.32,-74.15C183.25,-73.46 191.31,-72.77 199.33,-72.08"/>
<polygon fill="#63b8ff" stroke="#63b8ff" points="199.44,-75.58 209.11,-71.24 198.84,-68.61 199.44,-75.58"/>
</a>
</g>
</g>
<!-- Node4 -->
<g id="Node000004" class="node">
<title>Node4</title>
<g id="a_Node000004"><a xlink:href="class_t_m_c5130_stepper.html#aaeb93e5fd8e0ad7cd4f70edfa69fec47" target="_top" xlink:title=" ">
<polygon fill="white" stroke="#666666" points="576,-92.25 443,-92.25 443,-73 576,-73 576,-92.25"/>
<text text-anchor="middle" x="509.5" y="-78.75" font-family="Helvetica,sans-Serif" font-size="10.00">TMC5130Stepper::defaults</text>
</a>
</g>
</g>
<!-- Node3&#45;&gt;Node4 -->
<g id="edge3_Node000003_Node000004" class="edge">
<title>Node3&#45;&gt;Node4</title>
<g id="a_edge3_Node000003_Node000004"><a xlink:title=" ">
<path fill="none" stroke="#63b8ff" d="M386.32,-71.52C401.33,-72.88 416.85,-74.29 431.58,-75.63"/>
<polygon fill="#63b8ff" stroke="#63b8ff" points="430.88,-79.08 441.16,-76.5 431.52,-72.11 430.88,-79.08"/>
</a>
</g>
</g>
<!-- Node5 -->
<g id="Node000005" class="node">
<title>Node5</title>
<g id="a_Node000005"><a xlink:href="class_t_m_c2160_stepper.html#a4ba0721dce0f73b4438c497b27263543" target="_top" xlink:title=" ">
<polygon fill="white" stroke="#666666" points="597,-55.25 422,-55.25 422,-36 597,-36 597,-55.25"/>
<text text-anchor="middle" x="509.5" y="-41.75" font-family="Helvetica,sans-Serif" font-size="10.00">TMC2160Stepper::TMC2160Stepper</text>
</a>
</g>
</g>
<!-- Node3&#45;&gt;Node5 -->
<g id="edge4_Node000003_Node000005" class="edge">
<title>Node3&#45;&gt;Node5</title>
<g id="a_edge4_Node000003_Node000005"><a xlink:title=" ">
<path fill="none" stroke="#63b8ff" d="M386.32,-56.15C394.25,-55.46 402.31,-54.77 410.33,-54.08"/>
<polygon fill="#63b8ff" stroke="#63b8ff" points="410.44,-57.58 420.11,-53.24 409.84,-50.61 410.44,-57.58"/>
</a>
</g>
</g>
<!-- Node6 -->
<g id="Node000006" class="node">
<title>Node6</title>
<g id="a_Node000006"><a xlink:href="class_t_m_c2160_stepper.html#a5e55442fa6cd92580197a8a0d34208b1" target="_top" xlink:title=" ">
<polygon fill="white" stroke="#666666" points="787,-74.25 654,-74.25 654,-55 787,-55 787,-74.25"/>
<text text-anchor="middle" x="720.5" y="-60.75" font-family="Helvetica,sans-Serif" font-size="10.00">TMC2160Stepper::defaults</text>
</a>
</g>
</g>
<!-- Node5&#45;&gt;Node6 -->
<g id="edge5_Node000005_Node000006" class="edge">
<title>Node5&#45;&gt;Node6</title>
<g id="a_edge5_Node000005_Node000006"><a xlink:title=" ">
<path fill="none" stroke="#63b8ff" d="M597.32,-53.52C612.33,-54.88 627.85,-56.29 642.58,-57.63"/>
<polygon fill="#63b8ff" stroke="#63b8ff" points="641.88,-61.08 652.16,-58.5 642.52,-54.11 641.88,-61.08"/>
</a>
</g>
</g>
<!-- Node7 -->
<g id="Node000007" class="node">
<title>Node7</title>
<g id="a_Node000007"><a xlink:href="class_t_m_c2130_stepper.html#a5ba7c4f0262fc2715b47e33c2e419fea" target="_top" xlink:title=" ">
<polygon fill="white" stroke="#666666" points="808,-37.25 633,-37.25 633,-18 808,-18 808,-37.25"/>
<text text-anchor="middle" x="720.5" y="-23.75" font-family="Helvetica,sans-Serif" font-size="10.00">TMC2130Stepper::TMC2130Stepper</text>
</a>
</g>
</g>
<!-- Node5&#45;&gt;Node7 -->
<g id="edge6_Node000005_Node000007" class="edge">
<title>Node5&#45;&gt;Node7</title>
<g id="a_edge6_Node000005_Node000007"><a xlink:title=" ">
<path fill="none" stroke="#63b8ff" d="M597.32,-38.15C605.25,-37.46 613.31,-36.77 621.33,-36.08"/>
<polygon fill="#63b8ff" stroke="#63b8ff" points="621.44,-39.58 631.11,-35.24 620.84,-32.61 621.44,-39.58"/>
</a>
</g>
</g>
<!-- Node8 -->
<g id="Node000008" class="node">
<title>Node8</title>
<g id="a_Node000008"><a xlink:href="class_t_m_c2130_stepper.html#abd1d08df305673b41b1b9c3106fb9c68" target="_top" xlink:title=" ">
<polygon fill="white" stroke="#666666" points="977,-56.25 844,-56.25 844,-37 977,-37 977,-56.25"/>
<text text-anchor="middle" x="910.5" y="-42.75" font-family="Helvetica,sans-Serif" font-size="10.00">TMC2130Stepper::defaults</text>
</a>
</g>
</g>
<!-- Node7&#45;&gt;Node8 -->
<g id="edge7_Node000007_Node000008" class="edge">
<title>Node7&#45;&gt;Node8</title>
<g id="a_edge7_Node000007_Node000008"><a xlink:title=" ">
<path fill="none" stroke="#63b8ff" d="M808.35,-36.4C816.3,-37.21 824.32,-38.02 832.18,-38.81"/>
<polygon fill="#63b8ff" stroke="#63b8ff" points="831.74,-42.28 842.04,-39.81 832.44,-35.32 831.74,-42.28"/>
</a>
</g>
</g>
<!-- Node9 -->
<g id="Node000009" class="node">
<title>Node9</title>
<g id="a_Node000009"><a xlink:href="class_t_m_c_stepper.html#a8a8813bde06653e0b66f93e57387a02f" target="_top" xlink:title=" ">
<polygon fill="white" stroke="#666666" points="977,-19.25 844,-19.25 844,0 977,0 977,-19.25"/>
<text text-anchor="middle" x="910.5" y="-5.75" font-family="Helvetica,sans-Serif" font-size="10.00">TMCStepper::TMCStepper</text>
</a>
</g>
</g>
<!-- Node7&#45;&gt;Node9 -->
<g id="edge8_Node000007_Node000009" class="edge">
<title>Node7&#45;&gt;Node9</title>
<g id="a_edge8_Node000007_Node000009"><a xlink:title=" ">
<path fill="none" stroke="#63b8ff" d="M808.35,-19.31C816.3,-18.55 824.32,-17.78 832.18,-17.03"/>
<polygon fill="#63b8ff" stroke="#63b8ff" points="832.42,-20.52 842.04,-16.08 831.75,-13.55 832.42,-20.52"/>
</a>
</g>
</g>
</g>
</svg>
