<?xml version="1.0" encoding="UTF-8" standalone="no"?>
<!DOCTYPE svg PUBLIC "-//W3C//DTD SVG 1.1//EN"
 "http://www.w3.org/Graphics/SVG/1.1/DTD/svg11.dtd">
<!-- Generated by graphviz version 12.2.1 (20241206.2353)
 -->
<!-- Title: TMC5160Stepper::push Pages: 1 -->
<svg width="484pt" height="1259pt"
 viewBox="0.00 0.00 484.25 1259.25" xmlns="http://www.w3.org/2000/svg" xmlns:xlink="http://www.w3.org/1999/xlink">
<g id="graph0" class="graph" transform="scale(1 1) rotate(0) translate(4 1255.25)">
<title>TMC5160Stepper::push</title>
<!-- Node1 -->
<g id="Node000001" class="node">
<title>Node1</title>
<g id="a_Node000001"><a xlink:title=" ">
<polygon fill="#999999" stroke="#666666" points="119.5,-623.25 0,-623.25 0,-604 119.5,-604 119.5,-623.25"/>
<text text-anchor="middle" x="59.75" y="-609.75" font-family="Helvetica,sans-Serif" font-size="10.00">TMC5160Stepper::push</text>
</a>
</g>
</g>
<!-- Node2 -->
<g id="Node000002" class="node">
<title>Node2</title>
<g id="a_Node000002"><a xlink:href="class_t_m_c5130_stepper.html#a6cc10f2e47c0f2eadeb5e8e6cf42015d" target="_top" xlink:title=" ">
<polygon fill="white" stroke="#666666" points="293.75,-1251.25 184.75,-1251.25 184.75,-1232 293.75,-1232 293.75,-1251.25"/>
<text text-anchor="middle" x="239.25" y="-1237.75" font-family="Helvetica,sans-Serif" font-size="10.00">TMC5130Stepper::a1</text>
</a>
</g>
</g>
<!-- Node1&#45;&gt;Node2 -->
<g id="edge1_Node000001_Node000002" class="edge">
<title>Node1&#45;&gt;Node2</title>
<g id="a_edge1_Node000001_Node000002"><a xlink:title=" ">
<path fill="none" stroke="#63b8ff" d="M60.82,-623.42C61.49,-694.56 69.17,-1131.95 155.5,-1223.62 160.65,-1229.09 167.03,-1233.09 173.96,-1236"/>
<polygon fill="#63b8ff" stroke="#63b8ff" points="172.38,-1239.16 182.98,-1239.03 174.61,-1232.52 172.38,-1239.16"/>
</a>
</g>
</g>
<!-- Node3 -->
<g id="Node000003" class="node">
<title>Node3</title>
<g id="a_Node000003"><a xlink:href="class_t_m_c5130_stepper.html#a1d199eabd1b7da86c2518603c10bf8d9" target="_top" xlink:title=" ">
<polygon fill="white" stroke="#666666" points="302.75,-1214.25 175.75,-1214.25 175.75,-1195 302.75,-1195 302.75,-1214.25"/>
<text text-anchor="middle" x="239.25" y="-1200.75" font-family="Helvetica,sans-Serif" font-size="10.00">TMC5130Stepper::AMAX</text>
</a>
</g>
</g>
<!-- Node1&#45;&gt;Node3 -->
<g id="edge2_Node000001_Node000003" class="edge">
<title>Node1&#45;&gt;Node3</title>
<g id="a_edge2_Node000001_Node000003"><a xlink:title=" ">
<path fill="none" stroke="#63b8ff" d="M60.93,-623.7C62.36,-693.18 74.21,-1101.13 155.5,-1186.62 158.46,-1189.74 161.82,-1192.37 165.46,-1194.6"/>
<polygon fill="#63b8ff" stroke="#63b8ff" points="163.75,-1197.66 174.26,-1198.93 166.83,-1191.38 163.75,-1197.66"/>
</a>
</g>
</g>
<!-- Node4 -->
<g id="Node000004" class="node">
<title>Node4</title>
<g id="a_Node000004"><a xlink:href="class_t_m_c2130_stepper.html#a67541b27d97ce45f175e9f6e4a2d0bff" target="_top" xlink:title=" ">
<polygon fill="white" stroke="#666666" points="317.38,-1177.25 161.12,-1177.25 161.12,-1158 317.38,-1158 317.38,-1177.25"/>
<text text-anchor="middle" x="239.25" y="-1163.75" font-family="Helvetica,sans-Serif" font-size="10.00">TMC2130Stepper::CHOPCONF</text>
</a>
</g>
</g>
<!-- Node1&#45;&gt;Node4 -->
<g id="edge3_Node000001_Node000004" class="edge">
<title>Node1&#45;&gt;Node4</title>
<g id="a_edge3_Node000001_Node000004"><a xlink:title=" ">
<path fill="none" stroke="#63b8ff" d="M61.05,-623.48C63.23,-689.72 79.03,-1070.1 155.5,-1149.62 155.78,-1149.91 156.06,-1150.2 156.34,-1150.48"/>
<polygon fill="#63b8ff" stroke="#63b8ff" points="154.17,-1153.22 164.22,-1156.59 158.46,-1147.69 154.17,-1153.22"/>
</a>
</g>
</g>
<!-- Node6 -->
<g id="Node000006" class="node">
<title>Node6</title>
<g id="a_Node000006"><a xlink:href="class_t_m_c2130_stepper.html#abc48be984238d94bb3b72ed3aa26f028" target="_top" xlink:title=" ">
<polygon fill="white" stroke="#666666" points="316.62,-1140.25 161.88,-1140.25 161.88,-1121 316.62,-1121 316.62,-1140.25"/>
<text text-anchor="middle" x="239.25" y="-1126.75" font-family="Helvetica,sans-Serif" font-size="10.00">TMC2130Stepper::COOLCONF</text>
</a>
</g>
</g>
<!-- Node1&#45;&gt;Node6 -->
<g id="edge5_Node000001_Node000006" class="edge">
<title>Node1&#45;&gt;Node6</title>
<g id="a_edge5_Node000001_Node000006"><a xlink:title=" ">
<path fill="none" stroke="#63b8ff" d="M61.19,-623.61C64.22,-687.55 83.98,-1039.18 155.5,-1112.62 155.88,-1113.02 156.28,-1113.41 156.67,-1113.79"/>
<polygon fill="#63b8ff" stroke="#63b8ff" points="154.54,-1116.56 164.63,-1119.79 158.75,-1110.97 154.54,-1116.56"/>
</a>
</g>
</g>
<!-- Node7 -->
<g id="Node000007" class="node">
<title>Node7</title>
<g id="a_Node000007"><a xlink:href="class_t_m_c5130_stepper.html#a5536b9f5afbc254f3963ec2029b7e8e8" target="_top" xlink:title=" ">
<polygon fill="white" stroke="#666666" points="293.75,-1103.25 184.75,-1103.25 184.75,-1084 293.75,-1084 293.75,-1103.25"/>
<text text-anchor="middle" x="239.25" y="-1089.75" font-family="Helvetica,sans-Serif" font-size="10.00">TMC5130Stepper::d1</text>
</a>
</g>
</g>
<!-- Node1&#45;&gt;Node7 -->
<g id="edge6_Node000001_Node000007" class="edge">
<title>Node1&#45;&gt;Node7</title>
<g id="a_edge6_Node000001_Node000007"><a xlink:title=" ">
<path fill="none" stroke="#63b8ff" d="M61.36,-623.66C65.27,-684.92 88.89,-1008.21 155.5,-1075.62 160.59,-1080.77 166.78,-1084.61 173.46,-1087.44"/>
<polygon fill="#63b8ff" stroke="#63b8ff" points="172.24,-1090.72 182.84,-1090.63 174.5,-1084.1 172.24,-1090.72"/>
</a>
</g>
</g>
<!-- Node8 -->
<g id="Node000008" class="node">
<title>Node8</title>
<g id="a_Node000008"><a xlink:href="class_t_m_c2130_stepper.html#a1a90b2919efe61dd825552c2fbeca993" target="_top" xlink:title=" ">
<polygon fill="white" stroke="#666666" points="309.12,-1066.25 169.38,-1066.25 169.38,-1047 309.12,-1047 309.12,-1066.25"/>
<text text-anchor="middle" x="239.25" y="-1052.75" font-family="Helvetica,sans-Serif" font-size="10.00">TMC2130Stepper::DCCTRL</text>
</a>
</g>
</g>
<!-- Node1&#45;&gt;Node8 -->
<g id="edge7_Node000001_Node000008" class="edge">
<title>Node1&#45;&gt;Node8</title>
<g id="a_edge7_Node000001_Node000008"><a xlink:title=" ">
<path fill="none" stroke="#63b8ff" d="M61.54,-623.61C66.38,-681.83 93.73,-977.18 155.5,-1038.62 156.74,-1039.86 158.04,-1041.01 159.39,-1042.1"/>
<polygon fill="#63b8ff" stroke="#63b8ff" points="157.46,-1045.01 167.77,-1047.45 161.23,-1039.12 157.46,-1045.01"/>
</a>
</g>
</g>
<!-- Node9 -->
<g id="Node000009" class="node">
<title>Node9</title>
<g id="a_Node000009"><a xlink:href="class_t_m_c5130_stepper.html#a4ba4cbc9e54f1f43255ebeca609a3d7c" target="_top" xlink:title=" ">
<polygon fill="white" stroke="#666666" points="303.12,-1029.25 175.38,-1029.25 175.38,-1010 303.12,-1010 303.12,-1029.25"/>
<text text-anchor="middle" x="239.25" y="-1015.75" font-family="Helvetica,sans-Serif" font-size="10.00">TMC5130Stepper::DMAX</text>
</a>
</g>
</g>
<!-- Node1&#45;&gt;Node9 -->
<g id="edge9_Node000001_Node000009" class="edge">
<title>Node1&#45;&gt;Node9</title>
<g id="a_edge9_Node000001_Node000009"><a xlink:title=" ">
<path fill="none" stroke="#63b8ff" d="M61.75,-623.45C67.56,-678.3 98.53,-946.08 155.5,-1001.62 158.38,-1004.43 161.58,-1006.84 165.01,-1008.91"/>
<polygon fill="#63b8ff" stroke="#63b8ff" points="163.31,-1011.98 173.84,-1013.22 166.39,-1005.69 163.31,-1011.98"/>
</a>
</g>
</g>
<!-- Node10 -->
<g id="Node000010" class="node">
<title>Node10</title>
<g id="a_Node000010"><a xlink:href="class_t_m_c5160_stepper.html#adce396d6676a252e87507a30ba44c693" target="_top" xlink:title=" ">
<polygon fill="white" stroke="#666666" points="316.25,-992.25 162.25,-992.25 162.25,-973 316.25,-973 316.25,-992.25"/>
<text text-anchor="middle" x="239.25" y="-978.75" font-family="Helvetica,sans-Serif" font-size="10.00">TMC5160Stepper::DRV_CONF</text>
</a>
</g>
</g>
<!-- Node1&#45;&gt;Node10 -->
<g id="edge10_Node000001_Node000010" class="edge">
<title>Node1&#45;&gt;Node10</title>
<g id="a_edge10_Node000001_Node000010"><a xlink:title=" ">
<path fill="none" stroke="#63b8ff" d="M62.05,-623.48C69.03,-675.12 103.78,-913.87 155.5,-963.62 156.55,-964.63 157.63,-965.59 158.76,-966.5"/>
<polygon fill="#63b8ff" stroke="#63b8ff" points="156.49,-969.19 166.76,-971.76 160.33,-963.34 156.49,-969.19"/>
</a>
</g>
</g>
<!-- Node11 -->
<g id="Node000011" class="node">
<title>Node11</title>
<g id="a_Node000011"><a xlink:href="class_t_m_c5130_stepper.html#a5cf838fb4ec111c06714f666e8e1807b" target="_top" xlink:title=" ">
<polygon fill="white" stroke="#666666" points="299.38,-954.88 179.12,-954.88 179.12,-924.38 299.38,-924.38 299.38,-954.88"/>
<text text-anchor="start" x="187.12" y="-941.38" font-family="Helvetica,sans-Serif" font-size="10.00">TMC5130Stepper::ENC</text>
<text text-anchor="middle" x="239.25" y="-930.12" font-family="Helvetica,sans-Serif" font-size="10.00">_CONST</text>
</a>
</g>
</g>
<!-- Node1&#45;&gt;Node11 -->
<g id="edge11_Node000001_Node000011" class="edge">
<title>Node1&#45;&gt;Node11</title>
<g id="a_edge11_Node000001_Node000011"><a xlink:title=" ">
<path fill="none" stroke="#63b8ff" d="M60.74,-623.62C61.27,-665.56 69,-829.12 155.5,-914.62 159.37,-918.45 163.79,-921.69 168.55,-924.43"/>
<polygon fill="#63b8ff" stroke="#63b8ff" points="166.81,-927.48 177.33,-928.74 169.89,-921.2 166.81,-927.48"/>
</a>
</g>
</g>
<!-- Node12 -->
<g id="Node000012" class="node">
<title>Node12</title>
<g id="a_Node000012"><a xlink:href="class_t_m_c5160_stepper.html#a6da53737f78754d0c7c20bec80147e16" target="_top" xlink:title=" ">
<polygon fill="white" stroke="#666666" points="299.38,-905.88 179.12,-905.88 179.12,-875.38 299.38,-875.38 299.38,-905.88"/>
<text text-anchor="start" x="187.12" y="-892.38" font-family="Helvetica,sans-Serif" font-size="10.00">TMC5160Stepper::ENC</text>
<text text-anchor="middle" x="239.25" y="-881.12" font-family="Helvetica,sans-Serif" font-size="10.00">_DEVIATION</text>
</a>
</g>
</g>
<!-- Node1&#45;&gt;Node12 -->
<g id="edge12_Node000001_Node000012" class="edge">
<title>Node1&#45;&gt;Node12</title>
<g id="a_edge12_Node000001_Node000012"><a xlink:title=" ">
<path fill="none" stroke="#63b8ff" d="M61.39,-623.58C64.38,-661.29 80.16,-796.81 155.5,-866.62 159.47,-870.31 163.98,-873.43 168.79,-876.07"/>
<polygon fill="#63b8ff" stroke="#63b8ff" points="167.09,-879.14 177.64,-880.22 170.06,-872.81 167.09,-879.14"/>
</a>
</g>
</g>
<!-- Node13 -->
<g id="Node000013" class="node">
<title>Node13</title>
<g id="a_Node000013"><a xlink:href="class_t_m_c5130_stepper.html#a3c7840e9435d4332fc6a7742deeefa9f" target="_top" xlink:title=" ">
<polygon fill="white" stroke="#666666" points="314.38,-857.25 164.12,-857.25 164.12,-838 314.38,-838 314.38,-857.25"/>
<text text-anchor="middle" x="239.25" y="-843.75" font-family="Helvetica,sans-Serif" font-size="10.00">TMC5130Stepper::ENCMODE</text>
</a>
</g>
</g>
<!-- Node1&#45;&gt;Node13 -->
<g id="edge13_Node000001_Node000013" class="edge">
<title>Node1&#45;&gt;Node13</title>
<g id="a_edge13_Node000001_Node000013"><a xlink:title=" ">
<path fill="none" stroke="#63b8ff" d="M61.95,-623.69C66.65,-658.35 87.05,-773.61 155.5,-829.62 156.47,-830.42 157.46,-831.18 158.48,-831.9"/>
<polygon fill="#63b8ff" stroke="#63b8ff" points="156.52,-834.81 166.91,-836.87 160.07,-828.78 156.52,-834.81"/>
</a>
</g>
</g>
<!-- Node14 -->
<g id="Node000014" class="node">
<title>Node14</title>
<g id="a_Node000014"><a xlink:href="class_t_m_c2130_stepper.html#aee84a9abfc84b387c6ae5658f90bf684" target="_top" xlink:title=" ">
<polygon fill="white" stroke="#666666" points="306.5,-820.25 172,-820.25 172,-801 306.5,-801 306.5,-820.25"/>
<text text-anchor="middle" x="239.25" y="-806.75" font-family="Helvetica,sans-Serif" font-size="10.00">TMC2130Stepper::GCONF</text>
</a>
</g>
</g>
<!-- Node1&#45;&gt;Node14 -->
<g id="edge15_Node000001_Node000014" class="edge">
<title>Node1&#45;&gt;Node14</title>
<g id="a_edge15_Node000001_Node000014"><a xlink:title=" ">
<path fill="none" stroke="#63b8ff" d="M62.96,-623.59C70.27,-654.04 96.58,-746.49 155.5,-791.62 157.42,-793.1 159.43,-794.46 161.52,-795.71"/>
<polygon fill="#63b8ff" stroke="#63b8ff" points="159.9,-798.82 170.4,-800.2 163.06,-792.57 159.9,-798.82"/>
</a>
</g>
</g>
<!-- Node15 -->
<g id="Node000015" class="node">
<title>Node15</title>
<g id="a_Node000015"><a xlink:href="class_t_m_c5160_stepper.html#a4dc485fd467892f35f98ad6ea30b6d21" target="_top" xlink:title=" ">
<polygon fill="white" stroke="#666666" points="308,-782.88 170.5,-782.88 170.5,-752.38 308,-752.38 308,-782.88"/>
<text text-anchor="start" x="178.5" y="-769.38" font-family="Helvetica,sans-Serif" font-size="10.00">TMC5160Stepper::GLOBAL</text>
<text text-anchor="middle" x="239.25" y="-758.12" font-family="Helvetica,sans-Serif" font-size="10.00">_SCALER</text>
</a>
</g>
</g>
<!-- Node1&#45;&gt;Node15 -->
<g id="edge17_Node000001_Node000015" class="edge">
<title>Node1&#45;&gt;Node15</title>
<g id="a_edge17_Node000001_Node000015"><a xlink:title=" ">
<path fill="none" stroke="#63b8ff" d="M65.12,-623.49C76.38,-647.78 108.86,-710.91 155.5,-743.62 157.06,-744.72 158.66,-745.76 160.31,-746.76"/>
<polygon fill="#63b8ff" stroke="#63b8ff" points="158.32,-749.66 168.8,-751.25 161.6,-743.48 158.32,-749.66"/>
</a>
</g>
</g>
<!-- Node16 -->
<g id="Node000016" class="node">
<title>Node16</title>
<g id="a_Node000016"><a xlink:href="class_t_m_c_stepper.html#a597bc308bad0d1198b98c48a6ef34fc3" target="_top" xlink:title=" ">
<polygon fill="white" stroke="#666666" points="308.75,-734.25 169.75,-734.25 169.75,-715 308.75,-715 308.75,-734.25"/>
<text text-anchor="middle" x="239.25" y="-720.75" font-family="Helvetica,sans-Serif" font-size="10.00">TMCStepper::IHOLD_IRUN</text>
</a>
</g>
</g>
<!-- Node1&#45;&gt;Node16 -->
<g id="edge18_Node000001_Node000016" class="edge">
<title>Node1&#45;&gt;Node16</title>
<g id="a_edge18_Node000001_Node000016"><a xlink:title=" ">
<path fill="none" stroke="#63b8ff" d="M67.81,-623.61C82.03,-642.93 116.15,-685.38 155.5,-706.62 158.05,-708 160.69,-709.27 163.4,-710.44"/>
<polygon fill="#63b8ff" stroke="#63b8ff" points="162.13,-713.7 172.72,-713.97 164.61,-707.16 162.13,-713.7"/>
</a>
</g>
</g>
<!-- Node17 -->
<g id="Node000017" class="node">
<title>Node17</title>
<g id="a_Node000017"><a xlink:href="class_t_m_c5160_stepper.html#ae59c6240979e95e7b05074e20f3600de" target="_top" xlink:title=" ">
<polygon fill="white" stroke="#666666" points="315.12,-697.25 163.38,-697.25 163.38,-678 315.12,-678 315.12,-697.25"/>
<text text-anchor="middle" x="239.25" y="-683.75" font-family="Helvetica,sans-Serif" font-size="10.00">TMC5160Stepper::PWMCONF</text>
</a>
</g>
</g>
<!-- Node1&#45;&gt;Node17 -->
<g id="edge19_Node000001_Node000017" class="edge">
<title>Node1&#45;&gt;Node17</title>
<g id="a_edge19_Node000001_Node000017"><a xlink:title=" ">
<path fill="none" stroke="#63b8ff" d="M74.47,-623.66C92.28,-636.22 124.73,-657.55 155.5,-669.62 160.09,-671.43 164.9,-673.06 169.78,-674.55"/>
<polygon fill="#63b8ff" stroke="#63b8ff" points="168.53,-677.84 179.11,-677.16 170.42,-671.09 168.53,-677.84"/>
</a>
</g>
</g>
<!-- Node18 -->
<g id="Node000018" class="node">
<title>Node18</title>
<g id="a_Node000018"><a xlink:href="class_t_m_c5130_stepper.html#a020e6ae2a6abce1a92338345aab2ae7c" target="_top" xlink:title=" ">
<polygon fill="white" stroke="#666666" points="318.12,-660.25 160.38,-660.25 160.38,-641 318.12,-641 318.12,-660.25"/>
<text text-anchor="middle" x="239.25" y="-646.75" font-family="Helvetica,sans-Serif" font-size="10.00">TMC5130Stepper::RAMPMODE</text>
</a>
</g>
</g>
<!-- Node1&#45;&gt;Node18 -->
<g id="edge20_Node000001_Node000018" class="edge">
<title>Node1&#45;&gt;Node18</title>
<g id="a_edge20_Node000001_Node000018"><a xlink:title=" ">
<path fill="none" stroke="#63b8ff" d="M109.25,-623.74C130.68,-628.2 156.07,-633.5 178.64,-638.2"/>
<polygon fill="#63b8ff" stroke="#63b8ff" points="177.82,-641.6 188.32,-640.22 179.25,-634.75 177.82,-641.6"/>
</a>
</g>
</g>
<!-- Node19 -->
<g id="Node000019" class="node">
<title>Node19</title>
<g id="a_Node000019"><a xlink:href="class_t_m_c5160_stepper.html#afff5a7b8d79d2575ae5b3061e463ba3d" target="_top" xlink:title=" ">
<polygon fill="white" stroke="#666666" points="323,-623.25 155.5,-623.25 155.5,-604 323,-604 323,-623.25"/>
<text text-anchor="middle" x="239.25" y="-609.75" font-family="Helvetica,sans-Serif" font-size="10.00">TMC5160Stepper::SHORT_CONF</text>
</a>
</g>
</g>
<!-- Node1&#45;&gt;Node19 -->
<g id="edge22_Node000001_Node000019" class="edge">
<title>Node1&#45;&gt;Node19</title>
<g id="a_edge22_Node000001_Node000019"><a xlink:title=" ">
<path fill="none" stroke="#63b8ff" d="M119.85,-613.62C127.53,-613.62 135.54,-613.62 143.62,-613.62"/>
<polygon fill="#63b8ff" stroke="#63b8ff" points="143.54,-617.13 153.54,-613.63 143.54,-610.13 143.54,-617.13"/>
</a>
</g>
</g>
<!-- Node20 -->
<g id="Node000020" class="node">
<title>Node20</title>
<g id="a_Node000020"><a xlink:href="class_t_m_c5130_stepper.html#acebb43936d46f78195486c79dc2cf75e" target="_top" xlink:title=" ">
<polygon fill="white" stroke="#666666" points="318.12,-586.25 160.38,-586.25 160.38,-567 318.12,-567 318.12,-586.25"/>
<text text-anchor="middle" x="239.25" y="-572.75" font-family="Helvetica,sans-Serif" font-size="10.00">TMC5130Stepper::SLAVECONF</text>
</a>
</g>
</g>
<!-- Node1&#45;&gt;Node20 -->
<g id="edge23_Node000001_Node000020" class="edge">
<title>Node1&#45;&gt;Node20</title>
<g id="a_edge23_Node000001_Node000020"><a xlink:title=" ">
<path fill="none" stroke="#63b8ff" d="M109.25,-603.51C130.68,-599.05 156.07,-593.75 178.64,-589.05"/>
<polygon fill="#63b8ff" stroke="#63b8ff" points="179.25,-592.5 188.32,-587.03 177.82,-585.65 179.25,-592.5"/>
</a>
</g>
</g>
<!-- Node21 -->
<g id="Node000021" class="node">
<title>Node21</title>
<g id="a_Node000021"><a xlink:href="class_t_m_c5130_stepper.html#af78bc5ec6076b4e7ac8006488b069413" target="_top" xlink:title=" ">
<polygon fill="white" stroke="#666666" points="314.38,-549.25 164.12,-549.25 164.12,-530 314.38,-530 314.38,-549.25"/>
<text text-anchor="middle" x="239.25" y="-535.75" font-family="Helvetica,sans-Serif" font-size="10.00">TMC5130Stepper::SW_MODE</text>
</a>
</g>
</g>
<!-- Node1&#45;&gt;Node21 -->
<g id="edge24_Node000001_Node000021" class="edge">
<title>Node1&#45;&gt;Node21</title>
<g id="a_edge24_Node000001_Node000021"><a xlink:title=" ">
<path fill="none" stroke="#63b8ff" d="M74.47,-603.59C92.28,-591.03 124.73,-569.7 155.5,-557.62 160.09,-555.82 164.9,-554.19 169.78,-552.7"/>
<polygon fill="#63b8ff" stroke="#63b8ff" points="170.42,-556.16 179.11,-550.09 168.53,-549.41 170.42,-556.16"/>
</a>
</g>
</g>
<!-- Node22 -->
<g id="Node000022" class="node">
<title>Node22</title>
<g id="a_Node000022"><a xlink:href="class_t_m_c2130_stepper.html#a5db9c2e01d8c1994a5c58d0bf0b1d9b1" target="_top" xlink:title=" ">
<polygon fill="white" stroke="#666666" points="319.25,-512.25 159.25,-512.25 159.25,-493 319.25,-493 319.25,-512.25"/>
<text text-anchor="middle" x="239.25" y="-498.75" font-family="Helvetica,sans-Serif" font-size="10.00">TMC2130Stepper::TCOOLTHRS</text>
</a>
</g>
</g>
<!-- Node1&#45;&gt;Node22 -->
<g id="edge26_Node000001_Node000022" class="edge">
<title>Node1&#45;&gt;Node22</title>
<g id="a_edge26_Node000001_Node000022"><a xlink:title=" ">
<path fill="none" stroke="#63b8ff" d="M67.81,-603.64C82.03,-584.32 116.15,-541.87 155.5,-520.62 158.05,-519.25 160.69,-517.98 163.4,-516.81"/>
<polygon fill="#63b8ff" stroke="#63b8ff" points="164.61,-520.09 172.72,-513.28 162.13,-513.55 164.61,-520.09"/>
</a>
</g>
</g>
<!-- Node23 -->
<g id="Node000023" class="node">
<title>Node23</title>
<g id="a_Node000023"><a xlink:href="class_t_m_c2130_stepper.html#a8e7d22e8bc39e89b4a02ad1460e4cf25" target="_top" xlink:title=" ">
<polygon fill="white" stroke="#666666" points="304.25,-475.25 174.25,-475.25 174.25,-456 304.25,-456 304.25,-475.25"/>
<text text-anchor="middle" x="239.25" y="-461.75" font-family="Helvetica,sans-Serif" font-size="10.00">TMC2130Stepper::THIGH</text>
</a>
</g>
</g>
<!-- Node1&#45;&gt;Node23 -->
<g id="edge27_Node000001_Node000023" class="edge">
<title>Node1&#45;&gt;Node23</title>
<g id="a_edge27_Node000001_Node000023"><a xlink:title=" ">
<path fill="none" stroke="#63b8ff" d="M64.98,-603.56C75.94,-578.81 107.77,-514.73 155.5,-483.62 158.07,-481.95 160.77,-480.43 163.56,-479.05"/>
<polygon fill="#63b8ff" stroke="#63b8ff" points="164.75,-482.34 172.6,-475.23 162.03,-475.9 164.75,-482.34"/>
</a>
</g>
</g>
<!-- Node24 -->
<g id="Node000024" class="node">
<title>Node24</title>
<g id="a_Node000024"><a xlink:href="class_t_m_c5130_stepper.html#af8d19dd1bae46451e78573843d52cd36" target="_top" xlink:title=" ">
<polygon fill="white" stroke="#666666" points="299.38,-437.88 179.12,-437.88 179.12,-407.38 299.38,-407.38 299.38,-437.88"/>
<text text-anchor="start" x="187.12" y="-424.38" font-family="Helvetica,sans-Serif" font-size="10.00">TMC5130Stepper::TMC</text>
<text text-anchor="middle" x="239.25" y="-413.12" font-family="Helvetica,sans-Serif" font-size="10.00">_OUTPUT</text>
</a>
</g>
</g>
<!-- Node1&#45;&gt;Node24 -->
<g id="edge28_Node000001_Node000024" class="edge">
<title>Node1&#45;&gt;Node24</title>
<g id="a_edge28_Node000001_Node000024"><a xlink:title=" ">
<path fill="none" stroke="#63b8ff" d="M63.51,-603.59C72,-574.59 100.57,-490.01 155.5,-446.62 159.5,-443.46 163.91,-440.72 168.54,-438.33"/>
<polygon fill="#63b8ff" stroke="#63b8ff" points="169.88,-441.57 177.58,-434.29 167.02,-435.18 169.88,-441.57"/>
</a>
</g>
</g>
<!-- Node25 -->
<g id="Node000025" class="node">
<title>Node25</title>
<g id="a_Node000025"><a xlink:href="class_t_m_c_stepper.html#a66812c883dfbb6dedc046a011b2564be" target="_top" xlink:title=" ">
<polygon fill="white" stroke="#666666" points="316.25,-389.25 162.25,-389.25 162.25,-370 316.25,-370 316.25,-389.25"/>
<text text-anchor="middle" x="239.25" y="-375.75" font-family="Helvetica,sans-Serif" font-size="10.00">TMCStepper::TPOWERDOWN</text>
</a>
</g>
</g>
<!-- Node1&#45;&gt;Node25 -->
<g id="edge29_Node000001_Node000025" class="edge">
<title>Node1&#45;&gt;Node25</title>
<g id="a_edge29_Node000001_Node000025"><a xlink:title=" ">
<path fill="none" stroke="#63b8ff" d="M61.99,-603.63C66.82,-569.23 87.59,-454.76 155.5,-398.62 156.98,-397.4 158.53,-396.25 160.13,-395.17"/>
<polygon fill="#63b8ff" stroke="#63b8ff" points="161.49,-398.42 168.5,-390.47 158.07,-392.31 161.49,-398.42"/>
</a>
</g>
</g>
<!-- Node26 -->
<g id="Node000026" class="node">
<title>Node26</title>
<g id="a_Node000026"><a xlink:href="class_t_m_c_stepper.html#ac59a9305aafc64a63698a34cac404788" target="_top" xlink:title=" ">
<polygon fill="white" stroke="#666666" points="307.25,-352.25 171.25,-352.25 171.25,-333 307.25,-333 307.25,-352.25"/>
<text text-anchor="middle" x="239.25" y="-338.75" font-family="Helvetica,sans-Serif" font-size="10.00">TMCStepper::TPWMTHRS</text>
</a>
</g>
</g>
<!-- Node1&#45;&gt;Node26 -->
<g id="edge30_Node000001_Node000026" class="edge">
<title>Node1&#45;&gt;Node26</title>
<g id="a_edge30_Node000001_Node000026"><a xlink:title=" ">
<path fill="none" stroke="#63b8ff" d="M61.25,-603.51C63.71,-565.21 77.83,-427.84 155.5,-360.62 157.21,-359.15 159.01,-357.78 160.89,-356.52"/>
<polygon fill="#63b8ff" stroke="#63b8ff" points="162.44,-359.66 169.51,-351.77 159.06,-353.53 162.44,-359.66"/>
</a>
</g>
</g>
<!-- Node27 -->
<g id="Node000027" class="node">
<title>Node27</title>
<g id="a_Node000027"><a xlink:href="class_t_m_c5130_stepper.html#a3da5ddefeaea5e017d8e608e43269e1e" target="_top" xlink:title=" ">
<polygon fill="white" stroke="#666666" points="317.75,-315.25 160.75,-315.25 160.75,-296 317.75,-296 317.75,-315.25"/>
<text text-anchor="middle" x="239.25" y="-301.75" font-family="Helvetica,sans-Serif" font-size="10.00">TMC5130Stepper::TZEROWAIT</text>
</a>
</g>
</g>
<!-- Node1&#45;&gt;Node27 -->
<g id="edge31_Node000001_Node000027" class="edge">
<title>Node1&#45;&gt;Node27</title>
<g id="a_edge31_Node000001_Node000027"><a xlink:title=" ">
<path fill="none" stroke="#63b8ff" d="M60.7,-603.53C61.1,-561.92 68.44,-402.26 155.5,-323.62 156.15,-323.03 156.82,-322.46 157.51,-321.9"/>
<polygon fill="#63b8ff" stroke="#63b8ff" points="159.38,-324.86 165.81,-316.44 155.53,-319.01 159.38,-324.86"/>
</a>
</g>
</g>
<!-- Node28 -->
<g id="Node000028" class="node">
<title>Node28</title>
<g id="a_Node000028"><a xlink:href="class_t_m_c5130_stepper.html#aa77f4a440b8e61c4600b0b5190df2aed" target="_top" xlink:title=" ">
<polygon fill="white" stroke="#666666" points="293.75,-278.25 184.75,-278.25 184.75,-259 293.75,-259 293.75,-278.25"/>
<text text-anchor="middle" x="239.25" y="-264.75" font-family="Helvetica,sans-Serif" font-size="10.00">TMC5130Stepper::v1</text>
</a>
</g>
</g>
<!-- Node1&#45;&gt;Node28 -->
<g id="edge32_Node000001_Node000028" class="edge">
<title>Node1&#45;&gt;Node28</title>
<g id="a_edge32_Node000001_Node000028"><a xlink:title=" ">
<path fill="none" stroke="#63b8ff" d="M60.28,-603.51C58.77,-558.77 58.98,-376.81 155.5,-286.62 160.72,-281.75 166.93,-278.08 173.58,-275.33"/>
<polygon fill="#63b8ff" stroke="#63b8ff" points="174.5,-278.71 182.87,-272.2 172.27,-272.07 174.5,-278.71"/>
</a>
</g>
</g>
<!-- Node29 -->
<g id="Node000029" class="node">
<title>Node29</title>
<g id="a_Node000029"><a xlink:href="class_t_m_c2130_stepper.html#a4389f7f07c57d2267351b781c6031fb4" target="_top" xlink:title=" ">
<polygon fill="white" stroke="#666666" points="308.75,-241.25 169.75,-241.25 169.75,-222 308.75,-222 308.75,-241.25"/>
<text text-anchor="middle" x="239.25" y="-227.75" font-family="Helvetica,sans-Serif" font-size="10.00">TMC2130Stepper::VDCMIN</text>
</a>
</g>
</g>
<!-- Node1&#45;&gt;Node29 -->
<g id="edge33_Node000001_Node000029" class="edge">
<title>Node1&#45;&gt;Node29</title>
<g id="a_edge33_Node000001_Node000029"><a xlink:title=" ">
<path fill="none" stroke="#63b8ff" d="M61.93,-603.72C68.45,-550.72 101.69,-301.3 155.5,-249.62 156.92,-248.26 158.42,-246.99 159.99,-245.8"/>
<polygon fill="#63b8ff" stroke="#63b8ff" points="161.59,-248.93 168.3,-240.73 157.94,-242.95 161.59,-248.93"/>
</a>
</g>
</g>
<!-- Node30 -->
<g id="Node000030" class="node">
<title>Node30</title>
<g id="a_Node000030"><a xlink:href="class_t_m_c5130_stepper.html#aaa76fdd1c6e8e7f6bb886e0b0031a500" target="_top" xlink:title=" ">
<polygon fill="white" stroke="#666666" points="302.75,-204.25 175.75,-204.25 175.75,-185 302.75,-185 302.75,-204.25"/>
<text text-anchor="middle" x="239.25" y="-190.75" font-family="Helvetica,sans-Serif" font-size="10.00">TMC5130Stepper::VMAX</text>
</a>
</g>
</g>
<!-- Node1&#45;&gt;Node30 -->
<g id="edge34_Node000001_Node000030" class="edge">
<title>Node1&#45;&gt;Node30</title>
<g id="a_edge34_Node000001_Node000030"><a xlink:title=" ">
<path fill="none" stroke="#63b8ff" d="M61.67,-603.84C67.1,-548.02 96.81,-270.27 155.5,-212.62 158.51,-209.67 161.88,-207.15 165.5,-205.01"/>
<polygon fill="#63b8ff" stroke="#63b8ff" points="166.71,-208.31 174.21,-200.82 163.68,-202 166.71,-208.31"/>
</a>
</g>
</g>
<!-- Node31 -->
<g id="Node000031" class="node">
<title>Node31</title>
<g id="a_Node000031"><a xlink:href="class_t_m_c5130_stepper.html#a93bf8f37da496535e8c7313096051de7" target="_top" xlink:title=" ">
<polygon fill="white" stroke="#666666" points="308,-167.25 170.5,-167.25 170.5,-148 308,-148 308,-167.25"/>
<text text-anchor="middle" x="239.25" y="-153.75" font-family="Helvetica,sans-Serif" font-size="10.00">TMC5130Stepper::VSTART</text>
</a>
</g>
</g>
<!-- Node1&#45;&gt;Node31 -->
<g id="edge35_Node000001_Node000031" class="edge">
<title>Node1&#45;&gt;Node31</title>
<g id="a_edge35_Node000001_Node000031"><a xlink:title=" ">
<path fill="none" stroke="#63b8ff" d="M61.47,-603.73C65.95,-544.67 92,-239.2 155.5,-175.62 157.1,-174.03 158.8,-172.55 160.59,-171.2"/>
<polygon fill="#63b8ff" stroke="#63b8ff" points="162.18,-174.33 168.91,-166.15 158.54,-168.35 162.18,-174.33"/>
</a>
</g>
</g>
<!-- Node32 -->
<g id="Node000032" class="node">
<title>Node32</title>
<g id="a_Node000032"><a xlink:href="class_t_m_c5130_stepper.html#a7afed936cd9b037d460dc30433d89911" target="_top" xlink:title=" ">
<polygon fill="white" stroke="#666666" points="305.38,-130.25 173.12,-130.25 173.12,-111 305.38,-111 305.38,-130.25"/>
<text text-anchor="middle" x="239.25" y="-116.75" font-family="Helvetica,sans-Serif" font-size="10.00">TMC5130Stepper::VSTOP</text>
</a>
</g>
</g>
<!-- Node1&#45;&gt;Node32 -->
<g id="edge36_Node000001_Node000032" class="edge">
<title>Node1&#45;&gt;Node32</title>
<g id="a_edge36_Node000001_Node000032"><a xlink:title=" ">
<path fill="none" stroke="#63b8ff" d="M61.29,-603.72C64.86,-541.78 87.12,-208.19 155.5,-138.62 157.82,-136.27 160.37,-134.18 163.09,-132.34"/>
<polygon fill="#63b8ff" stroke="#63b8ff" points="164.49,-135.57 171.6,-127.72 161.15,-129.42 164.49,-135.57"/>
</a>
</g>
</g>
<!-- Node33 -->
<g id="Node000033" class="node">
<title>Node33</title>
<g id="a_Node000033"><a xlink:href="class_t_m_c5130_stepper.html#a694840324312e15515f3215c83565645" target="_top" xlink:title=" ">
<polygon fill="white" stroke="#666666" points="319.25,-93.25 159.25,-93.25 159.25,-74 319.25,-74 319.25,-93.25"/>
<text text-anchor="middle" x="239.25" y="-79.75" font-family="Helvetica,sans-Serif" font-size="10.00">TMC5130Stepper::X_COMPARE</text>
</a>
</g>
</g>
<!-- Node1&#45;&gt;Node33 -->
<g id="edge37_Node000001_Node000033" class="edge">
<title>Node1&#45;&gt;Node33</title>
<g id="a_edge37_Node000001_Node000033"><a xlink:title=" ">
<path fill="none" stroke="#63b8ff" d="M61.13,-603.8C63.84,-539.35 82.2,-177.25 155.5,-101.62 155.88,-101.23 156.27,-100.84 156.67,-100.46"/>
<polygon fill="#63b8ff" stroke="#63b8ff" points="158.75,-103.28 164.61,-94.45 154.53,-97.69 158.75,-103.28"/>
</a>
</g>
</g>
<!-- Node34 -->
<g id="Node000034" class="node">
<title>Node34</title>
<g id="a_Node000034"><a xlink:href="class_t_m_c5130_stepper.html#a7ddd27bea8034e6aec78ab2cf83cedd4" target="_top" xlink:title=" ">
<polygon fill="white" stroke="#666666" points="311.75,-56.25 166.75,-56.25 166.75,-37 311.75,-37 311.75,-56.25"/>
<text text-anchor="middle" x="239.25" y="-42.75" font-family="Helvetica,sans-Serif" font-size="10.00">TMC5130Stepper::XACTUAL</text>
</a>
</g>
</g>
<!-- Node1&#45;&gt;Node34 -->
<g id="edge38_Node000001_Node000034" class="edge">
<title>Node1&#45;&gt;Node34</title>
<g id="a_edge38_Node000001_Node000034"><a xlink:title=" ">
<path fill="none" stroke="#63b8ff" d="M61.01,-603.54C62.94,-535.7 77.4,-146.18 155.5,-64.62 156.11,-63.99 156.74,-63.37 157.38,-62.77"/>
<polygon fill="#63b8ff" stroke="#63b8ff" points="159.33,-65.69 165.31,-56.94 155.18,-60.05 159.33,-65.69"/>
</a>
</g>
</g>
<!-- Node35 -->
<g id="Node000035" class="node">
<title>Node35</title>
<g id="a_Node000035"><a xlink:href="class_t_m_c2130_stepper.html#af486cd4712be021c735fc3bcb8eee9f5" target="_top" xlink:title=" ">
<polygon fill="white" stroke="#666666" points="311,-19.25 167.5,-19.25 167.5,0 311,0 311,-19.25"/>
<text text-anchor="middle" x="239.25" y="-5.75" font-family="Helvetica,sans-Serif" font-size="10.00">TMC2130Stepper::XDIRECT</text>
</a>
</g>
</g>
<!-- Node1&#45;&gt;Node35 -->
<g id="edge40_Node000001_Node000035" class="edge">
<title>Node1&#45;&gt;Node35</title>
<g id="a_edge40_Node000001_Node000035"><a xlink:title=" ">
<path fill="none" stroke="#63b8ff" d="M60.88,-603.78C62.04,-534.06 72.39,-115.34 155.5,-27.62 156.36,-26.72 157.25,-25.85 158.18,-25.02"/>
<polygon fill="#63b8ff" stroke="#63b8ff" points="159.9,-28.1 166.01,-19.45 155.84,-22.39 159.9,-28.1"/>
</a>
</g>
</g>
<!-- Node5 -->
<g id="Node000005" class="node">
<title>Node5</title>
<g id="a_Node000005"><a xlink:href="class_t_m_c2130_stepper.html#aed0175bff6e80ebc14e0d2606283cbe0" target="_top" xlink:title=" ">
<polygon fill="white" stroke="#666666" points="476.25,-740.25 359,-740.25 359,-721 476.25,-721 476.25,-740.25"/>
<text text-anchor="middle" x="417.62" y="-726.75" font-family="Helvetica,sans-Serif" font-size="10.00">TMC2130Stepper::read</text>
</a>
</g>
</g>
<!-- Node4&#45;&gt;Node5 -->
<g id="edge4_Node000004_Node000005" class="edge">
<title>Node4&#45;&gt;Node5</title>
<g id="a_edge4_Node000004_Node000005"><a xlink:title=" ">
<path fill="none" stroke="#63b8ff" d="M312.54,-1157.58C316.34,-1155.36 319.87,-1152.73 323,-1149.62 380.58,-1092.37 407.97,-829.03 414.85,-751.91"/>
<polygon fill="#63b8ff" stroke="#63b8ff" points="418.33,-752.24 415.71,-741.97 411.36,-751.63 418.33,-752.24"/>
</a>
</g>
</g>
<!-- Node8&#45;&gt;Node5 -->
<g id="edge8_Node000008_Node000005" class="edge">
<title>Node8&#45;&gt;Node5</title>
<g id="a_edge8_Node000008_Node000005"><a xlink:title=" ">
<path fill="none" stroke="#63b8ff" d="M309.53,-1047.74C314.43,-1045.31 319,-1042.31 323,-1038.62 407.81,-960.42 416.72,-808.08 416.99,-752.01"/>
<polygon fill="#63b8ff" stroke="#63b8ff" points="420.49,-752.23 416.94,-742.25 413.49,-752.27 420.49,-752.23"/>
</a>
</g>
</g>
<!-- Node13&#45;&gt;Node5 -->
<g id="edge14_Node000013_Node000005" class="edge">
<title>Node13&#45;&gt;Node5</title>
<g id="a_edge14_Node000013_Node000005"><a xlink:title=" ">
<path fill="none" stroke="#63b8ff" d="M304.92,-837.58C311.22,-835.42 317.37,-832.8 323,-829.62 358.02,-809.87 387.81,-772.7 403.88,-749.96"/>
<polygon fill="#63b8ff" stroke="#63b8ff" points="406.64,-752.11 409.41,-741.88 400.87,-748.16 406.64,-752.11"/>
</a>
</g>
</g>
<!-- Node14&#45;&gt;Node5 -->
<g id="edge16_Node000014_Node000005" class="edge">
<title>Node14&#45;&gt;Node5</title>
<g id="a_edge16_Node000014_Node000005"><a xlink:title=" ">
<path fill="none" stroke="#63b8ff" d="M296.3,-800.58C305.4,-798.15 314.59,-795.2 323,-791.62 349.67,-780.3 377.08,-761.43 395.3,-747.67"/>
<polygon fill="#63b8ff" stroke="#63b8ff" points="397.44,-750.44 403.21,-741.56 393.16,-744.9 397.44,-750.44"/>
</a>
</g>
</g>
<!-- Node18&#45;&gt;Node5 -->
<g id="edge21_Node000018_Node000005" class="edge">
<title>Node18&#45;&gt;Node5</title>
<g id="a_edge21_Node000018_Node000005"><a xlink:title=" ">
<path fill="none" stroke="#63b8ff" d="M299.41,-660.67C307.48,-662.85 315.55,-665.48 323,-668.62 350.22,-680.12 378.03,-699.74 396.19,-713.83"/>
<polygon fill="#63b8ff" stroke="#63b8ff" points="393.56,-716.21 403.56,-719.68 397.91,-710.73 393.56,-716.21"/>
</a>
</g>
</g>
<!-- Node21&#45;&gt;Node5 -->
<g id="edge25_Node000021_Node000005" class="edge">
<title>Node21&#45;&gt;Node5</title>
<g id="a_edge25_Node000021_Node000005"><a xlink:title=" ">
<path fill="none" stroke="#63b8ff" d="M309.18,-549.61C314.09,-551.8 318.77,-554.45 323,-557.62 375,-596.7 401.45,-673.4 411.58,-710.1"/>
<polygon fill="#63b8ff" stroke="#63b8ff" points="408.11,-710.65 414.02,-719.44 414.88,-708.88 408.11,-710.65"/>
</a>
</g>
</g>
<!-- Node34&#45;&gt;Node5 -->
<g id="edge39_Node000034_Node000005" class="edge">
<title>Node34&#45;&gt;Node5</title>
<g id="a_edge39_Node000034_Node000005"><a xlink:title=" ">
<path fill="none" stroke="#63b8ff" d="M312.09,-55.93C316.11,-58.31 319.8,-61.18 323,-64.62 412.79,-161.37 417.01,-606.7 416.77,-709.44"/>
<polygon fill="#63b8ff" stroke="#63b8ff" points="413.27,-709.39 416.72,-719.4 420.27,-709.42 413.27,-709.39"/>
</a>
</g>
</g>
<!-- Node35&#45;&gt;Node5 -->
<g id="edge41_Node000035_Node000005" class="edge">
<title>Node35&#45;&gt;Node5</title>
<g id="a_edge41_Node000035_Node000005"><a xlink:title=" ">
<path fill="none" stroke="#63b8ff" d="M311.37,-18.46C315.67,-20.93 319.61,-23.95 323,-27.62 417.71,-130.41 418.07,-603.79 416.94,-709.6"/>
<polygon fill="#63b8ff" stroke="#63b8ff" points="413.44,-709.32 416.81,-719.36 420.44,-709.41 413.44,-709.32"/>
</a>
</g>
</g>
</g>
</svg>
