<?xml version="1.0" encoding="UTF-8" standalone="no"?>
<!DOCTYPE svg PUBLIC "-//W3C//DTD SVG 1.1//EN"
 "http://www.w3.org/Graphics/SVG/1.1/DTD/svg11.dtd">
<!-- Generated by graphviz version 12.2.1 (20241206.2353)
 -->
<!-- Title: TMC2240Stepper::calc_IFS_current_RMS Pages: 1 -->
<svg width="593pt" height="82pt"
 viewBox="0.00 0.00 593.25 81.50" xmlns="http://www.w3.org/2000/svg" xmlns:xlink="http://www.w3.org/1999/xlink">
<g id="graph0" class="graph" transform="scale(1 1) rotate(0) translate(4 77.5)">
<title>TMC2240Stepper::calc_IFS_current_RMS</title>
<!-- Node1 -->
<g id="Node000001" class="node">
<title>Node1</title>
<g id="a_Node000001"><a xlink:title=" ">
<polygon fill="#999999" stroke="#666666" points="585.25,-51.5 468.75,-51.5 468.75,-21 585.25,-21 585.25,-51.5"/>
<text text-anchor="start" x="476.75" y="-38" font-family="Helvetica,sans-Serif" font-size="10.00">TMC2240Stepper::calc</text>
<text text-anchor="middle" x="527" y="-26.75" font-family="Helvetica,sans-Serif" font-size="10.00">_IFS_current_RMS</text>
</a>
</g>
</g>
<!-- Node2 -->
<g id="Node000002" class="node">
<title>Node2</title>
<g id="a_Node000002"><a xlink:href="class_t_m_c2240_stepper.html#ab4e03600d1f0d733b042b7a2b57fa65f" target="_top" xlink:title=" ">
<polygon fill="white" stroke="#666666" points="432.75,-67.88 302,-67.88 302,-48.62 432.75,-48.62 432.75,-67.88"/>
<text text-anchor="middle" x="367.38" y="-54.38" font-family="Helvetica,sans-Serif" font-size="10.00">TMC2240Stepper::cs2rms</text>
</a>
</g>
</g>
<!-- Node1&#45;&gt;Node2 -->
<g id="edge1_Node000001_Node000002" class="edge">
<title>Node1&#45;&gt;Node2</title>
<g id="a_edge1_Node000001_Node000002"><a xlink:title=" ">
<path fill="none" stroke="#63b8ff" d="M457.4,-45.82C449.35,-46.95 441.15,-48.09 433.16,-49.21"/>
<polygon fill="#63b8ff" stroke="#63b8ff" points="457.73,-49.31 467.15,-44.46 456.76,-42.38 457.73,-49.31"/>
</a>
</g>
</g>
<!-- Node5 -->
<g id="Node000005" class="node">
<title>Node5</title>
<g id="a_Node000005"><a xlink:href="class_t_m_c2240_stepper.html#a5f704f4ebe14d5a2ad74c08fcaf4d549" target="_top" xlink:title=" ">
<polygon fill="white" stroke="#666666" points="424.88,-30.5 309.88,-30.5 309.88,0 424.88,0 424.88,-30.5"/>
<text text-anchor="start" x="317.88" y="-17" font-family="Helvetica,sans-Serif" font-size="10.00">TMC2240Stepper::rms</text>
<text text-anchor="middle" x="367.38" y="-5.75" font-family="Helvetica,sans-Serif" font-size="10.00">_current</text>
</a>
</g>
</g>
<!-- Node1&#45;&gt;Node5 -->
<g id="edge4_Node000001_Node000005" class="edge">
<title>Node1&#45;&gt;Node5</title>
<g id="a_edge4_Node000001_Node000005"><a xlink:title=" ">
<path fill="none" stroke="#63b8ff" d="M457.52,-27.13C446.72,-25.69 435.65,-24.21 425.16,-22.81"/>
<polygon fill="#63b8ff" stroke="#63b8ff" points="456.77,-30.56 467.15,-28.41 457.7,-23.62 456.77,-30.56"/>
</a>
</g>
</g>
<!-- Node3 -->
<g id="Node000003" class="node">
<title>Node3</title>
<g id="a_Node000003"><a xlink:href="class_t_m_c2240_stepper.html#a3e82f48545681b406fd103bd84f29e54" target="_top" xlink:title=" ">
<polygon fill="white" stroke="#666666" points="266,-73.5 151,-73.5 151,-43 266,-43 266,-73.5"/>
<text text-anchor="start" x="159" y="-60" font-family="Helvetica,sans-Serif" font-size="10.00">TMC2240Stepper::rms</text>
<text text-anchor="middle" x="208.5" y="-48.75" font-family="Helvetica,sans-Serif" font-size="10.00">_current</text>
</a>
</g>
</g>
<!-- Node2&#45;&gt;Node3 -->
<g id="edge2_Node000002_Node000003" class="edge">
<title>Node2&#45;&gt;Node3</title>
<g id="a_edge2_Node000002_Node000003"><a xlink:title=" ">
<path fill="none" stroke="#63b8ff" d="M290.21,-58.25C282.07,-58.25 273.9,-58.25 266.05,-58.25"/>
<polygon fill="#63b8ff" stroke="#63b8ff" points="290.15,-61.75 300.15,-58.25 290.15,-54.75 290.15,-61.75"/>
</a>
</g>
</g>
<!-- Node4 -->
<g id="Node000004" class="node">
<title>Node4</title>
<g id="a_Node000004"><a xlink:href="class_t_m_c2240_stepper.html#a54d1fadff69efefc479037e61a0052ee" target="_top" xlink:title=" ">
<polygon fill="white" stroke="#666666" points="115,-73.5 0,-73.5 0,-43 115,-43 115,-73.5"/>
<text text-anchor="start" x="8" y="-60" font-family="Helvetica,sans-Serif" font-size="10.00">TMC2240Stepper::rms</text>
<text text-anchor="middle" x="57.5" y="-48.75" font-family="Helvetica,sans-Serif" font-size="10.00">_current</text>
</a>
</g>
</g>
<!-- Node3&#45;&gt;Node4 -->
<g id="edge3_Node000003_Node000004" class="edge">
<title>Node3&#45;&gt;Node4</title>
<g id="a_edge3_Node000003_Node000004"><a xlink:title=" ">
<path fill="none" stroke="#63b8ff" d="M139.37,-58.25C131.25,-58.25 123.03,-58.25 115.1,-58.25"/>
<polygon fill="#63b8ff" stroke="#63b8ff" points="139.23,-61.75 149.23,-58.25 139.23,-54.75 139.23,-61.75"/>
</a>
</g>
</g>
</g>
</svg>
