<?xml version="1.0" encoding="UTF-8" standalone="no"?>
<!DOCTYPE svg PUBLIC "-//W3C//DTD SVG 1.1//EN"
 "http://www.w3.org/Graphics/SVG/1.1/DTD/svg11.dtd">
<!-- Generated by graphviz version 12.2.1 (20241206.2353)
 -->
<!-- Title: TMC2160Stepper::push Pages: 1 -->
<svg width="484pt" height="557pt"
 viewBox="0.00 0.00 484.25 557.25" xmlns="http://www.w3.org/2000/svg" xmlns:xlink="http://www.w3.org/1999/xlink">
<g id="graph0" class="graph" transform="scale(1 1) rotate(0) translate(4 553.25)">
<title>TMC2160Stepper::push</title>
<!-- Node1 -->
<g id="Node000001" class="node">
<title>Node1</title>
<g id="a_Node000001"><a xlink:title=" ">
<polygon fill="#999999" stroke="#666666" points="119.5,-278.25 0,-278.25 0,-259 119.5,-259 119.5,-278.25"/>
<text text-anchor="middle" x="59.75" y="-264.75" font-family="Helvetica,sans-Serif" font-size="10.00">TMC2160Stepper::push</text>
</a>
</g>
</g>
<!-- Node2 -->
<g id="Node000002" class="node">
<title>Node2</title>
<g id="a_Node000002"><a xlink:href="class_t_m_c2130_stepper.html#a67541b27d97ce45f175e9f6e4a2d0bff" target="_top" xlink:title=" ">
<polygon fill="white" stroke="#666666" points="317.38,-549.25 161.12,-549.25 161.12,-530 317.38,-530 317.38,-549.25"/>
<text text-anchor="middle" x="239.25" y="-535.75" font-family="Helvetica,sans-Serif" font-size="10.00">TMC2130Stepper::CHOPCONF</text>
</a>
</g>
</g>
<!-- Node1&#45;&gt;Node2 -->
<g id="edge1_Node000001_Node000002" class="edge">
<title>Node1&#45;&gt;Node2</title>
<g id="a_edge1_Node000001_Node000002"><a xlink:title=" ">
<path fill="none" stroke="#63b8ff" d="M61.25,-278.74C63.71,-317.04 77.83,-454.41 155.5,-521.62 156.3,-522.32 157.13,-522.99 157.97,-523.63"/>
<polygon fill="#63b8ff" stroke="#63b8ff" points="156,-526.54 166.34,-528.87 159.72,-520.6 156,-526.54"/>
</a>
</g>
</g>
<!-- Node4 -->
<g id="Node000004" class="node">
<title>Node4</title>
<g id="a_Node000004"><a xlink:href="class_t_m_c2130_stepper.html#abc48be984238d94bb3b72ed3aa26f028" target="_top" xlink:title=" ">
<polygon fill="white" stroke="#666666" points="316.62,-512.25 161.88,-512.25 161.88,-493 316.62,-493 316.62,-512.25"/>
<text text-anchor="middle" x="239.25" y="-498.75" font-family="Helvetica,sans-Serif" font-size="10.00">TMC2130Stepper::COOLCONF</text>
</a>
</g>
</g>
<!-- Node1&#45;&gt;Node4 -->
<g id="edge3_Node000001_Node000004" class="edge">
<title>Node1&#45;&gt;Node4</title>
<g id="a_edge3_Node000001_Node000004"><a xlink:title=" ">
<path fill="none" stroke="#63b8ff" d="M61.95,-278.69C66.65,-313.35 87.05,-428.61 155.5,-484.62 156.47,-485.42 157.46,-486.18 158.48,-486.9"/>
<polygon fill="#63b8ff" stroke="#63b8ff" points="156.52,-489.81 166.91,-491.87 160.07,-483.78 156.52,-489.81"/>
</a>
</g>
</g>
<!-- Node5 -->
<g id="Node000005" class="node">
<title>Node5</title>
<g id="a_Node000005"><a xlink:href="class_t_m_c2130_stepper.html#a1a90b2919efe61dd825552c2fbeca993" target="_top" xlink:title=" ">
<polygon fill="white" stroke="#666666" points="309.12,-475.25 169.38,-475.25 169.38,-456 309.12,-456 309.12,-475.25"/>
<text text-anchor="middle" x="239.25" y="-461.75" font-family="Helvetica,sans-Serif" font-size="10.00">TMC2130Stepper::DCCTRL</text>
</a>
</g>
</g>
<!-- Node1&#45;&gt;Node5 -->
<g id="edge4_Node000001_Node000005" class="edge">
<title>Node1&#45;&gt;Node5</title>
<g id="a_edge4_Node000001_Node000005"><a xlink:title=" ">
<path fill="none" stroke="#63b8ff" d="M62.92,-278.68C70.11,-309.38 96.12,-402.57 155.5,-447.62 156.82,-448.62 158.18,-449.57 159.58,-450.47"/>
<polygon fill="#63b8ff" stroke="#63b8ff" points="157.49,-453.32 167.96,-454.97 160.8,-447.15 157.49,-453.32"/>
</a>
</g>
</g>
<!-- Node6 -->
<g id="Node000006" class="node">
<title>Node6</title>
<g id="a_Node000006"><a xlink:href="class_t_m_c2160_stepper.html#adce396d6676a252e87507a30ba44c693" target="_top" xlink:title=" ">
<polygon fill="white" stroke="#666666" points="316.25,-438.25 162.25,-438.25 162.25,-419 316.25,-419 316.25,-438.25"/>
<text text-anchor="middle" x="239.25" y="-424.75" font-family="Helvetica,sans-Serif" font-size="10.00">TMC2160Stepper::DRV_CONF</text>
</a>
</g>
</g>
<!-- Node1&#45;&gt;Node6 -->
<g id="edge6_Node000001_Node000006" class="edge">
<title>Node1&#45;&gt;Node6</title>
<g id="a_edge6_Node000001_Node000006"><a xlink:title=" ">
<path fill="none" stroke="#63b8ff" d="M64.26,-278.44C74.14,-304.55 104.81,-376.07 155.5,-410.62 157.09,-411.71 158.73,-412.72 160.41,-413.68"/>
<polygon fill="#63b8ff" stroke="#63b8ff" points="158.58,-416.69 169.11,-417.88 161.63,-410.38 158.58,-416.69"/>
</a>
</g>
</g>
<!-- Node7 -->
<g id="Node000007" class="node">
<title>Node7</title>
<g id="a_Node000007"><a xlink:href="class_t_m_c2130_stepper.html#aee84a9abfc84b387c6ae5658f90bf684" target="_top" xlink:title=" ">
<polygon fill="white" stroke="#666666" points="306.5,-401.25 172,-401.25 172,-382 306.5,-382 306.5,-401.25"/>
<text text-anchor="middle" x="239.25" y="-387.75" font-family="Helvetica,sans-Serif" font-size="10.00">TMC2130Stepper::GCONF</text>
</a>
</g>
</g>
<!-- Node1&#45;&gt;Node7 -->
<g id="edge7_Node000001_Node000007" class="edge">
<title>Node1&#45;&gt;Node7</title>
<g id="a_edge7_Node000001_Node000007"><a xlink:title=" ">
<path fill="none" stroke="#63b8ff" d="M66.71,-278.46C79.9,-299.36 113.74,-348.23 155.5,-372.62 158.52,-374.39 161.69,-375.99 164.96,-377.44"/>
<polygon fill="#63b8ff" stroke="#63b8ff" points="163.67,-380.69 174.26,-381.05 166.2,-374.17 163.67,-380.69"/>
</a>
</g>
</g>
<!-- Node8 -->
<g id="Node000008" class="node">
<title>Node8</title>
<g id="a_Node000008"><a xlink:href="class_t_m_c2160_stepper.html#a4dc485fd467892f35f98ad6ea30b6d21" target="_top" xlink:title=" ">
<polygon fill="white" stroke="#666666" points="308,-363.88 170.5,-363.88 170.5,-333.38 308,-333.38 308,-363.88"/>
<text text-anchor="start" x="178.5" y="-350.38" font-family="Helvetica,sans-Serif" font-size="10.00">TMC2160Stepper::GLOBAL</text>
<text text-anchor="middle" x="239.25" y="-339.12" font-family="Helvetica,sans-Serif" font-size="10.00">_SCALER</text>
</a>
</g>
</g>
<!-- Node1&#45;&gt;Node8 -->
<g id="edge9_Node000001_Node000008" class="edge">
<title>Node1&#45;&gt;Node8</title>
<g id="a_edge9_Node000001_Node000008"><a xlink:title=" ">
<path fill="none" stroke="#63b8ff" d="M74.92,-278.54C92.93,-290.79 125.33,-311.58 155.5,-324.62 159.11,-326.19 162.85,-327.68 166.66,-329.1"/>
<polygon fill="#63b8ff" stroke="#63b8ff" points="165.49,-332.4 176.09,-332.42 167.82,-325.8 165.49,-332.4"/>
</a>
</g>
</g>
<!-- Node9 -->
<g id="Node000009" class="node">
<title>Node9</title>
<g id="a_Node000009"><a xlink:href="class_t_m_c_stepper.html#a597bc308bad0d1198b98c48a6ef34fc3" target="_top" xlink:title=" ">
<polygon fill="white" stroke="#666666" points="308.75,-315.25 169.75,-315.25 169.75,-296 308.75,-296 308.75,-315.25"/>
<text text-anchor="middle" x="239.25" y="-301.75" font-family="Helvetica,sans-Serif" font-size="10.00">TMCStepper::IHOLD_IRUN</text>
</a>
</g>
</g>
<!-- Node1&#45;&gt;Node9 -->
<g id="edge10_Node000001_Node000009" class="edge">
<title>Node1&#45;&gt;Node9</title>
<g id="a_edge10_Node000001_Node000009"><a xlink:title=" ">
<path fill="none" stroke="#63b8ff" d="M109.25,-278.74C130.68,-283.2 156.07,-288.5 178.64,-293.2"/>
<polygon fill="#63b8ff" stroke="#63b8ff" points="177.82,-296.6 188.32,-295.22 179.25,-289.75 177.82,-296.6"/>
</a>
</g>
</g>
<!-- Node10 -->
<g id="Node000010" class="node">
<title>Node10</title>
<g id="a_Node000010"><a xlink:href="class_t_m_c2160_stepper.html#ae59c6240979e95e7b05074e20f3600de" target="_top" xlink:title=" ">
<polygon fill="white" stroke="#666666" points="315.12,-278.25 163.38,-278.25 163.38,-259 315.12,-259 315.12,-278.25"/>
<text text-anchor="middle" x="239.25" y="-264.75" font-family="Helvetica,sans-Serif" font-size="10.00">TMC2160Stepper::PWMCONF</text>
</a>
</g>
</g>
<!-- Node1&#45;&gt;Node10 -->
<g id="edge11_Node000001_Node000010" class="edge">
<title>Node1&#45;&gt;Node10</title>
<g id="a_edge11_Node000001_Node000010"><a xlink:title=" ">
<path fill="none" stroke="#63b8ff" d="M119.85,-268.62C130.11,-268.62 140.96,-268.62 151.77,-268.62"/>
<polygon fill="#63b8ff" stroke="#63b8ff" points="151.47,-272.13 161.47,-268.63 151.47,-265.13 151.47,-272.13"/>
</a>
</g>
</g>
<!-- Node11 -->
<g id="Node000011" class="node">
<title>Node11</title>
<g id="a_Node000011"><a xlink:href="class_t_m_c2160_stepper.html#afff5a7b8d79d2575ae5b3061e463ba3d" target="_top" xlink:title=" ">
<polygon fill="white" stroke="#666666" points="323,-241.25 155.5,-241.25 155.5,-222 323,-222 323,-241.25"/>
<text text-anchor="middle" x="239.25" y="-227.75" font-family="Helvetica,sans-Serif" font-size="10.00">TMC2160Stepper::SHORT_CONF</text>
</a>
</g>
</g>
<!-- Node1&#45;&gt;Node11 -->
<g id="edge12_Node000001_Node000011" class="edge">
<title>Node1&#45;&gt;Node11</title>
<g id="a_edge12_Node000001_Node000011"><a xlink:title=" ">
<path fill="none" stroke="#63b8ff" d="M109.25,-258.51C130.68,-254.05 156.07,-248.75 178.64,-244.05"/>
<polygon fill="#63b8ff" stroke="#63b8ff" points="179.25,-247.5 188.32,-242.03 177.82,-240.65 179.25,-247.5"/>
</a>
</g>
</g>
<!-- Node12 -->
<g id="Node000012" class="node">
<title>Node12</title>
<g id="a_Node000012"><a xlink:href="class_t_m_c2130_stepper.html#a5db9c2e01d8c1994a5c58d0bf0b1d9b1" target="_top" xlink:title=" ">
<polygon fill="white" stroke="#666666" points="319.25,-204.25 159.25,-204.25 159.25,-185 319.25,-185 319.25,-204.25"/>
<text text-anchor="middle" x="239.25" y="-190.75" font-family="Helvetica,sans-Serif" font-size="10.00">TMC2130Stepper::TCOOLTHRS</text>
</a>
</g>
</g>
<!-- Node1&#45;&gt;Node12 -->
<g id="edge13_Node000001_Node000012" class="edge">
<title>Node1&#45;&gt;Node12</title>
<g id="a_edge13_Node000001_Node000012"><a xlink:title=" ">
<path fill="none" stroke="#63b8ff" d="M74.47,-258.59C92.28,-246.03 124.73,-224.7 155.5,-212.62 160.09,-210.82 164.9,-209.19 169.78,-207.7"/>
<polygon fill="#63b8ff" stroke="#63b8ff" points="170.42,-211.16 179.11,-205.09 168.53,-204.41 170.42,-211.16"/>
</a>
</g>
</g>
<!-- Node13 -->
<g id="Node000013" class="node">
<title>Node13</title>
<g id="a_Node000013"><a xlink:href="class_t_m_c2130_stepper.html#a8e7d22e8bc39e89b4a02ad1460e4cf25" target="_top" xlink:title=" ">
<polygon fill="white" stroke="#666666" points="304.25,-167.25 174.25,-167.25 174.25,-148 304.25,-148 304.25,-167.25"/>
<text text-anchor="middle" x="239.25" y="-153.75" font-family="Helvetica,sans-Serif" font-size="10.00">TMC2130Stepper::THIGH</text>
</a>
</g>
</g>
<!-- Node1&#45;&gt;Node13 -->
<g id="edge14_Node000001_Node000013" class="edge">
<title>Node1&#45;&gt;Node13</title>
<g id="a_edge14_Node000001_Node000013"><a xlink:title=" ">
<path fill="none" stroke="#63b8ff" d="M67.81,-258.64C82.03,-239.32 116.15,-196.87 155.5,-175.62 158.05,-174.25 160.69,-172.98 163.4,-171.81"/>
<polygon fill="#63b8ff" stroke="#63b8ff" points="164.61,-175.09 172.72,-168.28 162.13,-168.55 164.61,-175.09"/>
</a>
</g>
</g>
<!-- Node14 -->
<g id="Node000014" class="node">
<title>Node14</title>
<g id="a_Node000014"><a xlink:href="class_t_m_c_stepper.html#a66812c883dfbb6dedc046a011b2564be" target="_top" xlink:title=" ">
<polygon fill="white" stroke="#666666" points="316.25,-130.25 162.25,-130.25 162.25,-111 316.25,-111 316.25,-130.25"/>
<text text-anchor="middle" x="239.25" y="-116.75" font-family="Helvetica,sans-Serif" font-size="10.00">TMCStepper::TPOWERDOWN</text>
</a>
</g>
</g>
<!-- Node1&#45;&gt;Node14 -->
<g id="edge15_Node000001_Node000014" class="edge">
<title>Node1&#45;&gt;Node14</title>
<g id="a_edge15_Node000001_Node000014"><a xlink:title=" ">
<path fill="none" stroke="#63b8ff" d="M64.98,-258.56C75.94,-233.81 107.77,-169.73 155.5,-138.62 157.35,-137.42 159.26,-136.3 161.23,-135.25"/>
<polygon fill="#63b8ff" stroke="#63b8ff" points="162.43,-138.55 170.07,-131.21 159.52,-132.18 162.43,-138.55"/>
</a>
</g>
</g>
<!-- Node15 -->
<g id="Node000015" class="node">
<title>Node15</title>
<g id="a_Node000015"><a xlink:href="class_t_m_c_stepper.html#ac59a9305aafc64a63698a34cac404788" target="_top" xlink:title=" ">
<polygon fill="white" stroke="#666666" points="307.25,-93.25 171.25,-93.25 171.25,-74 307.25,-74 307.25,-93.25"/>
<text text-anchor="middle" x="239.25" y="-79.75" font-family="Helvetica,sans-Serif" font-size="10.00">TMCStepper::TPWMTHRS</text>
</a>
</g>
</g>
<!-- Node1&#45;&gt;Node15 -->
<g id="edge16_Node000001_Node000015" class="edge">
<title>Node1&#45;&gt;Node15</title>
<g id="a_edge16_Node000001_Node000015"><a xlink:title=" ">
<path fill="none" stroke="#63b8ff" d="M63.25,-258.82C71.22,-229.73 98.85,-143.32 155.5,-101.62 157.28,-100.32 159.13,-99.1 161.04,-97.97"/>
<polygon fill="#63b8ff" stroke="#63b8ff" points="162.29,-101.26 169.69,-93.67 159.18,-94.99 162.29,-101.26"/>
</a>
</g>
</g>
<!-- Node16 -->
<g id="Node000016" class="node">
<title>Node16</title>
<g id="a_Node000016"><a xlink:href="class_t_m_c2130_stepper.html#a4389f7f07c57d2267351b781c6031fb4" target="_top" xlink:title=" ">
<polygon fill="white" stroke="#666666" points="308.75,-56.25 169.75,-56.25 169.75,-37 308.75,-37 308.75,-56.25"/>
<text text-anchor="middle" x="239.25" y="-42.75" font-family="Helvetica,sans-Serif" font-size="10.00">TMC2130Stepper::VDCMIN</text>
</a>
</g>
</g>
<!-- Node1&#45;&gt;Node16 -->
<g id="edge17_Node000001_Node000016" class="edge">
<title>Node1&#45;&gt;Node16</title>
<g id="a_edge17_Node000001_Node000016"><a xlink:title=" ">
<path fill="none" stroke="#63b8ff" d="M62.22,-258.64C67.68,-225.32 89.96,-117.1 155.5,-64.62 156.83,-63.56 158.2,-62.56 159.62,-61.61"/>
<polygon fill="#63b8ff" stroke="#63b8ff" points="161.13,-64.78 168.19,-56.87 157.74,-58.65 161.13,-64.78"/>
</a>
</g>
</g>
<!-- Node17 -->
<g id="Node000017" class="node">
<title>Node17</title>
<g id="a_Node000017"><a xlink:href="class_t_m_c2130_stepper.html#af486cd4712be021c735fc3bcb8eee9f5" target="_top" xlink:title=" ">
<polygon fill="white" stroke="#666666" points="311,-19.25 167.5,-19.25 167.5,0 311,0 311,-19.25"/>
<text text-anchor="middle" x="239.25" y="-5.75" font-family="Helvetica,sans-Serif" font-size="10.00">TMC2130Stepper::XDIRECT</text>
</a>
</g>
</g>
<!-- Node1&#45;&gt;Node17 -->
<g id="edge18_Node000001_Node000017" class="edge">
<title>Node1&#45;&gt;Node17</title>
<g id="a_edge18_Node000001_Node000017"><a xlink:title=" ">
<path fill="none" stroke="#63b8ff" d="M61.44,-258.72C64.56,-221.84 80.7,-91.3 155.5,-27.62 156.31,-26.94 157.14,-26.27 157.98,-25.63"/>
<polygon fill="#63b8ff" stroke="#63b8ff" points="159.72,-28.67 166.39,-20.44 156.05,-22.72 159.72,-28.67"/>
</a>
</g>
</g>
<!-- Node3 -->
<g id="Node000003" class="node">
<title>Node3</title>
<g id="a_Node000003"><a xlink:href="class_t_m_c2130_stepper.html#aed0175bff6e80ebc14e0d2606283cbe0" target="_top" xlink:title=" ">
<polygon fill="white" stroke="#666666" points="476.25,-438.25 359,-438.25 359,-419 476.25,-419 476.25,-438.25"/>
<text text-anchor="middle" x="417.62" y="-424.75" font-family="Helvetica,sans-Serif" font-size="10.00">TMC2130Stepper::read</text>
</a>
</g>
</g>
<!-- Node2&#45;&gt;Node3 -->
<g id="edge2_Node000002_Node000003" class="edge">
<title>Node2&#45;&gt;Node3</title>
<g id="a_edge2_Node000002_Node000003"><a xlink:title=" ">
<path fill="none" stroke="#63b8ff" d="M304.38,-529.54C310.86,-527.39 317.19,-524.79 323,-521.62 356.71,-503.29 386.38,-469.14 402.87,-447.72"/>
<polygon fill="#63b8ff" stroke="#63b8ff" points="405.59,-449.93 408.77,-439.82 399.98,-445.74 405.59,-449.93"/>
</a>
</g>
</g>
<!-- Node5&#45;&gt;Node3 -->
<g id="edge5_Node000005_Node000003" class="edge">
<title>Node5&#45;&gt;Node3</title>
<g id="a_edge5_Node000005_Node000003"><a xlink:title=" ">
<path fill="none" stroke="#63b8ff" d="M288.45,-455.51C309.74,-451.05 334.97,-445.75 357.4,-441.05"/>
<polygon fill="#63b8ff" stroke="#63b8ff" points="357.94,-444.51 367.01,-439.03 356.5,-437.66 357.94,-444.51"/>
</a>
</g>
</g>
<!-- Node7&#45;&gt;Node3 -->
<g id="edge8_Node000007_Node000003" class="edge">
<title>Node7&#45;&gt;Node3</title>
<g id="a_edge8_Node000007_Node000003"><a xlink:title=" ">
<path fill="none" stroke="#63b8ff" d="M288.45,-401.74C309.74,-406.2 334.97,-411.5 357.4,-416.2"/>
<polygon fill="#63b8ff" stroke="#63b8ff" points="356.5,-419.59 367.01,-418.22 357.94,-412.74 356.5,-419.59"/>
</a>
</g>
</g>
<!-- Node17&#45;&gt;Node3 -->
<g id="edge19_Node000017_Node000003" class="edge">
<title>Node17&#45;&gt;Node3</title>
<g id="a_edge19_Node000017_Node000003"><a xlink:title=" ">
<path fill="none" stroke="#63b8ff" d="M311.36,-19.05C315.6,-21.39 319.54,-24.22 323,-27.62 378.37,-82.16 407.22,-333.31 414.66,-407.77"/>
<polygon fill="#63b8ff" stroke="#63b8ff" points="411.14,-407.72 415.59,-417.34 418.11,-407.04 411.14,-407.72"/>
</a>
</g>
</g>
</g>
</svg>
