<?xml version="1.0" encoding="UTF-8" standalone="no"?>
<!DOCTYPE svg PUBLIC "-//W3C//DTD SVG 1.1//EN"
 "http://www.w3.org/Graphics/SVG/1.1/DTD/svg11.dtd">
<!-- Generated by graphviz version 12.2.1 (20241206.2353)
 -->
<!-- Title: TMC2240Stepper::TBL Pages: 1 -->
<svg width="277pt" height="45pt"
 viewBox="0.00 0.00 277.00 45.25" xmlns="http://www.w3.org/2000/svg" xmlns:xlink="http://www.w3.org/1999/xlink">
<g id="graph0" class="graph" transform="scale(1 1) rotate(0) translate(4 41.25)">
<title>TMC2240Stepper::TBL</title>
<!-- Node1 -->
<g id="Node000001" class="node">
<title>Node1</title>
<g id="a_Node000001"><a xlink:title=" ">
<polygon fill="#999999" stroke="#666666" points="269,-19.25 152.5,-19.25 152.5,0 269,0 269,-19.25"/>
<text text-anchor="middle" x="210.75" y="-5.75" font-family="Helvetica,sans-Serif" font-size="10.00">TMC2240Stepper::TBL</text>
</a>
</g>
</g>
<!-- Node1&#45;&gt;Node1 -->
<g id="edge2_Node000001_Node000001" class="edge">
<title>Node1&#45;&gt;Node1</title>
<g id="a_edge2_Node000001_Node000001"><a xlink:title=" ">
<path fill="none" stroke="#63b8ff" d="M238.09,-30.32C234.94,-34.37 225.83,-37.25 210.75,-37.25 183.94,-37.25 175.99,-28.15 186.88,-19.54"/>
<polygon fill="#63b8ff" stroke="#63b8ff" points="241.48,-29.42 235.09,-20.98 234.82,-31.57 241.48,-29.42"/>
</a>
</g>
</g>
<!-- Node2 -->
<g id="Node000002" class="node">
<title>Node2</title>
<g id="a_Node000002"><a xlink:href="class_t_m_c2240_stepper.html#a75216c89a2ac6b164afd2a9462c1e3d8" target="_top" xlink:title=" ">
<polygon fill="white" stroke="#666666" points="116.5,-19.25 0,-19.25 0,0 116.5,0 116.5,-19.25"/>
<text text-anchor="middle" x="58.25" y="-5.75" font-family="Helvetica,sans-Serif" font-size="10.00">TMC2240Stepper::TBL</text>
</a>
</g>
</g>
<!-- Node1&#45;&gt;Node2 -->
<g id="edge1_Node000001_Node000002" class="edge">
<title>Node1&#45;&gt;Node2</title>
<g id="a_edge1_Node000001_Node000002"><a xlink:title=" ">
<path fill="none" stroke="#63b8ff" d="M141.1,-9.62C133.02,-9.62 124.83,-9.62 116.92,-9.62"/>
<polygon fill="#63b8ff" stroke="#63b8ff" points="140.91,-13.13 150.91,-9.63 140.91,-6.13 140.91,-13.13"/>
</a>
</g>
</g>
</g>
</svg>
