<?xml version="1.0" encoding="UTF-8" standalone="no"?>
<!DOCTYPE svg PUBLIC "-//W3C//DTD SVG 1.1//EN"
 "http://www.w3.org/Graphics/SVG/1.1/DTD/svg11.dtd">
<!-- Generated by graphviz version 12.2.1 (20241206.2353)
 -->
<!-- Title: TMC5130Stepper::VSTART Pages: 1 -->
<svg width="301pt" height="113pt"
 viewBox="0.00 0.00 301.00 112.88" xmlns="http://www.w3.org/2000/svg" xmlns:xlink="http://www.w3.org/1999/xlink">
<g id="graph0" class="graph" transform="scale(1 1) rotate(0) translate(4 108.88)">
<title>TMC5130Stepper::VSTART</title>
<!-- Node1 -->
<g id="Node000001" class="node">
<title>Node1</title>
<g id="a_Node000001"><a xlink:title=" ">
<polygon fill="#999999" stroke="#666666" points="293,-56.25 155.5,-56.25 155.5,-37 293,-37 293,-56.25"/>
<text text-anchor="middle" x="224.25" y="-42.75" font-family="Helvetica,sans-Serif" font-size="10.00">TMC5130Stepper::VSTART</text>
</a>
</g>
</g>
<!-- Node2 -->
<g id="Node000002" class="node">
<title>Node2</title>
<g id="a_Node000002"><a xlink:href="class_t_m_c5130_stepper.html#a49f4350a49793194b01277c2583cc857" target="_top" xlink:title=" ">
<polygon fill="white" stroke="#666666" points="118.75,-104.88 0.75,-104.88 0.75,-74.38 118.75,-74.38 118.75,-104.88"/>
<text text-anchor="start" x="8.75" y="-91.38" font-family="Helvetica,sans-Serif" font-size="10.00">TMC5130Stepper::INIT</text>
<text text-anchor="middle" x="59.75" y="-80.12" font-family="Helvetica,sans-Serif" font-size="10.00">_REGISTER</text>
</a>
</g>
</g>
<!-- Node1&#45;&gt;Node2 -->
<g id="edge1_Node000001_Node000002" class="edge">
<title>Node1&#45;&gt;Node2</title>
<g id="a_edge1_Node000001_Node000002"><a xlink:title=" ">
<path fill="none" stroke="#63b8ff" d="M174.11,-59.63C156.74,-64.23 137.03,-69.44 118.97,-74.22"/>
<polygon fill="#63b8ff" stroke="#63b8ff" points="174.92,-63.04 183.69,-57.09 173.13,-56.27 174.92,-63.04"/>
</a>
</g>
</g>
<!-- Node3 -->
<g id="Node000003" class="node">
<title>Node3</title>
<g id="a_Node000003"><a xlink:href="class_t_m_c5130_stepper.html#a55e61f5181d74f26c9d35c54e4436d7a" target="_top" xlink:title=" ">
<polygon fill="white" stroke="#666666" points="119.5,-56.25 0,-56.25 0,-37 119.5,-37 119.5,-56.25"/>
<text text-anchor="middle" x="59.75" y="-42.75" font-family="Helvetica,sans-Serif" font-size="10.00">TMC5130Stepper::push</text>
</a>
</g>
</g>
<!-- Node1&#45;&gt;Node3 -->
<g id="edge2_Node000001_Node000003" class="edge">
<title>Node1&#45;&gt;Node3</title>
<g id="a_edge2_Node000001_Node000003"><a xlink:title=" ">
<path fill="none" stroke="#63b8ff" d="M143.91,-46.62C135.84,-46.62 127.74,-46.62 119.93,-46.62"/>
<polygon fill="#63b8ff" stroke="#63b8ff" points="143.76,-50.13 153.76,-46.63 143.76,-43.13 143.76,-50.13"/>
</a>
</g>
</g>
<!-- Node4 -->
<g id="Node000004" class="node">
<title>Node4</title>
<g id="a_Node000004"><a xlink:href="class_t_m_c5160_stepper.html#a5a12974304588f9d01898d91ba854b87" target="_top" xlink:title=" ">
<polygon fill="white" stroke="#666666" points="119.5,-19.25 0,-19.25 0,0 119.5,0 119.5,-19.25"/>
<text text-anchor="middle" x="59.75" y="-5.75" font-family="Helvetica,sans-Serif" font-size="10.00">TMC5160Stepper::push</text>
</a>
</g>
</g>
<!-- Node1&#45;&gt;Node4 -->
<g id="edge3_Node000001_Node000004" class="edge">
<title>Node1&#45;&gt;Node4</title>
<g id="a_edge3_Node000001_Node000004"><a xlink:title=" ">
<path fill="none" stroke="#63b8ff" d="M167.77,-33.99C147.32,-29.34 124.44,-24.13 105.1,-19.72"/>
<polygon fill="#63b8ff" stroke="#63b8ff" points="166.84,-37.37 177.37,-36.18 168.4,-30.55 166.84,-37.37"/>
</a>
</g>
</g>
</g>
</svg>
