<?xml version="1.0" encoding="UTF-8" standalone="no"?>
<!DOCTYPE svg PUBLIC "-//W3C//DTD SVG 1.1//EN"
 "http://www.w3.org/Graphics/SVG/1.1/DTD/svg11.dtd">
<!-- Generated by graphviz version 12.2.1 (20241206.2353)
 -->
<!-- Title: TMC2208Stepper::IOIN Pages: 1 -->
<svg width="702pt" height="187pt"
 viewBox="0.00 0.00 702.00 187.25" xmlns="http://www.w3.org/2000/svg" xmlns:xlink="http://www.w3.org/1999/xlink">
<g id="graph0" class="graph" transform="scale(1 1) rotate(0) translate(4 183.25)">
<title>TMC2208Stepper::IOIN</title>
<!-- Node1 -->
<g id="Node000001" class="node">
<title>Node1</title>
<g id="a_Node000001"><a xlink:title=" ">
<polygon fill="#999999" stroke="#666666" points="119.5,-83.25 0,-83.25 0,-64 119.5,-64 119.5,-83.25"/>
<text text-anchor="middle" x="59.75" y="-69.75" font-family="Helvetica,sans-Serif" font-size="10.00">TMC2208Stepper::IOIN</text>
</a>
</g>
</g>
<!-- Node2 -->
<g id="Node000002" class="node">
<title>Node2</title>
<g id="a_Node000002"><a xlink:href="class_t_m_c2208_stepper.html#a2fae2050849c3ab7968012def8ea1cc5" target="_top" xlink:title=" ">
<polygon fill="white" stroke="#666666" points="272.75,-83.25 155.5,-83.25 155.5,-64 272.75,-64 272.75,-83.25"/>
<text text-anchor="middle" x="214.12" y="-69.75" font-family="Helvetica,sans-Serif" font-size="10.00">TMC2208Stepper::read</text>
</a>
</g>
</g>
<!-- Node1&#45;&gt;Node2 -->
<g id="edge1_Node000001_Node000002" class="edge">
<title>Node1&#45;&gt;Node2</title>
<g id="a_edge1_Node000001_Node000002"><a xlink:title=" ">
<path fill="none" stroke="#63b8ff" d="M119.66,-73.62C127.57,-73.62 135.75,-73.62 143.82,-73.62"/>
<polygon fill="#63b8ff" stroke="#63b8ff" points="143.61,-77.13 153.61,-73.63 143.61,-70.13 143.61,-77.13"/>
</a>
</g>
</g>
<!-- Node3 -->
<g id="Node000003" class="node">
<title>Node3</title>
<g id="a_Node000003"><a xlink:href="class_t_m_c2208_stepper.html#a321ad81155b7a20c0858920d32d0b074" target="_top" xlink:title=" ">
<polygon fill="white" stroke="#666666" points="494.25,-142.25 326.75,-142.25 326.75,-123 494.25,-123 494.25,-142.25"/>
<text text-anchor="middle" x="410.5" y="-128.75" font-family="Helvetica,sans-Serif" font-size="10.00">TMC2208Stepper::_sendDatagram</text>
</a>
</g>
</g>
<!-- Node2&#45;&gt;Node3 -->
<g id="edge2_Node000002_Node000003" class="edge">
<title>Node2&#45;&gt;Node3</title>
<g id="a_edge2_Node000002_Node000003"><a xlink:title=" ">
<path fill="none" stroke="#63b8ff" d="M234.34,-83.65C252.92,-92.94 282.09,-106.53 308.75,-114.62 315.39,-116.64 322.35,-118.46 329.37,-120.1"/>
<polygon fill="#63b8ff" stroke="#63b8ff" points="328.43,-123.47 338.95,-122.2 329.93,-116.64 328.43,-123.47"/>
</a>
</g>
</g>
<!-- Node7 -->
<g id="Node000007" class="node">
<title>Node7</title>
<g id="a_Node000007"><a xlink:href="class_t_m_c2208_stepper.html#a409c19fa6b052a370a317d061bf9af4e" target="_top" xlink:title=" ">
<polygon fill="white" stroke="#666666" points="480,-105.25 341,-105.25 341,-86 480,-86 480,-105.25"/>
<text text-anchor="middle" x="410.5" y="-91.75" font-family="Helvetica,sans-Serif" font-size="10.00">TMC2208Stepper::calcCRC</text>
</a>
</g>
</g>
<!-- Node2&#45;&gt;Node7 -->
<g id="edge6_Node000002_Node000007" class="edge">
<title>Node2&#45;&gt;Node7</title>
<g id="a_edge6_Node000002_Node000007"><a xlink:title=" ">
<path fill="none" stroke="#63b8ff" d="M273.18,-80.2C290.87,-82.2 310.62,-84.43 329.49,-86.57"/>
<polygon fill="#63b8ff" stroke="#63b8ff" points="328.95,-90.03 339.28,-87.68 329.74,-83.07 328.95,-90.03"/>
</a>
</g>
</g>
<!-- Node8 -->
<g id="Node000008" class="node">
<title>Node8</title>
<g id="a_Node000008"><a xlink:href="class_t_m_c2208_stepper.html#ab3d186b27f45ec47c1cf0bf15ed4cd2e" target="_top" xlink:title=" ">
<polygon fill="white" stroke="#666666" points="480.75,-67.88 340.25,-67.88 340.25,-37.38 480.75,-37.38 480.75,-67.88"/>
<text text-anchor="start" x="348.25" y="-54.38" font-family="Helvetica,sans-Serif" font-size="10.00">TMC2208Stepper::postRead</text>
<text text-anchor="middle" x="410.5" y="-43.12" font-family="Helvetica,sans-Serif" font-size="10.00">Communication</text>
</a>
</g>
</g>
<!-- Node2&#45;&gt;Node8 -->
<g id="edge7_Node000002_Node000008" class="edge">
<title>Node2&#45;&gt;Node8</title>
<g id="a_edge7_Node000002_Node000008"><a xlink:title=" ">
<path fill="none" stroke="#63b8ff" d="M273.18,-67.35C290.68,-65.46 310.21,-63.35 328.9,-61.33"/>
<polygon fill="#63b8ff" stroke="#63b8ff" points="329.02,-64.84 338.58,-60.29 328.26,-57.88 329.02,-64.84"/>
</a>
</g>
</g>
<!-- Node9 -->
<g id="Node000009" class="node">
<title>Node9</title>
<g id="a_Node000009"><a xlink:href="class_t_m_c2208_stepper.html#a8c4f3ce4a964c9a03a1e14f47bf5bec3" target="_top" xlink:title=" ">
<polygon fill="white" stroke="#666666" points="512.25,-19.25 308.75,-19.25 308.75,0 512.25,0 512.25,-19.25"/>
<text text-anchor="middle" x="410.5" y="-5.75" font-family="Helvetica,sans-Serif" font-size="10.00">TMC2208Stepper::preReadCommunication</text>
</a>
</g>
</g>
<!-- Node2&#45;&gt;Node9 -->
<g id="edge8_Node000002_Node000009" class="edge">
<title>Node2&#45;&gt;Node9</title>
<g id="a_edge8_Node000002_Node000009"><a xlink:title=" ">
<path fill="none" stroke="#63b8ff" d="M232.5,-63.57C250.87,-53.34 280.99,-37.74 308.75,-28.62 316.05,-26.23 323.75,-24.1 331.51,-22.22"/>
<polygon fill="#63b8ff" stroke="#63b8ff" points="332.04,-25.69 341.01,-20.05 330.48,-18.86 332.04,-25.69"/>
</a>
</g>
</g>
<!-- Node4 -->
<g id="Node000004" class="node">
<title>Node4</title>
<g id="a_Node000004"><a xlink:href="class_t_m_c2208_stepper.html#aef33fe13c1d9c19e9ec9abc159147a5d" target="_top" xlink:title=" ">
<polygon fill="white" stroke="#666666" points="689.5,-179.25 552.75,-179.25 552.75,-160 689.5,-160 689.5,-179.25"/>
<text text-anchor="middle" x="621.12" y="-165.75" font-family="Helvetica,sans-Serif" font-size="10.00">TMC2208Stepper::available</text>
</a>
</g>
</g>
<!-- Node3&#45;&gt;Node4 -->
<g id="edge3_Node000003_Node000004" class="edge">
<title>Node3&#45;&gt;Node4</title>
<g id="a_edge3_Node000003_Node000004"><a xlink:title=" ">
<path fill="none" stroke="#63b8ff" d="M468.51,-142.74C494.27,-147.3 524.91,-152.74 551.88,-157.52"/>
<polygon fill="#63b8ff" stroke="#63b8ff" points="551.24,-160.96 561.7,-159.26 552.46,-154.07 551.24,-160.96"/>
</a>
</g>
</g>
<!-- Node5 -->
<g id="Node000005" class="node">
<title>Node5</title>
<g id="a_Node000005"><a xlink:href="class_t_m_c2208_stepper.html#a8214f87693050e222fc24be979f468e2" target="_top" xlink:title=" ">
<polygon fill="white" stroke="#666666" points="694,-142.25 548.25,-142.25 548.25,-123 694,-123 694,-142.25"/>
<text text-anchor="middle" x="621.12" y="-128.75" font-family="Helvetica,sans-Serif" font-size="10.00">TMC2208Stepper::serial_read</text>
</a>
</g>
</g>
<!-- Node3&#45;&gt;Node5 -->
<g id="edge4_Node000003_Node000005" class="edge">
<title>Node3&#45;&gt;Node5</title>
<g id="a_edge4_Node000003_Node000005"><a xlink:title=" ">
<path fill="none" stroke="#63b8ff" d="M494.55,-132.62C508.31,-132.62 522.59,-132.62 536.37,-132.62"/>
<polygon fill="#63b8ff" stroke="#63b8ff" points="536.29,-136.13 546.29,-132.63 536.29,-129.13 536.29,-136.13"/>
</a>
</g>
</g>
<!-- Node6 -->
<g id="Node000006" class="node">
<title>Node6</title>
<g id="a_Node000006"><a xlink:href="class_t_m_c2208_stepper.html#adb6243277ef84d2027b2b8bae6be5bd0" target="_top" xlink:title=" ">
<polygon fill="white" stroke="#666666" points="682,-104.88 560.25,-104.88 560.25,-74.38 682,-74.38 682,-104.88"/>
<text text-anchor="start" x="568.25" y="-91.38" font-family="Helvetica,sans-Serif" font-size="10.00">TMC2208Stepper::serial</text>
<text text-anchor="middle" x="621.12" y="-80.12" font-family="Helvetica,sans-Serif" font-size="10.00">_write</text>
</a>
</g>
</g>
<!-- Node3&#45;&gt;Node6 -->
<g id="edge5_Node000003_Node000006" class="edge">
<title>Node3&#45;&gt;Node6</title>
<g id="a_edge5_Node000003_Node000006"><a xlink:title=" ">
<path fill="none" stroke="#63b8ff" d="M471,-122.51C484.58,-120.06 498.93,-117.36 512.25,-114.62 524.07,-112.2 536.59,-109.46 548.74,-106.71"/>
<polygon fill="#63b8ff" stroke="#63b8ff" points="549.32,-110.16 558.29,-104.52 547.76,-103.34 549.32,-110.16"/>
</a>
</g>
</g>
</g>
</svg>
