<?xml version="1.0" encoding="UTF-8" standalone="no"?>
<!DOCTYPE svg PUBLIC "-//W3C//DTD SVG 1.1//EN"
 "http://www.w3.org/Graphics/SVG/1.1/DTD/svg11.dtd">
<!-- Generated by graphviz version 12.2.1 (20241206.2353)
 -->
<!-- Title: TMC2240Stepper::get_chip_temperature Pages: 1 -->
<svg width="463pt" height="39pt"
 viewBox="0.00 0.00 462.50 38.50" xmlns="http://www.w3.org/2000/svg" xmlns:xlink="http://www.w3.org/1999/xlink">
<g id="graph0" class="graph" transform="scale(1 1) rotate(0) translate(4 34.5)">
<title>TMC2240Stepper::get_chip_temperature</title>
<!-- Node1 -->
<g id="Node000001" class="node">
<title>Node1</title>
<g id="a_Node000001"><a xlink:title=" ">
<polygon fill="#999999" stroke="#666666" points="112,-30.5 0,-30.5 0,0 112,0 112,-30.5"/>
<text text-anchor="start" x="8" y="-17" font-family="Helvetica,sans-Serif" font-size="10.00">TMC2240Stepper::get</text>
<text text-anchor="middle" x="56" y="-5.75" font-family="Helvetica,sans-Serif" font-size="10.00">_chip_temperature</text>
</a>
</g>
</g>
<!-- Node2 -->
<g id="Node000002" class="node">
<title>Node2</title>
<g id="a_Node000002"><a xlink:href="class_t_m_c2240_stepper.html#ad355bf396c8a7c38ba21e368917ae5d6" target="_top" xlink:title=" ">
<polygon fill="white" stroke="#666666" points="301.25,-24.88 148,-24.88 148,-5.63 301.25,-5.63 301.25,-24.88"/>
<text text-anchor="middle" x="224.62" y="-11.38" font-family="Helvetica,sans-Serif" font-size="10.00">TMC2240Stepper::ADC_TEMP</text>
</a>
</g>
</g>
<!-- Node1&#45;&gt;Node2 -->
<g id="edge1_Node000001_Node000002" class="edge">
<title>Node1&#45;&gt;Node2</title>
<g id="a_edge1_Node000001_Node000002"><a xlink:title=" ">
<path fill="none" stroke="#63b8ff" d="M112.48,-15.25C120.14,-15.25 128.15,-15.25 136.22,-15.25"/>
<polygon fill="#63b8ff" stroke="#63b8ff" points="136.1,-18.75 146.1,-15.25 136.1,-11.75 136.1,-18.75"/>
</a>
</g>
</g>
<!-- Node3 -->
<g id="Node000003" class="node">
<title>Node3</title>
<g id="a_Node000003"><a xlink:href="class_t_m_c2240_stepper.html#ab9de5d1aad8b0a998557ef85de765df9" target="_top" xlink:title=" ">
<polygon fill="white" stroke="#666666" points="454.5,-24.88 337.25,-24.88 337.25,-5.63 454.5,-5.63 454.5,-24.88"/>
<text text-anchor="middle" x="395.88" y="-11.38" font-family="Helvetica,sans-Serif" font-size="10.00">TMC2240Stepper::read</text>
</a>
</g>
</g>
<!-- Node2&#45;&gt;Node3 -->
<g id="edge2_Node000002_Node000003" class="edge">
<title>Node2&#45;&gt;Node3</title>
<g id="a_edge2_Node000002_Node000003"><a xlink:title=" ">
<path fill="none" stroke="#63b8ff" d="M301.34,-15.25C309.38,-15.25 317.53,-15.25 325.5,-15.25"/>
<polygon fill="#63b8ff" stroke="#63b8ff" points="325.49,-18.75 335.49,-15.25 325.49,-11.75 325.49,-18.75"/>
</a>
</g>
</g>
</g>
</svg>
