<?xml version="1.0" encoding="UTF-8" standalone="no"?>
<!DOCTYPE svg PUBLIC "-//W3C//DTD SVG 1.1//EN"
 "http://www.w3.org/Graphics/SVG/1.1/DTD/svg11.dtd">
<!-- Generated by graphviz version 12.2.1 (20241206.2353)
 -->
<!-- Title: TMCStepper::rms_current Pages: 1 -->
<svg width="428pt" height="82pt"
 viewBox="0.00 0.00 428.00 82.25" xmlns="http://www.w3.org/2000/svg" xmlns:xlink="http://www.w3.org/1999/xlink">

<svg id="main" version="1.1" xmlns="http://www.w3.org/2000/svg" xmlns:xlink="http://www.w3.org/1999/xlink" xml:space="preserve">

<style type="text/css"><![CDATA[
.node, .edge {opacity: 0.7;}
.node.selected, .edge.selected {opacity: 1;}
.edge:hover path { stroke: red; }
.edge:hover polygon { stroke: red; fill: red; }
]]></style>
<script type="application/ecmascript" xlink:href="svg.min.js"/>
<svg id="graph" class="graph">
<g id="graph0" class="graph" transform="scale(1 1) rotate(0) translate(4 78.25)">
<title>TMCStepper::rms_current</title>
<!-- Node1 -->
<g id="Node000001" class="node">
<title>Node1</title>
<g id="a_Node000001"><a xlink:title=" ">
<polygon fill="#999999" stroke="#666666" points="129.25,-46.25 0,-46.25 0,-27 129.25,-27 129.25,-46.25"/>
<text text-anchor="middle" x="64.62" y="-32.75" font-family="Helvetica,sans-Serif" font-size="10.00">TMCStepper::rms_current</text>
</a>
</g>
</g>
<!-- Node2 -->
<g id="Node000002" class="node">
<title>Node2</title>
<g id="a_Node000002"><a xlink:href="class_t_m_c_stepper.html#ae6829e76ae67523a4cb60553dd70fece" target="_top" xlink:title=" ">
<polygon fill="white" stroke="#666666" points="275,-69.25 165.25,-69.25 165.25,-50 275,-50 275,-69.25"/>
<text text-anchor="middle" x="220.12" y="-55.75" font-family="Helvetica,sans-Serif" font-size="10.00">TMCStepper::cs2rms</text>
</a>
</g>
</g>
<!-- Node1&#45;&gt;Node2 -->
<g id="edge1_Node000001_Node000002" class="edge">
<title>Node1&#45;&gt;Node2</title>
<g id="a_edge1_Node000001_Node000002"><a xlink:title=" ">
<path fill="none" stroke="#63b8ff" d="M129.39,-46.18C137.45,-47.39 145.71,-48.62 153.8,-49.84"/>
<polygon fill="#63b8ff" stroke="#63b8ff" points="153.17,-53.28 163.58,-51.3 154.21,-46.36 153.17,-53.28"/>
</a>
</g>
</g>
<!-- Node4 -->
<g id="Node000004" class="node">
<title>Node4</title>
<g id="a_Node000004"><a xlink:href="class_t_m_c_stepper.html#a89f965f7d005e189ef27951f37e699f2" target="_top" xlink:title=" ">
<polygon fill="white" stroke="#666666" points="266.75,-28.25 173.5,-28.25 173.5,-9 266.75,-9 266.75,-28.25"/>
<text text-anchor="middle" x="220.12" y="-14.75" font-family="Helvetica,sans-Serif" font-size="10.00">TMCStepper::irun</text>
</a>
</g>
</g>
<!-- Node1&#45;&gt;Node4 -->
<g id="edge3_Node000001_Node000004" class="edge">
<title>Node1&#45;&gt;Node4</title>
<g id="a_edge3_Node000001_Node000004"><a xlink:title=" ">
<path fill="none" stroke="#63b8ff" d="M129.39,-29.15C140.16,-27.89 151.28,-26.58 161.86,-25.34"/>
<polygon fill="#63b8ff" stroke="#63b8ff" points="162.08,-28.84 171.6,-24.2 161.26,-21.89 162.08,-28.84"/>
</a>
</g>
</g>
<!-- Node3 -->
<g id="Node000003" class="node">
<title>Node3</title>
<g id="a_Node000003"><a xlink:href="class_t_m_c_stepper.html#ab4366bc26a0f6a4bb1c6c33da5919238" target="_top" xlink:title=" ">
<polygon fill="white" stroke="#666666" points="420,-74.25 311,-74.25 311,-55 420,-55 420,-74.25"/>
<text text-anchor="middle" x="365.5" y="-60.75" font-family="Helvetica,sans-Serif" font-size="10.00">TMCStepper::vsense</text>
</a>
</g>
</g>
<!-- Node2&#45;&gt;Node3 -->
<g id="edge2_Node000002_Node000003" class="edge">
<title>Node2&#45;&gt;Node3</title>
<g id="a_edge2_Node000002_Node000003"><a xlink:title=" ">
<path fill="none" stroke="#63b8ff" d="M275.33,-61.52C283.2,-61.79 291.37,-62.07 299.42,-62.36"/>
<polygon fill="#63b8ff" stroke="#63b8ff" points="299.07,-65.85 309.18,-62.7 299.31,-58.85 299.07,-65.85"/>
</a>
</g>
</g>
<!-- Node5 -->
<g id="Node000005" class="node">
<title>Node5</title>
<g id="a_Node000005"><a xlink:href="class_t_m_c_stepper.html#aa82391a803e3103b03fadd9bb597d532" target="_top" xlink:title=" ">
<polygon fill="white" stroke="#666666" points="412.12,-19.25 318.88,-19.25 318.88,0 412.12,0 412.12,-19.25"/>
<text text-anchor="middle" x="365.5" y="-5.75" font-family="Helvetica,sans-Serif" font-size="10.00">TMCStepper::irun</text>
</a>
</g>
</g>
<!-- Node4&#45;&gt;Node5 -->
<g id="edge4_Node000004_Node000005" class="edge">
<title>Node4&#45;&gt;Node5</title>
<g id="a_edge4_Node000004_Node000005"><a xlink:title=" ">
<path fill="none" stroke="#63b8ff" d="M266.88,-15.75C279.82,-14.94 294.05,-14.05 307.56,-13.2"/>
<polygon fill="#63b8ff" stroke="#63b8ff" points="307.41,-16.72 317.17,-12.6 306.97,-9.73 307.41,-16.72"/>
</a>
</g>
</g>
<!-- Node5&#45;&gt;Node5 -->
<g id="edge5_Node000005_Node000005" class="edge">
<title>Node5&#45;&gt;Node5</title>
<g id="a_edge5_Node000005_Node000005"><a xlink:title=" ">
<path fill="none" stroke="#63b8ff" d="M342.74,-19.54C332.36,-28.15 339.95,-37.25 365.5,-37.25 379.87,-37.25 388.56,-34.37 391.57,-30.32"/>
<polygon fill="#63b8ff" stroke="#63b8ff" points="394.98,-29.52 388.7,-20.99 388.29,-31.57 394.98,-29.52"/>
</a>
</g>
</g>
</g>
</svg>
</svg>

<style type='text/css'>
<![CDATA[
[data-mouse-over-selected='false'] { opacity: 0.7; }
[data-mouse-over-selected='true']  { opacity: 1.0; }
]]>
</style>
<script type="application/ecmascript"><![CDATA[
document.addEventListener('DOMContentLoaded', (event) => {
  highlightEdges();
  highlightAdjacentNodes();
});
]]></script>
</svg>
