<?xml version="1.0" encoding="UTF-8" standalone="no"?>
<!DOCTYPE svg PUBLIC "-//W3C//DTD SVG 1.1//EN"
 "http://www.w3.org/Graphics/SVG/1.1/DTD/svg11.dtd">
<!-- Generated by graphviz version 12.2.1 (20241206.2353)
 -->
<!-- Title: TMC2660Stepper::sg_result Pages: 1 -->
<svg width="658pt" height="82pt"
 viewBox="0.00 0.00 657.75 82.25" xmlns="http://www.w3.org/2000/svg" xmlns:xlink="http://www.w3.org/1999/xlink">
<g id="graph0" class="graph" transform="scale(1 1) rotate(0) translate(4 78.25)">
<title>TMC2660Stepper::sg_result</title>
<!-- Node1 -->
<g id="Node000001" class="node">
<title>Node1</title>
<g id="a_Node000001"><a xlink:title=" ">
<polygon fill="#999999" stroke="#666666" points="109,-43.88 0,-43.88 0,-13.37 109,-13.37 109,-43.88"/>
<text text-anchor="start" x="8" y="-30.38" font-family="Helvetica,sans-Serif" font-size="10.00">TMC2660Stepper::sg</text>
<text text-anchor="middle" x="54.5" y="-19.12" font-family="Helvetica,sans-Serif" font-size="10.00">_result</text>
</a>
</g>
</g>
<!-- Node2 -->
<g id="Node000002" class="node">
<title>Node2</title>
<g id="a_Node000002"><a xlink:href="class_t_m_c2660_stepper.html#a124bab76346c3c6c17f812e8c4ad7a5c" target="_top" xlink:title=" ">
<polygon fill="white" stroke="#666666" points="304.25,-19.25 145,-19.25 145,0 304.25,0 304.25,-19.25"/>
<text text-anchor="middle" x="224.62" y="-5.75" font-family="Helvetica,sans-Serif" font-size="10.00">TMC2660Stepper::DRVSTATUS</text>
</a>
</g>
</g>
<!-- Node1&#45;&gt;Node2 -->
<g id="edge1_Node000001_Node000002" class="edge">
<title>Node1&#45;&gt;Node2</title>
<g id="a_edge1_Node000001_Node000002"><a xlink:title=" ">
<path fill="none" stroke="#63b8ff" d="M109.16,-22.56C116.95,-21.68 125.15,-20.75 133.43,-19.82"/>
<polygon fill="#63b8ff" stroke="#63b8ff" points="133.69,-23.31 143.24,-18.71 132.91,-16.35 133.69,-23.31"/>
</a>
</g>
</g>
<!-- Node3 -->
<g id="Node000003" class="node">
<title>Node3</title>
<g id="a_Node000003"><a xlink:href="class_t_m_c2660_stepper.html#a4fa131ecb1e0e0436abff079c44eee5b" target="_top" xlink:title=" ">
<polygon fill="white" stroke="#666666" points="459.75,-56.25 340.25,-56.25 340.25,-37 459.75,-37 459.75,-56.25"/>
<text text-anchor="middle" x="400" y="-42.75" font-family="Helvetica,sans-Serif" font-size="10.00">TMC2660Stepper::rdsel</text>
</a>
</g>
</g>
<!-- Node1&#45;&gt;Node3 -->
<g id="edge7_Node000001_Node000003" class="edge">
<title>Node1&#45;&gt;Node3</title>
<g id="a_edge7_Node000001_Node000003"><a xlink:title=" ">
<path fill="none" stroke="#63b8ff" d="M109.17,-31.44C168.27,-34.53 263.52,-39.53 328.57,-42.93"/>
<polygon fill="#63b8ff" stroke="#63b8ff" points="328.27,-46.42 338.44,-43.45 328.64,-39.43 328.27,-46.42"/>
</a>
</g>
</g>
<!-- Node2&#45;&gt;Node3 -->
<g id="edge2_Node000002_Node000003" class="edge">
<title>Node2&#45;&gt;Node3</title>
<g id="a_edge2_Node000002_Node000003"><a xlink:title=" ">
<path fill="none" stroke="#63b8ff" d="M273,-19.74C293.83,-24.18 318.51,-29.45 340.48,-34.14"/>
<polygon fill="#63b8ff" stroke="#63b8ff" points="339.69,-37.55 350.2,-36.21 341.15,-30.7 339.69,-37.55"/>
</a>
</g>
</g>
<!-- Node5 -->
<g id="Node000005" class="node">
<title>Node5</title>
<g id="a_Node000005"><a xlink:href="class_t_m_c2660_stepper.html#aba43e2af829abee9e029bdd43bde5f61" target="_top" xlink:title=" ">
<polygon fill="white" stroke="#666666" points="458.62,-19.25 341.38,-19.25 341.38,0 458.62,0 458.62,-19.25"/>
<text text-anchor="middle" x="400" y="-5.75" font-family="Helvetica,sans-Serif" font-size="10.00">TMC2660Stepper::read</text>
</a>
</g>
</g>
<!-- Node2&#45;&gt;Node5 -->
<g id="edge5_Node000002_Node000005" class="edge">
<title>Node2&#45;&gt;Node5</title>
<g id="a_edge5_Node000002_Node000005"><a xlink:title=" ">
<path fill="none" stroke="#63b8ff" d="M304.7,-9.62C313.02,-9.62 321.43,-9.62 329.62,-9.62"/>
<polygon fill="#63b8ff" stroke="#63b8ff" points="329.52,-13.13 339.52,-9.63 329.52,-6.13 329.52,-13.13"/>
</a>
</g>
</g>
<!-- Node4 -->
<g id="Node000004" class="node">
<title>Node4</title>
<g id="a_Node000004"><a xlink:href="class_t_m_c2660_stepper.html#a0f6ee76b23deb7f6d5af711d9b9e2452" target="_top" xlink:title=" ">
<polygon fill="white" stroke="#666666" points="632.5,-56.25 513,-56.25 513,-37 632.5,-37 632.5,-56.25"/>
<text text-anchor="middle" x="572.75" y="-42.75" font-family="Helvetica,sans-Serif" font-size="10.00">TMC2660Stepper::rdsel</text>
</a>
</g>
</g>
<!-- Node3&#45;&gt;Node4 -->
<g id="edge3_Node000003_Node000004" class="edge">
<title>Node3&#45;&gt;Node4</title>
<g id="a_edge3_Node000003_Node000004"><a xlink:title=" ">
<path fill="none" stroke="#63b8ff" d="M460.24,-46.62C473.49,-46.62 487.66,-46.62 501.31,-46.62"/>
<polygon fill="#63b8ff" stroke="#63b8ff" points="501.1,-50.13 511.1,-46.63 501.1,-43.13 501.1,-50.13"/>
</a>
</g>
</g>
<!-- Node4&#45;&gt;Node4 -->
<g id="edge4_Node000004_Node000004" class="edge">
<title>Node4&#45;&gt;Node4</title>
<g id="a_edge4_Node000004_Node000004"><a xlink:title=" ">
<path fill="none" stroke="#63b8ff" d="M545.71,-56.54C533.37,-65.15 542.38,-74.25 572.75,-74.25 589.83,-74.25 600.16,-71.37 603.73,-67.32"/>
<polygon fill="#63b8ff" stroke="#63b8ff" points="607.03,-66.16 600.31,-57.96 600.45,-68.55 607.03,-66.16"/>
</a>
</g>
</g>
<!-- Node6 -->
<g id="Node000006" class="node">
<title>Node6</title>
<g id="a_Node000006"><a xlink:href="class_t_m_c2660_stepper.html#a63505ee4078e1f060a2ccecc30f228bd" target="_top" xlink:title=" ">
<polygon fill="white" stroke="#666666" points="649.75,-19.25 495.75,-19.25 495.75,0 649.75,0 649.75,-19.25"/>
<text text-anchor="middle" x="572.75" y="-5.75" font-family="Helvetica,sans-Serif" font-size="10.00">TMC2660Stepper::switchCSpin</text>
</a>
</g>
</g>
<!-- Node5&#45;&gt;Node6 -->
<g id="edge6_Node000005_Node000006" class="edge">
<title>Node5&#45;&gt;Node6</title>
<g id="a_edge6_Node000005_Node000006"><a xlink:title=" ">
<path fill="none" stroke="#63b8ff" d="M458.81,-9.62C467.02,-9.62 475.6,-9.62 484.22,-9.62"/>
<polygon fill="#63b8ff" stroke="#63b8ff" points="484.02,-13.13 494.02,-9.63 484.02,-6.13 484.02,-13.13"/>
</a>
</g>
</g>
</g>
</svg>
