<?xml version="1.0" encoding="UTF-8" standalone="no"?>
<!DOCTYPE svg PUBLIC "-//W3C//DTD SVG 1.1//EN"
 "http://www.w3.org/Graphics/SVG/1.1/DTD/svg11.dtd">
<!-- Generated by graphviz version 12.2.1 (20241206.2353)
 -->
<!-- Title: TMC2240Stepper::INIT2240_REGISTER Pages: 1 -->
<svg width="493pt" height="39pt"
 viewBox="0.00 0.00 492.50 38.50" xmlns="http://www.w3.org/2000/svg" xmlns:xlink="http://www.w3.org/1999/xlink">
<g id="graph0" class="graph" transform="scale(1 1) rotate(0) translate(4 34.5)">
<title>TMC2240Stepper::INIT2240_REGISTER</title>
<!-- Node1 -->
<g id="Node000001" class="node">
<title>Node1</title>
<g id="a_Node000001"><a xlink:title=" ">
<polygon fill="#999999" stroke="#666666" points="139,-30.5 0,-30.5 0,0 139,0 139,-30.5"/>
<text text-anchor="start" x="8" y="-17" font-family="Helvetica,sans-Serif" font-size="10.00">TMC2240Stepper::INIT2240</text>
<text text-anchor="middle" x="69.5" y="-5.75" font-family="Helvetica,sans-Serif" font-size="10.00">_REGISTER</text>
</a>
</g>
</g>
<!-- Node2 -->
<g id="Node000002" class="node">
<title>Node2</title>
<g id="a_Node000002"><a xlink:href="class_t_m_c2240_stepper.html#addfe2192ef83904c049c7e93d5b5fd32" target="_top" xlink:title=" ">
<polygon fill="white" stroke="#666666" points="329,-24.88 175,-24.88 175,-5.63 329,-5.63 329,-24.88"/>
<text text-anchor="middle" x="252" y="-11.38" font-family="Helvetica,sans-Serif" font-size="10.00">TMC2240Stepper::DRV_CONF</text>
</a>
</g>
</g>
<!-- Node1&#45;&gt;Node2 -->
<g id="edge1_Node000001_Node000002" class="edge">
<title>Node1&#45;&gt;Node2</title>
<g id="a_edge1_Node000001_Node000002"><a xlink:title=" ">
<path fill="none" stroke="#63b8ff" d="M139.25,-15.25C147.11,-15.25 155.19,-15.25 163.25,-15.25"/>
<polygon fill="#63b8ff" stroke="#63b8ff" points="163.09,-18.75 173.09,-15.25 163.09,-11.75 163.09,-18.75"/>
</a>
</g>
</g>
<!-- Node3 -->
<g id="Node000003" class="node">
<title>Node3</title>
<g id="a_Node000003"><a xlink:href="class_t_m_c2240_stepper.html#a4538a5802e0a530914e3e05cb8de9c7b" target="_top" xlink:title=" ">
<polygon fill="white" stroke="#666666" points="484.5,-24.88 365,-24.88 365,-5.63 484.5,-5.63 484.5,-24.88"/>
<text text-anchor="middle" x="424.75" y="-11.38" font-family="Helvetica,sans-Serif" font-size="10.00">TMC2240Stepper::write</text>
</a>
</g>
</g>
<!-- Node2&#45;&gt;Node3 -->
<g id="edge2_Node000002_Node000003" class="edge">
<title>Node2&#45;&gt;Node3</title>
<g id="a_edge2_Node000002_Node000003"><a xlink:title=" ">
<path fill="none" stroke="#63b8ff" d="M329.39,-15.25C337.32,-15.25 345.36,-15.25 353.23,-15.25"/>
<polygon fill="#63b8ff" stroke="#63b8ff" points="353.08,-18.75 363.08,-15.25 353.08,-11.75 353.08,-18.75"/>
</a>
</g>
</g>
</g>
</svg>
