<?xml version="1.0" encoding="UTF-8" standalone="no"?>
<!DOCTYPE svg PUBLIC "-//W3C//DTD SVG 1.1//EN"
 "http://www.w3.org/Graphics/SVG/1.1/DTD/svg11.dtd">
<!-- Generated by graphviz version 12.2.1 (20241206.2353)
 -->
<!-- Title: TMC2240Stepper::SG4_RESULT Pages: 1 -->
<svg width="276pt" height="76pt"
 viewBox="0.00 0.00 276.25 75.88" xmlns="http://www.w3.org/2000/svg" xmlns:xlink="http://www.w3.org/1999/xlink">
<g id="graph0" class="graph" transform="scale(1 1) rotate(0) translate(4 71.88)">
<title>TMC2240Stepper::SG4_RESULT</title>
<!-- Node1 -->
<g id="Node000001" class="node">
<title>Node1</title>
<g id="a_Node000001"><a xlink:title=" ">
<polygon fill="#999999" stroke="#666666" points="268.25,-51.5 150.25,-51.5 150.25,-21 268.25,-21 268.25,-51.5"/>
<text text-anchor="start" x="158.25" y="-38" font-family="Helvetica,sans-Serif" font-size="10.00">TMC2240Stepper::SG4</text>
<text text-anchor="middle" x="209.25" y="-26.75" font-family="Helvetica,sans-Serif" font-size="10.00">_RESULT</text>
</a>
</g>
</g>
<!-- Node2 -->
<g id="Node000002" class="node">
<title>Node2</title>
<g id="a_Node000002"><a xlink:href="class_t_m_c2240_stepper.html#a9c6c232485bb7305538ddb52c972c88c" target="_top" xlink:title=" ">
<polygon fill="white" stroke="#666666" points="114.25,-67.88 0,-67.88 0,-48.62 114.25,-48.62 114.25,-67.88"/>
<text text-anchor="middle" x="57.13" y="-54.38" font-family="Helvetica,sans-Serif" font-size="10.00">TMC2240Stepper::sg4</text>
</a>
</g>
</g>
<!-- Node1&#45;&gt;Node2 -->
<g id="edge1_Node000001_Node000002" class="edge">
<title>Node1&#45;&gt;Node2</title>
<g id="a_edge1_Node000001_Node000002"><a xlink:title=" ">
<path fill="none" stroke="#63b8ff" d="M138.57,-46.46C130.58,-47.63 122.5,-48.82 114.71,-49.96"/>
<polygon fill="#63b8ff" stroke="#63b8ff" points="138.89,-49.95 148.28,-45.04 137.88,-43.03 138.89,-49.95"/>
</a>
</g>
</g>
<!-- Node3 -->
<g id="Node000003" class="node">
<title>Node3</title>
<g id="a_Node000003"><a xlink:href="class_t_m_c2240_stepper.html#aff1104b5ea9f9230dc7591d334cce9fc" target="_top" xlink:title=" ">
<polygon fill="white" stroke="#666666" points="114.25,-30.5 0,-30.5 0,0 114.25,0 114.25,-30.5"/>
<text text-anchor="start" x="8" y="-17" font-family="Helvetica,sans-Serif" font-size="10.00">TMC2240Stepper::sg4</text>
<text text-anchor="middle" x="57.13" y="-5.75" font-family="Helvetica,sans-Serif" font-size="10.00">_result</text>
</a>
</g>
</g>
<!-- Node1&#45;&gt;Node3 -->
<g id="edge2_Node000001_Node000003" class="edge">
<title>Node1&#45;&gt;Node3</title>
<g id="a_edge2_Node000001_Node000003"><a xlink:title=" ">
<path fill="none" stroke="#63b8ff" d="M138.57,-26.5C130.58,-25.39 122.5,-24.26 114.71,-23.17"/>
<polygon fill="#63b8ff" stroke="#63b8ff" points="137.89,-29.94 148.28,-27.86 138.86,-23.01 137.89,-29.94"/>
</a>
</g>
</g>
</g>
</svg>
