<?xml version="1.0" encoding="UTF-8" standalone="no"?>
<!DOCTYPE svg PUBLIC "-//W3C//DTD SVG 1.1//EN"
 "http://www.w3.org/Graphics/SVG/1.1/DTD/svg11.dtd">
<!-- Generated by graphviz version 12.2.1 (20241206.2353)
 -->
<!-- Title: Graphical Class Hierarchy Pages: 1 -->
<svg width="722pt" height="101pt"
 viewBox="0.00 0.00 722.00 101.25" xmlns="http://www.w3.org/2000/svg" xmlns:xlink="http://www.w3.org/1999/xlink">
<g id="graph0" class="graph" transform="scale(1 1) rotate(0) translate(4 97.25)">
<title>Graphical Class Hierarchy</title>
<!-- Node0 -->
<g id="Node000000" class="node">
<title>Node0</title>
<g id="a_Node000000"><a xlink:href="class_t_m_c_stepper.html" target="_top" xlink:title=" ">
<polygon fill="white" stroke="#666666" points="71.5,-74.25 0,-74.25 0,-55 71.5,-55 71.5,-74.25"/>
<text text-anchor="middle" x="35.75" y="-60.75" font-family="Helvetica,sans-Serif" font-size="10.00">TMCStepper</text>
</a>
</g>
</g>
<!-- Node1 -->
<g id="Node000001" class="node">
<title>Node1</title>
<g id="a_Node000001"><a xlink:href="class_t_m_c2130_stepper.html" target="_top" xlink:title=" ">
<polygon fill="white" stroke="#666666" points="200,-93.25 107.5,-93.25 107.5,-74 200,-74 200,-93.25"/>
<text text-anchor="middle" x="153.75" y="-79.75" font-family="Helvetica,sans-Serif" font-size="10.00">TMC2130Stepper</text>
</a>
</g>
</g>
<!-- Node0&#45;&gt;Node1 -->
<g id="edge1_Node000000_Node000001" class="edge">
<title>Node0&#45;&gt;Node1</title>
<g id="a_edge1_Node000000_Node000001"><a xlink:title=" ">
<path fill="none" stroke="#63b8ff" d="M83.12,-72.22C91,-73.51 99.17,-74.85 107.03,-76.14"/>
<polygon fill="#63b8ff" stroke="#63b8ff" points="83.8,-68.78 73.36,-70.62 82.66,-75.69 83.8,-68.78"/>
</a>
</g>
</g>
<!-- Node6 -->
<g id="Node000006" class="node">
<title>Node6</title>
<g id="a_Node000006"><a xlink:href="class_t_m_c2208_stepper.html" target="_top" xlink:title=" ">
<polygon fill="white" stroke="#666666" points="200,-56.25 107.5,-56.25 107.5,-37 200,-37 200,-56.25"/>
<text text-anchor="middle" x="153.75" y="-42.75" font-family="Helvetica,sans-Serif" font-size="10.00">TMC2208Stepper</text>
</a>
</g>
</g>
<!-- Node0&#45;&gt;Node6 -->
<g id="edge6_Node000000_Node000006" class="edge">
<title>Node0&#45;&gt;Node6</title>
<g id="a_edge6_Node000000_Node000006"><a xlink:title=" ">
<path fill="none" stroke="#63b8ff" d="M83.12,-57.43C91,-56.21 99.17,-54.94 107.03,-53.72"/>
<polygon fill="#63b8ff" stroke="#63b8ff" points="82.71,-53.95 73.36,-58.94 83.78,-60.87 82.71,-53.95"/>
</a>
</g>
</g>
<!-- Node2 -->
<g id="Node000002" class="node">
<title>Node2</title>
<g id="a_Node000002"><a xlink:href="class_t_m_c2160_stepper.html" target="_top" xlink:title=" ">
<polygon fill="white" stroke="#666666" points="328.5,-93.25 236,-93.25 236,-74 328.5,-74 328.5,-93.25"/>
<text text-anchor="middle" x="282.25" y="-79.75" font-family="Helvetica,sans-Serif" font-size="10.00">TMC2160Stepper</text>
</a>
</g>
</g>
<!-- Node1&#45;&gt;Node2 -->
<g id="edge2_Node000001_Node000002" class="edge">
<title>Node1&#45;&gt;Node2</title>
<g id="a_edge2_Node000001_Node000002"><a xlink:title=" ">
<path fill="none" stroke="#63b8ff" d="M211.92,-83.62C219.87,-83.62 227.95,-83.62 235.65,-83.62"/>
<polygon fill="#63b8ff" stroke="#63b8ff" points="211.93,-80.13 201.93,-83.63 211.93,-87.13 211.93,-80.13"/>
</a>
</g>
</g>
<!-- Node3 -->
<g id="Node000003" class="node">
<title>Node3</title>
<g id="a_Node000003"><a xlink:href="class_t_m_c5130_stepper.html" target="_top" xlink:title=" ">
<polygon fill="white" stroke="#666666" points="457,-93.25 364.5,-93.25 364.5,-74 457,-74 457,-93.25"/>
<text text-anchor="middle" x="410.75" y="-79.75" font-family="Helvetica,sans-Serif" font-size="10.00">TMC5130Stepper</text>
</a>
</g>
</g>
<!-- Node2&#45;&gt;Node3 -->
<g id="edge3_Node000002_Node000003" class="edge">
<title>Node2&#45;&gt;Node3</title>
<g id="a_edge3_Node000002_Node000003"><a xlink:title=" ">
<path fill="none" stroke="#63b8ff" d="M340.42,-83.62C348.37,-83.62 356.45,-83.62 364.15,-83.62"/>
<polygon fill="#63b8ff" stroke="#63b8ff" points="340.43,-80.13 330.43,-83.63 340.43,-87.13 340.43,-80.13"/>
</a>
</g>
</g>
<!-- Node4 -->
<g id="Node000004" class="node">
<title>Node4</title>
<g id="a_Node000004"><a xlink:href="class_t_m_c5160_stepper.html" target="_top" xlink:title=" ">
<polygon fill="white" stroke="#666666" points="585.5,-93.25 493,-93.25 493,-74 585.5,-74 585.5,-93.25"/>
<text text-anchor="middle" x="539.25" y="-79.75" font-family="Helvetica,sans-Serif" font-size="10.00">TMC5160Stepper</text>
</a>
</g>
</g>
<!-- Node3&#45;&gt;Node4 -->
<g id="edge4_Node000003_Node000004" class="edge">
<title>Node3&#45;&gt;Node4</title>
<g id="a_edge4_Node000003_Node000004"><a xlink:title=" ">
<path fill="none" stroke="#63b8ff" d="M468.92,-83.62C476.87,-83.62 484.95,-83.62 492.65,-83.62"/>
<polygon fill="#63b8ff" stroke="#63b8ff" points="468.93,-80.13 458.93,-83.63 468.93,-87.13 468.93,-80.13"/>
</a>
</g>
</g>
<!-- Node5 -->
<g id="Node000005" class="node">
<title>Node5</title>
<g id="a_Node000005"><a xlink:href="class_t_m_c5161_stepper.html" target="_top" xlink:title=" ">
<polygon fill="white" stroke="#666666" points="714,-93.25 621.5,-93.25 621.5,-74 714,-74 714,-93.25"/>
<text text-anchor="middle" x="667.75" y="-79.75" font-family="Helvetica,sans-Serif" font-size="10.00">TMC5161Stepper</text>
</a>
</g>
</g>
<!-- Node4&#45;&gt;Node5 -->
<g id="edge5_Node000004_Node000005" class="edge">
<title>Node4&#45;&gt;Node5</title>
<g id="a_edge5_Node000004_Node000005"><a xlink:title=" ">
<path fill="none" stroke="#63b8ff" d="M597.42,-83.62C605.37,-83.62 613.45,-83.62 621.15,-83.62"/>
<polygon fill="#63b8ff" stroke="#63b8ff" points="597.43,-80.13 587.43,-83.63 597.43,-87.13 597.43,-80.13"/>
</a>
</g>
</g>
<!-- Node7 -->
<g id="Node000007" class="node">
<title>Node7</title>
<g id="a_Node000007"><a xlink:href="class_t_m_c2209_stepper.html" target="_top" xlink:title=" ">
<polygon fill="white" stroke="#666666" points="328.5,-56.25 236,-56.25 236,-37 328.5,-37 328.5,-56.25"/>
<text text-anchor="middle" x="282.25" y="-42.75" font-family="Helvetica,sans-Serif" font-size="10.00">TMC2209Stepper</text>
</a>
</g>
</g>
<!-- Node6&#45;&gt;Node7 -->
<g id="edge7_Node000006_Node000007" class="edge">
<title>Node6&#45;&gt;Node7</title>
<g id="a_edge7_Node000006_Node000007"><a xlink:title=" ">
<path fill="none" stroke="#63b8ff" d="M211.92,-46.62C219.87,-46.62 227.95,-46.62 235.65,-46.62"/>
<polygon fill="#63b8ff" stroke="#63b8ff" points="211.93,-43.13 201.93,-46.63 211.93,-50.13 211.93,-43.13"/>
</a>
</g>
</g>
<!-- Node8 -->
<g id="Node000008" class="node">
<title>Node8</title>
<g id="a_Node000008"><a xlink:href="class_t_m_c2224_stepper.html" target="_top" xlink:title=" ">
<polygon fill="white" stroke="#666666" points="328.5,-19.25 236,-19.25 236,0 328.5,0 328.5,-19.25"/>
<text text-anchor="middle" x="282.25" y="-5.75" font-family="Helvetica,sans-Serif" font-size="10.00">TMC2224Stepper</text>
</a>
</g>
</g>
<!-- Node6&#45;&gt;Node8 -->
<g id="edge8_Node000006_Node000008" class="edge">
<title>Node6&#45;&gt;Node8</title>
<g id="a_edge8_Node000006_Node000008"><a xlink:title=" ">
<path fill="none" stroke="#63b8ff" d="M200.16,-33.34C215.5,-28.86 232.37,-23.92 246.73,-19.72"/>
<polygon fill="#63b8ff" stroke="#63b8ff" points="199.38,-29.92 190.77,-36.09 201.35,-36.64 199.38,-29.92"/>
</a>
</g>
</g>
</g>
</svg>
