<?xml version="1.0" encoding="UTF-8" standalone="no"?>
<!DOCTYPE svg PUBLIC "-//W3C//DTD SVG 1.1//EN"
 "http://www.w3.org/Graphics/SVG/1.1/DTD/svg11.dtd">
<!-- Generated by graphviz version 12.2.1 (20241206.2353)
 -->
<!-- Title: src/source/rpi_bcm2835.h Pages: 1 -->
<svg width="202pt" height="83pt"
 viewBox="0.00 0.00 202.12 82.50" xmlns="http://www.w3.org/2000/svg" xmlns:xlink="http://www.w3.org/1999/xlink">
<g id="graph0" class="graph" transform="scale(1 1) rotate(0) translate(4 78.5)">
<title>src/source/rpi_bcm2835.h</title>
<!-- Node1 -->
<g id="Node000001" class="node">
<title>Node1</title>
<g id="a_Node000001"><a xlink:title=" ">
<polygon fill="#999999" stroke="#666666" points="169.25,-74.5 40.75,-74.5 40.75,-55.25 169.25,-55.25 169.25,-74.5"/>
<text text-anchor="middle" x="105" y="-61" font-family="Helvetica,sans-Serif" font-size="10.00">src/source/rpi_bcm2835.h</text>
</a>
</g>
</g>
<!-- Node2 -->
<g id="Node000002" class="node">
<title>Node2</title>
<g id="a_Node000002"><a xlink:title=" ">
<polygon fill="#e0e0e0" stroke="#999999" points="64,-19.25 0,-19.25 0,0 64,0 64,-19.25"/>
<text text-anchor="middle" x="32" y="-5.75" font-family="Helvetica,sans-Serif" font-size="10.00">bcm2835.h</text>
</a>
</g>
</g>
<!-- Node1&#45;&gt;Node2 -->
<g id="edge1_Node000001_Node000002" class="edge">
<title>Node1&#45;&gt;Node2</title>
<g id="a_edge1_Node000001_Node000002"><a xlink:title=" ">
<path fill="none" stroke="#63b8ff" d="M92.62,-54.84C81.85,-46.99 66.03,-35.45 53.25,-26.12"/>
<polygon fill="#63b8ff" stroke="#63b8ff" points="55.56,-23.48 45.42,-20.42 51.44,-29.14 55.56,-23.48"/>
</a>
</g>
</g>
<!-- Node3 -->
<g id="Node000003" class="node">
<title>Node3</title>
<g id="a_Node000003"><a xlink:title=" ">
<polygon fill="#e0e0e0" stroke="#999999" points="127.62,-19.25 82.38,-19.25 82.38,0 127.62,0 127.62,-19.25"/>
<text text-anchor="middle" x="105" y="-5.75" font-family="Helvetica,sans-Serif" font-size="10.00">stdio.h</text>
</a>
</g>
</g>
<!-- Node1&#45;&gt;Node3 -->
<g id="edge2_Node000001_Node000003" class="edge">
<title>Node1&#45;&gt;Node3</title>
<g id="a_edge2_Node000001_Node000003"><a xlink:title=" ">
<path fill="none" stroke="#63b8ff" d="M105,-55.08C105,-48.57 105,-39.42 105,-31.12"/>
<polygon fill="#63b8ff" stroke="#63b8ff" points="108.5,-31.12 105,-21.12 101.5,-31.12 108.5,-31.12"/>
</a>
</g>
</g>
<!-- Node4 -->
<g id="Node000004" class="node">
<title>Node4</title>
<g id="a_Node000004"><a xlink:title=" ">
<polygon fill="#e0e0e0" stroke="#999999" points="194.12,-19.25 145.88,-19.25 145.88,0 194.12,0 194.12,-19.25"/>
<text text-anchor="middle" x="170" y="-5.75" font-family="Helvetica,sans-Serif" font-size="10.00">stdint.h</text>
</a>
</g>
</g>
<!-- Node1&#45;&gt;Node4 -->
<g id="edge3_Node000001_Node000004" class="edge">
<title>Node1&#45;&gt;Node4</title>
<g id="a_edge3_Node000001_Node000004"><a xlink:title=" ">
<path fill="none" stroke="#63b8ff" d="M116.03,-54.84C125.42,-47.15 139.15,-35.9 150.41,-26.68"/>
<polygon fill="#63b8ff" stroke="#63b8ff" points="152.45,-29.53 157.97,-20.48 148.01,-24.11 152.45,-29.53"/>
</a>
</g>
</g>
</g>
</svg>
